<?xml version="1.0" encoding="UTF-8"?>
<svg id="Layer_1" xmlns="http://www.w3.org/2000/svg" version="1.1" viewBox="0 0 1080 1080">
  <!-- Generator: Adobe Illustrator 30.1.0, SVG Export Plug-In . SVG Version: 2.1.1 Build 136)  -->
  <defs>
    <style>
      .st0 {
        fill: #fff;
      }
    </style>
  </defs>
  <g>
    <path d="M653.39,930.89c-2.91.16-5.98.17-8.85-.02l-8.35-.54c-7.88-.51-15.52-2.81-22.55-6.22-8.05-3.91-13.48-10.72-16.75-18.8-6.25-15.44-6.19-24-5.83-40.64l.53-24.28.66-12.37.6-17.78.14-50.9-.47-7.18-.42-9.44-.54-10.63-1.15-16.59-.8-9.37-1.29-13.05-3.4-25.45-2.87-16.28-8.43-.61c-6.05-.44-11.57-1.89-17.76-3.24l1,10.4c.86,8.92.51,17.86.03,26.91l-.53,10.08-.52,9.45-2.34,27.72-2.94,28.3-1.09,9.51-4.84,39.5-5.38,38.73-1.47,9.78c-1.86,12.37-5.34,24.43-15.5,32.53-11.68,9.32-29.62,10.07-44.05,9.03l-8.85-.64c-3.11-.23-6.14-.76-9.23-1.21l-6.81-.99c-16.72-2.43-34.24-8.82-44.07-23.29-9.62-14.16-9.01-34.45,4.62-44.68,3.89-2.92,8.26-4.18,12.97-4.87l6.72-.99c7.93-1.17,15.21-.21,23.23.07l6.85.24c4.6.16,8.88,1.74,13.52.71,1.74-.39,2.43-3.74,2.73-5.31,2.13-11.2.64-17.13-.01-27.39l-.64-10.02c-.21-3.27-.63-6.32-1.02-9.54l-1.1-9.02-2.06-16.31-.9-6.59-1.98-14.63-.92-6.25-1.5-9.91-.94-6.19-1.3-8.59-1.15-6.98-.95-5.13c-2.8-15.13-5.71-29.92-10.19-44.64-3.3-10.86-7.6-20.5-13.75-29.96-6.06-9.33-8.72-21.2-9.59-32.23-.27-3.42-1.05-6.89-1.05-10.29l-.05-41.59.58-7.79.62-13,.52-8.23,1.08-12.99,1.16-12.97,1.84-17.01c-13.64-22.04-34.36-43.16-54.99-58.38-.69-.51-2.89.08-3.82.48-13.46,5.77-27.31,14.22-37.22,25.49l-4.48,5.09c-4.41,5.02-8.3,10.2-14.33,13.43-7.88,4.21-16.53,5.16-25.6,3.89l-8.75,27.86c-3.38,10.76-12.17,18.98-24.28,16.68-13.43-3.81-21.65-15.85-21.78-29.76-.13-13.32,3.98-25.6,11.3-38.02-15.66,1.17-30.97-4.05-43.13-14.46-12.58-10.25-21.14-23.73-25.58-39.37-2.82-9.91-3.03-13.77-2.36-24.68.15-2.39,2.14-6.01,3.45-8.06,7.43-5.27,13.38-11.34,17.93-19.37,2.34-4.12,6.23-8.9,6.18-13.76-.07-6.69-3.47-12.9-3.96-19.61-.15-2.02-.53-3.89-1.94-5.45-10.63,15.44-27.04,24.64-45.41,26.36-16.31,1.52-34.38-3.66-47.37-13.77-6.21-4.84-11.73-11.54-13.51-19.47-2.27-10.1-2.95-16.5-2.26-27.16.47-7.24,4.3-18.07,10.77-22.71s14.38-5.14,22.1-3.73l8.14,1.49c4.46.81,8.4,1.11,12.93,0,15.21-3.73,21.86-7.23,35.34-15.59l65.94-40.88c11.95-7.41,23.91-13.95,37.83-17.15,4.2-.58-7.78-2.22-6.18-7.94s7.08-9.04,12.51-10.51l4.7-1.27c5.49-1.48,10.58-1.29,16.48,1.12l-4.15-11.37c-.59-1.6-.28-3.96-.44-6.16-.21-2.87,2.2-7.95,5.84-6.65,6.99,2.5,12.32,17.76,36.56,24.13,2.54.67,5.3,1.68,7.85,2.02l12.58,1.69,13.77.42,8.27.7,22.65.41c3.26.06,9.52,1.23,12.76,2,17.32,4.13,33.71,17.06,46.36,29.12l15.15,14.46c7.59,7.24,14.91,14.45,22.05,22.09l8.9,9.53c18.6,19.92,38.31,46.51,43.68,73.65.88,4.45.78,8.76.06,13.14-3.41,20.7-24.12,33.56-43.72,34.73l-6.09.36c-6.24.37-17.95-2.49-24.87-4.5-.57-.4-.61-.16-.53.81,16.43,16.73,36.02,30.06,58.44,37.06,6.44,2.01,12.56,3.73,19.07,4.64l13.02,1.81,8.9,1.16,22.98,3.63,46.05,8.16,13.66,1.8c7.46.98,14.71,1.69,22.16.94,10.16-1.02,19.65-3.17,29.43-6.01l25.23-7.31c19.22-5.57,38.32-7.31,58.24-6.27,15.48.81,29.86,4.87,44.12,10.71,18.35,7.51,32.83,19.86,47.56,32.83,9.85,8.67,22.84,13.59,34.72,18.79,13.64,5.97,43.15,12.24,51.81-3.77,3.85-7.11,4-14.66,2.39-22.28l-1.77-8.4c-.48-2.29-1.05-7.81,2.04-8.56s6.65,3.25,8.3,5.86c6.91,10.92,9.29,21.43,9.06,34.05l-.13,6.74c-.05,2.93-.85,6.01-1.63,8.93-5.66,21.19-24.09,31.92-45.76,31.28-7.24-.22-15.78-1.88-22.14-4.69-.34-.15-1.44-.07-1.36.14l.39,1.08c4.87,13.59,8.94,27.24,10.51,41.76l1.22,11.24c.5,4.62.48,9.83-.06,14.41l-1.13,9.58c-3.01,25.62-16.79,63.13-26.86,87.52l-17.61,42.64c-5.2,12.58-9.48,24.87-12.67,38.06l-4.81,19.88-1.99,9.79-.97,4.92-1.95,9.94-1.09,5.86-1.86,11.17-1.01,6.08-1.42,9.42-1.1,7.28-.94,6.63-.72,6.44-1.23,9.93-.95,8.47-.31,3.5c-.19,2.1,7.52,1.11,8.93.94,5.17-.63,9.96-.15,15.06.12,10.62.55,26.35,1.95,32.82,11.65,2.64,3.96,2.5,8.7,2.86,13.25,1.02,12.86-1.04,25.55-12.99,32.84-13.61,8.29-38.24,8.06-53.96,6.26-14.55-1.67-33.75-6.15-43.35-17.33-3.68-4.29-3.69-8.92-4.13-13.94l-1.6-18.4-1.1-11.2-1.54-16.15-1.18-11.7-.83-8.14-.91-8.5-1.36-12.73-1.9-17.76-3-26.52-1.07-9.49c-1.76-15.57-3.7-15.09-.18-29.05,4.37-17.3,8.84-36.26,4.02-54.29-9.28,5.28-18.43,9.87-28.53,13.26l-16.33,5.47c-1.31,3.37-1.03,7.08-.7,10.48.52,5.42,1.7,10.36,4.64,15.02,10.15,16.04,9.76,19.42,3.76,37.79l-17.01,52.08-14.5,43.33-6.86,23.33c-2.93,9.95-19.26,18.47-29.35,20.29-.61.2-1.03.31-.84.44.22.16.96.73,1.17.84,13.41,7.1,24.39,18.59,20.89,35.22-4.04,19.21-21.88,27.88-39.58,31.23-5.42,1.03-10.93,1.93-16.49,2.23l-11.24.61ZM595.21,829.91l-.66,18.1-.55,15.49c-.56,15.68-.04,25.22,5.59,39.67,2.8,7.18,7.12,13.15,13.86,16.97,6.14,3.48,12.68,5.4,19.8,6.4,2.03.29,13.59,2.45,13.59-.56v-16.69s-.43-2.58-.43-2.58c-.51-2.96-.37-6.45-1.17-9.42-2.99-11.05-12.82-13.18-12.48-13.85l.61-1.2c7.18,1.91,13.54,7.76,15.34,15.58,3.1,13.48,1.1,16.26-.08,29.55,6.56.42,12.56-.17,18.89-.98,11.82-1.51,14.78-1.66,26.5-5.59,4.4-1.48,3.25-11.55,2.69-15.4-1.47-10.03-5.79-18.99-13.23-25.7-5.28-4.77-10.47-6.1-16.92-3.7-.36.13-1-1.13-.68-1.33,4.12-2.54,9.2-2.84,13.94-.6,10.49,4.96,17.16,15.12,19.22,26.7.9,5.05.34,11.48-.16,16.47-.35,3.42,10.5-6.37,11.38-7.27,7.65-7.87,11.01-23.17,2.7-33.28-2.21-2.69-4.79-5.51-7.63-7.6-12.4-9.1-26.86-11.2-41.66-8.54-2.84.51-5.26,2.29-8.44,1.19-.09-6.96-.38-13.61.07-20.43l.66-10,1.21-14.68.97-10.79.82-9.32,1.07-10.66,1.38-13.75.97-9.02,2.03-18.04.96-7.9,2.01-16.3.91-6.72,2.02-14.59.83-5.82c3.26-22.99,7.68-45.27,12.7-67.98,3.94-17.85,5.83-33.01,4.68-51.03-.81-12.76-7.69-19.49-9.28-23.56-1.8-4.61,14.49,10.33,11.66,40.14-1.04,10.93-2.31,21.33-4.5,32.22l-9.04,44.89,15.66-1.26c21.65-1.74,42.77-5.75,63.54-11.88l4.2-1.24c24.8-7.31,48.06-19.21,67.36-36.51,8.67-7.78,16.58-17.26,23.58-26.62l12.63-16.89c4.21-5.63,13.26-15.16,18.94-18.52.48.59.84,1.05.84,1.04-.72.89-5.76,4.43-9.14,8.04-6.03,6.45-11.07,13.25-16.1,20.53-15.87,22.95-28.87,38.33-52.99,53.22,3.84,13.23,2.29,29.53-.7,42.47l-4.66,20.15c-.51,2.21-.16,5.68.13,7.93l2.7,20.91,5.33,47.79,5.96,56.58,1.1,11.3,1.66,18.82c.49,5.54,1.45,10.1,5.97,13.89,10.17,8.54,24.99,11.83,38.14,13.67,2.65.37,5.06.24,8.03.19.22-10.69-1.24-24.31-7.99-32.72-4.09-5.1-11.48-6.66-17.47-5.98-.61.09-1.05.24-1.03.02l.12-1.19c.01-.13.58-.26.85-.33l.96-.27c3.78-1.05,11.12-.12,15.28,2.59,12.11,7.87,12.04,24.52,10.96,38.37l8.6.3c2.46.09,5.35-.09,7.9-.31l6-.53c3.9-.35,7.43-1.18,11.41-2.18,2.4-9.1,4.55-18.26,2.94-27.48-1.72-9.93-12.05-13.54-14.11-15.33-.12-.1.29-.44.72-.98,8.7,2.72,17.47,9.78,17.38,20.07-.07,8.07-2.28,15.31-4.83,23.07,19.31-5.75,21.4-22.49,18.69-39.73-.54-3.42-1.75-6.34-4.62-8.61-7.11-5.63-17.35-6.67-26.4-7.31-5.46-.38-10.72-.72-16.19-.14-3.27.35-12.51,1.66-12.15-2.73l.87-10.48,1.09-8.86.61-5.89,1.23-8.87,1.87-12.95,1.04-6.52,1.98-12.23.97-5.49,1.88-10.56,1.13-5.88,1.38-6.82,4.86-21.7c3.12-13.92,7.36-27.04,12.79-40.34l17.1-41.87,11.21-28.42c6.37-16.14,11.98-32.19,15.05-49.26l2.19-12.17c1.36-7.55,1.43-16.29.99-24.06l-.51-9.09-1.03-6.67c-3.81-24.63-12.92-48.13-26.21-69.26-11.43-18.17-25.84-33.66-43.55-45.63-18.68-12.62-39.51-21.42-61.97-22.43l-9.82-.44c-3.1-.14-5.86-.17-8.98.01l-12.44.75c-15.58.94-30.27,5.86-45.25,10.15l-16.18,4.64c-7.51,2.15-14.96,3.13-22.71,3.92-6.51.66-12.69-.14-19.22-.76l-7.64-.73-31.9-5.41c-21.35-3.62-41.94-7.61-63.41-10.33-18.01-2.29-34.61-8.08-50.18-17.11-9.37-5.43-17.4-11.74-25.61-18.76-4.39-3.76-7.87-8.83-12.57-12.02-28.92-14.41-31.59-32.25-32.73-62.15l-.49-13.02-.77-7.63c-5.08-50.48-22.78-58.81-29.82-72.81-.09-.18,1.38-.46,1.52-.3,8.95,10.43,15.76,20.64,21.25,33.9s8.39,27.18,9.27,41.56l.61,10.06.6,11.82.57,8.21.7,6.89c1,9.9,4.12,19.55,10.52,27.13,5.79,6.86,12.92,11.05,21,14.59,17.31,7.59,38.67,9.48,55.79.56,10.74-5.6,19.05-15.14,20.94-27.4.53-3.47.33-7.51,0-11.04-.93-10.06-9.54-27.43-14.9-36.44-6.63-11.13-20.99-29.16-30.16-38.34l-38.55-38.59c-2.66-2.66-5.3-5.02-8.04-7.41l-7.31-6.35c-11.33-9.84-25.82-18.94-41.02-20.84-3.26-.41-6.69-1.2-9.95-1.23l-30.04-.29-7.68-1c-7.89-1.03-15.27-1.02-23.02-3.01-14.37-3.68-26.91-11.39-35.83-23.3-.58-.77-2.77-1.25-3.15-.49-.43.86-1.13,2.71-.98,3.63,1.38,8.71,5.63,16.81,10.34,24.22.62.97-.5,3.13-1.36,3.05-3.51-.34-3.97-9.15-16.86-9.11-6.45.02-12.4,1.15-17.82,4.88-1.46,1.01-3.14,3.47-2.91,5.18,2.6,2.79,6.11,2.33,9.47,2.62,9.81.86,7-.72,12.21.05.65.1,1.65,1.81,1.34,2.39-1.31,2.47-1.77.02-8.74,3.99-8.54,4.85-16.9,9.49-24.75,15.36-3.9,2.92-9.25,7.86-7.4,12.87,1.54,4.17-6.93-1.84,1.31-11.24,5.15-5.87,11.4-9.96,18.3-13.63l4.86-2.59c.31-.16,1.43-.45,1.72-.54.21-.06-.81-.65-1.3-.54-9.12,2.11-20.98,6.56-29.86,11.45-36.26,19.98-52.29,51.66-56.34,92.23,2.79-5.98,4.78-12.07,9.6-16.39,6.54-5.87,15.53-5.71,21.82.36,5.77,5.58,8.76,13.37,9.7,21.38.59.89.84,1.13.9.11,5.76-16.38,12.57-31.35,23.98-44.11,5.25-5.87,12.07-10.21,20.05-10.82,10.72-.82,17.83,8.32,19.4,18.38.54,3.47.62,7.74.06,11.26l-1.16,7.21-1.93,11.61-1.1,6.02-.98,5.36-.77,5.26-1.2,7.08-1.01,6.56-.71,5.93c-.41,3.44-.85,6.6-1.1,10.07l-.59,8.27c-.22,3.11-.49,5.98-.09,9.07.73,5.66.82,11.56,3.5,16.71,3.63,6.98,10.89,10.84,18.32,12.4,15.22,3.2,33.61-2.98,47.8-8.37,14.19-5.39,34.99-11.23,45.09,4.03,8.9,13.45,7.66,28.73-1.71,41.62-.21,3.01,14.18-7.87,15.27-8.81,9.4-8.08,15.99-18.24,17.41-30.58l.2-1.75c.03-.24,1.26.25,1.48.41-.32,13.25-7.95,25.54-18.21,34.49-15.63,13.64-29.11,14.56-47.58,22.19,22.48,16.57,41.85,35.55,56.85,58.48,6.84,10.45,11.9,21.14,16.51,32.58l11.2,27.79c9.48,23.53,17.25,34.25,44.44,31.88,27.84-2.43,44.31-24.72,53.19-48.98,1.47-4.02,2.03,2-3.26,12.52-4.41,8.78-9.3,16.59-16.19,23.37-9.31,9.17-20.73,14.65-33.71,16.04-28.22,3.04-38.46-9.52-48.14-34.18l-11.46-29.19c-3.81-9.71-8.1-18.64-13.75-28.06l-1.52,11.65-.62,8.83-.62,7.09-.55,6.49-.62,8.82-.53,7.79-.49,12.08-.62,18.17c-.19,5.57-.19,11.07,0,16.63l.57,15.93c.34,9.45,1.97,18.64,4.84,27.56,3.83,11.89,12.51,18.51,19.41,40.87,6.19,20.06,9.98,40.31,13.31,60.98l2.13,13.21.94,6.16,1.48,9.91,1.02,6.69,1.16,8.18,1.24,9.18,1.14,8.36.75,6.93.96,8.39,1.4,13.48c.98,9.45.95,22.03.49,31.54-.15,3.03-2.03,7.09-4.58,8.31-3.71,1.77-7.91.85-11.72.4l-9.01-1.07c-7.76-.92-15.67-1.45-23.33-.07l-6.95,1.26c-8.55,1.55-15.9,5.66-19.37,13.71-.72,1.67-1.87,4.25-1.98,6.04-.25,4.06-.62,8.4.21,12.01,1.73,7.46,5.37,14,11.34,18.81-2.71-9.01-3.51-17.58.3-26.02,3.91-8.67,13.56-12.91,22.9-14.42l.73,1.15c-3.87,1.54-6.77,2.42-9.96,4.09-7.16,3.73-11.94,10.6-12.79,18.53-.35,3.22-.7,5.98-.13,9.13s.31,7.91,2.58,10.38c5.15,5.62,18.84,10.1,26.43,11.5l7.02,1.29c1.22.23,2.5.32,3.47.09-1.22-4.43-2.81-8.36-3.11-12.9-.77-11.78-.58-16.84,5.77-25.93,2.16-3.1,5.18-5.16,8.36-7.02,2.39-1.4,4.69-3.46,7.82-2.99-4.95,3.75-9.72,6.43-13.23,11.17-7.37,9.94-7.4,26.26-3.58,37.27.73,2.1,4.28,1.48,5.87,1.78,4.93.93,9.35,1.02,14.27,1.31,12.65.75,29.99,0,39.96-8.63,12.54-10.87,13.85-26.4,16.09-42.51l8.26-59.42,2.76-22.09,1.25-10.44,3.78-38.31,1.05-13,.52-9.46.58-11.21c.44-8.57.23-16.82.06-25.4-.06-2.97-.88-6.13-1.39-9.11-39.62-11.74-67.05-37.71-87.19-72.75-.21-.36-.16-1.21-.06-1.56.07-.27,1.1.08,1.41.6,8.32,13.83,19.16,27.19,31.33,38.35,21.45,19.68,52.22,36.7,82.17,38.08-1.94-10.81-4.22-18.88-9.32-28.18-5.85-10.67-9.73-22-12.9-33.8-.09-.34.1-1.27.21-1.6.08-.24,1.18.09,1.38.93,2.48,9.91,7.48,24.16,13.42,34.64,4.62,8.16,6.86,16.49,8.84,25.57,2.82,12.95,5.02,25.67,6.48,38.9l2.86,25.98.67,8.87.81,10.59.55,7.68c.19,2.59.19,5.06.4,7.71l.53,6.61-.18,76.45ZM98.93,254.37c3.06-11.5,8.85-18.02,18.71-22.77,6.06-2.92,12.13-4.05,18.61-5.2l5.98-1.06,9.8-2.03c17.21-3.57,40.8-11.54,56.04-20.57,3.2-2,6.06-4.05,8.72-6.78,5.06-10.58,12.17-19,20.24-27.86l-53.85,34.42c-12.76,8.15-31.79,17.9-47.08,15.17l-5.96-1.06-6.55-.67c-7.87-.8-13.45.39-18.89,6.31-4.19,4.57-5.33,10.62-6.37,16.69-.92,5.38-1.52,10.74.59,15.43ZM305.59,421.02c-4.78,5.26-6.57,11.3-8.56,18.32,13.22,2.33,25.92-2.64,33.7-13.18,11.63-15.75,26.55-27.79,44.53-35.75,8.49-3.76,16.97-6.11,25.8-9.09,2.52-.85,6.48-1.4,8.39-3.34,6.74-6.84,10.83-16.27,10.33-25.78-.56-10.87-6.95-24.35-19.25-25.46-3.24-.29-6.81-.5-9.92-.02-18.67,2.87-32.68,14.62-59.18,15.25-14.22.34-28.85-6.06-32.03-21.12-1.59-7.53-2.39-21.28-1.52-27.94l1-7.64c.36-2.76.48-5.23.86-7.85l1.98-13.5.99-5.35,2.07-11.68,2.05-11.22c1.95-10.69,3.86-22.39-3.39-31.08-3.74-4.48-9.74-5.91-15.37-3.95-7.27,2.53-12.89,7.53-17.62,13.66-8.96,11.62-15.26,24.55-19.94,38.44-1.79,5.33-2.78,10.51-4.3,15.96l-3.52,12.73c-1.2,4.32-3.29,6.97-6.97,9.18-3.05,1.83-6.1,3.68-9.31,5.35l-15.83,8.26c-4.42,9.42-9.94,17.66-17.51,24.49-2.03,1.83-4.72,3.34-6.42,5.44-3.94,4.87-3.1,15.05-2.05,21.11,3.1,17.85,11.7,33.6,25.35,45.52,10.25,8.95,26.8,17.03,40.86,14.49-7.74-5.55-16.09-10.62-19.79-19.45,10.17,10.95,20.93,19.54,35.32,22.89s25.21,2.82,39.47-1.57c17.7-5.45,33.1-17.16,45.16-30.94,8.14-9.3,18.83-25.6,20.63-38.21l-10.36-.3c-.48-.01-1.58-.57-1.94-.75-.26-.13.6-1.23.94-1.25,21.9-1.5,15.82-4.85,20.51-5.52,2.47-.35-2.99,6.66-7.1,7.31-.83,2.92-1.23,6.07-2.27,8.96-10.16,28.25-36.33,56.16-65.77,64.56ZM146.51,296.97c24.15,2.13,43.73-7.32,57.26-27.25-.89-7.04-1.61-13.79-.87-20.81l1.32-12.43.87-4.94c1.82-10.37,5.06-19.98,8.78-30.07-19.88,13.37-46.04,22.82-69.15,26.92l-5.97,1.06-6.75,1.06c-15.18,2.39-28.01,10.03-31.47,25.93-1.42,6.52-.4,12.66,3.54,18.23,9.19,13.02,26.81,20.93,42.44,22.31ZM226.71,284.87c4.4.01,7.92-2.63,10.68-5.7,4.43-4.94,5.95-11.22,7.27-17.55,1.8-8.63-1.45-21.99-7.25-28.76-3.56-4.16-8.98-6.7-14.19-5.02-9.81,3.17-13.61,15-14.93,24.16-1.63,11.34,4.77,32.84,18.42,32.87ZM239.76,282.47l-4.97,3.66c-2.07,1.52-4.66,2.04-7.27,2.19-11.37.69-16.87-9.3-20.49-18.14-.08,11.42,5.47,20.57,5.27,31.12l5.01-2.6c3.05-1.58,24.51-11.92,22.46-16.23ZM934.38,459.49c1.39,3.37,14.83,5.87,18.45,6.36,24.72,3.29,46.59-8.15,50.91-34.17,1-6.04.61-12.51.23-18.92-.37-6.13-6.03-23.69-12.64-27.55.09,4.82,1.21,8.8,1.91,13.15.71,4.42.28,9.05.39,13.87.02,1-.62,2.67-.87,3.71-1.67,6.95-5.81,12.5-12.61,15.31-21.29,8.81-52.03-5.94-70.67-17.13-.92-.55-2.39-1.05-3.19-1.25,11.87,14.41,21.1,29.65,28.08,46.62ZM291.26,423.48c-14.13,1.65-16.03-2.79-19.38,2.38-6.43,9.9-9.42,19.25-10.01,30.93-.11,2.17,1.71,4.53-.71,6.19-4.45-14.2-.39-27.6,9.17-38.17.37-.41.73-1.92.34-2.16-4.84-1.16-10.25-2.94-15.25-4.84-7.06,10.7-11.17,22.56-12.03,34.97-.87,12.52,4.85,24.16,16,29.5,8.94,4.29,18.89.99,23.54-7.76,3.07-5.77,4.85-12.1,6.81-18.46l4.16-13.51c2.72-8.84,3.62-11.06,8.07-20.14-1.79-.3-3.59.13-5.68.63-1.36.33-3.44.26-5.02.44ZM671.64,838.95c.37,0,1.2.08,1.15.31l-.29,1.21c-4.9,1.82-10.86,4.08-14.06,8.81-.59,2.68-.37,6.59-.2,9.11l7.91-1.51c.71-.14,2.45-.76,3.28-.78,7.36-.13,10.75-.51,18.07,1.34l6.65,1.68c10.92-.48,29.37-9.25,32.32-20.28,3.42-12.8,6.93-25.21,11.05-37.92l8.85-27.31,20.92-62.14c2.2-6.54,1.94-13.36-1.38-19.27l-4.88-8.69c-2.56-4.56-3.64-9.24-4.02-14.41-.62-8.38,1.24-6.99-.28-10.47-20.94,5.57-41.66,8.82-63,10.49l-6.7.52-9.63.6c-.78,3.09-1.44,6.82-1.93,10.22l-3.41,23.68c-.77,5.37-.45,10.24,2.65,14.96,4.74,7.24,14,19.37,12.76,27.55l-1.36,8.93c-1.88,12.39-10.53,35.06-15.5,47.33l-4.44,10.98,9.09.38c2.69.11,5.84,1.96,8.22,3.07-.11.8-.09,1.46-.34,1.44-3.48-.3-12.93-5.4-22.8,2.91-1.49,3.14-.82,7.25-1.14,10.69l-1.14,12.21c4.22-3.9,8.37-5.76,13.58-5.65ZM660.07,817.98c4.57,2.8,19.94-51.68,20.61-54.51l2.05-8.7c.8-3.37,2.04-11.62.96-14.63-1.88-5.21-4.85-9.63-7.46-14.37l-5.51-10.02-2.63,21.04-1.07,9.44-1.64,15.47-1.02,9.5-1.39,14.03-.54,5.96-1.06,11.8-1.3,14.99Z"/>
    <path class="st0" d="M595.21,829.91l.18-76.45-.53-6.61c-.21-2.66-.22-5.12-.4-7.71l-.55-7.68-.81-10.59-.67-8.87-2.86-25.98c-1.45-13.23-3.65-25.96-6.48-38.9-1.98-9.07-4.22-17.41-8.84-25.57-5.94-10.49-10.94-24.73-13.42-34.64-.21-.84-1.31-1.17-1.38-.93-.1.33-.3,1.26-.21,1.6,3.18,11.8,7.05,23.13,12.9,33.8,5.1,9.3,7.38,17.36,9.32,28.18-29.94-1.38-60.72-18.4-82.17-38.08-12.17-11.16-23.01-24.52-31.33-38.35-.31-.52-1.33-.87-1.41-.6-.1.35-.15,1.2.06,1.56,20.14,35.04,47.57,61.02,87.19,72.75.51,2.98,1.33,6.14,1.39,9.11.16,8.57.38,16.82-.06,25.4l-.58,11.21-.52,9.46-1.05,13-3.78,38.31-1.25,10.44-2.76,22.09-8.26,59.42c-2.24,16.11-3.55,31.64-16.09,42.51-9.97,8.64-27.31,9.38-39.96,8.63-4.92-.29-9.34-.38-14.27-1.31-1.59-.3-5.14.31-5.87-1.78-3.82-11.01-3.78-27.33,3.58-37.27,3.51-4.74,8.28-7.43,13.23-11.17-3.13-.47-5.43,1.59-7.82,2.99-3.18,1.87-6.2,3.93-8.36,7.02-6.35,9.09-6.54,14.16-5.77,25.93.3,4.54,1.9,8.47,3.11,12.9-.97.23-2.25.13-3.47-.09l-7.02-1.29c-7.59-1.4-21.28-5.88-26.43-11.5-2.27-2.48-2.02-7.27-2.58-10.38s-.22-5.91.13-9.13c.85-7.93,5.63-14.8,12.79-18.53,3.2-1.67,6.1-2.55,9.96-4.09l-.73-1.15c-9.33,1.51-18.98,5.75-22.9,14.42-3.8,8.43-3,17.01-.3,26.02-5.97-4.81-9.61-11.35-11.34-18.81-.84-3.61-.46-7.94-.21-12.01.11-1.79,1.25-4.37,1.98-6.04,3.47-8.05,10.82-12.17,19.37-13.71l6.95-1.26c7.66-1.38,15.58-.86,23.33.07l9.01,1.07c3.81.45,8.01,1.37,11.72-.4,2.55-1.22,4.43-5.28,4.58-8.31.46-9.51.5-22.08-.49-31.54l-1.4-13.48-.96-8.39-.75-6.93-1.14-8.36-1.24-9.18-1.16-8.18-1.02-6.69-1.48-9.91-.94-6.16-2.13-13.21c-3.34-20.67-7.12-40.92-13.31-60.98-6.91-22.36-15.59-28.98-19.41-40.87-2.87-8.92-4.5-18.11-4.84-27.56l-.57-15.93c-.2-5.56-.2-11.06,0-16.63l.62-18.17.49-12.08.53-7.79.62-8.82.55-6.49.62-7.09.62-8.83,1.52-11.65c5.65,9.42,9.94,18.35,13.75,28.06l11.46,29.19c9.68,24.65,19.92,37.21,48.14,34.18,12.98-1.4,24.4-6.88,33.71-16.04,6.89-6.78,11.78-14.59,16.19-23.37,5.28-10.52,4.73-16.54,3.26-12.52-8.88,24.26-25.35,46.56-53.19,48.98-27.19,2.37-34.96-8.35-44.44-31.88l-11.2-27.79c-4.61-11.44-9.67-22.13-16.51-32.58-15.01-22.93-34.37-41.91-56.85-58.48,18.47-7.63,31.95-8.55,47.58-22.19,10.26-8.95,17.88-21.24,18.21-34.49-.21-.16-1.45-.66-1.48-.41l-.2,1.75c-1.42,12.34-8.01,22.5-17.41,30.58-1.1.94-15.48,11.82-15.27,8.81,9.37-12.89,10.61-28.17,1.71-41.62-10.1-15.26-30.9-9.43-45.09-4.03-14.19,5.39-32.57,11.57-47.8,8.37-7.42-1.56-14.69-5.43-18.32-12.4-2.68-5.15-2.77-11.05-3.5-16.71-.4-3.1-.13-5.96.09-9.07l.59-8.27c.25-3.47.69-6.64,1.1-10.07l.71-5.93,1.01-6.56,1.2-7.08.77-5.26.98-5.36,1.1-6.02,1.93-11.61,1.16-7.21c.57-3.52.49-7.79-.06-11.26-1.57-10.06-8.68-19.2-19.4-18.38-7.97.61-14.79,4.95-20.05,10.82-11.4,12.75-18.22,27.73-23.98,44.11-.06,1.02-.31.78-.9-.11-.94-8.01-3.93-15.8-9.7-21.38-6.29-6.07-15.29-6.23-21.82-.36-4.82,4.33-6.82,10.42-9.6,16.39,4.04-40.58,20.08-72.25,56.34-92.23,8.87-4.89,20.74-9.34,29.86-11.45.49-.11,1.5.47,1.3.54-.3.09-1.42.37-1.72.54l-4.86,2.59c-6.89,3.67-13.15,7.76-18.3,13.63-8.25,9.4.23,15.41-1.31,11.24-1.85-5.02,3.5-9.96,7.4-12.87,7.85-5.87,16.21-10.51,24.75-15.36,6.98-3.97,7.43-1.52,8.74-3.99.31-.58-.69-2.29-1.34-2.39-5.21-.76-2.4.82-12.21-.05-3.35-.3-6.86.17-9.47-2.62-.22-1.71,1.45-4.18,2.91-5.18,5.41-3.73,11.37-4.85,17.82-4.88,12.89-.05,13.35,8.76,16.86,9.11.87.09,1.98-2.08,1.36-3.05-4.71-7.41-8.95-15.51-10.34-24.22-.15-.92.55-2.77.98-3.63.38-.77,2.58-.28,3.15.49,8.93,11.91,21.47,19.61,35.83,23.3,7.75,1.99,15.13,1.98,23.02,3.01l7.68,1,30.04.29c3.26.03,6.69.82,9.95,1.23,15.2,1.9,29.69,11,41.02,20.84l7.31,6.35c2.74,2.38,5.38,4.75,8.04,7.41l38.55,38.59c9.17,9.18,23.54,27.21,30.16,38.34,5.36,9.01,13.96,26.37,14.9,36.44.33,3.52.53,7.57,0,11.04-1.89,12.26-10.2,21.81-20.94,27.4-17.12,8.92-38.48,7.02-55.79-.56-8.08-3.54-15.21-7.73-21-14.59-6.4-7.58-9.52-17.23-10.52-27.13l-.7-6.89-.57-8.21-.6-11.82-.61-10.06c-.88-14.38-3.8-28.33-9.27-41.56s-12.29-23.47-21.25-33.9c-.14-.16-1.61.11-1.52.3,7.04,14,24.74,22.33,29.82,72.81l.77,7.63.49,13.02c1.14,29.89,3.81,47.74,32.73,62.15,4.7,3.19,8.18,8.26,12.57,12.02,8.21,7.02,16.24,13.33,25.61,18.76,15.58,9.03,32.17,14.82,50.18,17.11,21.47,2.73,42.06,6.71,63.41,10.33l31.9,5.41,7.64.73c6.53.63,12.71,1.42,19.22.76,7.75-.79,15.2-1.77,22.71-3.92l16.18-4.64c14.97-4.29,29.67-9.21,45.25-10.15l12.44-.75c3.11-.19,5.88-.15,8.98-.01l9.82.44c22.47,1.01,43.29,9.81,61.97,22.43,17.71,11.97,32.12,27.46,43.55,45.63,13.29,21.13,22.4,44.63,26.21,69.26l1.03,6.67.51,9.09c.44,7.77.37,16.51-.99,24.06l-2.19,12.17c-3.07,17.06-8.68,33.11-15.05,49.26l-11.21,28.42-17.1,41.87c-5.43,13.3-9.67,26.42-12.79,40.34l-4.86,21.7-1.38,6.82-1.13,5.88-1.88,10.56-.97,5.49-1.98,12.23-1.04,6.52-1.87,12.95-1.23,8.87-.61,5.89-1.09,8.86-.87,10.48c-.36,4.39,8.87,3.08,12.15,2.73,5.47-.58,10.73-.25,16.19.14,9.06.63,19.3,1.68,26.4,7.31,2.87,2.27,4.08,5.19,4.62,8.61,2.71,17.23.62,33.98-18.69,39.73,2.54-7.76,4.76-15.01,4.83-23.07.09-10.29-8.68-17.34-17.38-20.07-.43.54-.84.88-.72.98,2.06,1.8,12.39,5.41,14.11,15.33,1.6,9.22-.54,18.37-2.94,27.48-3.98,1-7.5,1.83-11.41,2.18l-6,.53c-2.55.23-5.44.4-7.9.31l-8.6-.3c1.08-13.84,1.14-30.5-10.96-38.37-4.16-2.7-11.5-3.63-15.28-2.59l-.96.27c-.26.07-.84.21-.85.33l-.12,1.19c-.02.21.41.07,1.03-.02,5.99-.68,13.38.88,17.47,5.98,6.75,8.42,8.21,22.03,7.99,32.72-2.98.05-5.38.18-8.03-.19-13.15-1.84-27.97-5.13-38.14-13.67-4.52-3.79-5.48-8.35-5.97-13.89l-1.66-18.82-1.1-11.3-5.96-56.58-5.33-47.79-2.7-20.91c-.29-2.25-.64-5.72-.13-7.93l4.66-20.15c2.99-12.93,4.54-29.24.7-42.47,24.12-14.89,37.13-30.27,52.99-53.22,5.03-7.27,10.06-14.07,16.1-20.53,3.38-3.61,8.42-7.15,9.14-8.04,0,.01-.36-.44-.84-1.04-5.68,3.36-14.73,12.89-18.94,18.52l-12.63,16.89c-7,9.35-14.91,18.84-23.58,26.62-19.29,17.3-42.56,29.19-67.36,36.51l-4.2,1.24c-20.77,6.12-41.9,10.14-63.54,11.88l-15.66,1.26,9.04-44.89c2.19-10.89,3.47-21.29,4.5-32.22,2.82-29.81-13.46-44.74-11.66-40.14,1.59,4.08,8.47,10.8,9.28,23.56,1.15,18.01-.74,33.17-4.68,51.03-5.01,22.71-9.43,44.98-12.7,67.98l-.83,5.82-2.02,14.59-.91,6.72-2.01,16.3-.96,7.9-2.03,18.04-.97,9.02-1.38,13.75-1.07,10.66-.82,9.32-.97,10.79-1.21,14.68-.66,10c-.45,6.82-.17,13.47-.07,20.43,3.18,1.1,5.59-.68,8.44-1.19,14.8-2.66,29.26-.56,41.66,8.54,2.85,2.09,5.43,4.91,7.63,7.6,8.3,10.12,4.94,25.41-2.7,33.28-.88.91-11.72,10.69-11.38,7.27.51-4.99,1.06-11.42.16-16.47-2.06-11.59-8.73-21.75-19.22-26.7-4.75-2.24-9.82-1.94-13.94.6-.32.2.32,1.47.68,1.33,6.45-2.4,11.64-1.07,16.92,3.7,7.43,6.72,11.76,15.68,13.23,25.7.56,3.85,1.71,13.92-2.69,15.4-11.72,3.94-14.68,4.09-26.5,5.59-6.33.81-12.33,1.4-18.89.98,1.19-13.28,3.19-16.07.08-29.55-1.8-7.82-8.15-13.66-15.34-15.58l-.61,1.2c-.34.67,9.48,2.8,12.48,13.85.8,2.97.67,6.46,1.17,9.42l.44,2.58v16.69c-.01,3.02-11.57.85-13.6.56-7.12-1-13.66-2.92-19.8-6.4-6.75-3.82-11.07-9.8-13.86-16.97-5.63-14.45-6.14-23.98-5.59-39.67l.55-15.49.66-18.1ZM256.04,202.86c-4.62-5.52-19.92-6.11-24.93-1.93,5.11.94,9.72.16,14.39.75,3.57.45,7.01,1.54,10.54,1.19ZM388.44,202.34c2.97-.25,6.61-.36,9.06.07.41.07,1.85-.33,1.63-.64s-1.11-1.06-1.56-1.12l-8.19-1.14c-4.6-.64-8.65-.57-13.15.52-6.93,1.67-14.6,3.52-19.75,9.57,8.55-3.02,13.64-5.74,23.34-6.55l8.61-.71ZM414.44,267.31c0-20.98-17.02-37.98-38.01-37.98s-38.01,17.01-38.01,37.98,17.02,37.98,38.01,37.98,38.01-17.01,38.01-37.98Z"/>
    <path class="st0" d="M671.64,838.95c-5.21-.11-9.36,1.75-13.58,5.65l1.14-12.21c.32-3.45-.35-7.56,1.14-10.69,9.88-8.31,19.33-3.22,22.8-2.91.24.02.23-.64.34-1.44-2.39-1.11-5.54-2.96-8.22-3.07l-9.09-.38,4.44-10.98c4.96-12.26,13.61-34.94,15.5-47.33l1.36-8.93c1.24-8.17-8.02-20.31-12.76-27.55-3.1-4.73-3.42-9.59-2.65-14.96l3.41-23.68c.49-3.41,1.16-7.14,1.93-10.22l9.63-.6,6.7-.52c21.34-1.67,42.06-4.92,63-10.49,1.51,3.47-.34,2.09.28,10.47.38,5.17,1.46,9.86,4.02,14.41l4.88,8.69c3.32,5.91,3.58,12.73,1.38,19.27l-20.92,62.14-8.85,27.31c-4.12,12.71-7.62,25.12-11.05,37.92-2.95,11.03-21.4,19.79-32.32,20.28l-6.65-1.68c-7.32-1.85-10.71-1.46-18.07-1.34-.82.01-2.56.64-3.28.78l-7.91,1.51c-.17-2.51-.39-6.43.2-9.11,3.2-4.73,9.16-6.99,14.06-8.81l.29-1.21c.05-.23-.78-.3-1.15-.31Z"/>
    <path class="st0" d="M934.38,459.49c-6.98-16.97-16.21-32.22-28.08-46.62.8.2,2.27.7,3.19,1.25,18.64,11.19,49.38,25.93,70.67,17.13,6.79-2.81,10.94-8.36,12.61-15.31.25-1.04.89-2.72.87-3.71-.11-4.82.32-9.45-.39-13.87-.7-4.36-1.82-8.33-1.91-13.15,6.61,3.86,12.28,21.42,12.64,27.55.38,6.42.78,12.89-.23,18.92-4.32,26.02-26.2,37.46-50.91,34.17-3.62-.48-17.06-2.99-18.45-6.36Z"/>
    <g>
      <path class="st0" d="M305.59,421.02c29.45-8.41,55.61-36.31,65.77-64.56,1.04-2.89,1.43-6.04,2.27-8.96,4.11-.65,9.57-7.66,7.1-7.31-4.69.67,1.39,4.02-20.51,5.52-.34.02-1.19,1.12-.94,1.25.35.18,1.46.74,1.94.75l10.36.3c-1.8,12.61-12.49,28.91-20.63,38.21-12.06,13.78-27.46,25.49-45.16,30.94-14.26,4.39-25.17,4.9-39.47,1.57s-25.15-11.94-35.32-22.89c3.7,8.84,12.06,13.9,19.79,19.45-14.06,2.54-30.61-5.55-40.86-14.49-13.66-11.92-22.26-27.67-25.35-45.52-1.05-6.05-1.89-16.24,2.05-21.11,1.7-2.1,4.39-3.61,6.42-5.44,7.57-6.83,13.09-15.08,17.51-24.49l15.83-8.26c3.21-1.68,6.26-3.52,9.31-5.35,3.68-2.21,5.78-4.86,6.97-9.18l3.52-12.73c1.51-5.46,2.5-10.63,4.3-15.96,4.68-13.89,10.98-26.82,19.94-38.44,4.73-6.13,10.35-11.13,17.62-13.66,5.63-1.96,11.63-.52,15.37,3.95,7.26,8.68,5.35,20.38,3.39,31.08l-2.05,11.22-2.07,11.68-.99,5.35-1.98,13.5c-.38,2.62-.5,5.09-.86,7.85l-1,7.64c-.88,6.66-.07,20.41,1.52,27.94,3.18,15.06,17.81,21.46,32.03,21.12,26.5-.63,40.51-12.38,59.18-15.25,3.11-.48,6.68-.28,9.92.02,12.3,1.12,18.69,14.59,19.25,25.46.49,9.51-3.59,18.94-10.33,25.78-1.91,1.94-5.86,2.49-8.39,3.34-8.83,2.99-17.31,5.33-25.8,9.09-17.97,7.96-32.89,20-44.53,35.75-7.78,10.54-20.48,15.5-33.7,13.18,2-7.02,3.78-13.06,8.56-18.32ZM267.1,359.25c7.21-13.1,4.04-28.48-6.97-38.19-15.28-13.48-40.01-13.57-54.96-.3-11.91,10.58-14.92,26.94-6.26,40.25,6.42,9.87,16.93,15.44,28.54,17,15.06,2.03,32.17-5.19,39.64-18.77Z"/>
      <path class="st0" d="M146.51,296.97c-15.64-1.38-33.25-9.28-42.44-22.31-3.94-5.58-4.96-11.71-3.54-18.23,3.46-15.9,16.29-23.54,31.47-25.93l6.75-1.06,5.97-1.06c23.11-4.1,49.27-13.55,69.15-26.92-3.71,10.09-6.95,19.7-8.78,30.07l-.87,4.94-1.32,12.43c-.74,7.02-.02,13.77.87,20.81-13.53,19.93-33.11,29.39-57.26,27.25Z"/>
      <path class="st0" d="M291.26,423.48c1.58-.18,3.65-.11,5.02-.44,2.09-.5,3.89-.94,5.68-.63-4.45,9.08-5.35,11.3-8.07,20.14l-4.16,13.51c-1.96,6.36-3.74,12.69-6.81,18.46-4.66,8.76-14.61,12.05-23.54,7.76-11.15-5.35-16.87-16.99-16-29.5.86-12.4,4.97-24.27,12.03-34.97,5,1.9,10.41,3.68,15.25,4.84.39.23.04,1.75-.34,2.16-9.56,10.57-13.62,23.97-9.17,38.17,2.42-1.65.6-4.02.71-6.19.59-11.68,3.58-21.03,10.01-30.93,3.36-5.17,5.25-.73,19.38-2.38Z"/>
      <path class="st0" d="M226.71,284.87c-13.65-.03-20.05-21.52-18.42-32.87,1.32-9.16,5.11-20.99,14.93-24.16,5.21-1.68,10.63.86,14.19,5.02,5.8,6.77,9.05,20.13,7.25,28.76-1.32,6.33-2.85,12.61-7.27,17.55-2.76,3.07-6.27,5.71-10.68,5.7Z"/>
      <path class="st0" d="M98.93,254.37c-2.1-4.69-1.5-10.05-.59-15.43,1.03-6.07,2.17-12.12,6.37-16.69,5.44-5.92,11.02-7.12,18.89-6.31l6.55.67,5.96,1.06c15.28,2.73,34.32-7.02,47.08-15.17l53.85-34.42c-8.07,8.87-15.19,17.28-20.24,27.86-2.65,2.73-5.52,4.79-8.72,6.78-15.23,9.04-38.83,17-56.04,20.57l-9.8,2.03-5.98,1.06c-6.48,1.15-12.55,2.29-18.61,5.2-9.86,4.75-15.65,11.26-18.71,22.77Z"/>
      <path class="st0" d="M239.76,282.47c2.05,4.31-19.4,14.65-22.46,16.23l-5.01,2.6c.2-10.55-5.35-19.7-5.27-31.12,3.63,8.84,9.12,18.83,20.49,18.14,2.61-.16,5.2-.67,7.27-2.19l4.97-3.66Z"/>
      <path d="M414.44,267.31c0,20.98-17.02,37.98-38.01,37.98s-38.01-17.01-38.01-37.98,17.02-37.98,38.01-37.98,38.01,17.01,38.01,37.98ZM411.68,266.49c0-19.46-15.78-35.23-35.26-35.23s-35.26,15.77-35.26,35.23,15.78,35.23,35.26,35.23,35.26-15.77,35.26-35.23Z"/>
      <path d="M388.44,202.34l-8.61.71c-9.69.8-14.78,3.53-23.34,6.55,5.15-6.04,12.82-7.89,19.75-9.57,4.5-1.09,8.54-1.16,13.15-.52l8.19,1.14c.44.06,1.35.82,1.56,1.12s-1.23.71-1.63.64c-2.45-.43-6.09-.32-9.06-.07Z"/>
      <path d="M256.04,202.86c-3.52.36-6.97-.74-10.54-1.19-4.67-.59-9.28.19-14.39-.75,5.01-4.18,20.3-3.58,24.93,1.93Z"/>
      <path d="M267.1,359.25c-7.47,13.57-24.58,20.8-39.64,18.77-11.61-1.56-22.12-7.13-28.54-17-8.66-13.31-5.65-29.67,6.26-40.25,14.95-13.27,39.68-13.18,54.96.3,11,9.7,14.17,25.09,6.97,38.19ZM266.88,335.63c-4.49-13.11-14.39-19.34-27.3-22.45-12.73-3.06-30.18,3.35-37.8,14.74-6.11,9.14-6.85,20.21-1.19,29.75,8.11,13.67,24.4,18.88,39.47,16.25,18.71-3.26,32.87-20.64,26.82-38.29Z"/>
      <ellipse class="st0" cx="376.43" cy="266.49" rx="35.26" ry="35.23"/>
      <path class="st0" d="M266.88,335.63c6.04,17.65-8.11,35.03-26.82,38.29-15.07,2.63-31.36-2.59-39.47-16.25-5.66-9.54-4.92-20.61,1.19-29.75,7.62-11.39,25.07-17.8,37.8-14.74,12.91,3.1,22.81,9.33,27.3,22.45Z"/>
    </g>
  </g>
  <g>
    <path class="st0" d="M370.43,292.46v-31.31h31.31v31.31h-31.31ZM401.19,277.21c0-8.17-6.75-14.8-15.07-14.8s-15.07,6.62-15.07,14.8,6.75,14.8,15.07,14.8,15.07-6.62,15.07-14.8Z"/>
    <g>
      <path d="M401.19,277.21c0,8.17-6.75,14.8-15.07,14.8s-15.07-6.62-15.07-14.8,6.75-14.8,15.07-14.8,15.07,6.62,15.07,14.8ZM400.1,276.91c0-7.56-6.25-13.69-13.95-13.69s-13.95,6.13-13.95,13.69,6.25,13.69,13.95,13.69,13.95-6.13,13.95-13.69Z"/>
      <ellipse class="st0" cx="386.15" cy="276.91" rx="13.95" ry="13.69"/>
    </g>
  </g>
  <g>
    <path class="st0" d="M214.11,279.63v-17.8h14.71v17.8h-14.71ZM228.57,270.96c0-4.65-3.17-8.41-7.09-8.41s-7.09,3.77-7.09,8.41,3.17,8.41,7.09,8.41,7.09-3.77,7.09-8.41Z"/>
    <g>
      <path d="M228.57,270.96c0,4.65-3.17,8.41-7.09,8.41s-7.09-3.77-7.09-8.41,3.17-8.41,7.09-8.41,7.09,3.77,7.09,8.41ZM228.06,270.78c0-4.3-2.94-7.79-6.56-7.79s-6.56,3.49-6.56,7.79,2.94,7.79,6.56,7.79,6.56-3.49,6.56-7.79Z"/>
      <ellipse class="st0" cx="221.5" cy="270.78" rx="6.56" ry="7.79"/>
    </g>
  </g>
</svg>