<?xml version="1.0" encoding="UTF-8"?>
<svg id="Layer_1" xmlns="http://www.w3.org/2000/svg" version="1.1" viewBox="0 0 1080 1080">
  <!-- Generator: Adobe Illustrator 30.1.0, SVG Export Plug-In . SVG Version: 2.1.1 Build 136)  -->
  <defs>
    <style>
      .st0 {
        fill: #fff;
      }
    </style>
  </defs>
  <path d="M947.73,695.44s.02.03.02.04c-.03.05-.05.09-.08.14l.06-.18Z"/>
  <path d="M876.57,541.37c25.39,7.38,57.51,22.1,77.71,40.57,3.64,4.86,9.5,7.97,10.8,15.16-10.55-16.33-35.64-33.84-54.22-41.53l-34.29-14.2Z"/>
  <path d="M910.2,447.58c6.04-7.71,13.72-14.35,22.89-19.11,2.28-1.19,5.54-.8,8.43-.67-1.62-6.96-8.9-10.41-15.7-8.61-2.19.58-4.44.77-6.84.39l25.39-6.28c-14.91-12.33-27.06-31.61-31.32-51.15,3.85,7.3,6.37,15.02,10.88,21.95,1.04,1.6,1.91,2.92,2.86,4.68,4.88,9.01,11.98,16.71,19.86,23.24.6.5.91,2.96.06,3.14l-11.85,2.59c5.41,3.44,9.83,6.41,9.25,12.79-11.01-.48-8.12-1.23-17.95,4.9l.09,9.89-.93.04-.35-9.05c-4.05,2.87-6.92,5.15-10.99,8.87,1.33.35,2.54.6,3.71.76l-.09.86-1.82-.19c-1.95-.2-3.05-.08-5.58.96Z"/>
  <path d="M899.1,327.53c1.4,9.7-3.18,4.34,4.17,12.63,1.84,2.08,2.95,5.07,2.88,7.97-4.79-6.86-8.74-13.34-14.01-19.76-.38-.46-.76-.92-1.16-1.38l.56-.47c.61.7,1.39,1.26,2.47,1.54l2.62,2.57,2.47-3.1Z"/>
  <path d="M846.98,520.12c15.89-8.38,30.55-16.08,43.8-27.56,12.05-10.44,31.59-29.12,36.67-44.7l-9.85-1.05.09-.86c2.52.33,4.83.26,7.65-.02l-.02-.56.93-.04,2.9.4c.57.08.57,1.75.35,2.35-3.9,10.96-10.97,20.1-18.66,28.75-17.03,19.17-40.05,35.79-63.86,43.29Z"/>
  <path d="M870.43,562.35c-3.33-.02-5.36-.77-7.58-1.94,2.97.1,5.31.86,7.58,1.94Z"/>
  <path d="M867.4,538.07c-3.34-.02-5.36-.77-7.58-1.94,2.97.1,5.31.87,7.58,1.94Z"/>
  <path d="M857.71,535.06c-2.13.1-3.81-.28-5.47-1.08,2.09-.15,3.83.25,5.47,1.08Z"/>
  <path d="M852.23,557.44c3.16.01,5.86.75,8.52,1.95-3.22-.05-5.83-.77-8.52-1.95Z"/>
  <path d="M877.29,634.72c-19.61-13.79-31.07-37.55-44.21-57.29l.93-.62,14.06,20.49c12.37,18.03,28.32,41.79,51.29,44.74-8.03.84-15.48-2.69-22.07-7.32Z"/>
  <polygon points="842.84 554.24 842.6 555.4 828.02 552.49 828.25 551.32 842.84 554.24"/>
  <path d="M834.3,527.84c-1.31-.26-.68.16,1.23,1.4l-5.3-1.02,6.05-2.97c3.12-1.53,5.76-3.51,9.48-4.24l-11.46,6.83Z"/>
  <path d="M832.17,778.63l.47,1.05c-17.86,10.46-35.49,18.57-54.35,24.45l-.31-.99,54.19-24.51Z"/>
  <path d="M854.78,822.26l-22.89,19.64c-6.2,5.32-12.43,9.93-19.79,13.77,1.9-2.46,4.71-3.5,7.01-5.46l27.38-23.34c8.22-7.01,14.63-14.73,19.86-24.3,7.04-12.92,12.44-26.01,17.64-39.96,6.46-19.2,12.46-38.07,17.43-58.51l.76.19-9.67,39.41c.51.79,1.15,1.37.9,1.69s-1.7,1.3-1.92,2c-3.87,12.02-9.8,28.26-14.66,40.08-.17.42,1.11.46,1.39.51.31.05.64.51.4.69l-1.22.86c-2.09,1.47-3.55,3.21-3.65,5.96l8.89-8.85-3.99,1.04c23.11-18.44,52.26-44.43,67.26-69.73,3.39-5.71,4.36-12.37,1.23-18.83-14.41,15.76-29.68,30.32-47.82,41.91l26.85-23.41c7.92-6.9,14.37-14.65,21.27-22.6.1.14.2.28.29.42l-.06.18c.03-.05.05-.09.08-.14,4.79,7.05,4.86,15.17,1.07,22.22-4.74,8.83-11.2,16.09-17.55,23.89-11.04,13.57-24.91,23.49-36.99,35.91l-24.71,25.41c-5.56,5.71-8.43,13.89-14.79,19.35Z"/>
  <path d="M817.61,827.37c5.7-15.29,10.73-30.71,15.03-47.69l-.47-1.05,1.13-.51,11.74-54.22.9.11c-4.94,41.52-16.06,81.78-33.52,119.52l3.94-14.21-.53-.94,1.78-1.01Z"/>
  <path d="M820.52,550.05c-1.36.3-2.9.3-4.67.03,1.35-.3,2.9-.3,4.67-.03Z"/>
  <path d="M815.07,549.38c-3.78.2-6.37-.24-9.1-1.01,3.38-.09,6.26.35,9.1,1.01Z"/>
  <path d="M803.69,858.03l5.34-.96c-1.42,1.23-3.19,1.69-5.34.96Z"/>
  <path d="M800.04,547.02c-1.36.29-2.9.3-4.67.02,1.35-.29,2.9-.3,4.67-.02Z"/>
  <path d="M793.21,546.26c-1.35.29-2.9.3-4.67.02,1.36-.29,2.9-.3,4.67-.02Z"/>
  <path d="M840.94,281.98c-30.5-21.23-72.74-42.63-109.25-46.91,14.1-1.14,43.89,9.05,56.95,14.79,27.32,12,52.11,27.25,75.01,46.43,7.38,6.19,18.46,17.22,24.68,24.79,1.31,1.61,1.87,3.88,3.21,5.44l-.56.47c-14.51-17.35-31.35-31.99-50.04-45.01Z"/>
  <path d="M766.43,547.66c14.73,9.27,32.02,7.45,43.78,19.88l-.24.97c-4.84-3.27-9.13-5.9-14.45-7.54l-15.52-4.79c-5.19-1.59-9.98-4.24-14.21-7.72l.64-.8Z"/>
  <path d="M750.56,582.83c20.8-7.78,40.05-9.42,61.73-11.07.2-2.04.37-1.59.83.03l27.04,2.86c14.21,1.5,28.92,12.07,40.56,20.28,9.29,6.55,26.66,19.38,39.51,20.17l-.04.61c-28.86-1.55-55.85-39.86-86.18-38.9l-.93.62c-.24-.37-.49-.74-.74-1.11-11.67-2.01-22.79-2.12-34.63-1.02-11.93,1.1-32.56,3.19-46.74,8.62l-.41-1.09Z"/>
  <path class="st0" d="M763.56,377.87c-5.25-2.85,2.61-18.86,8.59-17.7.85.17,2,2.11,2.01,3.03.09,9.05-7.67,16.26-10.6,14.67Z"/>
  <path d="M763.56,377.87c2.93,1.59,10.69-5.62,10.6-14.67-.01-.92-1.16-2.86-2.01-3.03-5.98-1.16-13.84,14.85-8.59,17.7ZM787.97,339.5c13.33,9.09-9.49,53.03-24.77,45.67-9.25-4.46-3.67-31.57,13.62-44.25,3.33-2.43,7.88-3.65,11.15-1.42Z"/>
  <path d="M723.56,609.57c.68.9,1,1.77,1.1,3.87-.76-1.11-1.18-2.37-1.1-3.87Z"/>
  <path d="M721.05,603.49c19.9-15.19,32.74-30.29,36.55-55.34l.93.04c-.41,13.69-5.43,25.55-13.93,37.01,2-.85,3.99-1.64,5.96-2.37l.41,1.09c-4.34,1.66-8.08,3.63-10.78,5.99-6.07,5.3-11.87,9.83-18.56,14.21l-.28.11-.3-.74Z"/>
  <path d="M730.95,234.25c-8.37,5.07-13.96-4.56-18.05-10.55-.7,2.51-2.31,9.46,1.42,10.29-.69.14-1.38.27-2.08.4l-.06-.3c-2.11-5.93-3.4-12.24,1.79-17.56,1.63,7.39,4.56,13.64,10.57,17.76l6.41-.04Z"/>
  <rect x="689.23" y="375.19" width="14.03" height=".76"/>
  <path d="M691.23,880.61c4.91-16.83,8.22-33.43,10.71-50.1,2.6-17.36,4.31-34.8,6-52.64l.86-14.21,1.03.04-.47,12.64c-1.28,34.76-7.24,90.93-23.88,121.71l5.17-16.25-.24-.99c.27-.07.55-.13.82-.2Z"/>
  <path d="M677.47,911.5c5.17.56,10.09-.43,15.19-1.9,17.22-4.99,33.4-11.83,49.87-18.84,24.8-31.95,36.35-99.19,41.98-138.76l.52.07-7.05,51.07.31.99c-.24.09-.49.16-.74.24-3.55,18.38-8.32,35.02-14.21,52.76,11.27-4.97,20.95-10.51,31.21-16.63l21.28-12.12.53.94-17.09,11.1c-11.64,7.56-23.91,13.61-36.77,18.25l-8.69,19.68c8.63-4.18,16.44-8.21,24.47-12.95l32.21-19.04-.63,2.43c-.12.48-1.23.14-2.07.11-16.9,13.3-35.73,23.28-55.51,31.5l-8.5,12.25c-15.74,6.66-31.23,12.6-47.65,17.43-9.25,2.73-14.45,2.54-18.75,2.07l.09-.65Z"/>
  <path d="M673.78,226.4c1.6,6.83,6.45,11.62,10.76,16.9l2.92,3.58-.68.56c-2.54-2.81-4.82-4.23-6.42-6.3-3.73-4.79-14.6-17.64-8.94-24.09,8.54,18.66,22.93,17.11,40.76,17.04l.06.3c-13.28,2.47-27.15,3.43-38.46-7.99Z"/>
  <path d="M656.29,405.41l14.02,4.08c1.34,6.29,2.77,11.93,6.44,16.98,2.38,3.27,6.98,3.66,10.2.79,17.64-15.72,5.96-19.84,16.36-24.67l13.18-6.12c.5-.24,1.54-1.53,1.59-2.09.07-.7-.76-1.77-1.49-2.43-13.19-11.99-28.16-12.16-45.43-7.05,15.35-7.88,36.13-6.81,49.17,8.02,3.61,4.1-13.46,10.69-15.31,11.46-9.61,4.01,2.59,5.43-14.9,23.28-1.92,1.96-4.28,2.85-7.15,4.19l-.89.1c-9.25-1.57-11.93-13.2-13.49-20.96l-13.59-4.32c-2.91-5.92-1.68-13.36,4.78-15.54-4.46,3.78-6.61,8.96-3.49,14.28Z"/>
  <path d="M655.57,277.37c6.9-8.18,15.28-14.29,26.84-14.12-1.03,6.1-3.7,11.01-7.12,16.86,6.91-.94,14.51-4.35,15.16-12.6,2.98,8.3-12.43,16.39-20.85,15.18,4.53-5.23,8.34-9.94,9.49-16.69-10.18,1.17-18.1,7.46-23.72,16.36-8.74-7,7.32-22.47,11.82-27.09,5.36-5.5,11.48-7.81,19.59-7.83l.68-.56,1.16,1.42c-5.96.18-11.22.69-15.74,4.33-4.87,3.92-18.46,17.56-17.31,24.74Z"/>
  <path d="M648.02,472c-14.12-1.76-23.2-14.33-19.64-27.91-.25,7.25.61,13.25,5.44,18.61,9.36,10.41,26.96,8.17,37.61,1.64,6.74-4.13,10.95-24.58,10.65-32.39l.89-.1c2.57,13.1,9.72,26.51,23.47,30.86,5.77,1.83,12.71,3.49,18.7,2.05,10.17-2.45,27.17-14.19,27.48-26.63,3.22,12.07-16.63,26.71-27.46,28.97-9.58,1.99-19.98-1.45-27.72-6.67-7.53-5.09-10.47-12.74-14.18-21.32-2.49,12.07-3.42,25.39-15.67,29.86-6.43,2.34-12.87,3.86-19.57,3.03Z"/>
  <path class="st0" d="M635.34,356.38c.1,9.01-7.64,16.25-10.6,14.66-5.26-2.81,2.67-18.9,8.59-17.7.85.17,2,2.11,2.01,3.04Z"/>
  <path d="M624.74,371.04c2.96,1.59,10.7-5.65,10.6-14.66-.01-.93-1.16-2.87-2.01-3.04-5.92-1.2-13.85,14.89-8.59,17.7ZM649.16,332.68c13.32,9.07-9.48,53.02-24.78,45.66-9.24-4.45-3.67-31.54,13.63-44.25,3.32-2.44,7.88-3.64,11.15-1.41Z"/>
  <path d="M595.97,848.78l-12.27.73-.05-.82,36.43-4.22c27.36-3.17,53.52-8.52,80.66-14.14-31.79,10.62-71.22,16.46-104.77,18.45Z"/>
  <path d="M620.03,411.37c-14.99,13.46-27.43,29.89-26.1,50.99,2.5,39.61,32.63,63.68,69.67,70.44,23.17,4.22,46.67,4.07,69.73-.5,13.79-2.73,26.09-7.8,37.46-15.67,22.2-15.37,33.47-41.78,29.19-68.43-3.12-11.47-9.21-20.72-17.2-29.5-19.19-20.12-43.71-33.18-70.03-41.2,29.89,5.87,69.51,30.12,84.19,57.52,4.04,7.75,6.34,15.59,6.25,24.4-.23,24.82-12.48,46.89-33.17,60.54-13.36,8.81-28.22,13.94-44.32,16.3-20.29,2.98-40.56,2.77-60.74-.84-15.42-2.76-29.48-8.17-42.12-17.14-21.65-15.38-33.59-40.8-30.1-67.29,2.65-20.1,23.76-40.75,40.54-51.73,12.2-7.89,23.97-15,37.83-18.62-18.6,7.66-36,17.12-51.08,30.73Z"/>
  <path d="M668.82,887.56c-26.24,6.92-52.9,10.19-79.95,11.51l-10.48.51-.05-1.08c1.83-.09,3.61-.24,5.42-.43l7-.75c33.72-3.64,66.94-8.49,99.65-16.51l.24.99-21.83,5.76Z"/>
  <path d="M623.39,670.48c-11.36,8.46-23.94,13.76-37.89,16.06l-21.14,3.5-31.49,6.71c41.34-15.23,55.19-4.17,92.09-30.14l7.97-5.61c-1.42-4.74-2.43-9.05-2.65-13.75l3.37-5.1c-.68,6.39-.52,11.82.88,17.88,10.36-5.62,19.81-10.01,30.33-14.12,13.44-5.25,25.97-11.08,38.45-18.23,7.59-4.34,14.96-7.41,22.97-10.6-.45-2.46-.4-2.55.38-.02,28.77-8.57,44.95,7.32,74.13,8.13-16.48,2.17-34.62-7.25-52.38-8.5-12.37-.87-24.18,2.53-34.94,8.24l-26.3,13.94c-10.32,5.48-21.04,9.11-31.83,13.59-11.57,4.79-21.9,10.54-31.95,18.02Z"/>
  <path d="M663.62,912.63c-29.56,8.68-59.65,13.24-90.43,15.79l-10.96.91-.08-.92,58.9-8.38,56.89-12.47-5.5,2.89c1.71.53,3.39.87,5.03,1.05l-.09.65c-4.4-.47-7.86-1.26-13.76.48Z"/>
  <path d="M661.08,544.27c-10.21-2.01-20.3-4.68-30.23-8.14-23.07-8.05-44.4-19.8-61.68-36.91-5.77-5.71-10.93-10.97-15.15-17.82,2.91,2.48,4.72,5.37,7.29,8.12,35,37.65,84.29,53.24,134.59,56.58,32.69,2.17,70.2.95,102.04-6.79,10.79-2.62,20.38-6.57,30.96-10.08-14.11,7.52-29.49,11.16-44.64,15.1,1.54,1.09,2.44,1.71,1.05,1.32-6.85-.59-12.58-.14-18.88,2.01l-.64.8c-.34-.28-.67-.56-1-.85l-6.25.37c0,.07,0,.14-.01.21l-.93-.04c-32.52,2.26-65.1,2.3-96.52-3.88Z"/>
  <path d="M614.9,272.18c17.83-10.42,37.15-21.37,58.21-27.31-48.6,20.28-105.1,56.04-133.26,103.7-.78,1.33-1.7,3.1-2.36,4.57l-.87-.38.27-.63-5.48-1.85,6.19.4c16.64-32.18,45.25-57.28,75.08-76.83l.32-1.33c.08-.35,1.46-.08,1.9-.34Z"/>
  <path d="M584.8,791.71c1.13,19.29.67,37.14-1.15,56.98l.05.82h-.16c-1.89,17.04-4.97,32.84-9.66,49.06,1.56.02,3.03,0,4.46-.07l.05,1.08-4.83.24-11.41,28.59.08.92-.27.02c-7.41,8.46-17.45,7.71-26.87,8.71l-.09-.9,2.71-.27c6.17-.62,19.03-2.23,22-8.3,7.39-15.13,12.41-30.44,16.05-46.95,6.41-29.09,8.81-64.63,7.84-94.45-.02-.59-.06-1.19-.11-1.81l.8-.06.51,6.39Z"/>
  <path d="M584.5,255.92c9.42,4.55,18.14,9.37,26.8,15.26-6.97-2.26-12.68-5.85-19.38-9.16-18.03-8.9-34.63-15.48-54.23-8.91-1.32.93-1.91,1-.94-.64,15.62-8.18,32.87-3.73,47.75,3.45Z"/>
  <path d="M538,270.67c-4.23-7.14-11.96-19.52-6.79-27.22,1.46-2.17,5.24-4.64,8.73-4.79,23.97-1.04,47.45,3.07,70.19,10.75,6.29,2.12,12.11,3.93,17.5,6.77-31.2-9.53-55.64-16.23-87.69-15.09-2.44.08-5.7,1.88-6.72,3.46-3.66,5.64.54,11.84.61,11.84.47,1.36.69,3.86,1.66,5.77,6.59,12.94,15.58,23.24,24.97,34.59-5.36-3.01-9.86-10-14.05-14.03-.6-.58-2.8-.97-2.79-1.75.02-2.85-1.6-7.25-5.71-7.02l.09-3.28Z"/>
  <path d="M508.8,373.59c6.06,4.53,11.97,7.4,18.15,10.44-2.34-.11-3.76.16-4.9.56l-.33-.89c.15-.06.31-.12.47-.18l-13.86-7.18c-1.18-.44-3.74-.46-5.78-.74l3.02-1.03-1.61-3.85c14.39-.62,26.42-3.72,32.66-17.96l.87.38c-.09.2-.18.41-.26.6-5.81,13.74-13.84,17.14-28.43,19.85Z"/>
  <path d="M585.2,627.91c13.57-6.72,19.49-9.07,34.74-2.81-2.34-18.89-4.7-44.18,2.33-61.93,2.59-6.54,6.88-12.77,13.65-15.22,8.1-2.92,16.62-3.44,24.84-1.93,5.46,1,10.78,2.89,15.78,5.56,20.05,10.71,34.09,31.37,44.51,51.91l.3.74-.97.4c-10.38-19.44-23.49-38.54-42.4-49.69-12.66-7.46-27.98-9.52-41.85-4.37-16.05,5.95-17.24,39.23-16.31,53.14l1.07,15.82c.81,11.95,2.37,12.27,5.4,20.88.08.24-.74.1-.89-.1-.22-.29-.85-1.26-1.04-1.82l-3.89-10.96c-13.78-5.78-21.18-3.67-33.57,1.26,1.27,1.64,1.14,1.4,2.21,2.2l.89.66c.14.11.18.69.03.64-6.94-2.68-11.08-7.1-24.99-11.33-22.2-6.74-30.91,9.84-48.24,19.3l-.17-.84,17.93-14.57c17.66-14.35,33.46-6.56,50.64,3.06Z"/>
  <path d="M522.87,667.48c-5.44-18.2-3.84-22.24-19.3-30.81-13.05-7.24-27.07-10.18-41.98-12.39,16.05-1.31,38.92,5.38,52,15.79l1.31-1.93c.25-.37.54.14,1.73,1.28l.17.84c-.71.39-1.44.77-2.19,1.13,4.61,4.1,5.81,9.24,7.11,14.6,1.36,5.58,2.81,10.87,3.04,16.55l-1.05.05c-.06-1.71-.32-3.4-.84-5.11Z"/>
  <path d="M522.8,409.02c1.18.2,2.5.09,4.01-.46-8.24-6.68-20.57-14.98-23.29-26.28,6.48,1.18,11.89,3.73,18.2,1.42l.33.89c-2.91,1-4.12,2.82-14.57,1.37,3.61,5.92,8.1,10.77,13.22,15.17l9.9,8.52-6.2.43c-.54.04-1.14-.02-1.76-.14l.16-.92Z"/>
  <path d="M536.62,457.06c-10.32-17.2-17.74-35.73-23.63-54.82l-2.87-.78c4.34-3.47,6.36,6.48,12.68,7.56l-.16.92c-1.67-.3-3.58-1.04-5.49-1.66,6.02,16.6,12.49,32.7,21.31,47.84l9.05,15.5c-4.62-4.32-7.64-9.15-10.89-14.56Z"/>
  <path d="M517.92,677.59c-4.26-17.65-16.84-33.62-34.37-38.95,4.62-.43,8.85,1.48,12.85,3.84,12.61,7.44,20.72,20.35,22.63,34.83l-1.11.28Z"/>
  <path d="M478.87,898.71c-4.19-16.58-6.33-32.99-7.79-49.27l.02-.83c-1.04-16.97-1.39-32.44-.33-48.86l.47-7.37.57-7.65.7.05c-.05.58-.08,1.12-.08,1.65v38.66c.01,19.74,2.1,38.71,5.52,58.07,2.72,15.33,6.84,29.68,13.18,43.79,1.41,3.14,3.6,6.23,7.04,7.31,8.79,2.75,23.2,4.27,32.51,3.33l4.32-.43.09.9c-1.75.19-3.48.44-5.16.81h-12.13c2.16,0-15.69-2.09-16.01-2.14-4.54-.71-8.15-2.95-11.28-6.3-.68-.06-1.36-.13-2.04-.2l.08-.8c.33.05,1.46-.06,1.42-.37-.04-.2-.21-.85-.34-1.14l-4.54-10.27c-2.23-5.04-3.59-10.11-5.26-15.37l-.76-2.37c-.06-.18-.41-.25-.83-.27l.1-.98c.18.01.35.03.53.05Z"/>
  <path d="M582.36,662.93l26.53-.32c2.06-.03,4.53-.58,6.8-.85l1.23.68c-2.72.35-4.72.78-6.59.84l-17.2.51c-9.91.3-19.18,1.83-28.49,5.81-21.05,9.01-42.97,12.48-65.83,9.84-14.75-1.7-36.94-3.57-50.77.86-4.05,1.29-6.59,5.18-12.47,7.37l-.3-.8c4.86-1.65,9.16-8.4,19.41-10.07,13.02-2.12,25.46-1.63,39-.44-6.65-13.7-10.35-23.58-26.08-26.15,15.64-2.99,24.1,13.78,27.46,26.31,7.6.84,14.91,1.23,22.87,1.13,0-.02-.01-.04-.01-.06l1.11-.28,4.33.08c.28-1.61.4-3.21.35-4.8l1.05-.05c.07,1.51.05,3.06-.08,4.64,13.12-.72,25.16-4.4,37.39-8.86,6.57-2.4,13.26-5.3,20.29-5.39Z"/>
  <path d="M443.27,187.59l.94,9.48-1.08.11c-.94-8.9-4.21-17.59-7.69-25.82-.21-.52,1.17-1.64,1.68-1.39.52.24,1.85,1.39,1.98,1.97.99,4.69,3.7,10.95,4.17,15.65Z"/>
  <path d="M372.3,881.54c35.34,8.04,70.32,13.54,106.04,17.12l-.1.98c-.49-.03-1.06.01-1.33,0l-9.38-.61c-34.01-2.24-62-7.27-95.39-16.78l.16-.7Z"/>
  <path d="M457.08,848.76c-31.58-1.58-62.27-6.02-93.42-13.38l.12-.75c35.87,5.98,71.26,10.81,107.32,13.98l-.02.83-14-.68Z"/>
  <path d="M386.31,909.03l21.04,5.17,1.31.31,47.84,9.66,32.05,5.26-.08.8c-30.52-2.91-60.34-7.66-89.61-16.42-3.79-1.13-5.97-1.4-10.47-.91.18-.14.56-.44.97-.75l1.32-.62-1.2-.51-1.16-.47-1.13-.47c-.86-.24-1.51-.58-.88-1.05Z"/>
  <path d="M363.66,835.38c1.79,16.19,4.35,31.09,8.07,46.03.19.04.38.09.57.13l-.16.7c1.87,8.23,4.29,14.63,7.56,22.03l-1.03.03c-5.81-12.5-9.93-24.76-12.67-38.41-5.42-27.05-7.98-54.08-8.3-81.7l-.2-12.31,1.03-.02c0,2.24.08,4.44.27,6.71l4.7,56.01c.09.02.19.03.28.05l-.12.75Z"/>
  <path d="M341.01,375.95c-11.69,17.6-21.87,35.54-31.03,54.59-2.25,4.69-3.8,9.48-5.56,14.47l-.75-.14c1.05-5.51,6.09-16.31,7.97-20.1,9.73-19.66,20.03-37.83,32.06-56.13,12.37-18.82,24.18-37.35,38.13-55l3.97-5.03.4.31c-.76.94-1.32,2.69-1.3,3.62.05,2.46-2.07,2.83-3.08,4.1-6.74,8.56-12.71,17.33-18.94,26.46-.91,1.34-1.53,4.65-2.41,5.81-1.28,1.23-2.61,2.97-3.35,4.05-.65.93-2.71,1.65-2.77,3.33-.09,2.83-1.59,2.73-2.6,3.91-4.13,4.75-7.13,10.32-10.74,15.75Z"/>
  <path d="M307.95,481.65c-.07.28,1.03,1.71,1.69,1.86.56.13,1.64-1.47,1.65-1.76l-3.34-.1ZM309.42,484.9l-4.99-5.19c3.6-.94,6.52-.89,10.08-.57,10.74-10.29,22.5-18.72,35.47-25.96,3.84-2.15,8.61-4.26,11.5-6.94-17.85.43-40.09.52-56.28-.41-.77-.05-1.63,1.71-1.48,1.96-.32-.54-.31-1.57-.05-2.92l.75.14c7.37-.46,13.62-.98,20.77-.9l40.56.49c44.11-20.08,87.61-32.22,135.68-41.44,2.05.5.66.71-.93.93-54.74,12.73-129.36,32.84-174.07,67.24-10.86,8.35-23.7,21.4-28.59,35.22l-.78-.27c2.67-7.79,6.54-15.14,12.36-21.38Z"/>
  <path d="M301.33,454.78c.34,5.51.34,10.9.09,16.8-.44-2.09-1.39-5.49-1.16-7.45l1.07-9.35Z"/>
  <path d="M279.2,865.99l-7.17-5.03c-.3-.21-.6-1.55-.7-2.21-.48-2.98.58,1.33,1.91,2.02l46.53,23.83-.43,1.14c-14.12-5.31-27.7-11.03-40.14-19.75Z"/>
  <path d="M270.22,515.45l.84,4.62c-1.56-.85-1.67-3-.84-4.62Z"/>
  <path d="M269.92,562.07c5.51-18.8,11.33-28.55,23.88-43.77.85-4.06,1.9-8.1,3.26-12.02l.78.27c-1.12,3.19-1.83,6.42-1.99,9.64,29.24-29.48,74.64-44.27,114.97-42.3,45.74,2.23,89.8,33.18,108.41,74.95,11.76,26.4,9.46,54.1-.52,80.81-.63,1.38-.77,1.45-.74-.02,3.81-11.39,6.95-22.53,7.43-34.41.12-2.94.85-6.3.62-9l-.74-8.52c-1.5-17.38-8.65-33.1-18.75-47.3-16.91-23.76-41.27-41.01-69.2-49.41-28.05-8.44-60.86-4.66-88,4.86-14.79,5.19-28.09,12.31-40.39,21.85-30.74,23.85-44.6,59.77-40.81,98.09l1.44,14.54c-2.31-7.58-2.56-15.38-3.23-23.39-.84-9.88,1.04-23.1,3.05-33.7l-.23-.99.76-.18Z"/>
  <path d="M268.38,510.4c-6.32-20.83,5.16-66.29,15.3-83.27l24.37-40.84c2.56-4.3,4.59-8.15,7.52-12.29,11.64-16.44,42.27-72.78,47.84-91.65l2.4-8.17c9.57-32.43,15.92-50.8-1.97-84.89-6.24-11.89-14.38-22.04-22.67-32.42l-11.6-14.52c-7.47-9.36-20.03-26.21-10.4-37.84,7.64-9.22,19.17-12.95,31.22-11.05,22.28,3.51,42.43,14.52,58.55,30.14,3.07,2.97,4.97,6.19,7.56,9.46,1.16,1.46,3.04,3.1,4.2,4.77,2.74,3.93,4.85,7.77,6.99,12.06,1.19,2.4,3.29,4.42,1.8,7.66-14.76-32.19-44.68-55.85-79.92-61.39-10.64-1.67-20.41,1.44-27.46,8.88-9.31,9.82,1.01,25.16,7.86,33.89l21.33,27.18c15.96,20.32,28.71,44.34,25.62,70.96l-1.69,14.59c12.09-12.22,47.85-32.34,56.89-7.96,7.01-13.14,11.29-26.74,11.28-41.55,0-1.66-.09-3.32-.27-4.97l1.08-.11.45,4.54c.31,3.12.59,7.24.26,10.52-1.98,19.53-15.86,44.2-27.73,59.28l-24.73,31.39-.99,4.77c-1.31.2-3.49.45-4.48.73-.28.08-.55.31-.79.62l-.4-.31,24.48-30.99c7.77-9.84,14.77-19.74,20.53-31.11-4.11-25.8-46.62-2.56-56.52,8.53-7.77,30.71-26.66,70.22-43.26,97.19l-34.4,55.87c-5.47,8.89-10.96,17.07-15.09,26.62-6.7,15.48-11.85,31.29-13.29,48.11l-.44,5.12c-.32,3.72-.45,7.62-.05,11.34l1.21,11.09c-.35,1.6-.47,1.63-.59.02Z"/>
  <path d="M294.13,816.61c-14.78-4.13-28.04-9.73-42-16.51l11.23,36.7c1.04,1.12,2.37,2.06,3.9,2.8l41.82,20.11-11.16-41.59c-.51-.42-1.29-.92-1.29-1.3,0-.03.01-.06.02-.09.12-.28.75-1.27.61-2.01-3.97-20.02-7.4-44.63-9.59-65.95l.77-.08c4.06,31.06,9.22,60.54,17.05,89.97,4.35,16.36,12.81,42.62,23.93,54.85,13.7,7.81,27.75,13.96,42.65,18.86,4.01,1.32,8.03,1.38,12.26,1.91-14,2.74-42.78-12.3-56.48-18.93l-6.49-8.86c-.67-.25-1.35-.5-2.02-.75l.43-1.14-9.91-23.29c-14.73-5.24-28.9-11.83-42.36-20.16-6.3-3.9,3.27,11.39,2.15,13.64-6.31-12.09-10.64-24.51-14.95-37.71-8.72-26.68-14.56-53.56-18.57-81.52.21-.44.47-.98.61-1.28l.42,2.05c4.33,20.9,8.88,41.33,14.45,62.11l42.91,16.85,1.45.57c.18.07.25.57.21.92-.03.21-.1.37-.21.34l-1.84-.51Z"/>
  <path d="M239.47,552.33c-1.36.29-2.9.3-4.67.02,1.35-.29,2.9-.3,4.67-.02Z"/>
  <path d="M236.82,734.1s-.04.09-.08.18c.04-.08.06-.14.08-.18Z"/>
  <path d="M322.34,636.04c-19.76-6.85-48.4,2.68-67.44,9.7l-29.85,11c-2.08.77-3.87,1.36-6.28,1.18l8.75-3.41c16.61-6.47,32.63-13.51,49.62-18.61,13.54-4.07,33.21-6.94,46.52-2.19,32.01,11.41,62.99,29.18,93.26,46.06-2.71-6.69-6.07-12.39-3.76-18.97,1.86,11.54,6.67,20.96,16.94,25.72,1.94.9,3.58.9,5.17.35l.3.8c-.96.37-2.01.68-3.17.93l20.27,12.14c-10.48-4.89-19.86-10.2-29.93-15.62l-49.3-26.5c-16.61-8.93-33.27-16.39-51.1-22.58Z"/>
  <path d="M225.04,588.27c-11.38,12.3-27.43,32.85-44.04,35.76,15.74-7.27,22.35-15.23,33.54-27.64.21-.24.74-1.57.49-1.56l-1.84.06c-.67.02-1.42,0-2.2-.07l.08-.74c1.93.19,4.41-.09,5.69-.25,11.68-13.28,22-24.4,39.78-28.6l12.62-2.98.23.99c-20.93,5.25-29.62,9.1-44.35,25.03Z"/>
  <path d="M215.16,816.8c-11.16-10.09-20.69-20.87-30.25-32.14,10.09,10.78,20.46,21.19,30.25,32.14Z"/>
  <path d="M197.18,766.98c-.1.06-13.36-46.28-13.07-52.5l18.26,60.34c4.36,14.43,17.66,46.28,28.28,56.73,10.33,10.16,21.09,19.19,32.1,28.54,2.3,1.94,5,3.21,7,5.4-8.13-4.14-14.75-9.81-21.58-15.66l-18.07-15.47-7.22-8.65c-2.52-3.02-5.1-5.99-7.72-8.91.99.91,1.99,1.8,3.01,2.69-2.04-6.17-4.72-10.69-7.34-15.92l-4.66-4.16c-.96-.86-.49-.66.61-.02l2.18.42-11.53-31.45-2-.37,1.75-1.01Z"/>
  <path d="M181.71,542.66c.9-.68,1.78-1,3.87-1.09-1.1.75-2.37,1.18-3.87,1.09Z"/>
  <path d="M173.37,545.7c.9-.68,1.77-1,3.87-1.1-1.11.75-2.38,1.18-3.87,1.1Z"/>
  <path d="M170.94,546.77c-3.63,2.04-7.48,3.85-12.49,5.12,3.63-2.12,7.48-3.95,12.49-5.12Z"/>
  <polygon points="156.05 552.11 156.65 553.33 150.58 556.36 149.98 555.15 156.05 552.11"/>
  <path d="M621.88,720.65c44.04-2.64,87.27-7.58,130.57-15.93,48.99-9.46,128.66-30.49,161.56-69.72,3.89-4.64,9.63-13.66,10.45-18.98.05-.32-.99-.27-1.61-.26-.89.02-1.77.01-2.66-.05l.04-.61c1.73.1,3.38-.01,4.92-.38.31-5.34,2.2-12.31-.02-17.31-3.03-6.84-9.46-11.53-15.27-15.75-11.48-8.35-24.3-12.81-37.13-18.28,14.32,2.83,53.23,21.68,54.62,36.92,4.19,45.86-64.56,74.67-99.45,86.61-108.47,37.13-260.16,42.53-374.23,36.95-78.85-3.85-187.03-17.47-258.22-51.88-24.13-11.67-56.4-31.15-62.03-59.46-1.03-5.2-2.02-11.18.59-15.92,11.38-20.7,70.58-39.32,94.04-42.34-26.14,6.69-59.39,14.85-81.51,31.58-12.48,9.43-14.96,13.17-10.95,29.14,15.94-4.07,26.23-14.94,42.68-16.38l6.92-9.07c2.69-3.53,7.49-4.45,11.48-2.38l12.47,6.46c.49.25,1.17.39,1.93.47l-.08.74c-1.66-.14-3.44-.5-4.86-1.13l-10.35-4.66c-3.56-1.6-7.16-.32-9.28,2.58l-7.71,10.53c-7.07,9.65-16.77,17.29-26.57,23.4l23.62-23.29c.22-.22.91-1.4.6-1.49-3.84-1.01-16.93,6.32-21.41,8.74-6.33,3.43-12.09,5.38-19.21,6.67,8.71,29.91,50.68,51.17,77.07,61.68,54.59,21.75,120.23,33.08,178.69,39.01,71.58,7.26,158.39,8.1,230.3,3.79Z"/>
  <path d="M708.8,763.66c-41.19,8.01-82.92,13.21-125.01,15.49l.5,6.17-.8.06c-.15-1.86-.43-3.88-.62-6.09-36.77,1.58-73.34,1.57-109.73-.31-.14,2.14-.47,4.08-.63,5.8l-.7-.05.44-5.87c-38.46-2.17-75.76-6.83-113.51-13.83-.13,2.38-.21,4.63-.21,6.83l-1.03.02-.12-7.11c-23.47-4.49-45.71-9.81-68.94-16.08l-.77.08c-.01-.09-.02-.17-.03-.26l-49.98-16.16-1.33.6-.1.04c-.26.12-.94-1.51-1.41-1.69-15.82-5.92-34.61-13.3-49.76-21l-3.68-1.88c-16.34-8.3-35.03-18.98-49.4-29.77-.73-.55-1.62-.74-1.92-.77-1.61-.15,10.8,35.47,13.75,41.02,6.31,11.87,34.38,35.28,46.26,44.37l-1.65-.1c-17.01-12.38-31.66-24.17-44.75-39.88-.43-.52-2.36-.3-2.3.23.22,2.01,1.16,5.3,2.23,6.96,15.03,23.3,39.7,48.4,60.87,66.71l-1.56.29-20.68-17.97c-.23-.13-.74.25-1.05.73,1.25,1.48,2.49,2.95,3.73,4.42-5.98-6.4-11.86-12.93-17.45-19.77l-20.47-25.03c-2.67-3.26-13.17-17.84-4.41-20.2-7.24-13.9-12.66-28.3-14.5-43.93-22.32-17.59-52.44-47.08-34.06-78.1,9.19-15.5,28-27.6,43.17-36,.44-.24,1.51-.57,1.75-.64.24-.06.18.73-.04.85l-1.21.66c-25.73,13.98-59.9,38.78-44,72.31,10.63,22.42,36.02,41.51,56.89,54.46,51.66,32.06,118.43,53.94,177.75,67.33,65.51,14.79,132.08,21.48,199.28,21.43,39.83-.03,79-1.85,118.48-6.68,74.39-9.09,153.86-28.17,221.87-59.75,27.75-12.88,60.35-31.45,81.57-53.33,14.37-14.82,27.9-35.58,17.39-56.53l.82-1.11c8.61,18.09,2.27,24.7.49,34.46-3.84,21.06-9.48,41.67-20.48,60.39,0-.01-.01-.03-.02-.04,5.99-17.8,12.95-34.05,17.03-52.58-.19-.56-.79-.06-1.29.59-15.04,21.88-36.78,37.27-58.85,50.91l-2.44,9.93-.76-.19c.71-2.92,1.4-5.88,2.07-8.87-19.21,10.45-37.64,19.98-57.43,27.82l-.12.96-.9-.11-58.96,20.53-1.05,7.64-.52-.07c.35-2.39.27-4.81.06-7.09-24.9,7.39-49.53,13.42-74.73,18.55v.24s-1.04-.04-1.04-.04Z"/>
</svg>