<?xml version="1.0" encoding="UTF-8"?>
<svg id="Layer_1" xmlns="http://www.w3.org/2000/svg" version="1.1" viewBox="0 0 1080 1080">
  <!-- Generator: Adobe Illustrator 30.1.0, SVG Export Plug-In . SVG Version: 2.1.1 Build 136)  -->
  <defs>
    <style>
      .st0 {
        fill: none;
        stroke: #000;
        stroke-miterlimit: 10;
        stroke-width: .75px;
      }
    </style>
  </defs>
  <g>
    <path d="M471.39,250.73c.04-.11.28-.48.48-.77-1.42-6.66-3.68-12.73-7.63-18.12-6.05-8.28-14.92-9.66-24.26-7.08l-1.51.42c-.15.04-.09-.2-.02-.83,2.28-.64,4.71-1.12,7.17-1.31,6-.48,12.16.7,16.52,5.08,6.44,6.46,10.61,16.59,11.31,26.05-4.56-3.57-8.3-8.04-14.05-7.67,15.54,12.86,20.79,31.86,23.82,50.82l1.93,12.12c.53,3.26,3.62,9.73,7.43,11.83,6.11,3.35,12.03.44,16.37-.24.26-.04.42,1.49.22,1.67-1.31,1.1-4.21,2.63-5.87,3.79-3.2,2.26-2.87,6.81-1.23,9.82,3.51,6.42,15.1,5.54,21.01,3.62,3.68-1.18,5.46-4.67,5.78-3.83.66,1.73.31,5.28-.18,7.32-1.91,7.89-9.31,15.03-15.95,19.33-.42.26-1.12,1.16-.77,1.31.26.11,1.12.46,1.58.53,5.7.81,10.04,5.43,13.21,10.19,7.84,11.68,16.17,11.55,29.43,13.72l52.87,8.7c34.47,5.68,58.59,15.54,86.34,36.64,3.48.04,7.17-.94,10.43-2.15l17.2-6.38c7.49-2.78,15.51-1.05,21.52,4.19,5.92,5.17,11.28,10.54,16.48,16.48,8.94,10.23,19.92,26.69,18.1,40.74-.68,5.32-1.88,10.43-.9,15.62,1.56,8.26,7.56,13.59,15.58,15.05,11.53,2.15,21.04,9.93,25.4,20.71,4.93,12.12.22,27.41-2.96,39.77-1.93,7.45-6.05,22.42-.35,28.25,5.06,5.19,12.8-.9,11.83,2.37l-6.03,2.96c-.11.07-.94.18-1.14.22l-1.25.31c-2.7.66,4.36,2.54,9.25,1.36l1.23-.31-.11,1.1c-3.31,3.13-7.38,4.27-10.87,6.57-2.87,1.91-5.61,2.87-9.16,2.24-9.38-1.69-21.61-6.95-22.55-17.95-1.4-16.46.39-25.44-.9-41.52-1.1-13.83-17.92-16.19-28.79-17.22-5.41-.53-10.65-2.1-15.82-3.64-7.91-2.32-11.11-9.29-12.23-16.96-.77-5.3-.53-10.91-.15-15.58.92-11.37,4.25-34.49-9.88-38.79-.55.13-.81.11-.81.28.22,3.37,2.59,13.52,2.85,20.42l.39,10.26c.26,7.12,2.17,14.94,3.62,24.04.77,4.71,1.38,9.79,1.6,15.29.35,9.23-1.62,17.53-6.42,25.27-4.49,7.27-8.94,17.71-5.57,26.32l12.58.81c1.71.96,1.45,3.77,1.99,5.37,3.33,10.06,7.45,19.55,9.47,30,3.81,19.74,4.43,62.12,3.77,83.07l-1.03,33.11-.35,18.71-.42,14.88c-.09,2.61-2.59,4.4-4.49,6.03-3.2,2.76.42,11.28,1.93,14.62,1.51,3.35,2.39,6.9,2.48,10.67.15,7.71-.5,15.16-1.25,22.99-.55,5.72-15.01,10.74-19.9,12.21-5.57,1.67-11.2,2.5-16.87,1.75-7.21-.99-11.18-6.99-9.73-14.2,1.88-9.42,4.71-18.56,8.87-27.37,1.1-2.28,3.9-4.27,5.78-5.59,3.24-2.26,3.94-4.73,4.01-8.48.04-2.28.61-4.84-.39-7.08-.64-1.34-2.06-3.48-1.91-4.86.9-7.8,3.88-12.69,4.23-19.96l.2.02c-.35,4.4-.53,8.79-2.17,13.13-1.16,3.13-1.49,6.77-.9,9.88l2.8,2.94c-2.04,2.56.18,8.22-2.61,12.23-3.46,5.02-6.57,2.61-10.56,13.65l-.31.85c0,.31,9.95.37,11.94.53,9.31.72,18.19,3.11,26.1,7.91.24.13,1.01.83,1.05.59.53-2.91.9-13.85.02-16.35l-4.12-11.72c-.85-2.41-.77-4.82-.57-7.43l-3.29.75-1.05.22c-.22.07-.15-.79.07-.83,4.71-1.23,10.26-2.45,9.71-9.14-.13-1.64.42-3.66.44-5.28l.24-32.01.37-9.01.35-43.04c.13-14.99-.77-29.38-1.67-44.24-.53-9.09-2.08-17.57-4.97-26.19l-6.05-17.97-1.53-3.57-12.01-1.73,4.58,11.02c-5.39-7.01-8.46-17.53-6.07-25.59,3.53-11.96,10.61-17.95,11.42-29.03.99-13.67-1.07-23.95-3.75-37.34-2.89-14.37-.18-24.1-5.57-44.9-1.88-7.23-4.84-13.52-8.57-19.79-.77-1.25-1.38-2.48-2.37-3.55l-5.78-6.33c-11.04-12.1-43.74-28.57-61.53-33.2-15.27-3.97-30.24-7.12-45.86-9.75l-41.37-6.95c-3.35-.57-15.95-2.54-17.16-6.18-2.19,2.28-5.15,3.59-8.28,2.52-1.07-.35-3.02-.83-3.81-1.38-3.53-2.54-6.88-4.91-10.47-6.6l-.2,3.26c-.04.64-2.19.64-2.91.35-5.35-2.17-9.84-6.77-12.67-11.79l-.28,4.27c-.07.85-.83,2.41-1.53,2.83-2.96,1.88-6.09-1.56-7.93-3.26-12.42,1.25-19.66-22.9-20.51-32.47-3.68,2.98-15.21,7.71-18.82,4.32,12.21-17.31,10.98-32.34,4.23-52.33-2.21,5.63-3.92,10.85-6.68,16-3.05,5.68-9.03,7.78-10.1,5.85-.9-1.67.46-4.1.44-8.37-.11-12.23-2.08-33.92-7.69-44-.57,6.31-.81,14.22-4.32,18.58-.15.2-1.07-.39-1.14-.85-.61-3.99-1.31-8.68-2.28-13.59-1.84-9.49-4.65-19.68-9.51-26.6-1.42.96-2.06,1.82-3.07,3.07l-.83,1.05c-2.37,2.96-1.73-29.3-1.31-31.05-7.89-8.5-17.88-12.53-26.67-19.28-1.99-1.56-3.16-4.08-2.76-6.6.64-4.16,1.25-8.11,2.54-12.1l9.75-30.13c.55-1.71-.26-3.9-1.75-4.89-2.48,2.06-4.1,4.36-5.43,7.21-7.17,15.12-11.44,30.92-14.51,47.66-.79-2.78.5-5.28.31-8.37-5.41,2.56-7.47,17.97-8.15,23.31-.04.42-.55,1.62-.85,1.42-2.65-1.8-3.9-10.43-5.26-14l-14.97,9.93c-3.26,2.15-6.97,4.54-8.92,7.98l-4.84,8.5c-.31.55-2.13.83-2.56.44-3.44-3.16-2.48-17.79-2.83-23.56l-10.69,13.1-5.87,7.78c-1.27,1.67-2.37,3.64-3.57,5.46-3.51,5.3-6.68,10.61-9.2,16.41-4.32,9.9-.57,21.23,3.16,30.96,1.91,5,2.15,9.73.39,14.81-3.18,9.18-6.49,18.19-10.98,26.78-.64,1.25-1.18,2.3-1.73,3.62-1.69,3.94-3.94,7.45-6.11,11.2-6.22,10.67-16.54,15.76-16.04,24.39.15,2.7,1.21,5.3,2.17,7.71l2.24,5.72-3.07-4.95c-2.3.92-4.49,2.32-5.54,4.6-.59,1.27-.42,3.81.42,4.93,2.21,2.94,8.06,2.13,8.52,6.25l-3.59-2.34c.11,3.05.18,4.69.39,7.14.75,8.41-.59,7.03,2.83,9.07,5.24,3.13,10.87,1.86,16.3,2.89,6.97,1.31,12.69,5,20.31,4.91,9.84-.11,21.87-3.57,27.72-12.4,4.73-7.14,6.55-16.24,9.44-24.19.59-1.62-1.91-4.84.85-5.96l-5-3.33c3.55.09,7.36,1.56,8.66,4.8-1.31-.46-2.87-1.23-3.57-.79-2.39,1.42.64,4.54.09,6.07l-8.28,23.88c-.77,2.19-1.6,12.67-9.01,14.66-3.88,1.03-10.17,2.52-16.41,3.4-6.35.88-12.64,1.14-16.26-.37-2.8-1.18-5.08-3.53-6.18-6.05,3.4,4.25,7.23,6.27,12.53,5.7,9.07-1.01,18.36-1.73,27.04-4.6,4.27-1.4,6.09-6.71,6.99-10.8-14.73,13.5-30.5,14.7-47.46,6.75-.28-.15-1.12.35-1.12.55-1.73-2.63-2.02-1.14-5.04-1.25-4.34-.11-8.59-1.58-12.51-3.33-4.89-2.21-1.38-11.24-3.26-17.05-1.99-.77-4.23-1.64-5.15-2.83-1.14-1.49-1.45-3.92-.77-5.61.96-2.48,3.97-3.94,6.14-4.97,1.91-3.16-4.1-7.14.57-14.75,5.48-8.94,10.34-10.56,17.18-23.86,6.16-11.94,11.28-24.06,15.4-37.16-5.57-2.21-8.92-7.25-7.93-13.08.64-3.59,2.02-6.75,3.62-10.17l-1.05-6.68c-.81-5.06-.26-9.86,1.82-14.55,5.96-13.43,16.54-26.49,26.21-38.28-10.85-6.49-4.97-35.87-2.3-46.04,1.18-4.47,2.98-8.57,5.43-12.34,1.56-2.43,5.15-3.48,7.08-1.16,1.62,1.95,1.36,4.78,1.77,7.23.99,5.81,3.42,10.96,5.52,16.46.31.77.96,3.05,2.08,2.56,12.36-5.24,20.01-6.84,33.7-5.63l5,.46c2.63-7.45,7.21-24.72,14.09-28h1.05c1.75,1.53,2.39,3.13,2.7,5.94,1.18,10.96,3.05,23.34,4.91,34.05.26,1.47.59-.2.77,1.95.04.42.07.85.13,1.29.75,6.73,3.29,16.57,5.04,23.07.7,2.61,1.62,4.32,3.55,6.03,2.96,2.63,5.17,6.07,7.21,9.47l.42.68.46.77c-.11.96-.26,1.82-.37.77l-2.13-3.24-2.87-4.19c-.07-.09-.77-.5-1.25-.81l.88,26.8c.02.2.18.85.28.75l.59-.64c.53-.57,1.86-1.38,2.72-1.71,1.56-.61,5.63,8.68,6.38,10.47,3.44,8.37,5.28,17.07,6.6,26.08.35.64.9,1.49.7.77l1.34-4.1c.04-.15.13-.66.15-.9l.15-.92c.22-1.34.5-2.78.59-4.08l.31-4.56c.02-.18.02-.55.02-.66l-.15-3.86-.07-1.05.04-1.56c.02-.22.85.48.81.79-.26,1.71.53,5.13,1.56,6.99,5.72,10.41,10.41,39.07,7.38,51.28,7.43.53,13.26-17,15.01-22.66.37-1.12-6.84-15.73-5.26-14.22l.55.53c.13.11.31.5.46.79,5.04,10.54,8.98,21.17,10.96,32.67,2.08,12.1-1.01,23.6-8.35,33.83,8.5.77,16.06-3.11,20.75-10.06-.31,2.06-1.97,3.86-3.29,5.54.77,6.92,9.93,33.92,19.24,32.17-4.14-6.07-8.35-17.75-9.03-24.32-.02-.18.28-.04.81.07.35,5.32,9.79,28.97,15.58,27.32,3.77-1.07-.92-17.35,1.01-12.56l.31.79c5.02,12.4,15.65,16.81,15.51,15.49l-.13-1.42c-.53-5.43,9.05,2.59,10.85,3.99,5.89,4.56,14.29,2.08,12.86.7l-1.31-1.27-4.01-3.73c-5.08-7.43-12.49-12.38-21.63-11.94.48-.48.88-.79,1.1-.83,5.78.77,13.87-8.17,17.05-12.12,2.72-3.37,5.15-9.33,4.65-13.26-.02-.18-.35-.11-.61-.09-4.8,4.27-16.32,4.93-21.82,2.59-3.59-1.53-5.72-4.69-6.03-7.98-.35-3.94.85-7.12,4.29-9.01l-5.65.07c-12.58.15-14.55-13.52-16.24-23.45-3.55-20.75-7.54-41.77-26.25-55.02,4.91-2.59,11.66,1.6,15.56,5.02ZM826.21,615.23c-6.92-1.07-8.37-1.18-13.45-4.01-2.3-1.27,7.41.53,8.04-1.29-14.9-2.41-8.2-24.21-5.59-33.88,2.89-10.78,7.12-25.46,3.51-36.2-2.67-7.91-8.24-14.35-15.47-18.3-4.1-2.21-8.17-3.22-12.75-4.36-7.3-1.84-12.84-9.03-13.52-16.54-.96-10.76,3.79-16.22-1.47-29.03-6.29-15.38-18.69-28.6-30.61-39.95-14.44-13.72-27.83-1.34-42.4,1.88l-5.85,1.31c4.76,4.6,9.29,8.48,12.62,13.89,3.68,6,6.27,12.42,8.3,19.15.07-.02.15-.04.22-.07l.04.13.33,2.61c6.77.88,10.12,5.89,11.83,12.12,4.34,15.84-1.88,29.43,1.69,46.13,1.03,4.78,3.51,9.47,8.11,11.46,7.08,3.11,14.62,4.71,22.33,5.43,1.6.15,3,.5,4.47.81,10.41,2.21,20.05,5.76,21.01,18.06.61,7.91.68,15.71.55,23.78-.09,6-.13,11.7.5,17.9,1.1,10.43,20.03,18.54,28.33,14.86-5.28-.44-10.39.46-14.44-3.07,8.15,3.22,17.27,2.5,23.67-2.83ZM733.09,838.69c7.63-4.14,5-6.73,6.35-16-10.52-6.71-26.69-8.79-39.6-9.18-2.5,7.03-4.69,13.94-5.59,21.26-.66,5.3,2.15,9.64,7.25,10.91,9.71,1.88,22.57-2.08,31.58-6.99ZM398.81,205.88l-4.45-17.31c-3.55-13.83-5.26-27.54-7.74-42.16-3.75,10.65-6.6,20.75-9.2,31.25-.96,3.81-1.38,7.3-1.6,11.28,1.6,2.04,3.29,3.62,5.57,5.15l17.42,11.79ZM365.37,184.47l4.65-18.17-4.38-.59c-4.34-.59-8.2-.46-12.67-.04-18.93,1.71-32.43,13.28-29.95,13.52,3.7.35,10.67-2.43,14.16-.22-7.71,3.57-17.38,7.17-18.17,16.59-.75,8.74-.68,17.18.77,26.03,1.25-.61,2.19-1.56,2.72-2.63,2.87-6.11,7.41-10.67,13.08-14.31l15.95-10.26c1.42,5.37,2.41,9.47,4.16,14.16,1.56-6.77,2.56-21.17,9.69-24.08ZM330.31,180.04l-6.79.72c-.66.07-1.97-.59-2.06-1.18-.59-3.33,6.57-6.73,9.07-8.46-4.38-8.48-7.1-15.19-8.39-24.48-.11-.83-1.36-2.15-2.13-2.24-3.22-.39-5.98,6.18-6.92,9.01-3.44,10.54-11.11,41.61-1.01,49.72,10.85-7.69-1.6-11.85,18.23-23.1ZM289.45,285.88c1.14-3.24,1.14-6.35.13-9.29l-3.99-11.59c-3.31,6.99-4.51,16.61,3.86,20.88Z"/>
    <path d="M738.52,471c-8-2.96-11.88-2.87-20.69-3.02l-.04-.13c6.09-2.02,16.11-1.88,20.73,3.16Z"/>
    <path d="M739.44,464.27c-7.03-4.78-14.13-3-21.17-2.43,7.06-2.78,16.63-3.62,21.17,2.43Z"/>
    <path d="M715.43,693.26l.94,52.24-1.53,7.3c-.48,2.34-.7,4.67-.88,7.01l-.2-.02c.07-1.18.04-2.43-.04-3.77-.22-3.09.92-5.96,1.07-8.96.61-13.26-.2-26.12-.33-39.38-.2-20.03-2.24-35.34-6.84-54.83l-10.45-4.21c-7.63-3.05-12.99-8.09-17.51-14.77-7.89-11.72-15.67-23.05-22.83-35.28-.26-.46-1.31-1.1-1.51-.75l-.7,1.27c-4.84,8.74-10.15,16.72-17.88,23.25-1.6,4.16-.88,17.2-1.99,20.01l-12.01,30.13-27.61,70.49c-2.61,6.64-4.56,12.62-3.81,19.92.15,1.45-.39,3.66-.42,5.22-.11,9.29-7.6,9.33-7.19,12.03l4.05,25.68c.57,3.57.26,6.44-2.17,9.23-2.98,3.44-6.81,5.81-11.02,7.8-8.61,4.08-22.46,11.39-31.49,9.6-4.23-.83-6.73-4.25-6.25-8.66,1.12-10.34,3.73-20.58,7.58-30.28.94-2.41,2.45-3.99,4.73-4.91,3.97-1.58,7.93-4.01,10.28-7.56,2.34-3.57,1.31-7.76.57-11.64-1.12-5.78,6.42-13.8,7.95-19.39l10.41-37.6,17.57-66.37-3.68-2.52c-8.72,2.5-17.35,4.84-26.21,6.88-1.21.26-3.44.07-3.86,1.47l-9.18,31.64c-1.49,5.15-2.48,10.04-4.47,15.01-3.51,8.66-6.42,16.96-10.63,25.37-4.12,8.22-9.4,16.87-10.21,26.05-.66,7.3-5.5,11.07-7.78,16.96-7.6,19.68-11.94,40.3-17.55,60.59-5.22,18.95-.02,27.87-6.31,40.98-1.23,2.59-3,5.54-5.48,7.03-4.56,2.72-6.79,6.92-6.14,12.53.39,3.33,2.04,6.49,3.22,9.84,1.95,5.54-1.84,21.45-4.1,27.48-4.82,13.04-23.69,15.76-35.67,16.94-3.53.35-23.12,1.18-20.27-5.7,1.6-3.86,2.85-7.67,3.97-11.72l6.11-22.37c4.05-14.86,27.15-12.29,20.84-31.62-1.1-3.4-.53-8.61.79-11.83l3.99-9.71,4.67-13.74,24.32-77.53c-1.84-7.65-1.27-15.12,1.45-22.42,1.62-4.29,2.19-8.46,2.7-12.99l4.12-36.83c.72-6.53-.2-29.01-.94-36.31l-13.83-2.56-39.11-7.19c-5.04-.92-9.23-2.72-13.41-6-15.12,5-44.83,15.86-56.78,25.31l-29.45,23.27-21.47,15.16c-.5.35-.39,1.4.02,1.71l19.72,15.01c11.53,8.76,22.77,16.85,34.88,24.56,4.69,3,9.84,5.13,15.38,5.13l6.2.02c2.72,2.48,5.28,5.43,6.35,8.79.5,1.64.83,2.8,2.76,2.83,8.9.09,11.35-5.13,15.12-4.32,3.7.79,6.73,2.34,9.47,4.93,8.39,7.89,14.22,18.3,16.32,29.74,1.42,7.71.2,15.03-1.14,22.61-.18,1.01-.28,2.24-.9,2.48-4.14,1.62-18.63-5.41-23.21-8.17-3.11-1.86-5.28-4.51-7.14-7.6-6.07-10.17-8.98-14.73-20.33-18.6-7.74-2.65-5.81,3.88-20.01-5.15l-30.9-19.7c-14.29-9.09-52.37-30.81-62.87-42.66-2.96-3.33-4.14-7.58-3.18-11.92l2.63-11.94c.83-3.75,2.89-6.22,5.22-9.05l12.84-15.6c3.4-4.12,14.57-20.14,15.78-21.26l.02-.02c.11,0,.26.68.15.81l-.5.72-11.88,16.61-14.64,18.45c-1.75,2.21-4.21,4.27-4.97,7.03-1.56,5.63-2.96,11.04-3.62,16.98-.48,4.34,2.85,8.63,6.33,11.35,19.55,15.25,40.76,27.39,61.55,40.93l31.14,20.29c5.68,3.68,11.88,4.23,17.57.18-.24.72-.75,1.58-1.16,1.77l-1.4.75c-.39.22,11.72,2.8,16.65,9.95l9.53,13.8c.11.2.77.66.9.77.15.13.79-.46.83-.81,1.38-12.77.2-32.89-8.37-43.26-2.83.35-5.02.42-7.74.07l-.77.75c-.33.24-.53.39-.53.39l-.02-1.88c-.02-3.13-2.32-5.83-4.43-8.59-2.8-3.7-9.77,1.6-21.76-5.3-7.1-4.1-13.8-8.24-20.31-13.34l-36.99-28.88c-1.21,11.24-9.93,9.29-7.95,8.59l.99-.35c3.13-1.12,5-4.32,5.54-7.45-2.02.96-3.57,1.88-5.37,2.43l21.74-15.62,34.53-25.9,3.16-3.13c9.84-9.79,54.69-24.54,55.02-24.13-.11-.13-.5-.68-.68-.83l-4.34-3.46c-16.37-13.04-30.44-28.03-42.2-45.4-3.31-4.89-5.22-10.17-7.63-16.02-13.24,13.74-25.68,27.61-37.71,42.27-5.15,6.29-9.64,12.42-13.96,19.2-2.41,3.77-1.53,4.62-5.74,9.73-.44.35-.64.44-.7.37-.07-.09.07-.39.35-.83,1.42-2.15,2.45-4.01,3.59-6.18,11.92-22.77,35.34-47.35,54.12-65.21-9.27-29.32-5.96-60.52,4.05-88.79,2.34-6.57,2.34-13.61,2.72-20.38l.5-9.6c.37-6.86.72-13.65.22-20.6l-.85-11.59-1.14-16.35c-.31-4.4-.61-8.74-1.64-13.08-3.62-15.23-11.28-28.71-21.93-40.12-11.7,4.89-16.78,16.32-19.37,27.79-.94,4.14-1.47,12.62-.79,17.07.26,1.71-.24,3.57-1.36,4.86-7.41,8.59-21.06,13.98-32.26,14.99-.83.07-2.52-.42-3.99-.66.18-.07.53-.22.81-.37,10.26,1.45,24.89-5.28,32.15-11.83,2.89-2.59,3.83-4.69,3.46-8.33-.88-8.26.61-19.57,4.78-28.73,2.32-5.13,5.48-9.6,9.53-12.49,5.22-3.73,10.58-6.42,15.97-9.84,14.37-9.09,25.18-21.85,31.12-37.91,4.36-11.81,6.29-24.17,5.39-36.75l-.31-4.27c-.07-.94.37-.2.88.66l.37,5.5c.2,2.96.28,5.7.02,8.61l-1.03,12.01c4.08-6.22,7.84-12.6,9.49-20.14.94,4.38-.48,8.74-2.85,12.42l-7.08,11.07c-1.47,2.28-6.62,31.97-31.88,48.08l-12.73,8.13c14.18,12.84,22.44,30.04,24.19,49.11l1.64,17.95c.59,6.49.42,12.71.28,19.15l-.48,24.19-.57,8.35c-.46,7.01-1.97,12.97-4.14,19.63-5.41,16.7-7.8,34.14-6.84,51.76.83,15.43,3.7,31.12,11.94,44.44,13.52,21.8,32.06,40.06,52.9,54.76,4.56,3.22,28.22,7.01,35.67,8.26-11.68-10.72-20.33-19.87-25.99-35.94-.28-1.07.24-.31.68.37,5.74,12.18,14.79,23.8,24.32,33.18,1.64,1.6,3.42,2.94,5.59,3.35l21.01,4.12-1.1-21.34c-5.08-8.66-9.03-17.51-8.26-28.05-.09-1.1.22-.96.5.07.2,1.77.53,4.16.81,5.37l1.84,7.6c.04.22.15.57.26.83l3.62,9.77c.11.31.46.99.57,1.14.09.18.48.18.48-.02l.04-1.27.5-13.21c.07-1.99.64-4.08,1.34-5.83l-.37,5.89c-.33,5.48-.28,10.74.09,16.28l1.88,27.85c.55,8.06.2,28.33-.59,36.57l-2.96,30.66c-.53,5.41-1.21,10.21-3.24,15.25-2.17,5.35-3.35,11-2.37,16.89l1.6,9.51c-.39,1.23-.64.99-.99.04l-.66-2.91-23.58,76.5c-2.08,6.77-4.21,13.08-6.95,19.48-1.31,3.11-2.37,5.76-2.48,9.31-.04,2.37-.09,4.62.75,6.77,2.15,5.57.13,11.72-4.49,15.43-2.37,1.91-4.89,3.4-7.54,4.97-7.52,4.45-9.82,11.35-8.68,11.15l1.14-.18.83-.15c17.35-3.11,29.23,4.21,43.91,12.1,1.21-5.81,2.5-11.37,1.45-17.03-1.01-5.3-6.33-10.23-1.1-19.74-.81-.39-1.31-.61-1.1-.75l.99-.53c1.95-1.05,4.65-2.08,6.07-3.79,5.35-6.33,6.88-14.35,6.57-22.48-.37-10.21,1.18-19.81,4.05-29.56l15.71-53.33-2.63,1.29c-.02-.13-.04-.57-.09-.9,8.72-5.26,10.54-14.53,11.9-24.08.09-.18.28-.59.31-.7l.31-.85c1.01-2.8,4.45-12.25,5.7-14.31l.42-.66.39-.68c2.39-4.08,4.43-8.15,6.33-12.51l.35-.83c1.4-3.16,10.45-24.98,10.39-26.8-.02-.2-.11-1.1-.02-1.42l9.44-35.15c5.11-19.11,5.41-38.96,1.99-57.5.15.11.92.96.94,1.1l1.99,12.05.2,1.25c.04.18.53.18.53-.02.04-6.22,1.27-11.02.11-18.89,4.62,8.13.66,15.76.22,23.95-.66,11.99-.13,25.68-4.12,36.9-.15.42.99.94,1.23.88l22.96-6.22c10.69-2.91,28.05-10.17,37.73-15.51,14.33-7.93,23.16-19.26,30.52-33.85,9.16-18.12,16.72-41.44,18.3-61.27,0-.18.66-1.07.7-.9,1.03,5.83-4.95,28.27-4.19,27.81l.53-.33c.13-.09.59-.57.68-.77,4.29-7.58,4.25-12.42,6.55-21.06,1.16,17.27-7.67,23.21-8.35,24.87-4.49,11.2-7.36,22.72-13.34,33.53,10.17,13.39,18.3,26.91,27.13,40.56,7.3,11.26,24.91,12.51,25.73,16.13,2.91,13.26,6.29,26.25,6.55,39.92ZM634.83,630.96l.68-7.19c-14.24,9.75-26.51,14.09-42.42,19.63,1.05,1.16,2.13,1.58,3.75,2.15l-10.82,43.3-15.78,57.76c-3.73,13.61-15.56,20.14-5.65,29.19l-2.89-1.38c.31,9.77-7.19,12.31-14.77,16.68,16.39,1.01,25,2.13,39.27,11.99l-3.22-23.78-3.44.07c3.73-1.6,7.27-1.97,9.07-5.59,3.94-7.93-1.4-13.7,4.76-29.38l10.87-27.65,25.57-65.17c1.47-3.75,4.08-7.27,4.36-11.2l.68-9.42ZM584.72,814.5c2.02-2.21,3.77-7.03,1.14-9.77-7.49-7.8-28.6-12.77-39.75-12.49-3.94,8.09-7.19,23.01-8.06,31.49-.37,3.83,1.73,6.84,5.5,7.41,8.96,1.29,21.98-5.41,30.92-9.53,4.1-1.88,7.3-3.86,10.26-7.1ZM481.14,928.18c2.32-3.55,3.22-7.54,3.94-11.81-13.19-6.99-31.69-16.08-46.65-11.39l-5.32,19.41c-1.34,4.84-2.89,9.07-4.69,14.05,1.53,1.1,3.57,2.06,5.52,2.26,13.3,1.42,39.05,0,47.2-12.51ZM448.99,809.98c1.27-7.52,2.67-14.4,1.77-21.91-1.34-11.18-6.64-21.56-14.37-29.65-3.18-3.31-7.08-6.38-11.7-6.27-2.34.07-4.82,2.3-6.95,3.2,9.51,12.12,10.91,30.5,7.74,45.42,5.48,3.75,16.41,8.7,23.51,9.2Z"/>
    <path d="M452.1,596.73c1.14-.37,2.17-.94,3.2-.64-8.44,5.19-19.77,3.51-26.56-3.77,7.43,4.19,15.01,6.46,23.36,4.4Z"/>
    <path d="M444.59,204.56c.75.48,2.08,2.17,1.67,2.94-1.8,3.29-6.22,2.5-8.87,3.99,4.29,2.61,7.91,5.43,8.15,10.61-3.81-7.01-7.17-8.15-14.16-11.92,3.35.88,13.48-.15,14.02-3.09.09-.35-.55-1.16-.92-1.38-7.32-4.65-15.91-6.75-24.63-6.33l-7.78.35c-.42.02-1.05-.33-1.27-.5-1.6-1.27,7.03-1.45,11.64-8.72,1.88-3,3.51-5.63,5.04-9.05-9.2,4.27-23.99,5.5-31.42-.99,11.72,5.5,22.42,4.54,34.23-2.34-.96,4.45-3.29,7.95-5.43,11.66-1.82,3.18-4.29,5.5-7.27,8.04,9.97-.33,18.91,1.6,27.02,6.75Z"/>
    <path d="M468.08,464.51c-7.89,13.13-16.65,25.37-26.86,37.62,7.71-13.13,16.78-25.51,26.86-37.62Z"/>
    <path d="M431.57,569.47c-2.48-6.44-4.65-13.1-6.92-20.09-3.18-9.73-3.57-20.47,1.4-29.56-6.31,21.32,2.24,29.28,5.52,49.65Z"/>
    <path d="M406.24,477.15c5.32,6.2,11.75,20.44,10.43,28.79l-2.28-8.87c-1.8-6.97-5.24-12.95-8.15-19.92Z"/>
    <path d="M364.91,265.81c4.12,5.83,4.01,13.61-.64,19.24-2.56,3.11-6.14,4.56-9.71,4.43-3.62-.13-6.97-1.99-9.29-5.11-3.46-4.65-3.97-11.13-1.42-16.39,2.24-4.65,7.01-7.98,12.1-7.43,3.79.42,6.9,2.32,8.96,5.26ZM363.12,283.84c4.65-5.48,4.45-13.39-.04-18.67-4.01-4.69-10.67-5.17-15.19-.88-5.81,5.52-5.78,15.08.09,20.58,4.47,4.16,11.09,3.79,15.14-1.03Z"/>
    <path d="M305.95,368.18c.68,2.43.18,5.63-2.48,6.84-3.37,1.53-6.14-1.64-6.66-4.76-.5-3.02.81-6.53,4.14-6.64,2.74-.07,4.43,2.54,5,4.56ZM304.63,369.43c.13-2.7-1.91-5.74-4.58-4.89-1.69.53-2.34,3.16-2.08,4.62.33,1.67,1.23,3.53,3.09,4.34.75.33,2.61-.37,2.94-1.05.31-.59.59-1.77.64-3.02Z"/>
    <path d="M304.63,249.35l.26,18.01c-2.37-6.57-3.02-24.02.57-29.78-.33,4.14-.9,7.84-.83,11.77Z"/>
    <path d="M309.1,368.69c-1.75-2.32-8.39-11.96-11.83-9.44-3.37,2.5-2.61,6.53-2.67,9.73l-.79.72s-1.69-10.52,3.09-12.29c5.17-1.93,11.26,6.81,12.21,11.28Z"/>
  </g>
  <path class="st0" d="M361.67,279.35c0,2.74-1.93,4.97-4.29,4.97s-4.29-2.24-4.29-4.97,1.93-4.95,4.29-4.95,4.29,2.21,4.29,4.95Z"/>
</svg>