<?xml version="1.0" encoding="UTF-8"?>
<svg id="Layer_1" xmlns="http://www.w3.org/2000/svg" version="1.1" viewBox="0 0 1068.96 197.04">
  <!-- Generator: Adobe Illustrator 30.1.0, SVG Export Plug-In . SVG Version: 2.1.1 Build 136)  -->
  <defs>
    <style>
      .st0 {
        fill: #6abd45;
        opacity: .5;
      }
    </style>
  </defs>
  <polygon class="st0" points="911.43 96.53 912.11 107.17 926.83 103.09 967.51 94.66 994.06 90.66 1004.7 89.47 1024.62 88.62 1024.28 78.32 1014.06 78.32 987.26 80.36 962.91 84.7 937.38 90.15 911.43 96.53"/>
  <path class="st0" d="M429.98,112.36l14.13-4.17,34.55-7.83s30.64-4.6,34.3-4.51,15.49-1.45,22.13-1.28,26.38.77,30.21,1.36,23.83,2.13,23.83,2.13l40.85,2.55,33.28.6,40.68.43v6.38l-66.72-1.02-50.3-2.72-34.72-3.15-23.4-.26-33.87,3.32-39.83,7.4-21.62,6.3-2.38.68-1.11-6.21Z"/>
  <path class="st0" d="M129.13,85.98l22.72,3.32s31.32,8.17,34.98,9.79,24.17,8.94,28.26,11.15l20.94,10.81-1.45,7.23s-22.72-11.57-23.49-11.91-20-8.94-24.68-9.23c0,0-24.17-8.66-30.04-8.61,0,0-24.34-4.71-26.04-4.54l-1.19-7.57"/>
  <path class="st0" d="M0,105.64s27.09-10.53,35.51-12.5c0,0,30.44-7.68,39.4-7.68l16.09-1.08,2.89,7.35s-27.15,1.5-34.81,3.28-31.66,7.57-34.55,9.02S0,113.72,0,113.72v-8.09Z"/>
  <path class="st0" d="M10.06,125.04c0-.51-5.36-27.4-5.36-27.4,0,0,1.45-3.74,7.49-2.38l7.83,25.87-9.96,3.91Z"/>
  <path class="st0" d="M47.34,113.72l-1.53-27.66s4.09-3.23,8-.77l3.83,26.55-10.3,1.87Z"/>
  <path class="st0" d="M80.19,108.19c.09-.43-.6-28.09-.6-28.09,0,0,4.26-4.26,8.34-.43l3.06,27.4-10.81,1.11Z"/>
  <circle class="st0" cx="10.32" cy="104.5" r="2.38"/>
  <circle class="st0" cx="50.47" cy="94.11" r="2.38"/>
  <circle class="st0" cx="83.87" cy="87.84" r="2.38"/>
  <path class="st0" d="M138.57,106.66l4.77-30.3s7.23-2.89,10.47,2.98l-4.17,28.68-11.06-1.36Z"/>
  <circle class="st0" cx="146.57" cy="91.85" r="2.3"/>
  <path class="st0" d="M163.17,110.66l5.19-24.68s2.55-2.81,6.98-1.28c0,0,2.89.43,3.57,2.72l-3.66,26.38-12.09-3.15Z"/>
  <circle class="st0" cx="171.3" cy="96.91" r="2.51"/>
  <path class="st0" d="M185.55,116.62l5.02-23.06s5.19-1.45,9.53,2.13l-5.11,24.09-9.45-3.15Z"/>
  <circle class="st0" cx="193.4" cy="103.86" r="2.66"/>
  <path class="st0" d="M214.32,125.3l2.81-19.66s1.62-3.4,6.55-2.3c0,0,2.55.17,4.77,1.96l-1.19,22.98-12.94-2.98Z"/>
  <circle class="st0" cx="220.79" cy="115.68" r="2.51"/>
  <path class="st0" d="M233.55,129.13l.6-9.36s-.17-3.37,2.55-4.07c0,0,2.81-.87,5.96,1.51v12.85l-9.11-.94Z"/>
  <path class="st0" d="M239.09,123.34c0,1.27-1.03,2.3-2.3,2.3s-2.3-1.03-2.3-2.3,1.03-2.3,2.3-2.3,2.3,1.03,2.3,2.3Z"/>
  <path class="st0" d="M425.96,120.3l-.38-13.09s2.49-2.3,6.77-1.72l1.79,13.79-8.17,1.02Z"/>
  <circle class="st0" cx="429.63" cy="113.1" r="2.52"/>
  <path class="st0" d="M444.6,115.62v-16.77s3.77-3.7,8.36-1.09l.96,3,.96,12.08s-1.91.49-5.14,3.3c0,0-4.63-1.38-5.14-.53Z"/>
  <path class="st0" d="M484.36,111.87l1.28-19.91s4.4-4.15,9.19-.57l-.32,18.38-10.15,2.11Z"/>
  <circle class="st0" cx="449.33" cy="108.2" r="2.38"/>
  <circle class="st0" cx="490.02" cy="100.24" r="2.44"/>
  <path class="st0" d="M518.13,112.83l.7-25.98s5.74-1.6,10.09,0l.64,25.98h-11.43Z"/>
  <circle class="st0" cx="523.17" cy="97.61" r="2.33"/>
  <path class="st0" d="M564.79,112.77l-.51-21.19s6.89-4.79,10.53-.51l.51,21.7h-10.53Z"/>
  <circle class="st0" cx="568.51" cy="100.45" r="2.4"/>
  <path class="st0" d="M598.68,114.3l.83-18s5.74-3.3,9.96,0l.26,20.62s-3.64.45-11.04-2.62Z"/>
  <circle class="st0" cx="604.47" cy="103.87" r="2.33"/>
  <path class="st0" d="M639.98,119.02v-27.26s4.98-4.4,10.85-2.49l1.85,28.4-12.7,1.34Z"/>
  <circle class="st0" cx="646.71" cy="104.9" r="2.27"/>
  <path class="st0" d="M668.7,116.91l-.89-25.28s6.45-3.57,12.51-1.66l.51,24.32s-9.77,2.11-12.13,2.62Z"/>
  <circle class="st0" cx="673.72" cy="104.96" r="2.21"/>
  <path class="st0" d="M702.09,114.62l.26-16.47s4.85-2.68,10.98-.57l.51,18.64-11.74-1.6Z"/>
  <circle class="st0" cx="706.49" cy="106.38" r="2.43"/>
  <path class="st0" d="M927.51,109.21l-2.47-24.51s4.77-4.94,13.79-4.26l6.47,27.57s-14.98.43-17.28,1.19"/>
  <circle class="st0" cx="934.1" cy="94.11" r="2.33"/>
  <path class="st0" d="M968.7,100.28l-7.15-27.15s7.66-5.19,11.49-4.6l9.11,28.68-13.45,3.06Z"/>
  <circle class="st0" cx="972.15" cy="86.62" r="2.43"/>
  <path class="st0" d="M1005.64,93.55l-4-22.81s7.83-4.35,10.47-2.26l3.91,23.54-10.38,1.53Z"/>
  <circle class="st0" cx="1010.04" cy="80.06" r="2.43"/>
  <path class="st0" d="M1024.28,91.85l-.94-19.06s1.36-3.91,8.17-2.55l2.98,19.49-10.21,2.13Z"/>
  <circle class="st0" cx="1028.83" cy="79.64" r="2.26"/>
</svg>