<?xml version="1.0" encoding="UTF-8"?>
<svg id="Layer_1" xmlns="http://www.w3.org/2000/svg" version="1.1" viewBox="0 0 408 408">
  <!-- Generator: Adobe Illustrator 30.1.0, SVG Export Plug-In . SVG Version: 2.1.1 Build 136)  -->
  <defs>
    <style>
      .st0 {
        fill: #69359b;
      }
    </style>
  </defs>
  <path class="st0" d="M210,12l6.23,3.01,90.93,90.92c3.06,3.06,4.84,6.67,4.84,11.14v119.87c0,8.58-6.82,14.83-14.65,15.01-8.17.19-15.34-6.21-15.34-15v-104.96s-43.48.01-43.48.01c-25.26.59-45.91-19-46.54-44.27v-45.75s-134.92.03-134.92.03c-8.45,0-15.07,6.6-15.07,15.11v293.76c0,8.52,6.71,15.06,14.95,15.08l30.09.07c8.07.02,14.26,6.2,14.9,13.8s-4.59,13.82-11.94,16.17h-39c-20.48-3.86-35.16-18.51-39-39V51c0-17.66,21.39-39,39-39h159ZM236.94,101.99l23.59-.23-38.44-38.45-.08,23.75c-.03,8.2,6.75,15,14.93,14.92Z"/>
  <path class="st0" d="M144,396h-6c-7.19-2.33-12.03-7.7-12.03-15.78l.04-89.19c0-8.39,6.68-15.01,14.93-15.01h30.08c21.08.02,37.63,17.28,37.44,37.84-.19,20.26-16.64,37.07-37.43,37.12l-15,.04-.11,30.73c-.03,7.38-5.69,12.06-11.93,14.25ZM171.43,320.91c4.52-.04,7.18-4.25,7.02-7.74-.18-3.76-3.2-7.11-7.41-7.13l-15.04-.06v15.07s15.43-.14,15.43-.14Z"/>
  <path class="st0" d="M172.87,247.36c-6.45,6.44-15.78,5.93-21.86-.14l-29.22-29.21c-5.95-5.95-6.44-14.87-.91-21.04s15.03-6.73,21.33-.91l4.76,4.39.06-53.47c0-8.43,6.76-14.77,14.63-14.95,8.19-.18,15.31,6.27,15.32,14.94l.06,53.47c1.62-1.42,2.93-2.61,4.38-4.03,6.11-6,15.63-5.75,21.35.18s5.58,15.34-.53,21.45l-29.36,29.32Z"/>
  <path class="st0" d="M267,396h-31.5c-7.19-2.33-12.03-7.7-12.03-15.78l.04-89.19c0-8.44,6.69-14.95,14.92-14.99l21.83-.09c25.15-.1,45.72,19.74,45.72,45.07v29.95c-.01,23.32-16.87,40.85-38.98,45.03ZM276,350.76l-.02-29.81c0-8.25-6.71-14.9-14.9-14.91h-7.58s0,59.95,0,59.95l8.28-.1c7.94-.09,14.23-6.92,14.22-15.14Z"/>
  <path class="st0" d="M396,288v6c-2.35,7.58-8.25,12.13-16.49,12.09l-28.5-.14v15.07s14.29-.08,14.29-.08c8.67-.05,15.47,6.31,15.68,14.71.2,8.11-6.28,15.29-14.92,15.32l-15.08.05.07,29.25c.02,7.96-4.89,13.43-12.04,15.73h-6c-7.19-2.33-12.03-7.7-12.03-15.78l.05-89.19c0-8.43,6.65-14.97,14.95-14.99l43.52-.12c8.27-.02,14.15,4.44,16.5,12.08Z"/>
</svg>