<?xml version="1.0" encoding="UTF-8"?>
<svg id="Layer_1" xmlns="http://www.w3.org/2000/svg" version="1.1" viewBox="0 0 662.09 662.09">
  <!-- Generator: Adobe Illustrator 30.1.0, SVG Export Plug-In . SVG Version: 2.1.1 Build 136)  -->
  <defs>
    <style>
      .st0 {
        fill: #69359b;
      }
    </style>
  </defs>
  <path class="st0" d="M549.5,593H113.5c-15.61-3.89-27.3-15.62-27.62-32.83l-.03-130.93h65.51s.02,98.27.02,98.27h360.24s.02-98.25.02-98.25h65.51s-.03,130.93-.03,130.93c-.29,17.19-12.02,28.97-27.62,32.83Z"/>
  <path class="st0" d="M343.91,456.26c-6.7,7.65-18.14,7.6-24.56.27l-114.47-130.78c-4.62-5.28-5.45-11.96-2.69-18.04,2.29-5.05,7.93-9.44,14.69-9.44l65.49-.04V85.47c0-9.23,7.35-16.47,16.35-16.47h65.56c8.99,0,16.34,7.24,16.34,16.47v212.76s65.49.04,65.49.04c6.82,0,12.39,4.33,14.7,9.45,2.74,6.07,1.94,12.75-2.7,18.04l-114.21,130.5Z"/>
</svg>