<?xml version="1.0" encoding="UTF-8"?>
<svg id="OBJECTS" xmlns="http://www.w3.org/2000/svg" viewBox="0 0 662.09 662.09">
  <defs>
    <style>
      .cls-1 {
        fill: #fff;
      }

      .cls-2 {
        fill: #e53935;
      }

      .cls-3 {
        fill: none;
        stroke: #e53935;
        stroke-miterlimit: 10;
        stroke-width: 8px;
      }
    </style>
  </defs>
  <g>
    <path class="cls-1" d="M331.08,37.17v-.04l-.02-.04h-.01c162.03,0,293.91,131.86,293.91,293.9s-131.87,293.91-293.91,293.91c-29.79,0-59.33-4.44-87.76-13.22-82.54-25.88-149.31-86.42-183.06-166.08-15.32-36.31-23.06-74.9-23.06-114.52,0-162.03,131.87-293.91,293.91-293.91h0Z"/>
    <path class="cls-2" d="M.02,330.99v.04C.02,148.16,148.18,0,331.05,0s331.03,148.16,331.03,331.03-148.16,331.04-331.05,331.06c-34.42,0-67.59-5.32-98.79-14.95-93.17-29.16-168.59-98.18-206.24-187.13C9.34,420.3,0,376.77,0,330.99h0ZM43.14,452.85c35.94,84.73,106.82,149.12,194.64,176.62,30.2,9.33,61.56,14.11,93.23,14.11v-.11h.04c172.33.01,312.45-140.15,312.45-312.44S503.34,18.59,331.05,18.59,18.6,158.75,18.6,331.04c0,42.19,8.29,83.17,24.54,121.81Z"/>
    <path class="cls-3" d="M331.08,37.17v-.04l-.02-.04h-.01c162.03,0,293.91,131.86,293.91,293.9s-131.87,293.91-293.91,293.91c-29.79,0-59.33-4.44-87.76-13.22-82.54-25.88-149.31-86.42-183.06-166.08-15.32-36.31-23.06-74.9-23.06-114.52,0-162.03,131.87-293.91,293.91-293.91h0Z"/>
  </g>
  <path class="cls-2" d="M480.27,312.28l-5.95-5.95-.19-.19c-1.3-1.01-2.74-2.09-4.29-2.99l-82.61-49.44-104.31-62.62c-6.14-3.64-13.15-5.7-20.24-5.7-21.84,0-39.63,17.79-39.63,39.63v224.17c0,9.1,3.04,17.39,8.26,23.99,2.09,2.74,4.46,5.24,7.25,7.25,6.6,5.24,15.05,8.26,24.04,8.26,7.01,0,14.04-1.9,20.24-5.6l186.92-112.06c12.09-7.25,19.29-19.94,19.29-33.98,0-9.29-3.15-17.9-8.86-24.8h.05l.03.03ZM454.14,344.69l-186.92,112.06c-5.35,3.34-13.45,0-13.45-7.5v-224.17c0-5.54,4.7-8.99,8.99-8.99,1.55,0,3.04.49,4.46,1.3l97.82,58.62,89.16,53.49c3.86,2.31,4.4,6.14,4.4,7.5,0,1.55-.49,5.3-4.4,7.69h-.05Z"/>
</svg>