<?xml version="1.0" encoding="UTF-8"?>
<svg id="Layer_1" data-name="Layer 1" xmlns="http://www.w3.org/2000/svg" viewBox="0 0 54.52 77.1">
  <defs>
    <style>
      .cls-1 {
        fill: lime;
      }

      .cls-2 {
        opacity: .5;
      }
    </style>
  </defs>
  <g class="cls-2">
    <g>
      <path class="cls-1" d="M22.07,1.6l1.02.07c.32.02.37.02.62.16.39.22.91.16,1.34.28.35.09.66.24.98.25.38.2.82.26,1.23.38.06-.06.08-.11.11-.15.05-.06.17-.04.17.01,0,.06-.04.2,0,.23l.95.64c.24.16.44.32.73.42,1.92.63,3.23,1.2,3.1,3.62-.42.15-.7-.08-1.17-.16.27.71.47,1.29.58,1.99l.16,1.06c.12.77.07,1.52.04,2.29-.02.56-.26.96-.36,1.41-.1-.06-.18-.15-.29-.19-.05-.01-.13.03-.18,0v-.11c.24-.01.42-.22.47-.52.3-1.81.15-3.69-.43-5.43-.19-.58-.49-1.03-1.01-1.44.94.01.17.78,2.03.97.13-2.81-2.38-2.91-3.32-3.42-.59-.32-1.11-.73-1.77-.97-.92-.34-1.76-.57-2.76-.58l-2.91-.05c-.82-.01-1.51.11-2.28.35-.83.26-1.68-.35-4.14,1.16-.92.56-1.69,1.31-2.17,2.28-.07.14,0,.33.09.42.26.24.97-.84,1.26-.77.35.26-.55.79-.71,1.48-.02.1.2.1.25.07.1-.06.22-.63.53-.37-.34.31-.37.67-.55.99-.16.29-.38.48-.21.85.18.41-.02,1.29.38,1.23.28-.04.6-.27.9-.2l-.51,1.49c-.18.53.47,1.01.92,1.23l.61-.73.18.61.64-.08c.3-.04,1.08.7,1.44.66.21-.02.29-.52.5-.47.2.06.03.53.3.63.12.04.23-.03.5-.07-.14.57.16,1.24.73,1.32.1-.15.13-.6.38-.45.35.86.66.4,1.92.64.15.03.33,0,.4-.09.2-.26-.26-.82.11-.75.14.03.17.91.62.99.52.1,1.04.04,1.59,0-.1-.3-.27-.64.05-.7.33-.07.61,1.15.97.7s.03-1.13.39-1.36c.04-.02.83.62.93.79.09.16.26.59.49.51.27.08.94-1.67.85-1.79-.23-.31-.64.11-1.03-.03.48-.36,1.16-.44,1.72-.24.31.11.47.4.72.58.13.09.35.09.31.27h-.18c-.05-.15-.2-.16-.2,0-.65.27-.64.74-.95.76l-.26.02c-.24.01-.41.24-.53.48-.35.71.04,1.47-.25,1.77-.48.51-.4,1.7-1.02,1.44-.64.68-1.16,1.64-2.05,1.98l-.81.3c-1.46.55-1.77.64-3.29.51-.79-.06-1.57.1-2.35-.09-.34-.08-.64-.1-.95,0,.02-.16-.12-.24-.29-.28-.48-.09-.78-.49-1.2-.68-2.01-.9-4.05-2.08-4.32-4.49-.07-.62-.01-1.24.37-1.85-.5-.59-.56-1.33-.88-1.96.05.01.09-.02.1-.06.01-.05,0-.13-.05-.13s-.09,0-.14,0c-.01-.03,0-.06,0-.09.26-.16-.02-.54.09-.75.09-.17.08-.28.09-.47.18-1.95.95-3.79,2.16-5.33.14-.17.31-.3.48-.43.5-.32.97-.69,1.51-.94.04-.02.06-.07.09-.09l1.32-.47c.28-.02.66-.15.94-.19h.94c.21.01.27-.14.38-.19l1.13-.47c.15.23,1.16-.23,1.7-.19Z"/>
      <path class="cls-1" d="M22.07,1.6c-.54-.04-1.55.42-1.7.19.59,0,1.14-.55,1.7-.19Z"/>
      <path class="cls-1" d="M11.32,10.38c-.11.22.16.6-.09.75-.17-.22-.14-.53,0-.75h.09Z"/>
      <path class="cls-1" d="M19.24,2.26c-.11.04-.17.2-.38.2h-.94c.13-.2.8-.03,1.32-.2Z"/>
      <path class="cls-1" d="M27.26,2.74c-.41-.11-.85-.18-1.23-.38.42,0,.89.1,1.23.38Z"/>
      <path class="cls-1" d="M11.41,9.91c-.02.19,0,.3-.09.47h-.09c.05-.07-.03-.23,0-.33s.06-.18.2-.14Z"/>
      <path class="cls-1" d="M16.98,2.64l-1.32.47c.37-.34.85-.44,1.32-.47Z"/>
      <path class="cls-1" d="M15.56,3.21c-.54.26-1.01.62-1.51.94.03-.21,1.3-1.06,1.51-.94Z"/>
      <path class="cls-1" d="M11.32,11.42l-.09-.19s.09,0,.14,0,.06.09.05.13c0,.04-.04.07-.1.06Z"/>
      <path class="cls-1" d="M31.11,13.78c-.16-.09-.27-.26-.46-.27h-.17c.04-.2-.18-.19-.31-.28-.25-.18-.41-.47-.72-.58-.56-.2-1.24-.13-1.72.24.39.14.8-.28,1.03.03.09.12-.58,1.87-.85,1.79-.23.08-.4-.35-.49-.51-.1-.17-.89-.81-.93-.79-.36.23-.02.89-.39,1.36s-.64-.77-.97-.7c-.31.06-.15.41-.05.7-.55.03-1.06.09-1.59,0-.45-.09-.48-.96-.62-.99-.36-.07.1.49-.11.75-.07.09-.25.12-.4.09-1.26-.24-1.57.22-1.92-.64-.25-.15-.28.31-.38.45-.56-.08-.86-.74-.73-1.32-.27.04-.38.12-.5.07-.27-.1-.1-.58-.3-.63-.21-.06-.29.44-.5.47-.36.04-1.14-.7-1.44-.66l-.64.08-.18-.61-.61.73c-.45-.21-1.1-.7-.92-1.23l.51-1.49c-.3-.07-.61.16-.9.2-.4.06-.19-.82-.38-1.23-.17-.38.06-.56.21-.85.18-.32.21-.68.55-.99-.31-.27-.43.3-.53.37-.04.03-.27.02-.25-.07.16-.68,1.05-1.22.71-1.48-.29-.07-.99,1.01-1.26.77-.1-.09-.16-.28-.09-.42.48-.97,1.26-1.71,2.17-2.28,2.46-1.52,3.31-.9,4.14-1.16.77-.24,1.46-.36,2.28-.35l2.91.05c1,.02,1.84.25,2.76.58.66.24,1.17.64,1.77.97.95.51,3.45.61,3.32,3.42-1.86-.19-1.09-.96-2.03-.97.52.41.82.86,1.01,1.44.58,1.75.74,3.62.43,5.43-.05.3-.23.51-.48.52Z"/>
    </g>
    <g>
      <path class="cls-1" d="M13.36,49.62c.05,1.17-.46,6.91-.14,7.73l.99,2.58c.04.11.2.23.26.18.45-.33-.9-2.94-.96-4.25-.06-1.19.01-2.34.04-3.52l.06-2.72c.17-.04.3.08.47.18.8.47,1.63.87,2.53,1.13,1.08.32,2.08.62,3.21.73,2.9.29,5.77.02,8.48-.98.93-.34,1.1-1.18,2.08-1.04-.08.96-.37,1.29-.37,2.37-.26.19-.64,0-.95.08-1.53.41-3.05.46-4.64.42l-1.81-.05-3.82-.42c-.18.24-.05.57-.12.81-.09.29-.05.56-.08.85-.11,1.04-.23,3.28-.01,4.26.02.11.02.22.03.33-.07,0-.15-.03-.21-.05.05-.11-.07-.2-.08-.29-.13-1.48-.18-2.96,0-4.44.03-.27.15-.68.1-.95,0-.09.23-.37.02-.44-.92-.31-2.11-.04-2.67.8-.12.18-.31.49-.35.7-.27,1.53-.14,3.07.17,4.57.13.17.49.17.66.19.34.04.67.08,1.01.13-.06.08.03.15.08.17.09.03.16,0,.23,0l.17.02c.24.42.77-.65,1.64.14.61.55,1.26.83,2,1.15.36.15.62.53,1.07.59.15.02.23.17.27.26.03.08.06.28-.08.3-.46.06-.87-.33-1.28-.31-.26.01-.05.43-.01.57l.22.9c.18.72.39,1.41.4,2.16l.03,1.98c0,.11-.03.23-.09.27l-2.2-.75c0-.91.05-1.83-.03-2.78-.06-.71-.25-1.34-.34-2.03l-.04-.29c-.01-.1-.19-.03-.25-.09-.11-.12-.27-.1-.39-.17-.23-.14-.47-.15-.78-.29.26-.17.48-.03.7-.02.11,0,.29.09.4,0,.08-.06.07-.3-.04-.39-.55-.47.03-.54-1.73-.98-.1-.03-.15.09-.16.14-.14-.06-.37,0-.5-.08-.25-.16-.56-.13-.9-.09-.82,1.6-.12,3.79.18,5.42-.26-.01-.49.15-.76.2-.18.03-.21-.23-.29-.29-.01-.58-.08-2.83-.53-3.22l.06,2.84c-.07,0-.14,0-.19-.03-.2-.09.01-2.77-.14-3.71-.14-.85-1.2-2.64-1.18-3.23.03-.69-.02-1.38.02-2.08l.1-1.69.1-1.13.1-1.32.11-1.06h.12Z"/>
      <path class="cls-1" d="M27.19,71.44c-.15-.2-.34-.41-.53-.63l-.77-.86c.54,0,1.98-1.11,1.51-1.48-.19-.15-.53.03-.78-.07,0-.4.34-.65.47-.98.23-.59.8-1.82.2-2.01-.94-.29-1.27,2.6-2.56,2.41-.45-.07-.38-.84-.39-1.18-.03-.9-.07-1.7-.21-2.57l-.3-1.85-.31-1.1c-.26-.95-.39-1.5-1.3-2.01-1.19-.67-.97.49-2.12-.13l-.75-.4c-.26-.14-.46-.32-.74-.31,0-.11,0-.22-.03-.33.55.02,1.03.41,1.6.47.43.05.77-.33,1.16-.35.62-.03,1.32.29,1.74.73.33.34.98,1.63,1.07,2.05l.44,2.09c.17.82.28,1.61.4,2.45.05.31-.02.88.29,1.03,1.01-.2,1.01-2.35,1.55-2.68.42-.26.91.36.98-.27l.1-.91c.12-1.07-.08-1.88.21-3.41.1-.53-.05-1.07.01-1.6.12-1.05.17-2.1-.1-3.11-.39-1.45-2.25-.53-2.66-.52l-2.15.06c-.49.01-1.02,0-1.52-.05l-1.23-.09c-.65-.05-1.26-.24-1.88-.17.03-.29,0-.56.08-.85.04-.02,3.74.37,3.49.31.59.13,1.15.03,1.71.06.76.04,1.44.02,2.2-.12s1.55-.01,2.31-.03c.24,0,.52.17.63.3.43.49-.19,1.22-.16,2.6,0-.15-.33,3.21-.33,2.96l-.06,2.23-.1,1.32c-.02.32.01.58,0,.88l-.07,1.87-.11,1.51c-.06.87-.2,1.38-.14,2s-.16,1.3-.19,1.95c-.02.44-.3.65-.66.76Z"/>
      <path class="cls-1" d="M30.01,52.01c0,.68-.02,1.38-.05,2.1l-.03.89c-.01.36-.08.69-.11,1.04l-.1.93-.09,1.08-.07,1.02c-.03.38-.08.74-.12,1.15l-.24,2.53c-.03.35.25,1.37.08,3.03-.03.33-.08.7-.1,1.03l-.09,1.79c-.05,1.06.12,2.06-.03,3.12-.18,1.32.41,1.72.18,2.27-.09.09-.37.32-.48.12-.52-.92-.98-1.84-1.57-2.67.36-.11.64-.32.66-.76.03-.65.24-1.31.19-1.95s.08-1.13.14-2l.11-1.51.07-1.87c.01-.29-.02-.56,0-.88l.1-1.32.06-2.23c0,.25.32-3.11.33-2.96-.02-1.38.59-2.11.16-2.6-.11-.13-.39-.3-.63-.3-.76.02-1.56-.11-2.31.03s-1.44.17-2.2.12c-.56-.03-1.11.08-1.71-.06.26.06-3.44-.34-3.49-.31.07-.24-.06-.57.12-.81l3.82.42,1.81.05c1.59.05,3.11,0,4.64-.42.31-.08.69.11.95-.08Z"/>
      <path class="cls-1" d="M18.6,58.28c.28-.01.48.17.74.31l.75.4c1.16.62.93-.54,2.12.13.9.51,1.03,1.06,1.3,2.01l.31,1.1.3,1.85c.14.86.19,1.67.21,2.57,0,.34-.06,1.12.39,1.18,1.28.18,1.62-2.7,2.56-2.41.61.19.03,1.42-.2,2.01-.13.33-.48.58-.47.98.24.09.59-.08.78.07.47.37-.97,1.49-1.51,1.48-.7-.4-1.22-.97-1.77-1.6-.33-.37-2.01-1.58-2.2-1.65.05-.04.09-.16.09-.27l-.03-1.98c-.01-.74-.23-1.44-.4-2.16l-.22-.9c-.03-.14-.25-.56.01-.57.4-.02.81.37,1.28.31.14-.02.11-.22.08-.3-.03-.09-.12-.24-.27-.26-.45-.06-.71-.44-1.07-.59-.74-.32-1.4-.6-2-1.15-.87-.79-1.41.28-1.64-.14.17-.22.43-.33.66-.48.07.02.14.05.21.05Z"/>
      <path class="cls-1" d="M30.74,49.73l-.03.37c-.14-.04-.31.16-.32.35l-.22,3.61c-.03.49-.13.93-.15,1.42l-.08,2.25c-.01.39-.04.75-.07,1.15l-.17,1.97.09,1.41c.01.22.11.47.29.48l.05.47c-.08-.77-.47,10.19-.43,10.64-.14.07-.32.09-.47.11.23-.55-.36-.94-.18-2.27.14-1.06-.03-2.06.03-3.12l.09-1.79c.02-.34.07-.7.1-1.03.17-1.67-.12-2.68-.08-3.03l.24-2.53c.04-.41.09-.77.12-1.15l.07-1.02.09-1.08.1-.93c.04-.35.1-.68.11-1.04l.03-.89c.03-.72.05-1.42.05-2.1,0-1.08.29-1.41.37-2.37.12.02.29-.07.37.09Z"/>
      <path class="cls-1" d="M18.6,60.29c-.22-.02-.44-.16-.7.02.31.13.55.15.78.29-.06.27.11.51.15.8.15,1.12.02,3.35-1.06,3.9-.26.01-.36-.31-.52-.41.02-.16-.06-.31-.16-.46-.43-.66-.56-1.41-.78-2.15s-.4-1.76.23-2.36c.2-.19.4-.63.71-.66.6.02,1.24.44,1.35,1.03Z"/>
      <path class="cls-1" d="M30.92,49.8l.04.87c.02.45.02.81,0,1.25l-.04,1.68c0,.35-.14.68-.08,1.04s-.07.7-.08,1.05l-.03,2.44c0,.31-.17.62-.08.95.09.36-.1.7-.09,1.04.03.56-.05,1.06-.08,1.6l-.09,1.61-.09,1.33-.1,1.69-.06,1.76-.07,4.93-.09.66c-.02.14-.2.14-.27.18-.04-.45.35-11.41.43-10.64l-.05-.47c-.19-1.93.35-3.99.46-6.04l.22-4.07c.04-.77.21-1.81-.05-2.54l.03-.37c.06.02.12.04.17.06Z"/>
      <path class="cls-1" d="M17.08,59.08l.17.19c-.31.03-.52.48-.71.66-.63.6-.46,1.59-.23,2.36s.36,1.49.78,2.15c.1.15.18.3.16.46-.35-.22-.74-.37-1.11-.56,0-.81-.5-2.25-.55-3.18-.02-.36.07-.74.11-1.11.03-.31.28-.68.47-.91.09-.11.37,0,.42-.13.13.08.36.02.5.08Z"/>
      <path class="cls-1" d="M19.06,60.77c.33,1.88.32,3.2.08,5.08-.51.09-1.16-.06-1.38-.55,1.09-.55,1.21-2.78,1.06-3.9-.04-.29-.21-.54-.15-.8.12.07.28.05.39.17Z"/>
      <path class="cls-1" d="M19.71,65.96c-.15-.05-.43.05-.56-.1.24-1.88.24-3.2-.08-5.08.05.06.24,0,.25.09l.04.29c.09.7.28,1.33.34,2.03.08.94.02,1.87.03,2.78Z"/>
      <path class="cls-1" d="M16.58,59c-.05.14-.32.02-.42.13-.18.22-.44.59-.47.91-.04.37-.13.75-.11,1.11.05.93.54,2.38.55,3.18-.08-.02-.2,0-.28,0-.3-1.63-.99-3.82-.18-5.42.34-.04.66-.07.9.09Z"/>
      <path class="cls-1" d="M14.8,64.24c-.15-.12-.39-.18-.47-.38l-.06-2.84c.45.39.51,2.64.53,3.22Z"/>
      <path class="cls-1" d="M18.58,57.95c-.22-.98-.1-3.22.01-4.26.61-.08,1.23.12,1.88.17l1.23.09c.5.04,1.03.06,1.52.05l2.15-.06c.42-.01,2.28-.93,2.66.52.27,1.01.22,2.05.1,3.11-.06.53.09,1.08-.01,1.6-.29,1.53-.09,2.35-.21,3.41l-.1.91c-.07.63-.56.01-.98.27-.54.33-.54,2.48-1.55,2.68-.31-.15-.24-.72-.29-1.03-.12-.84-.23-1.63-.4-2.45l-.44-2.09c-.09-.42-.74-1.71-1.07-2.05-.43-.44-1.12-.77-1.74-.73-.39.02-.73.4-1.16.35-.57-.06-1.05-.45-1.6-.47Z"/>
      <path class="cls-1" d="M18.4,52.56c.06.26-.06.68-.1.95-.36.06-.86-.14-1.2.14-.86.7.02,3.39.48,4.26.2.13.55.03.73.04,0,.09.13.18.08.29-.23.15-.48.26-.66.48l-.17-.02c.05-.08-.02-.15-.08-.17-.09-.04-.17,0-.24,0-.34-.05-.67-.09-1.01-.13-.33-1.19-.47-2.42-.51-3.71-.03-.72.31-1.64,1.07-2,.52-.25,1.09-.11,1.61-.11Z"/>
      <path class="cls-1" d="M18.31,53.51c-.18,1.48-.12,2.96,0,4.44-.18,0-.53.09-.73-.04-.46-.87-1.33-3.55-.48-4.26.34-.28.84-.08,1.2-.14Z"/>
      <path class="cls-1" d="M18.4,52.56c-.53,0-1.09-.14-1.61.11-.76.36-1.1,1.28-1.07,2,.05,1.29.18,2.52.51,3.71-.16-.02-.53-.02-.66-.19-.31-1.5-.43-3.05-.17-4.57.04-.21.23-.52.35-.7.56-.85,1.75-1.12,2.67-.8.21.07-.02.35-.02.44Z"/>
      <path class="cls-1" d="M13.61,49.62l-.06,2.72c-.03,1.18-.1,2.34-.04,3.52.06,1.32,1.41,3.93.96,4.25-.06.05-.21-.07-.26-.18l-.99-2.58c-.31-.82.19-6.57.14-7.73.01-.05.02-.09.04-.12.03-.04.07-.06.12-.04.06.02.08.1.09.16Z"/>
      <path class="cls-1" d="M18.6,60.29c-.11-.58-.76-1-1.35-1.03l-.17-.19s.06-.17.16-.14c1.77.44,1.18.5,1.73.98.1.09.12.33.04.39-.12.08-.3,0-.4,0Z"/>
      <path class="cls-1" d="M17.56,58.69c-.07,0-.14.02-.23,0-.05-.02-.14-.08-.08-.17.07.01.15-.03.24,0,.05.02.13.09.08.17Z"/>
      <path class="cls-1" d="M30.72,50.1c.26.73.09,1.78.05,2.54l-.22,4.07c-.11,2.05-.65,4.11-.46,6.04-.19-.01-.28-.26-.29-.48l-.09-1.41.17-1.97c.03-.4.06-.76.07-1.15l.08-2.25c.02-.49.12-.93.15-1.42l.22-3.61c.01-.19.19-.39.32-.35Z"/>
    </g>
    <g>
      <g>
        <path class="cls-1" d="M6.01,15.84c.16.09.18.27.21.49l.09.57c-.27-.32-.22-.71-.38-.81-.43-.26-1.85.38-2.36.8-.05.04-.16.1-.21.12-.13.05-.36.18-.52.22,0-.15.09-.27.22-.38.85-.71,1.88-1.06,2.94-1.01Z"/>
        <path class="cls-1" d="M30.29,13.51c-.06-.01-.14-.03-.2,0,0-.17.15-.15.2,0Z"/>
        <g>
          <path class="cls-1" d="M28.11,16.53c.11.33.33.62.6.89l.24.78c-.49.03-1.59.87-1.84,1.44-.16.35.08.61.24.8.42.51,1.33.05,1.7.23-.36.45-.92.52-1.42.8l-.37.03c-.13-.11-.32-.05-.47.01-.34.14-.76-.09-1.13,0-.5.13-.5.81-.5,1.21-.1-.02-.24-.06-.35-.15-1.3-1.11-2.91-1.57-4.62-1.44l-2.45.19c0-.22-.12-.43-.09-.66.3-.1.6-.09.95,0,.78.19,1.57.03,2.35.09,1.52.12,1.83.04,3.29-.51l.81-.3c.89-.33,1.41-1.3,2.05-1.98.62.27.54-.93,1.02-1.44Z"/>
          <path class="cls-1" d="M31.58,14.08c-.24,1.08-.45,2.18-.61,3.32-.24,1.72-1.07,3.53-2.82,4.08-.2.06-.37.14-.53-.01.5-.28,1.06-.36,1.42-.8.16-.19.48-.3.66-.58.54-.84.9-1.76.99-2.78.08-.9.25-1.74.43-2.58.06-.27.3-.53.17-.84.11.04.19.13.29.19Z"/>
          <path class="cls-1" d="M27.26,21.5c0,.13-.14.12-.24.12-.08,0-.22.01-.24-.1.15-.06.34-.13.47-.01Z"/>
          <path class="cls-1" d="M30.09,13.5c.06-.03.14,0,.2,0-1.19.74-1.41,2.79-1.19,4.16.03.21.17.44.35.43.22,0,.41-.16.47-.36s.14-.41.11-.66c-.09-.97.14-1.86.43-2.73.16-.12.29-.28.43-.5l-.24-.35c.19.02.3.18.46.27v.11c-.31.19-.32.6-.46.83-.86,1.37.24,3.43-1.07,3.69-.28.06-.43-.13-.63-.21l-.24-.78c-.27-.27-.49-.56-.6-.89.29-.3-.11-1.06.25-1.77.12-.24.29-.47.53-.48-.56.56-.76,2.25-.21,2.82.07-.78.09-1.45.33-2.15.09-.24.2-.46.13-.69.31-.02.3-.49.95-.76Z"/>
          <path class="cls-1" d="M30.47,13.5h.17s.24.36.24.36c-.14.22-.27.38-.43.5-.06-.04-.21-.14-.3-.04-.69.81-.34,1.58-.47,2.19-.09.45-.06.91.23,1.24-.06.2-.25.35-.47.36-.18,0-.32-.22-.35-.43-.22-1.37,0-3.43,1.19-4.16h.18Z"/>
          <path class="cls-1" d="M29.14,14.26c.06.23-.05.45-.13.69-.25.69-.27,1.37-.33,2.15-.55-.57-.35-2.26.21-2.82l.26-.02Z"/>
          <path class="cls-1" d="M31.3,13.89c.13.31-.11.57-.17.84h-.48c.14-.23.15-.64.47-.83.06.02.13-.01.18,0Z"/>
          <path class="cls-1" d="M31.13,14.73c-.18.84-.34,1.69-.43,2.58-.1,1.02-.45,1.94-.99,2.78-.18.28-.51.39-.66.58-.37-.18-1.29.28-1.7-.23-.16-.2-.4-.45-.24-.8.26-.58,1.35-1.41,1.84-1.44.21.09.35.27.63.21,1.31-.26.21-2.32,1.07-3.69h.48Z"/>
          <path class="cls-1" d="M30.46,14.35c-.29.87-.52,1.76-.43,2.73.02.25-.05.47-.11.66-.29-.33-.32-.79-.23-1.24.13-.61-.22-1.38.47-2.19.09-.1.24,0,.3.04Z"/>
        </g>
        <g>
          <path class="cls-1" d="M3.02,11.23c.05.1.29.09.2.31-.16,0-.34-.18-.44-.09-.41.36-.33.84-.26,1.3.05.35,0,.61.33.84,1.02.73,2.59.64,3.79.44-.22-.63-.15-1.1.13-1.6.2-.37.31-.76.62-1.07.03,0,.03.06.06.08-.42.95-.57.79-.8,1.97-.08.42.58.81.03,1.21-.26.19-.6.38-.72.7-.07.18.09.38.06.53-1.07-.05-2.1.3-2.94,1.01-.13.11-.22.22-.22.38-.03.03-.08.03-.11.06-.44-.13.01-.7-.64-1.37-1.41-1.45-1-1.97-1.29-2.26-.24-.24.24-.58.27-.81.04-.3-.14-.76.2-.89.27-.1.32-.41.63-.58l.21.71c.16-.46-.17-1.55.58-1.94.18.4.21.75.31,1.08Z"/>
          <path class="cls-1" d="M4.59,11.25s0,.05,0,.08c.01.05.09.05.11.09.07.14.36.15.47-.02.36-.53.81-.91,1.32-1.31.22-.17.37-.3.65-.25.21.04.34.22.45.45.2.41.17.88-.17,1.12-.02-.02-.03-.07-.06-.08-.31.31-.42.7-.62,1.07-.27.5-.35.97-.13,1.6-1.19.2-2.77.29-3.79-.44-.32-.23-.28-.48-.33-.84-.07-.45-.14-.94.26-1.3.1-.09.28.08.44.09.09-.21-.15-.21-.2-.31.03,0,.06,0,.09,0,.09.01.1-.06.1-.14,0-.07,0-.15-.09-.14v-.09s0-.09,0-.09v-.09c.34-.17.04-.6.74-1.13.32.83-.03,1.38.73,1.72Z"/>
          <path class="cls-1" d="M4.59,11.25c-.76-.35-.41-.89-.73-1.72-.71.54-.4.97-.74,1.13.02-1.53.6-1.69.58-1.97,0-.11.08-.16.13-.18.34-.15.15.13.3,1.12.06.38.01.79.2,1.14.09.17.28.28.27.47Z"/>
          <path class="cls-1" d="M3.11,11.23v-.28c.1,0,.1.08.1.14,0,.08,0,.15-.1.14Z"/>
          <path class="cls-1" d="M4.71,11.42s-.09-.05-.11-.09c.05.02.08.05.11.09Z"/>
          <path class="cls-1" d="M3.12,10.85c-.05-.03-.05-.07,0-.09v.09Z"/>
        </g>
      </g>
      <g>
        <path class="cls-1" d="M44.52,44.17c0-.11-.1-.11-.09,0h-.09c-.02-.07.08-.14.08-.2,1.23-.31,1.11.54,1.71.51.97-.05,2.5-1.15,3.38-.95.67.15,1.28.43,1.97.41.26,0,.66-.19.59-.51-.11-.53-.68-.74-1.13-.79-.24-.24-.73-.12-.9-.25-.05-.04.04-.12.05-.19.19.08.4-.01.62-.07,1.04-.25,2.04.23,2.21-.27.08-.25-.04-.37-.19-.51-.18-.16-.35-.3-.66-.3h-2.83c-.46-.24,2.6-.29,2.45-.29.37,0,.73.09,1.14.12.2.01.21-.3.22-.42.02-.19-.11-.28-.23-.42-.71-.8-3.07-.39-4.02-.28-.24.03-.17-.46-.18-.59.78-1.01,3.49-.45,3.57-1.02.04-.28-.23-.4-.4-.47-.82-.33-1.71-.3-2.64-.21-1.39.14-1.94.95-2.68,1.6-.06.05-.13-.04-.1-.1l.07-.15c.11,0,.24-.06.31-.21.44-1,0-1.95-.35-1.8-.1.04-.02.22-.06.28-.34.48-.61,1.05-1.08,1.47-.31.27-.45.61-.43.99-.26.48-.44,1.04-.85,1.4-.03-.01-.06-.04-.08-.07.24-.5.63-.95.71-1.56.04-.3.06-.62.3-.83.6-.53.94-1.21,1.34-1.88.17-.29.66.09.74.3.3.78-.09,1.21.25,1.24.14.01.56-1,3.07-.97.64,0,1.21-.01,1.79.3.29.16.6.56.35.89-.53.7-3.45.11-3.45,1.11.36-.23.75-.07,1.12-.14.76-.14,2.87-.04,3.14,1,.07.27-.2.5-.17.73.04.34.35.76.04,1.09-.43.44-1.35-.07-2.09.18.65.23,1.64.71,1.29,1.43-.07.14-.26.28-.48.35-1.09.31-2.28-.52-2.92-.29l-2.28.84c-1.12.41-1.09-.95-2.09-.5Z"/>
        <path class="cls-1" d="M44.52,44.17h-.09c0-.11.1-.11.09,0Z"/>
        <path class="cls-1" d="M50.95,42.63c.45.05,1.03.26,1.13.79.06.31-.34.5-.59.51-.7.02-1.3-.26-1.97-.41-.88-.2-2.41.91-3.38.95-.61.03-.49-.81-1.71-.51.01-.21.15-.41.19-.65.12-.9-.37-1.6-.66-2.38.41-.36.6-.92.85-1.4.09,0,.19.05.18.19l.45,1.34c.53,1.57,2.99,1.88,4.38,1.79.41-.02.83,0,1.14-.23Z"/>
        <path class="cls-1" d="M46.41,38.81l-.07.15c-.02.05.04.15.1.1.75-.64,1.29-1.45,2.68-1.6.92-.1,1.82-.13,2.64.21-.06.13-.23.22-.41.24-.43.04-.79.19-1.2.29-.52.13-1.61.13-1.68.65-.02.12.09.22.13.31,0,.14-.06.62.18.59.95-.1,3.3-.52,4.02.28-.3.48-1.24.06-1.13.72.16,0-2.91.05-2.45.3h2.83c.31,0,.48.14.66.3.03.07-.11.13-.16.11-.34-.12-.49.09-.72.18-.71.27-1.72-.37-1.75.54,0,.07-.1.15-.05.19.18.13.67.01.9.25-.31.23-.73.2-1.14.23-1.39.08-3.84-.22-4.38-1.79l-.45-1.34c.01-.14-.09-.19-.18-.19-.02-.39.12-.72.43-.99.47-.42.74-.98,1.08-1.47.63.37-.45,1.54.11,1.72Z"/>
        <path class="cls-1" d="M50.09,42.19c.03-.91,1.04-.27,1.75-.54.23-.09.38-.3.72-.18.06.02.2-.05.16-.11.15.13.27.25.19.51-.16.5-1.16.02-2.21.27-.22.05-.43.14-.62.07Z"/>
        <path class="cls-1" d="M51.68,40.76c-.11-.66.83-.24,1.13-.72.12.13.25.23.23.42-.01.12-.02.43-.22.42-.41-.03-.77-.11-1.14-.12Z"/>
        <path class="cls-1" d="M48.6,39.16c-.04-.1-.14-.2-.13-.31.07-.51,1.16-.52,1.68-.65.41-.1.78-.25,1.2-.29.18-.02.35-.11.41-.24.17.07.44.2.4.47-.08.57-2.79,0-3.57,1.02Z"/>
        <path class="cls-1" d="M46.41,38.81c-.56-.18.52-1.36-.11-1.72.05-.06-.04-.24.06-.28.36-.16.79.8.35,1.8-.07.15-.2.21-.31.21Z"/>
      </g>
    </g>
    <g>
      <path class="cls-1" d="M27.28,27.35c-.05.08-.18.18-.21.28-.27.18-.35.63-.49.89-.55,1.04-.6,2.27-.67,3.45-.1,1.79.39,3.33,1.16,4.82.63,1.21,1.22,2.43,2.1,3.57l1.39,1.81c.45.59.82,1.23,1.4,1.82,1.59,1.64,3.69,2.6,5.95,2.63.57,0,1.14.07,1.71-.09,1.44-.04,3.11-.76,3.22-2.46.07-1.12-.32-2.96-1.16-3.58-.2-.15-.35-.47-.64-.39-.06-.1-.18-.07-.28-.08-.53-.08-1.78.45-3.03-.03.66-.25.81.24,2.08-.07.77-.19,1.71-.18,2.17.55.14.23.23.44.47.6.44-.33.94-.31,1.42-.2.02.03.05.06.08.07.29.77.78,1.48.66,2.38-.03.24-.17.44-.19.65,0,.06-.1.13-.08.2-.38.48-1.03.66-1.51,1.05-.43.34-.69.85-1.28,1.1-2.69,1.12-6.28.68-8.7-1.12-.86-.64-1.49-1.43-2.24-2.31-.1,1.22-.04,2.46.41,3.58.18.45.57.77.79,1.19.34.65.21,1.47-.51,1.76-.19.08-.37.13-.36.38-.06-.03-.11-.05-.17-.06-.07-.16-.24-.07-.37-.09-.98-.14-1.15.7-2.08,1.04-2.72,1-5.59,1.28-8.48.98-1.13-.11-2.13-.42-3.21-.73-.9-.26-1.73-.66-2.53-1.13-.17-.1-.29-.22-.47-.18,0-.06-.03-.14-.09-.16-.05-.02-.1,0-.12.04-.02.03-.03.08-.04.12h-.12c.03-.33.04-.46-.23-.72-.55-.53-.5-1.4.11-1.8.02.14-.1.26-.17.39-.34.55-.02,1.09.39,1.48.27.25.46.52.81.7.86.44,1.7.91,2.63,1.02,1.58.66,3.35.76,5.1.77.73,0,1.41-.07,2.08-.11h.17c.1-.02.27.04.31-.08,1.39-.13,2.78-.45,4.1-.98.44-.18.7-.98,1.84-.91.46.03.97-.16,1.23-.55s.14-.97-.18-1.26c-.03-.03-.08-.07-.11-.1-.08-.2-.21-.38-.36-.53-.04-.04-.08-.09-.13-.13,0-.03,0-.07,0-.09-.61-1.75-.37-3.68-.53-4.11-.32-.84-1.06-1.49-1.53-2.22s-.83-1.57-1.4-2.25c0-.03,0-.07,0-.1,0-.04-.07-.06-.08-.1-.08-.29-.45-.22-.7-.26l-.28-.04c-.09-.12-.25-.09-.36-.15-1.03-.53-1.77-1.36-2.16-2.46-.05-.15.05-.37-.11-.49l.12-.38c.11.06.08.18.09.27.48,1.49,1.63,2.8,3.24,3.13-.66-1.22-1.31-2.29-1.37-3.47l-.03-.57c0-.17-.06-.39-.07-.56-.1-1.65.13-3.3.76-4.84.03-.06.78-1.25,1.32-1.4.41-.12-.26.28-.48.64ZM43.12,43.51l-.18,1.4c.48-.21.87-.52,1.18-.93.22-.29.12-.59.13-.95,0-.63-.12-1.35-.61-1.87-.28-.29-.9-.13-1.14.12.3.76.54,1.43.62,2.23Z"/>
      <path class="cls-1" d="M25.15,22.73c.52.72.94,1.08,1.46,1.97.33.07.68.19.97.2.05-.13.03-.36.25-.28-.19.92,1.52.29,2.49,2.8l2.06,5.29c.64,1.64,1.32,3.17,2.17,4.74,1.14.17,1.99,1,2.32,2.1.06.18.16.32.39.28.06.01.14.03.18.05.03.02.03.07.02.11-.1,0-.37,0-.37.12,0,.37.12.72.06,1.04-.11.04-.06.21-.08.3-.01.08-.03.17-.03.26-.54.36.11.21-.73.67,0-.24.2-.41.21-.65,0-.07.09-.13.07-.21-.01-.05.02-.11.01-.16.09.07.14-.04.16-.09s-.01-.14,0-.21c.18-1.22-.69-3.16-2.08-3.41.3.62.59,1.16.98,1.62.08.1.03.27.09.37l-.48-.31-1.23-2.33c-1.09-2.06-1.9-4.24-2.78-6.45l-1.35-3.38c-.07-.19-.31-.27-.29-.47,0-.09-.13-.13-.17-.17-.07-.19-.25-.37-.46-.41-.2-.42-.71-.56-1.15-.64-.27-.2-.63-.21-.95-.28-.17-.04-.39-.04-.59-.11-1.57-.53-3.14-.89-4.8-1-1.48-.1-2.92-.05-4.4-.24-.7-.09-1.33-.09-1.91.21-.28.15-.75.06-.94.38-.61.18-.17.26-.94.37l-.3-.02c-.17-.21-2.69-.68-3-.72.92-.4.98-.09,1.27,0,.71.23,1.5.14,2.21.49.64-.43,1.35-.85,2.19-.97.32-.05.61.02.94-.14-.05-.49.16-.94.24-1.42.05-.33.19-.58.58-.55.14,0,.27-.04.32-.16l2.45-.19c1.71-.13,3.32.32,4.62,1.44.11.09.24.13.35.15ZM19.34,21.51c-.29,0-.57.04-.93.1-.32.06-.9-.03-1.13.27-.33.44-.3,1.11-.51,1.64,1.1.29,2.17.1,3.23.18l2.63.18c1.24.08,2.4.58,3.73.82-.39-.64-.82-1.38-1.53-1.7-.01-.04-.05-.07-.11-.14-1.26-1.29-3.59-1.56-5.37-1.34Z"/>
      <path class="cls-1" d="M9.5,23.88c-.09.09-.13.32-.07.45-.03,0-.07,0-.1,0l-.43.68c.04-1.78.27-1.31-.3-2.82-.03-.07-.09-.15-.12-.21-.34-.98-.74-2.41-1.22-3.29-.05-.1-.17-.27-.19-.37-.04-.19-.12-.27-.27-.39-.14-.11-.29-.28-.6-.21-.85.21-1.73.58-2.34,1.17-.3-.15-1.7.98-1.82,1.43.52,2.34,1.07,4.65,1.92,6.85.24.6.85,1.07,1.42,1.29l.84.31c.25.09.46.26.75.36l1.87.68,3.1,1.39c.2-1.84.26-3.83,1.28-5.27.05-.06.08-.03.12.02.04.04.01.12-.02.21-.58,1.49-.95,3-1.04,4.61-.05.95.08,1.82.25,2.76.49,2.64,1.04,5.21,1.32,7.9.12,1.16-1.2,2.92-.3,4.77.14.28.23.61.21.9-.01.19.08.38.09.57-.39.05,0-.77-.46-1.16-.11.24-.05.48-.27.51.47-1.47-.32-1.47-.03-2.84l.46-2.16c.21-1.01-.48-3.62-.67-4.64l-.76-4.04c-.06-.31-.07-.59-.07-.87v-.76c0-.16-.08-.26-.19-.28-.03,0-.07,0-.09,0-.03-.09-.1-.15-.19-.19l-4.46-1.77-.73-.22c-.23-.07-.4-.31-.67-.37-.49-.11-.85-.45-1.28-.7-.09-.05-.21,0-.26-.03-.09-.04,0-.23-.06-.3-.29-.39-.5-.77-.67-1.25-.69-2.01-1.3-4.02-1.7-6.13-.1-.51.44-.88.68-1.21.21-.29.05-.67.02-.98l-.08-.75c-.01-.1.2-.13.27-.18-.07.56.01,1.12.13,1.7.41-.25.72-.43,1-.67.21,0,.36-.2.54-.27l2.1-.85c.18-.07.82.51.97.91l2.1,5.69Z"/>
      <path class="cls-1" d="M37.45,39.98c.07,0,.2-.02.27,0,1.25.47,2.5-.05,3.03.03-.1-.16.59,1.75.56,1.23,0,.06.04.13.03.19-.05.17.03.37,0,.54-.08.4-.09.89-.47,1.17-1.03.76-1.82.68-3.04.26-.64-.59-.57-.45-.86-1.14.02-.19.1-.38.09-.57,0-.08.02-.17.03-.26.1.06.21-.03.2-.15,0-.05-.07-.11-.12-.15.05-.32-.06-.66-.06-1.04,0-.12.27-.12.37-.12Z"/>
      <path class="cls-1" d="M13,24.8v.11c-.07.11-.08.24-.07.36-.11.11-.12.27-.09.41.03.28-.2.5-.29.75-.63.28.13.12-.87.56-.21-.21-.77.33-1.47-.33-.1-.09-.2-.15-.31-.16.01-.07-.07-.13-.09-.17,0-.12.02-.25,0-.37.09.03.09-.09.07-.15-.02-.05-.03-.1-.09-.07,0-.06-.02-.13-.02-.19l.02-.55c.2-.27.21-.62.09-.92.03,0,.07,0,.1,0,.31.04,2.84.51,3,.72Z"/>
      <path class="cls-1" d="M13.87,47.66c.37,1.07,1.27,1.88,2.3,2.41.29.15.56.31.6.61-.93-.11-1.77-.58-2.63-1.02-.35-.18-.54-.45-.81-.7-.42-.39-.73-.93-.39-1.48.08-.13.19-.24.17-.39,0-.03.02-.06.02-.09.22-.03.16-.26.27-.51.45.39.07,1.21.46,1.16Z"/>
      <path class="cls-1" d="M6.32,16.9c.08.1.06.27.11.38l-2.1.85c-.27-.41-.57-.79-.75-1.24.51-.42,1.93-1.05,2.36-.8.16.1.11.49.38.81Z"/>
      <path class="cls-1" d="M3.79,18.4c-.28.24-.59.41-1,.67-.12-.58-.2-1.14-.13-1.7l.08-.08s.08-.03.11-.06c.16-.04.39-.17.52-.22l.42,1.39Z"/>
      <path class="cls-1" d="M9.9,24.09c.12.3.11.66-.09.92-.19-.08-.08-.1-.38-.68-.06-.13-.02-.36.07-.45.16.02.3.08.4.21Z"/>
      <path class="cls-1" d="M12.07,32.46c-.21.03.02-.81-.19-1.04.11.02.19.12.19.28v.76Z"/>
      <path class="cls-1" d="M11.79,31.43c-.09-.03-.16-.1-.19-.19.09.03.16.1.19.19Z"/>
      <path class="cls-1" d="M22.62,25.3c.35.11,2.09.17,2.21,0,.15.05.4,0,.53.08-.08.17,1.51,0,1.13.64-.43.72-.64,1.51-.94,2.29-.16.4-.5.73-.36,1.14l-.09.56c-.18.28-.16.68,0,.97l.08.72c-.34.28.44,1.68-.39,1.79-.22.03-.68,0-.79-.19l-.87-1.53c-.32.21-.16.54-.13.82.02.23.02,1.59.39,1.49.02.15-.01.32.1.45,0,.22.06.5.31.5.39,1.09,1.13,1.92,2.16,2.46,0,.37.16.71.3,1.09.45,1.22.86,2.43,1.53,3.54.27.44.53.82.7,1.32.26.78.8,1.29.48,1.66-1.39,1.57-3.58,1.58-5.49,1.15-.58-.13-1.12-.23-1.67-.49s-1.19,0-1.32.58c-.09.39.07.75-.07,1.15l-.84-.25-1.04-.41c-2.3-.92-3.7-4.29-2.05-3.6.53.22,1.05.15,1.63.19.8.04,1.71-.12,2.19-.81.22-.33-.02-.76-.21-1.03-.5-.67-1.6.05-3.5-1.24-.53-.36-.86-.76-.85-1.46l.05-6.91.21-1.66c.07-.57.44-.86.73-1.3l1.06-1.57c.05-.08.06-.19.16-.13.04.02.07.05.1.08-.08.42-.24.8-.37,1.26-.74,2.71-1.05,5.65-.25,8.39-.19-2.11-.37-4.05.07-6.1.28-1.6.61-3.17,1.28-4.6.15-.04,1.17-.28,1.13-.48.06,0,.11-.03.17-.03.16,0,.37-.04.39-.22.12,0,.24-.03.36-.04l.78-.08c.11-.01.2,0,.28-.05.03-.02.07-.07.02-.13.22.03.5-.08.71,0Z"/>
      <path class="cls-1" d="M18.76,25.56c-.2.39-.22.91-.54,1.25-.1.05-.28.06-.33.25s-.25.25-.37.38c-.45.5-.8,1.08-1.29,1.54-.59.57-.79,2.48-.89,3.29-.11.96-.27,1.87-.09,2.83.06.35-.03.68-.02,1.02l.06,2.82c.02.71.64,1.39,1.24,1.73.37.21.68.49,1.13.56.37.06.68.25,1.06.34s.85.16,1.05.55c.18.34-.16.7-.51.76-.51.08-1,.24-1.52.24-1.08,0-2.04-.57-2.43-.01-.13.18-.06.36-.02.58.15.76.5,1.37.95,1.98.24.33.5.54.81.81l.55.49c.31.27,3.86,1.81,4.49,1.92.34.06.67.24,1.02.27.96.09,1.88.25,2.79.54.37.12.75.44,1.16.41.17-.02,2.04-.38,1.82-.64.02,0,.05,0,.08,0,.1.02,1.17-.51.96-.56.09,0,.18-.09.26-.1l.14-.03c.06-.01.11-.08.07-.16.02,0,.05,0,.07,0,.04,0,.09,0,.14-.03.05-.03.07-.11.07-.17.03-.03.07-.06.09-.1.24-.03.35-.25.38-.48v-.08c.14,0,.23-.09.29-.2.32.29.44.85.18,1.26s-.77.58-1.23.55c-1.13-.07-1.4.73-1.84.91-1.33.54-2.72.86-4.1.98-.04-.06-.1-.1-.16-.11-.11-.02-.21.08-.15.18h-.17c.11-.46-1.56-.12-2.21-.62-.21-.16-.48-.36-.68-.53-.53-.47-.93-.94-1.66-1.11-.25-.06-.49-.29-.77-.34-.47-.08-.79-.39-1.14-.65s-.54-.56-.82-.89l-1.29-1.53c-.19-.23-.26-.54-.45-.77-.55-.67-.74-1.9-.2-2.35.15-.13.35-.14.56-.08.05.01.11-.01.16,0-.06.18,1.47.11,1.6.1.19-.02.61-.3.44-.51-.45-.58-1.1-.95-1.66-1.34,0-.04-.07-.07-.09-.1,0-.19-.12-.33-.3-.38-.02-.25-.31-.35-.37-.59-.26-1.15-.37-2.32-.52-3.53-.12-.98,0-3.3.17-4.27l.3-1.75c.14-.8.25-1.48.67-2.19.28-.48.58-1.72,1.71-2.18.42-.17.94-.41,1.34-.15Z"/>
      <path class="cls-1" d="M18.22,26.8c.04.21-.14.39-.18.57-.03-.03-.06-.06-.1-.08-.1-.06-.11.05-.16.13l-1.06,1.57c-.29.43-.65.72-.73,1.3l-.21,1.66-.05,6.91c0,.7.32,1.1.85,1.46,1.91,1.3,3,.58,3.5,1.24.19.26.43.7.21,1.03-.47.7-1.38.86-2.19.81-.57-.03-1.1.03-1.63-.19-1.65-.68-.26,2.69,2.05,3.6l1.04.41.84.25c.14-.4-.02-.76.07-1.15.13-.59.79-.83,1.32-.58s1.09.36,1.67.49c1.9.43,4.1.42,5.49-1.15.33-.37-.22-.88-.48-1.66-.17-.5-.44-.88-.7-1.32-.67-1.11-1.08-2.33-1.53-3.54-.14-.38-.29-.73-.3-1.09.11.06.27.03.36.15-.03.28.17.52.27.8.2.6,1.13,2.52,1.46,3.16.25.49.72.88.84,1.43.1.45.16.89.36,1.3.31.64,0,1.24-.6,1.51s-1.12.7-1.77.84c-1.5.3-1.44.15-2.73.21l-1.38.06c-.19,0-.59-.15-.7.12-.14.36.27.57.53.72,2.01,1.15,3.61.58,5.69.24.03.41-1.25.37-1.32.9-.02.18.16.23.29.33.51.4,1.05.32,1.62.2.22.26-1.65.63-1.82.64-.4.03-.79-.29-1.16-.41-.91-.29-1.83-.45-2.79-.54-.36-.03-.68-.21-1.02-.27-.63-.11-4.18-1.65-4.49-1.92l-.55-.49c-.31-.28-.57-.48-.81-.81-.45-.61-.8-1.22-.95-1.98-.04-.22-.11-.4.02-.58.39-.56,1.35,0,2.43.01.52,0,1.01-.16,1.52-.24.35-.05.69-.41.51-.76-.2-.39-.68-.46-1.05-.55s-.68-.29-1.06-.34c-.44-.07-.76-.35-1.13-.56-.6-.34-1.22-1.02-1.24-1.73l-.06-2.82c0-.34.09-.67.02-1.02-.18-.96-.02-1.87.09-2.83.1-.82.3-2.72.89-3.29.48-.47.83-1.04,1.29-1.54.12-.13.32-.2.37-.38s.23-.2.33-.25Z"/>
      <path class="cls-1" d="M15.3,42.45c-.21-.06-.41-.05-.56.08-.54.45-.34,1.69.2,2.35.19.23.26.55.45.77l1.29,1.53c.28.33.47.63.82.89s.68.57,1.14.65c.28.05.52.28.77.34.73.17,1.13.64,1.66,1.11.2.17.47.37.68.53.65.5,2.32.16,2.21.63-.68.04-1.35.11-2.08.11-1.76,0-3.53-.11-5.1-.77-.04-.3-.31-.46-.6-.61-1.04-.54-1.93-1.34-2.3-2.41,0-.19-.1-.38-.09-.57.48-.02.93.73,1.65.55.23-.06.4-.25.43-.41.07-.51-1.12-1.25-1.48-2.26-.22-.61-.32-2.65.39-2.76.18-.03.51.02.53.24Z"/>
      <path class="cls-1" d="M29.82,38.99c.44.83.92,1.64,1.62,2.33l2.13,2.12c.2.2.3.51.58.56.02.02.05.07.08.09.02.21.08.54-.12.68-.45.3-.73-.09-1.02-.36-.77-.7-1.56-1.31-2.24-2.11-.07-.09-.21-.08-.27-.1l-1.39-1.81c-.88-1.14-1.47-2.35-2.1-3.57.22,0,.3.22.5.41.18-.46-.18-.49-.35-1.7-.06-.41-.24-.77-.22-1.15.05.01.17.03.22.12.42.89.91,1.7,1.43,2.53s.55,1.28,1.16,1.99Z"/>
      <path class="cls-1" d="M26.59,37.67c.1.41.35.78.51,1.2.49,1.3,1.61,2.52,2.19,3.69-.49,1.43.77,2.09.23,2.91-.34.52-.87.87-1.41,1.14l-1.57.79c-.07.03-.1.1-.12.15-.15.33,1.34.23,1.57.2.26-.04.5-.15.7.02v.17c-.13-.01-.28.08-.4.1-2.08.34-3.69.91-5.69-.24-.26-.15-.67-.36-.53-.72.11-.28.5-.12.7-.12l1.38-.06c1.29-.06,1.23.1,2.73-.21.65-.13,1.18-.57,1.77-.84s.91-.88.6-1.51c-.2-.42-.26-.85-.36-1.3-.12-.55-.59-.94-.84-1.43-.33-.65-1.26-2.56-1.46-3.16-.09-.28-.29-.52-.27-.8l.28.04Z"/>
      <path class="cls-1" d="M27.29,37.93c-.06.08.03.09.08.1,0,.03.01.07,0,.1-.06.29.88,2.52,1.4,2.25.46.73,1.2,1.38,1.53,2.22.16.43-.08,2.35.53,4.11-.27,0-.51.21-.55.47-.06,0-.13.02-.19.04-.24.07-.6.06-.67.34l-.18.02c-.06-.07-.13-.06-.19-.04-.1.04-.21.11-.2.21l-.16.02c-.2-.16-.44-.05-.7-.02-.23.03-1.72.13-1.57-.2.02-.04.05-.11.12-.15l1.57-.79c.54-.27,1.07-.62,1.41-1.14.54-.83-.72-1.49-.23-2.91-.58-1.17-1.71-2.39-2.19-3.69-.16-.42-.4-.79-.51-1.2.25.04.61-.03.7.26Z"/>
      <path class="cls-1" d="M28.99,26.13c-.09.76-.97,1.47-1.04,2.57l-.09,1.43c-.04.63,0,1.28-.21,1.89-.25.77-.03,1.43.28,2.13l2.16,4.75c.02.08-.26.12-.28.1-.61-.71-.62-1.15-1.16-1.99s-1.02-1.64-1.43-2.53c-.04-.09-.16-.11-.22-.12,0-.06-.02-.11-.01-.17.05-.04.09-.1.07-.15-.03-.07-.11-.13-.17-.07l-.03-.43c0-.07.02-.22-.08-.23v-.34c0-.08-.01-.15,0-.23v-.62c.15-.03.08-.22.1-.32.09-.86.36-3.23.77-3.95.07-.12.11-.29.05-.37-.09-.13-.28-.11-.41-.1.22-.36.89-.76.48-.64-.54.15-1.3,1.34-1.32,1.4-.56-.43.95-2.3,1.31-2.62.03,0,.07-.02.09-.02.44.09.96.22,1.15.64Z"/>
      <path class="cls-1" d="M39.62,46.53c-.05-.21-1.27-.03-1.15-.52.13-.55,1.68-.81,2.14-1.25,1.76-1.67,1.3-1.61,1.07-4.27.84.62,1.23,2.46,1.16,3.58-.11,1.7-1.78,2.42-3.22,2.46Z"/>
      <path class="cls-1" d="M41.68,40.49c.22,2.66.68,2.6-1.07,4.27-.46.44-2.01.7-2.14,1.25-.12.49,1.11.31,1.15.52-.57.16-1.14.1-1.71.09,0-.05.05-.27-.06-.31-.47-.17-.84-.49-1.28-.69-.89-.41-1.63-.95-2.34-1.55-.02-.02-.06-.06-.08-.09-.02-.18-.27-.34-.23-.56.02-.12.28-.02.37.02l.72.33c.29.13-.02.48,2.49,1.02.62.13,1.15-.06,1.76-.11.71-.05,1.43-.21,1.7-.88.03-.07.11-.16.18-.18.09-.03.18-.02.23-.11.05-.09.06-.18.05-.28,0-.02,0-.06,0-.08.3-.12.35-.63.17-.89l-.02-.27c-.02-.21.01-.51-.24-.55.02-.06-.03-.13-.03-.19.05-.43-.27-.71-.27-1.15.3-.08.44.24.64.39Z"/>
      <path class="cls-1" d="M26.87,31.78c-.1-.06-.18.05-.18.16,0,.05.08.11.1.16v.62c-.08-.06-.15.02-.18.07-.03.06,0,.1.05.14s.08.06.13.02v.34s-.11.1-.07.15c.04.08.1.13.17.08l.03.43c0,.08-.01.21.1.22,0,.06.02.11.01.17-.03.38.16.75.22,1.15.17,1.21.53,1.24.35,1.7-.2-.19-.28-.4-.5-.41-.77-1.48-1.25-3.03-1.16-4.82.06-1.19.12-2.41.67-3.45.28.12.49-.72.49-.89.02-.1.16-.2.21-.28.13,0,.32-.03.41.1.06.08.01.26-.05.37-.41.72-.67,3.1-.77,3.95Z"/>
      <path class="cls-1" d="M34.22,44.07c.71.61,1.46,1.14,2.34,1.55.44.21.8.53,1.28.69.11.04.07.25.06.31-2.26-.03-4.35-.99-5.95-2.63-.57-.59-.94-1.23-1.4-1.82.06.02.2.02.27.1.68.8,1.47,1.4,2.24,2.11.29.27.57.66,1.02.36.21-.14.14-.47.12-.68Z"/>
      <path class="cls-1" d="M31.32,47.46c-.11.06-.15.18-.17.3v.08c-.25.02-.33.28-.39.48-.03.03-.06.07-.09.1-.07,0-.15,0-.2.07-.03.03-.03.08-.01.13-.02,0-.05,0-.07,0-.07,0-.15-.02-.2.05-.03.03-.02.09,0,.14-.08.02-.17.11-.26.1-.15-.01-1.08.44-.96.56-.02,0-.06-.01-.08,0-.57.12-1.11.2-1.62-.2-.12-.09-.31-.14-.29-.33.07-.53,1.35-.49,1.32-.9.12-.02.27-.11.39-.1.59.05,1.18-.31,1.74-.57.05-.02.02-.16.04-.16h.09c.17-.04.31-.15.42-.27.15.16.28.33.36.53Z"/>
      <path class="cls-1" d="M23.89,34.42c.38-.17.65.78.94.43s.6-.56.94-.77c.06,1.18.71,2.25,1.37,3.47-1.62-.34-2.77-1.64-3.24-3.13Z"/>
      <path class="cls-1" d="M27.74,25.5c-.36.32-1.87,2.19-1.31,2.62-.62,1.54-.85,3.19-.76,4.84-.28.29-.5-1.35-.49-1.27l-.08-.72c.14-.28.14-.69,0-.97l.09-.56c.05-.3.51-.41.61-.69.25-.72.3-1.49.71-2.14.24-.39.73-1.27,1.24-1.11Z"/>
      <path class="cls-1" d="M44.25,43.03c-.28.07-.8.51-1.13.48-.08-.79-.32-1.47-.62-2.23.24-.25.85-.41,1.14-.12.49.51.62,1.23.61,1.87Z"/>
      <path class="cls-1" d="M25.67,32.96c.01.17.06.39.07.56-.59.1-.35.63-1.39.73-.43-.29-.69-1.26-.92-1.47-.39-.36-.07,1.08-.04,1.3-.37.1-.37-1.26-.39-1.49-.03-.28-.19-.61.13-.82l.87,1.53c.11.2.58.22.79.19.83-.11.06-1.51.39-1.79,0-.08.21,1.55.49,1.27Z"/>
      <path class="cls-1" d="M25.74,33.52l.03.57c-.34.21-.66.43-.94.77s-.56-.6-.94-.43c-.02-.09.02-.21-.09-.27l-.12.38h-.2c-.11-.14-.08-.31-.1-.46-.02-.22-.35-1.67.04-1.3.23.21.49,1.19.92,1.47,1.04-.1.8-.62,1.39-.73Z"/>
      <path class="cls-1" d="M44.25,43.03c0,.37.1.66-.13.95-.31.4-.7.72-1.18.93l.18-1.4c.33.03.85-.41,1.13-.48Z"/>
      <path class="cls-1" d="M28.78,40.37c-.52.26-1.46-1.96-1.4-2.25.57.68.93,1.51,1.4,2.25Z"/>
      <path class="cls-1" d="M26.58,28.52c.14-.26.22-.71.49-.89,0,.17-.2,1.01-.49.89Z"/>
      <path class="cls-1" d="M30.83,46.7s0,.06,0,.09c-.13.11-.28.21-.29.39h-.09c-.06.02-.12-.02-.17-.01.04-.27.28-.47.55-.47Z"/>
      <path class="cls-1" d="M23.68,34.53c.16.12.06.34.11.49-.25,0-.31-.29-.31-.5h.2Z"/>
      <path class="cls-1" d="M31.43,47.56c-.05.11-.15.19-.27.2.02-.12.06-.24.17-.3.02.03.07.07.11.1Z"/>
      <path class="cls-1" d="M24.44,51.26c-.04.12-.21.06-.31.07-.06-.1.04-.2.15-.18.05.01.11.05.16.11Z"/>
      <path class="cls-1" d="M30.96,46.92c-.12.12-.25.23-.42.26,0-.18.16-.29.29-.39.05.04.09.09.13.13Z"/>
      <path class="cls-1" d="M27.37,38.03c-.05,0-.14-.02-.08-.1.01.04.08.06.08.1Z"/>
      <path class="cls-1" d="M34.05,37c-.61.27.77.98.45,2.17-.11.41-.71,1.02-1.2.92-.65-.14-1.34-.48-1.8-.9-.26-.23-.29-.68-.66-.71,0-.05,0-.1-.02-.15-.06-.25-.06-.65-.35-.7-.03-.11,0-.23-.03-.34,0-.04.02-.1,0-.15-.03-.06-.09-.14-.17-.09v-.15c-.02-.09-.31-1.69-.49-1.62-.01-.07-.07-.12-.08-.19l-.02-.14c0-.06-.09-.1-.16-.07,0-.19-.01-.38-.1-.54-.02-.04,0-.09-.03-.14-.03-.05-.08-.14-.16-.08,0-.06-.06-.11-.09-.16-.01-.12-.05-.28-.19-.29-.24-.64-.59-1.3-.59-1.98v-1.97c.04-.18.2-.45.1-.67-.04-.08.04-.2.02-.28.33-.49.2-1.05.78-1.67.13-.14.29-.24.36-.4-.02.2.22.29.29.47l1.35,3.38c.88,2.21,1.69,4.39,2.78,6.45Z"/>
      <path class="cls-1" d="M15.17,24.06c.19.19.51.13.75.29.52,1.93-1.46,1.04-1.75,5.29l-.09,1.31-.1,1.41c-.05.78,0,1.5-.11,2.28s.56,3.36.76,4.29c.07.31.2.6.46.7.05.23.34.34.37.59.02.19.07.36.3.38.02.03.09.06.09.1,0,.44.85.85.61,1.29-.26.48-1.02.27-.99.46-.05-.01-.11.01-.16,0-.01-.22-.35-.27-.53-.24-.71.11-.61,2.15-.39,2.76.36,1.01,1.55,1.74,1.48,2.26-.02.16-.2.35-.43.41-.72.18-1.17-.57-1.65-.55.02-.29-.08-.62-.21-.9-.9-1.85.42-3.61.3-4.77-.29-2.69-.84-5.26-1.32-7.9-.17-.94-.3-1.81-.25-2.76.09-1.61.46-3.11,1.04-4.61.03-.09.06-.17.02-.21-.05-.05-.07-.08-.12-.02l.57-.81c.15-.22.41-.4.44-.67.19-.32.66-.24.94-.38Z"/>
      <path class="cls-1" d="M6.81,17.92c0,.14,0,.32-.19.4-1.97.95-2.37,2.02-2.27,4.33.07,1.6.81,3.14,2,4.2.26.23.64.33.93.49l1.4.79c.71.41,1.54.71,2.37.91.82-.19,1.29-1.95,1.51-2.61.09-.25.32-.48.29-.75.1,0,.18-.07.18-.16,0-.1.01-.24-.09-.25,0-.13,0-.26.08-.36.12.07.21-.08.29-.1.76-.11.32-.2.94-.37-.02.27-.28.45-.44.67l-.57.81c-1.02,1.45-1.08,3.43-1.28,5.27l-3.1-1.39c0-.13-.09-.23-.23-.3l-1.05-.54c-.44-.23-.95-.32-1.3-.69-.33-.35-.64-.77-1.08-.89-.12-.03-.2-.12-.26-.21-.03-.21-.04-.5-.28-.56.03-.13-.05-.27-.11-.37-.02-.03,0-.09-.02-.14-.03-.06-.09-.1-.16-.07l-.1-.35c-.02-.07.02-.15-.02-.23-.03-.05-.1-.08-.17-.08l-.08-.08c-.04-.28-.13-.56-.2-.83l-.73-2.68c-.08-.29-.04-.61-.22-.82.05-.63.06-1.25.72-1.67.13-.08.22-.3.32-.4.61-.59,1.49-.96,2.34-1.17.31-.08.46.1.6.21Z"/>
      <path class="cls-1" d="M26.88,25.2c.09.47-1.58-.12-1.52.17-.13-.08-.38-.03-.53-.08-.34-.12-2.11-.17-2.21,0-.22-.07-.49.04-.71,0s-1.22.02-1.08.26c-.12.01-.24.04-.36.04-.07,0-.19-.02-.28.03-.06.03-.11.1-.12.19-.06,0-.11.02-.17.03-.12-.15-.59.2-1.03.13.11-.5.49-.87.52-1.48-.24.36-.46.7-.63,1.05-.4-.26-.92-.02-1.34.15-1.13.46-1.43,1.7-1.71,2.18-.41.71-.53,1.4-.67,2.19l-.3,1.75c-.17.97-.28,3.28-.17,4.27.15,1.21.26,2.38.52,3.53-.27-.1-.4-.39-.46-.7-.2-.93-.86-3.53-.76-4.29s.05-1.5.11-2.28l.1-1.41.09-1.31c.29-4.25,2.27-3.36,1.75-5.29-.24-.16-.56-.1-.75-.29.58-.3,1.22-.3,1.91-.21,1.48.19,2.92.14,4.4.24,1.67.12,3.24.47,4.8,1,.2.07.42.07.59.11Z"/>
      <path class="cls-1" d="M29.45,26.53c-.44.14-1.36,1.97-.97,2.25.03.08-.05.2-.02.28-.13.02-.26.12-.24.22.04.18.02.37.15.45v1.97c-.23.13-.12.42-.18.66-.38,1.48.86,2.59,1.2,3.89.61,2.37,1.87,4.08,3.72,5.63.24.21.5.34.73.59.2.22.63.29.7,0,.2.1.42.11.64.11,0,.1-.13.24-.08.3.11.12.33.07.45.07,0,.07,0,.15.02.19.11.18.5-.1.73-.1-.04.17-.11.35-.21.58-.06.09,2.79.39,2.49.41l1.53-.11c.3-.02.56-.13.84-.13-.28.67-1,.84-1.7.88-.61.04-1.14.24-1.76.11-2.51-.55-2.2-.89-2.49-1.02l-.72-.33c-.09-.04-.35-.13-.37-.02-.04.22.21.39.23.56-.28-.05-.37-.36-.58-.56l-2.13-2.12c-.69-.69-1.18-1.49-1.62-2.33.03.02.31-.02.28-.1l-2.16-4.75c-.32-.7-.54-1.36-.28-2.13.2-.61.17-1.26.21-1.89l.09-1.43c.07-1.09.95-1.8,1.04-2.57.21.04.39.22.46.41Z"/>
      <path class="cls-1" d="M35.28,39.34c.11.57.24,1.28-.31,1.71-.19.15-.5.16-.77.23.29.5.62.14.88.03.45-.2.81-.58.76-1.11.51-.02.46.34.71.35l.05.8c0,.05-.03.11-.01.16-.05-.03-.09-.02-.14,0-.04.02-.07.06-.05.14.01.04.06.08.12.06-.01.24-.22.4-.21.65-.29.16-.41.55-.76.58-.12,0-.34.04-.45-.07-.06-.06.07-.2.08-.3l.11-.09c.14,0,.29-.09.35-.18.09-.13.16-.34.05-.46-.08-.09-.27.04-.34.07h-.25c0-.14-.15-.12-.25-.13-.1,0-.22.08-.16.2-.09,0-.17.08-.24.11-.35.05-.49-.32-.74-.53-.72-.58-1.34-1.21-1.98-1.88-.36-.38-.83-.7-.88-1.22.37.03.4.48.66.71.46.42,1.15.76,1.8.9.49.1,1.09-.51,1.2-.92.32-1.19-1.07-1.9-.45-2.17l1.23,2.33Z"/>
      <path class="cls-1" d="M24.7,22.86c.01.07-.09.08-.18.07-1.83-.05-2.11,1.1-3.93.07-.56-.32-1.19-.11-1.25-1.49,1.77-.21,4.11.05,5.37,1.34Z"/>
      <path class="cls-1" d="M18.4,21.61c.04.22.34.3.41.53.31.96,1.16.79,1.18,1.55-1.06-.07-2.13.12-3.23-.18.21-.53.17-1.21.51-1.64.23-.3.81-.21,1.13-.27Z"/>
      <path class="cls-1" d="M19.34,21.51c.06,1.38.69,1.17,1.25,1.49,1.83,1.03,2.1-.12,3.93-.07.09,0,.19,0,.18-.07.06.06.1.09.11.14-.11.25-2.38.45-2.19.88l-2.63-.18c-.02-.76-.87-.6-1.18-1.55-.08-.23-.37-.31-.41-.53.36-.06.65-.09.93-.1Z"/>
      <path class="cls-1" d="M22.62,23.88c-.18-.43,2.08-.63,2.19-.88.72.32,1.14,1.06,1.53,1.7-1.33-.24-2.49-.74-3.73-.82Z"/>
      <path class="cls-1" d="M27.83,25.48s-.07.03-.09.02c-.51-.17-.99.71-1.24,1.11-.4.65-.46,1.42-.71,2.14-.1.28-.55.39-.61.69-.14-.41.2-.74.36-1.14.31-.78.51-1.56.94-2.29.38-.63-1.21-.47-1.13-.64-.06-.29,1.61.3,1.52-.17.32.07.68.07.95.28Z"/>
      <path class="cls-1" d="M36.61,41.36l-.05-.8c-.03-.51-.39-1.6-.89-1.28-.39-.46-.69-1.01-.98-1.62,1.4.25,2.26,2.2,2.08,3.41,0,.06.03.15,0,.21s-.07.15-.16.09Z"/>
      <path class="cls-1" d="M35.77,39.65c.11.17.06.37.08.56.05.53-.31.91-.76,1.11-.05-.08-.08-.17-.11-.26.54-.43.42-1.14.31-1.71l.48.31Z"/>
      <path class="cls-1" d="M37.04,41.69c0,.19-.07.38-.09.57-.27.2-.42.52-.64.78-.23,0-.63.28-.73.1-.03-.04-.03-.12-.02-.19.35-.03.47-.43.76-.58.83-.46.19-.31.73-.67Z"/>
      <path class="cls-1" d="M29.62,26.71c-.06.17-.22.26-.36.4-.58.62-.45,1.18-.78,1.67-.39-.28.53-2.11.97-2.25.05.04.18.09.17.17Z"/>
      <path class="cls-1" d="M36.56,40.56c-.26,0-.2-.36-.71-.35-.02-.19.03-.39-.08-.56-.06-.1-.01-.28-.09-.37.5-.31.85.77.89,1.28Z"/>
      <path class="cls-1" d="M37.07,41.44c.01-.09-.04-.26.08-.3.05.04.11.1.12.15.02.12-.1.21-.2.15Z"/>
      <path class="cls-1" d="M36.6,41.51c.02.08-.07.14-.07.21-.06.02-.11-.02-.12-.06-.02-.08,0-.12.05-.14.05-.03.1-.04.14,0Z"/>
      <path class="cls-1" d="M13.3,24.82c-.08.01-.18.16-.29.1v-.11s.29.02.29.02Z"/>
      <path class="cls-1" d="M7.27,18.68c.48.87.88,2.31,1.22,3.29-.12-.05-.18.06-.17.16,0,.09.04.18.12.23v.26c-.02.07-.03.22.07.23v.34c-.17.16-.08.4-.09.6-.02,1.11-.24,1.33-.22,1.66-.05-.05-.09-.02-.12.02-.05.07-.05.14-.05.2v.16c-.06-.03-.1-.01-.13.02-.06.05-.04.13-.06.19s-.09.12-.07.19c-.03.01-.07,0-.09.01-.3.19-.51-.04-.78-.19-.57-.32-1.09-.63-1.43-1.24-.2-.36-.48-.79-.52-1.23-.07-.69-.05-1.38,0-2.04.07-.99,1.17-2.93,2.34-2.87Z"/>
      <path class="cls-1" d="M7.08,18.31c-1.79.87-2.81,2.59-2.51,4.69.14.97.41,1.93,1.12,2.65.44.45.9.92,1.51,1.13.25.09.47-.34.47-.52.02-.02.07,0,.09-.01.03.11.06.22.07.38.21.06.35-.07.5-.17-.02.14-.12.27-.13.46,0,.14.49.45.79.35.14-.05.28-.23.26-.45l-.09-.96c.24.06.11.42.24.61.11.17.32-.05.41-.12.03.05.11.1.09.17l-.25.5c-.08.15-.04.3.02.45.1.23,1.08.45,1.36.18.22-.21.38-.51.65-.63,1-.44.23-.28.87-.56-.22.66-.69,2.42-1.51,2.61-.83-.2-1.65-.51-2.37-.91l-1.4-.79c-.29-.16-.67-.27-.93-.49-1.2-1.06-1.94-2.59-2-4.2-.1-2.32.31-3.38,2.27-4.33.18-.09.19-.26.19-.4.15.12.23.2.27.39Z"/>
      <path class="cls-1" d="M3.87,18.88c-.1.1-.19.32-.32.4-.66.42-.67,1.04-.72,1.67-.04.52-.08,1.03.21,1.61.01.03.58,2.2.74,1.9.07.27.16.55.2.83-.18.14.05.31.07.49.15,1.02.59,1.41-.08,1.38-.86-2.19-1.41-4.51-1.92-6.85.12-.45,1.53-1.59,1.82-1.43Z"/>
      <path class="cls-1" d="M7.08,18.31c.02.1.14.28.19.37-1.17-.06-2.27,1.88-2.34,2.87-.05.67-.07,1.36,0,2.04.04.44.32.87.52,1.23.34.61.86.91,1.43,1.24.27.15.48.38.78.19,0,.18-.22.61-.47.52-.61-.21-1.07-.68-1.51-1.13-.7-.72-.98-1.68-1.12-2.65-.3-2.1.73-3.82,2.51-4.69Z"/>
      <path class="cls-1" d="M9.33,24.33c.04.37.11.74.2,1.13.08.09.17.1.25.1,0,.06.03.13.02.19-.02.04-.08.08-.05.14.02.04.07.06.07.08.01.12-.01.25,0,.37-.09.07-.3.29-.41.12-.13-.2,0-.55-.24-.61-.01-.13,0-.26-.02-.45,0-.05.01-.11,0-.15-.02-.05-.09-.08-.14-.05-.07.04-.12.13-.07.19-.33.25-.3.72-.62,1.06-.15.1-.29.23-.5.17-.02-.15-.04-.27-.07-.38-.02-.07.05-.14.07-.19.07.01.16,0,.18-.06.02-.06,0-.11,0-.15v-.16c.09.05.17-.01.19-.07.02-.05,0-.11,0-.15-.02-.33.21-.55.22-1.66.17.06.19-.16.18-.26-.01-.13.02-.29-.09-.35v-.34s.12-.09.08-.15c-.05-.07-.1-.14-.17-.08v-.26s.19-.18.19-.18c.57,1.5.34,1.04.3,2.82l.43-.68Z"/>
      <path class="cls-1" d="M4.05,25.37c0,.12.04.31.19.31l.1.35c.02.06-.02.15.05.19.04.02.09.02.13.02.06.1.14.25.11.37-.06.25.03.47.28.56.06.09.14.18.26.21.02.15.13.27.26.39l.62.6c.13.12.21.24.17.39l-.84-.31c-.58-.21-1.19-.68-1.42-1.29.67.03.23-.36.08-1.38-.03-.18-.26-.35-.07-.49l.08.08Z"/>
      <path class="cls-1" d="M8.85,29.81l-1.87-.68c-.29-.11-.5-.27-.75-.36.05-.15-.04-.27-.17-.39l-.62-.6c-.13-.13-.25-.24-.26-.39.44.13.76.54,1.08.89.35.38.87.47,1.3.69l1.05.54c.14.07.23.17.23.3Z"/>
      <path class="cls-1" d="M3.58,16.88c.18.46.48.84.75,1.24-.17.07-.33.27-.54.27l-.42-1.39c.06-.02.17-.08.21-.12Z"/>
      <path class="cls-1" d="M9.81,25.01l-.02.55c-.08,0-.17-.01-.25-.1-.09-.4-.17-.76-.2-1.13.03,0,.06,0,.1,0,.29.58.19.6.38.68Z"/>
      <path class="cls-1" d="M8.48,21.97c.03.06.09.14.12.21l-.18.18c-.08-.05-.11-.14-.12-.23,0-.1.05-.21.17-.16Z"/>
      <path class="cls-1" d="M41.57,41.99l.02.27c-.17.26-.07.6-.17.89,0,.02,0,.05,0,.08-.17.05-.27.21-.28.38-.07.02-.15.12-.18.18-.28,0-.54.11-.84.13l-1.53.11c.3-.02-2.55-.32-2.49-.41.1-.24.18-.42.21-.58.22-.26.37-.58.64-.78.29.69.22.55.86,1.14,1.22.42,2.01.5,3.04-.26.38-.28.39-.77.47-1.17.08,0,.16,0,.24.02Z"/>
      <path class="cls-1" d="M41.03,40.1c0,.43.33.72.27,1.15.04.52-.66-1.39-.56-1.23.1.01.22-.02.28.08Z"/>
      <path class="cls-1" d="M41.57,41.99c-.08-.02-.16-.02-.24-.02.03-.17-.04-.36,0-.54.25.04.22.35.24.55Z"/>
      <path class="cls-1" d="M11.69,27c-.27.12-.43.42-.65.63-.28.27-1.26.05-1.36-.18-.06-.15-.09-.3-.02-.45l.25-.5c.11,0,.21.07.31.16.7.66,1.26.12,1.47.33Z"/>
      <path class="cls-1" d="M12.84,25.69c-.03-.15-.03-.31.09-.41.1.01.09.16.09.25,0,.09-.08.15-.18.16Z"/>
      <path class="cls-1" d="M9.83,25.96s-.06-.05-.07-.08c-.02-.05.03-.09.05-.14.06-.03.07.02.09.07.02.06.02.18-.07.15Z"/>
      <path class="cls-1" d="M18.87,25.98c-.03.12-.1.23-.1.35-.66,1.43-1,3-1.28,4.6-.43,2.04-.25,3.98-.07,6.1-.81-2.74-.5-5.68.25-8.39.13-.47.29-.84.37-1.26.03-.18.22-.36.18-.57.32-.34.35-.86.54-1.25.18-.35.39-.69.63-1.05-.03.6-.41.98-.52,1.48Z"/>
      <path class="cls-1" d="M24.83,25.29c-.12.18-1.86.12-2.21,0,.1-.17,1.88-.13,2.21,0Z"/>
      <path class="cls-1" d="M19.91,25.85c.04.2-.98.44-1.13.48,0-.13.08-.23.1-.35.44.07.91-.28,1.03-.13Z"/>
      <path class="cls-1" d="M21.9,25.3c.05.05.01.1-.02.13-.08.06-.17.04-.28.05l-.78.08c-.14-.24.85-.29,1.08-.26Z"/>
      <path class="cls-1" d="M25.1,30.97c-.16-.29-.18-.69,0-.97.14.28.14.69,0,.97Z"/>
      <path class="cls-1" d="M20.47,25.6c-.03.19-.23.22-.39.22,0-.09.06-.16.12-.19.09-.05.2-.03.28-.03Z"/>
      <path class="cls-1" d="M15.47,42.45c-.03-.19.73.02.99-.46.24-.44-.61-.86-.61-1.29.56.4,1.21.76,1.66,1.34.16.21-.26.49-.44.51-.13.02-1.66.08-1.6-.1Z"/>
      <path class="cls-1" d="M29.92,48.9c.21.05-.86.58-.96.56-.11-.13.82-.58.96-.56Z"/>
      <path class="cls-1" d="M31.14,47.83c-.03.23-.14.45-.38.48.06-.2.14-.46.38-.48Z"/>
      <path class="cls-1" d="M15.76,40.6c-.22-.02-.28-.19-.3-.38.17.05.3.2.3.38Z"/>
      <path class="cls-1" d="M30.39,48.61c.04.08-.01.15-.07.16l-.14.03s-.02-.1,0-.14c.05-.06.14-.06.2-.05Z"/>
      <path class="cls-1" d="M30.67,48.41c0,.06-.02.14-.07.17-.05.02-.1.03-.14.03-.02-.05-.02-.1.01-.13.05-.07.13-.08.2-.07Z"/>
      <path class="cls-1" d="M30.28,47.17c.06,0,.12.03.17.03-.02,0,0,.14-.04.16-.55.26-1.15.63-1.74.57v-.17s.17-.02.17-.02c.15-.02.34,0,.39-.17l.18-.02c.25-.03.54-.11.67-.34.06-.02.13-.03.19-.04Z"/>
      <path class="cls-1" d="M30.09,47.21c-.12.23-.42.31-.67.34.06-.28.42-.27.67-.34Z"/>
      <path class="cls-1" d="M29.24,47.57c-.05.17-.24.15-.39.17,0-.1.11-.17.2-.21.05-.02.13-.03.19.04Z"/>
      <path class="cls-1" d="M26.87,31.78c-.01.1.06.29-.08.32-.01-.05-.1-.11-.1-.16,0-.11.08-.22.18-.16Z"/>
      <path class="cls-1" d="M26.99,34.18c-.11,0-.09-.14-.1-.22.06-.06.14,0,.17.07.02.04-.02.11-.07.15Z"/>
      <path class="cls-1" d="M26.87,33.52c-.06.06-.12,0-.17-.08-.03-.05.07-.1.08-.15.1,0,.08.15.08.23Z"/>
      <path class="cls-1" d="M26.77,32.73c0,.08,0,.15,0,.23-.05.05-.09.02-.13-.02s-.08-.08-.05-.14c.03-.05.11-.13.17-.07Z"/>
      <path class="cls-1" d="M41.43,43.15c.1-.29,0-.63.17-.89.18.26.13.77-.17.89Z"/>
      <path class="cls-1" d="M41.14,43.61c.01-.17.11-.33.28-.38,0,.09,0,.18-.05.28-.05.08-.14.08-.23.11Z"/>
      <path class="cls-1" d="M28.96,33.68c.02.06-.03.15.01.23.03.06.1.08.18.06.04.05.08.1.09.16.01.07,0,.15.06.21.03.03.09.03.13.01.09.16.11.36.1.54,0,.06-.03.15.04.2.04.02.1,0,.14,0,0,.06.07.12.08.19-.27-.23.41,2.03.48,1.62v.15c.01.07,0,.14.06.21.03.04.07.07.12.02.02.11,0,.23.03.34.06.24.09.63.35.7.01.05.01.1.02.15.04.52.51.85.88,1.22.64.67,1.26,1.3,1.98,1.88.25.2.39.57.74.53,0,.13.04.25.1.36-.08.3-.5.22-.7,0-.22-.24-.48-.38-.73-.59-1.84-1.56-3.11-3.27-3.72-5.63-.34-1.3-1.58-2.41-1.2-3.89.06-.23-.05-.53.17-.66,0,.67.35,1.34.59,1.98Z"/>
      <path class="cls-1" d="M30.27,36.92c-.07.41-.75-1.86-.48-1.62.18-.07.47,1.53.48,1.62Z"/>
      <path class="cls-1" d="M28.46,29.07c.1.22-.06.49-.09.67-.13-.07-.11-.27-.15-.45-.02-.1.1-.2.24-.22Z"/>
      <path class="cls-1" d="M30.83,38.33c-.26-.07-.29-.46-.35-.7.29.05.29.45.35.7Z"/>
      <path class="cls-1" d="M29.15,33.98c-.08.02-.15,0-.18-.06-.04-.08.01-.17-.01-.23.14,0,.18.17.19.29Z"/>
      <path class="cls-1" d="M30.45,37.3c-.05.05-.09.02-.12-.02-.05-.07-.05-.15-.05-.21.07-.05.14.03.17.09.02.05,0,.1,0,.15Z"/>
      <path class="cls-1" d="M29.71,35.11s-.1.01-.14,0c-.07-.05-.04-.14-.04-.2.07-.03.15.01.16.07l.02.14Z"/>
      <path class="cls-1" d="M29.43,34.36s-.1.02-.13-.01c-.07-.06-.05-.14-.06-.21.08-.05.13.04.16.08.03.04,0,.1.03.14Z"/>
      <path class="cls-1" d="M3.77,24.46c-.15.31-.72-1.87-.74-1.9-.29-.57-.25-1.09-.21-1.61.18.21.14.53.22.82l.73,2.68Z"/>
      <path class="cls-1" d="M4.92,27.17c-.25-.09-.34-.31-.28-.56.24.05.25.35.28.56Z"/>
      <path class="cls-1" d="M4.24,25.68c-.15,0-.18-.19-.19-.31.07,0,.15.03.17.08.04.08,0,.16.02.23Z"/>
      <path class="cls-1" d="M4.53,26.24s-.1,0-.13-.02c-.07-.04-.03-.14-.05-.19.07-.03.13.01.16.07.02.04,0,.1.02.14Z"/>
      <path class="cls-1" d="M35.35,41.93c.1.19.06.39-.06.56l-.11.09c-.22,0-.44-.01-.64-.11-.07-.11-.1-.23-.1-.36.08-.03.16-.11.24-.11.14,0,.29.03.41-.08h.25Z"/>
      <path class="cls-1" d="M34.98,41.05c.03.09.06.18.11.26-.26.11-.59.46-.88-.03.27-.08.58-.08.77-.23Z"/>
      <path class="cls-1" d="M35.3,42.49c.12-.17.16-.37.06-.56.08-.04.26-.17.34-.07.11.12.04.33-.05.46-.06.09-.2.17-.35.18Z"/>
      <path class="cls-1" d="M35.1,41.92c-.11.1-.27.07-.41.08-.06-.12.06-.2.16-.2.1,0,.25-.01.25.12Z"/>
      <path class="cls-1" d="M8.41,23.8c0-.21-.09-.44.09-.6.12.06.08.22.09.35,0,.1,0,.31-.18.26Z"/>
      <path class="cls-1" d="M8,25.84s.02.09,0,.15c-.02.07-.11.07-.18.06.02-.06,0-.14.06-.19.03-.03.07-.05.12-.02Z"/>
      <path class="cls-1" d="M8.19,25.46s.02.1,0,.15c-.02.06-.1.13-.17.07,0-.06,0-.13.05-.2.03-.04.07-.07.12-.02Z"/>
      <path class="cls-1" d="M8.5,22.86c-.1,0-.09-.16-.08-.23.07-.06.12,0,.17.08.04.06-.08.1-.08.15Z"/>
      <path class="cls-1" d="M9.15,25.4c.01.19,0,.32.02.45l.09.96c.02.22-.13.4-.26.45-.31.11-.8-.2-.79-.35.01-.18.11-.32.13-.46.32-.34.29-.81.62-1.06.11,0,.16.05.21.01Z"/>
      <path class="cls-1" d="M9.15,25.4s-.09,0-.21-.01c-.06-.06,0-.15.07-.19.05-.03.12,0,.14.05.02.04,0,.11,0,.15Z"/>
    </g>
  </g>
</svg>