<?xml version="1.0" encoding="UTF-8"?>
<svg id="Layer_1" data-name="Layer 1" xmlns="http://www.w3.org/2000/svg" viewBox="0 0 1030.22 742.7">
  <defs>
    <style>
      .cls-1 {
        fill: none;
        stroke: #231f20;
        stroke-miterlimit: 5.07;
        stroke-width: 3px;
      }
    </style>
  </defs>
  <g>
    <path class="cls-1" d="M38.07,22.43v68.57h26.95v15.88H17.5V22.43h20.57Z"/>
    <path class="cls-1" d="M72.95,21.7c0-6.25,4.93-11.19,12.27-11.19s12.15,4.93,12.15,11.19-4.93,11.07-12.15,11.07-12.27-4.93-12.27-11.07ZM74.88,39.75h20.57v67.13h-20.57V39.75Z"/>
    <path class="cls-1" d="M137.67,107.84c-17.93,0-29.96-9.98-30.92-22.98h20.33c.48,4.69,4.69,7.82,10.35,7.82,5.29,0,8.06-2.41,8.06-5.41,0-10.83-36.57-3.01-36.57-27.67,0-11.43,9.74-20.81,27.31-20.81s26.95,9.62,28.27,22.86h-19.01c-.6-4.57-4.09-7.58-9.86-7.58-4.81,0-7.46,1.92-7.46,5.17,0,10.71,36.33,3.13,36.69,28.15,0,11.67-10.35,20.45-27.19,20.45Z"/>
    <path class="cls-1" d="M180.74,56.83h-8.18v-17.08h8.18v-16.36h20.57v16.36h13.47v17.08h-13.47v26.95c0,3.97,1.68,5.65,6.25,5.65h7.34v17.44h-10.47c-13.95,0-23.7-5.89-23.7-23.34v-26.7Z"/>
    <path class="cls-1" d="M256.17,107.84c-19.73,0-33.92-13.23-33.92-34.53s13.95-34.53,33.92-34.53,33.44,12.99,33.44,33.44c0,1.92-.12,3.97-.36,6.01h-46.55c.72,8.78,6.14,12.87,12.75,12.87,5.77,0,9.02-2.89,10.7-6.5h21.89c-3.25,13.11-15.16,23.22-31.88,23.22ZM242.81,66.82h25.74c0-7.34-5.77-11.55-12.63-11.55s-11.91,4.09-13.11,11.55Z"/>
    <path class="cls-1" d="M346.75,70.43c0-9.14-5.05-14.19-12.87-14.19s-12.87,5.05-12.87,14.19v36.45h-20.57V39.75h20.57v8.9c4.09-5.65,11.31-9.62,20.33-9.62,15.52,0,25.86,10.59,25.86,28.63v39.22h-20.45v-36.45Z"/>
    <path class="cls-1" d="M397.76,107.84c-7.34,0-12.27-4.93-12.27-11.07s4.93-11.31,12.27-11.31,12.15,4.93,12.15,11.31-4.93,11.07-12.15,11.07ZM386.33,19.42h22.25l-2.4,57.62h-17.44l-2.41-57.62Z"/>
  </g>
  <g>
    <path class="cls-1" d="M17.5,226.05h24.3l23.7,58.46,23.46-58.46h24.18v84.45h-20.57v-50.64l-18.89,50.64h-16.6l-19.01-50.77v50.77h-20.57v-84.45Z"/>
    <path class="cls-1" d="M153.43,242.41c9.98,0,17.08,4.57,20.69,10.47v-9.5h20.57v67.13h-20.57v-9.5c-3.73,5.89-10.83,10.47-20.81,10.47-16.36,0-29.47-13.47-29.47-34.64s13.11-34.41,29.59-34.41ZM159.45,260.34c-7.7,0-14.67,5.77-14.67,16.48s6.98,16.72,14.67,16.72,14.68-5.89,14.68-16.6-6.86-16.6-14.68-16.6Z"/>
    <path class="cls-1" d="M209.61,221.48h20.57v49.2l20.33-27.31h25.38l-27.91,33.68,28.15,33.44h-25.5l-20.45-28.15v28.15h-20.57v-89.02Z"/>
    <path class="cls-1" d="M313.79,311.46c-19.73,0-33.92-13.23-33.92-34.53s13.95-34.53,33.92-34.53,33.44,12.99,33.44,33.44c0,1.93-.12,3.97-.36,6.02h-46.55c.72,8.78,6.14,12.87,12.75,12.87,5.77,0,9.02-2.89,10.7-6.5h21.89c-3.25,13.11-15.16,23.22-31.88,23.22ZM300.44,270.44h25.74c0-7.34-5.77-11.55-12.63-11.55s-11.91,4.09-13.11,11.55Z"/>
    <path class="cls-1" d="M409.07,242.41c9.98,0,17.08,4.57,20.69,10.47v-9.5h20.57v67.13h-20.57v-9.5c-3.73,5.89-10.83,10.47-20.81,10.47-16.36,0-29.47-13.47-29.47-34.64s13.11-34.41,29.59-34.41ZM415.08,260.34c-7.7,0-14.67,5.77-14.67,16.48s6.98,16.72,14.67,16.72,14.68-5.89,14.68-16.6-6.86-16.6-14.68-16.6Z"/>
    <path class="cls-1" d="M490.75,221.48h20.57v89.02h-20.57v-89.02Z"/>
    <path class="cls-1" d="M524.31,225.33c0-6.25,4.93-11.19,12.27-11.19s12.15,4.93,12.15,11.19-4.93,11.07-12.15,11.07-12.27-4.93-12.27-11.07ZM526.24,243.37h20.57v67.13h-20.57v-67.13Z"/>
    <path class="cls-1" d="M608.04,274.05c0-9.14-5.05-14.19-12.87-14.19s-12.87,5.05-12.87,14.19v36.45h-20.57v-67.13h20.57v8.9c4.09-5.65,11.31-9.62,20.33-9.62,15.52,0,25.86,10.59,25.86,28.63v39.22h-20.45v-36.45Z"/>
    <path class="cls-1" d="M672.64,311.46c-19.73,0-33.92-13.23-33.92-34.53s13.95-34.53,33.92-34.53,33.44,12.99,33.44,33.44c0,1.93-.12,3.97-.36,6.02h-46.56c.72,8.78,6.14,12.87,12.75,12.87,5.77,0,9.02-2.89,10.71-6.5h21.89c-3.25,13.11-15.16,23.22-31.88,23.22ZM659.29,270.44h25.74c0-7.34-5.77-11.55-12.63-11.55s-11.91,4.09-13.11,11.55Z"/>
    <path class="cls-1" d="M726.54,311.46c-7.34,0-12.27-4.93-12.27-11.07s4.93-11.31,12.27-11.31,12.15,4.93,12.15,11.31-4.93,11.07-12.15,11.07Z"/>
  </g>
  <g>
    <path class="cls-1" d="M57.43,514.97c-23.94,0-43.43-17.92-43.43-43.31s19.49-43.19,43.43-43.19,43.19,17.8,43.19,43.19-19.25,43.31-43.19,43.31ZM57.43,496.2c13.47,0,22.25-9.75,22.25-24.54s-8.78-24.54-22.25-24.54-22.38,9.5-22.38,24.54,8.66,24.54,22.38,24.54Z"/>
    <path class="cls-1" d="M153.31,446.04c16.48,0,29.59,13.23,29.59,34.41s-13.11,34.64-29.59,34.64c-9.86,0-16.96-4.69-20.69-10.35v41.38h-20.57v-99.13h20.57v9.5c3.73-5.89,10.83-10.46,20.69-10.46ZM147.18,463.96c-7.7,0-14.68,5.89-14.68,16.6s6.98,16.6,14.68,16.6,14.8-6.02,14.8-16.72-6.98-16.48-14.8-16.48Z"/>
    <path class="cls-1" d="M223.57,515.09c-19.73,0-33.92-13.23-33.92-34.53s13.95-34.52,33.92-34.52,33.44,12.99,33.44,33.44c0,1.92-.12,3.97-.36,6.02h-46.55c.72,8.78,6.14,12.87,12.75,12.87,5.77,0,9.02-2.89,10.7-6.49h21.89c-3.25,13.11-15.16,23.22-31.88,23.22ZM210.21,474.07h25.74c0-7.34-5.77-11.55-12.63-11.55s-11.91,4.09-13.11,11.55Z"/>
    <path class="cls-1" d="M314.15,477.68c0-9.14-5.05-14.19-12.87-14.19s-12.87,5.05-12.87,14.19v36.45h-20.57v-67.13h20.57v8.9c4.09-5.66,11.31-9.63,20.33-9.63,15.52,0,25.86,10.59,25.86,28.63v39.21h-20.45v-36.45Z"/>
    <path class="cls-1" d="M420.74,447h22.26l-42.1,99.01h-22.13l15.4-34.17-27.31-64.84h22.98l15.52,41.99,15.4-41.99Z"/>
    <path class="cls-1" d="M481,515.09c-19.73,0-34.64-13.23-34.64-34.53s15.28-34.52,34.89-34.52,34.89,13.23,34.89,34.52-15.4,34.53-35.13,34.53ZM481,497.28c7.34,0,14.19-5.41,14.19-16.72s-6.74-16.72-13.95-16.72-13.95,5.29-13.95,16.72,6.25,16.72,13.71,16.72Z"/>
    <path class="cls-1" d="M593.36,514.12h-20.57v-9.14c-4.09,5.78-11.31,9.86-20.33,9.86-15.52,0-25.99-10.7-25.99-28.63v-39.22h20.45v36.45c0,9.14,5.17,14.19,12.87,14.19s12.99-5.05,12.99-14.19v-36.45h20.57v67.13Z"/>
    <path class="cls-1" d="M628.73,514.12h-20.57v-67.13h20.57v11.19c4.69-7.1,12.03-11.91,21.05-11.91v21.77h-5.65c-9.74,0-15.4,3.37-15.4,14.92v31.16Z"/>
    <path class="cls-1" d="M726.41,446.04c16.6,0,29.59,13.23,29.59,34.41s-13.11,34.64-29.59,34.64c-9.86,0-16.96-4.45-20.69-10.35v9.38h-20.57v-89.02h20.57v31.4c3.73-6.02,11.07-10.46,20.69-10.46ZM720.28,463.96c-7.7,0-14.67,5.89-14.67,16.6s6.98,16.6,14.67,16.6,14.8-6.02,14.8-16.72-6.98-16.48-14.8-16.48Z"/>
    <path class="cls-1" d="M797.39,515.09c-19.73,0-34.64-13.23-34.64-34.53s15.28-34.52,34.89-34.52,34.89,13.23,34.89,34.52-15.4,34.53-35.13,34.53ZM797.39,497.28c7.34,0,14.2-5.41,14.2-16.72s-6.74-16.72-13.96-16.72-13.95,5.29-13.95,16.72,6.25,16.72,13.71,16.72Z"/>
    <path class="cls-1" d="M874.02,515.09c-19.73,0-34.64-13.23-34.64-34.53s15.28-34.52,34.89-34.52,34.89,13.23,34.89,34.52-15.4,34.53-35.13,34.53ZM874.02,497.28c7.34,0,14.2-5.41,14.2-16.72s-6.74-16.72-13.96-16.72-13.95,5.29-13.95,16.72,6.25,16.72,13.71,16.72Z"/>
    <path class="cls-1" d="M920.09,425.11h20.57v49.2l20.33-27.31h25.38l-27.91,33.68,28.15,33.44h-25.5l-20.45-28.15v28.15h-20.57v-89.02Z"/>
    <path class="cls-1" d="M1004.06,515.09c-7.34,0-12.27-4.93-12.27-11.07s4.93-11.31,12.27-11.31,12.15,4.93,12.15,11.31-4.93,11.07-12.15,11.07Z"/>
  </g>
  <g>
    <path class="cls-1" d="M84.02,709.93l18.53,22.25h-24.9l-10.83-14.56c-3.01.6-6.14.96-9.38.96-23.94,0-43.43-17.93-43.43-43.31s19.49-43.18,43.43-43.18,43.19,17.8,43.19,43.18c0,14.8-6.5,26.95-16.6,34.65ZM57.43,699.83c13.47,0,22.25-9.74,22.25-24.54s-8.78-24.54-22.25-24.54-22.38,9.5-22.38,24.54,8.66,24.54,22.38,24.54Z"/>
    <path class="cls-1" d="M178.58,717.75h-20.57v-9.14c-4.09,5.77-11.31,9.86-20.33,9.86-15.52,0-25.98-10.71-25.98-28.63v-39.21h20.45v36.45c0,9.14,5.17,14.19,12.87,14.19s12.99-5.05,12.99-14.19v-36.45h20.57v67.13Z"/>
    <path class="cls-1" d="M191.45,632.58c0-6.25,4.93-11.18,12.27-11.18s12.15,4.93,12.15,11.18-4.93,11.07-12.15,11.07-12.27-4.93-12.27-11.07ZM193.37,650.63h20.57v67.13h-20.57v-67.13Z"/>
    <path class="cls-1" d="M258.7,718.71c-19.73,0-33.92-13.23-33.92-34.52s13.95-34.53,33.92-34.53,33.44,12.99,33.44,33.45c0,1.92-.12,3.97-.36,6.01h-46.55c.72,8.78,6.14,12.87,12.75,12.87,5.77,0,9.02-2.89,10.7-6.5h21.89c-3.25,13.11-15.16,23.22-31.88,23.22ZM245.34,677.69h25.74c0-7.34-5.77-11.55-12.63-11.55s-11.91,4.09-13.11,11.55Z"/>
    <path class="cls-1" d="M306.21,667.71h-8.18v-17.08h8.18v-16.36h20.57v16.36h13.47v17.08h-13.47v26.94c0,3.97,1.68,5.66,6.25,5.66h7.34v17.44h-10.47c-13.95,0-23.7-5.89-23.7-23.34v-26.7Z"/>
    <path class="cls-1" d="M368.05,718.71c-7.34,0-12.27-4.93-12.27-11.07s4.93-11.31,12.27-11.31,12.15,4.93,12.15,11.31-4.93,11.07-12.15,11.07ZM356.62,630.29h22.25l-2.41,57.62h-17.44l-2.4-57.62Z"/>
  </g>
</svg>