<?xml version="1.0" encoding="UTF-8"?>
<svg id="Layer_1" data-name="Layer 1" xmlns="http://www.w3.org/2000/svg" xmlns:xlink="http://www.w3.org/1999/xlink" viewBox="0 0 898.95 468.35">
  <defs>
    <style>
      .cls-1 {
        fill: #fff;
      }

      .cls-2 {
        clip-path: url(#clippath-1);
      }

      .cls-3 {
        clip-path: url(#clippath-2);
      }

      .cls-4 {
        clip-path: url(#clippath);
      }
    </style>
    <clipPath id="clippath">
      <path class="cls-1" d="M95.28,160.5l94.32,131,105.64-45.46c-21.41-2.51-37.65-14.5-37.65-28.93,0-5.88,2.71-11.35,7.35-15.95-.03-.03-.05-.05-.07-.09l-48.16-20.99,22.65-10.13c-14.29-17.55-29.67-37.8-36.88-46.5l-107.2,37.05Z"/>
    </clipPath>
    <clipPath id="clippath-1">
      <path class="cls-1" d="M271.76,216.18c0,11.03,12.57,19.97,28.08,19.97s28.08-8.94,28.08-19.97-12.57-19.97-28.08-19.97-28.08,8.94-28.08,19.97"/>
    </clipPath>
    <clipPath id="clippath-2">
      <path class="cls-1" d="M54.72,147.64l125.36,177.02,4.83-2.15c13.14-5.84,128.46-57.17,133.22-59.68,3.61-1.91,5.65-1.39,7.52,1.91,3.7,6.54,2.57,18.95-3.59,23.01l-149.44,68.11L60.21,196.96h-15.86l123.96,175.02,159.45-72.68.66-.35c13.15-7.95,15.32-28.33,8.4-40.54-5.3-9.36-15-12.09-24.73-6.95-3.65,1.89-76.54,34.42-127.61,57.15l-109.11-154.03,130.93-43.3,47.58,61.28-14.85,7.19,44.44,16.21-5.56-34.85-12.16,5.74-55.1-70.46-155.94,51.26Z"/>
    </clipPath>
  </defs>
  <g>
    <path class="cls-1" d="M95.28,160.5l94.32,131,105.64-45.46c-21.41-2.51-37.65-14.5-37.65-28.93,0-5.88,2.71-11.35,7.35-15.95-.03-.03-.05-.05-.07-.09l-48.16-20.99,22.65-10.13c-14.29-17.55-29.67-37.8-36.88-46.5l-107.2,37.05Z"/>
    <g class="cls-4">
      <rect class="cls-1" x="70.46" y="77.91" width="249.6" height="259.12" transform="translate(-84.93 259.09) rotate(-57.18)"/>
    </g>
  </g>
  <g>
    <path class="cls-1" d="M271.76,216.18c0,11.03,12.57,19.97,28.08,19.97s28.08-8.94,28.08-19.97-12.57-19.97-28.08-19.97-28.08,8.94-28.08,19.97"/>
    <g class="cls-2">
      <rect class="cls-1" x="266.5" y="181.83" width="66.69" height="68.7" transform="translate(-58.48 307) rotate(-50.01)"/>
    </g>
  </g>
  <g>
    <path class="cls-1" d="M54.72,147.64l125.36,177.02,4.83-2.15c13.14-5.84,128.46-57.17,133.22-59.68,3.61-1.91,5.65-1.39,7.52,1.91,3.7,6.54,2.57,18.95-3.59,23.01l-149.44,68.11L60.21,196.96h-15.86l123.96,175.02,159.45-72.68.66-.35c13.15-7.95,15.32-28.33,8.4-40.54-5.3-9.36-15-12.09-24.73-6.95-3.65,1.89-76.54,34.42-127.61,57.15l-109.11-154.03,130.93-43.3,47.58,61.28-14.85,7.19,44.44,16.21-5.56-34.85-12.16,5.74-55.1-70.46-155.94,51.26Z"/>
    <g class="cls-3">
      <rect class="cls-1" x="13.3" y="46.32" width="361.5" height="375.7" transform="translate(-92.44 336.24) rotate(-69.96)"/>
    </g>
  </g>
  <path class="cls-1" d="M440.08,101.42c-5.58-3.54-11.66-5.3-18.24-5.3h-43c-2.73,0-5,.9-6.79,2.7-1.8,1.8-2.7,4.07-2.7,6.79v111.31c0,2.73.84,5,2.51,6.79,1.68,1.8,3.82,2.7,6.42,2.7s4.93-.9,6.61-2.7c1.68-1.8,2.51-4.06,2.51-6.79v-39.83h34.43c6.58,0,12.66-1.83,18.24-5.49,5.59-3.66,10.05-8.56,13.4-14.7,3.35-6.14,5.03-12.94,5.03-20.38s-1.68-14.58-5.03-20.66c-3.35-6.08-7.82-10.89-13.4-14.43M437.2,147.68c-1.68,3.48-3.85,6.27-6.52,8.38-2.67,2.11-5.62,3.16-8.84,3.16h-34.43v-45.23h34.43c3.23,0,6.17,1.03,8.84,3.07,2.66,2.05,4.84,4.75,6.52,8.1,1.68,3.35,2.51,7.14,2.51,11.36,0,3.97-.84,7.69-2.51,11.17"/>
  <path class="cls-1" d="M594.38,95.93c-3.1,0-5.65,1.43-7.63,4.28l-44.28,65.82-43.2-65.82c-.87-1.24-2.11-2.26-3.72-3.07-1.61-.81-3.16-1.21-4.65-1.21-2.61,0-4.87.96-6.79,2.89-1.93,1.92-2.89,4.13-2.89,6.61v111.49c0,2.73.84,5,2.51,6.79,1.68,1.8,3.82,2.7,6.42,2.7s4.93-.9,6.61-2.7c1.68-1.8,2.51-4.06,2.51-6.79v-85.18l34.99,54.47c.87,1.12,2.01,2.08,3.44,2.89,1.43.81,2.82,1.21,4.19,1.21s2.76-.4,4.19-1.21c1.42-.81,2.57-1.77,3.44-2.89l34.99-53.29v84c0,2.73.9,5,2.7,6.79,1.8,1.8,4.12,2.7,6.98,2.7s5.18-.9,6.98-2.7c1.8-1.8,2.7-4.06,2.7-6.79v-111.49c0-2.73-.96-4.99-2.88-6.79-1.92-1.8-4.13-2.7-6.61-2.7"/>
  <path class="cls-1" d="M687.82,101.7c-.75-1.98-1.92-3.54-3.54-4.65-1.61-1.12-3.41-1.68-5.4-1.68-1.99-.12-3.82.37-5.49,1.49-1.68,1.12-2.89,2.73-3.63,4.84l-47.28,114.29c-.37,1.12-.56,2.11-.56,2.98,0,2.36.68,4.31,2.05,5.86,1.36,1.55,3.47,2.33,6.33,2.33,1.86,0,3.54-.56,5.02-1.67,1.49-1.12,2.61-2.67,3.35-4.65l11.03-26.43h57.09l11.17,26.43c.75,1.86,1.89,3.38,3.45,4.56,1.55,1.18,3.26,1.77,5.12,1.77,2.23,0,4.25-.84,6.05-2.51,1.8-1.68,2.7-3.88,2.7-6.61,0-1.24-.25-2.48-.75-3.72l-46.72-112.61ZM657.18,176.53l20.9-50.08,21.17,50.08h-42.07Z"/>
  <path class="cls-1" d="M853.85,214.31l-46.72-112.61c-.75-1.98-1.92-3.54-3.54-4.65-1.61-1.12-3.41-1.68-5.4-1.68-1.99-.12-3.82.37-5.49,1.49-1.68,1.12-2.89,2.73-3.63,4.84l-47.28,114.29c-.37,1.12-.56,2.11-.56,2.98,0,2.36.68,4.31,2.05,5.86,1.36,1.55,3.47,2.33,6.33,2.33,1.86,0,3.54-.56,5.02-1.67,1.49-1.12,2.61-2.67,3.35-4.65l11.03-26.43h57.09l11.17,26.43c.75,1.86,1.89,3.38,3.45,4.56,1.55,1.18,3.26,1.77,5.12,1.77,2.23,0,4.25-.84,6.05-2.51,1.8-1.68,2.7-3.88,2.7-6.61,0-1.24-.25-2.48-.75-3.72M776.49,176.53l20.9-50.08,21.17,50.08h-42.07Z"/>
  <path class="cls-1" d="M391.71,303.56h-19.36v-14.37h17.73c.4,0,.7-.11.92-.33s.33-.51.33-.87v-.81c0-.4-.11-.7-.33-.92s-.52-.33-.92-.33h-17.73v-13.83h18.92c.4,0,.7-.11.92-.33.22-.22.33-.51.33-.87v-.81c0-.4-.11-.7-.33-.92s-.52-.33-.92-.33h-21.15c-.36,0-.65.11-.87.33-.22.22-.33.52-.33.92v35.51c0,.36.11.65.33.87.22.22.51.33.87.33h21.58c.4,0,.7-.11.92-.33.22-.22.33-.51.33-.87v-.81c0-.4-.11-.7-.33-.92s-.52-.33-.92-.33"/>
  <path class="cls-1" d="M427.9,275.5c-.92-2.19-2.47-3.84-4.64-4.96-2.17-1.12-5.17-1.68-9-1.68h-11.55c-.36,0-.65.11-.87.33-.22.22-.33.52-.33.92v35.52c0,.36.11.65.33.87.22.22.51.33.87.33h11.82c3.72,0,6.65-.53,8.79-1.6,2.13-1.07,3.65-2.68,4.55-4.85.9-2.17,1.39-4.91,1.46-8.24.04-1.63.05-3.06.05-4.31s-.02-2.68-.05-4.31c-.04-3.14-.51-5.81-1.44-8M425.98,289c0,.81-.02,1.76-.05,2.85-.04,2.82-.43,5.09-1.17,6.81-.74,1.72-1.95,2.96-3.63,3.74-1.68.78-3.97,1.17-6.86,1.17h-9.33v-31.45h9.06c4.34,0,7.39.95,9.16,2.85,1.77,1.9,2.69,4.84,2.77,8.81.03,1.08.05,2.02.05,2.82v2.41Z"/>
  <path class="cls-1" d="M465.13,268.86h-.98c-.36,0-.66.11-.89.33-.24.22-.35.52-.35.92v22.18c0,4.05-.95,7.03-2.85,8.95-1.9,1.92-4.46,2.87-7.67,2.87s-5.83-.96-7.73-2.87c-1.9-1.92-2.85-4.9-2.85-8.95v-22.18c0-.4-.11-.7-.33-.92-.22-.22-.53-.33-.92-.33h-.98c-.36,0-.65.11-.87.33-.22.22-.33.52-.33.92v22.01c0,3.51.56,6.38,1.68,8.62,1.12,2.24,2.72,3.9,4.8,4.99,2.08,1.08,4.58,1.63,7.51,1.63s5.48-.54,7.54-1.63c2.06-1.08,3.64-2.75,4.74-4.99,1.1-2.24,1.65-5.12,1.65-8.62v-22.01c0-.4-.11-.7-.33-.92-.22-.22-.51-.33-.87-.33"/>
  <path class="cls-1" d="M481.69,274.36c1.93-1.86,4.55-2.79,7.84-2.79,2.89,0,5.29.6,7.18,1.79,1.9,1.19,3.19,3.4,3.88,6.61.07.43.22.73.43.89.22.16.47.24.76.24h1.08c.33,0,.61-.1.84-.3.23-.2.33-.46.3-.79-.07-1.3-.39-2.63-.95-3.99-.56-1.35-1.41-2.62-2.55-3.79-1.14-1.17-2.61-2.12-4.42-2.85-1.81-.72-3.99-1.08-6.56-1.08-3.29,0-5.97.63-8.05,1.9-2.08,1.26-3.62,3.01-4.63,5.23-1.01,2.22-1.57,4.74-1.68,7.56-.04,1.55-.05,3.18-.05,4.88s.02,3.29.05,4.77c.11,2.82.67,5.33,1.68,7.54,1.01,2.2,2.56,3.95,4.63,5.23,2.08,1.28,4.76,1.92,8.05,1.92,2.57,0,4.75-.36,6.56-1.08,1.81-.72,3.28-1.67,4.42-2.85,1.14-1.17,1.99-2.44,2.55-3.8.56-1.36.88-2.68.95-3.98.04-.33-.06-.59-.3-.79-.24-.2-.52-.3-.84-.3h-1.08c-.29,0-.54.08-.76.24-.22.16-.36.46-.43.89-.69,3.22-1.98,5.42-3.88,6.61-1.9,1.19-4.29,1.79-7.18,1.79-3.29,0-5.9-.93-7.84-2.79-1.93-1.86-2.97-4.83-3.12-8.92-.11-3.11-.11-6.14,0-9.11.14-4.08,1.18-7.06,3.12-8.92"/>
  <path class="cls-1" d="M527.48,269.95c-.14-.36-.33-.63-.57-.81-.24-.18-.57-.27-1-.27h-1.84c-.43,0-.77.09-1,.27-.23.18-.43.45-.57.81l-13.72,35.19c-.07.22-.11.42-.11.6,0,.29.11.54.33.76.22.22.47.33.76.33h1.08c.36,0,.64-.1.84-.3s.32-.37.35-.51l3.36-8.68h19.2l3.36,8.68c.07.14.2.32.38.51.18.2.45.3.81.3h1.08c.29,0,.54-.11.76-.33.22-.22.33-.47.33-.76,0-.18-.04-.38-.11-.6l-13.72-35.19ZM516.69,294.07l8.3-21.36,8.3,21.36h-16.59Z"/>
  <path class="cls-1" d="M570.58,268.86h-24.83c-.36,0-.65.11-.87.33-.22.22-.33.52-.33.92v.81c0,.36.11.65.33.87.22.22.51.33.87.33h10.74v33.51c0,.36.11.65.33.87s.51.33.87.33h.98c.4,0,.7-.11.92-.33.22-.22.33-.51.33-.87v-33.51h10.68c.4,0,.7-.11.92-.33.22-.22.33-.51.33-.87v-.81c0-.4-.11-.7-.33-.92-.22-.22-.52-.33-.92-.33"/>
  <path class="cls-1" d="M581.1,268.86h-1.03c-.36,0-.65.11-.87.33-.22.22-.33.51-.33.87v35.57c0,.36.11.65.33.87s.51.33.87.33h1.03c.36,0,.65-.11.87-.33.22-.22.33-.51.33-.87v-35.57c0-.36-.11-.65-.33-.87-.22-.22-.51-.33-.87-.33"/>
  <path class="cls-1" d="M618.22,274.91c-1.21-2.22-2.87-3.88-4.99-4.96-2.11-1.08-4.58-1.63-7.4-1.63s-5.29.54-7.4,1.63c-2.11,1.08-3.77,2.74-4.96,4.96-1.19,2.22-1.84,5.01-1.95,8.38-.04,1.63-.05,3.14-.05,4.55s.02,2.93.05,4.55c.11,3.4.72,6.21,1.84,8.43,1.12,2.22,2.73,3.87,4.82,4.93,2.1,1.07,4.64,1.6,7.65,1.6s5.55-.53,7.64-1.6c2.1-1.07,3.71-2.71,4.85-4.93,1.14-2.22,1.74-5.03,1.82-8.43.07-1.63.11-3.14.11-4.55s-.04-2.93-.11-4.55c-.07-3.36-.71-6.15-1.92-8.38M616.73,292.12c-.15,4.23-1.22,7.28-3.23,9.16-2.01,1.88-4.56,2.82-7.67,2.82s-5.62-.94-7.65-2.82c-2.02-1.88-3.11-4.93-3.25-9.16-.04-1.63-.05-3.05-.05-4.28s.02-2.66.05-4.28c.11-2.82.64-5.11,1.6-6.89.96-1.77,2.24-3.06,3.85-3.88,1.61-.81,3.42-1.22,5.45-1.22s3.89.41,5.5,1.22c1.61.81,2.89,2.11,3.85,3.88.96,1.77,1.47,4.07,1.55,6.89.07,1.63.11,3.05.11,4.28s-.04,2.66-.11,4.28"/>
  <path class="cls-1" d="M655,268.86h-.98c-.36,0-.65.11-.87.33-.22.22-.33.52-.33.92v29.98l-20.01-30.58c-.04-.07-.14-.2-.33-.38-.18-.18-.45-.27-.81-.27h-1.14c-.36,0-.65.11-.87.33-.22.22-.33.52-.33.92v35.51c0,.36.11.65.33.87.22.22.51.33.87.33h.98c.4,0,.71-.11.92-.33.22-.22.33-.51.33-.87v-29.93l19.95,30.47c.07.07.19.2.35.38.16.18.42.27.79.27h1.19c.36,0,.65-.12.87-.35.22-.24.33-.53.33-.9v-35.46c0-.4-.11-.7-.33-.92-.22-.22-.52-.33-.92-.33"/>
  <path class="cls-1" d="M707.81,286.7h-11.6c-.36,0-.65.11-.87.33-.22.22-.33.52-.33.92v.76c0,.36.11.66.33.89.22.23.51.35.87.35h9.43v2.77c0,2.6-.49,4.74-1.46,6.42-.98,1.68-2.31,2.93-4.01,3.74-1.7.81-3.61,1.22-5.75,1.22-3.22,0-5.83-.88-7.83-2.66-2.01-1.77-3.08-4.68-3.23-8.73-.11-3.25-.11-6.51,0-9.76.14-4.08,1.22-7,3.23-8.76,2.01-1.75,4.62-2.63,7.83-2.63,2.17,0,3.97.33,5.39,1,1.43.67,2.57,1.52,3.42,2.55.85,1.03,1.45,2.11,1.82,3.23.14.4.29.68.43.84.14.16.38.24.7.24h1.19c.36,0,.65-.1.87-.3.22-.2.31-.46.27-.79-.04-.76-.33-1.7-.87-2.82-.54-1.12-1.37-2.23-2.49-3.34-1.12-1.1-2.57-2.02-4.34-2.76-1.77-.74-3.9-1.11-6.4-1.11-3.07,0-5.68.61-7.81,1.82-2.13,1.21-3.75,2.89-4.85,5.04-1.1,2.15-1.71,4.66-1.82,7.51-.04,1.63-.06,3.34-.06,5.15s.02,3.52.06,5.15c.11,2.82.71,5.31,1.82,7.48,1.1,2.17,2.71,3.86,4.83,5.07,2.11,1.21,4.72,1.82,7.83,1.82s5.76-.61,7.94-1.84c2.19-1.23,3.85-2.94,4.99-5.15,1.14-2.2,1.71-4.75,1.71-7.64v-4.77c0-.4-.11-.7-.33-.92-.22-.22-.52-.33-.92-.33"/>
  <path class="cls-1" d="M736.01,290.28c2.57-.61,4.57-1.79,6.02-3.52,1.45-1.73,2.17-4.05,2.17-6.94,0-3.69-1.13-6.43-3.39-8.24-2.26-1.81-5.29-2.71-9.08-2.71h-12.63c-.36,0-.65.11-.87.33-.22.22-.33.52-.33.92v35.51c0,.36.11.65.33.87.22.22.51.33.87.33h.98c.4,0,.7-.11.92-.33.22-.22.33-.51.33-.87v-14.86h11.17l8.62,14.58c.22.36.47.7.76,1,.29.31.72.46,1.3.46h.65c.29,0,.54-.11.76-.33.22-.22.33-.47.33-.76,0-.18-.05-.38-.16-.6l-8.73-14.86ZM731.45,287.51h-10.14v-15.4h10.14c3.14,0,5.48.64,7.02,1.92,1.54,1.28,2.31,3.21,2.31,5.78s-.77,4.49-2.31,5.77c-1.54,1.28-3.88,1.92-7.02,1.92"/>
  <path class="cls-1" d="M778.33,274.91c-1.21-2.22-2.87-3.88-4.99-4.96-2.11-1.08-4.58-1.63-7.4-1.63s-5.29.54-7.4,1.63c-2.11,1.08-3.77,2.74-4.96,4.96-1.19,2.22-1.84,5.01-1.95,8.38-.04,1.63-.05,3.14-.05,4.55s.02,2.93.05,4.55c.11,3.4.72,6.21,1.84,8.43,1.12,2.22,2.73,3.87,4.82,4.93,2.1,1.07,4.64,1.6,7.65,1.6s5.55-.53,7.64-1.6c2.1-1.07,3.71-2.71,4.85-4.93,1.14-2.22,1.74-5.03,1.82-8.43.07-1.63.11-3.14.11-4.55s-.04-2.93-.11-4.55c-.07-3.36-.71-6.15-1.92-8.38M776.84,292.12c-.15,4.23-1.22,7.28-3.23,9.16-2.01,1.88-4.56,2.82-7.67,2.82s-5.62-.94-7.65-2.82c-2.02-1.88-3.11-4.93-3.25-9.16-.04-1.63-.05-3.05-.05-4.28s.02-2.66.05-4.28c.11-2.82.64-5.11,1.6-6.89.96-1.77,2.24-3.06,3.85-3.88,1.61-.81,3.42-1.22,5.45-1.22s3.89.41,5.5,1.22c1.61.81,2.89,2.11,3.85,3.88.96,1.77,1.47,4.07,1.55,6.89.07,1.63.11,3.05.11,4.28s-.04,2.66-.11,4.28"/>
  <path class="cls-1" d="M815.88,268.86h-.98c-.36,0-.66.11-.89.33-.24.22-.35.52-.35.92v22.18c0,4.05-.95,7.03-2.85,8.95-1.9,1.92-4.46,2.87-7.67,2.87s-5.83-.96-7.73-2.87c-1.9-1.92-2.85-4.9-2.85-8.95v-22.18c0-.4-.11-.7-.33-.92-.22-.22-.53-.33-.92-.33h-.98c-.36,0-.65.11-.87.33-.22.22-.33.52-.33.92v22.01c0,3.51.56,6.38,1.68,8.62,1.12,2.24,2.72,3.9,4.8,4.99,2.08,1.08,4.58,1.63,7.51,1.63s5.48-.54,7.54-1.63c2.06-1.08,3.64-2.75,4.74-4.99,1.1-2.24,1.65-5.12,1.65-8.62v-22.01c0-.4-.11-.7-.33-.92-.22-.22-.51-.33-.87-.33"/>
  <path class="cls-1" d="M852.72,273.9c-1.03-1.66-2.48-2.92-4.34-3.77-1.86-.85-4.06-1.27-6.59-1.27h-13.18c-.36,0-.65.11-.87.33-.22.22-.33.52-.33.92v35.52c0,.36.11.65.33.87.22.22.51.33.87.33h.98c.4,0,.7-.11.92-.33.22-.22.33-.51.33-.87v-14.31h10.95c2.53,0,4.72-.42,6.59-1.27,1.86-.85,3.31-2.1,4.34-3.77,1.03-1.66,1.54-3.72,1.54-6.18s-.52-4.52-1.54-6.18M848.54,285.99c-1.54,1.37-3.88,2.06-7.02,2.06h-10.68v-15.94h10.68c3.14,0,5.48.69,7.02,2.06,1.54,1.37,2.31,3.34,2.31,5.91s-.77,4.54-2.31,5.91"/>
</svg>