<?xml version="1.0" encoding="UTF-8"?>
<svg id="Layer_1" data-name="Layer 1" xmlns="http://www.w3.org/2000/svg" viewBox="0 0 348.94 295.26">
  <defs>
    <style>
      .cls-1 {
        fill: #7ac143;
        opacity: .69;
      }
    </style>
  </defs>
  <path class="cls-1" d="M322.8,2.48l-6.71-2.48L84.43,9.32l.34,32.33v6.81h-11.23L0,77.39v1.28s.34,8.43,1.19,9.45,1.19,3.49,4.34,3.66,9.7-1.28,11.74-2.21c0,0,4.34,2.38,5.53,2.81s9.96.85,14.81-2.55c0,0,7.06,2.78,10.81,2.84h6.55l7.49-3.01-1.36,1.53v8.34l-2.21,132.6s14.13,3.06,25.36,21.45l3.91,9.7s3.23-8.34,2.38-10.04c0,0,3.23-.34,4.6,9.19l-.34,5.62,1.53-2.38s.51,3.91-.17,6.3l6.3,2.55,51.74,4.77,76.09,11.4,49.7,4.6,6.13-21.96,22.98-6.64-8.68-16.34-10.21-15.32,3.57-27.57,29.96-15.32,25.19-7.15V40.96l-2.55-.34.09-1.62-27.57.68-.17-5.62,2.66-.7,1.42-30.89Z"/>
</svg>