<?xml version="1.0" encoding="UTF-8"?>
<svg id="Layer_1" xmlns="http://www.w3.org/2000/svg" version="1.1" viewBox="0 0 267.1 192.64">
  <!-- Generator: Adobe Illustrator 30.1.0, SVG Export Plug-In . SVG Version: 2.1.1 Build 136)  -->
  <defs>
    <style>
      .st0 {
        fill: lime;
        opacity: .5;
      }
    </style>
  </defs>
  <path class="st0" d="M14.87,175.45l-.47-161.4s-.35-3.42,3.89-3.53h230.79s3.3-1.06,3.53,2.71,0,165.4,0,165.4c0,0,.68,3.89-3.39,3.62s-59.91,0-59.91,0c0,0-10-4.62-17.23-5.02-.12,0-.24-.01-.36-.02l-.62-1.41s-3.45-3-15.29-2.92c-11.84.09-19.35-3.18-41.35,3,0,0-8.48,2.39-15.02,5.92l-81.73.44s-3.09.35-2.92-2.56l.06-4.24Z"/>
</svg>