<?xml version="1.0" encoding="UTF-8"?>
<svg id="Layer_1" data-name="Layer 1" xmlns="http://www.w3.org/2000/svg" viewBox="0 0 1080 498.72">
  <defs>
    <style>
      .cls-1 {
        fill: #ee5825;
      }

      .cls-2 {
        fill: #231f20;
      }

      .cls-3 {
        fill: #d2232a;
      }

      .cls-4 {
        fill: #fff;
      }

      .cls-5 {
        fill: #bb4f9d;
      }

      .cls-6 {
        fill: #72bf44;
      }

      .cls-7 {
        fill: none;
        stroke: #72bf44;
        stroke-miterlimit: 10;
      }
    </style>
  </defs>
  <rect class="cls-6" x="43.05" y="23.79" width="1011.47" height="457.3"/>
  <path class="cls-4" d="M857.23,370.43h182.64v98.27h-182.64v-98.27ZM674.58,370.43h182.64v98.27h-182.64v-98.27ZM491.94,370.43h182.64v98.27h-182.64v-98.27ZM309.29,370.43h182.64v98.27h-182.64v-98.27ZM26.15,370.43h283.14v98.27H26.15v-98.27ZM857.23,272.15h182.64v98.27h-182.64v-98.27ZM674.58,272.15h182.64v98.27h-182.64v-98.27ZM491.94,272.15h182.64v98.27h-182.64v-98.27ZM309.29,272.15h182.64v98.27h-182.64v-98.27ZM26.15,272.15h283.14v98.27H26.15v-98.27ZM857.23,173.88h182.64v98.27h-182.64v-98.27ZM674.58,173.88h182.64v98.27h-182.64v-98.27ZM491.94,173.88h182.64v98.27h-182.64v-98.27ZM309.29,173.88h182.64v98.27h-182.64v-98.27ZM26.15,173.88h283.14v98.27H26.15v-98.27ZM857.23,75.61h182.64v98.27h-182.64v-98.27ZM674.58,75.61h182.64v98.27h-182.64v-98.27ZM491.94,75.61h182.64v98.27h-182.64v-98.27ZM309.29,75.61h182.64v98.27h-182.64v-98.27ZM26.15,75.61h283.14v98.27H26.15v-98.27ZM857.23,9.15h182.64v66.45h-182.64V9.15ZM674.58,9.15h182.64v66.45h-182.64V9.15ZM491.94,9.15h182.64v66.45h-182.64V9.15ZM309.29,9.15h182.64v66.45h-182.64V9.15ZM26.15,9.15h283.14v66.45H26.15V9.15Z"/>
  <line class="cls-7" x1="25.03" y1="9.15" x2="309.29" y2="9.15"/>
  <line class="cls-7" x1="26.15" y1="74.48" x2="26.15" y2="10.28"/>
  <line class="cls-7" x1="309.29" y1="9.15" x2="491.94" y2="9.15"/>
  <line class="cls-7" x1="309.29" y1="74.48" x2="309.29" y2="10.28"/>
  <line class="cls-7" x1="491.94" y1="9.15" x2="674.58" y2="9.15"/>
  <line class="cls-7" x1="491.94" y1="74.48" x2="491.94" y2="10.28"/>
  <line class="cls-7" x1="674.58" y1="9.15" x2="857.23" y2="9.15"/>
  <line class="cls-7" x1="674.58" y1="74.48" x2="674.58" y2="10.28"/>
  <line class="cls-7" x1="857.23" y1="9.15" x2="1041" y2="9.15"/>
  <line class="cls-7" x1="857.23" y1="74.48" x2="857.23" y2="10.28"/>
  <line class="cls-7" x1="1039.87" y1="74.48" x2="1039.87" y2="10.28"/>
  <line class="cls-7" x1="25.03" y1="75.61" x2="309.29" y2="75.61"/>
  <line class="cls-7" x1="26.15" y1="172.75" x2="26.15" y2="76.73"/>
  <line class="cls-7" x1="309.29" y1="75.61" x2="491.94" y2="75.61"/>
  <line class="cls-7" x1="309.29" y1="172.75" x2="309.29" y2="76.73"/>
  <line class="cls-7" x1="491.94" y1="75.61" x2="674.58" y2="75.61"/>
  <line class="cls-7" x1="491.94" y1="172.75" x2="491.94" y2="76.73"/>
  <line class="cls-7" x1="674.58" y1="75.61" x2="857.23" y2="75.61"/>
  <line class="cls-7" x1="674.58" y1="172.75" x2="674.58" y2="76.73"/>
  <line class="cls-7" x1="857.23" y1="75.61" x2="1041" y2="75.61"/>
  <line class="cls-7" x1="857.23" y1="172.75" x2="857.23" y2="76.73"/>
  <line class="cls-7" x1="1039.87" y1="172.75" x2="1039.87" y2="76.73"/>
  <line class="cls-7" x1="25.03" y1="173.88" x2="309.29" y2="173.88"/>
  <line class="cls-7" x1="26.15" y1="271.03" x2="26.15" y2="175.01"/>
  <line class="cls-7" x1="309.29" y1="173.88" x2="491.94" y2="173.88"/>
  <line class="cls-7" x1="309.29" y1="271.03" x2="309.29" y2="175.01"/>
  <line class="cls-7" x1="491.94" y1="173.88" x2="674.58" y2="173.88"/>
  <line class="cls-7" x1="491.94" y1="271.03" x2="491.94" y2="175.01"/>
  <line class="cls-7" x1="674.58" y1="173.88" x2="857.23" y2="173.88"/>
  <line class="cls-7" x1="674.58" y1="271.03" x2="674.58" y2="175.01"/>
  <line class="cls-7" x1="857.23" y1="173.88" x2="1041" y2="173.88"/>
  <line class="cls-7" x1="857.23" y1="271.03" x2="857.23" y2="175.01"/>
  <line class="cls-7" x1="1039.87" y1="271.03" x2="1039.87" y2="175.01"/>
  <line class="cls-7" x1="25.03" y1="272.15" x2="309.29" y2="272.15"/>
  <line class="cls-7" x1="26.15" y1="369.3" x2="26.15" y2="273.28"/>
  <line class="cls-7" x1="309.29" y1="272.15" x2="491.94" y2="272.15"/>
  <line class="cls-7" x1="309.29" y1="369.3" x2="309.29" y2="273.28"/>
  <line class="cls-7" x1="491.94" y1="272.15" x2="674.58" y2="272.15"/>
  <line class="cls-7" x1="491.94" y1="369.3" x2="491.94" y2="273.28"/>
  <line class="cls-7" x1="674.58" y1="272.15" x2="857.23" y2="272.15"/>
  <line class="cls-7" x1="674.58" y1="369.3" x2="674.58" y2="273.28"/>
  <line class="cls-7" x1="857.23" y1="272.15" x2="1041" y2="272.15"/>
  <line class="cls-7" x1="857.23" y1="369.3" x2="857.23" y2="273.28"/>
  <line class="cls-7" x1="1039.87" y1="369.3" x2="1039.87" y2="273.28"/>
  <line class="cls-7" x1="25.03" y1="370.43" x2="309.29" y2="370.43"/>
  <line class="cls-7" x1="26.15" y1="467.58" x2="26.15" y2="371.56"/>
  <line class="cls-7" x1="309.29" y1="370.43" x2="491.94" y2="370.43"/>
  <line class="cls-7" x1="309.29" y1="467.58" x2="309.29" y2="371.56"/>
  <line class="cls-7" x1="491.94" y1="370.43" x2="674.58" y2="370.43"/>
  <line class="cls-7" x1="491.94" y1="467.58" x2="491.94" y2="371.56"/>
  <line class="cls-7" x1="674.58" y1="370.43" x2="857.23" y2="370.43"/>
  <line class="cls-7" x1="674.58" y1="467.58" x2="674.58" y2="371.56"/>
  <line class="cls-7" x1="857.23" y1="370.43" x2="1041" y2="370.43"/>
  <line class="cls-7" x1="857.23" y1="467.58" x2="857.23" y2="371.56"/>
  <line class="cls-7" x1="1039.87" y1="467.58" x2="1039.87" y2="371.56"/>
  <line class="cls-7" x1="25.03" y1="468.7" x2="309.29" y2="468.7"/>
  <line class="cls-7" x1="309.29" y1="468.7" x2="491.94" y2="468.7"/>
  <line class="cls-7" x1="491.94" y1="468.7" x2="674.58" y2="468.7"/>
  <line class="cls-7" x1="674.58" y1="468.7" x2="857.23" y2="468.7"/>
  <line class="cls-7" x1="857.23" y1="468.7" x2="1041" y2="468.7"/>
  <g>
    <path class="cls-2" d="M44.04,37.34h2.84l4.45,17.31,4.92-17.31h2.99l4.69,17.25,4.48-17.25h2.87l-5.92,20.41h-2.99l-4.75-16.43-4.92,16.43-2.96.03-5.71-20.44Z"/>
    <path class="cls-2" d="M74.2,36.08h2.67v7.94c1.05-1.7,3.05-2.61,5.3-2.61,3.57,0,6.41,2.28,6.41,6.88v9.46h-2.64v-9.08c0-3.28-1.79-4.95-4.48-4.95s-4.6,1.7-4.6,5.15v8.87h-2.67v-21.67Z"/>
    <path class="cls-2" d="M99.56,41.44c2.99,0,5.04,1.52,5.97,3.19v-2.93h2.69v16.05h-2.69v-2.99c-.97,1.73-3.05,3.25-6,3.25-4.28,0-7.59-3.37-7.59-8.35s3.31-8.23,7.61-8.23ZM100.09,43.75c-2.93,0-5.42,2.14-5.42,5.92s2.49,6,5.42,6,5.45-2.2,5.45-5.97-2.52-5.95-5.45-5.95Z"/>
    <path class="cls-2" d="M113.33,43.9h-2.08v-2.2h2.08v-4.04h2.67v4.04h4.19v2.2h-4.19v9.46c0,1.58.59,2.14,2.23,2.14h1.96v2.25h-2.4c-2.84,0-4.45-1.17-4.45-4.39v-9.46Z"/>
    <path class="cls-2" d="M136.9,58.02c-3.75,0-6.38-2.05-6.56-4.98h2.75c.15,1.55,1.52,2.72,3.78,2.72,2.11,0,3.28-1.05,3.28-2.37,0-3.57-9.49-1.49-9.49-7.47,0-2.46,2.31-4.48,5.89-4.48s5.89,1.9,6.06,5.04h-2.67c-.12-1.61-1.35-2.78-3.48-2.78-1.96,0-3.13.94-3.13,2.23,0,3.81,9.31,1.73,9.43,7.47,0,2.64-2.31,4.63-5.86,4.63Z"/>
    <path class="cls-2" d="M146.51,36.08h2.67v7.94c1.05-1.7,3.05-2.61,5.3-2.61,3.57,0,6.41,2.28,6.41,6.88v9.46h-2.64v-9.08c0-3.28-1.79-4.95-4.48-4.95s-4.6,1.7-4.6,5.15v8.87h-2.67v-21.67Z"/>
    <path class="cls-2" d="M171.87,41.44c2.99,0,5.04,1.52,5.97,3.19v-2.93h2.69v16.05h-2.69v-2.99c-.97,1.73-3.05,3.25-6,3.25-4.28,0-7.59-3.37-7.59-8.35s3.31-8.23,7.61-8.23ZM172.39,43.75c-2.93,0-5.42,2.14-5.42,5.92s2.49,6,5.42,6,5.45-2.2,5.45-5.97-2.52-5.95-5.45-5.95Z"/>
    <path class="cls-2" d="M193.71,41.44c4.31,0,7.61,3.22,7.61,8.23s-3.31,8.35-7.61,8.35c-2.93,0-5.01-1.58-6-3.22v10.57h-2.67v-23.66h2.67v2.96c.97-1.7,3.08-3.22,6-3.22ZM193.16,43.75c-2.9,0-5.45,2.23-5.45,5.95s2.55,5.97,5.45,5.97,5.45-2.23,5.45-6-2.49-5.92-5.45-5.92Z"/>
    <path class="cls-2" d="M211.78,58.02c-4.57,0-7.94-3.22-7.94-8.32s3.25-8.26,7.94-8.26,7.7,3.28,7.7,7.67c0,.59-.03,1.05-.09,1.61h-12.83c.2,3.25,2.49,5.04,5.21,5.04,2.4,0,3.92-1.23,4.51-2.96h2.87c-.82,2.93-3.4,5.21-7.38,5.21ZM206.6,48.56h10.13c.03-3.13-2.31-4.86-5.07-4.86-2.61,0-4.77,1.73-5.07,4.86Z"/>
    <path class="cls-2" d="M230.38,37.28c0-1.03.79-1.82,1.81-1.82.97,0,1.76.79,1.76,1.82s-.79,1.82-1.76,1.82c-1.02,0-1.81-.79-1.81-1.82ZM230.82,41.71h2.67v16.05h-2.67v-16.05Z"/>
    <path class="cls-2" d="M243.7,58.02c-3.75,0-6.38-2.05-6.56-4.98h2.75c.15,1.55,1.52,2.72,3.78,2.72,2.11,0,3.28-1.05,3.28-2.37,0-3.57-9.49-1.49-9.49-7.47,0-2.46,2.31-4.48,5.89-4.48s5.89,1.9,6.06,5.04h-2.67c-.12-1.61-1.35-2.78-3.48-2.78-1.96,0-3.13.94-3.13,2.23,0,3.81,9.31,1.73,9.43,7.47,0,2.64-2.31,4.63-5.86,4.63Z"/>
    <path class="cls-2" d="M260.69,37.28c0-1.03.79-1.82,1.82-1.82.97,0,1.76.79,1.76,1.82s-.79,1.82-1.76,1.82c-1.03,0-1.82-.79-1.82-1.82ZM261.13,41.71h2.67v16.05h-2.67v-16.05Z"/>
    <path class="cls-2" d="M268.92,43.9h-2.08v-2.2h2.08v-4.04h2.66v4.04h4.19v2.2h-4.19v9.46c0,1.58.59,2.14,2.23,2.14h1.96v2.25h-2.4c-2.84,0-4.45-1.17-4.45-4.39v-9.46Z"/>
    <path class="cls-2" d="M284.2,37.08c3.84,0,6.47,2.31,6.47,6.03,0,4.28-2.96,6.03-7.06,6.03l-.09,2.78h-2.31l-.12-4.63h.85c3.34,0,6.18-.64,6.18-4.19,0-2.34-1.52-3.81-3.89-3.81s-3.89,1.38-3.89,3.66h-2.52c-.03-3.54,2.55-5.89,6.38-5.89ZM282.36,57.93c-1.03,0-1.82-.79-1.82-1.82s.79-1.82,1.82-1.82c.97,0,1.76.79,1.76,1.82s-.79,1.82-1.76,1.82Z"/>
  </g>
  <g>
    <path class="cls-2" d="M342.78,37.34h13.82v2.17h-5.56v18.24h-2.66v-18.24h-5.59v-2.17Z"/>
    <path class="cls-2" d="M362.55,57.75h-2.67v-16.05h2.67v2.61c.91-1.79,2.64-2.9,5.18-2.9v2.75h-.7c-2.55,0-4.48,1.14-4.48,4.86v8.73Z"/>
    <path class="cls-2" d="M370.37,37.28c0-1.03.79-1.82,1.81-1.82.97,0,1.76.79,1.76,1.82s-.79,1.82-1.76,1.82c-1.02,0-1.81-.79-1.81-1.82ZM370.8,41.71h2.67v16.05h-2.67v-16.05Z"/>
    <path class="cls-2" d="M384.63,41.44c2.99,0,5.04,1.52,5.97,3.19v-2.93h2.69v16.05h-2.69v-2.99c-.97,1.73-3.05,3.25-6,3.25-4.28,0-7.59-3.37-7.59-8.35s3.31-8.23,7.61-8.23ZM385.15,43.75c-2.93,0-5.42,2.14-5.42,5.92s2.49,6,5.42,6,5.45-2.2,5.45-5.97-2.52-5.95-5.45-5.95Z"/>
    <path class="cls-2" d="M409.55,48.67c0-3.28-1.79-4.95-4.48-4.95s-4.6,1.7-4.6,5.15v8.87h-2.67v-16.05h2.67v2.28c1.05-1.67,2.99-2.58,5.15-2.58,3.72,0,6.56,2.28,6.56,6.88v9.46h-2.64v-9.08Z"/>
    <path class="cls-2" d="M423.17,41.44c2.93,0,5.04,1.46,5.97,3.19v-2.93h2.69v16.4c0,4.42-2.96,7.56-7.67,7.56-4.22,0-7.23-2.14-7.76-5.56h2.64c.59,1.93,2.49,3.25,5.13,3.25,2.84,0,4.98-1.81,4.98-5.24v-3.37c-.97,1.73-3.05,3.28-5.97,3.28-4.31,0-7.61-3.37-7.61-8.35s3.31-8.23,7.61-8.23ZM423.69,43.75c-2.93,0-5.42,2.14-5.42,5.92s2.49,6,5.42,6,5.45-2.2,5.45-5.97-2.52-5.95-5.45-5.95Z"/>
    <path class="cls-2" d="M436.34,36.08h2.67v21.67h-2.67v-21.67Z"/>
    <path class="cls-2" d="M450.49,58.02c-4.57,0-7.94-3.22-7.94-8.32s3.25-8.26,7.94-8.26,7.7,3.28,7.7,7.67c0,.59-.03,1.05-.09,1.61h-12.83c.2,3.25,2.49,5.04,5.21,5.04,2.4,0,3.92-1.23,4.51-2.96h2.87c-.82,2.93-3.4,5.21-7.38,5.21ZM445.31,48.56h10.13c.03-3.13-2.31-4.86-5.07-4.86-2.61,0-4.77,1.73-5.07,4.86Z"/>
  </g>
  <g>
    <path class="cls-2" d="M552.77,37.08c4.42,0,7.94,2.23,9.46,6.18h-3.19c-1.11-2.46-3.28-3.84-6.27-3.84-4.28,0-7.47,3.1-7.47,8.11s3.19,8.08,7.47,8.08c2.99,0,5.15-1.38,6.27-3.81h3.19c-1.52,3.92-5.04,6.12-9.46,6.12-5.71,0-10.19-4.28-10.19-10.4s4.48-10.46,10.19-10.46Z"/>
    <path class="cls-2" d="M565.75,37.28c0-1.03.79-1.82,1.82-1.82.97,0,1.76.79,1.76,1.82s-.79,1.82-1.76,1.82c-1.03,0-1.82-.79-1.82-1.82ZM566.19,41.71h2.66v16.05h-2.66v-16.05Z"/>
    <path class="cls-2" d="M576.06,57.75h-2.67v-16.05h2.67v2.61c.91-1.79,2.64-2.9,5.18-2.9v2.75h-.7c-2.55,0-4.48,1.14-4.48,4.86v8.73Z"/>
    <path class="cls-2" d="M591.14,41.44c3.98,0,6.59,2.05,7.41,5.42h-2.87c-.56-1.93-2.17-3.16-4.54-3.16-2.93,0-5.1,2.08-5.1,6s2.17,6.06,5.1,6.06c2.37,0,3.95-1.14,4.54-3.16h2.87c-.82,3.19-3.43,5.42-7.41,5.42-4.57,0-7.82-3.22-7.82-8.32s3.25-8.26,7.82-8.26Z"/>
    <path class="cls-2" d="M602.09,36.08h2.66v21.67h-2.66v-21.67Z"/>
    <path class="cls-2" d="M616.23,58.02c-4.57,0-7.94-3.22-7.94-8.32s3.25-8.26,7.94-8.26,7.7,3.28,7.7,7.67c0,.59-.03,1.05-.09,1.61h-12.83c.2,3.25,2.49,5.04,5.21,5.04,2.4,0,3.92-1.23,4.51-2.96h2.87c-.82,2.93-3.4,5.21-7.38,5.21ZM611.05,48.56h10.13c.03-3.13-2.31-4.86-5.07-4.86-2.61,0-4.77,1.73-5.07,4.86Z"/>
  </g>
  <g>
    <path class="cls-2" d="M722.33,57.96c-4.1,0-7-2.28-7.06-5.65h2.84c.18,1.7,1.38,3.4,4.22,3.4,2.58,0,4.1-1.46,4.1-3.4,0-5.51-11.04-1.99-11.04-9.58,0-3.37,2.72-5.65,6.76-5.65s6.44,2.14,6.76,5.24h-2.93c-.18-1.38-1.46-2.93-3.95-2.96-2.2-.06-3.92,1.08-3.92,3.28,0,5.27,11.01,1.99,11.01,9.55,0,2.9-2.37,5.77-6.8,5.77Z"/>
    <path class="cls-2" d="M747.51,65.31h-2.69v-10.57c-.91,1.64-3.05,3.22-6.03,3.22-4.25,0-7.55-3.37-7.55-8.35s3.31-8.23,7.64-8.23c2.93,0,5.04,1.52,5.95,3.19v-2.93h2.69v19.12l1.26-2.14h2.69l-3.96,6.68ZM744.82,49.64c0-3.72-2.52-5.95-5.45-5.95s-5.42,2.14-5.42,5.92,2.49,6,5.42,6,5.45-2.2,5.45-5.97Z"/>
    <path class="cls-2" d="M767.08,57.75h-2.66v-2.37c-1.03,1.67-2.99,2.61-5.13,2.61-3.69,0-6.59-2.28-6.59-6.88v-9.4h2.64v9.05c0,3.25,1.79,4.92,4.48,4.92s4.6-1.7,4.6-5.15v-8.82h2.66v16.05Z"/>
    <path class="cls-2" d="M778.21,41.44c2.99,0,5.04,1.52,5.97,3.19v-2.93h2.69v16.05h-2.69v-2.99c-.97,1.73-3.04,3.25-6,3.25-4.27,0-7.59-3.37-7.59-8.35s3.31-8.23,7.62-8.23ZM778.73,43.75c-2.93,0-5.42,2.14-5.42,5.92s2.49,6,5.42,6,5.45-2.2,5.45-5.97-2.52-5.95-5.45-5.95Z"/>
    <path class="cls-2" d="M794.05,57.75h-2.66v-16.05h2.66v2.61c.91-1.79,2.64-2.9,5.19-2.9v2.75h-.7c-2.55,0-4.48,1.14-4.48,4.86v8.73Z"/>
    <path class="cls-2" d="M809.25,58.02c-4.57,0-7.94-3.22-7.94-8.32s3.25-8.26,7.94-8.26,7.7,3.28,7.7,7.67c0,.59-.03,1.05-.09,1.61h-12.83c.21,3.25,2.49,5.04,5.21,5.04,2.4,0,3.92-1.23,4.51-2.96h2.87c-.82,2.93-3.4,5.21-7.38,5.21ZM804.06,48.56h10.13c.03-3.13-2.31-4.86-5.07-4.86-2.61,0-4.77,1.73-5.07,4.86Z"/>
  </g>
  <g>
    <path class="cls-2" d="M883.35,37.34c4.8,0,7.09,2.67,7.09,6,0,2.61-1.43,5.1-4.86,5.86l5.13,8.55h-3.19l-4.86-8.35h-3.22v8.35h-2.66v-20.41h6.59ZM883.35,39.54h-3.92v7.73h3.92c3.02,0,4.34-1.64,4.34-3.92s-1.29-3.81-4.34-3.81Z"/>
    <path class="cls-2" d="M901.5,58.02c-4.57,0-7.94-3.22-7.94-8.32s3.25-8.26,7.94-8.26,7.7,3.28,7.7,7.67c0,.59-.03,1.05-.09,1.61h-12.83c.21,3.25,2.49,5.04,5.21,5.04,2.4,0,3.92-1.23,4.51-2.96h2.87c-.82,2.93-3.4,5.21-7.38,5.21ZM896.32,48.56h10.13c.03-3.13-2.31-4.86-5.07-4.86-2.61,0-4.77,1.73-5.07,4.86Z"/>
    <path class="cls-2" d="M919.54,41.44c3.98,0,6.59,2.05,7.41,5.42h-2.87c-.56-1.93-2.17-3.16-4.54-3.16-2.93,0-5.09,2.08-5.09,6s2.17,6.06,5.09,6.06c2.37,0,3.95-1.14,4.54-3.16h2.87c-.82,3.19-3.43,5.42-7.41,5.42-4.57,0-7.82-3.22-7.82-8.32s3.25-8.26,7.82-8.26Z"/>
    <path class="cls-2" d="M931.08,43.9h-2.08v-2.2h2.08v-4.04h2.67v4.04h4.19v2.2h-4.19v9.46c0,1.58.59,2.14,2.23,2.14h1.96v2.25h-2.4c-2.84,0-4.45-1.17-4.45-4.39v-9.46Z"/>
    <path class="cls-2" d="M947.77,41.44c2.99,0,5.04,1.52,5.97,3.19v-2.93h2.69v16.05h-2.69v-2.99c-.97,1.73-3.04,3.25-6,3.25-4.27,0-7.59-3.37-7.59-8.35s3.31-8.23,7.62-8.23ZM948.3,43.75c-2.93,0-5.42,2.14-5.42,5.92s2.49,6,5.42,6,5.45-2.2,5.45-5.97-2.52-5.95-5.45-5.95Z"/>
    <path class="cls-2" d="M972.69,48.67c0-3.28-1.79-4.95-4.48-4.95s-4.6,1.7-4.6,5.15v8.87h-2.66v-16.05h2.66v2.28c1.06-1.67,2.99-2.58,5.16-2.58,3.72,0,6.56,2.28,6.56,6.88v9.46h-2.64v-9.08Z"/>
    <path class="cls-2" d="M986.31,41.44c2.93,0,5.04,1.46,5.97,3.19v-2.93h2.69v16.4c0,4.42-2.96,7.56-7.67,7.56-4.22,0-7.23-2.14-7.76-5.56h2.64c.59,1.93,2.49,3.25,5.12,3.25,2.84,0,4.98-1.81,4.98-5.24v-3.37c-.97,1.73-3.04,3.28-5.97,3.28-4.31,0-7.62-3.37-7.62-8.35s3.31-8.23,7.62-8.23ZM986.84,43.75c-2.93,0-5.42,2.14-5.42,5.92s2.49,6,5.42,6,5.45-2.2,5.45-5.97-2.52-5.95-5.45-5.95Z"/>
    <path class="cls-2" d="M999.49,36.08h2.66v21.67h-2.66v-21.67Z"/>
    <path class="cls-2" d="M1013.63,58.02c-4.57,0-7.94-3.22-7.94-8.32s3.25-8.26,7.94-8.26,7.7,3.28,7.7,7.67c0,.59-.03,1.05-.09,1.61h-12.83c.2,3.25,2.49,5.04,5.21,5.04,2.4,0,3.92-1.23,4.51-2.96h2.87c-.82,2.93-3.4,5.21-7.38,5.21ZM1008.45,48.56h10.13c.03-3.13-2.31-4.86-5.07-4.86-2.61,0-4.77,1.73-5.07,4.86Z"/>
  </g>
  <path class="cls-3" d="M167.72,162.66c20.94,0,37.92-16.98,37.92-37.92s-16.98-37.92-37.92-37.92-37.92,16.98-37.92,37.92,16.98,37.92,37.92,37.92"/>
  <rect class="cls-1" x="130.18" y="185.48" width="75.08" height="75.08"/>
  <polygon class="cls-6" points="167.72 283.75 130.18 358.83 205.26 358.83 167.72 283.75"/>
  <rect class="cls-5" x="71.17" y="387.94" width="193.12" height="63.25"/>
</svg>