<?xml version="1.0" encoding="UTF-8"?>
<svg id="Layer_1" xmlns="http://www.w3.org/2000/svg" version="1.1" viewBox="0 0 500 500">
  <!-- Generator: Adobe Illustrator 30.1.0, SVG Export Plug-In . SVG Version: 2.1.1 Build 136)  -->
  <defs>
    <style>
      .st0 {
        fill: #fff;
        stroke: #231f20;
        stroke-width: .75px;
      }
    </style>
  </defs>
  <path class="st0" d="M269.99,70.86l-195.77,69.58s-31.05,16.96-20.26,42.72l66.28,105.69s72.67,106.79,73.33,107.45c.66.66,29.73,40.29,37.66,38.31,0,0,119.35-49.98,187.84-85.65,0,0,22.11-9.69,22.41-10.44s-1.82-3.92-3.63-3.47-8.3,2.87-8.3,2.87c0,0-8.31-11.02,11.02-32.01,0,0,10.42-4.99,7.4-9.06l-99.81-126.54-78.17-99.44h0Z"/>
  <path class="st0" d="M218.15,89.36s46.36-7.09,91.81,32.46"/>
  <path class="st0" d="M222.53,429.72s-9.97-23.71,21.74-37.9,204-94.83,204-94.83"/>
  <path class="st0" d="M395.13,321.75s33.52-26.12,19.78-66.59"/>
  <path class="st0" d="M429.4,337.45l-200.38,92.71s-7.09-3.92-4.53-13.74c2.57-9.82,16.31-16.77,20.53-19.18,4.23-2.42,195.55-91.96,195.55-91.96"/>
  <line class="st0" x1="430.91" y1="318.58" x2="234.77" y2="410.69"/>
  <line class="st0" x1="427.59" y1="330.51" x2="268.44" y2="402.69"/>
  <line class="st0" x1="240.8" y1="393.02" x2="73.65" y2="141"/>
  <line class="st0" x1="91.16" y1="134.21" x2="261.34" y2="384.42"/>
  <polygon class="st0" points="157 199.29 271.16 156.41 243.37 121.53 128.16 161.54 157 199.29"/>
</svg>