<?xml version="1.0" encoding="UTF-8"?>
<svg id="Layer_1" xmlns="http://www.w3.org/2000/svg" version="1.1" viewBox="0 0 500 500">
  <!-- Generator: Adobe Illustrator 30.1.0, SVG Export Plug-In . SVG Version: 2.1.1 Build 136)  -->
  <defs>
    <style>
      .st0, .st1, .st2 {
        fill: #fff;
      }

      .st3 {
        fill: #231f20;
      }

      .st1 {
        stroke-width: .75px;
      }

      .st1, .st2, .st4 {
        stroke: #231f20;
      }

      .st4 {
        fill: none;
        stroke-width: .44px;
      }
    </style>
  </defs>
  <rect class="st2" x="64.98" y="28.79" width="370.05" height="442.42"/>
  <g>
    <g>
      <path class="st0" d="M167.86,427.25c11.75-2.93,20.54-1.87,5.54,5.93-15.13,7.86-27.03,2.82-27.03,2.82l-.09-.36c8.2-2.04,20.38-5.01,21.58-8.39Z"/>
      <path class="st0" d="M118.87,349.9c1.37-5.65,2.62-10.52,3.52-13.94.86-3.29,1.39-5.24,1.39-5.24l.06-.23c1.15.29,2.36.59,3.46.9,1.72.48,3.18.99,3.74,1.55,1.61,1.61-11.3,48.81-7.87,52.64s23.39,6.66,23.39.4c0-3.15-1.53-12.64-2.77-21.97l.16-.02s4.38,10.45,9.4,22.85c6.87,16.99,14.95,37.63,14.6,40.08-.02.11-.04.22-.09.33-1.2,3.38-13.38,6.35-21.58,8.39-1.74.43-3.31.82-4.55,1.17-3.45.96-10.43,1.33-17.02,1.16-7.17-.18-13.91-.98-15.2-2.32-.02-.01-.03-.03-.05-.05-2.22-2.63-1.41-12.51,0-35.1.83-13.23,5.6-34.91,9.41-50.6Z"/>
      <path class="st0" d="M160.29,378.72c2.02,1.41,8.68,3.63,8.68,7.06s-9.93,9.07-15.62,1.06c-5.02-12.4-9.4-22.85-9.4-22.85l-.16.02c-1.23-9.22-2.16-18.29-1.06-20.99.14-.34.25-.66.35-.96l.47.15s14.72,35.09,16.74,36.51Z"/>
      <path class="st0" d="M125.48,319.54c-8.58-3.55-14.41-10.59-14.41-18.68,0-11.7,12.19-21.18,27.23-21.18s27.23,9.48,27.23,21.18c0,10.49-9.8,19.2-22.67,20.88-1.48.2-3.01.3-4.56.3-4.64,0-9-.9-12.82-2.5Z"/>
      <path class="st0" d="M145.49,324.38c2.96,3.32,2.81,7.51-.14,9.96-3.4,2.84-.78,3.19-2.27,7.72-.1.3-.21.62-.35.96-1.1,2.7-.17,11.77,1.06,20.99,1.24,9.33,2.77,18.82,2.77,21.97,0,6.26-19.96,3.43-23.39-.4s9.48-51.03,7.87-52.64c-.56-.56-2.02-1.07-3.74-1.55l.51-.07s.2-12.3,17.35-6.66l.33-.28Z"/>
      <path class="st0" d="M145.49,324.38l-.33.28c-17.15-5.64-17.35,6.66-17.35,6.66l-.51.07c-1.1-.31-2.31-.61-3.46-.9-2.29-.6-4.37-1.18-4.9-1.79-1.07-1.24,5.06-7.64,6.54-9.16,3.82,1.6,8.18,2.5,12.82,2.5,1.55,0,3.08-.1,4.56-.3l.07.5c1.02.64,1.88,1.37,2.56,2.14Z"/>
      <path class="st0" d="M122.39,335.96c-.9,3.42-2.15,8.29-3.52,13.94-2.48,2.13-20.91,18-21.1,19.32-.2,1.41,5.04,4.44,3.23,6.86-1.82,2.42-8.88,1.41-11.5.81s-1.62-5.04,1.81-9.07c3.09-3.64,25.96-27.7,31.08-31.86Z"/>
      <path class="st0" d="M109.51,435.65c1.29,1.34,8.03,2.14,15.2,2.32-5.98,12.97-31.8,14.75-33.01,6.91-1.08-7.08,14.65-8.93,17.81-9.23Z"/>
    </g>
    <g>
      <path class="st4" d="M125.48,319.54c-8.58-3.55-14.41-10.59-14.41-18.68,0-11.7,12.19-21.18,27.23-21.18s27.23,9.48,27.23,21.18c0,10.49-9.8,19.2-22.67,20.88-1.48.2-3.01.3-4.56.3-4.64,0-9-.9-12.82-2.5Z"/>
      <path class="st4" d="M125.8,319.22l-.32.32c-1.48,1.52-7.61,7.92-6.54,9.16.53.61,2.61,1.19,4.9,1.79,1.15.29,2.36.59,3.46.9,1.72.48,3.18.99,3.74,1.55,1.61,1.61-11.3,48.81-7.87,52.64s23.39,6.66,23.39.4c0-3.15-1.53-12.64-2.77-21.97-1.23-9.22-2.16-18.29-1.06-20.99.14-.34.25-.66.35-.96,1.49-4.53-1.13-4.88,2.27-7.72,2.95-2.45,3.1-6.64.14-9.96-.68-.77-1.54-1.5-2.56-2.14"/>
      <path class="st4" d="M127.81,331.32s.2-12.3,17.35-6.66"/>
      <path class="st4" d="M143.55,342.21s14.72,35.09,16.74,36.51c2.02,1.41,8.68,3.63,8.68,7.06s-9.93,9.07-15.62,1.06c-.12-.15-.22-.3-.32-.45"/>
      <path class="st4" d="M160.08,378.72c0,1.01,1.01,7.87-2.02,9.07"/>
      <path class="st4" d="M123.78,330.72s-.53,1.95-1.39,5.24c-.9,3.42-2.15,8.29-3.52,13.94-3.81,15.69-8.58,37.37-9.41,50.6-1.41,22.59-2.22,32.47,0,35.1.02.02.03.04.05.05,1.29,1.34,8.03,2.14,15.2,2.32,6.59.17,13.57-.2,17.02-1.16,1.24-.35,2.81-.74,4.55-1.17,8.2-2.04,20.38-5.01,21.58-8.39.05-.11.07-.22.09-.33.35-2.45-7.73-23.09-14.6-40.08-5.02-12.4-9.4-22.85-9.4-22.85"/>
      <path class="st4" d="M123.38,335.35c-.1-.06-.44.16-.99.61-5.12,4.16-27.99,28.22-31.08,31.86-3.43,4.03-4.43,8.47-1.81,9.07s9.68,1.61,11.5-.81c1.81-2.42-3.43-5.45-3.23-6.86.19-1.32,18.62-17.19,21.1-19.32.18-.16.28-.24.28-.24"/>
      <path class="st4" d="M110.06,435.6s-.2.01-.55.05c-3.16.3-18.89,2.15-17.81,9.23,1.21,7.84,27.03,6.06,33.01-6.91.02-.05.05-.1.07-.15"/>
      <path class="st4" d="M146.37,436s11.9,5.04,27.03-2.82c15-7.8,6.21-8.86-5.54-5.93-.1.03-.21.05-.31.08"/>
    </g>
  </g>
  <g>
    <g>
      <path class="st0" d="M244.31,430.7c17.21-1.89,35.97,1.71,34.77,5.91-1.2,4.23-9.88,7.06-28.03,8.67-18.15,1.61-21.58-5.45-21.58-5.45l-.12-.55c6.09-1.36,11.7-4.26,14.96-8.58Z"/>
      <path class="st0" d="M242.92,334.45c1.27-.92,11.19-7.87,14.58-3.53,3.6,4.6-4.69,12.76-22.71,13.29-1.17-6.6-3.19-12.01-.29-14.5,3.63-3.1,9.16.58,8.42,4.74Z"/>
      <path class="st0" d="M220.7,440.14c-6.41-.12-12.39-1.99-15.84-5.76-.2-.22-.39-.46-.57-.73-7.58-11.13-.7-64.57-.08-69.32.61.05,1.23.07,1.86.07,5.91,0,11.3-2.02,15.44-5.36,1.53,2.4,3.41,5.59,5.46,9.31,10.1,18.34,24.13,49.37,18.83,59.98-.42.83-.91,1.62-1.49,2.37-3.26,4.32-8.87,7.22-14.96,8.58-2.84.63-5.79.92-8.65.86Z"/>
      <path class="st0" d="M221.51,359.04c-4.14,3.34-9.53,5.36-15.44,5.36-.63,0-1.25-.02-1.86-.07-12.17-.88-21.74-10.35-21.74-21.92,0-12.15,10.57-21.98,23.6-21.98s23.6,9.84,23.6,21.98c0,6.64-3.16,12.6-8.16,16.63Z"/>
      <path class="st0" d="M204.86,434.38c3.45,3.77,9.43,5.64,15.84,5.76-3.08,9.61-38.85,11.12-40.45,4.74-1.5-6,20.87-10.61,24.04-11.23.18.27.37.51.57.73Z"/>
      <path class="st0" d="M172.85,355.51h-.06s-5.45,1.82-5.45,1.82c-1.81.6-12.1,3.23-13.11-2.42s10.29-6.86,10.29-6.86c0,0-3.63-3.03-.4-5.85s6.25.81,7.66,5.85c.68,2.41.42,4.64,1.07,7.46Z"/>
    </g>
    <g>
      <path class="st4" d="M204.21,364.33c-12.17-.88-21.74-10.35-21.74-21.92,0-12.15,10.57-21.98,23.6-21.98s23.6,9.84,23.6,21.98c0,6.64-3.16,12.6-8.16,16.63-4.14,3.34-9.53,5.36-15.44,5.36-.63,0-1.25-.02-1.86-.07Z"/>
      <path class="st4" d="M204.26,363.99s-.02.12-.05.34c-.62,4.75-7.5,58.19.08,69.32.18.27.37.51.57.73,3.45,3.77,9.43,5.64,15.84,5.76,2.86.06,5.81-.23,8.65-.86,6.09-1.36,11.7-4.26,14.96-8.58.58-.75,1.07-1.54,1.49-2.37,5.3-10.61-8.73-41.64-18.83-59.98-2.05-3.72-3.93-6.91-5.46-9.31-.11-.17-.22-.34-.32-.5"/>
      <path class="st4" d="M226.84,368.43s.04-.02.13-.08c.97-.56,7.22-4.59,8.34-14.44.38-3.37.02-6.66-.52-9.7-1.17-6.6-3.19-12.01-.29-14.5,3.63-3.1,9.16.58,8.42,4.74-.13.7-.43,1.42-.96,2.12"/>
      <path class="st4" d="M242.78,334.55s.05-.03.14-.1c1.27-.92,11.19-7.87,14.58-3.53,3.6,4.6-4.69,12.76-22.71,13.29-.16,0-.32.02-.48.02"/>
      <path class="st4" d="M172.79,355.52l-5.45,1.81c-1.81.6-12.1,3.23-13.11-2.42s10.29-6.86,10.29-6.86c0,0-3.63-3.03-.4-5.85s6.25.81,7.66,5.85c.68,2.41.42,4.64,1.07,7.46.69,3.07,2.45,6.84,7.6,12.31,9.89,10.49,22.59,3.43,22.59,3.43"/>
      <path class="st4" d="M204.66,433.58s-.13.02-.37.07c-3.17.62-25.54,5.23-24.04,11.23,1.6,6.38,37.37,4.87,40.45-4.74.04-.1.07-.2.09-.3"/>
      <path class="st4" d="M229.47,439.83s3.43,7.06,21.58,5.45c18.15-1.61,26.83-4.44,28.03-8.67,1.2-4.2-17.56-7.8-34.77-5.91-.18.02-.35.04-.53.06"/>
    </g>
  </g>
  <g>
    <g>
      <path class="st0" d="M361.65,423.32c1.29.5,18.47,7.21,18.28,11.87-.2,4.85-14.72,4.04-24.2,1.62s-7.26-10.29-7.26-10.29l-.02-.07c4.73-.98,9.37-2.06,13.2-3.13Z"/>
      <path class="st0" d="M361.65,423.32c-3.83,1.07-8.47,2.15-13.2,3.13-10.08,2.11-20.54,3.8-24.19,4.1-1.17.09-2.89.08-4.96,0-2.06-.1-4.47-.28-7.03-.54-11.19-1.12-25.19-3.61-25.33-6.11-.2-3.63,19.56-50.62,22.19-70.39,1.28-9.68,1.99-19.03,2.37-26.03.4-7.31.45-12.09.45-12.09l.04-.34c6.94.7,16.5.47,25.23-1.24l.15.78s2.62,4.42,6.56,12.24c5.02,9.94,12.19,25.38,18.85,44.23,11.9,33.68,10.89,44.78,7.87,48.61-.86,1.08-4.31,2.36-9,3.66ZM346.65,357.74c0-4.79-3.97-8.67-8.87-8.67s-8.87,3.87-8.87,8.67,3.97,8.68,8.87,8.68,8.87-3.89,8.87-8.68ZM341,337.98c0-3.9-2.93-7.06-6.55-7.06s-6.55,3.16-6.55,7.06,2.93,7.06,6.55,7.06,6.55-3.16,6.55-7.06Z"/>
      <path class="st0" d="M337.78,349.07c4.9,0,8.87,3.88,8.87,8.67s-3.97,8.68-8.87,8.68-8.87-3.88-8.87-8.68,3.97-8.67,8.87-8.67Z"/>
      <path class="st0" d="M306.22,301.51c-11.38-4.81-19.27-15.4-19.27-27.67,0-16.81,14.81-30.46,33.08-30.46s33.08,13.64,33.08,30.46c0,9.54-4.77,18.06-12.23,23.64-5.69,4.26-12.94,6.81-20.85,6.81-4.93,0-9.61-.99-13.81-2.78Z"/>
      <path class="st0" d="M341,297.64c9.08,5.44,13.51,12.5-2.62,15.93-.38.08-.77.16-1.16.23-8.73,1.71-18.29,1.94-25.23,1.24-5.71-.57-9.66-1.77-9.92-3.28-.51-2.92,3.08-8.63,4.15-10.25,4.2,1.79,8.88,2.78,13.81,2.78,7.91,0,15.16-2.55,20.85-6.81l.12.16Z"/>
      <ellipse class="st0" cx="334.45" cy="337.98" rx="6.55" ry="7.06"/>
      <path class="st0" d="M319.3,430.54c.25,1.46.82,6.71-3.31,10.5-4.84,4.44-31.67,14.93-35.1,10.89-3.42-4.03,8.28-12.5,14.73-14.52,6.1-1.9,15.62-6.87,16.65-7.41,2.56.26,4.97.44,7.03.54Z"/>
    </g>
    <g>
      <path class="st4" d="M306.22,301.51c-11.38-4.81-19.27-15.4-19.27-27.67,0-16.81,14.81-30.46,33.08-30.46s33.08,13.64,33.08,30.46c0,9.54-4.77,18.06-12.23,23.64-5.69,4.26-12.94,6.81-20.85,6.81-4.93,0-9.61-.99-13.81-2.78Z"/>
      <path class="st4" d="M302.68,281.97c1.08.27,18.29,18.56,31.2-6.72"/>
      <path class="st4" d="M306.51,301.07s-.11.16-.29.44c-1.07,1.62-4.66,7.33-4.15,10.25.26,1.51,4.21,2.71,9.92,3.28,6.94.7,16.5.47,25.23-1.24.39-.07.78-.15,1.16-.23,16.13-3.43,11.7-10.49,2.62-15.93"/>
      <path class="st4" d="M343.83,326.88s.06-.03.1-.06c2.15-1.35,28.11-21.52,37.22-31.41,9.28-10.08,25.41-16.13,29.04-15.73"/>
      <path class="st4" d="M385.78,290.98s-5.04-8.47-3.23-13.11"/>
      <path class="st4" d="M337.37,314.58s2.62,4.42,6.56,12.24c5.02,9.94,12.19,25.38,18.85,44.23,11.9,33.68,10.89,44.78,7.87,48.61-.86,1.08-4.31,2.36-9,3.66-3.83,1.07-8.47,2.15-13.2,3.13-10.08,2.11-20.54,3.8-24.19,4.1-1.17.09-2.89.08-4.96,0-2.06-.1-4.47-.28-7.03-.54-11.19-1.12-25.19-3.61-25.33-6.11-.2-3.63,19.56-50.62,22.19-70.39,1.28-9.68,1.99-19.03,2.37-26.03.4-7.31.45-12.09.45-12.09"/>
      <path class="st4" d="M311.56,327.49s-.03-.01-.06-.02c-1.38-.47-18.83-8.55-25.96-14.1-6.45-5.02-12.74-6.21-18.45-6.98-.72-.1-1.42-.19-2.12-.28-6.25-.81-18.56-2.42-19.16-2.42"/>
      <path class="st4" d="M267.18,306.71c-.03-.07-.06-.18-.09-.32-.39-1.67-.97-7.73-4.15-9.97"/>
      <path class="st4" d="M312.36,429.95s-.03.02-.09.05c-1.03.54-10.55,5.51-16.65,7.41-6.45,2.02-18.15,10.49-14.73,14.52,3.43,4.04,30.26-6.45,35.1-10.89,4.13-3.79,3.56-9.04,3.31-10.5-.04-.25-.08-.39-.08-.39"/>
      <path class="st4" d="M348.47,426.52s-2.22,7.87,7.26,10.29,24,3.23,24.2-1.62c.19-4.66-16.99-11.37-18.28-11.87-.05-.02-.08-.03-.08-.03"/>
      <ellipse class="st4" cx="334.45" cy="337.98" rx="6.55" ry="7.06"/>
      <path class="st4" d="M337.78,349.07c4.9,0,8.87,3.88,8.87,8.67s-3.97,8.68-8.87,8.68-8.87-3.88-8.87-8.68,3.97-8.67,8.87-8.67Z"/>
    </g>
  </g>
  <path class="st1" d="M250.03,75.47c32.07,0,58.07,26.67,58.07,59.57s-26,59.57-58.07,59.57-58.07-26.67-58.07-59.57,26-59.57,58.07-59.57h0Z"/>
  <line class="st4" x1="268.39" y1="73.77" x2="275.65" y2="52.84"/>
  <line class="st4" x1="297.43" y1="92.13" x2="313.65" y2="78.89"/>
  <line class="st4" x1="313.21" y1="123.73" x2="340.98" y2="122.45"/>
  <line class="st4" x1="313.21" y1="158.74" x2="340.11" y2="168.99"/>
  <line class="st4" x1="291.86" y1="183.94" x2="301.7" y2="209.56"/>
  <line class="st4" x1="244.48" y1="202.3" x2="233.38" y2="224.08"/>
  <line class="st4" x1="185.56" y1="175.82" x2="167.2" y2="197.6"/>
  <line class="st4" x1="183.85" y1="145.5" x2="140.29" y2="151.06"/>
  <line class="st4" x1="184.7" y1="116.47" x2="151.4" y2="107.93"/>
  <line class="st4" x1="200.5" y1="96.4" x2="176.15" y2="76.75"/>
  <path class="st4" d="M219.72,81.03c-1.28-2.13-13.24-31.17-13.24-31.17"/>
  <path class="st3" d="M200.42,340.2c1,0,1.81.81,1.81,1.81s-.81,1.82-1.81,1.82-1.81-.81-1.81-1.82.81-1.81,1.81-1.81"/>
  <path class="st4" d="M200.42,340.2c1,0,1.81.81,1.81,1.81s-.81,1.82-1.81,1.82-1.81-.81-1.81-1.82.81-1.81,1.81-1.81Z"/>
  <path class="st3" d="M207.28,338.58c1,0,1.81.81,1.81,1.81s-.81,1.81-1.81,1.81-1.81-.81-1.81-1.81.81-1.81,1.81-1.81"/>
  <path class="st4" d="M207.28,338.58c1,0,1.81.81,1.81,1.81s-.81,1.81-1.81,1.81-1.81-.81-1.81-1.81.81-1.81,1.81-1.81Z"/>
  <path class="st3" d="M311.76,261.53c1,0,1.81.81,1.81,1.81s-.81,1.82-1.81,1.82-1.81-.81-1.81-1.82.81-1.81,1.81-1.81"/>
  <path class="st4" d="M311.76,261.53c1,0,1.81.81,1.81,1.81s-.81,1.82-1.81,1.82-1.81-.81-1.81-1.82.81-1.81,1.81-1.81Z"/>
  <path class="st3" d="M323.86,259.92c1,0,1.81.81,1.81,1.81s-.81,1.82-1.81,1.82-1.81-.81-1.81-1.82.81-1.81,1.81-1.81"/>
  <path class="st4" d="M323.86,259.92c1,0,1.81.81,1.81,1.81s-.81,1.82-1.81,1.82-1.81-.81-1.81-1.82.81-1.81,1.81-1.81Z"/>
  <path class="st3" d="M127.81,290.18c1,0,1.81.81,1.81,1.81s-.81,1.82-1.81,1.82-1.81-.81-1.81-1.82.81-1.81,1.81-1.81"/>
  <path class="st4" d="M127.81,290.18c1,0,1.81.81,1.81,1.81s-.81,1.82-1.81,1.82-1.81-.81-1.81-1.82.81-1.81,1.81-1.81Z"/>
  <path class="st3" d="M144.76,286.95c1,0,1.81.81,1.81,1.81s-.81,1.82-1.81,1.82-1.81-.81-1.81-1.82.81-1.81,1.81-1.81"/>
  <path class="st4" d="M144.76,286.95c1,0,1.81.81,1.81,1.81s-.81,1.82-1.81,1.82-1.81-.81-1.81-1.82.81-1.81,1.81-1.81Z"/>
  <path class="st4" d="M191.62,350.82c1.35,0,18.29,9.95,26.89-2.96"/>
  <path class="st4" d="M129.62,308.53c1.21-.4,12.91-10.49,23.39-3.63"/>
  <path class="st4" d="M133.86,303.69s12.3-.2,14.12-4.84c1.81-4.64-6.45-4.84-11.3-2.42"/>
</svg>