<?xml version="1.0" encoding="UTF-8"?>
<svg id="Layer_1" data-name="Layer 1" xmlns="http://www.w3.org/2000/svg" viewBox="0 0 500 500">
  <path d="M344.52,110.26s-5.67-2.52-18.28,9.43c-12.62,11.95-62.95,71.11-62.95,71.11,0,0,2.44,10.54-5.17,14.43-7.62,3.89-14.79-3.55-14.82-10.1-.02-6.56,7.42-9.02,10.39-10.23,2.97-1.22,45.43-45.6,58.19-62.67,12.76-17.06,24.18-27.95,38.67-20.73" style="fill: none; stroke: #231f20;"/>
  <path d="M341.8,113.83l13.64-16.97s13.58-14.93,24.79-10.05c11.2,4.88,21.63,13.16-.51,46.22-22.14,33.06-79.92,100.93-79.92,100.93l-138.53,159.07s-17.26,21.86-28.21,27.64c-10.95,5.78-24.02,1.93-27.99-7.66-3.97-9.6-5.98-18.6,7.33-35.92,13.31-17.32,138.44-161.06,139.13-161.38.69-.32,90.26-101.87,90.26-101.87Z" style="fill: none; stroke: #231f20;"/>
  <path d="M351.63,101.44s22.37-2.12,32.7,24.39" style="fill: none; stroke: #231f20;"/>
  <path d="M267.52,197.48s28.19-3.6,39.95,27.18" style="fill: none; stroke: #231f20;"/>
  <path d="M250.7,216.55s30.82,1.57,39.27,28.84" style="fill: none; stroke: #231f20;"/>
</svg>