<?xml version="1.0" encoding="UTF-8"?>
<svg id="Layer_1" xmlns="http://www.w3.org/2000/svg" version="1.1" viewBox="0 0 500 500">
  <!-- Generator: Adobe Illustrator 30.1.0, SVG Export Plug-In . SVG Version: 2.1.1 Build 136)  -->
  <defs>
    <style>
      .st0 {
        fill: #fff;
      }

      .st1 {
        fill: none;
        stroke: #231f20;
        stroke-width: .75px;
      }
    </style>
  </defs>
  <g>
    <path class="st0" d="M320.39,76.66c-2.88-2.07-5.84-4.03-8.88-5.87.84-.91,2.86-3.45,1.55-5.61-.27-.44-1.24-1.1-2.69-1.89h0s.72-2.3-.59-3.09c-.48-.29-3.26-1.69-6.69-3.33.32-.44,1.19-1.64,2.17-2.97,87.52,49.56,85.73,139.29,69.41,178.09-16.32,38.8-46.71,71.45-95,85.64-47.54,13.98-89.44-2.65-90.72-3.16l.5-.95v-.11c1.77.16,3.75.13,5.94-.15,14.18,4.98,29.44,7.69,45.34,7.69,31.08,0,59.73-10.36,82.63-27.78,21.17-16.11,37.43-38.27,46.16-63.88,4.63-13.58,7.14-28.14,7.14-43.27,0-1.83-.04-3.65-.11-5.46-.02-.48-.04-.96-.07-1.44-.48-9.5-1.95-18.73-4.31-27.61-4.6-17.34-12.6-33.31-23.24-47.17-5.1-6.66-10.81-12.83-17.05-18.44-3.66-3.27-7.49-6.36-11.49-9.24Z"/>
    <path class="st0" d="M340.45,112.38c1.06,0,1.59,1.99.66,3.05s-.67.8-3.19.53c-2.51-.27.93,1.59-1.32,2.25-2.26.67-3.32,3.85-3.32,3.85,0,0,1.99-.67,3.98-.4,1.99.26.66-1.86,3.71-1.59,3.06.27,3.72,1.19,4.25-.13.53-1.33-2.12-3.06-1.46-5.31.64-2.18-3.07-2.25-3.31-2.25ZM283.94,67.42c.09.1.45.52.97.94-.38-.19-.96-.5-1.78-.95-5.04-2.79-6.77,2.26-4.78,3.85s4.12,2.92,7.17,4.11,8.22-2.66,5.7-3.72,3.97-2.79,1.19-3.45c-2.79-.67-1.86,0-3.98,1.06-1.27.63-2.63-.15-3.52-.9,1.9.95-.72-.77-.97-.94ZM195.39,313.26c-6.91-2.42-13.57-5.39-19.91-8.84-42.12-22.93-70.68-67.35-70.68-118.4,0-9.26.94-18.3,2.73-27.03h.03s2.66,1.86,4.64,4.51c1.99,2.66,3.32,3.18,5.17,5.57,1.85,2.38-.13,6.63-1.06,9.01s2.65,5.16,5.43,2.38c2.79-2.77,6.9-16.56,6.63-19.08-.26-2.52,1.2-4.77,2.65-6.36,1.46-1.59,1.46,1.33,3.45,1.59,1.98.27,1.06-1.19,1.72-2.78s2.78-2.91,5.43-3.97,2.25.8,3.84,1.59,4.11.26,7.42.26,1.33-.53,1.46-1.85,2.51-1.05,3.44-.26c.93.8,2.52.8,4.64-.13s3.58-3.31,4.64-4.77c1.07-1.45,2.26-1.72,3.58-1.32,1.32.39.53,1.99-.4,3.97-.93,1.99-3.05,4.24-3.98,6.76-.92,2.51-3.44,2.65-5.56,1.19-2.12-1.45-3.58-3.17-4.11-.79s-4.64.53-5.7,3.44c-1.06,2.92,6.77,11.53,10.34,13.52,3.58,1.99,10.73,8.09,12.59,8.09l1.92,1.09c-.71,1.07-1.19,2.3-2.45,4.06-2.39,3.31-9.02-6.63-10.74-.93-1.73,5.7,6.36,19.08,12.59,26.11,6.23,7.02,1.59,14.05-.4,21.47s5.04,10.74,7.56,13.52c2.51,2.78-2.52,7.42-1.33,10.07,1.2,2.65,3.98,2.12,3.45,3.71s.53,12.2,6.89,15.64,4.77.66,8.35,2.78c3.58,2.11,7.55,1.32,6.23.66-1.33-.66-1.33-5.17,1.85-9.41s2.92-3.72,3.45-9.15,5.43-10.87,6.36-16.43c.93-5.57-1.85-6.23-1.06-12.59.8-6.36,7.03-13.25,9.15-16.83s-1.33-8.22,1.46-11.4c2.78-3.18,3.98,1.46,5.3.13s-.4-3.05,3.84-3.58,4.51,3.84,9.94,4.11c5.44.27,2.39,3.98,9.28.93s19.08-13.26,15.37-19.22c-3.71-5.96,3.31-7.55,1.06-11.26s-.13-10.48-6.09-14.45c-5.97-3.98-3.85-8.75-3.45-10.21.4-1.45-3.31-4.77-5.56-6.49-.54-.42-1.16-.55-1.8-.55l1.17-2.27c1.96,1.06,2.08-1.46,4.23-1.57,2.51-.13,5.43-.66,3.57-4.37-1.85-3.71-.52-4.11.93-7.02,1.46-2.91-6.89-2.65-11.66-3.31-4.78-.67.66-9.02,3.84-10.61s-1.05-2.92-3.84-2.78-1.06-3.58-4.64-5.3-3.71-.53-4.37-3.44c-.67-2.92-1.86-1.46-4.51-2.65s1.19-9.68-.93-10.87-1.86,1.33-.93,3.58c.15.37.27.72.36,1.06l-2.92.08c-.17-.75-1.55-2.03-2.74-2.59-1.99-.93,2.38-3.98,3.84-6.23s3.31,1.2,5.83,1.99c2.51.8,5.83-4.77,3.44-8.48-2.38-3.72-7.55-9.55-12.59-13.92-5.04-4.38-4.77-10.74-4.77-10.74l-.03-.26c4.1-.37,8.26-.56,12.46-.56,13.52,0,26.57,1.96,38.9,5.6,11.31,3.35,22.01,8.12,31.88,14.11,3.04,1.84,6,3.8,8.88,5.87.59.83,1.56,3.73,2.14,6.14.66,2.79-.79,5.84,1.19,5.44,1.99-.4,1.32-3.71,3.71-2.52s3.98,1.32,4.38.26l.07-.08c6.24,5.61,11.95,11.78,17.05,18.44-1,.35-7.63,2.75-6.77,4.59.93,1.99,2.92,3.18,3.05,5.31.13,2.12,2.65,1.59,5.31,1.59s3.05.53.93,1.86,3.71-.79,3.45,2.25c-.26,3.05.66,4.91-1.59,5.31s-2.78,1.19-3.85,0c-1.06-1.19-4.91-.79-3.18.13,1.73.93,3.32,2.25,4.91,3.45,1.59,1.19,1.59,4.38,3.18,3.71,1.59-.66-2.12-5.44.4-5.04s1.99,4.11,4.51,4.37c2.52.27,3.71,2.12,3.18,4.25-.53,2.12,3.85.4,3.98,3.18.13,2.79.66,2.79,2.12,6.37,1.18,2.9,2.97,5.11,3.61,5.84,2.36,8.88,3.83,18.11,4.31,27.61-.52.01-4.9.12-7.51,1.99-2.79,1.99-4.51,2.12-3.58,3.05s3.71.66,5.7-1.86c1.99-2.51,5.04-1.72,5.04-1.72l.42-.02c.07,1.81.11,3.63.11,5.46,0,15.13-2.51,29.69-7.14,43.27h-.02c.27-3.46-4.24-9.84-3.58-12.09s-2.79-8.36-2.52-11.01c.26-2.66-1.73-4.25-5.18-3.45s-1.19-1.85-3.71-1.19-1.2,1.46-5.84,1.86c-4.64.39-3.32-.93-5.57-.8s-1.19,1.72-1.59,3.05c-.4,1.32-.93-.93-3.98,1.85s-2.52,3.45-4.51,1.99-7.17-.27-9.95,5.04c-2.79,5.31.39,6.1.79,7.43s-2.79.67-4.51-.66c-1.73-1.32-5.05.53-7.83,3.32-2.78,2.78-5.97,1.59-10.35,3.18-4.37,1.59-6.63,8.09-2.78,10.88,3.84,2.79,2.92,7.04,2.52,12.21-.4,5.18,3.05,5.71,2.65,9.82s1.33,7.04,5.97,8.36c4.64,1.33,4.9,3.32,4.24,7.3s5.18,5.7,4.78,9.55,4.64,7.03,4.64,7.03l.17.21c-22.9,17.42-51.55,27.78-82.63,27.78-15.9,0-31.16-2.71-45.34-7.69ZM366.45,189.06c1.72.27,5.04-1.86,2.12-1.72,0,0-3.85,1.46-2.12,1.72ZM358.88,187.08c1.59.13,1.6-2.34,1.33-2.79-.79-1.33-5.97.79-5.44,1.06s2.52,1.6,4.11,1.73ZM268.67,103.63h-.01s-2.39-.8-.79-2.26c1.59-1.46-.93-3.32-1.99-4.11s-.13-3.18-1.99-1.33c-1.85,1.86-.66,1.73-.26,3.32s-2.12,1.99.66,4.38,4.38,0,4.38,0ZM261.61,93.41c1.33-1.06,1.99-3.18.93-3.58s-1.59-4.37-2.65-3.58c-1.06.8.14,2.39-1.32,1.86s-1.46.66-.4,2.25c1.07,1.59.67,1.72-1.19,3.18s-3.45,3.85-4.51,5.71-2.12,1.19-1.99,3.31c.13,2.13,1.99,2.53,4.51,2.79,1.79.19,4.09,1.44,5.01,2.05.03.16.12.28.28.33h.02c.23.09.09-.06-.3-.33-.29-1.04,1.44-4.01-.51-4.58-2.25-.66-.4-.66.13-1.98.53-1.33-1.06-1.2-2.38-1.73-1.33-.53,1.99-2.25,3.05-3.58s0-1.06,1.32-2.12ZM162.12,256.07c1.99,1.46,9.15-8.23,6.63-9.95s.54-8.22-3.18-9.02-4.91-7.17-4.91-7.17c-1.72-.93-4.24,7.83-1.32,10.48,2.91,2.66.79,14.2,2.78,15.66ZM148.45,246.77c1.59.13,2.78-.13,1.19-1.32s-2.39-1.19-3.05-2.26c-.66-1.06-1.33.13-1.33.13h.01s.4,2.93,1.33,2.13.26,1.19,1.85,1.32ZM115.64,186.83c2.12-.93.13-4.11.13-4.64h.01c0-.53-1.99.8-2.52,1.99s.26,3.58,2.38,2.65Z"/>
    <path class="st0" d="M376.48,179.12c.03.48.05.96.07,1.44l-.42.02s-3.05-.79-5.04,1.72c-1.99,2.52-4.77,2.79-5.7,1.86s.79-1.06,3.58-3.05c2.61-1.87,6.99-1.98,7.51-1.99Z"/>
    <path class="st0" d="M308.97,48.87c1.47-1.57,4.39-3.23,4.34-4.12,0-.04-.03-.1-.09-.16,1.33.88,34.94,23.46,58.79,52.94,25.87,31.97,67.67,203.52-116.76,237.89h-.07l-.08-2.45h-.01c-21.18,3.18-30.41-.64-30.41-.64,0,0-.01,1.12-.02,2.87-1.01-.21-27.74-5.77-41.35-9.93l5.64-10.8c1.28.51,43.18,17.14,90.72,3.16,48.29-14.19,78.68-46.84,95-85.64,16.32-38.8,18.11-128.53-69.41-178.09,1.26-1.74,2.7-3.71,3.33-4.57.11-.15.24-.31.38-.46Z"/>
    <path class="st0" d="M372.17,151.51c-.64-.73-2.43-2.94-3.61-5.84-1.46-3.58-1.99-3.58-2.12-6.37-.13-2.78-4.51-1.06-3.98-3.18.53-2.13-.66-3.98-3.18-4.25-2.52-.26-1.99-3.97-4.51-4.37s1.19,4.38-.4,5.04c-1.59.67-1.59-2.52-3.18-3.71-1.59-1.2-3.18-2.52-4.91-3.45-1.73-.92,2.12-1.32,3.18-.13,1.07,1.19,1.6.4,3.85,0s1.33-2.26,1.59-5.31c.26-3.04-5.57-.92-3.45-2.25s1.73-1.86-.93-1.86-5.18.53-5.31-1.59c-.13-2.13-2.12-3.32-3.05-5.31-.86-1.84,5.77-4.24,6.77-4.59,10.64,13.86,18.64,29.83,23.24,47.17Z"/>
    <path class="st0" d="M369.5,229.28h.02c-8.73,25.62-24.99,47.78-46.16,63.89l-.17-.21s-5.04-3.18-4.64-7.03-5.44-5.57-4.78-9.55.4-5.97-4.24-7.3c-4.64-1.32-6.37-4.25-5.97-8.36s-3.05-4.64-2.65-9.82c.4-5.17,1.32-9.42-2.52-12.21-3.85-2.79-1.59-9.29,2.78-10.88,4.38-1.59,7.57-.4,10.35-3.18,2.78-2.79,6.1-4.64,7.83-3.32,1.72,1.33,4.91,1.99,4.51.66s-3.58-2.12-.79-7.43c2.78-5.31,7.96-6.5,9.95-5.04s1.46.79,4.51-1.99,3.58-.53,3.98-1.85c.4-1.33-.66-2.92,1.59-3.05s.93,1.19,5.57.8c4.64-.4,3.32-1.2,5.84-1.86s.26,1.99,3.71,1.19,5.44.79,5.18,3.45c-.27,2.65,3.18,8.76,2.52,11.01s3.85,8.63,3.58,12.08Z"/>
    <path class="st0" d="M368.57,187.34c2.92-.14-.4,1.99-2.12,1.72-1.73-.26,2.12-1.72,2.12-1.72Z"/>
    <path class="st0" d="M360.21,184.29c.27.45.26,2.92-1.33,2.79s-3.58-1.46-4.11-1.73,4.65-2.39,5.44-1.06Z"/>
    <path class="st0" d="M356.67,422.05c1.41,13.42-15.59,30.56-63.73,38.34-55.85,9.03-98.77,3.05-128.43-4.41-22.9-5.77-37.92-16.59-40.26-27.63,3.52,3.35,34.86,30.74,118.27,31.04,88.61.32,113.39-27.09,114.15-37.34Z"/>
    <path class="st0" d="M354.64,415.94c1.12,1.9,1.82,3.96,2.03,6.11-.76,10.25-25.54,37.66-114.15,37.34-83.41-.3-114.75-27.69-118.27-31.04-.69-3.25-.28-6.52,1.35-9.69,7.17-13.93,19.21-15.92,24.38-17.21s16.42-5.17,16.42-5.17c45.57-15.92,53.7-36.15,53.7-36.15l.04-.02c.92,1.43,10.99,8.11,26.39,5.38,8.31-1.47,12.17-3.29,13.07-4.96,23.38,30.28,60.98,38.03,66.92,38.69,5.96.66,20.03,2.92,28.12,16.72Z"/>
    <path class="st0" d="M343.76,114.63c-.66,2.25,1.99,3.98,1.46,5.31-.53,1.32-1.19.4-4.25.13-3.05-.27-1.72,1.85-3.71,1.59-1.99-.27-3.98.4-3.98.4,0,0,1.06-3.18,3.32-3.85,2.25-.66-1.19-2.52,1.32-2.25,2.52.27,2.26.53,3.19-.53s.4-3.05-.66-3.05c.24,0,3.95.07,3.31,2.25Z"/>
    <path class="st0" d="M331.88,85.9l-.07.08c-.4,1.06-1.99.93-4.38-.26s-1.72,2.12-3.71,2.52c-1.98.4-.53-2.65-1.19-5.44-.58-2.41-1.55-5.31-2.14-6.14,4,2.88,7.83,5.97,11.49,9.24Z"/>
    <path class="st0" d="M313.21,44.58h0c.06.07.09.13.09.17.05.89-2.87,2.55-4.34,4.12l-10.25-4.84h0c.14-.47.21-.84.2-1.04-.06-1.37,0-4.26.85-4.78.04-.02.08-.03.15-.03,1.55-.05,12.24,5.1,13.3,6.4Z"/>
    <path class="st0" d="M285.79,53.03c6.65,2.24,19.07,7.24,24.58,10.26,1.45.79,2.42,1.45,2.69,1.89,1.31,2.16-.71,4.7-1.55,5.61-9.87-5.99-20.57-10.76-31.88-14.11l.04-.14c.13-.26-.06-4.32,1.83-4.65.41-.07,2.01.37,4.29,1.14Z"/>
    <path class="st0" d="M303.09,56.87c3.43,1.64,6.21,3.04,6.69,3.33,1.31.79.59,3.08.59,3.08h0c-5.51-3.01-17.93-8.01-24.58-10.25.1-.54.52-1.9,2.13-2.26.74-.16,3.69.95,7.19,2.45,2.57,1.12,5.45,2.45,7.98,3.65Z"/>
    <path class="st0" d="M295.98,51.18c.89-2.12,2.23-5.39,2.73-7.15h0l10.25,4.84c-.14.15-.27.31-.38.46-.63.86-2.07,2.83-3.33,4.57-.98,1.33-1.85,2.53-2.17,2.97-2.53-1.2-5.41-2.53-7.98-3.65v-.02s.37-.83.87-2.02Z"/>
    <path class="st0" d="M299.89,38.01l.02.17c-.07,0-.11.01-.15.03-.85.52-.91,3.41-.85,4.78.01.2-.06.57-.2,1.04-.5,1.76-1.84,5.03-2.73,7.15-.44-1.02-3.7-8.56-4.99-9.11-1.38-.59-4.45-5.69-1.64-6.81,2.82-1.11,10.54,2.75,10.54,2.75Z"/>
    <path class="st0" d="M292.41,68.2c2.78.66-3.71,2.39-1.19,3.45s-2.65,4.91-5.7,3.72-5.18-2.52-7.17-4.11-.26-6.64,4.78-3.85c.82.45,1.4.76,1.78.95.89.75,2.25,1.53,3.52.9,2.12-1.06,1.19-1.73,3.98-1.06Z"/>
    <path class="st0" d="M283.94,67.42c.25.17,2.87,1.89.97.94-.52-.42-.88-.84-.97-.94Z"/>
    <path class="st0" d="M271.89,173.04c2.25,3.71-4.77,5.3-1.06,11.26,3.71,5.96-8.48,16.17-15.37,19.22s-3.84-.66-9.28-.93c-5.43-.27-5.7-4.64-9.94-4.11s-2.52,2.25-3.84,3.58-2.52-3.31-5.3-.13c-2.79,3.18.66,7.82-1.46,11.4s-8.35,10.47-9.15,16.83c-.79,6.36,1.99,7.02,1.06,12.59-.93,5.56-5.83,11-6.36,16.43s-.27,4.91-3.45,9.15-3.18,8.75-1.85,9.41c1.32.66-2.65,1.45-6.23-.66-3.58-2.12-1.99.66-8.35-2.78s-7.42-14.05-6.89-15.64-2.25-1.06-3.45-3.71c-1.19-2.65,3.84-7.29,1.33-10.07-2.52-2.78-9.55-6.1-7.56-13.52s6.63-14.45.4-21.47c-6.23-7.03-14.32-20.41-12.59-26.11,1.72-5.7,8.35,4.24,10.74.93,1.26-1.76,1.74-2.99,2.45-4.06.62-.95,1.43-1.77,3.11-2.7,3.58-1.98,1.19-4.5,4.24-6.62,3.04-2.12,3.04-4.24,3.31-7.29.27-3.04,3.18-1.59,3.45-4.37s1.06-3.05,2.91-5.96,2.65-4.77,1.85-4.9-1.72-1.06-3.57.66c-1.86,1.72-1.59,3.31-4.37,5.7-2.78,2.38-5.3,4.24-4.24,6.89s.4,2.65-2.78,4.77-3.71,3.97-3.97,6.63c-.26,2.65,0,6.1-1.86,6.1s-9.01-6.1-12.59-8.09c-3.57-1.99-11.4-10.6-10.34-13.52,1.06-2.91,5.17-1.06,5.7-3.44s1.99-.66,4.11.79c2.12,1.46,4.64,1.32,5.56-1.19.93-2.52,3.05-4.77,3.98-6.76.93-1.98,1.72-3.58.4-3.97-1.32-.4-2.51-.13-3.58,1.32-1.06,1.46-2.52,3.84-4.64,4.77s-3.71.93-4.64.13c-.93-.79-3.31-1.06-3.44.26s1.85,1.85-1.46,1.85-5.83.53-7.42-.26-1.19-2.65-3.84-1.59-4.77,2.38-5.43,3.97.26,3.05-1.72,2.78c-1.99-.26-1.99-3.18-3.45-1.59-1.45,1.59-2.91,3.84-2.65,6.36.27,2.52-3.84,16.31-6.63,19.08-2.78,2.78-6.36,0-5.43-2.38s2.91-6.63,1.06-9.01c-1.85-2.39-3.18-2.91-5.17-5.57-1.98-2.65-4.64-4.5-4.64-4.5h-.03c11.81-57.65,60.62-101.94,120.74-107.36l.03.26s-.27,6.36,4.77,10.74c5.04,4.37,10.21,10.2,12.59,13.92,2.39,3.71-.93,9.28-3.44,8.48-2.52-.79-4.37-4.24-5.83-1.99s-5.83,5.3-3.84,6.23c1.19.56,2.57,1.84,2.74,2.59.12.5-.31.78-1.68.46-3.45-.79-5.43-5.83-5.97-8.35-.53-2.52-4.24-1.46-3.04-4.11,1.19-2.65,5.17-3.18,2.78-7.03-2.38-3.84-5.83-3.97-5.3-6.36s-.93-5.97-4.5-4.77c-3.58,1.19-.66,3.31,1.85,6.63,2.51,3.31.13,7.69-2.65,8.35s-5.43-5.17-8.88-2.12c-3.44,3.05,3.71,2.38,6.49,3.84s-1.06,6.1,1.59,6.89,3.18-1.32,3.45,0c.26,1.32-.93,6.23,2.25,7.55,3.18,1.33,3.18-1.59,4.77.93s4.11,3.18,8.22,2.12c3.45-.89,4-2.33,3.54-4.11-.09-.34-.21-.69-.36-1.06-.93-2.25-1.19-4.77.93-3.58s-1.72,9.68.93,10.87,3.84-.27,4.51,2.65c.66,2.91.79,1.72,4.37,3.44s1.85,5.44,4.64,5.3,7.02,1.19,3.84,2.78-8.62,9.94-3.84,10.61c4.77.66,13.12.4,11.66,3.31-1.45,2.91-2.78,3.31-.93,7.02,1.86,3.71-1.06,4.24-3.57,4.37-2.15.11-2.27,2.63-4.23,1.57-.34-.19-.73-.48-1.2-.91-3.18-2.91-4.51-4.51-5.04-7.16s-1.72-1.72-3.58-4.37,2.12-5.7-1.99-4.77-4.5.93-5.96-1.59-2.65-3.84-3.97-1.32c-1.33,2.52-1.46,4.11-4.24,4.77s-3.71,1.72-4.77,4.24-1.99,1.99,0,3.58c1.98,1.59,2.91,1.19,2.91,1.19,0,0-.66,2.65-2.65,1.45-1.99-1.19-3.45-3.31-3.05-4.77s1.46-2.39.66-2.25c-.8.13-3.98,2.12-2.12.13s1.86-2.39,5.7-4.64,5.03-2.91,4.5-5.3-1.72-1.59-3.71.13c-1.98,1.72-3.57,2.78-5.7,3.58-2.12.79-3.31-.4-3.71,1.99-.4,2.38.13,3.05-1.46,5.03-1.59,1.99-2.52,2.78-3.71,3.98-1.19,1.19-4.24.26-3.05-1.32,1.19-1.59,4.77-3.31,3.84-4.77s-.66-3.44-2.91-2.25c-1.6.85-2.74,1.03-4.02.39-.53-.25-1.07-.65-1.68-1.18-2.12-1.86.26-8.22-1.99-10.74-2.25-2.51-2.39-2.25-4.77-1.32s-3.57.4-5.7-1.45c-2.12-1.85-3.31-4.11-4.24-3.05s1.32,3.44,1.85,5.04c.53,1.59-.66.66-3.44,3.44s-5.17,6.76-2.39,6.89,7.03-2.78,9.68-1.33c2.65,1.46,3.44,2.92,7.69,3.18,2.18.13,3.45.13,4.1.65.61.5.66,1.46.4,3.46-.53,4.11-4.24,6.49-6.23,5.7s-.66-1.45-2.52,0c-1.85,1.46-4.11-3.44-6.23-2.12s-2.52,12.19,2.38,13.92,13.92.4,15.91-.93c1.99-1.32,4.37-2.51,4.37-.79s1.72,6.5,6.1,4.77,2.65-4.24,7.02-3.05,6.23-3.97,5.17-5.7-.66-5.83,4.37-3.31,11.93,1.06,13.12,4.11c.9,2.31,3.1,1.04,5.09,1.04.64,0,1.26.13,1.8.55,2.25,1.72,5.96,5.04,5.56,6.49-.4,1.46-2.52,6.23,3.45,10.21,5.96,3.97,3.84,10.74,6.09,14.45Z"/>
    <path class="st0" d="M268.66,103.62h.01s-1.6,2.4-4.38.01-.26-2.79-.66-4.38-1.59-1.46.26-3.32c1.86-1.85.93.54,1.99,1.33s3.58,2.65,1.99,4.11c-1.6,1.46.79,2.25.79,2.25Z"/>
    <path class="st0" d="M262.54,89.83c1.06.4.4,2.52-.93,3.58-1.32,1.06-.26.79-1.32,2.12s-4.38,3.05-3.05,3.58c1.32.53,2.91.4,2.38,1.73-.53,1.32-2.38,1.32-.13,1.98,1.95.57.22,3.54.51,4.58-.92-.61-3.22-1.86-5.01-2.05-2.52-.26-4.38-.66-4.51-2.79-.13-2.12.93-1.45,1.99-3.31s2.65-4.25,4.51-5.71,2.26-1.59,1.19-3.18c-1.06-1.59-1.06-2.78.4-2.25s.26-1.06,1.32-1.86c1.06-.79,1.59,3.18,2.65,3.58Z"/>
    <path class="st0" d="M260,107.4c.39.27.53.42.3.34h-.02c-.16-.06-.25-.18-.28-.34Z"/>
    <path class="st0" d="M259.6,360.53c-.9,1.67-4.76,3.49-13.07,4.96-15.4,2.73-25.47-3.95-26.39-5.38-.01-.03-.03-.06-.04-.08-.53-1.15,3.78-3.78,4.42-4.16v.03c0,1.9,3.5,6.52,15.13,6.84,11.62.32,16.24-5.73,16.24-5.73v-.24s.12,0,.12,0c2.84.9,4.39,2.27,3.59,3.76Z"/>
    <path class="st0" d="M234.43,122.08c.04.22.69,3.69,1.59,3.31.93-.4,1.06-2.12,1.06-2.12l-2.65-1.19ZM256.16,139.07l-1.17,2.27c-1.99,0-4.19,1.27-5.09-1.04-1.19-3.05-8.09-1.59-13.12-4.11s-5.43,1.58-4.37,3.31-.8,6.89-5.17,5.7-2.64,1.32-7.02,3.05-6.1-3.05-6.1-4.77-2.38-.53-4.37.79c-1.99,1.33-11.01,2.66-15.91.93s-4.5-12.6-2.38-13.92,4.38,3.58,6.23,2.12c1.86-1.45.53-.79,2.52,0s5.7-1.59,6.23-5.7c.26-2,.21-2.96-.4-3.46l.89-.13c1.28.64,2.42.46,4.02-.39,2.25-1.19,1.98.79,2.91,2.25s-2.65,3.18-3.84,4.77c-1.19,1.58,1.86,2.51,3.05,1.32,1.19-1.2,2.12-1.99,3.71-3.98,1.59-1.98,1.06-2.65,1.46-5.03.4-2.39,1.59-1.2,3.71-1.99,2.13-.8,3.72-1.86,5.7-3.58,1.99-1.72,3.18-2.52,3.71-.13s-.66,3.05-4.5,5.3-3.84,2.65-5.7,4.64,1.32,0,2.12-.13c.8-.14-.26.79-.66,2.25s1.06,3.58,3.05,4.77c1.99,1.2,2.65-1.45,2.65-1.45,0,0-.93.4-2.91-1.19-1.99-1.59-1.06-1.06,0-3.58s1.99-3.58,4.77-4.24,2.91-2.25,4.24-4.77c1.32-2.52,2.51-1.2,3.97,1.32s1.85,2.52,5.96,1.59.13,2.12,1.99,4.77,3.05,1.72,3.58,4.37,1.86,4.25,5.04,7.16c.47.43.86.72,1.2.91ZM235.09,131.09c1.06-.53,1.99-1.72,1.33-2.79-.66-1.06-2.39-1.32-2.39-1.32,0,0,0,4.64,1.06,4.11ZM208.95,138.39c2.12-.66,3.05-1.59,1.99-1.99s-4.11,0-4.11,0c-.66.13-.79.13-.79.13h-.01s.79,2.52,2.92,1.86ZM196.08,136.92c.79-.93-1.06-3.31-2.52-1.19,0,0,1.72,2.12,2.52,1.19Z"/>
    <path class="st0" d="M224.66,335.2c0-1.75.02-2.87.02-2.87,0,0,9.23,3.82,30.41.64h.01l.08,2.45.7,21.35v.24s-4.61,6.05-16.23,5.73c-11.63-.32-15.13-4.94-15.13-6.84v-.03c0-1.61.1-14.75.14-20.67Z"/>
    <path class="st0" d="M238.21,91.79c.46,1.78-.09,3.22-3.54,4.11-4.11,1.06-6.63.4-8.22-2.12s-1.59.4-4.77-.93c-3.18-1.32-1.99-6.23-2.25-7.55-.27-1.32-.8.79-3.45,0s1.19-5.43-1.59-6.89-9.93-.79-6.49-3.84c3.45-3.05,6.1,2.78,8.88,2.12s5.16-5.04,2.65-8.35c-2.51-3.32-5.43-5.44-1.85-6.63,3.57-1.2,5.03,2.38,4.5,4.77s2.92,2.52,5.3,6.36c2.39,3.85-1.59,4.38-2.78,7.03-1.2,2.65,2.51,1.59,3.04,4.11.54,2.52,2.52,7.56,5.97,8.35,1.37.32,1.8.04,1.68-.46l2.92-.08Z"/>
    <path class="st0" d="M234.43,122.08l2.65,1.19s-.13,1.72-1.06,2.12c-.9.38-1.55-3.09-1.59-3.31Z"/>
    <path class="st0" d="M236.42,128.3c.66,1.07-.27,2.26-1.33,2.79s-1.06-4.11-1.06-4.11c0,0,1.73.26,2.39,1.32Z"/>
    <path class="st0" d="M210.94,136.4c1.06.4.13,1.33-1.99,1.99-2.13.66-2.92-1.86-2.92-1.86h.01s.13,0,.79-.13c0,0,3.05-.4,4.11,0Z"/>
    <path class="st0" d="M206.93,124.11l-.89.13c-.65-.52-1.92-.52-4.1-.65-4.25-.26-5.04-1.72-7.69-3.18-2.65-1.45-6.9,1.46-9.68,1.33s-.39-4.11,2.39-6.89,3.97-1.85,3.44-3.44c-.53-1.6-2.78-3.98-1.85-5.04s2.12,1.2,4.24,3.05c2.13,1.85,3.32,2.38,5.7,1.45s2.52-1.19,4.77,1.32c2.25,2.52-.13,8.88,1.99,10.74.61.53,1.15.93,1.68,1.18Z"/>
    <path class="st0" d="M193.56,135.73c1.46-2.12,3.31.26,2.52,1.19-.8.93-2.52-1.19-2.52-1.19Z"/>
    <path class="st0" d="M194.61,148.81c.8.13,0,1.99-1.85,4.9s-2.64,3.18-2.91,5.96-3.18,1.33-3.45,4.37c-.27,3.05-.27,5.17-3.31,7.29-3.05,2.12-.66,4.64-4.24,6.62-1.68.93-2.49,1.75-3.11,2.7l-1.92-1.09c1.86,0,1.6-3.45,1.86-6.1.26-2.66.79-4.51,3.97-6.63s3.84-2.12,2.78-4.77,1.46-4.51,4.24-6.89c2.78-2.39,2.51-3.98,4.37-5.7,1.85-1.72,2.77-.79,3.57-.66Z"/>
    <path class="st0" d="M195.39,313.26c-2.19.28-4.17.31-5.93.15-4.12-.36-7.13-1.74-9.29-3.36-2.74-2.03-4.13-4.44-4.69-5.63,6.34,3.45,13,6.42,19.91,8.84Z"/>
    <path class="st0" d="M188.95,314.47l-5.64,10.8c-3.02-.92-5.39-1.77-6.7-2.48-.59-.33-1.16-.65-1.72-.98l5.06-11.45.22-.31c2.16,1.62,5.17,3,9.29,3.36v.11s-.51.95-.51.95Z"/>
    <path class="st0" d="M179.95,310.36l-5.06,11.45s-.09-.05-.13-.07c-6.23-3.64-9.96-7.25-8.65-9.14,1.43-2.07,5.25.31,7.32-1.28s6.52-.96,6.52-.96Z"/>
    <path class="st0" d="M168.75,246.12c2.52,1.72-4.64,11.41-6.63,9.95s.13-13-2.78-15.66c-2.92-2.65-.4-11.41,1.32-10.48,0,0,1.19,6.37,4.91,7.17s.66,7.3,3.18,9.02Z"/>
    <path class="st0" d="M149.64,245.45c1.59,1.19.4,1.45-1.19,1.32s-.92-2.12-1.85-1.32-1.33-2.12-1.33-2.12h-.01s.67-1.2,1.33-.14c.66,1.07,1.46,1.07,3.05,2.26Z"/>
    <path class="st0" d="M115.77,182.19c0,.53,1.99,3.71-.13,4.64s-2.91-1.46-2.38-2.65,2.52-2.52,2.52-1.99h-.01Z"/>
  </g>
  <g>
    <path class="st1" d="M228.27,51.64c4.1-.37,8.26-.56,12.46-.56,13.52,0,26.57,1.96,38.9,5.6,11.31,3.35,22.01,8.12,31.88,14.11,3.04,1.84,6,3.8,8.88,5.87,4,2.88,7.83,5.97,11.49,9.24,6.24,5.61,11.95,11.78,17.05,18.44,10.64,13.86,18.64,29.83,23.24,47.17,2.36,8.88,3.83,18.11,4.31,27.61.03.48.05.96.07,1.44.07,1.81.11,3.63.11,5.46,0,15.13-2.51,29.69-7.14,43.27-8.73,25.61-24.99,47.77-46.16,63.88-22.9,17.42-51.55,27.78-82.63,27.78-15.9,0-31.16-2.71-45.34-7.69-6.91-2.42-13.57-5.39-19.91-8.84-42.12-22.93-70.68-67.35-70.68-118.4,0-9.26.94-18.3,2.73-27.03,11.81-57.64,60.62-101.93,120.74-107.35Z"/>
    <path class="st1" d="M228.3,51.9s-.27,6.36,4.77,10.74c5.04,4.37,10.21,10.2,12.59,13.92,2.39,3.71-.93,9.28-3.44,8.48-2.52-.79-4.37-4.24-5.83-1.99s-5.83,5.3-3.84,6.23c1.19.56,2.57,1.84,2.74,2.59.12.5-.31.78-1.68.46-3.45-.79-5.43-5.83-5.97-8.35-.53-2.52-4.24-1.46-3.04-4.11,1.19-2.65,5.17-3.18,2.78-7.03-2.38-3.84-5.83-3.97-5.3-6.36s-.93-5.97-4.5-4.77c-3.58,1.19-.66,3.31,1.85,6.63,2.51,3.31.13,7.69-2.65,8.35s-5.43-5.17-8.88-2.12c-3.44,3.05,3.71,2.38,6.49,3.84s-1.06,6.1,1.59,6.89,3.18-1.32,3.45,0c.26,1.32-.93,6.23,2.25,7.55,3.18,1.33,3.18-1.59,4.77.93s4.11,3.18,8.22,2.12c3.45-.89,4-2.33,3.54-4.11-.09-.34-.21-.69-.36-1.06-.93-2.25-1.19-4.77.93-3.58s-1.72,9.68.93,10.87,3.84-.27,4.51,2.65c.66,2.91.79,1.72,4.37,3.44s1.85,5.44,4.64,5.3,7.02,1.19,3.84,2.78-8.62,9.94-3.84,10.61c4.77.66,13.12.4,11.66,3.31-1.45,2.91-2.78,3.31-.93,7.02,1.86,3.71-1.06,4.24-3.57,4.37-2.15.11-2.27,2.63-4.23,1.57-.34-.19-.73-.48-1.2-.91-3.18-2.91-4.51-4.51-5.04-7.16s-1.72-1.72-3.58-4.37,2.12-5.7-1.99-4.77-4.5.93-5.96-1.59-2.65-3.84-3.97-1.32c-1.33,2.52-1.46,4.11-4.24,4.77s-3.71,1.72-4.77,4.24-1.99,1.99,0,3.58c1.98,1.59,2.91,1.19,2.91,1.19,0,0-.66,2.65-2.65,1.45-1.99-1.19-3.45-3.31-3.05-4.77s1.46-2.39.66-2.25c-.8.13-3.98,2.12-2.12.13s1.86-2.39,5.7-4.64,5.03-2.91,4.5-5.3-1.72-1.59-3.71.13c-1.98,1.72-3.57,2.78-5.7,3.58-2.12.79-3.31-.4-3.71,1.99-.4,2.38.13,3.05-1.46,5.03-1.59,1.99-2.52,2.78-3.71,3.98-1.19,1.19-4.24.26-3.05-1.32,1.19-1.59,4.77-3.31,3.84-4.77s-.66-3.44-2.91-2.25c-1.6.85-2.74,1.03-4.02.39-.53-.25-1.07-.65-1.68-1.18-2.12-1.86.26-8.22-1.99-10.74-2.25-2.51-2.39-2.25-4.77-1.32s-3.57.4-5.7-1.45c-2.12-1.85-3.31-4.11-4.24-3.05s1.32,3.44,1.85,5.04c.53,1.59-.66.66-3.44,3.44s-5.17,6.76-2.39,6.89,7.03-2.78,9.68-1.33c2.65,1.46,3.44,2.92,7.69,3.18,2.18.13,3.45.13,4.1.65.61.5.66,1.46.4,3.46-.53,4.11-4.24,6.49-6.23,5.7s-.66-1.45-2.52,0c-1.85,1.46-4.11-3.44-6.23-2.12s-2.52,12.19,2.38,13.92,13.92.4,15.91-.93c1.99-1.32,4.37-2.51,4.37-.79s1.72,6.5,6.1,4.77,2.65-4.24,7.02-3.05,6.23-3.97,5.17-5.7-.66-5.83,4.37-3.31,11.93,1.06,13.12,4.11c.9,2.31,3.1,1.04,5.09,1.04.64,0,1.26.13,1.8.55,2.25,1.72,5.96,5.04,5.56,6.49-.4,1.46-2.52,6.23,3.45,10.21,5.96,3.97,3.84,10.74,6.09,14.45s-4.77,5.3-1.06,11.26c3.71,5.96-8.48,16.17-15.37,19.22s-3.84-.66-9.28-.93c-5.43-.27-5.7-4.64-9.94-4.11s-2.52,2.25-3.84,3.58-2.52-3.31-5.3-.13c-2.79,3.18.66,7.82-1.46,11.4s-8.35,10.47-9.15,16.83c-.79,6.36,1.99,7.02,1.06,12.59-.93,5.56-5.83,11-6.36,16.43s-.27,4.91-3.45,9.15-3.18,8.75-1.85,9.41c1.32.66-2.65,1.45-6.23-.66-3.58-2.12-1.99.66-8.35-2.78s-7.42-14.05-6.89-15.64-2.25-1.06-3.45-3.71c-1.19-2.65,3.84-7.29,1.33-10.07-2.52-2.78-9.55-6.1-7.56-13.52s6.63-14.45.4-21.47c-6.23-7.03-14.32-20.41-12.59-26.11,1.72-5.7,8.35,4.24,10.74.93,1.26-1.76,1.74-2.99,2.45-4.06.62-.95,1.43-1.77,3.11-2.7,3.58-1.98,1.19-4.5,4.24-6.62,3.04-2.12,3.04-4.24,3.31-7.29.27-3.04,3.18-1.59,3.45-4.37s1.06-3.05,2.91-5.96,2.65-4.77,1.85-4.9-1.72-1.06-3.57.66c-1.86,1.72-1.59,3.31-4.37,5.7-2.78,2.38-5.3,4.24-4.24,6.89s.4,2.65-2.78,4.77-3.71,3.97-3.97,6.63c-.26,2.65,0,6.1-1.86,6.1s-9.01-6.1-12.59-8.09c-3.57-1.99-11.4-10.6-10.34-13.52,1.06-2.91,5.17-1.06,5.7-3.44s1.99-.66,4.11.79c2.12,1.46,4.64,1.32,5.56-1.19.93-2.52,3.05-4.77,3.98-6.76.93-1.98,1.72-3.58.4-3.97-1.32-.4-2.51-.13-3.58,1.32-1.06,1.46-2.52,3.84-4.64,4.77s-3.71.93-4.64.13c-.93-.79-3.31-1.06-3.44.26s1.85,1.85-1.46,1.85-5.83.53-7.42-.26-1.19-2.65-3.84-1.59-4.77,2.38-5.43,3.97.26,3.05-1.72,2.78c-1.99-.26-1.99-3.18-3.45-1.59-1.45,1.59-2.91,3.84-2.65,6.36.27,2.52-3.84,16.31-6.63,19.08-2.78,2.78-6.36,0-5.43-2.38s2.91-6.63,1.06-9.01c-1.85-2.39-3.18-2.91-5.17-5.57-1.98-2.65-4.64-4.5-4.64-4.5"/>
    <path class="st1" d="M115.77,182.19c0,.53,1.99,3.71-.13,4.64s-2.91-1.46-2.38-2.65,2.52-2.52,2.52-1.99h-.01Z"/>
    <path class="st1" d="M160.66,229.93s1.19,6.37,4.91,7.17.66,7.3,3.18,9.02-4.64,11.41-6.63,9.95.13-13-2.78-15.66c-2.92-2.65-.4-11.41,1.32-10.48Z"/>
    <path class="st1" d="M145.27,243.33s.4,2.92,1.33,2.12.26,1.19,1.85,1.32,2.78-.13,1.19-1.32-2.39-1.19-3.05-2.26c-.66-1.06-1.33.13-1.33.13h.01Z"/>
    <path class="st1" d="M349.06,104.29s-.04.02-.13.05c-1,.35-7.63,2.75-6.77,4.59.93,1.99,2.92,3.18,3.05,5.31.13,2.12,2.65,1.59,5.31,1.59s3.05.53.93,1.86,3.71-.79,3.45,2.25c-.26,3.05.66,4.91-1.59,5.31s-2.78,1.19-3.85,0c-1.06-1.19-4.91-.79-3.18.13,1.73.93,3.32,2.25,4.91,3.45,1.59,1.19,1.59,4.38,3.18,3.71,1.59-.66-2.12-5.44.4-5.04s1.99,4.11,4.51,4.37c2.52.27,3.71,2.12,3.18,4.25-.53,2.12,3.85.4,3.98,3.18.13,2.79.66,2.79,2.12,6.37,1.18,2.9,2.97,5.11,3.61,5.84.15.18.24.27.24.27"/>
    <path class="st1" d="M320.14,76.43c.07.02.15.1.25.23.59.83,1.56,3.73,2.14,6.14.66,2.79-.79,5.84,1.19,5.44,1.99-.4,1.32-3.71,3.71-2.52s3.98,1.32,4.38.26"/>
    <path class="st1" d="M284.91,68.36c1.9.95-.72-.77-.97-.94-.01-.01-.02-.01-.02-.01h0"/>
    <path class="st1" d="M284.91,68.36c.89.75,2.25,1.53,3.52.9,2.12-1.06,1.19-1.73,3.98-1.06,2.78.66-3.71,2.39-1.19,3.45s-2.65,4.91-5.7,3.72-5.18-2.52-7.17-4.11-.26-6.64,4.78-3.85c.82.45,1.4.76,1.78.95Z"/>
    <path class="st1" d="M283.94,67.42c.09.1.45.52.97.94"/>
    <path class="st1" d="M268.66,103.62s-2.39-.79-.79-2.25c1.59-1.46-.93-3.32-1.99-4.11s-.13-3.18-1.99-1.33c-1.85,1.86-.66,1.73-.26,3.32s-2.12,1.99.66,4.38,4.38,0,4.38,0h-.01Z"/>
    <path class="st1" d="M260,107.4c-.92-.61-3.22-1.86-5.01-2.05-2.52-.26-4.38-.66-4.51-2.79-.13-2.12.93-1.45,1.99-3.31s2.65-4.25,4.51-5.71,2.26-1.59,1.19-3.18c-1.06-1.59-1.06-2.78.4-2.25s.26-1.06,1.32-1.86c1.06-.79,1.59,3.18,2.65,3.58s.4,2.52-.93,3.58c-1.32,1.06-.26.79-1.32,2.12s-4.38,3.05-3.05,3.58c1.32.53,2.91.4,2.38,1.73-.53,1.32-2.38,1.32-.13,1.98,1.95.57.22,3.54.51,4.58Z"/>
    <path class="st1" d="M260,107.4c.03.16.12.28.28.33h.02c.23.09.09-.06-.3-.33Z"/>
    <path class="st1" d="M234.03,126.98s0,4.64,1.06,4.11,1.99-1.72,1.33-2.79c-.66-1.06-2.39-1.32-2.39-1.32Z"/>
    <path class="st1" d="M234.43,122.08c.04.22.69,3.69,1.59,3.31.93-.4,1.06-2.12,1.06-2.12l-2.65-1.19Z"/>
    <path class="st1" d="M234.43,122.07h0"/>
    <path class="st1" d="M206.03,136.53s.79,2.52,2.92,1.86c2.12-.66,3.05-1.59,1.99-1.99s-4.11,0-4.11,0c-.66.13-.79.13-.79.13h-.01Z"/>
    <path class="st1" d="M193.56,135.73s1.72,2.12,2.52,1.19c.79-.93-1.06-3.31-2.52-1.19Z"/>
    <path class="st1" d="M323.19,292.96s-5.04-3.18-4.64-7.03-5.44-5.57-4.78-9.55.4-5.97-4.24-7.3c-4.64-1.32-6.37-4.25-5.97-8.36s-3.05-4.64-2.65-9.82c.4-5.17,1.32-9.42-2.52-12.21-3.85-2.79-1.59-9.29,2.78-10.88,4.38-1.59,7.57-.4,10.35-3.18,2.78-2.79,6.1-4.64,7.83-3.32,1.72,1.33,4.91,1.99,4.51.66s-3.58-2.12-.79-7.43c2.78-5.31,7.96-6.5,9.95-5.04s1.46.79,4.51-1.99,3.58-.53,3.98-1.85c.4-1.33-.66-2.92,1.59-3.05s.93,1.19,5.57.8c4.64-.4,3.32-1.2,5.84-1.86s.26,1.99,3.71,1.19,5.44.79,5.18,3.45c-.27,2.65,3.18,8.76,2.52,11.01s3.85,8.63,3.58,12.08"/>
    <path class="st1" d="M376.13,180.58s-3.05-.79-5.04,1.72c-1.99,2.52-4.77,2.79-5.7,1.86s.79-1.06,3.58-3.05c2.61-1.87,6.99-1.98,7.51-1.99h.05"/>
    <path class="st1" d="M360.21,184.29c.27.45.26,2.92-1.33,2.79s-3.58-1.46-4.11-1.73,4.65-2.39,5.44-1.06Z"/>
    <path class="st1" d="M368.57,187.34s-3.85,1.46-2.12,1.72c1.72.27,5.04-1.86,2.12-1.72Z"/>
    <path class="st1" d="M340.45,112.38c.24,0,3.95.07,3.31,2.25-.66,2.25,1.99,3.98,1.46,5.31-.53,1.32-1.19.4-4.25.13-3.05-.27-1.72,1.85-3.71,1.59-1.99-.27-3.98.4-3.98.4,0,0,1.06-3.18,3.32-3.85,2.25-.66-1.19-2.52,1.32-2.25,2.52.27,2.26.53,3.19-.53s.4-3.05-.66-3.05Z"/>
    <path class="st1" d="M340.44,112.38h.01"/>
    <path class="st1" d="M279.67,56.54c.13-.26-.06-4.32,1.83-4.65.41-.07,2.01.37,4.29,1.14,6.65,2.24,19.07,7.24,24.58,10.26,1.45.79,2.42,1.45,2.69,1.89,1.31,2.16-.71,4.7-1.55,5.61-.21.22-.35.35-.35.35"/>
    <path class="st1" d="M310.37,63.28s.72-2.29-.59-3.08c-.48-.29-3.26-1.69-6.69-3.33-2.53-1.2-5.41-2.53-7.98-3.65-3.5-1.5-6.45-2.61-7.19-2.45-1.61.36-2.03,1.72-2.13,2.26-.02.14-.03.23-.03.23"/>
    <path class="st1" d="M313.22,44.59c.06.06.09.12.09.16.05.89-2.87,2.55-4.34,4.12-.14.15-.27.31-.38.46-.63.86-2.07,2.83-3.33,4.57-.98,1.33-1.85,2.53-2.17,2.97-.08.12-.13.18-.13.18"/>
    <path class="st1" d="M295.12,53.2s.36-.83.86-2.02c.89-2.12,2.23-5.39,2.73-7.15.14-.47.21-.84.2-1.04-.06-1.37,0-4.26.85-4.78.04-.02.08-.03.15-.03,1.55-.05,12.24,5.1,13.3,6.4"/>
    <polyline class="st1" points="298.72 44.03 308.97 48.87 309.13 48.95"/>
    <path class="st1" d="M296.03,51.3s-.02-.04-.05-.12c-.44-1.02-3.7-8.56-4.99-9.11-1.38-.59-4.45-5.69-1.64-6.81,2.82-1.11,10.54,2.75,10.54,2.75"/>
    <path class="st1" d="M313.18,44.56s.01.01.03.02h0c1.33.89,34.94,23.47,58.79,52.95,25.87,31.97,67.67,203.52-116.76,237.89"/>
    <path class="st1" d="M224.66,335.2c0-1.75.02-2.87.02-2.87,0,0,9.23,3.82,30.41.64h.01l.08,2.45.7,21.35v.24s-4.61,6.05-16.23,5.73c-11.63-.32-15.13-4.94-15.13-6.84v-.03c0-1.61.1-14.75.14-20.67Z"/>
    <path class="st1" d="M175.17,303.68s.09.28.31.74c.56,1.19,1.95,3.6,4.69,5.63,2.16,1.62,5.17,3,9.29,3.36,1.76.16,3.74.13,5.93-.15.42-.06.84-.12,1.27-.19"/>
    <polyline class="st1" points="189.45 313.52 188.95 314.47 183.31 325.27 183.21 325.46"/>
    <path class="st1" d="M174.86,321.88l.03-.07,5.06-11.45s-4.45-.63-6.52.96-5.89-.79-7.32,1.28c-1.31,1.89,2.42,5.5,8.65,9.14.04.02.09.05.13.07.56.33,1.13.65,1.72.98,1.31.71,3.68,1.56,6.7,2.48,13.61,4.16,40.34,9.72,41.35,9.93.02.01.03.01.03.01"/>
    <path class="st1" d="M188.92,314.45s.01,0,.03.02c1.28.51,43.18,17.14,90.72,3.16,48.29-14.19,78.68-46.84,95-85.64,16.32-38.8,18.11-128.53-69.41-178.09-.02-.01-.03-.02-.05-.03"/>
    <path class="st1" d="M224.6,355.82s-.03.02-.08.05c-.64.38-4.95,3.01-4.42,4.16.01.02.03.05.04.08.92,1.43,10.99,8.11,26.39,5.38,8.31-1.47,12.17-3.29,13.07-4.96.8-1.49-.75-2.86-3.59-3.76"/>
    <path class="st1" d="M220.1,360.13s-8.13,20.23-53.7,36.15c0,0-11.25,3.88-16.42,5.17s-17.21,3.28-24.38,17.21c-1.63,3.17-2.04,6.44-1.35,9.69,2.34,11.04,17.36,21.86,40.26,27.63,29.66,7.46,72.58,13.44,128.43,4.41,48.14-7.78,65.14-24.92,63.73-38.34-.21-2.15-.91-4.21-2.03-6.11-8.09-13.8-22.16-16.06-28.12-16.72-5.94-.66-43.54-8.41-66.92-38.69-.12-.15-.23-.3-.35-.45"/>
    <path class="st1" d="M123.91,428.02s.11.12.34.33c3.52,3.35,34.86,30.74,118.27,31.04,88.61.32,113.39-27.09,114.15-37.34.01-.03.01-.05.01-.08"/>
  </g>
</svg>