<?xml version="1.0" encoding="UTF-8"?>
<svg id="Layer_1" xmlns="http://www.w3.org/2000/svg" version="1.1" viewBox="0 0 209.76 192.72">
  <!-- Generator: Adobe Illustrator 30.1.0, SVG Export Plug-In . SVG Version: 2.1.1 Build 136)  -->
  <defs>
    <style>
      .st0 {
        fill: lime;
      }

      .st1 {
        opacity: .5;
      }
    </style>
  </defs>
  <g class="st1">
    <path class="st0" d="M40.03,100.43v-8.63c.19-.02.25.22.25.47v7.69c0,.25-.06.49-.25.47Z"/>
    <path class="st0" d="M166.61,112.66c-.07.03-.26-.09-.25-.25v-5.98c.11-.03.25.09.25.25v5.98Z"/>
    <path class="st0" d="M40.03,58.97v-4.55c.19-.02.25.22.25.47v3.62c0,.25-.06.49-.25.47h0Z"/>
    <path class="st0" d="M40.03,53.69v-1.2c.39.21.39.99,0,1.2Z"/>
    <path class="st0" d="M40.03,52.25c-.1-.07-.14-.17-.11-.25.03-.09.11-.18.11-.23.07-.04.26.06.23.12-.08.16-.19.26-.23.36Z"/>
    <path class="st0" d="M40.03,54.17c-.11-.07-.11-.17,0-.24v.24Z"/>
    <g>
      <path class="st0" d="M165.45,112.18l-1.55-.89c-1.16-.67-2.37-1.11-3.51-1.61v-.13c.21.13.19-.05.19-.26l.16-16.63c0-.28.52-9.5-.37-8.03.1-1.77.05-3.55-.06-5.31,0-.06.05-.12.06-.18.87.32.44-3.93.44-4.36l-.02-28.71-13.12,1.4-9.6,1.17c-1.08-.37-2.1-.06-3.1.29.96-2.21-1.91-2.37-1.65-3.14l32.53-3.59.03,69.68c0,.31-.36.42-.44.32v-.02Z"/>
      <path class="st0" d="M166.37,106.43v5.98c-.02.16.17.28.24.25,0,.42-.47.22-.73.11-.2-.09-.33-.37-.42-.59.08.1.44,0,.44-.32l-.03-69.68-32.53,3.59-10.32,1.21-4.84.5-51.53,5.56v37.35l-.02,10.03v10.52c-.01,2.6-.5,5.22-.16,7.93.15,1.16.33,2.22-.05,3.41-.15.47.06,1.01-.02,1.41-.03.18.03.43.24.48-.34,1.49-.25,3.03-.24,4.55l.07,13.15c0,1.43.38,2.71-.04,4.18-.18.63.32,1.46,0,2.2l1.65.12c-1.8,1.15-2.35.55-4.36-.35.39-.31.9.04.99-.34.45-.04.88.48,1.48.17l-.13-30.26-.11-9.97v-54.54l-25.01-3.29.04,6.54c-.24,1.9.03,3.83,0,5.73l-.2,25.63-.06,12.5c0,.31.12.55.28.68-.04.22.03.66-.15.73-.14.05-.69.09-.75-.05-.16-.37-.07-.8-.07-1.13.19.02.25-.22.25-.47v-7.69c0-.25-.06-.49-.25-.47,0-1.97.47-9.26.24-11.04l-.24-1.91v-19.89c.19.02.25-.22.25-.47v-3.62c0-.25-.06-.48-.25-.47,0-.07.02-.18,0-.24v-.24c.02-.06,0-.17,0-.24.39-.21.39-.99,0-1.2v-.24c.04-.1.15-.21.23-.36.03-.06-.15-.16-.23-.12.11-.75-.24-1.72.17-2.45s1.26-.29,2.06-.37l58.08-6.38,45.86-4.78,18.96,3.68c.46.09.92-.16,1.39.18-.12,1.33-.43,2.9-.04,4.23.32,1.07-.12,1.75-.12,2.83v55.28c0,.99-.02,1.62-.02,2.43v.03ZM115.31,41.94c-1.48-.3-2.97.31-4.53.47l-26.18,2.63-40.97,4.31,22.18,3.19,46.16-5.31,5.76-.53,45.64-4.96-17.14-3.39-30.9,3.58h-.02Z"/>
      <path class="st0" d="M122,90.63c-.06,1.99.05,3.99.09,5.98s0,4.16.15,6.22c.12,1.48-.31,3.05-.04,4.55-.27.36-.37,1.16.04,1.44-.07.39-.38.63-.87.82-1.3.5-2.4,1.7-3.22,1.55l-.2-11.02c0-.35-.07-.83-.02-1.18.15-.97-.03-1.93,0-2.9.06-1.59.1-3.19.01-4.79l4.04-.69.02.02Z"/>
      <path class="st0" d="M72.47,110.91l-.2,4.88c-2.41.62-2.95-.72-4.85.45-.54,1.14-.08,7.18-.45,7.43-.14.09-.4,0-.56.01.08-.4-.14-.94.02-1.41.38-1.18.2-2.24.05-3.41-.34-2.71.14-5.33.15-7.93,4.06-1.19,2.55.35,5.85-.03h-.01Z"/>
      <path class="st0" d="M66.4,128.72c0-1.53-.1-3.07.24-4.55.16.04.41-.01.47.14.09.23-.09.43-.14.67-.35,1.73.35,4.14-.57,3.74Z"/>
      <path class="st0" d="M160.32,79.31c.11,1.76.15,3.55.06,5.31,0,.15-.09.3-.09.44-.41.11-.8-.41-1.39-.31l-36.9,5.88-4.04.69-29.01,4.56c-.85-1.47-1.54-3.09-1.7-4.79l48.84-7.98c.52-.09.86.01,1.03-.41h1.68l17.03-2.72c.5-.08.95.03,1.19-.35l3.3-.31h0Z"/>
      <path class="st0" d="M160.38,79.13c0,.06-.07.12-.06.18l-3.3.31c-2.11-.17-.43.63-2.91-.27-.16-.3-.19-.66-.1-1.07l1.92-9.16,2.58-12.46c.18-.86.03-1.68.32-2.58.5-1.54.66-3.14,1.29-4.5.14.79.08,1.5.08,2.45l-.03,26.56c0,.28.12.43.21.53h0Z"/>
      <path class="st0" d="M133.33,45.77c-.26.77,2.61.93,1.65,3.14-1.24.43-2.6.16-3.9.44-2.29.5-4.5.5-6.67.77.15-1.56-.99-1.94-1.41-3.14l10.32-1.21h0Z"/>
      <path class="st0" d="M160.41,109.55l-.08-4.27-.04-20.21c0-.15.08-.3.09-.44.88-1.47.37,7.75.37,8.03l-.16,16.63c0,.21.02.4-.18.26Z"/>
      <path class="st0" d="M118.17,47.49c.03,1.22,1.01,1.73.95,3.31l-8.12.97-3.38.51c-.93.14-1.88.14-2.82.25l-18.94,2.16c-1.25.14-2.42-.18-3.59.27-.58-.48-1.04,0-1.55.07l-8.09,1.01-.02,24.24-.03,11.73c-1.59,1.02-1.29-1.31-4.35-.09-1.51.6-.35-1.54-1.58-1.52v-37.35l51.52-5.56Z"/>
      <path class="st0" d="M110.78,42.41c.17.82.33,1.64.26,2.59.49.74.76,1.48.92,2.24l-46.16,5.31-22.18-3.19,40.97-4.31,26.18-2.63h0Z"/>
      <path class="st0" d="M117.71,46.71c.05-1.24-2.22-2.88-2.4-4.77l30.9-3.58,17.14,3.39s-45.64,4.96-45.64,4.96Z"/>
      <path class="st0" d="M72.57,92.01c0,.35.02.76.14,1.18.04.13.35.05.44.04.58-.09,1.7-.15,2.32-.25l1.27,5.02c-.85.44-1.93.47-2.88.54-.06-.07-.11-.21-.2-.24-.12-.04-.34,0-.33.11l.03.39c.06.94-.26,1.89-.1,2.83-1.8.37-3.49-1.98-5.84-.43-.28-.44-.43-.76-.81-.77l.02-10.03c1.23-.02.07,2.12,1.58,1.52,3.05-1.22,2.75,1.11,4.35.09h.01Z"/>
      <path class="st0" d="M73.28,101.63c.03.16.06.32.08.49-.21-.04-.4-.02-.47.14-.08.19.08.36.07.57l-.48,8.08c-3.3.38-1.78-1.15-5.85.03v-10.52c.39.01.54.33.82.77,2.35-1.55,4.04.81,5.84.43h0Z"/>
      <path class="st0" d="M115.31,41.94c.18,1.89,2.45,3.53,2.4,4.77l-5.76.53c-.16-.76-.43-1.5-.92-2.24.07-.94-.09-1.77-.26-2.59,1.56-.16,3.05-.77,4.53-.47h.01Z"/>
      <path class="st0" d="M123.01,46.99c.42,1.2,1.55,1.58,1.41,3.14l-5.29.67c.06-1.57-.92-2.09-.95-3.31l4.84-.5h-.01Z"/>
      <path class="st0" d="M122.24,108.82c-.41-.28-.31-1.08-.04-1.44.08.47.07.96.04,1.44Z"/>
      <path class="st0" d="M87.25,91.09c.16,1.7.85,3.32,1.7,4.79l-4.34,1-.65-.04c-.17.05-.54-.04-.56.21l-1.12.06c-.18,0-.52-.03-.57.19-.79.07-1.78.21-2.56.46-.13-.31-.57-.18-.87-.22-.28-.04-.77.04-.64.48l-.88-.02-1.27-5.02s11.76-1.89,11.76-1.89Z"/>
      <path class="st0" d="M137.12,82.7c-.17.42-.51.33-1.03.41l-48.84,7.98-11.76,1.89c-.62.1-1.75.15-2.32.25,0-.14.05-.29.03-.43l19.36-3.16c3.84-.63,7.81-.85,11.5-1.99.51.03,1.15.05,1.79-.05l14.03-2.27,17.26-2.64h-.02Z"/>
      <path class="st0" d="M147.86,79.51c1.79.26,3.54.32,5.58.37l-14.63,2.57c-.39.07-.99-.22-1.2.24h-.48l-17.26,2.64v-.49c1.35-.4,3.19-.86,3.95-2.1l.59.19c.1.03.14.24.29.2.08-.02.14-.14.2-.14.14,0,.34-.05.48-.02,2.21.38,4.57.27,6.68-.51,2.89.03,5.73-.95,8.37-2.26,2.41,2.58,6.9-.76,7.42-.68h.01Z"/>
      <path class="st0" d="M154.11,79.36c2.48.89.8.1,2.91.27-.24.38-.69.27-1.19.35l-17.03,2.72v-.24l14.63-2.57c-2.04-.06-3.79-.11-5.58-.37,0-.2.17-.3.28-.43-.02.5,1.75.13,2.63.29,1.15.21,2.33.42,3.34-.01h0Z"/>
      <path class="st0" d="M138.8,82.46v.24h-1.2c.2-.46.81-.17,1.2-.24Z"/>
      <path class="st0" d="M104.86,53.07l-.02.18c-.82-.05-1.68-.14-2.57.1l-8.4.97-12.19,1.39-3.25,15.72c-.96.8-1.14,6.05-1.92,7.26-.97.56-2.18.31-3.44.33l.12,4.91c.03,1.27-.02,2.51,0,3.79.04,1.68-.24,3.4,0,5.08.02.14-.04.29-.03.43-.1.02-.4.09-.44-.04-.12-.42-.15-.83-.14-1.18l.03-11.73.02-24.24,8.09-1.01c.52-.06.97-.56,1.55-.07,1.17-.44,2.34-.13,3.59-.27l18.94-2.16.07.54h-.01Z"/>
      <path class="st0" d="M73.88,98.54c-.1.19-.3.25-.5.26l-.03-.39c0-.12.21-.16.33-.11.09.03.14.17.2.24Z"/>
      <path class="st0" d="M79.14,97.76c-.48.15-.89.27-1.51.26-.14-.43.35-.52.64-.48.3.04.73-.08.87.22Z"/>
      <g>
        <path class="st0" d="M117.96,100.18l.2,11.02c-6.37,3.84-12.16,9.65-16.53,15.81-1.13,1.6-1.82,3.52-3.13,4.81-1.84.25-2.92,1.99-5.19,2.47-1.22.26-2.52.47-3.64.92-.87.35-1.44.07-2.25.05-4.11-.13-7.54-2.07-9.93-5.44-3.32-4.67-1.97-11.99-.03-14.26l3.43-4,1.88-1.76c3.63-3.4,3.1-2.29,6.15-4.34,1.86-1.25,6.59-2.62,8.89-3.11,2.94-.63,5.81-1.29,8.68-2.1,3.57-1,8.18-1.51,11.45-.08h.02Z"/>
        <path class="st0" d="M117.95,96.11c-.04.97.15,1.93,0,2.9-.35,0-.53-.38-.74-.68-.41-.59-1.15-.17-1.65-.32-2.5-.75-8.1.64-10.49,1.05l-4.9.83-2.07.32c-8.1,1.26-16.5,5.56-21.09,12.5-1.31,1.98-2.61,3.79-2.97,6.17-1.05,6.76-.74,12.56,5.19,16.66,1.68,1.16,3.49,2.1,5.38,2.58-.06.22.27.18.39.19.17.02.41-.04.35-.27.08,0,.16,0,.24,0,2-.07,5.31-1.57,6.23-1.44.47.07.79-.32,1.2-.42l2.88-.73c-.15.77-.96,1.28-1.33,2.03-.45.91-.87,1.71-1.61,2.53-.54.6-.82,2-1.72,2.24l-4.36,1.18-18.78,4.97-1.65-.12c.32-.74-.18-1.58,0-2.2.42-1.48.05-2.75.04-4.18l-.07-13.15c.92.4.23-2.01.57-3.74.05-.23.22-.43.14-.67-.06-.16-.31-.11-.47-.14-.21-.05-.27-.3-.24-.48.16-.01.42.08.56-.01.37-.25-.09-6.29.45-7.43,1.9-1.17,2.44.18,4.85-.45,0,.23.03.49.1.7.12,1.27-.09,2.55-.11,3.91l-.21,11.07c-.04,1.89-.18,3.72-.07,5.62.05.82.31,1.54.17,2.43-.1.64-.12,1.55.34,1.98.34.27.86-.19,1.15-.24,2.83-.49,5.59-1.33,8.4-2.14-1.93-.22-3.41.85-5.29,1.09-1.67-1.44-3.5-4.36-3.56-6.48-.13-4.99-.19-9.85,0-14.85l.2-5.08c.09-2.21,2.55-6.24,3.9-7.21.95-.68,1.34-1.51,2.13-2.25,2.65-2.48,5.91-4.27,9.31-5.55,5.18-1.95,10.52-2.31,15.95-2.79l4.88-.44c1.7-.15,3.24-.53,4.98-.47.83.03,1.91-.63,2.58.14.26.3.33.92.81.87v-.03Z"/>
        <path class="st0" d="M154.62,108.09c-1.73-.44-3.89.04-5.63-.69-2.52-1.06-4.86-1.95-7.68-2.11-5.02-.29-10.01.34-14.82,1.58-.22-.31-.21-.85-.1-1.33.67-2.97,2.9-5.05,5.85-5.93,3.69-1.1,7.47-1.43,11.3-2.11,2.03-.36,4.03-.28,5.8.75,1.56.91,2.8,1.95,3.6,3.62.61,1.26,2.7,5.23,2.39,6.11-.07.2-.47.11-.71.11h0Z"/>
        <path class="st0" d="M117.94,99.01c-.05.34,0,.82.02,1.18-3.27-1.44-7.88-.93-11.45.08-2.87.81-5.75,1.47-8.68,2.1-2.3.49-7.02,1.86-8.89,3.11-3.05,2.05-2.52.94-6.15,4.34l-1.88,1.76-3.43,4c-1.95,2.27-3.29,9.58.03,14.26,2.39,3.36,5.82,5.31,9.93,5.44.81.02,1.38.3,2.25-.05,1.12-.45,2.42-.66,3.64-.92,2.27-.48,3.35-2.23,5.19-2.47-.53,1.25-1.41,2.41-2.37,3.36,1.3-.68-4.74.9-3.12.97-.41.11-.73.49-1.2.42-.04-.13-.11-.28-.22-.33.01,0-5.76,1.43-6.01,1.78-.08,0-.16.02-.24,0-.23-.04-.52.13-.74.08-1.89-.49-3.7-1.42-5.38-2.58-5.93-4.1-6.24-9.89-5.19-16.66.37-2.37,1.66-4.18,2.97-6.17,4.58-6.94,12.98-11.24,21.09-12.5l2.07-.32,4.9-.83c2.39-.4,7.99-1.79,10.49-1.05.5.15,1.24-.27,1.65.32.21.29.39.68.74.68h-.02Z"/>
        <path class="st0" d="M158.47,109.02c-1.3-.24-2.57-.61-3.84-.93.25,0,.65.09.71-.11.31-.87-1.78-4.84-2.39-6.11-.8-1.67-2.03-2.71-3.6-3.62-1.78-1.03-3.77-1.11-5.8-.75-3.82.68-7.61,1-11.3,2.11-2.95.88-5.19,2.97-5.85,5.93-.11.48-.13,1.02.1,1.33-1.43.37-2.88,1.44-4.26,1.95.03-.48.05-.97-.04-1.44-.27-1.5.16-3.06.04-4.55.32.05.51-.16.73-.45,1.11-1.53,2.5-2.66,4.18-3.52,1.91-.99,3.76-2.04,5.76-2.85,2.88-1.17,5.95-1.1,9-1.42,2.4-.25,4.59-.14,6.89.63,2.87.96,5.57,2.14,8.03,3.98.77.58.49-2.63,1.15-1.62-.05.86.22,1.57.23,2.38l.04,7.67c0,.53.15.97.22,1.39h0Z"/>
        <path class="st0" d="M160.32,105.27l.08,4.27v.13c-.54-.23-1.41-.56-1.94-.66-.07-.41-.22-.86-.22-1.39l-.04-7.67c0-.8-.28-1.52-.23-2.38-.66-1.01-.38,2.19-1.15,1.62-2.46-1.84-5.16-3.02-8.03-3.98-2.3-.77-4.49-.89-6.89-.63-3.04.32-6.11.25-9,1.42-2,.81-3.85,1.87-5.76,2.85-1.68.86-3.07,2-4.18,3.52-.21.29-.41.51-.73.45-.16-2.07-.12-4.14-.15-6.22.12-.03.36.03.54-.1,1.86-1.28,3.84-2.06,6.08-2.57,3.82-.87,15.18-2.94,18.23-1.43.87.43,1.21.4,2.02.49,2.53.27,4.88,1.37,7.31,2.09.15-.7.59-2.15,1.44-1.97s.99,1.7,1.05,2.44l.57,7.31c.07.92.19,2.01,1,2.38v.03Z"/>
        <path class="st0" d="M96.13,135.19l-.24.24-2.88.73c-1.63-.07,4.41-1.66,3.12-.97Z"/>
        <path class="st0" d="M117.96,91.32c.09,1.59.05,3.2-.01,4.79-.48.05-.55-.57-.81-.87-.67-.77-1.75-.11-2.58-.14-1.74-.07-3.29.32-4.98.47l-4.88.44c-5.43.48-10.77.84-15.95,2.79-3.4,1.28-6.65,3.07-9.31,5.55-.8.74-1.18,1.57-2.13,2.25-1.35.97-3.82,5-3.9,7.21l-.2,5.08c-.19,5-.13,9.85,0,14.85.05,2.12,1.89,5.05,3.56,6.48,1.88-.24,3.36-1.31,5.29-1.09-2.81.82-5.58,1.66-8.4,2.14-.6-.1-1.11-.76-1.01-1.51.11-.86-.18-1.62-.19-2.43,0-3.59.03-7.09.08-10.66l.14-9.69c0-.26-.26-.37-.29-.48-.07-.22-.11-.48-.1-.7l.2-4.88.48-8.08c.01-.21-.14-.38-.07-.57.07-.16.26-.19.47-.14.11,1.23-.23,2.44.18,3.82l1.14-2.75c.4-2.51,3.59-3.21,5.67-3.97l4.85-1.78c-.17-.45-.44-.4-.6-.55l4.34-1,29.01-4.56v-.02Z"/>
        <path class="st0" d="M73.64,141.27c-.3.05-.81.51-1.15.24-.46-.43-.45-1.34-.34-1.98.14-.89-.12-1.61-.17-2.43-.11-1.9.03-3.72.07-5.62l.21-11.07c.03-1.37.23-2.64.11-3.91.03.11.3.22.29.48l-.14,9.69c-.05,3.57-.09,7.07-.08,10.66,0,.81.3,1.57.19,2.43-.09.74.41,1.41,1.01,1.51h0Z"/>
        <path class="st0" d="M91.81,136.59c-.92-.13-4.23,1.38-6.23,1.44.25-.35,6.02-1.77,6.01-1.78.11.06.19.2.22.33h0Z"/>
        <path class="st0" d="M85.34,138.04c.06.22-.18.28-.35.27-.12,0-.45.02-.39-.19.22.06.51-.11.74-.08Z"/>
        <path class="st0" d="M160.29,85.07l.04,20.21c-.81-.37-.93-1.46-1-2.38l-.57-7.31c-.06-.74-.22-2.27-1.05-2.44s-1.29,1.27-1.44,1.97c-2.43-.72-4.78-1.82-7.31-2.09-.81-.09-1.15-.06-2.02-.49-3.05-1.51-14.41.56-18.23,1.43-2.24.51-4.22,1.29-6.08,2.57-.18.12-.41.07-.54.1-.04-1.99-.15-3.99-.09-5.98l36.9-5.88c.59-.09.98.42,1.39.31v-.02Z"/>
        <path class="st0" d="M84.6,96.88c.16.15.43.1.6.55l-4.85,1.78c-2.09.77-5.27,1.46-5.67,3.97l-1.14,2.75c-.42-1.38-.07-2.59-.18-3.82-.02-.16-.05-.33-.08-.49-.16-.94.16-1.89.1-2.83.2,0,.4-.07.5-.26.95-.07,2.02-.1,2.88-.54l.88.02c.61.01,1.02-.1,1.51-.26.78-.25,1.77-.39,2.56-.46.11.05.26.32.39.25.19-.1.3-.3.18-.45l1.12-.06c.11,0,.18.33.35.22.14-.09.17-.29.21-.43l.65.04v.02Z"/>
        <path class="st0" d="M83.95,96.84c-.04.14-.07.34-.21.43-.17.11-.24-.21-.35-.22.02-.25.39-.15.56-.21Z"/>
        <path class="st0" d="M82.27,97.11c.12.15.01.34-.18.45-.13.07-.28-.2-.39-.25.05-.23.39-.18.57-.19h0Z"/>
      </g>
      <path class="st0" d="M97.81,87.25c.1.04.19.23.35.23.12,0,.25-.07.35-.15,1.56.76,3.41.35,5-.28.14.23.33.42.53.6-3.69,1.13-7.66,1.36-11.5,1.99.04-.39-.3-.46-.73-.46-6.07-.05-13.26.5-18.63-1.46-.03-1.27.03-2.51,0-3.79,2.79,1.37,5.69,2.37,8.93,2.51,1.98.08,3.88.48,5.87.55l4.4.16c1.29.05,2.5-.29,3.74-.12l1.67.23h.02Z"/>
      <path class="st0" d="M92.55,89.64l-19.36,3.16c-.24-1.69.04-3.4,0-5.08,5.37,1.97,12.55,1.41,18.63,1.46.42,0,.77.08.73.46Z"/>
      <path class="st0" d="M119.86,84.84v.49l-14.03,2.27c-.64.1-1.28.08-1.79.05-.2-.18-.39-.37-.53-.6.32-.19.49-.73.95-.77,1.57-.16,7.56,1.34,9.68-1.41,1.92.43,3.9.51,5.72-.03Z"/>
      <path class="st0" d="M81.75,81.98c3.76,1.45,7.63,2.75,11.51,3.84.1-.04.24-.08.29-.18,1.22.09,3.82,1.55,4.74.9,0,.15-.03.33,0,.48-.19,0-.4.05-.48.24l-1.67-.23c-1.24-.17-2.45.16-3.74.12l-4.4-.16c-2-.07-3.89-.47-5.87-.55-3.24-.14-6.14-1.13-8.93-2.51l-.12-4.91c1.26-.02,2.47.23,3.44-.33.12.37.04.77.12,1.27,1.68.96,3.29,1.32,5.13,2.02h-.02Z"/>
      <g>
        <path class="st0" d="M63.26,147.12c-2.65-.53-5.1-1.85-7.67-2.58.27.04.51-.06.66-.28-.04.05-.4-5.34-.38-5.25l-.72-4.53c-.16-.98-.09-1.84-.31-2.79-.43-1.88-.73-6.45-1.31-7.87-.3-.73-.21-1.31-.34-2.05-.24-1.44-.67-2.76-.8-4.21.06.64-.64-3.09-1.1-2.26l1.61-.37.15-6.82c.03-1.35.31-2.68.1-4l-3.31-.79c-1.48-.35-5.22-1.54-6.28-1.61-.73-.05-1.03-.56-1.39-1.03-.33.17-.83.49-1.18.21-.17-.13-.28-.36-.28-.68l.06-12.5.2-25.63c.83-.39,3.8,3.37,4.18,4.01,1.7,2.93,3.12,6,4.08,9.27l1.47,5,.57,2.31,1.77,6.27c.58,2.06,1.23,4,1.76,6.09.18.72.17,1.56.4,2.24.71,2.14,1.22,4.17,1.57,6.36.21,1.3.68,2.55.96,3.84l1.64,7.72.74,4.03c.18.96.26,1.82.41,2.79l.77,4.94.32,4.44,1.74,14c.08.66.3,1.2-.07,1.73h-.02Z"/>
        <path class="st0" d="M65.94,107.63l.11,9.97.13,30.26c-.6.32-1.03-.21-1.48-.17-.57.05-.97-.48-1.44-.57.37-.53.15-1.07.07-1.73l-1.74-14-.32-4.44-.77-4.94c-.15-.97-.24-1.84-.41-2.79l-.74-4.03-1.64-7.72c-.28-1.3-.75-2.54-.96-3.84-.34-2.18-.86-4.22-1.57-6.36-.23-.68-.21-1.51-.4-2.24-.52-2.1-1.18-4.04-1.76-6.09l-1.77-6.27-.57-2.31-1.47-5c-.96-3.27-2.38-6.34-4.08-9.27-.38-.65-3.35-4.41-4.18-4.01,0-1.9-.25-3.83,0-5.73,1.48.32,2.57,1.27,3.83,2.2,3.28,2.43,6.33,2.11,8.7,7.61l1.43,3.32c.59,1.38,1.1,2.53,1.6,3.94l2.09,5.88c.7,1.98,1.32,3.92,1.53,6.04.15,1.52.86,2.76,1.36,4.15l1.09,3c-.21-.58,1.33,6.16,1.32,6.09l.97,4.96.55,3.6c.03.2.05.37.18.45.08.05.21.06.32.04h.03Z"/>
        <path class="st0" d="M51.3,115.3c.46-.83,1.16,2.9,1.1,2.26.13,1.45.55,2.77.8,4.21.12.74.04,1.32.34,2.05.58,1.42.88,5.98,1.31,7.87.22.95.15,1.81.31,2.79l.72,4.53c0-.09.35,5.31.38,5.25-.15.23-.39.32-.66.28-3.43-.97-6.84-2.03-10.29-3.28.08-2.06.08-4.02.14-5.97l.25-7.66.24-6.7.16-4.76,5.22-.86h-.02Z"/>
        <path class="st0" d="M65.94,107.63c-.12.03-.24.01-.32-.04-.13-.07-.15-.25-.18-.45l-.55-3.6-.97-4.96c0,.07-1.53-6.68-1.32-6.09l-1.09-3c-.5-1.39-1.21-2.63-1.36-4.15-.21-2.12-.83-4.06-1.53-6.04l-2.09-5.88c-.5-1.41-1.01-2.56-1.6-3.94l-1.43-3.32c-2.37-5.5-5.42-5.18-8.7-7.61-1.26-.93-2.35-1.88-3.83-2.2l-.04-6.54,25.02,3.29v54.54h0Z"/>
      </g>
      <g>
        <path class="st0" d="M160.38,79.13c-.1-.1-.21-.25-.21-.53l.03-26.56c0-.95.06-1.66-.08-2.45-.15-.88.29-1.81-.02-2.83l-3.2.4c-1.1,8.99-3.74,19.25-6.36,28.05-.48,1.6-1.38,2.73-2.4,3.87-.12.13-.28.23-.28.43-.52-.08-5.01,3.27-7.42.68-2.64,1.31-5.48,2.29-8.37,2.26-.02-.18.18-.3.19-.45,2.14.04,5.5-1.57,8.12-2.03.61-.97.73-1.99,1.11-3.05,1.84-5.09,3.2-10.19,4.64-15.41.69-2.48,2.78-10.3,1.52-12.4-2.6-.87-5.63-.63-7.66,1.17,0-.06-.04-.13-.05-.19.08-.33.27-.56.49-.9-.62-.21-1.59-.26-1.62.41-.18-.51-4.08-.04-4.31.24-.9-.27-1.79.14-2.66.23l-7.39.74c-.57.06-1.1.11-1.42.47h-.54c.37-.39-3.56.11-3.34.27-1.69-.07-3.36.29-5.04.48-1.09.12-4.71.12-5.74.69-.06.03-.17,0-.24,0l-.5.02v-.48l3.38-.51,8.12-.97,5.29-.67c2.16-.27,4.37-.27,6.67-.77,1.3-.28,2.66,0,3.9-.44.99-.34,2.02-.65,3.1-.29l9.6-1.17,13.12-1.4.02,28.71c0,.43.43,4.68-.44,4.36v.02ZM142.56,80.54c3.56-.12,6.39-2.38,7.36-5.71,2.05-7.02,3.79-13.96,5.2-21.14.44-2.21.77-4.21.94-6.46l-8.25,1.01c.64,1.39.86,2.5.75,3.77-.14,2.04-.51,3.9-.99,5.92-1.76,7.5-3.9,14.76-6.36,22.01.35.33.73.61,1.35.59h0Z"/>
        <path class="st0" d="M131.83,50.09c-.32,2.33-.77,4.57-1.4,7.01l-6.61,25.64c-.76,1.24-2.6,1.7-3.95,2.1-1.82.54-3.8.46-5.72.03-2.12,2.75-8.11,1.25-9.68,1.41-.02-.22.22-.33.29-.49.65.43,5.44.31,6.15.11.62-.17.44-1.01.57-1.47,1.62-5.37,2.71-10.71,4.36-16.09l1.23-4.01c.37-1.2,1.62-4.2,1.53-5.52-.04-.64,1.38-5.98.54-7.23-.22-.16,3.7-.66,3.34-.26-.61,3.74-1.59,7.42-2.66,11.16l-1.43,5.02-2.26,8.58c-.12.45-.27,1.04.14,1.36,2.27-7.46,4.31-14.79,6.05-22.33.31-1.36.63-2.55.7-3.8.32-.36.85-.41,1.42-.47l7.39-.74h0ZM116.06,77.9c0-.08-.07-.15-.15-.15s-.15.07-.15.15.07.15.15.15.15-.07.15-.15Z"/>
        <path class="st0" d="M132.25,82.01l.07-.74c.07-.69,7.85-25.69,7.66-30.98,2.04-1.8,5.06-2.04,7.66-1.17,1.26,2.1-.83,9.92-1.52,12.4-1.45,5.22-2.8,10.32-4.64,15.41-.38,1.06-.5,2.08-1.11,3.05-2.62.46-5.97,2.07-8.12,2.03h0Z"/>
        <path class="st0" d="M142.56,80.54c-.62.02-1-.26-1.35-.59,2.46-7.25,4.6-14.51,6.36-22.01.47-2.01.85-3.87.99-5.92.12-1.27-.11-2.38-.75-3.77l8.25-1.01c-.17,2.24-.5,4.25-.94,6.46-1.42,7.18-3.16,14.12-5.2,21.14-.97,3.32-3.8,5.59-7.36,5.71h0Z"/>
        <path class="st0" d="M160.12,49.6c-.63,1.36-.79,2.96-1.29,4.5-.29.9-.14,1.71-.32,2.58l-2.58,12.46-1.92,9.16c-.09.41-.06.77.1,1.07-1.01.44-2.19.22-3.34.01-.88-.16-2.66.22-2.63-.29,1.02-1.14,1.92-2.27,2.4-3.87,2.62-8.8,5.26-19.06,6.36-28.05l3.2-.4c.31,1.02-.13,1.95.02,2.83Z"/>
        <path class="st0" d="M107.61,52.28v.48l-.19.02-1.73.23c-.27.04-.55.07-.83.07l-.07-.54c.94-.11,1.89-.11,2.82-.25h0Z"/>
        <path class="st0" d="M139.94,50.1l-.88-.06c-.02-.15-.21-.27-.25-.42.04-.68,1-.62,1.62-.41-.21.34-.41.57-.49.9h0Z"/>
        <g>
          <path class="st0" d="M138.8,49.62c.04.15.23.27.25.42.06.38.49.83.43,1.3-.28,2.47-.96,4.68-1.6,7.13l-5.85,22.26c-.07.28.11.68.29.55l-.07.74c0,.15-.21.27-.19.45-2.11.77-4.48.89-6.68.51.62-.06,1.07-.51,1.11-1.27,2.74-7.6,4.56-15.29,6.33-23.18l1.37-6.12c.2-.88.51-1.71.31-2.54.23-.28,4.13-.75,4.31-.24h0Z"/>
          <path class="st0" d="M134.49,49.86c.2.84-.11,1.67-.31,2.54l-1.37,6.12c-1.77,7.89-3.59,15.58-6.33,23.18-.04.76-.49,1.21-1.11,1.27-.14-.02-.35.03-.48.02l-.49-.06-.59-.19,6.61-25.64c.63-2.44,1.07-4.68,1.4-7.01.87-.09,1.76-.5,2.66-.23h0Z"/>
          <path class="st0" d="M139.94,50.1c0,.06.05.13.05.19.19,5.29-7.59,30.29-7.66,30.98-.18.14-.36-.26-.29-.55l5.85-22.26c.64-2.45,1.33-4.65,1.6-7.13.05-.47-.38-.92-.43-1.3l.88.06h0Z"/>
          <path class="st0" d="M124.9,82.99c-.06,0-.12.12-.2.14-.15.03-.2-.17-.29-.2l.49.06Z"/>
        </g>
        <g>
          <path class="st0" d="M119.14,51.56c.84,1.25-.58,6.6-.54,7.23.09,1.32-1.16,4.32-1.53,5.52l-1.23,4.01c-1.66,5.38-2.74,10.72-4.36,16.09-.14.46.04,1.3-.57,1.47-.71.2-5.5.33-6.15-.11.49-1.15,1.16-2.16,1.54-3.51,2.87-10.07,5.56-20.1,7.81-30.24,1.67-.19,3.35-.55,5.04-.48v.02Z"/>
          <path class="st0" d="M123.01,51.29c-.07,1.25-.39,2.44-.7,3.8-1.74,7.54-3.78,14.86-6.05,22.33-.41-.32-.26-.91-.14-1.36l2.26-8.58,1.43-5.02c1.07-3.74,2.04-7.42,2.66-11.16h.54,0Z"/>
          <circle class="st0" cx="115.91" cy="77.9" r=".15"/>
        </g>
        <path class="st0" d="M98.29,87.01c.02.11.19.2.22.31-.1.08-.23.15-.35.15-.15,0-.25-.19-.35-.23.08-.19.29-.25.48-.24h0Z"/>
        <g>
          <path class="st0" d="M114.1,52.04c-2.25,10.14-4.93,20.17-7.81,30.24-.39,1.35-1.05,2.36-1.54,3.51-.07.16-.31.27-.29.49-.45.05-.63.58-.95.77-1.6.63-3.44,1.04-5,.28-.03-.12-.2-.2-.22-.31-.03-.15,0-.33,0-.48.25-.17.29-.4.22-.7-.02-.07.01-.16.01-.24.64-.59.64-1.59.74-2.42,0-.07,0-.14.01-.21.35.18.47-.22.47-.4,0-.31-.01-.56-.04-.82-.01-.16,0-.32-.01-.48.85-.04.13-.83.25-1.27l6.7-23.64c1.18.57,1.48-2.71,1.54-3.37.08-.07.13-.15.18-.24,1.04-.58,4.66-.57,5.74-.69v-.02Z"/>
          <path class="st0" d="M108.18,52.97c0-.08-.06-.16-.06-.24.07,0,.18.03.24,0-.04.09-.1.17-.18.24Z"/>
          <path class="st0" d="M98.52,85.59c0-.85.1-1.82.74-2.42-.09.83-.1,1.83-.74,2.42Z"/>
          <path class="st0" d="M99.27,82.96c.07-.43.1-.91.44-1.22.02.25.04.51.04.82,0,.19-.12.58-.47.4h-.01Z"/>
          <path class="st0" d="M98.29,86.53c.01-.23-.09-.66.22-.7.07.31.03.53-.22.7Z"/>
        </g>
        <path class="st0" d="M107.43,52.77c.01.96-.22,1.9-.77,2.9-.48-.94-.81-1.77-.97-2.67l1.73-.23h0Z"/>
        <g>
          <path class="st0" d="M108.12,52.73c0,.08.07.16.06.24-.06.66-.36,3.93-1.54,3.37l-1.58-2.6c-.09-.1-.02-.48-.22-.49l.02-.18c.28,0,.55-.03.83-.07.15.89.48,1.73.97,2.67.55-1,.78-1.93.77-2.9l.19-.02s.5-.02.5-.02Z"/>
          <path class="st0" d="M106.64,56.34l-6.7,23.64c-.12.44.6,1.23-.25,1.27-.05-.1-.01-.4-.12-.42-.12-.02-.44.11-.55.21-1.51,1.43-5.11,3.97-5.47,4.58-.06.1-.2.14-.29.18.06-.13,0-.37-.23-.45-2.64-.88-5.2-1.64-7.65-2.67,5.04-5.19,8.2-10.32,12.05-16.47.68-1.09,1.49-2.08,2.05-3.22.4-.83.86-1.43,1.41-2.2,1.61-2.26,2.98-4.72,4.19-7.06l1.58,2.6h-.02Z"/>
          <path class="st0" d="M99.69,81.26c0,.16,0,.32.01.48-.34.31-.36.79-.44,1.22-.01.07,0,.14-.01.21-.64.6-.74,1.57-.74,2.42,0,.08-.03.17-.01.24-.3.04-.21.48-.22.7-.93.65-3.52-.81-4.74-.9.36-.61,3.96-3.15,5.47-4.58.11-.11.43-.24.55-.21.11.02.07.33.12.42h0Z"/>
          <path class="st0" d="M104.84,53.25c.2,0,.14.39.22.49-1.21,2.35-2.58,4.81-4.19,7.06-.54.76-1,1.37-1.41,2.2-.56,1.15-1.36,2.13-2.05,3.22-3.85,6.15-7.01,11.28-12.05,16.47-1.1-.46-2.48-.57-3.62-.96-.22-.1-.66-.33-.95-.54-.42-3.43-1.34-6.6-2.37-9.77l3.25-15.72,12.19-1.39,8.4-.97c.89-.24,1.76-.15,2.57-.1h.01Z"/>
          <path class="st0" d="M81.75,81.74v.24c-1.84-.71-3.44-1.06-5.13-2.02-.07-.49,0-.9-.12-1.27.78-1.21.96-6.46,1.92-7.26,1.03,3.17,1.95,6.34,2.37,9.77.29.21.73.44.95.54h.01ZM80.51,81.08c-.88-2.61-1.47-5.13-2.14-8-.88,2.18-.88,4.32-1.46,6.54,1.12.68,2.13.98,3.6,1.46Z"/>
          <path class="st0" d="M85.37,82.69c2.45,1.03,5.01,1.79,7.65,2.67.24.08.3.32.23.45-3.88-1.09-7.74-2.39-11.51-3.84v-.24c1.14.38,2.52.49,3.62.96h0Z"/>
          <path class="st0" d="M80.51,81.08c-1.47-.48-2.48-.78-3.6-1.46.58-2.22.58-4.36,1.46-6.54.66,2.86,1.26,5.39,2.14,8Z"/>
        </g>
      </g>
    </g>
  </g>
</svg>