<?xml version="1.0" encoding="UTF-8"?>
<svg id="Layer_1" xmlns="http://www.w3.org/2000/svg" version="1.1" viewBox="0 0 633.25 482.6">
  <!-- Generator: Adobe Illustrator 30.1.0, SVG Export Plug-In . SVG Version: 2.1.1 Build 136)  -->
  <defs>
    <style>
      .st0 {
        fill: #fff;
      }

      .st1 {
        fill: none;
        stroke: #231f20;
      }
    </style>
  </defs>
  <g>
    <path class="st0" d="M509.65,385.19c.54.77.9,1.72,1.02,2.83.7,6.32-7.02,9.47-8.42,10.7s3.16,4.39,6.66,1.76c20-22.63,30.35-19.65,33.16-13.86,2.81,5.79-8.6,11.75-10.7,11.75s-13.16,5.26-13.16,5.26c0,0-3.22,7.58,8.07,7.28,16.86-.45,35.52,4.47,32.37,12.9-2.87,7.65-30,4.74-30,4.74,0,0,12.37,6.58,12.37,11.05s-7.63,5.52-26.05,5.52-53.68-4.21-53.68-4.21c0,0,8.68,4.74,7.63,8.16s-13.95,8.42-49.99,5.53c-36.05-2.9-131.04-4.21-134.72-10-3.68-5.79,7.37-7.89,9.47-9.21s-88.68-3.16-106.57-5.26c-17.89-2.11-10-9.47-10-9.47,0,0-38.42,2.36-40.52-.53s6.06-7.1,6.06-7.1c0,0-56.57-1.05-59.99-9.21s10.52-10.53,29.47-11.84c8.33-.58,15.14-.34,20.15.11,5.8.51,9.19,1.31,9.75,1.45v.02c3.71.76,9.24,5.77,11.89,7.78,2.72,2.07,4.17-.01,4.17-.01-.7-17.54,17.19-12.1,20-8.42s11.93,9.64,14.04,8.42,1.4-3.16-1.23-7.37,11.58-6.49,14.21-2.63,2.8,8.07,14.38,12.45c2.11-4.39,12.98-10,14.73-6.32,1.76,3.68,10.17,5.44,10.17,5.44,0,0,4.21-6.14,13.34-8.07,9.12-1.92,14.56,2.99,23.85,9.83s10.53-1.23,12.63-4.91c2.11-3.68,13.68,1.05,15.79,5.44s15.61,6.14,21.93,1.75c6.31-4.38-4.21-9.82-9.12-11.4s-2.98-11.22,4.21-11.05,18.07,6.14,20.7,10.35c2.63,4.21,13.33,6.85,17.01,4.04,3.86-6.49,12.63-10.17,14.91-5.61s13.16,7.19,16.14,2.46c2.98-4.74-7.19-4.38-10.7-4.04-3.51.35-8.77-6.67-1.93-10.17,6.84-3.51,17.54,3.51,21.75,12.63,4.21,9.12,14.21,8.24,15.96,6.49s-4.38-7.19,1.4-11.92c5.79-4.74,12.1,3.68,12.8,5.61s4.56,6.49,14.39,5.09c9.82-1.4,10.88-9.83,7.37-11.75-3.51-1.93-20.24-4.62-23.68-6.67-5.62-3.33-6.67-15.96,9.65-15.79,22.98.17,23.86,15.26,24.2,20.87.35,5.62,5.44,8.6,10.18,4.21,4.73-4.39.35-4.03-1.58-9.47-1.93-8.07,8.6-8.07,13.5-4.38,4.91,3.69-.52,11.93-2.11,12.46-1.58.52-4.56,4.21-2.45,7.89s8.42-2.81,11.93-8.77c4.33-6.07,10.7-6.43,13.19-2.83Z"/>
    <polygon class="st0" points="536.54 362.73 92.22 355.44 87.39 355.36 74.24 336.94 176.77 338.86 293.54 341.04 300.51 341.17 365.25 342.38 473.79 344.42 502.08 344.94 552.6 345.89 536.81 362.73 536.54 362.73"/>
    <path class="st0" d="M142.03,393.54c-.56-.14-3.95-.94-9.75-1.45l1.3-1.53-41.36-35.12,444.32,7.29-26.89,22.46c-2.49-3.6-8.86-3.24-13.19,2.83-3.51,5.96-9.82,12.45-11.93,8.77s.87-7.37,2.45-7.89c1.59-.53,7.02-8.77,2.11-12.46-4.9-3.69-15.43-3.69-13.5,4.38,1.93,5.44,6.31,5.08,1.58,9.47-4.74,4.39-9.83,1.41-10.18-4.21-.34-5.61-1.22-20.7-24.2-20.87-16.32-.17-15.27,12.46-9.65,15.79,3.44,2.05,20.17,4.74,23.68,6.67,3.51,1.92,2.45,10.35-7.37,11.75-9.83,1.4-13.69-3.16-14.39-5.09s-7.01-10.35-12.8-5.61c-5.78,4.73.35,10.17-1.4,11.92s-11.75,2.63-15.96-6.49c-4.21-9.12-14.91-16.14-21.75-12.63-6.84,3.5-1.58,10.52,1.93,10.17,3.51-.34,13.68-.7,10.7,4.04-2.98,4.73-13.86,2.1-16.14-2.46s-11.05-.88-14.91,5.61c-3.68,2.81-14.38.17-17.01-4.04-2.63-4.21-13.51-10.18-20.7-10.35s-9.12,9.47-4.21,11.05,15.43,7.02,9.12,11.4c-6.32,4.39-19.82,2.64-21.93-1.75s-13.68-9.12-15.79-5.44c-2.1,3.68-3.34,11.75-12.63,4.91s-14.73-11.75-23.85-9.83c-9.13,1.93-13.34,8.07-13.34,8.07,0,0-8.41-1.76-10.17-5.44-1.75-3.68-12.62,1.93-14.73,6.32-11.58-4.38-11.75-8.59-14.38-12.45s-16.84-1.58-14.21,2.63,3.34,6.15,1.23,7.37-11.23-4.74-14.04-8.42-20.7-9.12-20,8.42c0,0-1.45,2.08-4.17.01-2.65-2.01-8.18-7.02-11.89-7.78v-.02Z"/>
    <path class="st0" d="M476.3,334.76c18.1.69,30.21,1.14,30.78,1.14,2.37,0,2.11,8.42-5,8.94v.1l-28.29-.52v-.24s-2.41-6.67,1.57-9.45c.32.01.63.02.94.03Z"/>
    <path class="st0" d="M475.36,334.73c-.64-.03-1.3-.06-1.96-.08v-.07c1.45-8.43,9.34-13.69,10.53-11.45,1.83,5.74-6.44,10.92-7.63,11.63-.31-.01-.62-.02-.94-.03Z"/>
    <path class="st0" d="M473.4,334.65c.66.02,1.32.05,1.96.08-3.98,2.78-1.57,9.45-1.57,9.45v.24l-108.54-2.04v-.43c-2.63-2.63,3.69-10.79,3.69-10.79l.02-.54c34.26,1.33,74.43,2.88,102.59,3.96.63.02,1.24.05,1.85.07Z"/>
    <path class="st0" d="M469.79,332.49c.58.61,1.17,1.21,1.77,1.82v.27c-28.17-1.08-68.34-2.63-102.6-3.96-8.15-.31-15.97-.61-23.21-.89h0s.03-.68.03-.68c-3.46-2.42-6.85-6.55-10.12-11.81l.12-.08s1.58-21.52,40.52-17.05c12.35,2.06,26.14,5.58,38.75,9.54,18.7,5.86,34.79,12.68,39.66,17.17,5.62,5.88,12.92,6.3,15.08,5.67Z"/>
    <path class="st0" d="M469.79,332.49c-2.16.63-9.46.21-15.08-5.67-4.87-4.49-20.96-11.31-39.66-17.17l.02-.07c10.7-5.44,5.96-15.79,3.51-18.77-2.46-2.98,5.26-9.82,5.26-9.82l.06-.05c13.79,16.97,29.04,34.25,45.89,51.55Z"/>
    <path class="st0" d="M423.9,280.94l-.06.05s-7.72,6.84-5.26,9.82c2.45,2.98,7.19,13.33-3.51,18.77l-.02.07c-12.61-3.96-26.4-7.48-38.75-9.54-38.94-4.47-40.52,17.05-40.52,17.05l-.12.08c-6.5-10.48-12.51-25.46-17.56-40.44l.31-.11c-1.04-25.53,19.74-26.05,32.63-36.05,12.9-10,2.37-22.89.53-36.05s9.47-12.63,9.47-12.63l.44-.26c16.31,27.41,36.85,57.78,62.42,89.24Z"/>
    <path class="st0" d="M368.96,330.62l-.02.54s-6.32,8.16-3.68,10.79v.43s-64.75-1.21-64.75-1.21v-.28s.11-4.68.29-12.89h.34s18.59.72,44.61,1.72h0c7.24.29,15.06.59,23.21.9Z"/>
    <path class="st0" d="M361.48,191.7l-.44.26s-11.31-.53-9.47,12.63,12.37,26.05-.53,36.05c-12.89,10-33.67,10.52-32.63,36.05l-.31.11c-8.33-24.7-14.04-49.4-15.05-53.86.24-11.49.5-23.26.75-35.05h.01c16.97-7.5,16.05-20.65,17.63-32.89s12.11-14.87,12.11-14.87l.06-.03c7.47,15.39,16.68,32.8,27.87,51.6Z"/>
    <path class="st0" d="M345.78,329.05l-.03.67c-26.02-1-44.61-1.72-44.61-1.72h-.34c.42-19.82,1.29-60.24,2.25-105.06,1.01,4.46,6.72,29.16,15.05,53.86,5.05,14.98,11.06,29.96,17.56,40.44,3.27,5.26,6.66,9.39,10.12,11.81Z"/>
    <path class="st0" d="M333.61,140.1l-.06.03s-10.53,2.63-12.11,14.87-.66,25.39-17.63,32.89h-.01c.9-42.29,1.8-84.79,2.44-114.93,1.88,6.2,9.9,31.18,27.37,67.14Z"/>
    <path class="st0" d="M306.24,72.95s-.01,0,0,.01c-.64,30.14-1.54,72.64-2.44,114.93-.25,11.79-.51,23.56-.75,35.05-.96,44.82-1.83,85.24-2.25,105.06-.18,8.21-.28,12.89-.28,12.89v.28s-6.98-.13-6.98-.13v-.28s.36-13.01.36-13.01l.05-1.85,1.49-55.27,1.36-50.24,3.69-136.56.4-14.91.89-32.9.06-2.19s-1.58-4.21.79-5.79,4.47-1.32,4.47,2.63c0,.9-.34,17.36-.86,42.28Z"/>
    <path class="st0" d="M301.78,36.02l-.89,32.9c-1.82-1.85-3.06-3.9-3.85-6.05-3.56-9.56,1.66-21.07,3.88-25.29.43-.82.75-1.36.86-1.56Z"/>
    <path class="st0" d="M300.79,37.51l.13.07c-2.22,4.22-7.44,15.73-3.88,25.29l-.05.02c-2.9-1.18-24.87-12.63-26.58-5.92s-14.47,5.66-19.6-.13-14.47-8.42-18.55-4.47-18.55-4.47-18.95-6.05,12.23.93,14.47-.26c2.24-1.18,7.5-11.18,11.84-8.42s23.28,10,25.52,4.34c2.23-5.66,12.36-8.55,14.34-6.58,1.97,1.98,13.15,7.63,15.26,3.95,2.1-3.68,6.05-1.84,6.05-1.84Z"/>
    <path class="st0" d="M300.49,83.83l-3.69,136.56h-.22c-26.58-12.38-42.63-2.64-42.63-2.64l-.68-.41c18.99-35.03,36.54-79.3,46.73-133.52h.49Z"/>
    <path class="st0" d="M296.8,220.39l-1.36,50.24h-.18c-31.78-12.71-68.54-4.98-73.61-3.82,10.31-13.77,21.18-30.22,31.62-49.47l.68.41s16.05-9.74,42.63,2.63h.22Z"/>
    <path class="st0" d="M295.44,270.63l-1.49,55.27c-77.63-20.79-116.57-2.81-116.57-2.81l-.05.45c-3.14-.35-5.92-.67-7.93-.92l.09-.67s24.02-17.61,52.16-55.14c5.07-1.16,41.83-8.89,73.61,3.82h.18Z"/>
    <path class="st0" d="M293.95,325.9l-.05,1.85h-.21s-81.04-2.91-89.99-2.38c-5.25.31-17.31-.84-26.37-1.83l.05-.45s38.94-17.98,116.57,2.81Z"/>
    <path class="st0" d="M293.9,327.75l-.35,13.01v.28s-116.78-2.18-116.78-2.18v-.07s-4.46-.18-9.83-.99l.18-1.11c4.47-5.79,1.05-13.95,1.05-13.95l.04-.26c.36.04.76.09,1.19.14,2.01.25,4.79.57,7.93.92,9.06.99,21.12,2.14,26.37,1.83,8.95-.53,89.99,2.37,89.99,2.37h.21Z"/>
    <path class="st0" d="M168.21,322.48l-.04.26s3.42,8.16-1.05,13.95l-.18,1.11c-7.59-1.15-17-3.55-18.24-8.48-2.91-11.64,17.37-7.11,17.37-7.11,0,0,.79.1,2.14.27Z"/>
  </g>
  <g>
    <path class="st1" d="M176.77,338.79s-4.46-.18-9.83-.99c-7.59-1.15-17-3.55-18.24-8.48-2.91-11.64,17.37-7.11,17.37-7.11,0,0,.79.1,2.14.27.36.04.76.09,1.19.14,2.01.25,4.79.57,7.93.92,9.06.99,21.12,2.14,26.37,1.83,8.95-.53,89.99,2.37,89.99,2.37"/>
    <path class="st1" d="M301.14,328s18.59.72,44.61,1.72h0c7.24.29,15.06.59,23.21.9,34.26,1.33,74.43,2.88,102.59,3.96.63.02,1.24.05,1.85.07.66.02,1.32.05,1.96.08.32.01.63.02.94.03,18.1.69,30.21,1.14,30.78,1.14,2.37,0,2.11,8.42-5,8.94"/>
    <path class="st1" d="M306.24,72.96c-.64,30.14-1.54,72.64-2.44,114.93-.25,11.79-.51,23.56-.75,35.05-.96,44.82-1.83,85.24-2.25,105.06-.18,8.21-.28,12.89-.28,12.89"/>
    <path class="st1" d="M293.55,340.76l.35-13.01.05-1.85,1.49-55.27,1.36-50.24,3.69-136.56.4-14.91.89-32.9.06-2.19s-1.58-4.21.79-5.79,4.47-1.32,4.47,2.63c0,.9-.34,17.36-.86,42.28"/>
    <path class="st1" d="M168.17,322.74s3.42,8.16-1.05,13.95"/>
    <path class="st1" d="M169.49,321.95s24.02-17.61,52.16-55.14c10.31-13.77,21.18-30.22,31.62-49.47,18.99-35.03,36.54-79.3,46.73-133.52"/>
    <path class="st1" d="M305.79,71.45s.14.51.45,1.5c0,0-.01,0,0,.01,1.88,6.2,9.9,31.18,27.37,67.14,7.47,15.39,16.68,32.8,27.87,51.6,16.31,27.41,36.85,57.78,62.42,89.24,13.79,16.97,29.04,34.25,45.89,51.55.58.61,1.17,1.21,1.77,1.82"/>
    <path class="st1" d="M473.79,344.18s-2.41-6.67,1.57-9.45c.02-.02.04-.04.06-.05"/>
    <path class="st1" d="M476.16,334.84s.05-.03.14-.08c1.19-.71,9.46-5.89,7.63-11.63-1.19-2.24-9.08,3.02-10.53,11.45"/>
    <polygon class="st1" points="176.77 338.86 74.24 336.94 87.39 355.36 92.22 355.44 536.54 362.73 536.81 362.73 552.6 345.89 502.08 344.94 473.79 344.42 365.25 342.38 300.51 341.17 293.54 341.04 176.77 338.86"/>
    <polyline class="st1" points="536.69 362.6 536.54 362.73 509.65 385.19 509.45 385.36"/>
    <polyline class="st1" points="92.13 355.36 92.22 355.44 133.58 390.56 133.97 390.89"/>
    <path class="st1" d="M141.74,393.51c.1.01.19.03.29.05,3.71.76,9.24,5.77,11.89,7.78,2.72,2.07,4.17-.01,4.17-.01-.7-17.54,17.19-12.1,20-8.42s11.93,9.64,14.04,8.42,1.4-3.16-1.23-7.37,11.58-6.49,14.21-2.63,2.8,8.07,14.38,12.45c2.11-4.39,12.98-10,14.73-6.32,1.76,3.68,10.17,5.44,10.17,5.44,0,0,4.21-6.14,13.34-8.07,9.12-1.92,14.56,2.99,23.85,9.83s10.53-1.23,12.63-4.91c2.11-3.68,13.68,1.05,15.79,5.44s15.61,6.14,21.93,1.75c6.31-4.38-4.21-9.82-9.12-11.4s-2.98-11.22,4.21-11.05,18.07,6.14,20.7,10.35c2.63,4.21,13.33,6.85,17.01,4.04,3.86-6.49,12.63-10.17,14.91-5.61s13.16,7.19,16.14,2.46c2.98-4.74-7.19-4.38-10.7-4.04-3.51.35-8.77-6.67-1.93-10.17,6.84-3.51,17.54,3.51,21.75,12.63,4.21,9.12,14.21,8.24,15.96,6.49s-4.38-7.19,1.4-11.92c5.79-4.74,12.1,3.68,12.8,5.61s4.56,6.49,14.39,5.09c9.82-1.4,10.88-9.83,7.37-11.75-3.51-1.93-20.24-4.62-23.68-6.67-5.62-3.33-6.67-15.96,9.65-15.79,22.98.17,23.86,15.26,24.2,20.87.35,5.62,5.44,8.6,10.18,4.21,4.73-4.39.35-4.03-1.58-9.47-1.93-8.07,8.6-8.07,13.5-4.38,4.91,3.69-.52,11.93-2.11,12.46-1.58.52-4.56,4.21-2.45,7.89s8.42-2.81,11.93-8.77c4.33-6.07,10.7-6.43,13.19-2.83.54.77.9,1.72,1.02,2.83.7,6.32-7.02,9.47-8.42,10.7s3.16,4.39,6.66,1.76c20-22.63,30.35-19.65,33.16-13.86,2.81,5.79-8.6,11.75-10.7,11.75s-13.16,5.26-13.16,5.26c0,0-3.22,7.58,8.07,7.28,16.86-.45,35.52,4.47,32.37,12.9-2.87,7.65-30,4.74-30,4.74,0,0,12.37,6.58,12.37,11.05s-7.63,5.52-26.05,5.52-53.68-4.21-53.68-4.21c0,0,8.68,4.74,7.63,8.16s-13.95,8.42-49.99,5.53c-36.05-2.9-131.04-4.21-134.72-10-3.68-5.79,7.37-7.89,9.47-9.21s-88.68-3.16-106.57-5.26c-17.89-2.11-10-9.47-10-9.47,0,0-38.42,2.36-40.52-.53s6.06-7.1,6.06-7.1c0,0-56.57-1.05-59.99-9.21s10.52-10.53,29.47-11.84c8.33-.58,15.14-.34,20.15.11,5.8.51,9.19,1.31,9.75,1.45.06.01.09.02.09.02"/>
    <path class="st1" d="M177.38,323.09s38.94-17.98,116.57,2.81"/>
    <path class="st1" d="M221.06,266.95s.2-.05.59-.14c5.07-1.16,41.83-8.89,73.61,3.82"/>
    <path class="st1" d="M253.95,217.75s16.05-9.74,42.63,2.63"/>
    <path class="st1" d="M333.55,140.13s-10.53,2.63-12.11,14.87-.66,25.39-17.63,32.89"/>
    <path class="st1" d="M302.89,222.22s.05.25.16.72c1.01,4.46,6.72,29.16,15.05,53.86,5.05,14.98,11.06,29.96,17.56,40.44,3.27,5.26,6.66,9.39,10.12,11.81"/>
    <path class="st1" d="M368.94,331.16s-6.32,8.16-3.68,10.79"/>
    <path class="st1" d="M335.78,317.16s1.58-21.52,40.52-17.05c12.35,2.06,26.14,5.58,38.75,9.54,18.7,5.86,34.79,12.68,39.66,17.17,5.62,5.88,12.92,6.3,15.08,5.67.02,0,.03-.01.05-.01"/>
    <path class="st1" d="M423.84,280.99s-7.72,6.84-5.26,9.82c2.45,2.98,7.19,13.33-3.51,18.77"/>
    <path class="st1" d="M361.04,191.96s-11.31-.53-9.47,12.63,12.37,26.05-.53,36.05c-12.89,10-33.67,10.52-32.63,36.05"/>
    <path class="st1" d="M301.84,35.93l-.06.09c-.11.2-.43.74-.86,1.56-2.22,4.22-7.44,15.73-3.88,25.29.79,2.15,2.03,4.2,3.85,6.05l.03.03"/>
    <path class="st1" d="M300.79,37.51s-3.95-1.84-6.05,1.84c-2.11,3.68-13.29-1.97-15.26-3.95-1.98-1.97-12.11.92-14.34,6.58-2.24,5.66-21.18-1.58-25.52-4.34s-9.6,7.24-11.84,8.42c-2.24,1.19-14.87-1.32-14.47.26s14.87,10,18.95,6.05,13.42-1.32,18.55,4.47,17.89,6.84,19.6.13,23.68,4.74,26.58,5.92"/>
  </g>
</svg>