<?xml version="1.0" encoding="UTF-8"?>
<svg id="Layer_1" xmlns="http://www.w3.org/2000/svg" version="1.1" viewBox="0 0 876.18 876.18">
  <!-- Generator: Adobe Illustrator 30.1.0, SVG Export Plug-In . SVG Version: 2.1.1 Build 136)  -->
  <defs>
    <style>
      .st0 {
        fill: none;
        stroke: #231f20;
        stroke-width: 2px;
      }

      .st1 {
        fill: #00b9f2;
      }

      .st2 {
        fill: #231f20;
      }

      .st3 {
        fill: #fff;
      }
    </style>
  </defs>
  <polygon class="st1" points="148.04 343.77 439.67 12.8 728.72 343.77 728.58 367.09 148.15 367.25 148.04 343.77"/>
  <polygon class="st0" points="148.04 343.77 439.67 12.8 728.72 343.77 728.58 367.09 148.15 367.25 148.04 343.77"/>
  <rect class="st3" x="148.29" y="347.52" width="580.63" height="516.98"/>
  <rect class="st0" x="148.29" y="347.52" width="580.63" height="516.98"/>
  <rect class="st3" x="318.52" y="634.28" width="240.17" height="230.21"/>
  <rect class="st0" x="318.52" y="634.28" width="240.17" height="230.21"/>
  <path class="st3" d="M287.39,595.73c50.22,0,90.94-40.72,90.94-90.94s-40.71-90.94-90.94-90.94-90.94,40.72-90.94,90.94,40.71,90.94,90.94,90.94"/>
  <path class="st0" d="M287.39,595.73c50.22,0,90.94-40.72,90.94-90.94s-40.71-90.94-90.94-90.94-90.94,40.72-90.94,90.94,40.71,90.94,90.94,90.94Z"/>
  <path class="st3" d="M589.82,595.73c50.22,0,90.94-40.72,90.94-90.94s-40.71-90.94-90.94-90.94-90.94,40.72-90.94,90.94,40.71,90.94,90.94,90.94"/>
  <path class="st0" d="M589.82,595.73c50.22,0,90.94-40.72,90.94-90.94s-40.71-90.94-90.94-90.94-90.94,40.72-90.94,90.94,40.71,90.94,90.94,90.94Z"/>
  <path class="st2" d="M527.73,245.37h-4.51c-.92,2.72-3.31,4.65-7.09,4.65-4.28,0-7.87-2.81-8.19-7.92h20.16c.09-.87.14-1.61.14-2.53,0-6.9-4.79-12.06-12.1-12.06s-12.47,5.02-12.47,12.98,5.29,13.07,12.47,13.07c6.26,0,10.31-3.59,11.6-8.19M515.95,231.06c4.33,0,8.01,2.72,7.96,7.64h-15.92c.46-4.92,3.87-7.64,7.96-7.64M493.91,253.15h4.19v-34.05h-4.19v34.05ZM482.59,240.5c0,5.94-3.96,9.39-8.56,9.39s-8.51-3.5-8.51-9.43,3.91-9.3,8.51-9.3,8.56,3.5,8.56,9.34M461.23,240.45c0,7.82,5.2,13.12,11.97,13.12,4.6,0,7.87-2.44,9.39-5.15v5.29c0,5.38-3.36,8.24-7.82,8.24-4.14,0-7.13-2.07-8.05-5.11h-4.14c.83,5.38,5.57,8.74,12.2,8.74,7.41,0,12.06-4.92,12.06-11.87v-25.77h-4.23v4.6c-1.47-2.72-4.79-5.02-9.39-5.02-6.76,0-11.97,5.06-11.97,12.93M451.8,253.15h4.14v-14.86c0-7.23-4.46-10.81-10.31-10.81-3.41,0-6.44,1.43-8.1,4.05v-3.59h-4.19v25.22h4.19v-13.94c0-5.43,2.95-8.1,7.23-8.1s7.04,2.62,7.04,7.78v14.27ZM422.03,240.5c0,5.94-3.96,9.39-8.56,9.39s-8.51-3.5-8.51-9.43,3.91-9.3,8.51-9.3,8.56,3.5,8.56,9.34M400.67,240.45c0,7.82,5.2,13.12,11.92,13.12,4.65,0,7.92-2.39,9.43-5.11v4.69h4.23v-25.22h-4.23v4.6c-1.47-2.62-4.69-5.02-9.39-5.02-6.76,0-11.97,5.06-11.97,12.93M393.08,223.84c1.52,0,2.76-1.24,2.76-2.85s-1.24-2.85-2.76-2.85c-1.61,0-2.85,1.24-2.85,2.85s1.24,2.85,2.85,2.85M390.92,253.15h4.19v-25.22h-4.19v25.22ZM377.94,239.44c0-5.84,3.04-7.64,7.04-7.64h1.1v-4.33c-4,0-6.72,1.75-8.15,4.56v-4.1h-4.19v25.22h4.19v-13.71ZM357.92,246.25c0,5.06,2.53,6.9,6.99,6.9h3.77v-3.54h-3.08c-2.58,0-3.5-.87-3.5-3.36v-14.86h6.58v-3.45h-6.58v-6.35h-4.19v6.35h-3.27v3.45h3.27v14.86Z"/>
</svg>