<?xml version="1.0" encoding="UTF-8"?>
<svg id="Layer_1" xmlns="http://www.w3.org/2000/svg" version="1.1" viewBox="0 0 633.25 482.6">
  <!-- Generator: Adobe Illustrator 30.1.0, SVG Export Plug-In . SVG Version: 2.1.1 Build 136)  -->
  <defs>
    <style>
      .st0 {
        fill: #fff;
        stroke: #231f20;
      }
    </style>
  </defs>
  <path class="st0" d="M316.62,56.66c101.95,0,184.59,82.65,184.59,184.59s-82.65,184.6-184.59,184.6-184.59-82.65-184.59-184.6S214.67,56.66,316.62,56.66Z"/>
  <path class="st0" d="M273.89,113.99c21.61,0,39.13,17.52,39.13,39.13s-17.52,39.12-39.13,39.12-39.13-17.52-39.13-39.12,17.52-39.13,39.13-39.13Z"/>
  <path class="st0" d="M241.94,174.1s-87.26,72.85-64.77,187.97"/>
  <path class="st0" d="M260.83,189.84s-1.8,71.05,11.25,130.86c13.04,59.81,48.12,105.23,48.12,105.23"/>
  <path class="st0" d="M312.11,159.71s57.57,20.68,109.75,83.19c52.17,62.51,42.73,108.83,42.73,108.83"/>
  <path class="st0" d="M306.26,130.93s53.07-40.47,120.54-36.87"/>
  <path class="st0" d="M280.17,114.74s9.9-37.77,31.94-57.56"/>
  <path class="st0" d="M237.45,139.93s-32.83-11.24-71.52-4.95"/>
</svg>