<?xml version="1.0" encoding="UTF-8"?>
<svg id="Layer_1" xmlns="http://www.w3.org/2000/svg" version="1.1" viewBox="0 0 633.25 482.6">
  <!-- Generator: Adobe Illustrator 30.1.0, SVG Export Plug-In . SVG Version: 2.1.1 Build 136)  -->
  <defs>
    <style>
      .st0 {
        fill: #fff;
      }

      .st1 {
        fill: none;
        stroke: #231f20;
      }
    </style>
  </defs>
  <g>
    <path class="st0" d="M470.56,141.23c-.22,4.07-.15,6.67.09,6.31.26-.38.29-2.65-.09-6.31ZM320.66,391.39c-4.67-3.85-8.46-8.89-11.18-15.79-8.18-20.79-17.2-66.38-18.21-71.55-4.49-2.34-8.99-3.91-13.46-4.95,30.2-3.69,58.85-15.84,79.18-27.98h.01c4.32-.81,24.35-4.77,28.73-9.15l.27.12c1.34-2.9,3.09-5.84,5.36-8.73,14.54-18.53,41.29-22.05,48.09-81.41,6.81-59.36-11.26-78.13-23.23-93.38-11.96-15.25,26.51-14.31,39.89,13.37,9.7,20.08,13.47,39.55,14.45,49.26.64-11.82,3.69-36.01,12.06-36.36,11.26-.47,21.35,19.47,19,43.17-2.35,23.7-6.81,38.48-6.81,38.48,0,0,29.56-50.68,41.76-34.02,12.2,16.66-26.98,65.22-26.98,65.22,0,0,29.32-12.2,34.95,2.81,5.63,15.02-24.4,33.31-24.4,33.31,0,0,26.28,2.59,22.52,20.42-3.47,16.52-33.32,21.56-38.27,21.47-.51-.21-.78-.25-.68-.12.05.07.29.11.68.12,3.24,1.27,16.32,9.07,11.05,22.64-5.13,13.23-29.52,10.67-37.13,9.53-1.2-.41-2.28-.38-2.28-.38,0,0,.84.17,2.28.38,2.14.74,4.66,2.91,1.94,9.24-2.94,6.86-12.36,10.42-21.3,8.39.03,2.59.16,12.58.53,21.71.21,5.11.49,9.95.87,13.08,1.17,9.62,10.08,10.56,7.97,15.01-2.12,4.46-12.68-4.22-14.08-4.22s6.58,9.39,3.29,12.67c-2.27,2.27-6.58-1.31-9.02-3.73-.18-.19-.35-.36-.51-.52-.71-.73-1.17-1.27-1.25-1.36v.02c.13.72,1.9,11.04-3.53,12.63-5.64,1.64-10.09-8.21-11.03-8.68-.84-.42-3.58,5.02-5.32,5.97-.2.1-.38.15-.55.13-1.64-.24-40.58,4.69-64.52-1.41-16.44-4.19-30.89-6.94-41.14-15.41Z"/>
    <path class="st0" d="M472.34,431.29l-.12.1c1.92,2.19-1.37,15.6-17.79,17.79s-22.72,1.92-22.99-13.96c-.25-14.56-3.96-25.44-4.57-27.14,1.74-.95,4.48-6.39,5.32-5.97.94.47,5.39,10.32,11.03,8.68,5.43-1.59,3.66-11.91,3.53-12.63.11.12.57.65,1.25,1.34.16.17.33.34.51.52,2.44,2.42,6.75,6,9.02,3.73,3.29-3.28-4.69-12.67-3.29-12.67s11.96,8.68,14.08,4.22c2.11-4.45-6.8-5.39-7.97-15.01-.38-3.13-.66-7.97-.87-13.08,2.09.78,15.63,4.46,30.81,5.88,17.52,1.64,33.12,3.56,37.5,2.46,4.29-1.07,2.8,29.12-8.84,32.15,5.35,1.85,9.24,3.47,10.21,4.81,3.56,4.93-30.66,39.14-38.59,36.4-3.69-1.27-11.22-9.35-18.23-17.62Z"/>
    <path class="st0" d="M503.71,295.58c-.1-.13.17-.09.68.12-.39-.01-.63-.05-.68-.12Z"/>
    <path class="st0" d="M476.03,327.49s1.08-.03,2.28.38c-1.44-.21-2.28-.38-2.28-.38Z"/>
    <path class="st0" d="M470.56,141.23c.38,3.66.35,5.93.09,6.31-.24.36-.31-2.24-.09-6.31Z"/>
    <path class="st0" d="M448.51,400.02c-.18-.18-.35-.35-.51-.52.16.16.33.33.51.52Z"/>
    <path class="st0" d="M446.75,398.14c.08.09.54.63,1.25,1.36-.68-.69-1.14-1.22-1.25-1.34v-.02Z"/>
    <path class="st0" d="M387.86,218.18c.14.58,4.1,16.4-1.66,28.6-1.97,4.17-8.75,10.68-18.93,17.74l-.26-.38s16.75-12.48,8.54-37.77c-8.21-25.3-34.16-38.76-34.16-38.76,0,0,13.46-6.9,15.11-10.84,1.64-3.94.33-59.45-31.86-82.11-32.19-22.66-53.87-5.58-66.68,10.18-12.21,15.04-25.63,79.97-26.84,85.95-.31-.24-.63-.49-.95-.75-5.99-4.76-12.73-5.61-19.14-3.61l-.04-.12c0-4.93,9.85-89.67-2.63-99.19-12.48-9.53-47.62,38.42-52.88,54.19-5.25,15.77.66,34.49.66,44.67s-4.93,10.51-4.93,10.51c.14-.13.26-.25.38-.38,0,0-3.76-16.42-6.81-36.13-3.05-19.7,26.04-77.42,87.04-89.39,0,0-21.12-5.63-16.66-14.31s26.98,5.39,26.98,5.39c0,0-6.57-25.1,3.52-28.86,10.09-3.75,3.28,22.99,15.72,26.28,12.43,3.29,38.95-3.29,88.92,35.19,49.97,38.47,32.84,91.26,32.84,91.26,0,0,11.5,2.35,9.86,7.98-1.64,5.63-10.32,6.57-10.32,6.57,0,0,14.78,2.58,15.96,13.14,1.17,10.54-8.17,7.98-10.78,4.95ZM386.74,216.87c-.08-.09-.14-.16-.17-.19.03.04.08.1.17.19ZM387.55,217.81c-.19-.22-.35-.4-.49-.55.14.15.3.34.49.55Z"/>
    <path class="st0" d="M387.06,217.26c.14.15.3.33.49.55-.19-.21-.35-.4-.49-.55Z"/>
    <path class="st0" d="M386.57,216.68s.09.1.17.19c-.09-.09-.14-.15-.17-.19Z"/>
    <path class="st0" d="M169.93,136.71s10.84-11.82,20.69-12.81c9.85-.98,7.55-12.48-2.3-7.55-9.7,4.85-18.13,19.88-18.39,20.36ZM356.99,271.12c-20.33,12.14-48.98,24.29-79.18,27.98-4.33-1.01-8.63-1.51-12.87-1.74-11.64-.61-22.77.9-32.65.11-20.42-1.65-82.82-8.68-90.56-35.43-7.53-26.03,12.94-45.4,14.03-46.41-1.13.8-20.67,14.6-23.41,9.81-2.81-4.93,12.9-16.42,12.9-16.42-15.02-4.93-11.5-11.97-11.5-11.97,5.18,5.4,14.23,2.38,17.46-.56,0,0,4.93-.33,4.93-10.51s-5.91-28.9-.66-44.67c5.26-15.77,40.4-63.72,52.88-54.19,12.48,9.52,2.63,94.26,2.63,99.19l.04.12c-3.36,1.04-6.62,2.87-9.64,5.32l-.07-.09s1.41-28.39-6.57-43.41c-7.97-15.01-24.16-4.45-28.38,20.18-3.73,21.77,4.27,29.06,6.17,30.46,10.46-5.75,27.61-7,27.61-7l.46.53c-2.99,2.57-5.71,5.77-8,9.43-9.09,14.54-5,26.35-5,26.35.11-1.68,3.54-4.28,11.22-5.63v.03c2.58,1.82.45,16.36-.15,22.57-.61,6.21,17.57,12.42,36.8,9.24s36.19-28.32,35.89-37.41c-.31-9.09-5.91-7.73-15-10.15-8.86-2.36-13.39-6.6-25.25-16.06,1.21-5.98,14.63-70.91,26.84-85.95,12.81-15.76,34.49-32.84,66.68-10.18,32.19,22.66,33.5,78.17,31.86,82.11-1.65,3.94-15.11,10.84-15.11,10.84,0,0,25.95,13.46,34.16,38.76,8.21,25.29-8.54,37.77-8.54,37.77l.26.38c-3.12,2.17-6.56,4.39-10.27,6.6h-.01ZM302.69,119.33c-.8-.67-13.78-11.37-24.41-12.43-10.96-1.1-9,10.47.55,7.87,9.28-2.52,23.06,4.17,23.86,4.56ZM302.22,186.03s2.58-9.38-3.29-39.18c-2.55-12.94-12.14-16.88-18.53-16.79-12.42.17-23.8,18.18-25.35,33.21-2.34,22.76,5.87,23.46,5.87,23.46h.01c23.46-10.32,41.29-.7,41.29-.7Z"/>
    <path class="st0" d="M286.94,399.01c-.52,2.88-6.9,36.13-25.31,30.07-18.92-6.24-8.8-33.11-8.46-34-.67.86-25.37,32.23-45.5,22.97-20.17-9.27,13.48-40.76,14.29-41.52-1.24.55-55.5,24.65-68.49,6.8-13.14-18.07,13.37-27.22,13.37-27.22,0,0-56.54-6.33-54.43-18.76,2.11-12.43,41.29-13.14,41.29-13.14-21.82-2.58-44.34-16.89-59.59-49.5-15.25-32.61,1.41-38.01,14.08-23.23,12.67,14.78,29.09,35.19,58.89,46.45s64.05,7.5,76.25,5.63c12.19-1.88,21.58-5.63,21.58-5.63l.03-.57c4.24.23,8.54.73,12.87,1.74,4.47,1.04,8.97,2.61,13.46,4.95,1.01,5.17,10.03,50.76,18.21,71.55,2.72,6.9,6.51,11.94,11.18,15.79-.9,3.1-8.57,27.96-22.43,29.94-14,2.01-11.58-19.98-11.29-22.32Z"/>
    <path class="st0" d="M298.93,146.85c5.87,29.8,3.29,39.18,3.29,39.18,0,0-17.83-9.62-41.29.7h-.01s-8.21-.7-5.87-23.46c1.55-15.03,12.93-33.04,25.35-33.21,6.39-.09,15.98,3.85,18.53,16.79ZM286.54,169.05c0-1.17-.14-2.3-.41-3.38-.1-.43-.23-.86-.38-1.27s-.31-.82-.49-1.21c-.18-.4-.38-.78-.6-1.16-.21-.37-.45-.73-.7-1.08-2.37-3.29-6.15-5.43-10.4-5.43s-8.03,2.14-10.4,5.43c-.25.35-.49.71-.7,1.08-.22.38-.42.76-.6,1.16-.18.39-.35.8-.49,1.21-.15.41-.28.84-.38,1.27-.27,1.08-.41,2.21-.41,3.38,0,7.47,5.81,13.53,12.98,13.53s12.98-6.06,12.98-13.53Z"/>
    <path class="st0" d="M278.28,106.9c10.63,1.06,23.61,11.76,24.41,12.43-.8-.39-14.58-7.08-23.86-4.56-9.55,2.6-11.51-8.97-.55-7.87Z"/>
    <path class="st0" d="M286.13,165.67c.27,1.08.41,2.21.41,3.38,0,7.47-5.81,13.53-12.98,13.53s-12.98-6.06-12.98-13.53c0-1.17.14-2.3.41-3.38.11-.43.23-.86.38-1.27.14-.41.31-.82.49-1.21.19-.4.39-.78.6-1.16.22-.37.45-.73.7-1.08,2.37-3.29,6.14-5.43,10.4-5.43s8.03,2.14,10.4,5.43c.25.35.48.71.7,1.08.21.38.41.76.6,1.16.18.39.34.8.49,1.21s.27.84.38,1.27Z"/>
    <path class="st0" d="M285.75,164.4c.15.41.28.84.38,1.27-.11-.43-.23-.86-.38-1.27Z"/>
    <path class="st0" d="M284.66,162.03c.22.38.42.76.6,1.16-.19-.4-.39-.78-.6-1.16Z"/>
    <path class="st0" d="M283.96,160.95c.25.35.49.71.7,1.08-.22-.37-.45-.73-.7-1.08Z"/>
    <path class="st0" d="M225.17,221.93v.07s-12.37,13.41-7.27,16.21c7.34,4.03,23.74-6.57,32.22-15-.8-.06-12.82-.85-24.95-1.28ZM198.83,222.57c-7.68,1.35-11.11,3.95-11.22,5.63,0,0-4.09-11.81,5-26.35,2.29-3.66,5.01-6.86,8-9.43.26-.23.52-.45.78-.67,3.02-2.45,6.28-4.28,9.64-5.32,6.41-2,13.15-1.15,19.14,3.61.32.26.64.51.95.75,11.86,9.46,16.39,13.7,25.25,16.06,9.09,2.42,14.69,1.06,15,10.15.3,9.09-16.66,34.23-35.89,37.41s-37.41-3.03-36.8-9.24c.6-6.21,2.73-20.75.15-22.57v-.03Z"/>
    <path class="st0" d="M263.16,160.95c-.25.35-.48.71-.7,1.08.21-.37.45-.73.7-1.08Z"/>
    <path class="st0" d="M262.46,162.03c-.21.38-.41.76-.6,1.16.18-.4.38-.78.6-1.16Z"/>
    <path class="st0" d="M261.37,164.4c-.15.41-.27.84-.38,1.27.1-.43.23-.86.38-1.27Z"/>
    <path class="st0" d="M225.17,221.93c12.13.43,24.15,1.22,24.95,1.28-8.48,8.43-24.88,19.03-32.22,15-5.1-2.8,7.27-16.21,7.27-16.21v-.07Z"/>
    <path class="st0" d="M201.32,191.66l.07.09c-.26.22-.52.44-.78.67l-.46-.53s-17.15,1.25-27.61,7c-1.9-1.4-9.9-8.69-6.17-30.46,4.22-24.63,20.41-35.19,28.38-20.18,7.98,15.02,6.57,43.41,6.57,43.41ZM196.58,180.68c0-7.47-5.81-13.53-12.98-13.53s-12.98,6.06-12.98,13.53,5.81,13.53,12.98,13.53,12.98-6.06,12.98-13.53Z"/>
    <path class="st0" d="M188.32,116.35c9.85-4.93,12.15,6.57,2.3,7.55-9.85.99-20.69,12.81-20.69,12.81.26-.48,8.69-15.51,18.39-20.36Z"/>
    <ellipse class="st0" cx="183.6" cy="180.68" rx="12.98" ry="13.53"/>
  </g>
  <g>
    <path class="st1" d="M249.7,215.34s6.66-.75,7.72,6.21"/>
    <path class="st1" d="M250.16,223.21h-.04c-.8-.06-12.82-.85-24.95-1.28-5.97-.21-11.97-.34-16.66-.24-3.77.08-6.99.4-9.68.88-7.68,1.35-11.11,3.95-11.22,5.63,0,0-4.09-11.81,5-26.35,2.29-3.66,5.01-6.86,8-9.43.26-.23.52-.45.78-.67,3.02-2.45,6.28-4.28,9.64-5.32,6.41-2,13.15-1.15,19.14,3.61.32.26.64.51.95.75,11.86,9.46,16.39,13.7,25.25,16.06,9.09,2.42,14.69,1.06,15,10.15.3,9.09-16.66,34.23-35.89,37.41s-37.41-3.03-36.8-9.24c.6-6.21,2.73-20.75.15-22.57"/>
    <path class="st1" d="M225.17,222s-12.37,13.41-7.27,16.21c7.34,4.03,23.74-6.57,32.22-15,2.37-2.36,4.12-4.55,4.88-6.2"/>
    <path class="st1" d="M260.93,186.73h-.01s-8.21-.7-5.87-23.46c1.55-15.03,12.93-33.04,25.35-33.21,6.39-.09,15.98,3.85,18.53,16.79,5.87,29.8,3.29,39.18,3.29,39.18,0,0-17.83-9.62-41.29.7Z"/>
    <path class="st1" d="M200.15,191.89s-17.15,1.25-27.61,7c-2.31,1.26-4.3,2.75-5.7,4.5"/>
    <path class="st1" d="M172.94,199.16s-.15-.08-.4-.27c-1.9-1.4-9.9-8.69-6.17-30.46,4.22-24.63,20.41-35.19,28.38-20.18,7.98,15.02,6.57,43.41,6.57,43.41"/>
    <path class="st1" d="M356.99,271.12c-20.33,12.14-48.98,24.29-79.18,27.98"/>
    <path class="st1" d="M387.86,218.18c.14.58,4.1,16.4-1.66,28.6-1.97,4.17-8.75,10.68-18.93,17.74-3.12,2.17-6.56,4.39-10.27,6.6"/>
    <path class="st1" d="M387.06,217.26c.14.15.3.33.49.55"/>
    <path class="st1" d="M386.55,216.66l.02.02s.09.1.17.19"/>
    <path class="st1" d="M155.81,215.59s-.02.01-.05.04c-1.13.8-20.67,14.6-23.41,9.81-2.81-4.93,12.9-16.42,12.9-16.42-15.02-4.93-11.5-11.97-11.5-11.97,5.18,5.4,14.23,2.38,17.46-.56.14-.13.26-.25.38-.38,0,0-3.76-16.42-6.81-36.13-3.05-19.7,26.04-77.42,87.04-89.39,0,0-21.12-5.63-16.66-14.31s26.98,5.39,26.98,5.39c0,0-6.57-25.1,3.52-28.86,10.09-3.75,3.28,22.99,15.72,26.28,12.43,3.29,38.95-3.29,88.92,35.19,49.97,38.47,32.84,91.26,32.84,91.26,0,0,11.5,2.35,9.86,7.98-1.64,5.63-10.32,6.57-10.32,6.57,0,0,14.78,2.58,15.96,13.14,1.17,10.54-8.17,7.98-10.78,4.95t-.01-.02c-.11-.13-.21-.24-.3-.35-.19-.21-.35-.4-.49-.55-.13-.17-.24-.3-.32-.39-.09-.09-.14-.15-.17-.19"/>
    <path class="st1" d="M302.91,312.01c-3.85-3.34-7.74-5.94-11.64-7.96-4.49-2.34-8.99-3.91-13.46-4.95-4.33-1.01-8.63-1.51-12.87-1.74-11.64-.61-22.77.9-32.65.11-20.42-1.65-82.82-8.68-90.56-35.43-7.53-26.03,12.94-45.4,14.03-46.41"/>
    <path class="st1" d="M286.94,399.01c-.29,2.34-2.71,24.33,11.29,22.32,13.86-1.98,21.53-26.84,22.43-29.94.06-.21.09-.32.09-.32"/>
    <path class="st1" d="M253.18,395.06s0,.01-.01.02c-.34.89-10.46,27.76,8.46,34,18.41,6.06,24.79-27.19,25.31-30.07v-.11s0-.05,0-.06v-.03"/>
    <path class="st1" d="M221.98,376.52s-.01,0-.02.01c-.81.76-34.46,32.25-14.29,41.52,20.13,9.26,44.83-22.11,45.5-22.97"/>
    <path class="st1" d="M264.91,297.93s-9.39,3.75-21.58,5.63c-12.2,1.87-46.45,5.63-76.25-5.63s-46.22-31.67-58.89-46.45c-12.67-14.78-29.33-9.38-14.08,23.23,15.25,32.61,37.77,46.92,59.59,49.5,0,0-39.18.71-41.29,13.14-2.11,12.43,54.43,18.76,54.43,18.76,0,0-26.51,9.15-13.37,27.22,12.99,17.85,67.25-6.25,68.49-6.8"/>
    <path class="st1" d="M155.11,303.1s21.12,18.53,58.42,22.76c37.31,4.23,57.95-9.62,78.59,6.34"/>
    <path class="st1" d="M446.74,398.12v.02s.01.01.01.02c.11.12.57.65,1.25,1.34.16.17.33.34.51.52,2.44,2.42,6.75,6,9.02,3.73,3.29-3.28-4.69-12.67-3.29-12.67s11.96,8.68,14.08,4.22c2.11-4.45-6.8-5.39-7.97-15.01-.38-3.13-.66-7.97-.87-13.08-.37-9.13-.5-19.12-.53-21.71,0-.42,0-.64,0-.64"/>
    <path class="st1" d="M291.18,303.57l.09.48c1.01,5.17,10.03,50.76,18.21,71.55,2.72,6.9,6.51,11.94,11.18,15.79,10.25,8.47,24.7,11.22,41.14,15.41,23.94,6.1,62.88,1.17,64.52,1.41.17.02.35-.03.55-.13,1.74-.95,4.48-6.39,5.32-5.97.94.47,5.39,10.32,11.03,8.68,5.43-1.59,3.66-11.91,3.53-12.63v-.02"/>
    <path class="st1" d="M478.31,327.87c2.14.74,4.66,2.91,1.94,9.24-2.94,6.86-12.36,10.42-21.3,8.39-3.9-.89-7.71-2.84-10.84-6.04"/>
    <path class="st1" d="M478.31,327.87c-1.44-.21-2.28-.38-2.28-.38,0,0,1.08-.03,2.28.38Z"/>
    <path class="st1" d="M504.39,295.7c3.24,1.27,16.32,9.07,11.05,22.64-5.13,13.23-29.52,10.67-37.13,9.53"/>
    <path class="st1" d="M503.71,295.58c-.1-.13.17-.09.68.12-.39-.01-.63-.05-.68-.12Z"/>
    <path class="st1" d="M470.56,141.2c.64-11.82,3.69-36.01,12.06-36.36,11.26-.47,21.35,19.47,19,43.17-2.35,23.7-6.81,38.48-6.81,38.48,0,0,29.56-50.68,41.76-34.02,12.2,16.66-26.98,65.22-26.98,65.22,0,0,29.32-12.2,34.95,2.81,5.63,15.02-24.4,33.31-24.4,33.31,0,0,26.28,2.59,22.52,20.42-3.47,16.52-33.32,21.56-38.27,21.47"/>
    <path class="st1" d="M470.56,141.23c.38,3.66.35,5.93.09,6.31-.24.36-.31-2.24-.09-6.31Z"/>
    <line class="st1" x1="470.56" y1="141.23" x2="470.56" y2="141.2"/>
    <path class="st1" d="M383.62,292.31s-4.85-14.54,2.38-30.22c1.34-2.9,3.09-5.84,5.36-8.73,14.54-18.53,41.29-22.05,48.09-81.41,6.81-59.36-11.26-78.13-23.23-93.38-11.96-15.25,26.51-14.31,39.89,13.37,9.7,20.08,13.47,39.55,14.45,49.26"/>
    <path class="st1" d="M456.9,411.96s7.37,9.8,15.44,19.33c7.01,8.27,14.54,16.35,18.23,17.62,7.93,2.74,42.15-31.47,38.59-36.4-.97-1.34-4.86-2.96-10.21-4.81-14.34-4.96-39.13-11.55-45.9-18.73"/>
    <path class="st1" d="M459.36,367.07c-.26-.04-.21.02.12.14,2.09.78,15.63,4.46,30.81,5.88,17.52,1.64,33.12,3.56,37.5,2.46,4.29-1.07,2.8,29.12-8.84,32.15-.24.06-.49.11-.74.15"/>
    <path class="st1" d="M426.79,407.85s.03.08.08.23c.61,1.7,4.32,12.58,4.57,27.14.27,15.88,6.57,16.15,22.99,13.96s19.71-15.6,17.79-17.79"/>
    <path class="st1" d="M448.96,133.86s12.48,42.03,5.75,65.97c-14.78,52.55-64.05,72.53-54.19,101.55"/>
    <path class="st1" d="M356.17,271.27s.29-.05.82-.15h.01c4.32-.81,24.35-4.77,28.73-9.15"/>
    <path class="st1" d="M231.03,191.23s.03-.15.09-.44c1.21-5.98,14.63-70.91,26.84-85.95,12.81-15.76,34.49-32.84,66.68-10.18,32.19,22.66,33.5,78.17,31.86,82.11-1.65,3.94-15.11,10.84-15.11,10.84,0,0,25.95,13.46,34.16,38.76,8.21,25.29-8.54,37.77-8.54,37.77"/>
    <path class="st1" d="M151.21,196.49s4.93-.33,4.93-10.51-5.91-28.9-.66-44.67c5.26-15.77,40.4-63.72,52.88-54.19,12.48,9.52,2.63,94.26,2.63,99.19"/>
    <line class="st1" x1="169.92" y1="136.71" x2="169.93" y2="136.71"/>
    <path class="st1" d="M190.62,123.9c9.85-.98,7.55-12.48-2.3-7.55-9.7,4.85-18.13,19.88-18.39,20.36,0,0,10.84-11.82,20.69-12.81Z"/>
    <path class="st1" d="M278.83,114.77c-9.55,2.6-11.51-8.97-.55-7.87,10.63,1.06,23.61,11.76,24.41,12.43-.8-.39-14.58-7.08-23.86-4.56Z"/>
    <polyline class="st1" points="302.69 119.33 302.7 119.34 302.71 119.34"/>
    <path class="st1" d="M302.73,119.36l-.02-.02"/>
    <ellipse class="st1" cx="183.6" cy="180.68" rx="12.98" ry="13.53"/>
    <path class="st1" d="M263.16,160.95c2.37-3.29,6.14-5.43,10.4-5.43s8.03,2.14,10.4,5.43c.25.35.48.71.7,1.08.21.38.41.76.6,1.16.18.39.34.8.49,1.21s.27.84.38,1.27c.27,1.08.41,2.21.41,3.38,0,7.47-5.81,13.53-12.98,13.53s-12.98-6.06-12.98-13.53c0-1.17.14-2.3.41-3.38.1-.43.23-.86.38-1.27.14-.41.31-.82.49-1.21.18-.4.38-.78.6-1.16.21-.37.45-.73.7-1.08Z"/>
  </g>
</svg>