<?xml version="1.0" encoding="UTF-8"?>
<svg id="Layer_1" xmlns="http://www.w3.org/2000/svg" version="1.1" viewBox="0 0 633.25 482.6">
  <!-- Generator: Adobe Illustrator 30.1.0, SVG Export Plug-In . SVG Version: 2.1.1 Build 136)  -->
  <defs>
    <style>
      .st0 {
        fill: #fff;
      }

      .st1 {
        fill: none;
        stroke: #231f20;
      }
    </style>
  </defs>
  <g>
    <path class="st0" d="M85.08,260.77c-5.31,6.29-11,13.66-11,13.66-1.68-4.19,8.8-21.95,9.1-22.46h.01s.08-.64.08-.64c1.3.18,2.66.32,4.06.4,2.15.13,4.21.18,6.18.17v.18c-.54.25-1.41.99-2.48,2.06-1.64,1.64-3.76,4.04-5.95,6.63Z"/>
    <path class="st0" d="M325.07,385.05c1.11,3.4,1.08,10.45-5.42,12.29-7.29,2.07-26.84,4.01-34.25.49s3.89-19.92,6.19-23.44c.14-.22.3-.43.46-.64l.03.03s12.87-4.86,32.91,11.3l.08-.03Z"/>
    <path class="st0" d="M51.15,199.49c.61-.42,24.07-16.43,54.28-10.31,30.6,6.19,28.06,20.89,34.49,22.83,6.44,1.94,7.77,9.11,7.77,9.11l.13.05c-4.22,12.3-11.43,22.72-11.43,22.72l-.06.07c-4.1-3.57-9.28-3.71-9.8-3.72-1.22,1.38-2.62,2.67-4.23,3.85-.18.14-.37.28-.56.42-6.29,4.42-15.5,7.3-28.23,7.39-1.97.01-4.03-.04-6.18-.17-1.4-.08-2.76-.22-4.06-.4-3.17-.44-6.05-1.17-8.68-2.11-2.24-.8-4.28-1.75-6.15-2.82-15.11-8.61-18.76-24.43-18.76-24.43-.85.49-6.07,1.09-8.26-6.8-2.19-7.9,9.59-15.67,9.59-15.67l.02-.02h.12Z"/>
    <path class="st0" d="M138.88,246.92c4.25,6.74,2.91,10.93,2.91,10.93,0,0-.31-2.12-1.58-4.49s-5.28-6.44-5.28-6.44l3.1,11.72c-1.13-2.45-3.92-5.3-6.86-7.83-3.93-3.4-8.11-6.22-8.87-6.72,1.61-1.18,3.01-2.47,4.23-3.85.52.01,5.7.15,9.8,3.72.93.79,1.8,1.77,2.55,2.96Z"/>
    <path class="st0" d="M223.22,367.47c.97,3.64-2.55,5.1-5.83,7.65-3.03,2.35-3.67,6.67-3.37,8.85-7.76-10.02-23.34-11.62-24.91-11.76,1.65-1.52,3.55-3.45,5.81-6.8,5.71-8.5,12.02-29.39,12.38-35.47.37-6.07-2.79-12.99-.24-16.52,2.55-3.52,4.62-9.72,4.25-11.3-.35-1.54,2.88-34.38,3.03-35.9,2.42.14,4.37.44,5.61,2.75,1.2,2.24,10.79,12.37,24.38,18.1l-.1.24s-9.59,15.06-11.3,25.75c-1.7,10.69-2.79,18.46-5.46,28.3s-5.22,22.47-4.25,26.11Z"/>
    <path class="st0" d="M185.08,388.9c-3.69-1.95-3.66-4.91-2.06-8.92,1.62-4.05,3.55-5.42,6.09-7.77,1.57.14,17.15,1.74,24.91,11.76.02.18.05.35.09.5.49,1.94,0,8.14-16.03,7.05-6.42-.44-10.54-1.3-13-2.62Z"/>
    <path class="st0" d="M109.79,266.66c-18.88,4.92-24.71-5.89-24.71-5.89,2.19-2.59,4.31-4.99,5.95-6.63,1.25.55,12.02,5.1,19.56,1.89,7.28-3.09,10.6-10.24,11.15-11.52.19-.14.38-.28.56-.42.76.5,4.94,3.32,8.87,6.72,0,0-2.5,10.93-21.38,15.85Z"/>
    <path class="st0" d="M468.03,385.45c.92-.46,4.77-2.24,10.27-2.57l.08,1.34s-9.72,13-9.35,24.9l-.07.37c-4.92-.93-9.08-2.31-10.84-4.01-3.51-3.41,7.78-15.65,9.91-20.03Z"/>
    <path class="st0" d="M498.4,388.95c.31,5.03,1.23,10.44,1.62,13.01.73,4.86-2.18,7.65-11.78,8.62-5.39.54-12.96.1-19.28-1.09l.07-.37c-.37-11.9,9.35-24.9,9.35-24.9l-.08-1.34c5.47-.33,12.56.78,20,6.08h.1Z"/>
    <path class="st0" d="M110.59,256.03c-7.54,3.21-18.31-1.34-19.56-1.89,1.07-1.07,1.94-1.81,2.48-2.06v-.18c12.73-.09,21.94-2.97,28.23-7.39-.55,1.28-3.87,8.43-11.15,11.52Z"/>
    <ellipse class="st0" cx="73.66" cy="173.21" rx="4.55" ry="4.43"/>
    <path class="st0" d="M117.63,179.7c6.48,0,11.72-5.41,11.72-12.08s-5.25-12.08-11.72-12.08-11.72,5.41-11.72,12.08,5.24,12.08,11.72,12.08ZM67.04,170.84c0,5.97,4.76,10.81,10.63,10.81s10.63-4.84,10.63-10.81-4.76-10.81-10.63-10.81-10.63,4.84-10.63,10.81ZM105.43,189.18c-30.21-6.12-53.67,9.89-54.28,10.31h-.12c.32-.42,5.59-7.03,10.06-14.08,1.11-1.76,1.89-3.59,2.44-5.54,1.51-5.27,1.4-11.41,1.8-19.22.06-1.3.15-2.64.25-4.03.08-1.07.24-2.09.47-3.05,2.43-10.65,12.53-15.04,12.53-15.04-.77,1.95-.65,3.67.61,4.63,5.03,3.84,15.27-5.7,15.53-5.93-.36.59-8.45,14.2-1.08,14.8,7.53.61,11.66-12.87,11.78-13.36,6.31,4.97,12.51,3.64,15.79-1.22.81-1.2,1.05-2.61.83-4.07,1.22.6,6.01,2.29,17.75.05.97-.18,1.95-.44,2.94-.77,13.35-4.41,28.49-20.82,31.31-25.22.81-1.26,1.56-2.27,2.32-2.86.12.8,1.48,11.8-10.09,22.78-12.02,11.42-13.6,11.78-17.37,13.36-3.76,1.58-7.28,6.8-7.41,8.38l-1.09,2.79c.24.49,9.35,11.17,27.33,1.7,17.15-9.03,21.58-26.24,17.42-38.35l.09-.03c3.4.12,26.48-10.2,52.71-25.99,26.24-15.79,62.91-11.29,92.18,2.19,29.27,13.48,52.35,11.05,71.9,9.96,19.56-1.1,55.14,1.33,82.1,17.12,9.71,5.68,17.16,14.14,22.67,23.78,6.02,10.53,9.72,22.48,11.49,33.79,1.12,7.1,1.48,13.95,1.18,20.04-1.22,24.66-17.98,53.56-23.2,62.67-5.23,9.11-12.88,24.17-11.3,30.97,1.57,6.81,5.82,2.92,11.41,3.65,5.59.72,9.23,24.65,6.68,36.55-2.55,11.9-1.7,32.79-1.7,36.19s1.82,9.11-1.46,12.51c-1.55,1.6-1.77,5.81-1.5,10.31h-.1c-7.44-5.29-14.53-6.4-20-6.07-5.5.33-9.35,2.11-10.27,2.57.31-.63.43-1.09.29-1.35-1.1-2.07,2.54-6.19,6.19-14.94,3.64-8.74.97-29.27.61-42.87-.37-13.6-7.78-9.72-13-10.08-5.23-.36-10.69-1.58-20.65-8.62-2.78-1.97-4.84-4.72-6.35-7.67-2.49.34-3.24,10.68-2.77,12.53.38,1.5-1.7,2.27-4.74,2.16-.9-.03-1.88-.15-2.91-.34-2.24-.43-3.7-3.07-4.6-5.6s-1.23-4.96-1.23-4.96c-1.83,1.33-12.64.12-13.24.12-.1,0-.23.01-.36.04-.66.11-1.58.63-1.58,2.75,0,2.55-.97,6.56-7.29,6.19-3.11-.18-4.63-1.34-5.2-2.68-.58-1.38-.15-2.96.59-3.88,1.46-1.82,3.53-3.89-.24-4.98-1.52-.44-2.72-.51-4.03-.68-1.94-.25-4.11-.72-7.87-2.97-.46-.27-.9-.56-1.33-.86-5.47-3.77-8.6-9.2-12.88-12.01-4.62-3.03-33.15-1.58-32.79-1.82h-.06c-.46,10.4-.74,20.35-.8,22.59-.12,4.74,4.62,14.21.61,16.52s-3.52,27.45-1.82,34.25c1.7,6.8-1.69,12.39-4.49,14.09s-2.92,10.93-1.46,13.6c.16.29.31.65.44,1.07l-.08.03c-20.04-16.16-32.91-11.3-32.91-11.3l-.03-.03c2.38-3.12,6.3-5.07,5.73-10.53-.61-5.84,5.96-17.25,9.96-27.33,4.01-10.08.48-19.43-1.58-21.74s-1.46-4.13-.73-4.98-3.64-13.48-4-14.09c-.14-.23-1.41-4.27-2.98-9.36-4.1-2.43-13.03,5.35-35.51,5.35-6.68,0-12.99-1.62-18.61-4-13.59-5.73-23.18-15.86-24.38-18.1-1.24-2.31-3.19-2.61-5.61-2.75-.9-.05-1.87-.07-2.89-.17-3.77-.36-9.11-3.88-14.82-17.12-5.51-12.77-45.59-27.91-48.42-28.97-.12.41-.26.81-.39,1.21l-.13-.05s-1.33-7.17-7.77-9.11c-6.43-1.94-3.89-16.64-34.49-22.83Z"/>
    <ellipse class="st0" cx="115.2" cy="169.93" rx="4.55" ry="4.43"/>
    <path class="st0" d="M400.65,327.14c-5.05-2.59-8.72-10.3-10.97-16.55l1.52-.46c.57,1.34,2.09,2.5,5.2,2.68,6.32.37,7.29-3.64,7.29-6.19,0-2.12.92-2.64,1.58-2.75-.09.71-.88,8.03.97,9.3,1.94,1.34,7.05,2.43,10.57.37,3.52-2.07,3.04-4.86,3.04-4.86h.25c.9,2.52,2.36,5.16,4.6,5.59,1.03.19,2.01.31,2.91.34v.03c-.24,5.83,7.77,2.55,9.96,4.98,2.18,2.43-5.95,18.7-10.69,27.69-4.73,8.98-5.58,17.36-4.49,19.55,1.1,2.19.61,7.77-2.3,9.35-1.46.79-1.88,5.56-2.06,10.45h-.13c-15.62-19.31-31.59-14.49-32.39-14.23,7.39-11.55,19.32-28.58,23.89-35.57,6.43-9.84.24-5.1-8.75-9.72Z"/>
    <path class="st0" d="M83.18,251.97l-20.39,15.9c.36-6.92,11.78-18.58,11.78-18.58l.02-.07c2.63.94,5.51,1.67,8.68,2.11l-.08.63h-.01Z"/>
    <path class="st0" d="M94.72,137.23c-.26.23-10.5,9.77-15.53,5.93-1.26-.96-1.38-2.68-.61-4.63.36-.91.92-1.88,1.65-2.84,4.02-5.3,13.22-10.48,23.37-6.37h0s.24-7.17,7.53-6.08c3.05.45,5.88,2.16,7.91,4.35,1.62,1.75,2.73,3.81,3,5.79.22,1.46-.02,2.87-.83,4.07-3.28,4.86-9.48,6.19-15.79,1.22-.12.49-4.25,13.97-11.78,13.36-7.37-.6.72-14.21,1.08-14.8Z"/>
    <path class="st0" d="M69.11,173.21c0,2.45,2.04,4.43,4.55,4.43s4.55-1.98,4.55-4.43-2.04-4.43-4.55-4.43-4.55,1.98-4.55,4.43ZM77.67,181.65c-5.87,0-10.63-4.84-10.63-10.81s4.76-10.81,10.63-10.81,10.63,4.84,10.63,10.81-4.76,10.81-10.63,10.81Z"/>
    <path class="st0" d="M385.51,372.43c.8-.26,16.77-5.08,32.39,14.22h.13c-.18,4.87-.13,9.85-.61,11.18-.97,2.67-33.15.97-37.77-.49-4.61-1.45-2.55-8.25-.12-14.57.7-1.83,2.96-5.63,5.98-10.34Z"/>
    <path class="st0" d="M74.57,249.29s-36.31,16.16-37.04,16.52c6.44-14.45,30.12-19.07,30.85-19.31l.06-.1c1.87,1.07,3.91,2.02,6.15,2.82l-.02.07Z"/>
    <path class="st0" d="M167.73,153.59c-17.98,9.47-27.09-1.21-27.33-1.7l1.09-2.79c.13-1.58,3.65-6.8,7.41-8.38,3.77-1.58,5.35-1.94,17.37-13.36,11.57-10.98,10.21-21.98,10.09-22.78,2.1-1.64,4.3.01,8.13,8.93.24.56.46,1.14.66,1.73,4.16,12.11-.27,29.32-17.42,38.35Z"/>
    <path class="st0" d="M20.53,182.14c-14.46-8.99-11.05-33.64-10.69-34.49.01-.03.06-.03.13-.02.14,1.53,2.07,18.54,20.27,19.93,19.07,1.46,31.33-12.27,34.98-6.92h.11c-.4,7.82-.29,13.96-1.8,19.23-1.94.75-29.07,10.94-43,2.27Z"/>
    <path class="st0" d="M418.87,303.71s.33,2.43,1.23,4.96h-.25s.48,2.8-3.04,4.87c-3.52,2.06-8.63.97-10.57-.37-1.85-1.27-1.06-8.59-.97-9.3.13-.03.26-.04.36-.04.6,0,11.41,1.21,13.24-.12Z"/>
    <path class="st0" d="M391.79,306.25c-.74.92-1.17,2.5-.59,3.88l-1.52.46c-1.75-4.85-2.63-8.83-2.63-8.83l-.05-.03c.29-.58.47-1.01.52-1.14,1.31.17,2.51.24,4.03.68,3.77,1.09,1.7,3.16.24,4.98Z"/>
    <path class="st0" d="M57.7,85.22c5.22-1.21.85,2.06-1.46,22.71-2.31,20.65,23.92,27.69,23.92,27.69l.07.07c-.73.96-1.29,1.93-1.65,2.84,0,0-10.1,4.39-12.53,15.04-.75-.45-3.86-2.07-7.78-4.68-7.7-5.14-18.5-14.11-20.61-25.66-4.44-24.26,14.82-36.79,20.04-38.01Z"/>
    <path class="st0" d="M379.65,297.62c3.76,2.25,5.93,2.72,7.87,2.97-.05.13-.23.56-.52,1.14-1.12,2.3-3.95,7.1-7.84,6.83-5.1-.37-6.92-1.46-5.34-4.38,1.58-2.91,4.49-7.41,4.49-7.41h.01c.43.29.87.58,1.33.85Z"/>
    <path class="st0" d="M137.25,83.52c16.51,17.11,5.95,47.8,5.48,49.14-.99.33-1.97.59-2.94.77-11.74,2.24-16.53.55-17.75-.05-.27-1.98-1.38-4.04-3-5.79l.12-.11c15.3-40.2-8.99-49.18-14.94-52.1-5.95-2.91,16.15-9.35,33.03,8.14Z"/>
    <path class="st0" d="M518.29,176.06c-1.77-11.31-5.47-23.26-11.49-33.79,2.1,1.81,12.21,13.44,22.58,28.37,11.23,16.16,25.38,19.23,49.69,15.23,20.36-3.35,20.65-19.23,21.37-27.82.15-1.67.31-3.06.63-4.03,2-6,6.16-3.38,6.16-3.38,1,1.14,1.88,3.61,2.26,6.85,1.4,11.63-3.47,33.25-31.03,39.15-32.06,6.86-56.1-16.35-60.17-20.58Z"/>
    <path class="st0" d="M623.63,135.86c3.16,16.4-14.09,21.62-14.09,21.62h-.05c-.38-3.23-1.26-5.7-2.26-6.84,0,0-4.16-2.62-6.16,3.38-.32.97-.48,2.36-.63,4.03-2.22-.28-20.04-3.26-21.63-27.17-1.7-25.5,13.73-31.21,13.73-31.21,0,0,3.04,8.38,8.14,10.81s19.79,8.98,22.95,25.38Z"/>
    <path class="st0" d="M65.58,156.62c-.1,1.39-.19,2.73-.25,4.03h-.11c-3.65-5.36-15.91,8.37-34.98,6.91-18.2-1.39-20.13-18.4-20.27-19.93,2.21.35,31.5,17.32,48.3,1.26,3.92,2.61,7.03,4.23,7.78,4.68-.23.96-.39,1.98-.47,3.05Z"/>
    <path class="st0" d="M115.2,174.36c2.51,0,4.55-1.98,4.55-4.43s-2.04-4.43-4.55-4.43-4.55,1.98-4.55,4.43,2.04,4.43,4.55,4.43ZM117.63,179.7c-6.48,0-11.72-5.41-11.72-12.08s5.25-12.08,11.72-12.08,11.72,5.41,11.72,12.08-5.24,12.08-11.72,12.08Z"/>
  </g>
  <g>
    <path class="st1" d="M148.05,219.9s.05.02.16.06c2.83,1.06,42.91,16.2,48.42,28.97,5.71,13.24,11.05,16.76,14.82,17.12,1.02.1,1.99.12,2.89.17,2.42.14,4.37.44,5.61,2.75,1.2,2.24,10.79,12.37,24.38,18.1,5.62,2.38,11.93,4,18.61,4,22.48,0,31.41-7.78,35.51-5.35.07.05.13.09.19.13"/>
    <path class="st1" d="M244.23,287.31s-9.59,15.06-11.3,25.75c-1.7,10.69-2.79,18.46-5.46,28.3s-5.22,22.47-4.25,26.11-2.55,5.1-5.83,7.65c-3.03,2.35-3.67,6.67-3.37,8.85.02.18.05.35.09.5.49,1.94,0,8.14-16.03,7.05-6.42-.44-10.54-1.3-13-2.62-3.69-1.95-3.66-4.91-2.06-8.92,1.62-4.05,3.55-5.42,6.09-7.77,1.65-1.52,3.55-3.45,5.81-6.8,5.71-8.5,12.02-29.39,12.38-35.47.37-6.07-2.79-12.99-.24-16.52,2.55-3.52,4.62-9.72,4.25-11.3-.35-1.54,2.88-34.38,3.03-35.9.01-.03.01-.05.01-.05"/>
    <path class="st1" d="M188.98,372.2s.04,0,.13.01c1.57.14,17.15,1.74,24.91,11.76.03.04.07.09.1.13"/>
    <path class="st1" d="M190.92,376.2s-7.1,8.67-5.84,12.7c0,.02,0,.03.01.05"/>
    <path class="st1" d="M272.53,237.27c0,.12,4.25,28.9,17.73,23.2"/>
    <path class="st1" d="M277.39,230.11s-1.94,7.77,3.52,14.21,10.2,17.25,11.05,20.16c.53,1.81,3.91,12.92,6.49,21.24,1.57,5.09,2.84,9.13,2.98,9.36.36.61,4.73,13.24,4,14.09s-1.33,2.67.73,4.98,5.59,11.66,1.58,21.74c-4,10.08-10.57,21.49-9.96,27.33.57,5.46-3.35,7.41-5.73,10.53-.16.21-.32.42-.46.64-2.3,3.52-13.6,19.92-6.19,23.44s26.96,1.58,34.25-.49c6.5-1.84,6.53-8.89,5.42-12.29-.13-.42-.28-.78-.44-1.07-1.46-2.67-1.34-11.9,1.46-13.6s6.19-7.29,4.49-14.09c-1.7-6.8-2.19-31.94,1.82-34.25s-.73-11.78-.61-16.52c.06-2.24.34-12.19.8-22.59.52-11.54,1.28-23.61,2.24-26.23.76-2.09,1.4-6.67,1.2-12.34-.26-7.84-2.11-17.78-7.39-26.16"/>
    <path class="st1" d="M335.93,244.44s.03-.03.1-.08c1.32-1.05,15.37-12.74,13.87-31.5"/>
    <path class="st1" d="M332.65,282.93c-.36.24,28.17-1.21,32.79,1.82,4.28,2.81,7.41,8.24,12.88,12.01.43.3.87.59,1.33.86,3.76,2.25,5.93,2.72,7.87,2.97,1.31.17,2.51.24,4.03.68,3.77,1.09,1.7,3.16.24,4.98-.74.92-1.17,2.5-.59,3.88.57,1.34,2.09,2.5,5.2,2.68,6.32.37,7.29-3.64,7.29-6.19,0-2.12.92-2.64,1.58-2.75.13-.03.26-.04.36-.04.6,0,11.41,1.21,13.24-.12,0,0,.33,2.43,1.23,4.96s2.36,5.17,4.6,5.6c1.03.19,2.01.31,2.91.34,3.04.11,5.12-.66,4.74-2.16-.47-1.85.28-12.19,2.77-12.53.13-.02.26-.01.39.02"/>
    <path class="st1" d="M405.27,303.82v.05c-.09.71-.88,8.03.97,9.3,1.94,1.34,7.05,2.43,10.57.37,3.52-2.07,3.04-4.86,3.04-4.86"/>
    <path class="st1" d="M387.54,300.54s-.01.02-.02.05c-.05.13-.23.56-.52,1.14-1.12,2.3-3.95,7.1-7.84,6.83-5.1-.37-6.92-1.46-5.34-4.38,1.58-2.91,4.49-7.41,4.49-7.41"/>
    <path class="st1" d="M444.68,211.1s-4.64,9.58-8.61,24.15c-3.58,13.12-6.61,30.3-5.23,48.17,0,0,.35,8.9,4.28,16.5,1.51,2.95,3.57,5.7,6.35,7.67,9.96,7.04,15.42,8.26,20.65,8.62,5.22.36,12.63-3.52,13,10.08.36,13.6,3.03,34.13-.61,42.87-3.65,8.75-7.29,12.87-6.19,14.94.14.26.02.72-.29,1.35-2.13,4.38-13.42,16.62-9.91,20.03,1.76,1.7,5.92,3.08,10.84,4.01,6.32,1.19,13.89,1.63,19.28,1.09,9.6-.97,12.51-3.76,11.78-8.62-.39-2.57-1.31-7.98-1.62-13.01-.27-4.5-.05-8.71,1.5-10.31,3.28-3.4,1.46-9.11,1.46-12.51s-.85-24.29,1.7-36.19c2.55-11.9-1.09-35.83-6.68-36.55-5.59-.73-9.84,3.16-11.41-3.65-1.58-6.8,6.07-21.86,11.3-30.97,5.22-9.11,21.98-38.01,23.2-62.67.3-6.09-.06-12.94-1.18-20.04-1.77-11.31-5.47-23.26-11.49-33.79-5.51-9.64-12.96-18.1-22.67-23.78-26.96-15.79-62.54-18.22-82.1-17.12-19.55,1.09-42.63,3.52-71.9-9.96-29.27-13.48-65.94-17.98-92.18-2.19-26.23,15.79-49.31,26.11-52.71,25.99"/>
    <path class="st1" d="M140.4,151.89c.24.49,9.35,11.17,27.33,1.7,17.15-9.03,21.58-26.24,17.42-38.35-.2-.59-.42-1.17-.66-1.73-3.83-8.92-6.03-10.57-8.13-8.93-.76.59-1.51,1.6-2.32,2.86-2.82,4.4-17.96,20.81-31.31,25.22-.99.33-1.97.59-2.94.77-11.74,2.24-16.53.55-17.75-.05-.24-.12-.34-.19-.34-.19"/>
    <path class="st1" d="M176.35,104.53s0,.02.01.05c.12.8,1.48,11.8-10.09,22.78-12.02,11.42-13.6,11.78-17.37,13.36-3.76,1.58-7.28,6.8-7.41,8.38"/>
    <path class="st1" d="M142.71,132.71s.01-.02.02-.05c.47-1.34,11.03-32.03-5.48-49.14-16.88-17.49-38.98-11.05-33.03-8.14,5.95,2.92,30.24,11.9,14.94,52.1"/>
    <path class="st1" d="M94.73,137.21s0,.01-.01.02c-.26.23-10.5,9.77-15.53,5.93-1.26-.96-1.38-2.68-.61-4.63.36-.91.92-1.88,1.65-2.84,4.02-5.3,13.22-10.48,23.37-6.37h0s.24-7.17,7.53-6.08c3.05.45,5.88,2.16,7.91,4.35,1.62,1.75,2.73,3.81,3,5.79.22,1.46-.02,2.87-.83,4.07-3.28,4.86-9.48,6.19-15.79,1.22-.12.49-4.25,13.97-11.78,13.36-7.37-.6.72-14.21,1.08-14.8"/>
    <path class="st1" d="M80.16,135.62s-26.23-7.04-23.92-27.69c2.31-20.65,6.68-23.92,1.46-22.71-5.22,1.22-24.48,13.75-20.04,38.01,2.11,11.55,12.91,20.52,20.61,25.66,3.92,2.61,7.03,4.23,7.78,4.68.14.1.19.14.15.14"/>
    <path class="st1" d="M78.58,138.53s-10.1,4.39-12.53,15.04c-.23.96-.39,1.98-.47,3.05-.1,1.39-.19,2.73-.25,4.03-.4,7.81-.29,13.95-1.8,19.22-.55,1.95-1.33,3.78-2.44,5.54-4.47,7.05-9.74,13.66-10.06,14.07l-.02.02s-11.78,7.77-9.59,15.67c2.19,7.89,7.41,7.29,8.26,6.8,0,0,3.65,15.82,18.76,24.43,1.87,1.07,3.91,2.02,6.15,2.82,2.63.94,5.51,1.67,8.68,2.11,1.3.18,2.66.32,4.06.4,2.15.13,4.21.18,6.18.17,12.73-.09,21.94-2.97,28.23-7.39.19-.14.38-.28.56-.42,1.61-1.18,3.01-2.47,4.23-3.85,3.73-4.23,5.67-9.25,6.1-14.38"/>
    <path class="st1" d="M127.04,227.43c.85.12,7.29-4.73,9.47,1.34"/>
    <path class="st1" d="M83.19,251.96h-.01c-.3.52-10.78,18.28-9.1,22.47,0,0,5.69-7.37,11-13.66,2.19-2.59,4.31-4.99,5.95-6.63,1.07-1.07,1.94-1.81,2.48-2.06"/>
    <path class="st1" d="M68.38,246.5c-.73.24-24.41,4.86-30.85,19.31.73-.36,37.04-16.52,37.04-16.52,0,0-11.42,11.66-11.78,18.58l20.39-15.9"/>
    <path class="st1" d="M85.08,260.77s5.83,10.81,24.71,5.89,21.38-15.85,21.38-15.85"/>
    <path class="st1" d="M90.91,254.09s.04.02.12.05c1.25.55,12.02,5.1,19.56,1.89,7.28-3.09,10.6-10.24,11.15-11.52.05-.13.08-.2.08-.2"/>
    <path class="st1" d="M122.18,244.01s.04.03.12.08c.76.5,4.94,3.32,8.87,6.72,2.94,2.53,5.73,5.38,6.86,7.83l-3.1-11.72s4.01,4.07,5.28,6.44,1.58,4.49,1.58,4.49c0,0,1.34-4.19-2.91-10.93-.75-1.19-1.62-2.17-2.55-2.96-4.1-3.57-9.28-3.71-9.8-3.72h-.04"/>
    <path class="st1" d="M136.39,243.89s7.21-10.42,11.43-22.72c.13-.4.27-.8.39-1.21.83-2.55,1.52-5.16,1.97-7.77,2.73-15.73-7.47-54.04-7.47-54.04"/>
    <path class="st1" d="M51.14,199.5h.01c.61-.43,24.07-16.44,54.28-10.32,30.6,6.19,28.06,20.89,34.49,22.83,6.44,1.94,7.77,9.11,7.77,9.11"/>
    <path class="st1" d="M112.83,210.67s4.98-9.35,11.54-6.56,4.74,11.66-.12,13.24"/>
    <path class="st1" d="M49.8,221.97s-8.02-4.01-3.89-10.69,9.96-2.55,10.57.85"/>
    <path class="st1" d="M63.64,179.83s-.04.01-.11.04c-1.94.75-29.07,10.94-43,2.27-14.46-8.99-11.05-33.64-10.69-34.49.01-.03.06-.03.13-.02,2.21.35,31.5,17.32,48.3,1.26l.02-.02"/>
    <path class="st1" d="M9.96,147.52s0,.04.01.11c.14,1.53,2.07,18.54,20.27,19.93,19.07,1.46,31.33-12.27,34.98-6.92"/>
    <ellipse class="st1" cx="77.67" cy="170.84" rx="10.63" ry="10.81"/>
    <ellipse class="st1" cx="117.63" cy="167.62" rx="11.72" ry="12.08"/>
    <ellipse class="st1" cx="115.2" cy="169.93" rx="4.55" ry="4.43"/>
    <ellipse class="st1" cx="73.66" cy="173.21" rx="4.55" ry="4.43"/>
    <path class="st1" d="M292.08,373.78s12.87-4.86,32.91,11.3"/>
    <path class="st1" d="M298.28,376.2c-.73.24-11.17,6.19-8.01,22.22"/>
    <path class="st1" d="M387.05,301.76s.88,3.98,2.63,8.83c2.25,6.25,5.92,13.96,10.97,16.55,8.99,4.62,15.18-.12,8.75,9.72-4.57,6.99-16.5,24.02-23.89,35.57-3.02,4.71-5.28,8.51-5.98,10.34-2.43,6.32-4.49,13.12.12,14.57,4.62,1.46,36.8,3.16,37.77.49.48-1.33.43-6.31.61-11.17.18-4.89.6-9.66,2.06-10.45,2.91-1.58,3.4-7.16,2.3-9.35-1.09-2.19-.24-10.57,4.49-19.55,4.74-8.99,12.87-25.26,10.69-27.69-2.19-2.43-10.2.85-9.96-4.98"/>
    <path class="st1" d="M385.48,372.44s.01,0,.03-.01c.8-.26,16.77-5.08,32.39,14.22"/>
    <path class="st1" d="M390.94,378.39s-10.93,10.69-10.32,18.95"/>
    <path class="st1" d="M467.82,385.56s.07-.04.21-.11c.92-.46,4.77-2.24,10.27-2.57,5.47-.33,12.56.78,20,6.08"/>
    <path class="st1" d="M478.38,384.22s-9.72,13-9.35,24.9"/>
    <path class="st1" d="M436.48,167.56s-18.55,34.92-.41,67.69c.02.03.04.05.05.08"/>
    <path class="st1" d="M517.69,175.41s.21.23.6.65c4.07,4.23,28.11,27.44,60.17,20.58,27.56-5.9,32.43-27.52,31.03-39.15-.38-3.24-1.26-5.71-2.26-6.85,0,0-4.16-2.62-6.16,3.38-.32.97-.48,2.36-.63,4.03-.72,8.59-1.01,24.47-21.37,27.82-24.31,4-38.46.93-49.69-15.23-10.37-14.93-20.48-26.56-22.58-28.37-.17-.16-.29-.24-.35-.25"/>
    <path class="st1" d="M609.54,157.48s17.25-5.22,14.09-21.62c-3.16-16.4-17.85-22.95-22.95-25.38s-8.14-10.81-8.14-10.81c0,0-15.43,5.71-13.73,31.21,1.59,23.91,19.41,26.89,21.63,27.17.15.02.23.03.23.03"/>
  </g>
</svg>