<?xml version="1.0" encoding="UTF-8"?>
<svg id="Layer_1" data-name="Layer 1" xmlns="http://www.w3.org/2000/svg" viewBox="0 0 481.34 73">
  <defs>
    <style>
      .cls-1 {
        fill: none;
        stroke: #231f20;
        stroke-miterlimit: 5.07;
      }
    </style>
  </defs>
  <path class="cls-1" d="M50.52,21.42h-10.96c-1.51-2.73-4.29-4.18-8-4.18-6.38,0-10.61,4.52-10.61,11.6,0,7.54,4.29,11.95,11.43,11.95,4.93,0,8.35-2.61,9.86-7.19h-12.59v-7.31h21.58v9.22c-2.09,7.02-8.87,14.04-19.6,14.04-12.18,0-20.76-8.53-20.76-20.71S19.37,8.08,31.55,8.08c9.74,0,16.82,4.99,18.97,13.34Z"/>
  <path class="cls-1" d="M73.14,49.72c-9.51,0-16.7-6.38-16.7-16.65s7.37-16.65,16.82-16.65,16.82,6.38,16.82,16.65-7.42,16.65-16.94,16.65ZM73.14,41.14c3.54,0,6.84-2.61,6.84-8.06s-3.25-8.06-6.73-8.06-6.73,2.55-6.73,8.06,3.02,8.06,6.61,8.06Z"/>
  <path class="cls-1" d="M111.82,49.72c-9.51,0-16.7-6.38-16.7-16.65s7.37-16.65,16.82-16.65,16.82,6.38,16.82,16.65-7.42,16.65-16.94,16.65ZM111.82,41.14c3.54,0,6.84-2.61,6.84-8.06s-3.25-8.06-6.73-8.06-6.73,2.55-6.73,8.06,3.02,8.06,6.61,8.06Z"/>
  <path class="cls-1" d="M148.02,16.43c4.29,0,8,1.97,9.98,4.93V6.34h9.92v42.92h-9.92v-4.64c-1.8,2.96-5.22,5.1-9.98,5.1-7.95,0-14.27-6.5-14.27-16.7s6.32-16.59,14.27-16.59ZM150.92,25.07c-3.71,0-7.08,2.78-7.08,7.95s3.36,8.06,7.08,8.06,7.08-2.84,7.08-8-3.31-8-7.08-8Z"/>
  <path class="cls-1" d="M235.48,31.69c0-4.23-2.44-6.55-6.21-6.55s-6.21,2.32-6.21,6.55v17.57h-9.86v-17.57c0-4.23-2.44-6.55-6.21-6.55s-6.21,2.32-6.21,6.55v17.57h-9.92V16.9h9.92v4.06c1.91-2.61,5.22-4.41,9.45-4.41,4.87,0,8.82,2.15,11.02,6.03,2.15-3.42,6.21-6.03,10.9-6.03,8,0,13.17,5.1,13.17,13.8v18.91h-9.86v-17.57Z"/>
  <path class="cls-1" d="M268.77,49.72c-9.51,0-16.7-6.38-16.7-16.65s7.37-16.65,16.82-16.65,16.82,6.38,16.82,16.65-7.42,16.65-16.94,16.65ZM268.77,41.14c3.54,0,6.84-2.61,6.84-8.06s-3.25-8.06-6.73-8.06-6.73,2.55-6.73,8.06,3.02,8.06,6.61,8.06Z"/>
  <path class="cls-1" d="M302.58,49.26h-9.92V16.9h9.92v5.39c2.26-3.42,5.8-5.74,10.15-5.74v10.5h-2.73c-4.7,0-7.42,1.62-7.42,7.19v15.02Z"/>
  <path class="cls-1" d="M341.56,31.69c0-4.41-2.44-6.84-6.21-6.84s-6.21,2.44-6.21,6.84v17.57h-9.92V16.9h9.92v4.29c1.97-2.73,5.45-4.64,9.8-4.64,7.48,0,12.47,5.1,12.47,13.8v18.91h-9.86v-17.57Z"/>
  <path class="cls-1" d="M359.13,8.2c0-3.02,2.38-5.39,5.92-5.39s5.86,2.38,5.86,5.39-2.38,5.34-5.86,5.34-5.92-2.38-5.92-5.34ZM360.06,16.9h9.92v32.36h-9.92V16.9Z"/>
  <path class="cls-1" d="M401.18,31.69c0-4.41-2.44-6.84-6.21-6.84s-6.21,2.44-6.21,6.84v17.57h-9.92V16.9h9.92v4.29c1.97-2.73,5.45-4.64,9.8-4.64,7.48,0,12.47,5.1,12.47,13.8v18.91h-9.86v-17.57Z"/>
  <path class="cls-1" d="M431.98,16.43c4.76,0,8.24,2.15,9.98,5.05v-4.58h9.92v32.31c0,8.64-4.99,16.01-16.18,16.01-9.63,0-15.89-4.87-16.76-12.59h9.8c.64,2.44,3.07,4,6.5,4,3.77,0,6.73-1.97,6.73-7.42v-4.58c-1.8,2.84-5.22,5.1-9.98,5.1-7.95,0-14.27-6.5-14.27-16.7s6.32-16.59,14.27-16.59ZM434.88,25.07c-3.71,0-7.08,2.78-7.08,7.95s3.36,8.06,7.08,8.06,7.08-2.84,7.08-8-3.31-8-7.08-8Z"/>
  <path class="cls-1" d="M468.64,49.72c-3.54,0-5.92-2.38-5.92-5.34s2.38-5.45,5.92-5.45,5.86,2.38,5.86,5.45-2.38,5.34-5.86,5.34ZM463.13,7.1h10.73l-1.16,27.78h-8.41l-1.16-27.78Z"/>
</svg>