<?xml version="1.0" encoding="UTF-8"?>
<svg id="Layer_1" data-name="Layer 1" xmlns="http://www.w3.org/2000/svg" viewBox="0 0 531.29 63">
  <defs>
    <style>
      .cls-1 {
        fill: none;
        stroke: #231f20;
        stroke-miterlimit: 5.07;
      }
    </style>
  </defs>
  <path class="cls-1" d="M50.52,27.14h-10.96c-1.51-2.73-4.29-4.18-8-4.18-6.38,0-10.61,4.52-10.61,11.6,0,7.54,4.29,11.95,11.43,11.95,4.93,0,8.35-2.61,9.86-7.19h-12.59v-7.31h21.58v9.22c-2.09,7.02-8.87,14.04-19.6,14.04-12.18,0-20.76-8.53-20.76-20.71S19.37,13.8,31.55,13.8c9.74,0,16.82,4.99,18.97,13.34Z"/>
  <path class="cls-1" d="M73.14,55.44c-9.51,0-16.7-6.38-16.7-16.65s7.37-16.65,16.82-16.65,16.82,6.38,16.82,16.65-7.42,16.65-16.94,16.65ZM73.14,46.86c3.54,0,6.84-2.61,6.84-8.06s-3.25-8.06-6.73-8.06-6.73,2.55-6.73,8.06,3.02,8.06,6.61,8.06Z"/>
  <path class="cls-1" d="M111.82,55.44c-9.51,0-16.7-6.38-16.7-16.65s7.37-16.65,16.82-16.65,16.82,6.38,16.82,16.65-7.42,16.65-16.94,16.65ZM111.82,46.86c3.54,0,6.84-2.61,6.84-8.06s-3.25-8.06-6.73-8.06-6.73,2.55-6.73,8.06,3.02,8.06,6.61,8.06Z"/>
  <path class="cls-1" d="M148.02,22.15c4.29,0,8,1.97,9.98,4.93v-15.02h9.92v42.92h-9.92v-4.64c-1.8,2.96-5.22,5.1-9.98,5.1-7.95,0-14.27-6.5-14.27-16.7s6.32-16.59,14.27-16.59ZM150.92,30.79c-3.71,0-7.08,2.78-7.08,7.95s3.36,8.06,7.08,8.06,7.08-2.84,7.08-8-3.31-8-7.08-8Z"/>
  <path class="cls-1" d="M202.19,22.15c4.81,0,8.24,2.2,9.98,5.05v-4.58h9.92v32.36h-9.92v-4.58c-1.8,2.84-5.22,5.05-10.03,5.05-7.89,0-14.21-6.5-14.21-16.7s6.32-16.59,14.27-16.59ZM205.09,30.79c-3.71,0-7.08,2.78-7.08,7.95s3.36,8.06,7.08,8.06,7.08-2.84,7.08-8-3.31-8-7.08-8Z"/>
  <path class="cls-1" d="M232,30.85h-3.6v-8.24h3.6v-.93c0-8.47,5.22-12.64,15.08-12.12v8.41c-3.83-.23-5.16.93-5.16,4.35v.29h5.34v8.24h-5.34v24.13h-9.92v-24.13Z"/>
  <path class="cls-1" d="M255.2,30.85h-3.94v-8.24h3.94v-7.89h9.92v7.89h6.5v8.24h-6.5v12.99c0,1.91.81,2.73,3.02,2.73h3.54v8.41h-5.05c-6.73,0-11.43-2.84-11.43-11.25v-12.88Z"/>
  <path class="cls-1" d="M293.3,55.44c-9.51,0-16.36-6.38-16.36-16.65s6.73-16.65,16.36-16.65,16.12,6.26,16.12,16.12c0,.93-.06,1.91-.17,2.9h-22.45c.35,4.23,2.96,6.21,6.15,6.21,2.78,0,4.35-1.39,5.16-3.13h10.56c-1.57,6.32-7.31,11.19-15.37,11.19ZM286.86,35.66h12.41c0-3.54-2.78-5.57-6.09-5.57s-5.74,1.97-6.32,5.57Z"/>
  <path class="cls-1" d="M326.25,54.98h-9.92V22.61h9.92v5.39c2.26-3.42,5.8-5.74,10.15-5.74v10.5h-2.73c-4.7,0-7.42,1.62-7.42,7.19v15.02Z"/>
  <path class="cls-1" d="M365.22,37.4c0-4.41-2.44-6.84-6.21-6.84s-6.21,2.44-6.21,6.84v17.57h-9.92V22.61h9.92v4.29c1.97-2.73,5.45-4.64,9.8-4.64,7.48,0,12.47,5.1,12.47,13.8v18.91h-9.86v-17.57Z"/>
  <path class="cls-1" d="M398.4,55.44c-9.51,0-16.7-6.38-16.7-16.65s7.37-16.65,16.82-16.65,16.82,6.38,16.82,16.65-7.42,16.65-16.94,16.65ZM398.4,46.86c3.54,0,6.84-2.61,6.84-8.06s-3.25-8.06-6.73-8.06-6.73,2.55-6.73,8.06,3.02,8.06,6.61,8.06Z"/>
  <path class="cls-1" d="M437.02,55.44c-9.51,0-16.7-6.38-16.7-16.65s7.37-16.65,16.82-16.65,16.82,6.38,16.82,16.65-7.42,16.65-16.94,16.65ZM437.02,46.86c3.54,0,6.84-2.61,6.84-8.06s-3.25-8.06-6.73-8.06-6.73,2.55-6.73,8.06,3.02,8.06,6.61,8.06Z"/>
  <path class="cls-1" d="M483.25,37.4c0-4.41-2.44-6.84-6.21-6.84s-6.21,2.44-6.21,6.84v17.57h-9.92V22.61h9.92v4.29c1.97-2.73,5.45-4.64,9.8-4.64,7.48,0,12.47,5.1,12.47,13.8v18.91h-9.86v-17.57Z"/>
  <path class="cls-1" d="M509.58,55.44c-3.54,0-5.92-2.38-5.92-5.34s2.38-5.45,5.92-5.45,5.86,2.38,5.86,5.45-2.38,5.34-5.86,5.34ZM504.07,12.81h10.73l-1.16,27.78h-8.41l-1.16-27.78Z"/>
</svg>