<?xml version="1.0" encoding="UTF-8"?>
<svg id="Layer_1" data-name="Layer 1" xmlns="http://www.w3.org/2000/svg" viewBox="0 0 433.2 67">
  <defs>
    <style>
      .cls-1 {
        fill: none;
        stroke: #231f20;
        stroke-miterlimit: 5.07;
      }
    </style>
  </defs>
  <path class="cls-1" d="M37.87,30.65h-15.43v16.76h-9.92V6.69h9.92v15.95h15.43V6.69h9.92v40.71h-9.92v-16.76Z"/>
  <path class="cls-1" d="M71.4,47.87c-9.51,0-16.7-6.38-16.7-16.65s7.37-16.65,16.82-16.65,16.82,6.38,16.82,16.65-7.42,16.65-16.94,16.65ZM71.4,39.29c3.54,0,6.84-2.61,6.84-8.06s-3.25-8.06-6.73-8.06-6.73,2.55-6.73,8.06,3.02,8.06,6.61,8.06Z"/>
  <path class="cls-1" d="M91.99,15.05h9.92l4.58,23.14,5.45-23.14h10.5l5.51,23.03,4.52-23.03h9.34l-8.76,32.36h-10.96l-5.1-21-5.28,21h-10.9l-8.82-32.36Z"/>
  <path class="cls-1" d="M173.65,14.58c4.81,0,8.24,2.2,9.98,5.05v-4.58h9.92v32.36h-9.92v-4.58c-1.8,2.84-5.22,5.05-10.03,5.05-7.89,0-14.21-6.5-14.21-16.7s6.32-16.59,14.27-16.59ZM176.55,23.22c-3.71,0-7.08,2.78-7.08,7.95s3.36,8.06,7.08,8.06,7.08-2.84,7.08-8-3.31-8-7.08-8Z"/>
  <path class="cls-1" d="M212.39,47.41h-9.92V15.05h9.92v5.39c2.26-3.42,5.8-5.74,10.15-5.74v10.5h-2.73c-4.7,0-7.42,1.62-7.42,7.19v15.02Z"/>
  <path class="cls-1" d="M243.37,47.87c-9.51,0-16.36-6.38-16.36-16.65s6.73-16.65,16.36-16.65,16.12,6.26,16.12,16.12c0,.93-.06,1.91-.17,2.9h-22.45c.35,4.23,2.96,6.21,6.15,6.21,2.78,0,4.35-1.39,5.16-3.13h10.56c-1.57,6.32-7.31,11.19-15.37,11.19ZM236.93,28.1h12.41c0-3.54-2.78-5.57-6.09-5.57s-5.74,1.97-6.32,5.57Z"/>
  <path class="cls-1" d="M302.82,15.05h10.73l-20.3,47.73h-10.67l7.42-16.47-13.17-31.26h11.08l7.48,20.24,7.42-20.24Z"/>
  <path class="cls-1" d="M333.61,47.87c-9.51,0-16.7-6.38-16.7-16.65s7.37-16.65,16.82-16.65,16.82,6.38,16.82,16.65-7.42,16.65-16.94,16.65ZM333.61,39.29c3.54,0,6.84-2.61,6.84-8.06s-3.25-8.06-6.73-8.06-6.73,2.55-6.73,8.06,3.02,8.06,6.61,8.06Z"/>
  <path class="cls-1" d="M389.46,47.41h-9.92v-4.41c-1.97,2.78-5.45,4.76-9.8,4.76-7.48,0-12.53-5.16-12.53-13.8V15.05h9.86v17.57c0,4.41,2.49,6.84,6.21,6.84s6.26-2.44,6.26-6.84V15.05h9.92v32.36Z"/>
  <path class="cls-1" d="M410.17,4.43c8.06,0,13.69,4.35,13.69,12.41,0,7.48-5.39,11.54-12.99,11.6l-.29,4.35h-8.7l-.29-10.79h3.48c5.45,0,9.22-.99,9.16-5.22,0-2.61-1.62-4.23-4.18-4.23-2.84,0-4.41,1.74-4.41,4.41h-9.34c-.17-6.96,4.7-12.53,13.86-12.53ZM406.34,47.87c-3.54,0-5.92-2.38-5.92-5.34s2.38-5.45,5.92-5.45,5.86,2.38,5.86,5.45-2.38,5.34-5.86,5.34Z"/>
</svg>