<?xml version="1.0" encoding="UTF-8"?>
<svg id="Layer_1" data-name="Layer 1" xmlns="http://www.w3.org/2000/svg" viewBox="0 0 477.02 70.91">
  <defs>
    <style>
      .cls-1 {
        fill: none;
        stroke: #231f20;
        stroke-miterlimit: 5.07;
      }
    </style>
  </defs>
  <path class="cls-1" d="M50.52,18.62h-10.96c-1.51-2.73-4.29-4.18-8-4.18-6.38,0-10.61,4.52-10.61,11.6,0,7.54,4.29,11.95,11.43,11.95,4.93,0,8.35-2.61,9.86-7.19h-12.59v-7.31h21.58v9.22c-2.09,7.02-8.87,14.04-19.6,14.04-12.18,0-20.76-8.53-20.76-20.71S19.37,5.28,31.55,5.28c9.74,0,16.82,4.99,18.97,13.34Z"/>
  <path class="cls-1" d="M73.14,46.92c-9.51,0-16.7-6.38-16.7-16.65s7.37-16.65,16.82-16.65,16.82,6.38,16.82,16.65-7.42,16.65-16.94,16.65ZM73.14,38.34c3.54,0,6.84-2.61,6.84-8.06s-3.25-8.06-6.73-8.06-6.73,2.55-6.73,8.06,3.02,8.06,6.61,8.06Z"/>
  <path class="cls-1" d="M111.82,46.92c-9.51,0-16.7-6.38-16.7-16.65s7.37-16.65,16.82-16.65,16.82,6.38,16.82,16.65-7.42,16.65-16.94,16.65ZM111.82,38.34c3.54,0,6.84-2.61,6.84-8.06s-3.25-8.06-6.73-8.06-6.73,2.55-6.73,8.06,3.02,8.06,6.61,8.06Z"/>
  <path class="cls-1" d="M148.02,13.63c4.29,0,8,1.97,9.98,4.93V3.54h9.92v42.92h-9.92v-4.64c-1.8,2.96-5.22,5.1-9.98,5.1-7.95,0-14.27-6.5-14.27-16.7s6.32-16.59,14.27-16.59ZM150.92,22.27c-3.71,0-7.08,2.78-7.08,7.95s3.36,8.06,7.08,8.06,7.08-2.84,7.08-8-3.31-8-7.08-8Z"/>
  <path class="cls-1" d="M205.26,46.92c-9.51,0-16.36-6.38-16.36-16.65s6.73-16.65,16.36-16.65,16.12,6.26,16.12,16.12c0,.93-.06,1.91-.17,2.9h-22.45c.35,4.23,2.96,6.21,6.15,6.21,2.78,0,4.35-1.39,5.16-3.13h10.56c-1.57,6.32-7.31,11.19-15.37,11.19ZM198.82,27.14h12.41c0-3.54-2.78-5.57-6.09-5.57s-5.74,1.97-6.32,5.57Z"/>
  <path class="cls-1" d="M235.83,14.09l7.02,23.08,7.02-23.08h10.56l-11.48,32.36h-12.24l-11.48-32.36h10.61Z"/>
  <path class="cls-1" d="M280.72,46.92c-9.51,0-16.36-6.38-16.36-16.65s6.73-16.65,16.36-16.65,16.12,6.26,16.12,16.12c0,.93-.06,1.91-.17,2.9h-22.45c.35,4.23,2.96,6.21,6.15,6.21,2.78,0,4.35-1.39,5.16-3.13h10.56c-1.57,6.32-7.31,11.19-15.37,11.19ZM274.28,27.14h12.41c0-3.54-2.78-5.57-6.09-5.57s-5.74,1.97-6.32,5.57Z"/>
  <path class="cls-1" d="M326.07,28.88c0-4.41-2.44-6.84-6.21-6.84s-6.21,2.44-6.21,6.84v17.57h-9.92V14.09h9.92v4.29c1.97-2.73,5.45-4.64,9.8-4.64,7.48,0,12.47,5.1,12.47,13.8v18.91h-9.86v-17.57Z"/>
  <path class="cls-1" d="M343.59,5.39c0-3.02,2.38-5.39,5.92-5.39s5.86,2.38,5.86,5.39-2.38,5.34-5.86,5.34-5.92-2.38-5.92-5.34ZM344.52,14.09h9.92v32.36h-9.92V14.09Z"/>
  <path class="cls-1" d="M385.7,28.88c0-4.41-2.44-6.84-6.21-6.84s-6.21,2.44-6.21,6.84v17.57h-9.92V14.09h9.92v4.29c1.97-2.73,5.45-4.64,9.8-4.64,7.48,0,12.47,5.1,12.47,13.8v18.91h-9.86v-17.57Z"/>
  <path class="cls-1" d="M416.44,13.63c4.76,0,8.24,2.15,9.98,5.05v-4.58h9.92v32.31c0,8.64-4.99,16.01-16.18,16.01-9.63,0-15.89-4.87-16.76-12.59h9.8c.64,2.44,3.07,4,6.5,4,3.77,0,6.73-1.97,6.73-7.42v-4.58c-1.8,2.84-5.22,5.1-9.98,5.1-7.95,0-14.27-6.5-14.27-16.7s6.32-16.59,14.27-16.59ZM419.34,22.27c-3.71,0-7.08,2.78-7.08,7.95s3.36,8.06,7.08,8.06,7.08-2.84,7.08-8-3.31-8-7.08-8Z"/>
  <path class="cls-1" d="M453.09,46.92c-3.54,0-5.92-2.38-5.92-5.34s2.38-5.45,5.92-5.45,5.86,2.38,5.86,5.45-2.38,5.34-5.86,5.34ZM447.58,4.29h10.73l-1.16,27.78h-8.41l-1.16-27.78Z"/>
</svg>