<?xml version="1.0" encoding="UTF-8"?>
<svg id="Layer_1" xmlns="http://www.w3.org/2000/svg" version="1.1" viewBox="0 0 92.89 92.89">
  <!-- Generator: Adobe Illustrator 30.1.0, SVG Export Plug-In . SVG Version: 2.1.1 Build 136)  -->
  <defs>
    <style>
      .st0 {
        fill: #221f1f;
      }

      .st1 {
        fill: none;
        stroke: #d1232a;
        stroke-width: 4px;
      }

      .st2 {
        fill: #fff35f;
      }
    </style>
  </defs>
  <path class="st2" d="M46.44,90.89c24.55,0,44.44-19.9,44.44-44.44S70.99,2,46.44,2,2,21.9,2,46.44s19.9,44.44,44.44,44.44"/>
  <circle class="st1" cx="46.44" cy="46.45" r="44.44"/>
  <g>
    <path class="st0" d="M24.96,32.04v-4.4h4.88v38.31h-4.88v-33.92Z"/>
    <path class="st0" d="M54.63,27.05c10.55,0,13.3,8.37,13.3,19.34s-2.76,19.56-13.3,19.56-13.35-8.43-13.35-19.56,2.76-19.34,13.35-19.34ZM54.63,31.45c-7.58,0-8.58,7-8.58,14.94s1.01,15.16,8.58,15.16,8.53-6.89,8.53-15.16-1.01-14.94-8.53-14.94Z"/>
  </g>
</svg>