<?xml version="1.0" encoding="UTF-8"?>
<svg id="Layer_1" xmlns="http://www.w3.org/2000/svg" version="1.1" viewBox="0 0 92.89 92.89">
  <!-- Generator: Adobe Illustrator 30.0.0, SVG Export Plug-In . SVG Version: 2.1.1 Build 123)  -->
  <defs>
    <style>
      .st0 {
        fill: #221f1f;
      }

      .st1 {
        fill: none;
        stroke: #d1232a;
        stroke-width: 4px;
      }

      .st2 {
        fill: #fff35f;
      }
    </style>
  </defs>
  <path class="st2" d="M46.44,90.89c24.55,0,44.44-19.9,44.44-44.44S70.99,2,46.44,2,2,21.9,2,46.44s19.9,44.44,44.44,44.44"/>
  <circle class="st1" cx="46.44" cy="46.45" r="44.44"/>
  <path class="st0" d="M41.36,61.74c1.37,1.17,3.23,1.75,5.56,1.75,3.12,0,5.43-1.22,6.92-3.67,1.49-2.45,2.19-6.57,2.12-12.36-.79,1.69-2.11,3.02-3.95,3.98s-3.89,1.44-6.15,1.44c-2.52,0-4.77-.52-6.75-1.55-1.98-1.03-3.53-2.55-4.66-4.54-1.13-1.99-1.69-4.4-1.69-7.23,0-4.03,1.17-7.27,3.5-9.74,2.33-2.46,5.64-3.7,9.93-3.7,5.27,0,8.97,1.71,11.09,5.14,2.12,3.42,3.19,8.52,3.19,15.3,0,4.74-.42,8.66-1.27,11.74-.85,3.09-2.28,5.44-4.29,7.06-2.01,1.62-4.77,2.43-8.27,2.43-3.84,0-6.83-1.04-8.98-3.1s-3.37-4.7-3.67-7.9h4.74c.38,2.15,1.25,3.8,2.62,4.97ZM52.91,46.19c1.62-1.56,2.43-3.68,2.43-6.35,0-2.82-.79-5.1-2.37-6.83-1.58-1.73-3.8-2.6-6.66-2.6-2.63,0-4.73.83-6.29,2.48-1.56,1.66-2.34,3.84-2.34,6.55s.77,4.95,2.31,6.6c1.54,1.66,3.78,2.48,6.72,2.48,2.52,0,4.59-.78,6.21-2.34Z"/>
</svg>