<?xml version="1.0" encoding="UTF-8"?>
<svg id="Layer_1" data-name="Layer 1" xmlns="http://www.w3.org/2000/svg" viewBox="0 0 213.12 237.6">
  <defs>
    <style>
      .cls-1 {
        fill: lime;
      }

      .cls-2 {
        opacity: .5;
      }
    </style>
  </defs>
  <g class="cls-2">
    <path class="cls-1" d="M77.91,98.78c-1.44.22-3.04.42-4.55.24-.02-.19.22-.25.47-.24h4.09Z"/>
    <g>
      <path class="cls-1" d="M34.27,107.52c.37,3.94-3.54,4.82-6.46,4.99-2.71.16-4.92-1.4-5.57-4.22-1.74.44-3.55.58-5.12-.25-1.74-.93-2.59-2.77-2.79-4.57-.47-4.08,3.24-6.53,6.38-8.5-1.16-1.46-1.25-3.59.34-4.61,3-1.93,7.87-2.66,10.54.33.99-.54,1.93-.61,2.94-.3,2.69.84,4.74,2.72,6.03,5.23,1.61,3.15,1.86,5.88,0,9.01-1.31,2.22-3.88,3.04-6.31,2.88ZM20.65,93.48c.25.52.32,1.18.94,1.43,1.14-.27-2.95,2.24-2.14,1.79-2.75,1.53-5.6,4.92-3.82,8.14.09.75.53,1.44,1.2,1.79.24.55.84.72,1.37.94.46.19.94.18,1.42.2,2.05.09,2.53-.86,3.43-.11.15,1.52,1.27,2.88,2.41,3.49,1.59.85,3.15.64,4.55.1-.23.09,3.75-.53,3.34-3.12-.09-.56-.15-1.13.24-1.49l1.43-.07c.61-.03,1.12.09,1.69-.14.26-.11.68-.21.95-.29,1.3-.37,2.34-1.42,2.89-2.8l-2.72-4.79-1.56-2.03c-.71-.92-1.26-1.66-2.27-2.31-1.82-1.17-3.41-2.75-5.49-3.51-.76-.28-1.28-1.2-1.98-1.38-1.69-.43-3.67.53-5.06,1.37-1.06.65-1.25,1.85-.81,2.75Z"/>
      <path class="cls-1" d="M34.25,121.59l-.49-.26c-.56-.88-1.99-1.3-3.01-1.01-.02-.8-.55-1.57-1.21-2.19-2.09-1.97-5.01-2.65-7.72-2.21-.84.14-1.09.46-1.72.88s-1.14,1.33-1.17,1.88c-.02.35-.38,1.03-.68,1.2-.65.35-1.46,1.38-1.91,1.95-.62.79-1.15,1.32-1.01,2.66.09.9.11,2.14,1.09,2.68.86.47,1.86-.02,2.81-.43.32.85-.24,1.43-.18,2.07,1.83,1.18,3.49,2.22,5.48,2.98.79.3,1.83,1.51,2.76,1.18,1.06-.38.97-2.1.96-2.99.94-1.16,1.38.7,5.08-1,1.59-.73,2.02-2.29,1.93-4.06-.06-1.22-.39-2.25-1.01-3.33.52-.13.69.33.92.73,1,1.79,1.19,5.79-1.62,7.4-1.27.73-2.77.82-4.43.64-.25,1.61-.7,3.25-2.12,4.32-2.08,1.57-5.48,1.81-7.53.03-1.91-1.66-1.58-4.37-1.17-6.71-.98.37-2.01.26-2.66-.5-1.68-1.97-1.4-4.67.33-6.54.54-.58,1.12-1.14,1.93-1.48.36-3.31,3.32-4.88,6.46-4.32s5.7,1.86,6.97,4.76c3.24-.19,3.17,2.06,2.94,1.66Z"/>
      <path class="cls-1" d="M48.19,86.79c-1.31.54-2.73.92-4.08.48.38-.63,1.51.2,3.69-.66.18-.07.43,0,.38.18Z"/>
      <path class="cls-1" d="M37.65,106.16c.21-1.43-2.3-5.18-3.26-6.51-1.22-1.7-2.69-2.82-4.17-4.02-2.76-2.23-6.27-3.35-9.58-2.16-.44-.9-.25-2.11.81-2.75,1.38-.84,3.37-1.8,5.06-1.37.71.18,1.22,1.1,1.98,1.38,2.08.76,3.68,2.34,5.49,3.51,1.01.65,1.56,1.39,2.27,2.31l1.56,2.03,2.72,4.79c-.56,1.38-1.59,2.43-2.89,2.8Z"/>
      <path class="cls-1" d="M33.34,108.14c.41,2.59-3.57,3.21-3.34,3.12.09-1.51-1.4-4.68-3.08-5.66-.49-.28-1.75-.18-2.24.08-.86.46-.83,1.63-1.63,1.99-.91-.76-1.39.2-3.43.11-.15-1.26,1.28-4.47,2.09-5.68,1.17-1.77,3.25-2.29,5.12-1.42,2.3,1.07,4.77,4.12,5.56,6.66.14.44.58.83.95.81Z"/>
      <path class="cls-1" d="M36.7,106.45c-.57.23-1.08.11-1.69.14.14-1.36-3.13-5.91-4.28-6.9-1.49-1.29-2.9-2.56-4.83-3.05-3.85-.98-5.82,1.21-7.37,4.36-.9,1.84-1.51,3.67-1.7,5.64-.67-.36-1.11-1.05-1.2-1.79.75-.23.81-1.19.95-1.95.62-3.3,2.26-3.98,2.88-6.19-.81.45,3.28-2.06,2.14-1.79,2.54-1.75,5.99.18,8.3,1.81,2.8,1.97,4.76,4.78,6.23,7.86.31.66.77,1.17.58,1.87Z"/>
      <path class="cls-1" d="M33.57,106.66c-.39.35-.33.92-.24,1.49-.37.01-.81-.37-.95-.81-.79-2.54-3.26-5.59-5.56-6.66-1.87-.87-3.95-.35-5.12,1.42-.8,1.21-2.24,4.43-2.09,5.68-.48-.02-.96-.01-1.42-.2-.14-1.1.22-2.14.55-3.27.91-3.11,2.98-7.03,6.94-5.98,2.95.78,5.18,3.07,6.74,5.68.52.88,1.26,1.67,1.15,2.65Z"/>
      <path class="cls-1" d="M35.01,106.59l-1.43.07c.11-.98-.63-1.78-1.15-2.65-1.56-2.61-3.78-4.9-6.74-5.68-3.96-1.05-6.03,2.87-6.94,5.98-.33,1.13-.69,2.17-.55,3.27-.52-.22-1.13-.39-1.37-.94.19-1.97.8-3.8,1.7-5.64,1.54-3.15,3.52-5.34,7.37-4.36,1.94.49,3.34,1.77,4.83,3.05,1.15.99,4.42,5.54,4.28,6.9Z"/>
      <path class="cls-1" d="M30,111.26c-1.4.54-2.96.75-4.55-.1-1.14-.61-2.26-1.98-2.41-3.49.8-.36.77-1.53,1.63-1.99.49-.26,1.75-.36,2.24-.08,1.68.98,3.17,4.15,3.08,5.66Z"/>
      <path class="cls-1" d="M37.65,106.16c-.28.08-.69.18-.95.29.19-.7-.27-1.21-.58-1.87-1.47-3.08-3.43-5.89-6.23-7.86-2.32-1.63-5.77-3.56-8.3-1.81-.62-.25-.68-.91-.94-1.43,3.31-1.19,6.82-.07,9.58,2.16,1.48,1.2,2.94,2.32,4.17,4.02.96,1.33,3.46,5.08,3.26,6.51Z"/>
      <path class="cls-1" d="M15.63,104.84c-1.78-3.22,1.07-6.61,3.82-8.14-.62,2.21-2.26,2.89-2.88,6.19-.14.76-.2,1.73-.95,1.95Z"/>
      <path class="cls-1" d="M28.24,129.98c0,.89.11,2.61-.96,2.99-.93.33-1.96-.87-2.76-1.18-1.99-.76-3.65-1.8-5.48-2.98-.06-.64.5-1.21.18-2.07-.95.41-1.95.9-2.81.43-.99-.54-1-1.78-1.09-2.68-.14-1.34.39-1.87,1.01-2.66,2.34,3.9,7.36,7.62,11.91,8.15Z"/>
      <path class="cls-1" d="M35.26,124.92c.09,1.76-.35,3.33-1.93,4.06-.04-.19-.22-.36-.53-.41-6.29-1.17-9.75-1.74-13.92-6.92-.46-.57-.75-1.09-.63-1.76.3-.16.66-.85.68-1.2.4.12.47.56.73.94,3.76,5.48,9.38,7.7,15.6,5.3Z"/>
      <path class="cls-1" d="M33.32,128.98c-3.7,1.7-4.14-.16-5.08,1-4.54-.52-9.57-4.25-11.91-8.15.45-.57,1.26-1.6,1.91-1.95-.11.67.18,1.19.63,1.76,4.17,5.18,7.63,5.75,13.92,6.92.3.06.48.22.53.41Z"/>
      <path class="cls-1" d="M33.76,121.33l.49.26c.62,1.09.95,2.11,1.01,3.33-6.22,2.41-11.84.19-15.6-5.3-.26-.38-.33-.82-.73-.94.03-.56.55-1.46,1.17-1.88-.69-.41,1.73,3.23,1.32,2.74,3.02,3.62,7.78,5.87,11.81,2.91.41-.3.62-.72.52-1.13Z"/>
      <path class="cls-1" d="M21.82,115.92c-.56,1.17,2.17,3.56,3.12,4.41,1.66,1.49,4.86,1.4,5.81-.02,1.02-.29,2.45.13,3.01,1.01.1.4-.12.83-.52,1.13-4.03,2.96-8.79.71-11.81-2.91.41.49-2.01-3.15-1.32-2.74.62-.42.88-.75,1.72-.88Z"/>
      <path class="cls-1" d="M30.75,120.32c-.95,1.41-4.16,1.51-5.81.02-.95-.85-3.68-3.24-3.12-4.41,2.71-.44,5.63.24,7.72,2.21.66.62,1.19,1.38,1.21,2.19Z"/>
      <g>
        <g>
          <path class="cls-1" d="M69.33,117.55c-.35.71-.21,1.85.26,2.56,2.22,3.33,7.95,7.26,11.16,3.37.3.16.58-.2.8-.26.8-.02,1.6-.63,2.35-.95,1.43-.61,2.79-1.99,3.79-1.83.31.05.33.98.76.84.38-.12.52-.54.73-.63,1.08-.48,3.75,2.24,4.02,4.51.43,3.63-.72,4.68.03,9.58.19,1.22.09,7.21.77,8.33.49.81-.02,1.35.08,2.03.38,2.57.03,4.95-.7,7.44-.23.77-.48.94-.88,1.53-1.95,2.85.32.63-3.67,3.12-.34,1.11-1.22,1.49-2.3,1.76-.55.13-1.03,1.22-1.73.86-1.12-.58-2.26-.52-2.98.69-.46-.52-.81-.73-1.29-.49-.36.18-.54.57-1.07,1.02-.92-3.42-2.51-1.27-5.45-5.12-1.61-2.11-2.26-3.1-2.12-5.81.05-1.01.32-1.76,1.41-2.17-.71-.83-1.19-1.95-1.65-2.88-.3-.6-1.41-.76-1.43-1.65-.02-1.02.84-1.27,1.65-1.44,2.46,1.03,4.46,1.97,7.22,1.19.76.77,2.14.65,2.95-.15,2.07-2.06,4-4.04,3.87-7.01-.02-.49.41-1.46-.29-1.6-.34.11-.82.66-1.24.42l-.72-1.01c-.12-.16-.33-.22-.37-.37-.03-.13.09-.28.15-.38.33.01.67.07,1.11.01.1-.74-.45-1.16-1.04-1.45-2.21-1.1-3.77-2.68-5.13-4.91-.17.96-.12,2.12.27,2.85-.6.55-1.53-.09-2.22.12.02-.12-.04-.58-.28-.57-.54.02-2.9,1.03-2.58,1.82-.44.16-1.01.76-1.43.99-2.17.55-1.06-.51-3.96.29-.28-1.58-1.12-2.71-2.49-3.46-3.2-1.76-3.51.44-6.54-5.22-.04-.16.13-.44.12-.59-.02-.62-2.47.22-2.73.31.22-1.23-.45-1.96-1.16-2.87-1.12-1.43-2.09-2.95-2.78-4.5.7-.85,1.03-2.25,1.33-3.37l1.69-6.28c1.25-.15,2.49-.78,3.87-.81,2.09-.05,1.48,2.88,1.74,3.44.25.52,1.13-.13,1.4.08.15.12.44.55.38.73-.39,1.02.61,1.62.65,2.39.13,2.07.36,4.42,2.59,5.32.93.38,2.14-.03,3.06.2Z"/>
          <path class="cls-1" d="M100.93,109.81c.02.22.12.47.45.46.56-.13,1.13-.23,1.65.32l-2.94,1.99c-1.13.76-2.03,1.7-2.58,3,.36,1.21,1.81,2.06,1.74,2.63-1.47,1.59-2.68,3.51-3.96,5.34-.37.54-.35,1.24-.17,1.74s.58.98,1.2,1.12l1.44.35c-.35.58-1.06,1.01-.96,1.69s.97.85,1.5.89c.32.13-1.43,3.45-1.45,3.47-.68.82.54,3.41,1.17,4.21-1.36,1.34.92,2.31-.17,3.8-.62-.15-.35-.82-.92-1.13-.18.77.32,1.32.36,2.09-1.31,2.24.15,2.81.24,3.44.02.17-.32.34-.36.57-.11.73.61,1.38.58,2.15-.05,1.02-.24,1.99.12,3.06-.78.09-1.3.01-1.78.32-.4.26-.39.95-.68,1.41-.59.93-1.22,1.73-.89,2.98-1.33.28-2,1.6-1.8,2.97-.64.09-1.04-.31-1.37-.08-1.06.72-1.24,3.59-.59,3.76.24.06.68-.09.69-.39.02-1.01.86-.58,1.32-.87,1.34-.88,2.41-2.23,3.52-3.37.64-.66,3.61-5.2,3.91-5.98.32-.82.94-1.4,1.76-1.39.3,2.26-.61,4.56-1.88,6.63-4.51,7.34-14.26,9.91-22.36,11.1-1.68.25-3.21.18-4.81.18-1.78,0-3.43.14-5.06-.39-.03-.45.44-.9,1.03-.92,3.47-.09,6.95.02,10.36-.69.63-.13.94-.29,1.68-.16.88.16,1.95-.68,2.84-.72.78-.04,1.47.04,1.98-.79.89-1.44,2.07-.36,2.7-.72,1.35-.79.58-1.48,1.2-2.76-.3-.08-.61.01-.85.1-.86.31-.58,2.5-1.38,2.01l-.28-1.33c-1.37-.05-2.25.54-2.59,1.85-.24-.93-3.1-.83-3.3.35-.52-.19-1-.88-1.61-.74-.95.22-1.92.19-2.86.27-1.68.15-2.64-.62-3.72-1.65-.71-.68-2.42-1.6-4.05-3.89-.36-.51-.74-1.05-1.26-1.2.14-3.04-.49-4.49-2.99-6.05-.22-.55,2.02-.37,2.81-1.73.41-.71.41-1.89.15-2.64-.59-1.66-2.13-2.57-3.79-2.99-.67-.17-1.36-.09-1.8-.58.89-.65,4.68.48,5.88.81.78.22,1.51-.22,1.57-1.01.03-.46.2-.93.47-1.1.37-.23.8-.16,1.17-.19.35-.02.49.45.71.56-.81.17-1.67.42-1.65,1.44.01.89,1.12,1.04,1.43,1.65.46.92.95,2.05,1.65,2.88-1.09.41-1.36,1.15-1.41,2.17-.14,2.71.51,3.7,2.12,5.81,2.94,3.85,4.53,1.7,5.45,5.12.53-.44.71-.84,1.07-1.02.48-.24.83-.03,1.29.49.72-1.2,1.86-1.26,2.98-.69.7.36,1.18-.73,1.73-.86,1.08-.26,1.96-.65,2.3-1.76,3.99-2.5,1.71-.27,3.67-3.12.41-.59.66-.77.88-1.53.73-2.49,1.08-4.87.7-7.44-.1-.67.42-1.22-.08-2.03-.68-1.12-.59-7.11-.77-8.33-.75-4.9.4-5.95-.03-9.58-.27-2.27-2.93-5-4.02-4.51-.21.1-.35.51-.73.63-.43.14-.45-.79-.76-.84-1-.16-2.36,1.22-3.79,1.83,1.77-2.46,6.45-3.9,6.73-6.91,2.34-1.6,7.62-4.34,10.3-5.53Z"/>
          <path class="cls-1" d="M45.1,133.55c-.15.7-.25,1.75.2,2.43,1.09,1.64,3.04,1.94,4.8,1.62-.1,1.02.72,1.92.75,2.9s-.01,1.51,1.42,2.65c.06.13.14.34.21.45-.22-.04-.16.19-.11.4.79,3.32-1.22,1.52-1.34,5.85-.14,4.85,2.15,5.47-.55,5.99-.5.1-.73-.52-1.25-.62-.26-.05-.62.59-.86.35-.47-.45-.42-1.36-.8-1.4-.15-.02-.39.13-.7.23-.31-.9-1.37-1.15-1.87-1.85l-1.22-1.7c-.22-.09-.35.37-.64.53-1.28-2.14-.07-2.21-2.55-3.56-.04-1.96-1.18-2.11-.64-3.29.32-.7-.1-1.13-.32-1.73-.62-1.7.89-4.18.94-5.84,1.31-1.29,1.84-3.32,2.54-5.12l2.05-5.28c4.25.22-.14,2.46-.25,6.52,0,.2-.01.5.2.47Z"/>
          <path class="cls-1" d="M52.48,143.61c1.01.88.99,2.47,1.26,3.72-1.16.21-1.79,1.31-1.47,2.53.35,1.32,1.88,5.3,2.81,5.71.66.29,2.01-1.92,4.2-.29.5.37.91.78,1.39,1.03.88,1.44,1,3.2.78,5.09-1.5.13-3.11-.17-4.55-.82-1.63-.73-1.96-2.19-2.24-3.98-.88,2.61,1.16,4.82,3.65,5.33l3.05.34c.12.37.13.98.45,1.43-5.43.48-5.16-.71-8.98-3.64l-1.76-1.35c-.97-.75-2.02-1-2.63-2.36-.46.88.45,1.2.37,1.87-.18,1.67,1.6,2.05,1.28,3.07-4.26-2.7-9.87-7.1-12.69-11.44-1.95-2.99-1.53-8.29.26-10.05l2.9-2.85c-.05,1.67-1.56,4.14-.94,5.84.22.6.64,1.02.32,1.73-.54,1.18.6,1.33.64,3.29,2.48,1.34,1.27,1.42,2.55,3.56.3-.16.42-.61.64-.53l1.22,1.7c.5.7,1.57.95,1.87,1.85.31-.1.55-.24.7-.23.38.04.34.95.8,1.4.24.24.6-.4.86-.35.52.1.75.71,1.25.62,2.7-.52.41-1.14.55-5.99.12-4.33,2.13-2.52,1.34-5.85-.05-.21-.11-.44.11-.4ZM48.09,158.98l-1.08-3.69c-.51-.18-.91-.52-1.53-.2.42,1.01.44,2.31,1.26,2.91l1.36.98Z"/>
          <path class="cls-1" d="M61.82,163.71c.75,1.08,2.03,1.5,3.41,1.29,1.67-.25,3.25-1.37,3.26-3.19,0-1.18-.37-2.42-.93-3.55-.26-.48.13-.95.15-1.41.52.15.9.7,1.26,1.2,1.62,2.29,3.34,3.21,4.05,3.89,1.08,1.03,2.04,1.8,3.72,1.65.94-.08,1.9-.05,2.86-.27.6-.14,1.09.55,1.61.74.2-1.19,3.07-1.28,3.3-.35.34-1.31,1.22-1.9,2.59-1.85l.28,1.33c.8.5.52-1.69,1.38-2.01.24-.09.55-.18.85-.1-.61,1.28.16,1.97-1.2,2.76-.63.37-1.81-.72-2.7.72-.51.83-1.2.75-1.98.79-.9.05-1.96.88-2.84.72-.74-.13-1.06.03-1.68.16-3.41.72-6.88.61-10.36.69-.59.01-1.06.47-1.03.92-.88-.29-2.19-.02-3.09.12,0-.24,0-.49-.12-.64-.17-.21-.54-.35-.82-.28-1.49.33-2.66-.32-3.95-.78-1.44-.51-2.62-.99-3.55-2.24-.38-.51-1.49-.4-1.64.17-1.62-.73-3.06-1.96-4.55-2.9.31-1.02-1.47-1.4-1.28-3.07.07-.67-.84-.98-.37-1.87.61,1.37,1.65,1.62,2.63,2.36l1.76,1.35c3.83,2.93,3.56,4.12,8.98,3.64Z"/>
          <path class="cls-1" d="M101.17,147.21c0,.08-.02.17,0,.24.07.23.26.4.48.48.16.28.3.67.49.92.13.47-.26,1.05-.2,1.48-.81-.01-1.44.57-1.76,1.39-.3.78-3.27,5.32-3.91,5.98-1.11,1.14-2.18,2.5-3.52,3.37-.46.3-1.29-.14-1.32.87,0,.3-.45.45-.69.39-.65-.17-.47-3.04.59-3.76.34-.23.73.17,1.37.08-.19-1.37.48-2.69,1.8-2.97-.33-1.25.3-2.05.89-2.98.29-.46.28-1.15.68-1.41.48-.31,1-.23,1.78-.32-.35-1.06-.17-2.03-.12-3.06.04-.77-.69-1.42-.58-2.15.04-.23.38-.4.36-.57-.09-.63-1.54-1.2-.24-3.44-.04-.77-.54-1.32-.36-2.09.57.32.3.99.92,1.13,1.09-1.48-1.19-2.46.17-3.8-.63-.8-1.85-3.4-1.17-4.21.02-.02,1.77-3.34,1.45-3.47.75.06,1.43-.27,2.37-.26-.67,2.36-.8,4.67-.77,7.11.02,1.86.04,10.29,1.26,11.03Z"/>
          <path class="cls-1" d="M110.5,109.13c-.59-.01-.55.63-.75,1.13-1.6,3.97-3.98,5.55-4.41,8.28-.15.94-.42,1.66-.81,2.55-.17.42.87.41,1.07.61.6.63-2.31,2.15-1.38,3.36.39.51,1.42.74,1.03,1.79-.27.72.42,1.49.35,2.08-.17,1.5-.46,3.03.64,4.08-1.24,2.85-3.08,5.46-5.14,8.05-1.03-2.37,1.06-3.15,1.42-5.41.14-.9.31-1.78.84-2.52s.03-1.25-.11-1.87c-.42-1.8-1.19-3.26-2.19-4.81l-.96-1.49c.69-.57.58-1.18.33-1.86.32-.49.96-.7.97-1.24-.07-.26-.44-.46-.4-.66.03-.15.12-.38.26-.5,1.2-1.01-.84-1.35,1.07-3.48l1.71-1.89c.71-.79,1.28-1.37,1.8-2.32.45-.83,1.04-1.53,1.33-2.49.33-1.1,1.9-1.53,1.84-2.63,0-.08.03-.16.03-.24.81.23,1.13.68,1.45,1.47Z"/>
          <path class="cls-1" d="M110.5,109.13c.61,1.53.76,3.19.7,5.02-.22,6.06-1.61,11.94-3.99,17.46-.25.59-.68,1.04-.96,1.4-1.1-1.05-.81-2.58-.64-4.08.07-.6-.62-1.37-.35-2.08.39-1.05-.64-1.28-1.03-1.79-.93-1.21,1.98-2.73,1.38-3.36-.2-.21-1.24-.19-1.07-.61.39-.88.66-1.61.81-2.55.42-2.73,2.81-4.31,4.41-8.28.2-.5.16-1.14.75-1.13Z"/>
          <path class="cls-1" d="M56.57,123.23c-1.77.66-3.61.72-5.53.33.08.46.37.69.5.88-.84.91-2.54,1.38-3.57,2.89-.72,1.07-2.89,4.1-2.2,5.02-.18.32-.37.95-.67,1.2-.21.04-.2-.26-.2-.47.11-4.06,4.5-6.3.25-6.52.93-2.41,1.38-5.2,2.67-7.43,1.39-1.33,3.6-1.84,4.8-3.27.69,1.55,1.66,3.07,2.78,4.5.72.92,1.39,1.64,1.16,2.87Z"/>
          <path class="cls-1" d="M61.11,102.39c-.78.08.85,2.78.84,2.76l1.27,2.96c.72,1.67,1.21,3.2,1.34,5.01s1.85,3.41,3.62,3.09c.89-.16,1.74-.59,1.84-1.35.77.19,1.69-.06,2.49.77-1.25.53-2.23,1.25-3.19,1.92-.92-.23-2.13.17-3.06-.2-2.22-.9-2.46-3.25-2.59-5.32-.05-.76-1.04-1.37-.65-2.39.07-.18-.23-.61-.38-.73-.26-.21-1.15.44-1.4-.08-.26-.56.35-3.48-1.74-3.44-1.38.03-2.62.66-3.87.81.85-3.17.97-6.56,1.94-9.87,1.59,2.04,2.29,4.24,3.53,6.06Z"/>
          <path class="cls-1" d="M109.05,107.66c0,.08-.04.16-.03.24-3.39,3.26-6.55,6.82-9.77,10.31.07-.57-1.38-1.42-1.74-2.63.54-1.31,1.45-2.24,2.58-3l2.94-1.99c-.52-.55-1.09-.45-1.65-.32-.32,0-.42-.24-.45-.46,2.15-.95,5.69-2.85,8.12-2.15Z"/>
          <path class="cls-1" d="M57.08,95.84c-.07,1.51-.69,2.94-1,4.41-.73.17-1.51.84-1.55,1.71-.03.66-1.61,3.76-2.04,4.47-.73,1.21-.61,2.8-1.17,4.06l-2.24,4.97c-.16.35-.34.59-.69.57,1.25-7.93,3.39-13.87,8.43-20.17l.26-.02Z"/>
          <path class="cls-1" d="M56.08,100.25l-.66,3.13c-.41,1.95-1.02,3.69-1.91,5.47-.32.65-.43,1.42-1.33,1.58-.52,1.07-.5,2.21-.85,3.32-1.16,3.59-.42,2.8-3.32,4.55-.29-.99.28-1.6.38-2.28.35.02.53-.22.69-.57l2.24-4.97c.57-1.26.44-2.85,1.17-4.06.43-.7,2.01-3.81,2.04-4.47.04-.87.82-1.54,1.55-1.71Z"/>
          <path class="cls-1" d="M64.21,107.19c-.52.67-.19,1.63.22,2.39.72,1.34.77,3.12,1.49,3.12.04.71.47,1.26,1.25,1.45l2.85.71c-.1.75-.95,1.18-1.84,1.35-1.78.33-3.49-1.26-3.62-3.09s-.62-3.34-1.34-5.01l-1.27-2.96s-1.62-2.68-.84-2.76l2.53,3.72c.25.37.75.6.57,1.08Z"/>
          <path class="cls-1" d="M90.63,115.35c-.29,3.01-4.96,4.46-6.73,6.91-.75.32-1.55.93-2.35.95-.01-.25-.38-.17-.55-.23.25-.94.52-1.88.68-2.98,2.35-.2,6.23-.61,6.57-3.48.56,0,1.2-.26,1.53-.81.24-.39.65-.21.86-.35Z"/>
          <path class="cls-1" d="M64.73,167.96c-1.22.19-2.28.37-3.63.14-2.66-.45-5.08-1.69-6.45-3.9.15-.57,1.26-.69,1.64-.17.93,1.24,2.1,1.72,3.55,2.24,1.29.46,2.46,1.11,3.95.78.28-.06.65.07.82.28.11.14.11.4.12.64Z"/>
          <g>
            <path class="cls-1" d="M171.15,107.95c-.02.66.94.8,1.24,1.35.78,1.43-.43,3.11-1.62,3.9-.41.27-.37.7-.8,1.09-.45-.81-5.69-.01-5.04.05-2.08-.19-3.92-.19-5.99.06-.99.12-7.23.27-6.96,1.99.07.42.39.91.96.85.8-.08,1.35.45,2.07.54l4.37.55c.85.11,1.6.39,2.39.11.16-.06.39.11.56.07.03.11-.04.64.19.71.79.23,1.57.24,2.38.34.06-.27.01-.44.03-.61.42.16,1.25.44,1.72.48,0,.51.57.61.98.93,3.45,2.75,2.09,3.53,3.04,4.09,1.42.84,2.67,5.74,2.07,4.44,1.03,2.23,1.24,4.66.43,7.03-.08.24.29.82.15,1.02-.1.15-.62.27-.62.45.02,1.46-.9,3.75-1.37,4.14-.22.18-.8-.15-.96.08l-1.1,1.59c-.53-.13.04-.73-.09-.95-.93-1.6-2.99-1.53-3.26-2.16l1.42-1.99c.05.72,1.77.55,2.28.87.66.41.91.59,1.48.44,1.74-.45,1.12-3.53,1.15-3.77.15-.98.56-2.22.06-3.14.93-1.49-.56-2.94-.53-3.74.05-1.34-.96-3.63-2.41-4.23-.33-.21-.32-.9-.63-1.22-.85.04-1.11-.64-1.57-1.1-1-.4-3.83-.55-4.47.66-.34.64-.14,1.94.54,2.33,2.07,1.2,3.53,3.1,3.67,5.42-3.15-3.61-7.27-6.8-12.27-7.27-3.17-.3-6.06-2.05-5.7-5.65.28-2.8,2.23-5.11,4.74-6.48,4.8-2.62,12.33-4.36,17.49-3.27Z"/>
            <path class="cls-1" d="M167.33,138.08c1.6-2.26.96-5.09-.43-7.47-.14-2.32-1.6-4.22-3.67-5.42-.68-.39-.87-1.69-.54-2.33.64-1.22,3.47-1.07,4.47-.66.46.46.72,1.14,1.57,1.1.31.31.3,1.01.63,1.22,1.45.6,2.45,2.89,2.41,4.23-.03.8,1.47,2.25.53,3.74.5.92.08,2.16-.06,3.14-.04.24.58,3.32-1.15,3.77-.57.15-.82-.03-1.48-.44-.51-.32-2.23-.15-2.28-.87Z"/>
            <path class="cls-1" d="M165.91,140.08c.28.63,2.33.56,3.26,2.16.13.22-.45.82.09.95l1.1-1.59c.16-.23.74.09.96-.08.47-.39,1.39-2.68,1.37-4.14,0-.18.52-.3.62-.45.14-.2-.23-.78-.15-1.02.81-2.37.6-4.79-.43-7.03.6,1.3-.66-3.6-2.07-4.44-.95-.56.41-1.35-3.04-4.09-.4-.32-.97-.42-.98-.93,1.87.17,3.19,1.6,4.21,3.21,2.04,3.23,2.64,4.76,3.43,8.74.28,1.43-.32,2.79-.34,4.18-.01.95.47,2.03,0,2.94-.4.79-.76,1.48-.62,2.48-.39-.02-.55-.25-.84-.2-.94,2.76-2.75,5.21-5.46,6.26-.45-.7-.77-1.24-1.41-1.49.26-.32,1.16-.7.96-1.14-.5-1.13-1.35-2.11-1.93-3.11.14-.74,1.01-.85,1.27-1.22Z"/>
            <path class="cls-1" d="M161.76,118.43c-.78.28-1.54,0-2.39-.11l-4.37-.55c-.72-.09-1.27-.62-2.07-.54-.57.06-.89-.43-.96-.85-.27-1.71,5.97-1.87,6.96-1.99,2.08-.25,3.91-.25,5.99-.06-.65-.06,4.59-.86,5.04-.05.44-.38.4-.82.8-1.09,1.19-.79,2.4-2.48,1.62-3.9-.3-.55-1.25-.68-1.24-1.35.94.2,1.66.65,2.01,1.51.87,2.15-1.17,2.71-1.77,4.74-.41,1.37-2.12,1.94-3.38,1.39-1.16-.51-2.15-.16-3.32-.09l-2.77.18c-2.26.14-4.44-.22-6.81.57,2.5,2.14,4.78.73,6.64,2.18Z"/>
            <path class="cls-1" d="M164.92,118.94c-.01.17.03.34-.03.61-.81-.1-1.59-.12-2.38-.34-.24-.07-.16-.59-.19-.71.96-.24,1.77.12,2.6.44Z"/>
          </g>
          <path class="cls-1" d="M68.31,111.53c-.82.4-1.74.51-2.39,1.17-.72,0-.78-1.77-1.49-3.12-.41-.76-.74-1.73-.22-2.39,1.56,1.46,2.08,3.06,4.11,4.35Z"/>
          <path class="cls-1" d="M72.17,131.89c-.32.42-1.5,2.36-1.74,2.41-1.52.34-2.61,2.79-5.23,3.01-.71.06-.85.69-1.28.89-.75.36-1.72.02-2.34.9-.2.28-.73.21-.98.21-1.02-2.82-2.78-2.12-4.51-3.54,2.66-1.83,4.36-3.97,4.13-7.53-.04-.55-.28-.72-.52-.94-.51-1.08-.51-2.32-1.19-3.32.22-.17.39-.42.68-.48,3.03,5.66,3.34,3.46,6.54,5.22,1.37.75,2.21,1.88,2.49,3.46,2.9-.81,1.79.26,3.96-.29Z"/>
          <path class="cls-1" d="M72.84,136.13c.24.29.2.69.28,1.02-.7.33-1.22.97-2.02.99l-.12-.27c.65-.37,1.03-1.63,1.86-1.74Z"/>
          <path class="cls-1" d="M83.46,133.02c-.07.11-.18.25-.15.38.03.16.25.21.37.37l.72,1.01-.02.18c-2.4-.08.32,1.42-.64,3.63-1.19,2.73-2.08,2.44-3.41,3.98-.17.05-.39-.04-.51-.15.79-2.19,1.06-4.58-.21-6.71-.76-1.27-2.03-2.48-3.59-2.46-1.81.02-3.1,1.34-4.05,2.68-.47.67-1.11,1.16-.99,1.92-.15.06-.27.13-.4.25-.16.15.02.34.11.47-.2.4-.18.76.02,1.14.18.35.28.93.66,1.19-.17-.18-.41-.01-.27.2-.36-.55-1.46-1.01-1.68-1.58-.42-1.9.66-3.57,1-5.24.24-.05,1.42-1.99,1.74-2.41.42-.23.98-.83,1.43-.99.98-.35,1.86-.95,2.86-1.26.69-.21,1.62.42,2.22-.12,1.02,1.89,2.87,2.74,4.79,3.5Z"/>
          <path class="cls-1" d="M71.1,138.14c-.1.16-.15.51-.41.45-.09-.13-.27-.32-.11-.47.12-.12.25-.19.4-.25l.12.27Z"/>
          <path class="cls-1" d="M79.8,142.44c-.19.21-.6.38-.7.69-2.76.78-4.76-.16-7.22-1.19-.22-.11-.36-.59-.71-.56l-.08-.25c-.14-.22.1-.39.27-.2,1.72,1.16,3.75,1.88,5.82,1.7.42-.04,1.16.09,1.31-.61.27-1.28.1-2.85-.55-3.91.35-.47.9-1,.95-1.71.07-.83-.85-1.22-1.48-1.14-.17.02-.36-.04-.53-.06,0-.47-.33-.72-.75-.82s-.79-.03-1.14.19c-.97.59-2.05.15-2.16,1.57-.84.11-1.21,1.37-1.86,1.74-.13-.76.52-1.25.99-1.92.94-1.34,2.23-2.67,4.05-2.68,1.56-.02,2.83,1.2,3.59,2.46,1.27,2.13,1,4.52.21,6.71Z"/>
          <path class="cls-1" d="M59.18,123.51c-.29.06-.46.31-.68.48-2.08,1.63-4.68,1.79-6.96.45-.13-.19-.41-.42-.5-.88,1.92.39,3.75.33,5.53-.33.26-.1,2.7-.94,2.73-.31,0,.15-.16.43-.12.59Z"/>
          <path class="cls-1" d="M83.46,133.02c-1.91-.76-3.77-1.6-4.79-3.5-.39-.73-.44-1.9-.27-2.85,1.36,2.23,2.92,3.81,5.13,4.91.59.29,1.14.71,1.04,1.45-.44.06-.78,0-1.11-.01Z"/>
          <path class="cls-1" d="M79.11,143.13c.09-.32.51-.48.7-.69.13.11.34.2.51.15,2.8-.8,6.06-5.41,4.05-7.62l.02-.18c.42.24.9-.3,1.24-.42.7.14.27,1.11.29,1.6.13,2.97-1.8,4.95-3.87,7.01-.81.81-2.19.92-2.95.15Z"/>
          <path class="cls-1" d="M76.45,129.65c-1,.3-1.88.9-2.86,1.26-.32-.79,2.04-1.8,2.58-1.82.24,0,.3.45.28.57Z"/>
          <path class="cls-1" d="M101.65,147.93c-.22-.08-.41-.25-.48-.48.25.07.36.27.48.48Z"/>
          <path class="cls-1" d="M62.1,142.87c.44.49,1.13.4,1.8.58,1.66.42,3.2,1.33,3.79,2.99.27.75.27,1.93-.15,2.64-.79,1.36-3.03,1.18-2.81,1.73-2.77-.52-4.22.1-6.71-1.51-.06-1.5-1.57-1.46-1.45-4.26.24-.45.47-.94.99-1.17,1.44-.65,3-1.46,4.55-.99Z"/>
          <path class="cls-1" d="M70.42,134.31c-.34,1.68-1.42,3.34-1,5.24.22.57,1.32,1.02,1.68,1.58l.08.25c-.37.03-.8-.04-1.17.19-.27.17-.44.64-.47,1.1-.06.79-.78,1.23-1.57,1.01-1.2-.34-4.99-1.47-5.88-.81-1.54-.47-3.11.34-4.55.99l-.02-.51c1.76-.52,2.88-2.34,3.06-4.02.25,0,.78.07.98-.21.62-.88,1.59-.54,2.34-.9.43-.2.57-.83,1.28-.89,2.62-.22,3.71-2.67,5.23-3.01Z"/>
          <path class="cls-1" d="M55.85,147.68c.51.8,1.41,1.13,2.17,1.61,2.5,1.6,3.94.98,6.71,1.51,2.5,1.56,3.13,3.01,2.99,6.05-.02.46-.41.93-.15,1.41-.4-.8-.85-1.27-.7-2.44.29-2.3-1.5-4.34-3.89-4.4-2.78-.07-5.39-.68-7.47-2.72-.54-.53-2.32-.76-2.35.24-.06,2.06,1.19,3.96,2.1,5.76,1.48-.92,2.76-1.02,4.1-.25.69.39,1.17.92,1.31,1.87-.48-.26-.9-.66-1.39-1.03-2.19-1.63-3.54.58-4.2.29-.93-.41-2.46-4.39-2.81-5.71-.32-1.22.31-2.32,1.47-2.53.63-.12,1.52.15,2.1.35Z"/>
          <path class="cls-1" d="M55.03,135.23c-.28.02-.55.1-.82.19-.18-.93.2-1.93-.23-2.8.35-.45.61-1.03.38-1.69-.44.08-.78.19-1.14.21.06-.25.15-.52.07-.81-.07-.24-.34-.36-.6-.42.09-.61-.35-.78-.8-.9-.6-.17-.85.36-1.29.5-.77.24-1.66.36-1.99,1.2-1.14.92-2.39,2.06-2.79,3.63s1.06,2.7,2.38,2.81c.51.04,1.1.31,1.47-.17l.47-.02c-.04.21-.02.44-.04.65-1.76.32-3.71.02-4.8-1.62-.45-.68-.35-1.73-.2-2.43.31-.25.49-.87.67-1.2,1.51-1.64,2.86-3.43,5.07-4.28.69-.27,1.79-.51,2.5-.14,2.24,1.18,1.75,5.24,1.69,7.29Z"/>
          <path class="cls-1" d="M52.78,135.1c.28,0,.59.1.88.14.18.03.33.26.56.18.26-.09.54-.18.82-.19.08.38.42.6.8.51.08-.02.17.05.25.04,1.73,1.42,3.48.72,4.51,3.54-.18,1.69-1.3,3.5-3.06,4.02-2.05.61-4.09-.46-5.73-1.6-.11-.5-.59-.91-.95-1.23-.03-.99-.85-1.89-.75-2.9.02-.21,0-.44.04-.65.21-1.3,1.37-1.89,2.64-1.85ZM59.59,140.82c.88-1.44.06-3.01-1.33-3.51-1.58-.57-5.73-2.32-6.97-1.03-1.13,1.16.31,4.56,2.54,5.76,1.98,1.06,4.53.8,5.76-1.22Z"/>
          <path class="cls-1" d="M57.53,143.34l.02.51c-.51.23-.74.72-.99,1.17-.88.19-.68,1.98-.72,2.65-.58-.2-1.47-.47-2.1-.35-.28-1.24-.26-2.83-1.26-3.72-.07-.11-.15-.32-.21-.45-.22-.47-.36-.92-.47-1.42,1.64,1.14,3.67,2.22,5.73,1.6ZM55.15,146.28l-.57-2.23c-.36.46-.43,1.06-.37,1.68.04.47.59.76.95.54Z"/>
          <path class="cls-1" d="M51.8,141.74c.11.5.26.95.47,1.42-1.43-1.14-1.39-1.66-1.42-2.65.36.32.84.73.95,1.23Z"/>
          <path class="cls-1" d="M67.57,158.26c.56,1.13.93,2.38.93,3.55,0,1.82-1.59,2.94-3.26,3.19-1.38.2-2.66-.21-3.41-1.29-.32-.46-.33-1.07-.45-1.43.42-.21.06-.61.09-.88.21-1.89.1-3.65-.78-5.09-.14-.94-.61-1.47-1.31-1.87-1.34-.76-2.63-.67-4.1.25-.92-1.79-2.17-3.7-2.1-5.76.03-1,1.81-.77,2.35-.24,2.08,2.04,4.68,2.66,7.47,2.72,2.39.06,4.18,2.1,3.89,4.4-.15,1.17.3,1.64.7,2.44ZM64.01,156.44c0-.07-.05-.12-.12-.12s-.12.05-.12.12.05.12.12.12.12-.05.12-.12ZM64.58,159.44c.05.23-.03.47-.09.69-.72.02-.74-.68-1.08-1.62-.21,1.59-.19,3.33.89,4.69.31.39.66.78,1.05.83.37.05,1.28-.24,1.25-.68.06.93-.7-6.28-.6-3.14-.01-.43-.46-.77-.6-1.07-.36-.78-.53-1.68-1.37-2.31l.54,2.6Z"/>
          <path class="cls-1" d="M61.46,161.4c-.03.26.33.67-.09.88l-3.05-.34c-2.49-.51-4.53-2.72-3.65-5.33.28,1.78.61,3.25,2.24,3.98,1.43.64,3.05.94,4.55.82Z"/>
          <path class="cls-1" d="M48.09,158.98l-1.36-.98c-.83-.6-.84-1.9-1.26-2.91.62-.32,1.02.02,1.53.2l1.08,3.69Z"/>
          <path class="cls-1" d="M59.69,127.31c.4,3.67-1.73,5.9-3.87,8.44-.38.08-.72-.13-.8-.51.06-2.05.55-6.11-1.69-7.29-.71-.37-1.81-.13-2.5.14-2.21.85-3.56,2.64-5.07,4.28-.69-.93,1.48-3.96,2.2-5.02,1.03-1.52,2.74-1.98,3.57-2.89,2.28,1.33,4.88,1.18,6.96-.45.69,1,.68,2.24,1.19,3.32Z"/>
          <path class="cls-1" d="M56.08,135.78c-.08,0-.18-.06-.25-.04,2.14-2.53,4.27-4.77,3.87-8.44.24.22.48.39.52.94.23,3.57-1.47,5.7-4.13,7.53Z"/>
          <path class="cls-1" d="M76.96,138.64c.63,2.83.59,1.13.23,3.98-2.07.19-4.1-.54-5.82-1.7-.38-.26-.48-.84-.66-1.19.96-.63,1.96-1.2,2.87-1.9.99.66,2.21,1.3,3.38.81Z"/>
          <path class="cls-1" d="M84.37,134.97c2.01,2.21-1.25,6.82-4.05,7.62,1.33-1.55,2.22-1.25,3.41-3.98.97-2.22-1.76-3.71.64-3.63Z"/>
          <path class="cls-1" d="M73.12,137.15c.15.17.44.42.46.68-.91.7-1.91,1.27-2.87,1.9-.2-.38-.21-.74-.02-1.14.25.06.3-.29.41-.45.8-.02,1.32-.66,2.02-.99Z"/>
          <path class="cls-1" d="M75,134.56c-.18.38-.27.82-.15,1.32s.45.67.8.8c.37.14.56-.16.84-.24.26-.07.8.09.99-.3.12-.24.06-.59-.06-.9.63-.07,1.55.32,1.48,1.14-.06.71-.61,1.24-.95,1.71-.24.17-.7.42-.99.54-1.17.49-2.39-.15-3.38-.81-.02-.26-.31-.51-.46-.68-.08-.33-.04-.73-.28-1.02.12-1.42,1.2-.98,2.16-1.57Z"/>
          <path class="cls-1" d="M77.19,142.62c.37-2.85.4-1.15-.23-3.98.29-.12.74-.37.99-.54.64,1.07.81,2.63.55,3.91-.14.69-.89.57-1.31.61Z"/>
          <path class="cls-1" d="M76.9,135.19c-.31-.04-.43.25-.47.44-.06.26,0,.62.07.82-.27.08-.47.37-.84.24-.34-.13-.67-.3-.8-.8s-.03-.94.15-1.32c.36-.22.73-.28,1.14-.19.43.1.76.34.75.82Z"/>
          <path class="cls-1" d="M76.9,135.19c.17.02.35.08.53.06.12.31.17.66.06.9-.19.39-.73.23-.99.3-.07-.2-.12-.56-.07-.82.04-.19.16-.48.47-.44Z"/>
          <path class="cls-1" d="M56.57,145.03c-.11,2.81,1.39,2.76,1.45,4.26-.76-.49-1.66-.82-2.17-1.61.04-.67-.16-2.45.72-2.65Z"/>
          <path class="cls-1" d="M49.08,132.06c.83,1.07,2.07,1.63,3.41,1.44-.01.55.21,1.05.29,1.59-1.27-.03-2.42.56-2.64,1.85l-.47.02c-.58-.71-2.7-1.53-2.41-2.9.2-.95,1.09-1.6,1.83-2.01Z"/>
          <path class="cls-1" d="M50.6,129.51c-.02.5-.1,1.12.3,1.57s1.06.53,1.38.1c.31.13.62-.01.94-.03.36-.03.71-.13,1.14-.21.23.66-.03,1.24-.38,1.69-.11.15-.47.27-.55.47-.3.11-.71.12-.93.41-1.34.19-2.58-.37-3.41-1.44-.14-.18-.18-.45-.28-.65-.11-.21-.11-.48-.19-.71.33-.84,1.22-.95,1.99-1.2Z"/>
          <path class="cls-1" d="M48.8,131.41c.1.2.15.47.28.65-.73.41-1.63,1.06-1.83,2.01-.29,1.37,1.83,2.19,2.41,2.9-.37.48-.96.21-1.47.17-.06-.75-1.59-1.17-1.72-2.75-.08-.96,1.62-2.89,2.33-2.98Z"/>
          <path class="cls-1" d="M48.8,131.41c-.7.09-2.41,2.01-2.33,2.98.14,1.58,1.66,2.01,1.72,2.75-1.32-.1-2.77-1.3-2.38-2.81s1.66-2.71,2.79-3.63c.08.23.08.49.19.71Z"/>
          <path class="cls-1" d="M52.68,129.91c-.31-.04-.43.25-.47.44-.06.28,0,.61.07.83-.32.43-.97.36-1.38-.1s-.32-1.07-.3-1.57c.44-.14.69-.66,1.29-.5.45.13.88.29.8.9Z"/>
          <path class="cls-1" d="M54.21,135.42c-.23.08-.38-.16-.56-.18.03-.72.04-1.46-.23-2.15.08-.2.44-.32.55-.47.43.87.05,1.87.23,2.8Z"/>
          <path class="cls-1" d="M52.68,129.91c.25.06.53.18.6.42.08.29,0,.56-.07.81-.31.02-.63.16-.94.03-.07-.22-.13-.55-.07-.83.04-.19.16-.48.47-.44Z"/>
          <path class="cls-1" d="M59.59,140.82c-1.23,2.02-3.78,2.29-5.76,1.22-2.24-1.2-3.67-4.6-2.54-5.76,1.24-1.29,5.39.47,6.97,1.03,1.39.5,2.2,2.07,1.33,3.51ZM58.03,138.57c-.3-.21-.52-.44-.93-.46-.17,0-.34-.32-.57-.21-.12.05-.28-.02-.4,0-.54-.71-2.19-.31-4.29-1.29-.31,2.13,1.15,4.35,3.27,4.82,1.38.3,2.81-.2,3.48-1.3.23-.38.14-.73.11-1.05-.04-.39-.42-.33-.67-.5Z"/>
          <path class="cls-1" d="M53.43,133.09c.27.68.26,1.42.23,2.15-.28-.04-.59-.13-.88-.14-.07-.54-.3-1.05-.29-1.59.22-.29.63-.3.93-.41Z"/>
          <path class="cls-1" d="M55.15,146.28c-.35.22-.91-.07-.95-.54-.06-.63.02-1.22.37-1.68l.57,2.23Z"/>
          <path class="cls-1" d="M64.48,160.13c.31.16.54.58,1,.68.29.06.45-.43.52-.6-.1-3.14.66,4.07.6,3.14.03.44-.88.72-1.25.68-.4-.05-.74-.44-1.05-.83-1.08-1.35-1.11-3.1-.89-4.69.34.93.35,1.64,1.08,1.62Z"/>
          <path class="cls-1" d="M65.4,159.15c.14.3.58.64.6,1.07-.07.17-.23.67-.52.6-.45-.1-.68-.52-1-.68.06-.22.14-.46.09-.69.25-.16.53-.25.83-.3Z"/>
          <path class="cls-1" d="M65.4,159.15c-.29.04-.58.14-.83.3l-.54-2.6c.83.63,1.01,1.52,1.37,2.31Z"/>
          <circle class="cls-1" cx="63.89" cy="156.44" r=".12"/>
          <path class="cls-1" d="M56.13,137.91c-.29.39-1.47-.15-1.66.31-.23.54,2.37,1.87,2.84,2.03s.78-.42.85-.69c.08-.31-.01-.66-.12-.99.25.17.62.11.67.5.04.32.12.68-.11,1.05-.67,1.11-2.1,1.61-3.48,1.3-2.13-.47-3.59-2.68-3.27-4.82,2.09.98,3.74.58,4.29,1.29Z"/>
          <path class="cls-1" d="M56.13,137.91c.12-.03.29.05.4,0-.14.15.02.35.17.43s.45,0,.4-.22c.4.02.63.25.93.46.11.33.21.68.12.99-.07.27-.4.85-.85.69s-3.07-1.49-2.84-2.03c.2-.46,1.37.08,1.66-.31Z"/>
          <path class="cls-1" d="M57.1,138.11c.05.21-.25.3-.4.22s-.31-.28-.17-.43c.23-.11.4.21.57.21Z"/>
          <g>
            <path class="cls-1" d="M88.64,115.31c-.27.31-.35.77-.4,1.21-.34,2.87-4.21,3.28-6.57,3.48-.16,1.09-.43,2.04-.68,2.98-.04.16-.27.29-.24.5-3.21,3.89-8.95-.04-11.16-3.37-.47-.71-.6-1.84-.26-2.56.96-.67,1.93-1.39,3.19-1.92-.8-.82-1.72-.58-2.49-.77l-2.85-.71c-.78-.19-1.21-.74-1.25-1.45.66-.66,1.57-.77,2.39-1.17.06-.03.18-.02.25,0,1.67.22,3.14.94,4.91,1.72.75-2.33,0-2.29.68-4.81.2-.75.83-1.72,1.75-1.41,1.34.46,1.74,1.73,2.32,3.15.63-2.28,2.52-3.36,4.71-3.32,2.93.06,5.16,1.84,5.64,4.79.2,1.2.17,2.48.06,3.65Z"/>
            <path class="cls-1" d="M81.54,123.21c-.21.06-.5.42-.8.26-.03-.2.2-.33.24-.5.17.06.54-.02.55.23Z"/>
          </g>
        </g>
        <g>
          <path class="cls-1" d="M70.44,192.54c.14-.34.46-.61.56-.98.74.17.96-.94,1.36-1.14.31-.16-.1.89-.06,1.21.03.22.38.13.53.18-.53,1.15-1.23,2.27-2.26,3.18-.08-.99.92-1.37.66-2.32-1.22,1.67-2.25,3.14-3.78,4.17-.17-.34-.06-.6-.26-.87-.44.37-.62.63-.82.97.38.15.75.18.6.39-.93,1.34-2.74.23-3.8-.63-.49-.4-1.24.14-1.79.1-.37-.02-.66-.27-.95-.08-.2.13-.23.51-.65.64-.16-.44-.15-.93-.54-.99.34-.47.44-1.29.92-1.7.28-.24.7-.22.35-.72-.18-.26-.42-.37-.71-.46-.37-.12-.4.31-.6.44-.86.53-1.7,1.28-2.41,1.99-.43.02-.97.03-1.28-.5.37-.72,1.15-.77,1.3-1.44.07-.25.1-.27.05-.47-.09-.35-.11-.59-.67-.5-.2.03-.39.2-.38.5-.62.31-1.72.57-2.18,1.17-.17.35-3.25-.63-3.04-.88.59-.8,1.2-1.39,2.36-1.76,2.09-.67,4.24-.7,6.5-.64,3.41.09,2.44-.37,4.32-2.21.77.37,1.07,1.25,1.66,1.93,2.66,3.08.2,3.01.94,4.65,1.3-1.93.83-.05,2.49-2.32.29.43-.22.77.02,1.28.87-.46,1.22-1.36,1.55-2.17ZM67.87,195.64c0-.15-.12-.27-.27-.27s-.27.12-.27.27.12.27.27.27.27-.12.27-.27Z"/>
          <path class="cls-1" d="M59.25,196.35c.39.07.38.55.54.99.42-.13.45-.5.65-.64.29-.19.58.05.95.08.54.04,1.3-.5,1.79-.1,1.06.87,2.87,1.97,3.8.63.14-.2-.23-.23-.6-.39.2-.34.38-.59.82-.97.21.27.1.53.26.87,1.53-1.04,2.55-2.5,3.78-4.17.27.95-.73,1.33-.66,2.32,1.03-.9,1.73-2.03,2.26-3.18.19-.41.7-.75.79-1.2,1.59-.72,1.67-1.68,3.61-3.06.34-.24.23-.89.66-.98.24.02.32.16.3.34-.02.26-.2.35-.36.55l-2.18,2.61-1.47,1.64c-1.02,1.14-1.53,2.35-.74,4.02-6.68,4.67-5.9,6.64-14.64,5.34-1.04-.8-.32-3.67.42-4.71Z"/>
          <path class="cls-1" d="M74.12,188.47c.26-3.33,2.65-5.44,1.45-6.54-.71-.66-1.85-1.21-2.79-1.52-1.3-.42-2.53.7-3.09,1.74-.86,1.57-1.85,2.87-3.1,4.1-1.14,1.13-1.7,2.81-.57,4.06l2.09,2.3c.66-.42,1.2-.68,1.86-1.01.05.5.06.99.48.94-.34.8-.68,1.71-1.55,2.17-.24-.52.27-.85-.02-1.28-1.65,2.27-1.19.39-2.49,2.32-.74-1.63,1.72-1.57-.94-4.65-.59-.68-.89-1.56-1.66-1.93l6.93-12.22c.93-.11,1.66.65,2.54,1.02.6.26,1.36.26,1.72.94.25-.19.41-.39.51-.46.18-.12.48.07.59.32.91,2.07,1,4.27.82,6.53-.06.75-.5,1.26-1.28,1.32-.38.77-.89,1.42-1.5,1.85Z"/>
          <path class="cls-1" d="M78.19,186.2c-.13.05-.16.33-.29.36-.43.1-.32.74-.66.98-1.94,1.38-2.02,2.34-3.61,3.06l.41-1.88c.02-.08.07-.17.07-.25.61-.43,1.12-1.08,1.5-1.85.78-.07,1.22-.57,1.28-1.32.17-2.26.09-4.46-.82-6.53-.11-.25-.41-.44-.59-.32-.1.07-.26.27-.51.46-.36-.68-1.12-.68-1.72-.94-.87-.37-1.61-1.13-2.54-1.02.44-.77,1.16-1.92,1.5-2.44.45-.34.56,1.81,1.87,2.44.22.1.88-.51,1.07-.15.38.69.74,1.22,1.59,1.24.45.91.67,1.76.98,2.69l.92-.13c.68,4.16-.25,1.92-.46,5.61ZM78.42,181.98c0-.15-.12-.27-.27-.27s-.27.12-.27.27.12.27.27.27.27-.12.27-.27Z"/>
          <path class="cls-1" d="M78.19,186.2c.2-3.69,1.14-1.45.46-5.61l-.92.13c-.31-.93-.53-1.78-.98-2.69-.85-.01-1.22-.54-1.59-1.24-.19-.36-.86.25-1.07.15-1.31-.63-1.42-2.78-1.87-2.44.2-.3.33-1.2.86-1.17l3.13,2.61c1.47,1.23,2.15,2.51,2.93,4.21.31.67,1.87,1.11,1.84,2.24-.04,1.65-1.24,3.39-2.78,3.8Z"/>
          <path class="cls-1" d="M56.82,193.96c-.16.67-.94.72-1.3,1.44.31.52.85.52,1.28.5-.56,1.49-.29,3.11.01,4.79-1.43-.11-2.78-.4-4.08-.81.02-1.78,1.14-2.99,2.06-4.37.53-.8.99-1.69,2.03-1.55Z"/>
          <path class="cls-1" d="M53.64,194.65c-1.04,1.36-1.91,2.85-2.32,4.65-1.5-.15-2.33-1.5-2.17-2.89.14-1.22.89-1.86,1.46-2.63-.21.25,2.87,1.23,3.04.88Z"/>
          <path class="cls-1" d="M60.18,194.66c-.02-.52-.48-.78-.96-.75.2-.12.23-.55.6-.44.29.09.53.2.71.46.36.51-.07.49-.35.72Z"/>
          <path class="cls-1" d="M56.87,193.49h-1.05c0-.3.18-.47.38-.5.56-.09.58.15.67.5Z"/>
          <path class="cls-1" d="M74.12,188.47c0,.08-.06.17-.07.25-1.54-.04-2.67,1.39-3.04,2.84-.1.37-.42.64-.56.98-.42.05-.43-.45-.48-.94-.66.33-1.19.59-1.86,1.01l-2.09-2.3c-1.14-1.25-.58-2.93.57-4.06,1.25-1.24,2.25-2.53,3.1-4.1.57-1.04,1.79-2.16,3.09-1.74.94.31,2.08.86,2.79,1.52,1.2,1.11-1.19,3.22-1.45,6.54Z"/>
          <path class="cls-1" d="M74.04,188.72l-.41,1.88c-.1.45-.61.8-.79,1.2-.15-.05-.5.04-.53-.18-.04-.31.37-1.36.06-1.21-.4.2-.62,1.32-1.36,1.14.37-1.44,1.5-2.87,3.04-2.84Z"/>
          <circle class="cls-1" cx="67.6" cy="195.64" r=".27"/>
          <circle class="cls-1" cx="78.15" cy="181.98" r=".27"/>
        </g>
        <g>
          <path class="cls-1" d="M56.82,95.86c-5.04,6.3-7.18,12.24-8.43,20.17-.11.68-.68,1.29-.38,2.28,2.9-1.75,2.16-.97,3.32-4.55.36-1.11.34-2.25.85-3.32.9-.16,1.01-.93,1.33-1.58.88-1.78,1.49-3.52,1.91-5.47l.66-3.13c.31-1.47.93-2.9,1-4.41h.61c.34.27.64.45.92.92l4.5,7.71c1.55,2.66,3.41,4.9,5.45,7.06-.07,0-.19-.02-.25,0-2.02-1.29-2.54-2.88-4.11-4.35.18-.48-.32-.71-.57-1.08l-2.53-3.72c-1.23-1.81-1.94-4.02-3.53-6.06-.96,3.31-1.09,6.7-1.94,9.87l-1.69,6.28c-.3,1.13-.63,2.52-1.33,3.37-1.2,1.44-3.41,1.95-4.8,3.27-1.29,2.23-1.74,5.02-2.67,7.43l-2.05,5.28c-.7,1.8-1.23,3.83-2.54,5.12l-2.9,2.85c-1.79,1.77-2.21,7.06-.26,10.05,2.83,4.34,8.44,8.74,12.69,11.44,1.49.94,2.93,2.18,4.55,2.9,1.37,2.22,3.79,3.46,6.45,3.9,1.35.23,2.41.05,3.63-.14.9-.14,2.22-.41,3.09-.12,1.63.53,3.28.4,5.06.39,1.6,0,3.14.07,4.81-.18,8.1-1.19,17.85-3.76,22.36-11.1,1.27-2.07,2.18-4.36,1.88-6.63-.06-.44.33-1.01.2-1.48,1.21.98-.58,1.09,1.26,3.58.9,1.22.42,3,.73,4.28.42,1.75-.04,2.78-1.38,3.67-2.79,1.85-5.7,5.15-9.67,6.77-1.36.55-5.36,2.28-6.53,2.32-3.16.09-6.19.11-9.36-.02-1.12-.04-2.29-.78-3.41-.24,1.18,1.7,2.64,2.93,3.94,4.34,1.87,2.03,3.84,3.63,6.06,5.25,4.24,3.09,8.94,5.26,14.16,6.21,1.15-4.12,2.54-8.07,3.42-12.11.03-.14,0-.3.02-.44,1.03-1.09.32-2.86,1.72-4.02l-2.35,8.8-4.16,14.31c-.72,2.46-1.41,4.81-2.45,7.15l-4.43,1.32c-2.05.61-5.14,2.42-4.26,5.2.28.88,1.35,1.61,2.62,1.71.31-2.19,1.47-4.02,2.93-5.56.68.58,1.32.34,1.83.68l-.53.35c-1.62,1.06-2.55,2.98-2.89,4.94,2.15.32,4.09.64,6.3.56-.29-1.54-.92-2.88-.82-4.31.08-1.11.93-1.99,1.54-2.85l1.43-.06-.69,1.22c-.87,1.54-1.23,4.45.38,5.78,1.71.31,4.99-.17,6.36-1.63,7.06-7.51,14.35-19.82,16-29.99.1-.63-.46-1.14.05-1.91.33-.49.31-1.76.28-2.41l-.15-3.19c-.1-2.11-1.41-5.78-.78-6.97.4.51.47,1.07.95,1.24.12.36.05.78.12,1.15.03.19-.04.56.23.57v.39c.01.1-.01.22.02.36.03.12.15.39.35.23-.02.22.08.45.07.67-.03,1.43.17,2.84.37,4.37.77-.21.37-1.71.77-1.95,1.09-.65.22,3.79-.18,4.26-.36.98-1.19,1.86-1.42,2.9-.86,3.85-1.82,7.5-3.47,11.19,3.3.66,6.4.89,9.66.77.92-1.12,2.27-1.5,3.58-.83.63.41,1.58.59,2.24.12-.1-4.92,1.36-9.63,2.93-14.23.56-1.64.56-3.32,1.48-4.9.15-.27.22-.93-.07-.99.01-.15.16-.32.2-.46.2.04.39-.03.44-.17.08-.24.02-.43.03-.6.31-3.98,1.16-5.59,1.29-6.87.88.17.46-2.52,1.85-2.77-.03,1.11-2.09,7.52-1.62,7.76.66.34,2.3-4.8,3.08-4.01.11.11.2.49.04.68-1.33,1.62-2.14,5.44-2.45,7.51-.11.73-1.08,1.42-.52,2.07.01.26-.28.48-.29.72-1.12.52-1.47,1.81-1.79,2.95-.41,1.45-1.17,2.69-1.36,4.24-.07.59.31,1.34.08,1.9-.67,1.61-.99,3.16-1.01,4.89l-1.43.19c-.63,4.01,1.05,7.73,4.43,9.97,6.56,4.36,17.61,1.9,23.22-3.04.15-.14.41-.3.49-.5,1.15.32,1.84-1.26,1.93-.45-.17.7-.64,1.27-.97,1.9-.22.33-.97.46-1.04.97-.66.1-1.05.7-1.65.96-1.43.61-2.85,1.17-4.49,1.55-.54.29-.6,1.3-.76,1.8-1.04.49-2.21,1.29-2.9,2.17-1.03.63-1.85,1.71-2.3,2.93-.87,2.37,2.51,3.49,4.13,3.5-.16-1.01-.31-1.97.07-2.8.77-1.69,2.26-2.94,3.6-4.42.24,0,.29.19.26.28-.54.19-.27.79-.3,1.27-.25.78-1.08,1.18-1.65,1.86-.81.98-1.44,2.82-.5,3.88,1.32.26,2.95-.49,4.39-.79-.2-1.37-.48-2.45-.29-3.79-.03-.14-.07-.33-.18-.23.21-.41.09-1.03.45-1.43.66,0,.27,1.02.73,1.68-.09.88.26,1.69.47,2.54.03.11-.05.29.02.41.16.27,1.1.15,1.25.1.14-.04.38-.19.22-.41.08,0,.17-.01.24,0,.34.04,1.18-.24,1.34.16.37.92-.74.94-1.24,1.6,1.26.14,2.58-.34,3.48-1.27.51-.52.56-1.65.33-2.24-.5-1.28.16-1.85.61-2.85,1.44-3.24,1.56-6.89,1.24-10.35-2.18-1.57-1.46-5.2-4.14-6.85-1.59-.98-4.62.61-5.26,1.83-.06.03-.17.04-.24.04-.38,0-.74.25-.73.66-1.22.37-1.25,1.26-2.41,1.77-.42.22-1.25.34-1.44-.3l3.61-3.81c2.24-2.37,2.78-5.27,4.74-7,3.46-7.66,4.79-18.36,1.75-26.33-1.43-3.74-3.88-6.64-7.19-8.9-6.62-4.53-14.2-7.16-22.28-7.34-3.97-.09-7.68-.02-11.51.94l-12.61,3.19c-2.45.62-4.94,1.03-7.17,2.24-1,.56-1.83,2.21-2.65,2.87-.21,1.55.58,3,.6,4.37-1.21-.75-1.24-9.17-1.26-11.03-.03-2.44.1-4.75.77-7.11-.95,0-1.62.32-2.37.26-.52-.04-1.4-.22-1.5-.89s.61-1.1.96-1.69l-1.44-.35c-.62-.15-1.03-.65-1.2-1.12s-.21-1.2.17-1.74c1.28-1.83,2.49-3.75,3.96-5.34,3.23-3.5,6.39-7.05,9.77-10.31.05,1.11-1.51,1.54-1.84,2.63-.29.96-.88,1.66-1.33,2.49-.51.95-1.09,1.53-1.8,2.32l-1.71,1.89c-1.92,2.12.12,2.47-1.07,3.48-.14.12-.23.35-.26.5-.04.2.33.4.4.66-.01.54-.65.75-.97,1.24.25.68.36,1.29-.33,1.86l.96,1.49c1,1.55,1.77,3.01,2.19,4.81.14.62.64,1.13.11,1.87s-.7,1.62-.84,2.52c-.36,2.26-2.45,3.05-1.42,5.41,2.06-2.59,3.91-5.2,5.14-8.05.28-.37.7-.81.96-1.4,2.38-5.53,3.77-11.41,3.99-17.46.07-1.82-.09-3.48-.7-5.02-.32-.79-.64-1.24-1.45-1.47-2.43-.69-5.97,1.2-8.12,2.15-2.68,1.19-7.96,3.93-10.3,5.53-.21.14-.62-.04-.86.35-.34.56-.97.82-1.53.81.05-.44.13-.9.4-1.21.03.12,0,.28.15.51,4.49-2.7,14.46-8.86,19.58-9.1,2.46-.12,3.64,3.48,3.58,5.48-.05,1.63.13,3.16-.07,4.76-.67,5.4-1.78,10.62-4.13,15.53-1.13,2.36-2.58,4.36-3.9,6.62,1.27-.44,2.48-.87,3.82-1.22l12.27-3.26c2.94-.78,5.8-1.48,8.87-1.67,2.83-.17,5.63-.27,8.49,0,8.04.77,15.63,3.69,21.91,8.7.9.72,1.17,1,2.38.52,2.99-1.2,5.61-3.52,5.96-6.95.53-5.16-8.08-10.88-13.7-11.18-3.13-.17-5.83-2.42-5.85-5.67-.05-7.79,10.29-10.56,16.51-11.33,2.55-.32,7.73-.38,9.79,1.56,1.06,1,1.82,2.61,1.87,4.07.11,3.67-3.25,6.46-6.69,6.53,7.86,6.12,9.66,18.12,4.77,26.51-1.92,3.29-4.84,5.71-8.62,6.57,1.91,8.46.29,16.96-3.17,24.93,4.59,4.28,6.85,10.24,6.57,16.51-.34,7.42-2.5,6.74-1.79,10.16.31,1.5-1.1,2.72-2.44,3.14-3.73,1.2-11.78,1.51-15.02-1.01-1.12-.87-1.48-2.18-.75-3.54,1.09-2.02,2.91-3.5,4.91-4.64.36-.32.65-.95.68-1.63-5.11,2.16-11.69,2.44-16.72-.3-.24,2.43-1.87,4.5-4.39,5.26-4.45,1.34-10.36,2.12-15.07,1.85-1.43-.08-2.87-.6-3.91-1.58s-1.32-2.81-.64-4.1c1.29-2.45,4.65-3.14,7.21-3.91-1.27-1.63-1.81-3.52-2.41-5.48-.35-.33-1.16-.43-1.72-.43-3.3,6.84-7.15,13.39-12.36,18.97-2.07,2.22-8,2.54-10.99,2.21-2.25-.25-7.91-.4-8.96-2.98-.42-1.04-.35-2.05.1-3.08,1.25-2.84,5.79-3.66,8.36-4.52.56-.19.84-.84,1.01-1.39l3.55-11.34c-3.35-.53-6.28-1.45-9.16-2.78-.98.54-1.33,1.45-2.06,2.18-5.7,5.71-11.77,10.9-18.13,15.83-2.15,1.67-4.32,1.93-6.96,1.58-3.39-.45-6.79-.69-10.05-1.77-1.54-.51-3.08-1.66-3.07-3.37.02-3.41,3.2-6.3,6.94-6.38l5.91-.13c.87-.02,1.31-.9,1.77-1.59,3.93-5.92,7.25-12,10.8-18.26.4-.7-.56-1.91-1.49-1.69-1.96.46-3.92-.62-5.77-.32-4.71.76-9.36.33-12.41-3.81-5.37-3.19-16.86-10.82-18.45-17.02-.63-2.46-.38-5.21.76-7.51,1.26-2.56,3.64-3.19,5.18-6.81,1.86-4.36,3.48-8.72,4.9-13.27s1.72-8.43,3.48-13.32c.67-1.88,1.26-3.7,2.34-5.36l3.3-5.07c.28-.43.7-.83,1.07-1.02l.25.36ZM166.9,130.61c1.39,2.38,2.03,5.22.43,7.47l-1.42,1.99c-.27.38-1.13.48-1.27,1.22.59,1,1.43,1.99,1.93,3.11.2.44-.7.82-.96,1.14.64.25.96.79,1.41,1.49,2.72-1.05,4.52-3.5,5.46-6.26.28-.05.45.18.84.2-.15-1,.21-1.69.62-2.48.47-.91-.02-1.99,0-2.94.02-1.39.63-2.75.34-4.18-.79-3.98-1.39-5.51-3.43-8.74-1.02-1.62-2.34-3.05-4.21-3.21-.47-.04-1.3-.32-1.72-.48-.83-.32-1.65-.68-2.6-.44-.17.04-.39-.13-.56-.07-1.87-1.46-4.14-.04-6.64-2.18,2.37-.79,4.56-.43,6.81-.57l2.77-.18c1.18-.07,2.16-.42,3.32.09,1.26.55,2.97-.02,3.38-1.39.6-2.03,2.63-2.59,1.77-4.74-.35-.87-1.07-1.31-2.01-1.51-5.16-1.1-12.69.65-17.49,3.27-2.51,1.37-4.46,3.67-4.74,6.48-.36,3.6,2.52,5.35,5.7,5.65,5,.47,9.13,3.66,12.27,7.27ZM72.22,174.51c-.34.52-1.06,1.67-1.5,2.44l-6.93,12.22c-1.88,1.84-.91,2.3-4.32,2.21-2.26-.06-4.42-.03-6.5.64-1.16.37-1.76.95-2.36,1.76s-1.32,1.42-1.46,2.63c-.16,1.39.67,2.74,2.17,2.89.42-1.8,1.28-3.29,2.32-4.65.46-.6,1.56-.86,2.18-1.17h1.05c.05.21.02.23-.05.48-1.05-.14-1.5.75-2.03,1.55-.91,1.37-2.04,2.59-2.06,4.37,1.3.42,2.65.7,4.08.81-.3-1.68-.58-3.3-.01-4.79.71-.71,1.55-1.46,2.41-1.99.49-.02.94.24.96.75-.48.41-.59,1.23-.92,1.7-.75,1.04-1.46,3.91-.42,4.71,8.74,1.3,7.95-.67,14.64-5.34-.8-1.68-.28-2.89.74-4.02l1.47-1.64,2.18-2.61c.16-.19.34-.29.36-.55.01-.18-.06-.32-.3-.34.12-.03.16-.31.29-.36,1.54-.42,2.74-2.15,2.78-3.8.03-1.13-1.54-1.57-1.84-2.24-.78-1.7-1.46-2.98-2.93-4.21l-3.13-2.61c-.54-.03-.67.87-.86,1.17ZM120.6,191.29c.17.48.26,1.25.98,1.4.8.16,1.62.19,2.35.15-.09.48,1.12.21.97.75-.12.44-3.85.79-4.29.85-1.46.22-2.93.63-4.18,1.57.93.26,1.53-.57,2.37.16-1.17.13-1.71.49-2.28,1.11-.74.81-1.68,2.5-.98,3.68.61,1.02,2.48,1.02,3.62,1.19.35-2.07,1.22-3.71,2.93-4.67.38-.21,1.11-.13,1.54-.12.18,0,.06.43-.04.44l-.37.03c-1.55.14-3.23,2.93-3.56,4.48,3.63.04,7.28-.46,10.77-1.14.6-2.32,2.64-2.9,2.49-4.29-.09-.83-.57-1.15-1.02-1.79l-2.38-3.36c-1.36-1.91-7.53-1.06-9.36-1.61-.28.64.31.82.43,1.17ZM116.03,196.36c-1.48.66-2.25,2.44-1.25,3.88-.04-1.47.16-2.74,1.25-3.88.18.03.33-.1,0,0Z"/>
          <path class="cls-1" d="M155.31,187.28c-.45.57-1.25,1.74-2.08,1.7-1.78-.81-1.59.64-2.99.39-.24-.04-.58-.54-.39-.89.57-1.02,1.6-1.65,2.59-2.18,1.1-.59,1.81-1.52,2.74-2.31.49-.42,1.15-.76,1.17-1.52.02-.69.63-.78.96-1.17.78-.92.63-2.32,1.32-3.35.13-.13.4.28.45.41.74-1.63.52-3.33.56-4.9.26-.13.63-.17.78-.21.3-.09.09-.57.22-.81,1.14-2.16-.59-3.49.69-4.46.48.24.06.72.4,1.08.42-1.15-.11-2.34-.1-3.59,0-.9.09-1.78-.54-2.41v-.45c1.01-.21.86,3.24,1.5,1.52-.7-.59-.13-1.3-.24-1.84-.42-2.01-1.84-3.45-2.16-5.59.95.37,2.17,4.93,2.72,4.79,1.45-.38-2.31-4.4-.86-5.21-1.25-1.73-3.13-2.7-4.82-4.04-.52-.6.11-1.97.23-2.58l1.7-.07c.46-1.22-1.55-1.22-1.67-1.78-.05-.26.39-.66.7-.58,1.23.35,1.99,1.47,3.23,1.64-.45-1.38-1.93-1.39-2.62-2.21-2.64-3.14-2.91-.19-5.44-3.47l3.96,1.04c.97.25,1.52,1.29,2.71,1.22-.87-1.1-2.05-1.63-3.13-2.41s-2.51-.81-3.76-1.27c-.22-.43-.1-.96-.22-1.49-1.78-.91-3.69-1.15-5.64-1.64-2.58-.65-5.27-1.57-7.98-1.19-.9.13-1-.47-1.56-.61-2.56-.61-5.22.24-7.8.55-.92.11-1.71.6-2.59.05.75-.64,1.48-.68,2.23-1.02-.53-.27-1.16-.27-1.82-.09l-3.61.95c-1.53.4-2.92.43-4.37,1.14-1.69.83-3.29,2.32-4.99,2.53l-1.78.22,1.5-1.63c-2.62,1.08-4.91,2.6-6.95,4.56-.48.19-1-.27-1.6-.22-.4.57-1.08,1.78-.65,2.52,1.37,2.37,1.31,6.3,1.98,7.94.48,1.17,1.01,2.36.27,3.65-.36.63-.74,6.2-1.12,8.16-.17.87-.37,1.66-.46,2.45-.01.11-.03.29,0,.39-.51.6-.51,1.46-.98,2.22-.03.14.07.35.2.25-.28.42-.59.89-.74,1.37-.23-.01-.4.12-.57.34l-3.14,4.05,2.35-8.8c-1.41,1.17-.7,2.93-1.72,4.02-2.23-1.5-1.34-1.4-1.59-4.04.71-1.25,1.83-2.82.89-4.14-.35-.5-1.35.2-1.64.49-1.08,1.08-2.61,1.84-3.99,2.51-2.75,1.34-5.38,2.77-8.49,3.19-.56.07-.92.32-.98.87-.04.42.47.48.73.84l1.21,1.65c.56-1.33,2.31,1.38,3.04,2.01,1.19,1.02,2.53,1.88,3.9,2.54l-2.2-2.5c.34-.16.79.27.96-.04.1-.18-.06-.61.25-.83.5.6,1.35.66,1.92.98.77.42,1.25,1.2,2.23,1.24.31-3.05.88-2.37,1.47-5.02.12-.22.81.14.93.36.32.61.85.61,1.32.34-.88,4.04-2.27,7.99-3.42,12.11-5.21-.95-9.91-3.11-14.16-6.21-2.22-1.62-4.2-3.23-6.06-5.25-1.3-1.41-2.77-2.64-3.94-4.34,1.12-.53,2.3.2,3.41.24,3.17.13,6.2.11,9.36.02,1.17-.03,5.17-1.76,6.53-2.32,3.97-1.62,6.88-4.93,9.67-6.77,1.34-.88,1.8-1.92,1.38-3.67-.31-1.27.18-3.06-.73-4.28-1.84-2.49-.05-2.6-1.26-3.58-.2-.25-.33-.64-.49-.92-.12-.21-.23-.41-.48-.48-.02-.07,0-.16,0-.24-.02-1.37-.81-2.82-.6-4.37.82-.67,1.65-2.31,2.65-2.87,2.23-1.21,4.73-1.62,7.17-2.24l12.61-3.19c3.83-.97,7.54-1.03,11.51-.94,8.07.18,15.65,2.81,22.28,7.34,3.31,2.26,5.76,5.16,7.19,8.9,3.04,7.96,1.71,18.66-1.75,26.33-1.96,1.72-2.51,4.63-4.74,7l-3.61,3.81c.19.64,1.03.52,1.44.3ZM163.28,158.72c0-.15-.12-.27-.27-.27s-.27.12-.27.27.12.27.27.27.27-.12.27-.27ZM163.76,159.68c0-.15-.12-.27-.27-.27s-.27.12-.27.27.12.27.27.27.27-.12.27-.27ZM161.68,171.18c.22-.71.25-1.11,0-1.45-.17.58-.16,1.02,0,1.45ZM160.62,174.54h-.48v1.68h.48v-1.68Z"/>
          <path class="cls-1" d="M161.08,162.6c-1.83-2.99-.56-3.38-3.32-4.87-.43-.23-.59-.97-1.06-1.11-.18-.03-.6.57-.74.43-.92-.95-1.63-.34-2.48,0-1.1.45-2.28.56-3.36,1.27-.9.59-1.95,1.02-2.81,1.68-3.06,2.37-3.63,5.07-4.9,6.91l-2.98,4.34c.06,3.9-.23,2.65-.88,3.75-.18.01-.35-.03-.45-.17-.11-.15.14-.47.1-.6-.7-2.02.72-1.72.8-3.52.01-.24.31-.46.29-.72,1.27-.86,1.85-2.25,2.28-3.73,0,0,2.89-7.35,2.99-7.54l1.25-2.46c-.32-.47-.63-1.18-1.1-1.53-1.07-.81-2.21,1.32-2.8,1.92-1.37-.97-.14-1.6-.24-2.54-.01-.1-.39-.39-.48-.25-1.35,2.07-2.05,2.44-2.29,4.9-.13,1.28-.98,2.89-1.29,6.87-.19-.15-.35.08-.44.21-.13.18.02.4-.03.57-.04.14-.19.31-.2.46-.35.23-.48.64-.64,1.12l-2.31,7.03c-1.2,3.66-.13,3.53-3.17,7.17-.26.18-.52-.51-.46-.89-1.83.28-.86,1.29-2.03,2.24l.14-2.63c-.85.55-1.73.08-2.51.2-.82.13-1.66.24-1.89-.79l-.88-3.8c-.2-.88-.56-1.51-.5-2.49.08-1.34.51-2.59.52-3.83.04-.04.51.08.47.27-.24,1.17.82,2.17.82,3.15,0,1.69.77,2.66,2.18,3.47.43.25.5,1.68,1.39,1.42.34-.1,1.04-.4,1.36-.68l2.91-2.61c2.22-1.99,3.5-8.8,3.77-11.79.24-2.67-.18-5.34.22-7.96.11-.72,1.28-1.4,1.15-2.26.96.19,1.09.79,1.83,1.06.31-.4,2.7-1.84,2.74-1.83l1.09.5c1.48.68,3.15.38,4.58,1.48.58.3,1.89.57,2.59.47l2.38-.34c.78-.11,1.59-.35,2.48-.09-1.08-2.71-2.34.39-1.85-5.7.03-.38.54-.58.37-.96-.78-1.68-1.56-.86-2.14-2.56-.14-.41-.62-.81-1.05-.8-.62,0-.8-.58-1.25-.76l-5.5-2.11c-.54-.21-.86-.64-1.6-.41-.3.09-.68-.03-.82-.16s0-.87-.23-.91c-.7-.1-1.76,0-2.44.21-1.39.43-3.8-.48-4.61-.69s-1.74.77-2.67.24c.57-.53,1.39-.6,2.11-.83l3.15-1.01c-2.85-.45-5.48,1.32-8.83,1.8-1.56.22-2.95,1.63-4.54,1.62-1.12,0-2.08-.65-3.09.4-.52.54-3.57,2.28-4.64,1.12-1.84,1.2-4.16,2.58-5.38,4.52-.97,1.54.46,6.3.38,6.2,1.86,2.18.12,1.18,1.45,3,.29.4.67-.37.98-.3,1.12.25,3.99.77,5.05.42.82-.27,1.79.54,2.57.38.96-.2,1.4.11,2.04.74,1.68,1.66,1.9,3.73,1.37,6.07-.05.23.06,3.04-.7,2.65,0-1-.07-2.01.07-3.11.09-.7-.14-1.42-.12-2.22,0-.26-.61-.21-.78-.13-.21.09-.13.5-.22.77-1.03,2.97.04,4.22-1.14,4.21,0-.22-.1-.44-.07-.67.02-.16.11-.36-.04-.55-.07-.1-.2-.16-.32-.04v-.39c.12-.09.25-.27.19-.38-.08-.17-.29-.35-.43-.19-.07-.37,0-.79-.12-1.15-.29-.92-.31-2.13-1.1-2.91-.69-.22-1.9-.62-2.6-.38l-2.31.76.69,1.66c.35.84.14,1.8.88,2.56-.19.41-.34.59-.7.96.87.51-.04,1.17.04,1.56.38,1.87,1.22,3.57.96,5.57l-.97-3.22c-.04-.2-.22-.31-.32-.11l-.73-1.41c.06-.24-.09-.52-.06-.76l.92-.41c-1.05-.86-.83-2.03-1.25-3.04l-1.18-2.84c-.35-.84-1.4-1.55-2.18-.89.67.99,1.76,1.54,1.76,2.76,0,.43-.91-.11-1.22-.2-.57-.18-1.15.8-1.57,1.04-3.35,1.9-1.99,4.4-3.32,5.1.08-.79.29-1.58.46-2.45.38-1.96.76-7.53,1.12-8.16.74-1.29.21-2.48-.27-3.65-.67-1.64-.61-5.57-1.98-7.94-.43-.74.24-1.95.65-2.52.6-.05,1.12.41,1.6.22,2.04-1.96,4.33-3.48,6.95-4.56l-1.5,1.63,1.78-.22c1.7-.21,3.3-1.7,4.99-2.53,1.45-.71,2.84-.74,4.37-1.14l3.61-.95c.67-.18,1.29-.18,1.82.09-.75.33-1.48.38-2.23,1.02.89.55,1.67.06,2.59-.05,2.58-.31,5.24-1.17,7.8-.55.56.13.65.73,1.56.61,2.71-.38,5.4.54,7.98,1.19,1.95.49,3.87.72,5.64,1.64.12.53,0,1.06.22,1.49,1.25.47,2.68.5,3.76,1.27s2.27,1.3,3.13,2.41c-1.19.06-1.74-.97-2.71-1.22l-3.96-1.04c2.53,3.29,2.8.34,5.44,3.47.69.82,2.16.83,2.62,2.21-1.24-.17-2-1.29-3.23-1.64-.31-.09-.76.32-.7.58.12.56,2.13.56,1.67,1.78l-1.7.07c-.12.61-.75,1.99-.23,2.58,1.69,1.34,3.57,2.31,4.82,4.04-1.45.81,2.31,4.82.86,5.21-.54.14-1.77-4.42-2.72-4.79.32,2.14,1.74,3.58,2.16,5.59.11.54-.46,1.25.24,1.84-.64,1.72-.49-1.73-1.51-1.52Z"/>
          <path class="cls-1" d="M120.26,162.8c-.47-.17-.55-.73-.95-1.24-.63,1.19.68,4.86.78,6.97l.15,3.19c.03.65.05,1.92-.28,2.41-.51.76.05,1.28-.05,1.91-1.65,10.18-8.94,22.48-16,29.99-1.36,1.45-4.65,1.94-6.36,1.63-1.62-1.32-1.26-4.23-.38-5.78.54,1.7,3.71-1.21,4.94-1.69.28.25.34.53.8.66.65-1.67,1.41-3.14,1.84-4.72.09-.34.51-.66.57-1.01.48.03.92-.43.97-.96.19-1.92,1.73-.14,1.35-3.31.6-1.2,1.09-2.51,1.17-3.85.03-.23.33-.48.3-.75.52-.25.42-.92.68-1.46l.55,2.15c.06-.91.29-1.46.46-2.23l.66-2.95c.81.14.28-1.44.98-1.46l.08,3.15c.62-1.57.28-3.27.8-4.92.22-.69.82-1.48.15-2v-.77c.24-.07.73-.2.84.2.17.59-.24,1.09.28,1.6l.67-1.38c.69-1.42-.15-3.22-.44-4.73-.13-.7.09-1.51,0-2.21.1-.2.28-.09.32.11l.97,3.22c.26-2-.58-3.69-.96-5.57-.08-.39.83-1.05-.04-1.56.37-.38.52-.55.7-.96-.74-.76-.53-1.72-.88-2.56l-.69-1.66,2.31-.76c.71-.23,1.91.16,2.6.38.8.78.81,1.99,1.1,2.91Z"/>
          <path class="cls-1" d="M161.09,163.05c.63.63.54,1.51.54,2.41,0,1.24.52,2.43.1,3.59-.33-.37.08-.85-.4-1.08-1.28.97.45,2.3-.69,4.46-.13.25.08.73-.22.81-.14.04-.51.08-.78.21-.04,1.57.18,3.28-.56,4.9-.05-.13-.32-.54-.45-.41-.68,1.03-.53,2.44-1.32,3.35-.34.39-.94.49-.96,1.17-.03.76-.68,1.1-1.17,1.52-.92.79-1.63,1.72-2.74,2.31-1,.54-2.03,1.16-2.59,2.18-.19.35.15.84.39.89,1.4.25,1.21-1.2,2.99-.39.84.04,1.63-1.13,2.08-1.7,1.16-.51,1.19-1.39,2.41-1.77.2-.06.46,0,.6-.2.09-.13.12-.29.13-.45.07,0,.18,0,.24-.04.86-.47,1.65-.35,2.62-.3,2.67.14,1.44,1.55,3.64,3.47-.25.44-.7.34-1.28.55,1.99,2.15,2.14,8.91,1.07,11.28-.61,1.34-1.41,2.58-1.55,4.12-.03.29-1.11.4-.85.84-.07,0-.16.01-.24,0l-1.48-.1c-.22-.85-.56-1.66-.47-2.54.36.48,1.74-4.22.08-3.51-.59.25-1.1,1.35-.8,1.83-.35.39-.24,1.02-.45,1.43-.23.44-.23,1.1-.36,1.67-.45.37-1.88.67-2.41.38-.69-2.04,2.9-2.27,1.3-4.25.03-.09-.02-.28-.26-.28-1.35,1.48-2.83,2.73-3.6,4.42-.49.07-.9-.27-1.39-.5-.35.14-.58.4-.96.46-1.13-1.77,1.27-2.65.44-3.58.69-.88,1.86-1.68,2.9-2.17,1.35.11,5.27-1.58,5.25-3.35.6-.26.98-.86,1.65-.96-.13.97-2.23,1.94-1.56,3.1.41.72,1.59,1.74,2.52,1.63,2.69-.32,2.56-4.37,1.67-5.31-.4-.42-1.05-.43-1.6-.4.34-.63.8-1.2.97-1.9.14,0,.28.07.36,0,.13-.11.12-.3.09-.41-.1-.3-1.51-.45-1.88-.2-.27.19-.37.69-.51,1.05-.07.2-.33.36-.49.5l-1.95-.31c-3,1.81-6.29,2.87-9.83,2.95-1.3.03-2.38-.74-3.6-.83-2.44-.19-2.96.75-3.51.01-.67-.89-1.76-1.31-2.9-1.43-.37-.56-.56-1.12-.79-1.62.78-.04,1.28.49,1.89,1.02.38.34,1.04-.14,1.37-.41l3,1.35-1.58-2.42c1.27-.72-.12,1.34,3.54,1.9l-1.44-1.94,2.82-1.16c1.81-.75,3.71-4.3,4.11-6.66.54-3.13,1.74-10.77,4.75-12.62l.64,1.11c.32-.16.21-.57.56-.84.31.34.18.83.56,1.14.9-.86.11-2.03.28-3.02.12-.74.64-1.46.17-2.5.68.12.47,1.12.92,1.37.93-.07.09-1.75.04-2.57-.02-.28.45-.36.59-.65.12-.25,0-.61.32-.64ZM159.21,176.7c0-.08-.07-.15-.15-.15s-.15.07-.15.15.07.15.15.15.15-.07.15-.15Z"/>
          <path class="cls-1" d="M123.24,166.65l-.03,3.56c-.01,1.24-.44,2.5-.52,3.83-.06.97.29,1.6.5,2.49l.88,3.8c.24,1.02,1.07.92,1.89.79.78-.13,1.66.35,2.51-.2l-.14,2.63c1.17-.95.19-1.96,2.03-2.24-.06.38.21,1.07.46.89,3.04-3.64,1.97-3.52,3.17-7.17l2.31-7.03c.16-.47.28-.89.64-1.12.29.06.23.72.07.99-.91,1.58-.92,3.26-1.48,4.9-1.57,4.61-3.03,9.31-2.93,14.23-.66.47-1.61.3-2.24-.12-1.31-.67-2.66-.29-3.58.83-3.26.12-6.36-.11-9.66-.77,1.65-3.69,2.62-7.34,3.47-11.19.23-1.04,1.06-1.92,1.42-2.9.39-.47,1.26-4.91.18-4.26-.4.24,0,1.74-.77,1.95-.21-1.53-.41-2.94-.37-4.37,1.17.01.11-1.23,1.14-4.21.09-.27.01-.68.22-.77.17-.07.79-.12.78.13-.03.79.2,1.51.12,2.22-.14,1.1-.06,2.11-.07,3.11Z"/>
          <path class="cls-1" d="M138.99,170.72c-.08,1.8-1.5,1.5-.8,3.52.05.13-.2.45-.1.6.1.14.27.18.45.17-.7,1.2-1,2.54-1.33,3.93-.18.78-.65,1.57-.62,2.29-.69,1.1-1.05,2.82-.77,4.22.08.38.72.65.76,1.25.11,1.57.56,3.02,1.21,4.45.37-.28.28-.65.55-.8.05.08.16.14.2.23.23.5.41,1.06.79,1.62,1.14.12,2.23.54,2.9,1.43.55.74,1.07-.21,3.51-.01,1.22.1,2.3.86,3.6.83,3.54-.08,6.83-1.14,9.83-2.95l1.95.31c-5.61,4.94-16.66,7.4-23.22,3.04-3.37-2.24-5.05-5.95-4.43-9.97l1.43-.19c.02-1.73.34-3.28,1.01-4.89.23-.56-.15-1.32-.08-1.9.18-1.55.95-2.79,1.36-4.24.32-1.14.68-2.43,1.79-2.95Z"/>
          <path class="cls-1" d="M101.37,172.44c-.02.14,0,.3-.02.44-.47.27-1,.27-1.32-.34-.12-.22-.81-.58-.93-.36-.6,2.64-1.16,1.96-1.47,5.02-.98-.04-1.46-.82-2.23-1.24-.57-.31-1.43-.38-1.92-.98-.31.23-.16.66-.25.83-.17.31-.62-.12-.96.04l2.2,2.5c-1.37-.66-2.71-1.52-3.9-2.54-.73-.63-2.48-3.34-3.04-2.01l-1.21-1.65c-.26-.35-.77-.41-.73-.84.06-.55.41-.79.98-.87,3.11-.41,5.74-1.85,8.49-3.19,1.38-.67,2.91-1.43,3.99-2.51.29-.29,1.29-.99,1.64-.49.94,1.33-.18,2.9-.89,4.14.26,2.64-.63,2.54,1.59,4.04Z"/>
          <path class="cls-1" d="M104.46,172.83c-.45,1.46-.85,2.99-1.52,4.48-1.2,2.68-1.69,4.64-2.94,7.4-1.32,2.93-4.58,10.34-1.01,12.27,1.12.61,2.29.7,3.42-.07.62-.42,1.35-.5,1.52-1.58.51.36.59.59.82.8-.43,1.58-1.19,3.05-1.84,4.72-.46-.12-.52-.41-.8-.66-1.22.48-4.39,3.39-4.94,1.69l.69-1.22c.3-.53-.2-.73-.64-.7-.5.03-.57.46-.79.76-.61.86-1.47,1.74-1.54,2.85-.96-.13-1.91-.49-2.6-1.19l.53-.35c.15-.1.36-.07.25-.26-.05-.1-.25-.27-.23-.4.06-.34.41-.56.42-.81s-.19-.54-.49-.59c-1.2-.18-1.8,1.52-2.88.85-.22-.14-.28-.52-.19-.83l4.43-1.32c1.05-2.34,1.74-4.68,2.45-7.15l4.16-14.31,3.14-4.05c.17-.22.34-.36.57-.34Z"/>
          <path class="cls-1" d="M162.35,204.78c-.26-.44.82-.55.85-.84.14-1.54.95-2.78,1.55-4.12,1.08-2.38.93-9.13-1.07-11.28.58-.21,1.03-.11,1.28-.55-2.2-1.92-.97-3.32-3.64-3.47-.97-.05-1.77-.17-2.62.3.64-1.22,3.67-2.81,5.26-1.83,2.67,1.64,1.96,5.27,4.14,6.85.32,3.47.2,7.11-1.24,10.35-.44,1-1.11,1.57-.61,2.85.23.59.18,1.72-.33,2.24-.91.93-2.23,1.41-3.48,1.27.5-.67,1.61-.69,1.24-1.6-.16-.39-1-.12-1.34-.16Z"/>
          <path class="cls-1" d="M139.29,170c-.56-.65.42-1.34.52-2.07.31-2.07,1.12-5.89,2.45-7.51.15-.19.07-.57-.04-.68-.79-.79-2.42,4.36-3.08,4.01-.47-.24,1.59-6.65,1.62-7.76-1.39.25-.98,2.93-1.85,2.77.24-2.46.94-2.83,2.29-4.9.09-.14.47.15.48.25.1.94-1.13,1.57.24,2.54.59-.61,1.73-2.74,2.8-1.92.47.35.78,1.06,1.1,1.53l-1.25,2.46c-.1.19-2.99,7.55-2.99,7.54-.43,1.48-1.01,2.87-2.28,3.73Z"/>
          <path class="cls-1" d="M92.82,202.03c-.51-.34-1.15-.1-1.83-.68-1.45,1.54-2.62,3.37-2.93,5.56-1.27-.1-2.34-.83-2.62-1.71-.89-2.78,2.21-4.59,4.26-5.2-.08.31-.03.69.19.83,1.08.67,1.68-1.03,2.88-.85.31.05.5.33.49.59s-.36.47-.42.81c-.02.13.18.3.23.4.11.19-.11.16-.25.26Z"/>
          <path class="cls-1" d="M92.29,202.37c.69.69,1.64,1.06,2.6,1.19-.1,1.42.54,2.77.82,4.31-2.22.09-4.16-.24-6.3-.56.33-1.96,1.27-3.88,2.89-4.94Z"/>
          <path class="cls-1" d="M161.53,193.74c.07-.52.82-.64,1.04-.97.55-.03,1.2-.03,1.6.4.89.93,1.02,4.99-1.67,5.31-.93.11-2.11-.91-2.52-1.63-.67-1.16,1.43-2.13,1.56-3.1Z"/>
          <path class="cls-1" d="M158.98,201.89c.12-.1.15.09.18.23-.19,1.33.09,2.42.29,3.79-1.43.3-3.07,1.06-4.39.79-.94-1.06-.31-2.9.5-3.88.57-.69,1.4-1.09,1.65-1.86.03-.48-.24-1.08.3-1.27,1.6,1.98-1.99,2.21-1.3,4.25.53.28,1.95-.01,2.41-.38.14-.56.13-1.22.36-1.67Z"/>
          <path class="cls-1" d="M153.64,203.84c-.38.83-.23,1.79-.07,2.8-1.62,0-5-1.13-4.13-3.5.45-1.22,1.27-2.3,2.3-2.93.83.93-1.57,1.81-.44,3.58.37-.06.6-.32.96-.46.5.23.9.57,1.39.5Z"/>
          <path class="cls-1" d="M159.89,194.7c.03,1.77-3.9,3.46-5.25,3.35.16-.5.22-1.5.76-1.8,1.64-.38,3.06-.94,4.49-1.55Z"/>
          <path class="cls-1" d="M160.15,202.15c-.46-.67-.06-1.68-.73-1.68-.3-.48.21-1.58.8-1.83,1.66-.71.28,3.99-.08,3.51Z"/>
          <path class="cls-1" d="M163.55,190.87c-.09-.8-.78.77-1.93.45.14-.36.24-.87.51-1.05.37-.25,1.78-.11,1.88.2.03.1.04.29-.09.41-.08.07-.22,0-.36,0Z"/>
          <path class="cls-1" d="M97.86,200.65l-1.43.06c.22-.3.28-.72.79-.76.44-.03.94.17.64.7Z"/>
          <path class="cls-1" d="M162.1,204.79c.16.22-.08.37-.22.41-.15.04-1.09.16-1.25-.1-.07-.12.01-.3-.02-.41l1.48.1Z"/>
          <path class="cls-1" d="M158.46,184.86c-.01.16-.04.32-.13.45-.15.21-.4.14-.6.2,0-.4.35-.65.73-.66Z"/>
          <path class="cls-1" d="M137.6,165.63c-.01.17.05.36-.03.6-.05.14-.24.21-.44.17.05-.17-.1-.39.03-.57.09-.12.25-.36.44-.21Z"/>
          <path class="cls-1" d="M120.98,165.5c-.2.16-.32-.11-.35-.23-.04-.14,0-.26-.01-.36.12-.12.25-.05.32.04.14.19.05.39.04.55Z"/>
          <path class="cls-1" d="M120.61,164.51c-.27,0-.19-.38-.23-.57.14-.16.35.02.43.19.05.11-.08.29-.2.38Z"/>
          <g>
            <path class="cls-1" d="M123.22,197.84l.37-.03c.1,0,.22-.44.04-.44-.44,0-1.17-.09-1.54.12-.07-1.83-3.9,1.05-5.56-.19.57-.62,1.12-.98,2.28-1.11-.84-.73-1.44.09-2.37-.16,1.26-.94,2.73-1.34,4.18-1.57.72.87,5.95,1.71,7.02.77-.05-.97-2.17-.5-2-1.11.05-.18,1.06-.52.89-.98-.1-.26-.36-.41-.68-.39l-1.91.1c-.73.04-1.55.01-2.35-.15-.73-.15-.82-.92-.98-1.4-.62-.27,5.44.45,4.99.45,4.66-.02,3.42,3.15,5.65,5.17-1.71.51-1.34,2.69-4.72,2.89-1.27.08-2.49-.33-3.75-.57-.04-.66.4-.93.46-1.41Z"/>
            <path class="cls-1" d="M123.22,197.84c-.05.48-.5.74-.46,1.41,1.27.24,2.48.64,3.75.57,3.38-.2,3.02-2.39,4.72-2.89-2.23-2.02-.99-5.19-5.65-5.17.45,0-5.61-.72-4.99-.45-.12-.35-.71-.53-.43-1.17,1.83.55,8-.31,9.36,1.61l2.38,3.36c.45.64.92.96,1.02,1.79.15,1.39-1.89,1.98-2.49,4.29-3.5.68-7.15,1.18-10.77,1.14.32-1.54,2.01-4.34,3.56-4.48Z"/>
            <path class="cls-1" d="M122.08,197.48c-1.72.96-2.58,2.6-2.93,4.67-1.14-.17-3.01-.17-3.62-1.19-.7-1.18.24-2.86.98-3.68,1.67,1.24,5.49-1.64,5.56.19Z"/>
            <path class="cls-1" d="M120.61,194.45c.44-.07,4.17-.41,4.29-.85.15-.54-1.06-.27-.97-.75l1.91-.1c.32-.02.59.13.68.39.17.46-.84.8-.89.98-.17.61,1.95.14,2,1.11-1.07.94-6.3.1-7.02-.77Z"/>
            <path class="cls-1" d="M116.03,196.36c-1.09,1.15-1.29,2.41-1.25,3.88-1-1.44-.23-3.22,1.25-3.88Z"/>
            <path class="cls-1" d="M116.03,196.36c.16-.05.21-.04.19-.03s-.1.04-.19.03Z"/>
          </g>
          <path class="cls-1" d="M161.08,162.6v.45c-.31.03-.19.4-.31.64-.14.29-.61.37-.59.65.05.82.89,2.5-.04,2.57-.45-.26-.25-1.26-.92-1.37.47,1.05-.04,1.77-.17,2.5-.16.99.62,2.16-.28,3.02-.38-.32-.24-.8-.56-1.14-.35.26-.24.67-.56.84l-.64-1.11c-3.01,1.85-4.21,9.5-4.75,12.62-.41,2.36-2.3,5.91-4.11,6.66l-2.82,1.16,1.44,1.94c-3.66-.56-2.27-2.62-3.54-1.9l1.58,2.42-3-1.35c-.32.27-.98.75-1.37.41-.6-.53-1.11-1.05-1.89-1.02-.04-.09-.15-.15-.2-.23.07-.88-.35-1.56-.9-2.27-.49-.62.27-1.76-.13-2.44-.95-1.61-.06-1.82.04-4.38-.22.02-.51.48-.56.4-.07-.1-.16-.38-.21-.44-.03-.72.44-1.51.62-2.29.33-1.39.63-2.73,1.33-3.93.65-1.1.93.14.88-3.75l2.98-4.34c1.26-1.84,1.84-4.54,4.9-6.91.86-.66,1.9-1.09,2.81-1.68,1.08-.71,2.25-.82,3.36-1.27.85-.35,1.56-.96,2.48,0,.14.14.56-.45.74-.43.46.14.63.88,1.06,1.11,2.76,1.49,1.49,1.88,3.32,4.87ZM140.79,179.33c.47,2.41.85,5.43,4,5.6,1.77.09,3.38-.51,3.81-2.35l1.4-5.97c1.16-4.91,6.44-10.96,3.65-13.97-1.95-2.11-6.33.29-7.75,2.28-1.19,1.68-2.27,3.47-3.3,5.31-.25.46,0,1.15-.22,1.64-.45,1-1.36,1.86-1.57,2.9-.13.63.24,1.47-.2,2.05-.7.93-.02,1.57.16,2.51Z"/>
          <path class="cls-1" d="M114.04,167.07c-.64-.67-.73-1.79-1.54-2.41-.54-.41-4.17-.29-5.25,3.09-.98,3.05-2.33,5.88-3.43,8.9l-2.91,8.01c-.95,2.61-2.38,5.16-2.05,8.11.16,1.46,2.51,2.51,3.74,2,1.74-.72,2.02-2.29,3.25-2.05-.21.79-.4,1.59-.53,2.39-.06.35-.47.67-.57,1.01-.23-.2-.31-.44-.82-.8-.17,1.08-.9,1.16-1.52,1.58-1.13.77-2.3.67-3.42.07-3.57-1.93-.31-9.34,1.01-12.27,1.24-2.75,1.73-4.71,2.94-7.4.67-1.49,1.07-3.02,1.52-4.48.15-.49.46-.95.74-1.37.47-.71,1.27-1.63.78-2.47-.02-.1,0-.29,0-.39,1.32-.7-.03-3.19,3.32-5.1.42-.24,1-1.22,1.57-1.04.31.1,1.22.63,1.22.2,0-1.23-1.09-1.77-1.76-2.76.79-.66,1.83.05,2.18.89l1.18,2.84c.42,1.01.2,2.18,1.25,3.04l-.92.41Z"/>
          <path class="cls-1" d="M105.2,171.46c-.13.1-.23-.11-.2-.25.47-.75.48-1.61.98-2.22.49.84-.32,1.76-.78,2.47Z"/>
          <rect class="cls-1" x="160.14" y="174.54" width=".48" height="1.68"/>
          <path class="cls-1" d="M161.68,171.18c-.16-.43-.17-.88,0-1.45.25.35.22.75,0,1.45Z"/>
          <circle class="cls-1" cx="163.5" cy="159.68" r=".27"/>
          <circle class="cls-1" cx="163.02" cy="158.72" r=".27"/>
          <path class="cls-1" d="M123.21,170.21l.03-3.56c.76.38.65-2.42.7-2.65.53-2.34.31-4.42-1.37-6.07-.63-.62-1.07-.93-2.04-.74-.78.16-1.75-.65-2.57-.38-1.06.35-3.93-.17-5.05-.42-.31-.07-.69.7-.98.3-1.33-1.82.41-.82-1.45-3,.08.1-1.35-4.67-.38-6.2,1.22-1.94,3.54-3.33,5.38-4.52,1.07,1.15,4.12-.59,4.64-1.12,1.01-1.05,1.97-.4,3.09-.4,1.59,0,2.98-1.4,4.54-1.62,3.35-.48,5.98-2.24,8.83-1.8l-3.15,1.01c-.72.23-1.54.3-2.11.83.93.53,1.86-.46,2.67-.24s3.22,1.13,4.61.69c.69-.21,1.74-.31,2.44-.21.23.03.09.78.23.91s.53.25.82.16c.74-.23,1.06.2,1.6.41l5.5,2.11c.45.17.62.76,1.25.76.43,0,.91.4,1.05.8.58,1.7,1.36.88,2.14,2.56.17.38-.34.57-.37.96-.49,6.09.78,2.98,1.85,5.7-.88-.27-1.69-.03-2.48.09l-2.38.34c-.7.1-2.01-.17-2.59-.47-1.43-1.1-3.1-.8-4.58-1.48l-1.09-.5s-2.43,1.43-2.74,1.83c-.73-.27-.87-.86-1.83-1.06.13.86-1.04,1.55-1.15,2.26-.4,2.62.02,5.29-.22,7.96-.27,2.99-1.54,9.8-3.77,11.79l-2.91,2.61c-.31.28-1.02.58-1.36.68-.89.26-.96-1.17-1.39-1.42-1.4-.82-2.17-1.78-2.18-3.47,0-.99-1.06-1.98-.82-3.15.04-.2-.43-.32-.47-.27ZM133.94,156.22l-.03-2.83c0-.61-.29-1.15.16-1.66,1.62-1.86,1.99-.17,1.88-2.15-.03-.48.4-.7.69-.85.02,0,3.07.35,3.32.28.98-.25,1.41.13,2.24.3,1.19.24,2.34.16,3.57.57.43.14,1.08-.87,1.22-1.07-.48-.45-.89-.39-1.23-.64,0-1.05-.66-1.18-1.39-1.58l-2.44-1.34c-.51-.28-1.27-.52-1.8-.56-1.73-.12-3.24-.64-4.98-1-3.02-.62-4.96.03-7.38-.66l-6.5,1.09c-1.98.33-3.95.89-5.53,2.02-1.99,1.42-1.56,3.81-1.12,5.98.88,4.38,7.2,1.92,9.2,2.43l1.55.4c.56.14,1.46,1.22,1.36,1.81l-1.23,7.66c-.19,1.17-.51,2.12-.41,3.42.13,1.71.13,3.88,1.7,5.04,2.03,1.49,5.26.48,6.39-1.72.98-1.9,1.06-3.93,1.13-5.96l.05-1.49c.09-2.49.25-4.92-.44-7.51Z"/>
          <path class="cls-1" d="M114.04,167.07c-.03.24.12.52.06.76-.29,1.2-.38,2.43-.9,3.67-.21.49.13,1.01.19,1.41s-.04.79-.01,1.17c-.4-.04-.7.22-.82.54-.32.83.27,1.65-.09,1.8l-.53.22c-.47.19.05.88-.01,1.25l-.44,2.6c-.69.07-1.29.81-1.39,1.58-.39,3.08-1.22,1.86-.98,4.18.03.27-.27.52-.3.75-1.56.39-1.71,1.82-1.92,3.19-.64.66-.81,1.65-1.05,2.54-1.23-.24-1.51,1.33-3.25,2.05-1.23.51-3.57-.55-3.74-2-.33-2.95,1.1-5.5,2.05-8.11l2.91-8.01c1.1-3.02,2.45-5.85,3.43-8.9,1.08-3.37,4.71-3.5,5.25-3.09.81.62.9,1.73,1.54,2.41Z"/>
          <path class="cls-1" d="M114.84,169.24c.09.7-.13,1.51,0,2.21-.17.03-.43-.04-.56.05-.59.4.46,1.63-.17,1.77-.2-.03-.47-.44-.72-.36-.05-.4-.4-.91-.19-1.41.52-1.24.61-2.48.9-3.67l.73,1.41Z"/>
          <path class="cls-1" d="M114.84,171.45c.29,1.51,1.13,3.31.44,4.73l-.67,1.38c-.52-.52-.11-1.01-.28-1.6-.11-.39-.6-.26-.86-.2-.01-.56-.05-1.12-.09-1.67-.03-.39.06-.78.01-1.17.25-.08.52.34.72.36.63-.14-.42-1.38.17-1.77.14-.09.4-.02.56-.05Z"/>
          <path class="cls-1" d="M111.48,180.49c-.07.4.07.89-.01,1.28l-.66,2.95c-.17.77-.4,1.32-.46,2.23l-.55-2.15c-.26.53-.16,1.2-.68,1.46-.24-2.32.59-1.1.98-4.18.1-.77.7-1.51,1.39-1.58Z"/>
          <path class="cls-1" d="M111.47,181.77c.09-.38-.05-.88.01-1.28l.44-2.6c.45-.08.55.38.77.79.31-.58.02-1.11-.04-1.78.25-.25.59-.23.83-.38.67.52.08,1.31-.15,2-.53,1.65-.18,3.35-.8,4.92l-.08-3.15c-.7.02-.17,1.6-.98,1.46Z"/>
          <path class="cls-1" d="M107.65,190.84c.38,3.17-1.17,1.39-1.35,3.31-.05.53-.49.99-.97.96.13-.8.32-1.6.53-2.39.24-.89.41-1.88,1.05-2.54.33.12.53.4.75.66Z"/>
          <path class="cls-1" d="M108.82,186.99c-.08,1.34-.57,2.65-1.17,3.85-.22-.25-.43-.54-.75-.66.21-1.37.37-2.8,1.92-3.19Z"/>
          <path class="cls-1" d="M113.38,174.08c.04.56.08,1.11.09,1.67v.77c-.22.14-.57.13-.81.38.06.67.35,1.2.04,1.78-.22-.42-.33-.88-.77-.79.06-.36-.46-1.05.01-1.25l.53-.22c.36-.15-.23-.97.09-1.8.12-.31.42-.57.82-.54Z"/>
          <circle class="cls-1" cx="159.06" cy="176.7" r=".15"/>
          <path class="cls-1" d="M136.6,181.23c.06.06.14.34.21.44.05.08.34-.38.56-.4-.11,2.56-.99,2.77-.04,4.38.4.68-.35,1.82.13,2.44.55.7.97,1.39.9,2.27-.27.14-.18.51-.55.8-.65-1.44-1.1-2.89-1.21-4.45-.04-.6-.69-.87-.76-1.25-.28-1.39.08-3.12.77-4.22Z"/>
          <path class="cls-1" d="M140.79,179.33c-.18-.94-.86-1.57-.16-2.51.44-.59.07-1.43.2-2.05.21-1.04,1.12-1.89,1.57-2.9.22-.49-.03-1.18.22-1.64,1.03-1.84,2.1-3.63,3.3-5.31,1.42-2,5.79-4.39,7.75-2.28,2.79,3.01-2.5,9.06-3.65,13.97l-1.4,5.97c-.43,1.84-2.04,2.44-3.81,2.35-3.15-.16-3.54-3.18-4-5.6Z"/>
          <path class="cls-1" d="M133.94,156.22c.69,2.59.53,5.02.44,7.51l-.05,1.49c-.07,2.03-.15,4.06-1.13,5.96-1.13,2.2-4.36,3.21-6.39,1.72-1.58-1.16-1.58-3.33-1.7-5.04-.1-1.3.22-2.24.41-3.42l1.23-7.66c.09-.59-.81-1.67-1.36-1.81l-1.55-.4c-2-.52-8.32,1.94-9.2-2.43-.44-2.16-.87-4.56,1.12-5.98,1.58-1.12,3.55-1.68,5.53-2.02l6.5-1.09c2.42.69,4.35.04,7.38.66,1.74.36,3.25.88,4.98,1,.53.04,1.29.28,1.8.56l2.44,1.34c.73.4,1.39.53,1.39,1.58.35.25.75.19,1.23.64-.15.2-.8,1.21-1.22,1.07-1.22-.41-2.37-.33-3.57-.57-.84-.17-1.27-.54-2.24-.3-.25.06-3.3-.29-3.32-.28-.29.15-.72.36-.69.85.1,1.98-.26.28-1.88,2.15-.45.52-.16,1.05-.16,1.66l.03,2.83Z"/>
        </g>
      </g>
      <g>
        <path class="cls-1" d="M79.86,28.03c-.02.37-.27.65-.66.83-2.56,1.2-4.63,2.92-6.82,4.67l-7.88,6.28-6.81,5.15-1.85,1.52c-.73.6-1.28,1.25-2.03,1.82-.65.5-2.61,3.24-3.07,4.11-.86,1.62-1.56,3.5-1.71,5.38-.13,1.78-.42,3.7.05,5.41l.72,2.6c.62,2.24,1.1,4.42,1.24,6.75-.62,1.31-.93,3.83-1.88,5.12-.52.71-2.83,3.05-2.01,4.53.14.25.6.24.87.48,1.13.97,2.32,1.65,3.58,2.37.45.26.77.7,1.29.92,3.34,1.42,6.22,3.48,8.81,5.96.75.72,1.77,1.21,1.92,2.21-.8.38-1.74.61-2.62.46.94.15-4.55-3.9-4.19-3.69-2.35-1.41-3.9-1.8-6.46-2.45-.23-.81-.24-1.96-.65-2.78-.23-.15-1.01.26-.79.62-.15.27-.45.37-.72.48.05-.19-.21-.25-.38-.18-2.19.86-3.31.04-3.69.66-.47-.15-.95-.36-1.44-.48.05-.32-.21-.55-.55-.69-1.74-.73-2.9-2.13-4.21-3.4s-2.72-4.44-2.81-6.53c-.13-3.09,1.1-5.89,3.16-8.27-2.4-.64-3.71-2.37-3.92-4.63-.18-1.92.52-3.63,1.16-5.27.45.11.67-.68,1.07-.81,1.11.11,2.44,1.14,3.62.68,2.77-1.74,3.41-1.76,5.19-5.03.32-.58.88-.91,1.29-1.39,1.06-1.27,2.13-2.45,3.45-3.46.35-.27.69-.5.68-.91.83.07,1.31-.58,1.69-1.34,1.47-.38,3.45-2.51,5.14-3.46.7-.39,1.58-.65,1.59-1.48.44-.12.77-.39,1-.74,2.25-1.26,4.26-2.95,6.33-4.7l2.6-2.18c2.07-1.74,4.05-3.53,6.48-4.79.46-.24.96-.43.9-.96,1.17.11,2.19.19,3.35.59Z"/>
        <path class="cls-1" d="M77.91,98.78h-4.09c-.25,0-.48.05-.47.24-3.3-.4-5.73-2.71-5.71-6.32-2.72,2.59-7.12,2.54-10.65,2.49.37.17.49.51.69.66h-.61s-.26,0-.26,0l-.25-.36c.14-.07.34-.57.08-.58.23-.04.44-.34.86-.3,1.22.12,2.37.16,3.47,0,.88.15,1.81-.08,2.62-.46,1.69-.2,3.36-1.12,4.26-2.57.81-.02.12.97.5,1.68-.22,2.8,2.15,4.88,4.96,5.13,1.76.16,7.97.12,8.69-1.58.13-.06.28-.07.42-.03.2.85.98,1.25,1.52,1.82,4.37,4.62,13.41,2.76,18.47-.44,1.48-.94,2.44-2.32,2.69-3.86.1-.64-.06-1.18.21-2.13.39.49.86.89,1.09,1.31,1.55,2.96,4.64,5.21,8.17,5.24,2.74.03,5.16-1.17,7.34-2.65,3.99-2.7,5.38-7.38,3.67-12.11,3.25,1.65,6.43,2.31,8.77-.44,2.87-3.37,4.89-9.38.89-13.03,4.21-5.45,7.58-10.96,4.44-17.66-.52-1.1-1.14-1.97-2.61-2.34,2.2-2.88,3.27-5.98,2.96-9.27-.37-3.86-2.74-7.46-6.73-8.57-1.91-.53-3.93-.37-5.75.03l-1.97.44-.99-2.68c-2.57-6.95-8.55-10.55-15.91-10.84-3.84-.15-7.38.26-10.61,2.03-1.36.74-2.78,1.21-3.85,2.43-.68.78-1.66,1.06-2.15,2.06-.29.6-1.4,1.16-1.52,1.94-.79.86-1.65,1.88-2.01,3.09-.09.3-.45.94-.8.99-.48.07-.75-.49-1.13-.47-.27-.96-1.62-.97-2.16-1.5-.7-.69-1.54-.9-2.43-1.3-.72-.32-1.43-.54-2.17-.8-1.15-.41-2.18-.49-3.35-.59-7.56-.69-17.34,3.73-16.3,12.63-.23.35-.56.61-1,.74-2.25.62-5.59,2.7-6.73,4.95-.38.76-.86,1.41-1.69,1.34-3.83-.34-7.59,1.08-10.54,3.71-2.23,1.99-3.7,4.54-4.75,7.21-.64,1.64-1.34,3.35-1.16,5.27.21,2.25,1.52,3.99,3.92,4.63-2.06,2.39-3.29,5.18-3.16,8.27.09,2.09,1.5,5.26,2.81,6.53s2.47,2.67,4.21,3.4c.34.14.6.37.55.69-1.37-.34-2.44-1.21-3.55-2.24-5.14-4.79-6.21-10.7-1.72-16.39-2.43-1.03-3.95-3.39-3.58-6.11,1.17-8.51,8.3-16.48,17.52-15.59,1.49-3.46,5.01-5.31,8.13-6.59-.33-4.11,1.57-7.76,4.95-9.97,7.49-4.89,16.01-4.37,23.09,1.14,3.56-6.81,9.22-11.3,16.98-12.16,9.97-1.09,18.89,3.08,21.59,13.24,3-.92,6.26-1.17,9.11.28,3.98,2.03,6.12,6.34,5.75,10.74-.21,2.55-1.14,4.77-2.43,6.82.44.55.97.78,1.29,1.3,4.08,6.63,1.11,13.45-3.46,19.12,1.45,1.8,2.26,4.12,1.84,6.47-.71,4.05-3.16,9.16-7.78,9.4-1.28.07-2.4-.53-3.67-.9.87,3.34,0,6.65-2.18,9.25-1.3,1.55-2.93,2.57-4.71,3.48-5.62,2.86-10.52.93-14.05-3.93-.42,4.03-5.45,6.15-8.75,6.98-5.27,1.33-11.16,1.43-14.81-3.56-1.33.93-2.88.96-4.34,1.19Z"/>
        <path class="cls-1" d="M60.99,94.61c-1.1.17-2.25.13-3.47,0-.43-.04-.64.26-.86.3-.6.11-1.22-.21-1.76-.45-.07-1.09-1.24-.35-2.99-3.03-.63-.96-1.26-1.91-1.57-2.97,2.56.65,4.11,1.04,6.46,2.45-.36-.21,5.13,3.84,4.19,3.69Z"/>
        <path class="cls-1" d="M50.34,88.47c.3,1.05.94,2.01,1.57,2.97,1.75,2.68,2.92,1.94,2.99,3.03-1.22-.56-2.2-1.54-3.15-2.63-1.38-1.58-1.96-3.65-2.44-5.73l-.4.22c-.23-.37.55-.77.79-.62.41.82.42,1.97.65,2.78Z"/>
        <path class="cls-1" d="M82.02,28.83c-.05.2-.24.5-.52.63-3.89,1.76-6.82,4.48-10.05,6.98l-3.52,2.73-5.97,4.58c-4.56,3.5-6.58,4.86-9.15,10.04-.21.43-1.25,4.4-.61,4.29-.61.86-2.08,1.15-1.43,3.47,1.38,4.96,5.59,11.28,8.69,15.22-1.71-.33.25,5.27.46,5.69.77,1.45,1.51,2.95,2.59,4.15l1.49,1.65c.69.77,3.06,3.35,3.87,3.33-.9,1.45-2.57,2.37-4.26,2.57-.15-1.01-1.17-1.49-1.92-2.21-2.58-2.48-5.47-4.54-8.81-5.96-.52-.22-.84-.66-1.29-.92-1.26-.73-2.45-1.4-3.58-2.37-.28-.24-.73-.24-.87-.48-.82-1.48,1.48-3.82,2.01-4.53.95-1.29,1.26-3.8,1.88-5.12-.14-2.33-.61-4.51-1.24-6.75l-.72-2.6c-.47-1.71-.19-3.63-.05-5.41.14-1.88.84-3.76,1.71-5.38.46-.86,2.42-3.61,3.07-4.11.76-.58,1.31-1.23,2.03-1.82l1.85-1.52,6.81-5.15,7.88-6.28c2.19-1.75,4.26-3.48,6.82-4.67.39-.18.64-.47.66-.83.74.26,1.44.47,2.17.8Z"/>
        <path class="cls-1" d="M76.51,27.44c.06.53-.44.72-.9.96-2.43,1.26-4.41,3.05-6.48,4.79l-2.6,2.18c-2.07,1.74-4.09,3.43-6.33,4.7-1.03-8.9,8.74-13.32,16.3-12.63Z"/>
        <path class="cls-1" d="M50.78,47.08c.01.41-.32.64-.68.91-1.33,1.01-2.4,2.19-3.45,3.46-.4.48-.97.81-1.29,1.39-1.77,3.26-2.41,3.29-5.19,5.03-1.17.46-2.51-.56-3.62-.68-.4.13-.62.92-1.07.81,1.05-2.67,2.51-5.22,4.75-7.21,2.96-2.63,6.71-4.05,10.54-3.71Z"/>
        <path class="cls-1" d="M59.2,40.8c-.01.83-.89,1.09-1.59,1.48-1.69.95-3.66,3.08-5.14,3.46,1.14-2.25,4.47-4.32,6.73-4.95Z"/>
        <path class="cls-1" d="M98.07,21.6c.1.26.5.57.91.51,1.93-.26,7.14.35,9.01.79,3.66.87,7.24,1.75,10.5,3.64,1.75,1.02,3.43,1.86,4.89,3.26.36.35.79.55,1.21.6l.99,2.68,1.97-.44c1.64,1.73,3.63,3.14,5.55,4.72,1.41,1.16,2.71,2.12,4.47,2.71.86.29,1.55,1.17,2.47,1.11.32,3.29-.76,6.39-2.96,9.27,1.47.38,2.1,1.24,2.61,2.34,3.14,6.7-.22,12.21-4.44,17.66,3.99,3.65,1.98,9.66-.89,13.03-2.34,2.75-5.52,2.08-8.77.44,1.71,4.73.32,9.41-3.67,12.11-2.18,1.48-4.6,2.68-7.34,2.65-3.53-.03-6.62-2.29-8.17-5.24,2.88-2.17,3.08-3.04,6.42-5.55l5.73-4.32,4.13-3.36c1.51-1.23,3.07-2.19,4.44-3.65,1.17-1.25,2.47-2.36,3.55-3.65.61-1.33,1.55-2.32,2.23-3.57.21-.38.06-.95.3-1.29,1.1-1.56,1.47-3.33,1.98-5.08.81-2.77.37-11.63-1.13-14.63-.28-.56-.58-1.26-.79-1.86-.92-2.62-2.43-4.77-4.14-6.9-.59-.73-1.06-1.43-1.7-2.09l-3.17-3.32c-2.51-2.62-7.43-5.94-10.91-7.31-5.35-2.11-11.16-2.81-16.92-2.62-.83.03-1.81.63-2.22-.25,1.07-1.22,2.49-1.69,3.85-2.43Z"/>
        <path class="cls-1" d="M82.44,96.77c-.14-.03-.29-.02-.42.03-.03-.2-.2-.41-.5-.41h-5.3c-3.26-.02-5.51-2.27-7.85-3.13-.38-.71.31-1.7-.5-1.68s-3.17-2.56-3.87-3.33l-1.49-1.65c-1.08-1.2-1.82-2.7-2.59-4.15-.22-.41-2.17-6.02-.46-5.69,1.78,2.27,3.86,4.32,6.14,6.25.38.32,1.02.36,1.15.85-.18.58.05,1.3.59,1.77s.8,1.1,1.29,1.62c2.12,2.21,4.71,4.07,7.67,4.94,1.49.44,2.96.62,4.5.81,5.76.74,10.78.29,15.58-3.06l3.96-2.76,4.89-3.54c.21-.15,3.34-1.94,2.16-2.14,3.08-.71,9.74-3.13,11.89-6.07,1.17-1.59,2.18-3.36,2.82-5.15.59-.26,1.24-.74,1.69-1.34,2.42-3.26,4.14-7.04,4.49-11.15.4-4.64-.44-10.25-2.77-14.3s-5.16-7.28-8.55-10.11c-1.83-1.53-5.28-3.41-7.61-4.17-6.44-2.07-12.33-1.75-18.79-1.19.12-.78,1.23-1.34,1.52-1.94l6.3-.28c4.53-.2,12.71,1.41,16.91,3.97,2.03,1.24,4.31,2.82,5.95,4.57l1.41,1.5c5.08,5.41,7.69,10,8.68,17.62.14,1.08.04,2.24.05,3.34.06,6.15-2.58,11.66-6.58,16.17-.61.68-.83,1.4-1.68,2.01-.49.34-.98.96-1.48,1.36l-3.72,2.99c-.77.62-1.41,1.25-2.21,1.85l-3.17,2.36-5.69,4.38-4.79,3.83c-.7.56-1.39.94-2.05,1.55-2.3,2.11-6.49,3-9.64,3.14l-1.86.08c-1.49.07-6.17-.51-6.07.25Z"/>
        <path class="cls-1" d="M106.41,93.47c-.22-.43-.7-.83-1.09-1.31-.27.94-.11,1.49-.21,2.13-.44-.02-.96.29-1.23.71-.69,1.05-1.64,1.38-2.64,1.96-2.16,1.25-4.47,2.05-7.04,1.47-.95.61-1.92.23-2.89.19l-5.63-.19c-.6-.02-1.19.28-1.72.17-.54-.57-1.32-.97-1.52-1.82-.1-.76,4.57-.18,6.07-.25l1.86-.08c3.15-.14,7.35-1.03,9.64-3.14.66-.61,1.35-.99,2.05-1.55l4.79-3.83,5.69-4.38,3.17-2.36c.8-.6,1.45-1.23,2.21-1.85l3.72-2.99c.5-.4.99-1.01,1.48-1.36.85-.6,1.07-1.32,1.68-2.01,4-4.5,6.64-10.01,6.58-16.17-.01-1.11.09-2.26-.05-3.34-.99-7.63-3.6-12.22-8.68-17.62l-1.41-1.5c-1.65-1.75-3.93-3.33-5.95-4.57-4.2-2.57-12.37-4.17-16.91-3.97l-6.3.28c.48-1,1.46-1.29,2.15-2.06.41.88,1.4.28,2.22.25,5.75-.19,11.57.52,16.92,2.62,3.48,1.37,8.41,4.68,10.91,7.31l3.17,3.32c.64.67,1.12,1.37,1.7,2.09,1.72,2.13,3.22,4.28,4.14,6.9.21.6.51,1.3.79,1.86,1.5,2.99,1.95,11.86,1.13,14.63-.51,1.75-.88,3.52-1.98,5.08-.24.34-.1.91-.3,1.29-.68,1.25-1.63,2.24-2.23,3.57-1.08,1.29-2.38,2.4-3.55,3.65-1.37,1.46-2.93,2.42-4.44,3.65l-4.13,3.36-5.73,4.32c-3.34,2.52-3.55,3.38-6.42,5.55Z"/>
        <path class="cls-1" d="M123.2,47.46c-1.38-.66-2.91-1.16-4.54-1.35-1.08-.12-2.15-.51-3.11-.52-.72-2.11-2.34-3.64-4-5.14-1.09-.99-1.05-1.36-3.23-2.79-1.16-.76-2.15-1.6-3.45-2.1-2.28-.88-4.36-1.25-6.85-1.02.02,0-3.51-.37-5.6.59-1.33.62-2.86.83-4.04,1.72l-1.91,1.45-6.14,4.82c-1.58,1.24-3.24,2.2-4.83,3.37l-5.63,4.15c-.49.36-.92.88-.81,1.38l-9.39,2.69c-.43-1,.47-2.14,1.14-3.01l1.57-2.04c.76-.98,1.95-1.52,2.87-2.38,1.86-1.75,3.95-3.07,5.96-4.57l3.99-2.99c3.21-2.4,6.72-5.52,10.34-7.16.47-.21.94-.52,1.08-.93.38-.02.65.54,1.13.47.35-.05.7-.69.8-.99,2.28-.23,4.22-1.63,6.89-1.02,2.38-.75,7.04-.43,9.48.44,1.71.61,3.59.78,5.14,1.84,4.21,1.21,13.02,10.8,13.15,15.09Z"/>
        <path class="cls-1" d="M122.1,70.28c1.97-5.53,3.13-11.54,2.54-17.36.01.12.17-4.7-1.43-5.47-.12-4.29-8.94-13.88-13.15-15.09-1.55-1.06-3.43-1.23-5.14-1.84-2.44-.87-7.1-1.19-9.48-.44-2.67-.61-4.61.79-6.89,1.02.36-1.21,1.22-2.22,2.01-3.09,6.47-.56,12.36-.88,18.79,1.19,2.33.75,5.78,2.64,7.61,4.17,3.4,2.84,6.34,6.26,8.55,10.11,2.33,4.05,3.17,9.66,2.77,14.3-.35,4.1-2.07,7.89-4.49,11.15-.45.6-1.1,1.08-1.69,1.34Z"/>
        <path class="cls-1" d="M84.45,30.12c-.42.87-1.37,1.11-2.24,1.56-1.31.68-2.58,1.49-3.75,2.4l-4.61,3.59-5.2,3.91c-.65.49-1.36,1.02-2,1.55-1.61,1.34-3.64,2.54-5.09,4.06-1.45.7-4.75,4.98-5.05,6.23l-.64,2.68c-1.16.16-2.39,1.87-3.68,1.95-.64.12.4-3.86.61-4.29,2.56-5.18,4.59-6.54,9.15-10.04l5.97-4.58,3.52-2.73c3.23-2.5,6.15-5.22,10.05-6.98.28-.13.47-.43.52-.63.89.4,1.74.61,2.43,1.3Z"/>
        <path class="cls-1" d="M86.62,31.63c-.14.41-.61.71-1.08.93-3.62,1.64-7.13,4.76-10.34,7.16l-3.99,2.99c-2.01,1.51-4.09,2.82-5.96,4.57-.92.86-2.11,1.4-2.87,2.38l-1.57,2.04c-.67.87-1.57,2.01-1.14,3.01-1.24.35-2.43,1.22-3.79,1.41l.64-2.68c.3-1.25,3.6-5.53,5.05-6.23,1.45-1.52,3.48-2.72,5.09-4.06.63-.53,1.35-1.06,2-1.55l5.2-3.91,4.61-3.59c1.17-.92,2.44-1.72,3.75-2.4.87-.45,1.82-.69,2.24-1.56.54.54,1.89.54,2.16,1.5Z"/>
        <path class="cls-1" d="M124.59,30.41c-.42-.04-.85-.25-1.21-.6-1.46-1.4-3.15-2.25-4.89-3.26-3.25-1.89-6.84-2.78-10.5-3.64-1.87-.44-7.08-1.05-9.01-.79-.42.06-.81-.25-.91-.51,3.23-1.76,6.77-2.18,10.61-2.03,7.36.29,13.34,3.89,15.91,10.84Z"/>
        <path class="cls-1" d="M140.04,41.2c-.92.07-1.61-.81-2.47-1.11-1.76-.6-3.06-1.56-4.47-2.71-1.92-1.58-3.91-2.99-5.55-4.72,1.81-.4,3.84-.55,5.75-.03,3.99,1.1,6.36,4.71,6.73,8.57Z"/>
        <path class="cls-1" d="M105.12,94.29c-.25,1.54-1.2,2.92-2.69,3.86-5.06,3.21-14.1,5.07-18.47.44.53.11,1.12-.2,1.72-.17l5.63.19c.97.03,1.94.42,2.89-.19,2.57.58,4.87-.22,7.04-1.47,1.01-.58,1.96-.9,2.64-1.96.27-.42.79-.73,1.23-.71Z"/>
        <path class="cls-1" d="M82.02,96.81c-.73,1.7-6.93,1.74-8.69,1.58-2.8-.25-5.17-2.33-4.96-5.13,2.34.86,4.59,3.12,7.85,3.12h5.3c.3.01.47.22.5.42Z"/>
        <path class="cls-1" d="M66.74,83.86c2.05.64,4.21,1.09,6.36,1.11-.1.61.65.9.92,1.36.9,1.51,2.29,2.09,3.81,2.67,2.33.9,4.52,1.27,7.03,1.18,1.76-.07,3.31-.04,4.93-.9.67-.35,1.54-.38,2.25-.82,1.04-.65,7.81-4.45,7.21-5.26,2.71-.42,5.46-1.08,8.14-1.69,1.18.2-1.95,1.98-2.16,2.14l-4.89,3.54-3.96,2.76c-4.8,3.35-9.82,3.8-15.58,3.06-1.54-.2-3.02-.37-4.5-.81-2.96-.88-5.55-2.74-7.67-4.94-.49-.51-.74-1.14-1.29-1.62s-.77-1.19-.59-1.77Z"/>
        <path class="cls-1" d="M115.55,45.59l-3.84-.03c.14-.69-.33-1.12-.75-1.66-1.17-1.53-2.52-2.76-4.22-3.68-.26-.14-.32-.68-.7-.74-1.26-.19-1.68-1.52-3.72-1.78-.98-.12-1.79-.41-2.71-.66-1.68-.47-3.37.21-4.98.47-1.86.3-3.34.86-4.87,1.92-.54.37-1.04.61-1.55,1.11-2.03,1.99-4.42,3.2-5.84,4.49s-3.17,2.36-4.79,3.54c-.63.46-1.19.86-1.31,1.58l-7.22,1.88c-.11-.5.32-1.02.81-1.38l5.63-4.15c1.59-1.17,3.25-2.13,4.83-3.37l6.14-4.82,1.91-1.45c1.18-.89,2.71-1.1,4.04-1.72,2.09-.97,5.62-.6,5.6-.59,2.49-.23,4.57.14,6.85,1.02,1.3.5,2.28,1.34,3.45,2.1,2.19,1.42,2.14,1.8,3.23,2.79,1.66,1.5,3.29,3.03,4,5.14Z"/>
        <path class="cls-1" d="M111.71,45.55c-1.94-.02-3.93-.05-5.97.08l-2.91.19c-2.81.19-5.48.57-8.14.92-3.03.43-6.12.97-9.24,1.59l-9.17,1.82c.12-.72.69-1.13,1.31-1.58,1.62-1.18,3.33-2.21,4.79-3.54s3.81-2.5,5.84-4.49c.51-.5,1.01-.74,1.55-1.11,1.53-1.06,3.01-1.62,4.87-1.92,1.61-.26,3.31-.94,4.98-.47.92.26,1.73.54,2.71.66,2.04.26,2.46,1.59,3.72,1.78.38.06.44.6.7.74,1.69.92,3.04,2.14,4.22,3.68.41.54.88.97.75,1.66Z"/>
        <path class="cls-1" d="M99.25,83.2c.61.81-6.16,4.61-7.21,5.26-.71.44-1.58.47-2.25.82-1.62.86-3.16.83-4.93.9-2.51.09-4.7-.28-7.03-1.18-1.52-.59-2.91-1.16-3.81-2.67-.27-.46-1.02-.75-.92-1.36,8.77.1,17.47-.43,26.14-1.77Z"/>
        <g>
          <path class="cls-1" d="M123.73,53.02c-.11.16-.32.44-.5.52-2.62,1.23-5.19,2.72-7.96,3.57-6.45,2-13.07,2.93-19.66,4.08-.25.04-.52-.05-.7-.22.58-.62,5.3-.85,6.47-1.51,2.62-.31,5.22-.97,7.75-1.69.47-.13,1.15-.39,1.59-.45,1.33-.19,2.66-.41,3.87-1.02.42-.21,1.28-.16,1.7-.48.2-.15.7-.19.96-.28,1.08-.39,2.31-.54,3.39-1.11.23-.24.14-.63,0-.69-.27-.13-.5-.29-.77-.29h-.48c-.56-.43-1.3-.56-1.92-.72-11.95-3.12-28.47-1.61-40.67,1.01-5.47,1.17-13.71,3.73-18.42,6.49-.17.1-.28.41-.36.59-.09.21.31.23.51.23l2.53.06c.28,0,.54.2.84.21l2.6.05c.36,0,.84-.05,1.19,0,3.38.47,6.87.34,10.3.27l1.92-.04.04.5c-3.39.18-14.47.52-17.3-.06l-6.96-1.43c-.56-.25-1.29-.96-2.05-.85-.35.05-.31.62-.3.84.04.76.43,2.17.83,3.04,2.8,6.12,6.59,11.66,11.3,16.44,1.36,1.38,2.75,2.41,4.36,3.11,1.04.45,2.01.79,3.39.84,10.89.4,21.74-.47,32.45-2.6,4.35-.87,11.64-2.82,14.68-6,.29-.31.71-.73.62-1.1,3.62-4.05,5.85-16.08,5.02-21.29.21-.07.42-.11.64-.14.6,5.82-.57,11.83-2.54,17.36-.64,1.79-1.65,3.56-2.82,5.15-2.15,2.94-8.82,5.36-11.89,6.07-2.68.62-5.43,1.27-8.14,1.69-8.67,1.34-17.37,1.87-26.14,1.77-2.16-.02-4.32-.48-6.36-1.11-.13-.49-.77-.53-1.15-.85-2.27-1.93-4.35-3.98-6.14-6.25-3.1-3.95-7.31-10.27-8.69-15.22-.65-2.32.82-2.62,1.43-3.47,1.28-.08,2.52-1.79,3.68-1.95,1.36-.19,2.55-1.05,3.79-1.41l9.39-2.69,7.22-1.88,9.17-1.82c3.13-.62,6.21-1.16,9.24-1.59.19.24.52.27.93.23l7.21-.67,2.67-.2c2.72-.21,5.39-.1,8.14-.02s5.39.47,7.91,1.26c1.54.48,2.21,1.5,2.41,3.04.12.94.33,1.85-.23,2.64Z"/>
          <path class="cls-1" d="M111.71,45.55l3.84.03c.96,0,2.03.4,3.11.52,1.63.19,3.16.69,4.54,1.35,1.6.77,1.45,5.59,1.43,5.47-.22.02-.43.07-.64.14l-.27-.04c.56-.79.35-1.7.23-2.64-.2-1.53-.87-2.55-2.41-3.04-2.53-.79-5.18-1.17-7.91-1.26s-5.41-.19-8.14.02l-2.67.2-7.21.67c-.41.04-.73.02-.93-.23,2.66-.35,5.34-.73,8.14-.92l2.91-.19c2.04-.14,4.03-.1,5.97-.08Z"/>
          <path class="cls-1" d="M118.98,74.35c.09.38-.32.8-.62,1.1-3.05,3.17-10.33,5.13-14.68,6-10.71,2.13-21.56,3-32.45,2.6-1.39-.05-2.36-.4-3.39-.84.06-.45-.29-.72-.64-1.04-1.9-1.77-3.36-3.84-4.94-5.91l-3.31-4.34v-.71c.45-.29.09-.75.05-1.23-.2-2.33.41-4.63,1.36-6.72.2-.44.28-.83.28-1.2,2.83.58,13.91.24,17.3.06.05.59-.49,1.77.23,2.07.91.37,1.78-.5,2.59-.46.63.18,1.56.62,1.83,1.39.44,1.25-.2,2.64-.72,3.79l-.62,1.37c-.9,2.01-.86,4.73.71,6.47,1.33,1.48,3.47,1.36,5.08.54,3.98-2.03,1.86-5.74,2.5-7.92.25-.87,1.42-1.12,2.17-.85.69.25,1.22.98,1.44,1.74-.42.56-.95.99-1.62,1.41-1.19.75-.06,3.65-3.47,5.6-.2,2.58,8.99,1.35,10.72,2.37.65-.45,1.25-.08,1.9-.08,3.11.02,4.21-2.05,5.27-2.6,2.51-1.29,4.66-2.81,6.2-5.31,1.14-1.86,1.52-3.98,2.14-6.06.41-1.37,1.24-2.45,1.33-3.96.1-1.58.33-3.08-.38-4.5,2.77-.86,5.34-2.35,7.96-3.57-.02,3.03-1.22,9.96-2.07,12.98l-1.63,5.8c-.21.74-.72,1.32-.54,2.03ZM72.55,77.67c1.52-.82,2.59-2.11,3.09-3.67.35-1.11-.23-2.23-.94-2.85-2.27-1.98-5.59.62-6.88,2.68-.37.59-.62,1.43-.34,2.09.82,1.94,3.13,2.79,5.06,1.74Z"/>
          <path class="cls-1" d="M98.31,54.95c.35,3.09-1.35,2.63-1.07,3.42.48,1.34,5.72-.75,6.81-1.43.23-.14.32-1.17.73-.76.6.61-.36,1.58-1.04,1.96l-2.37,1.32c-1.17.65-5.89.89-6.47,1.51l-.2-.03c-1.81-.26-1.38-1.7-6.73-1.78-6.23-.09-8,2.4-10.07,2.44l-1.92.04c0-1.3-.64-1.11-1.38-2.99-1.59.34-2.67,1.36-4.2,2.12-1.02-.93,4.28-3.46,4.59-3.25.94,1.16,2.41-1.52,4.39-.39-.09.27-.4.6-.26.77.16.2.76.27.89.12.51-.54,1.13-.19,1.59-.37,1.55-.6,3.1-1.15,4.74-.73-1.97,3.28,5.58.62,5.81-.51.05-.24-.08-.52-.13-.77,2.09-.19,4.15-.76,6.26-.71Z"/>
          <path class="cls-1" d="M94.71,60.94c-.62.49-.67,1.36-1.16,2.12,3.35.72,6.21,2.93,5.95,6.49.08-.18-1.14,6.06-4.61,4.71-1.77-.69-1.41-2.9-1.74-4.03-.22-.76-.75-1.49-1.44-1.74-.75-.27-1.91-.02-2.17.85-.64,2.17,1.48,5.89-2.5,7.92-1.6.82-3.74.94-5.08-.54-1.57-1.74-1.61-4.46-.71-6.47l.26.22c-.59,1.23-.34,2.92-.04,4.14.24.98.87,1.8,1.6,2.23,1.15.68,2.29.5,3.38.02,4.1-1.8,1.48-5.72,2.45-8.26.76-.5,1.93-1.43,2.92-1.02,1.46.6,2.23,2.11,2.42,3.6-.07-.54-.25,2.76,1.62,2.4,1.16-.23,1.77-1.31,2.26-2.29.98-1.92.68-4.03-.87-5.55-1.95-1.91-4.19-1.69-4.46-2.38-.31-.79.54-1.19.61-1.66.25-1.86-8.16-3.42-14.31.41-.34.21-.78.66-.68,1.21.16.89,1.66-.49,2.85-.08-.15.12-.31.41-.5.47-.81-.03-1.68.83-2.59.46-.73-.3-.19-1.47-.23-2.07l-.04-.5c2.07-.04,3.84-2.53,10.07-2.44,5.35.08,4.92,1.52,6.73,1.78Z"/>
          <path class="cls-1" d="M117.47,52.74l.04.25-3.88-.58c-.8-.12-1.52-.33-2.22-.16-.06.01-.14.01-.19,0,.06-.2-.11-.21-.25-.21l-5.09-.19c-2.83-.1-5.67-.18-8.52.08l-3.4.31c-5.28.48-10.45,1.03-15.53,1.98-3.98.74-7.91,1.66-11.88,3.01-1.16.4-7.78,2.91-8.02,3.85-.2,0-.6-.03-.51-.23.07-.18.19-.49.36-.59,4.71-2.76,12.95-5.32,18.42-6.49,12.2-2.62,28.72-4.13,40.67-1.01Z"/>
          <path class="cls-1" d="M58.95,71.9l3.31,4.34c1.58,2.07,3.04,4.14,4.94,5.91.35.33.7.6.64,1.04-1.62-.7-3-1.73-4.36-3.11-4.71-4.78-8.5-10.32-11.3-16.44-.4-.88-.79-2.28-.83-3.04.82-.67,2.46,2.54,2.48,2.61.28.94,3.85,8.89,5.13,8.68Z"/>
          <path class="cls-1" d="M60.65,62.05c0,.38-.08.77-.28,1.2-.96,2.09-1.57,4.39-1.36,6.72.04.48.4.94-.06,1.23-.56-.41-.97-1.23-1.33-1.94l-1.43-2.88c-.73-1.47-1.15-2.98-1.91-4.41-.25-.48-.63-.85-.6-1.35l6.96,1.43Z"/>
          <path class="cls-1" d="M124,53.06c.83,5.21-1.4,17.23-5.02,21.29-.17-.71.34-1.28.54-2.03l1.63-5.8c.85-3.02,2.05-9.95,2.07-12.98.18-.08.39-.36.5-.52l.27.04Z"/>
          <path class="cls-1" d="M75,57.3v.23c-.31-.21-5.6,2.32-4.58,3.25,1.53-.76,2.61-1.78,4.2-2.12.74,1.88,1.38,1.69,1.38,2.99-3.43.07-6.92.2-10.3-.27.22-.94,3.67-2.25,4.33-2.94l4.21-1.23c.32-.09.58-.06.77.1Z"/>
          <path class="cls-1" d="M78.43,54.21c-.19.17-.44.27-.57.5-1.07.27-2.18.88-3.25.74l-.63-.08c-.18-.02-.55.11-.43.44-.74-.11-1.43.41-2.21.67-3.45,1.16-6.72,2.5-9.97,4.15-.24.12-.35.3-.31.48l-2.53-.06c.23-.94,6.85-3.46,8.02-3.85,3.97-1.35,7.9-2.26,11.88-3.01Z"/>
          <path class="cls-1" d="M78.86,55.34l-.5.1c-2.9.55-5.8,1.29-8.4,2.63-1.14.59-2.57.84-3.79,1.21-.4.12-4.71,1.24-4.27,2.05-.31,0-.56-.2-.84-.21-.04-.19.06-.36.31-.48,3.25-1.66,6.52-3,9.97-4.15.78-.26,1.47-.79,2.21-.67.18.03.38.07.63.06.18,0,.56-.09.44-.42,1.07.14,2.18-.47,3.25-.74.49-.12,1.16.1,1.71.09-.27.33-.61.26-.72.54Z"/>
          <path class="cls-1" d="M53.68,60.62c-.03.5.35.87.6,1.35.75,1.43,1.18,2.94,1.91,4.41l1.43,2.88c.35.71.77,1.53,1.33,1.94v.71c-1.28.21-4.84-7.74-5.12-8.68-.02-.07-1.66-3.27-2.48-2.61-.01-.22-.05-.79.3-.84.76-.11,1.49.6,2.05.85Z"/>
          <path class="cls-1" d="M119.39,53.47c.04.13-.08.42.12.48.15.04.3,0,.35-.13.04-.1,0-.24,0-.36.27,0,.51.16.77.29.14.07.23.45,0,.69-1.08.56-2.31.71-3.39,1.11-.03-.46-1.15-.6-.92-.99.21-.37,1.58.18,1.65-.7.03-.3-.17-.66-.47-.87l-.04-.25c.62.16,1.36.29,1.92.72Z"/>
          <path class="cls-1" d="M69.96,58.07l.06.37c-.65.69-4.11,2-4.33,2.94-.35-.05-.83.01-1.19,0l1.67-2.1c1.22-.37,2.65-.63,3.79-1.21Z"/>
          <path class="cls-1" d="M66.18,59.28l-1.67,2.1-2.6-.05c-.43-.81,3.87-1.93,4.27-2.05Z"/>
          <path class="cls-1" d="M119.87,53.47c-.01.11.04.26,0,.36-.05.13-.2.17-.35.13-.21-.06-.08-.35-.12-.48h.48Z"/>
          <path class="cls-1" d="M115.27,57.11c.71,1.41.48,2.91.38,4.5-.1,1.5-.92,2.59-1.33,3.96-.63,2.08-1,4.21-2.14,6.06-1.54,2.51-3.69,4.02-6.2,5.31-1.06.54-2.17,2.61-5.27,2.6-.65,0-1.25-.37-1.9.08-1.74-1.02-10.93.21-10.72-2.37,3.41-1.96,2.28-4.86,3.47-5.6.67-.42,1.21-.85,1.62-1.41.33,1.13-.03,3.34,1.74,4.03,3.46,1.35,4.68-4.89,4.61-4.71.78-1.9.77-3.97-1.2-5.4l-2.44-1.77c-.38-.27-.21-.86-.26-1.19,6.59-1.15,13.21-2.08,19.66-4.08Z"/>
          <path class="cls-1" d="M72.55,77.67c-1.94,1.04-4.25.19-5.06-1.74-.28-.66-.03-1.5.34-2.09,1.29-2.07,4.61-4.66,6.88-2.68.71.62,1.29,1.74.94,2.85-.49,1.56-1.56,2.85-3.09,3.67ZM68.81,76.25c.52.82,1.27.95,2.34.88,1.4-.09,2.5-1.12,3.35-2.35.65-.93.73-2.12.03-2.98-.64-.79-1.86-1.16-2.92-.6-1.45.77-4.97,3.58-2.8,5.05Z"/>
          <path class="cls-1" d="M81.53,70.47l-.26-.22.62-1.37c.52-1.15,1.15-2.54.72-3.79-.27-.77-1.2-1.2-1.83-1.39.19-.05.35-.35.5-.47.07,0,.15-.04.22,0,3.05,1.57,1.55,5.3.04,7.24Z"/>
          <path class="cls-1" d="M105.69,53.98c-.55-.01,9.15,1.83,8.91,2.33-1.21.61-2.54.83-3.87,1.02-.05-1.08-.92-2.06-2.11-2.15-.38-.03-.76.24-.68.56.1.46,1.22.66,1.38,1.24.07.26-.02.56-.18.8-2.54.72-5.13,1.38-7.75,1.69l2.37-1.32c.67-.38,1.64-1.36,1.04-1.96-.41-.41-.5.62-.73.76-1.09.68-6.33,2.77-6.81,1.43-.28-.79,1.42-.33,1.07-3.42.09,0,.18-.05.27-.05,1.59-.11,3.21.2,4.78-.17-.35-.41-.85-.42-.75-.83l3.08.08Z"/>
          <path class="cls-1" d="M110.29,52.98c.11.94-.54.08-2.24.85-.93.42-2.43-.51-2.36.14l-3.08-.08c-1.51-.04-3.13-.29-4.67.15.26.49.62.55.64.85-.09,0-.18.05-.27.05-2.11-.05-4.17.52-6.26.71-.36-.16-.93-.08-1.46-.08-3.15,0-6.17.04-9.22.89-.64.18-1.33.88-1.96.67-1.99-1.13-3.45,1.56-4.39.39v-.23c1.27-.17,2.61-.8,3.35-1.87l.5-.1c.11-.02.29.32.5.25,2.05-.64,4.09-.8,6.23-1.16,3.71-.63,7.27-1,11.04-1.24,4.64-.3,9.16-.78,13.65-.21Z"/>
          <path class="cls-1" d="M92.04,55.66c.06.25.18.52.13.77-.23,1.13-7.78,3.79-5.81.51-1.63-.42-3.19.13-4.74.73-.47.18-1.08-.17-1.59.37-.14.15-.73.08-.89-.12-.15-.17.16-.51.26-.77.63.21,1.33-.49,1.96-.67,3.05-.85,6.08-.89,9.22-.89.53,0,1.1-.08,1.46.08Z"/>
          <path class="cls-1" d="M95.61,61.19c.05.33-.12.92.26,1.19l2.44,1.77c1.97,1.43,1.98,3.5,1.2,5.4.25-3.56-2.61-5.77-5.95-6.49.49-.76.54-1.63,1.16-2.12l.2.03c.18.17.45.26.7.22Z"/>
          <path class="cls-1" d="M92.97,66.2c-.6.29-1.26.64-1.14,1.38-.99-.4-2.16.53-2.92,1.02-.1-.02-.2-.07-.27-.12-.7-.49.97-1.64,1-2.05.06-.77-1.2-.65-1.57-.22-.64.76-1,1.53-1.52,2.36-2.02,3.19.11,3.63-1.05,4.98-.14.16-.11.43-.09.61.02.14.19.32.44.36.58.09.99.24.89.82-.09.5-.55.47-.91.67,0-.26,0-.5-.02-.84,0-.31-.29-.49-.67-.38-.08.02-.18-.04-.26-.03.01-.73-.75-.93-1.39-.89-.15-.29-.39-.56-.3-.94.23.04.18-.26.22-.4.04-.19-.21-.26-.25-.4-.06-.19-.03-.44-.05-.64-.2-2.12,3.13-6.1-.66-8.15,2.01-1.87,4.99-.63,4.53-1.95.84-.14,2.58-.4,3.24.57.12,1.88,1.11,3.29,2.74,4.24Z"/>
          <path class="cls-1" d="M94.25,71.18c.67-.13,1.17,1.36,2.02.76.36-.26.32-.64.15-1.06l-1.04-2.57c-.43-1.07-1.35-1.93-2.42-2.1-1.63-.95-2.63-2.36-2.74-4.24-.66-.97-2.39-.71-3.24-.57-.95.04-2.11.03-3.08-.01s-3.16.08-2.95,1.44c-.54.05-1.16.15-1.75-.12-.2-.09-.08-.49-.1-.59,6.15-3.83,14.55-2.27,14.31-.41-.06.46-.91.87-.61,1.66.27.69,2.5.47,4.46,2.38,1.55,1.52,1.85,3.63.87,5.55-.5.97-1.11,2.06-2.26,2.29-1.87.36-1.69-2.94-1.62-2.4Z"/>
          <path class="cls-1" d="M88.91,68.6c-.96,2.55,1.66,6.46-2.45,8.26-1.09.48-2.23.65-3.38-.02-.73-.43-1.36-1.25-1.6-2.23l.54.18c.11.67,1.09.68,1.39,1.01.48.52,1.56.69,2.42.22.35-.2.82-.17.91-.67.1-.57-.31-.73-.89-.82-.26-.04-.43-.22-.44-.36-.02-.18-.06-.45.09-.61,1.16-1.35-.97-1.79,1.05-4.98.52-.83.88-1.6,1.52-2.36.37-.44,1.63-.56,1.57.22-.03.4-1.69,1.56-1,2.05.07.05.16.09.27.12Z"/>
          <path class="cls-1" d="M86.99,61.39c.46,1.32-2.52.08-4.53,1.95,3.79,2.05.46,6.03.66,8.15-.29.04-.81-.08-1.01.27-.57,1-.25,2.04-.08,3.02l-.54-.18c-.3-1.22-.55-2.91.04-4.14,1.51-1.94,3.01-5.67-.04-7.24.25-.15.55-.05.96-.19-.28-1.36.85-.85,1.46-1.66.97.05,2.13.05,3.08.01Z"/>
          <path class="cls-1" d="M94.25,71.18c-.19-1.49-.96-3-2.42-3.6-.12-.74.54-1.09,1.14-1.38,1.07.17,1.99,1.03,2.42,2.1l1.04,2.57c.17.42.22.8-.15,1.06-.85.6-1.35-.89-2.02-.76Z"/>
          <path class="cls-1" d="M80.96,62.82c.12-.01.23-.04.31.11.04.07.04.19,0,.3-1.19-.41-2.69.97-2.85.08-.1-.55.34-1,.68-1.21.02.1-.1.5.1.59.59.27,1.21.18,1.75.12Z"/>
          <path class="cls-1" d="M110.98,52.03c-.09.15.14.19.25.21.06.01.14.02.19,0-.5.3.86.46,1,.73-.7.09-1.41.09-2.12,0-4.5-.57-9.01-.09-13.65.21-3.78.24-7.34.61-11.04,1.24-2.14.36-4.19.52-6.23,1.16-.21.07-.39-.27-.5-.25.11-.28.45-.22.72-.54-.56,0-1.22-.21-1.71-.09.13-.22.38-.33.57-.5,5.08-.95,10.25-1.5,15.53-1.98l3.4-.31c2.85-.26,5.69-.18,8.52-.08l5.09.19Z"/>
          <path class="cls-1" d="M117.51,52.99c.3.21.49.57.47.87-.08.88-1.44.33-1.65.7-.23.4.89.53.92.99-.25.09-.76.13-.96.28.08-.6-2.04-.7-2.33-1.09s.19-.88.16-1.32c-.36-.32-1.22-.51-1.71-.44-.14-.28-1.49-.44-1-.73.69-.17,1.42.04,2.22.16l3.88.58Z"/>
          <path class="cls-1" d="M111.22,52.25c-.11-.03-.34-.06-.25-.21.13,0,.3.02.25.21Z"/>
          <path class="cls-1" d="M78.36,55.43c-.74,1.07-2.08,1.69-3.36,1.87-.19-.15-.44-.19-.77-.1l-4.21,1.23-.06-.37c2.6-1.34,5.5-2.08,8.4-2.63Z"/>
          <path class="cls-1" d="M74.61,55.45c.12.33-.25.42-.44.42-.24,0-.45-.03-.63-.06-.12-.34.26-.47.43-.44l.63.08Z"/>
          <path class="cls-1" d="M112.41,52.98c.49-.06,1.35.13,1.71.44.03.44-.43.95-.16,1.32.29.39,2.4.49,2.33,1.09-.42.32-1.28.26-1.7.48.25-.5-9.46-2.34-8.91-2.33-.07-.65,1.43.28,2.36-.14,1.71-.77,2.35.08,2.24-.85.72.09,1.43.09,2.12,0Z"/>
          <path class="cls-1" d="M110.72,57.33c-.44.06-1.12.32-1.59.45.16-.24.25-.55.18-.8-.16-.58-1.28-.78-1.38-1.24-.07-.32.3-.59.68-.56,1.2.09,2.06,1.07,2.11,2.15Z"/>
          <path class="cls-1" d="M71.15,77.13c.25-.38,1.02-.7.67-1.29-.29-.49-1.08-.44-1.33-1,.19-.49.22-.98-.12-1.25-.37-.28-.81-.2-1.18.16-.72.69-.75,1.67-.37,2.49-2.17-1.47,1.36-4.28,2.8-5.05,1.06-.56,2.28-.19,2.92.6.7.86.62,2.05-.03,2.98-.86,1.23-1.95,2.26-3.35,2.35Z"/>
          <path class="cls-1" d="M71.15,77.13c-1.07.07-1.82-.06-2.34-.88-.38-.81-.35-1.8.37-2.49.38-.36.82-.44,1.18-.16.34.26.31.76.12,1.25.24.55,1.04.51,1.33,1,.35.59-.42.91-.67,1.29Z"/>
          <path class="cls-1" d="M83.91,61.38c-.62.8-1.74.29-1.46,1.66-.4.15-.71.05-.96.19-.06-.03-.15,0-.22,0,.03-.11.03-.23,0-.3-.08-.15-.18-.12-.31-.11-.22-1.36,1.99-1.49,2.95-1.44Z"/>
          <path class="cls-1" d="M102.61,53.9c-.1.41.4.42.75.83-1.57.37-3.18.06-4.78.17-.02-.31-.38-.36-.64-.85,1.54-.44,3.16-.19,4.67-.15Z"/>
          <path class="cls-1" d="M83.12,71.49c.02.2-.01.45.05.64-.23-.05-.18.26-.2.4-.03.17.18.3.24.41-.09.37.15.64.3.94s.18.66.44.76c.39.14.65.15.94.13.08,0,.18.05.26.03-.03.2.1.63-.16.83-.48.36-1.09.16-1.57.18-.3-.33-1.28-.33-1.39-1.01-.17-.98-.49-2.02.08-3.02.2-.35.71-.24,1.01-.27Z"/>
          <path class="cls-1" d="M85.84,76.01c-.85.47-1.94.3-2.42-.22.48-.02,1.09.18,1.57-.18.26-.19.13-.63.16-.83.39-.11.66.07.67.38.01.34.03.59.02.84Z"/>
          <path class="cls-1" d="M84.89,74.76c-.29.02-.56.01-.94-.13-.27-.1-.29-.46-.44-.76.64-.04,1.4.16,1.39.89Z"/>
          <path class="cls-1" d="M83.2,72.93c-.06-.11-.27-.24-.24-.41.02-.13-.03-.44.2-.4.04.14.29.21.25.4-.03.15.01.44-.22.4Z"/>
        </g>
      </g>
    </g>
  </g>
</svg>