<?xml version="1.0" encoding="UTF-8"?>
<svg id="Layer_1" data-name="Layer 1" xmlns="http://www.w3.org/2000/svg" viewBox="0 0 91.2 79.2">
  <g style="opacity: .5;">
    <path d="M35.92,31.35c.24.57-.39.86-.5,1.22.57-1.06-4.02-.16-4.53.2,0-.07-.02-.14-.02-.21,1.55-1.96,3.9-.47,5.05-1.21Z" style="fill: lime;"/>
    <path d="M35.05,34.5c.2,2.27.55,4.72,2.11,6.4.07.08.15.14.2.23l-3.6-.06c-.37,0-.64-.3-.9-.4l-.04-.26c.42-.38.16-.93.02-1.47l-1.24-4.5,3.45.05Z" style="fill: lime;"/>
    <path d="M35.42,32.57c-.17.56-.41,1.34-.36,1.93l-3.45-.05c-.22-.49-.8-1.03-.71-1.68.51-.36,5.1-1.26,4.53-.2Z" style="fill: lime;"/>
    <g>
      <path d="M18.65,37.84v.22c-.58.27-1.57.78-1.3,1.57.24.72,3.29.69,3.73.76,1.27.22,2.58.15,3.84.22l7.33.43c.36.02.53-.13.61-.37.25.1.53.39.9.4l3.6.06c1.65.03,3.3.26,4.97.23,1.4-.03,2.8.16,4.18,0,.1-.01.24-.05.34-.02,1.52.44,3.36.47,4.88.04.07-.02.16,0,.23-.02.22.34.59.2.9.25,1.05.18,2.12,0,3.17.06,1.73.09,3.56.43,5.24-.03.07-.02.18-.04.25-.04,1.41.71,3.14.44,4.76.37l3.31-.15c1.9.4,3.97.46,5.93-.17-1.22-.49-2.43-.59-2.53-1.72.71-.48,1.43-.89,2.1-1.43-.08.15.12.24.32.24,2.5.03,4.93.32,7.29,1.09.34.11.68.54.95.74.36.25-.1.62-.17.82-.35-.03-.56.39-.83.47-.41.11-.89-.01-1.25.27-.13.05-.39.04-.53.04-.56,0-1.11.06-1.66.17-.24.05-.51.04-.75.06-.22.01-.48.13-.7.09-.91-.14-1.8.14-2.86.13l-23.62-.15-5.58-.08-6.48-.36-20.37-1.29-.65-.07-.51-.03c-.53-.37-1.18-.49-1.82-.43-.32-.08-.57-.31-.58-.61-.04-1.35,2.33-1.6,3.36-1.76Z" style="fill: lime;"/>
      <path d="M80.43,49.29c-1.99,4.56-3.78,9.2-6.19,13.65-1.8,3.33-4.68,5.7-8.21,6.89-3.9,1.32-7.83,2.06-11.93,2.47-6.3.63-14.59-.53-20.67-2.33-1.41-.42-2.62-1-3.92-1.6-1.7-.79-2.94-1.91-3.99-3.47-2.53-3.75-5.2-10.89-6.61-15.14l.1-.47,4.48,10.02c.75,1.67,1.35,3.57,2.59,5.04.14.16.29.35.44.49.14.18.13.51.45.53.09.12.24.35.36.45.13.37.46.69.97.52.38,1.4,5.8,2.95,7.29,3.33,6.03,1.55,12.17,2.12,18.38,1.74,2.59-.16,4.94-.68,7.29-1.31,1.28-.34,2.56-.36,3.8-.99,1.11-.56,2.85-.55,3.66-1.67.49-.03.84-.41,1.17-.73.31-.3,1.03-.29.96-.95.29.04.46-.26.56-.44.47-.2.86-.74.95-1.2.74-.52,1.27-1.58,1.77-2.5,2.24-4.12,3.9-8.39,5.82-12.56.15.08.31.14.47.19Z" style="fill: lime;"/>
      <path d="M17.7,40.64c-.16.74.28,1.36.54,2.1l3.03,8.5c.95,2.67,1.54,5.35,2.6,7.87-.15.03-.28.11-.38.22l-4.48-10.02c-.09-1.11-1.67-5.35-2.26-6.23-.54-.81-.63-1.96-.88-2.87.63-.06,1.29.07,1.82.43Z" style="fill: lime;"/>
      <path d="M83.5,41.37c-.71,2-2.16,5.81-3.07,7.92-.16-.04-.32-.1-.47-.19.41-.88.71-1.88,1.04-2.93.39-1.26,1.26-2.31,1.39-3.57.02-.22.44-.46.29-.76.27-.09.48-.5.83-.47Z" style="fill: lime;"/>
      <path d="M19.01,49.3l-.1.47c-.69-2.07-1.76-4.05-2.27-6.32-.08-.18-.14-.41.12-.38.58.89,2.17,5.12,2.26,6.23Z" style="fill: lime;"/>
      <path d="M45.72,42.38c-.16,1.24-1.29,2.11-2.21,3.02-1.41,1.4-.67,3.31-.94,4.56-.25,1.17-.39,2.39.31,3.49-.25,2.37.79,4.43,2.29,6.22s2.52,3.84,4.49,5.03l5.53,3.35c.42.25-.57.86-.89.9l-6.66.71c-.7.07-1.45-.26-1.92.22-.22.08-.52-.07-.72.03.12-.45-.2-.6-.6-.52-.21.04-.61-.01-.63.29-1.16.1-2.27-.37-3.48-.54-1.52-.21-2.79-.86-4.17-1.21-.02-.48-.47-.56-.92-.71-1.55-.55-3-1.32-4.56-1.38h-.21c.19-.67-1.07-.42-2.44-1.43-.12-.46-.53-.83-.71-1.24.12-.7-.17-1.6-.94-1.69-.14-.09-.13-.29-.23-.39.23.06.29-.29.21-.41-.1-.18-.32-.27-.48-.15-.11-.37-.28-.72-.28-1.12,0-.17.08-.38-.11-.53-.1-.08-.22-.15-.34-.04v-.21c-.02-.73-.16-1.77-.94-1.95-.94-2.22-1.63-4.52-2.4-6.92l-2.91-9.01,20.37,1.29,6.48.36Z" style="fill: lime;"/>
      <path d="M77.78,42.48c-.36.77-1.27.79-2.14.9l-6.03.77c-.99.13-1.85.09-2.89.35-1.52.37-3.16.29-4.74.51l-5.24.72c-4.69.64-8.04-.65-12.06,4.41-.87.87,1.52,6.93,2,8.1l1.51,3.7c.87,2.14,3.81,2.78,5.86,3.39.24.07.47.19.71.24.19.04.34.29.57.24.2-.05.48.09.67.02.14.27.46.35.82.41l5.65.94c.36.06.79-.04,1.14.06,1.86.54,5.26-.94,5.12.24-.8,1.12-2.54,1.11-3.66,1.67-.17-.17-.55-.28-.88-.18-1.11.36-6.18.37-7.47.46l-6.97.47c-1.38.09-2.85.63-4.03-.03.47-.48,1.22-.14,1.92-.22l6.66-.71c.32-.03,1.31-.64.89-.9l-5.53-3.35c-1.97-1.19-3.03-3.28-4.49-5.03s-2.54-3.85-2.29-6.22c-.7-1.1-.56-2.31-.31-3.49.27-1.25-.47-3.16.94-4.56.92-.91,2.04-1.78,2.21-3.02l5.58.08,23.62.15c1.06,0,1.95-.27,2.86-.13Z" style="fill: lime;"/>
      <path d="M80.9,42.16c-.32.87-.68,2.1-1.63,2.62-1.29.71-2.9.37-4.35.48l-3.32.26c-.65.05-1.18.19-1.76-.26-.92-.71-2.44-.78-3,.22-.15.26-.73.31-.78.71-2.75-.56-11.54,1.96-13.33,3.91-.83.91-1.21,2-1.06,3.28l.51,4.3c.45,3.74.06,4.36,1.86,7.65-2.05-.61-4.99-1.25-5.86-3.39l-1.51-3.7c-.48-1.17-2.87-7.23-2-8.1,4.02-5.06,7.37-3.77,12.06-4.41l5.24-.72c1.58-.22,3.22-.14,4.74-.51,1.04-.25,1.89-.22,2.89-.35l6.03-.77c.87-.11,1.78-.13,2.14-.9.22.03.48-.08.7-.09-.11.17.03.42.17.44.18.02.5.08.58-.11.05-.11-.02-.28,0-.38.55-.11,1.1-.18,1.66-.17Z" style="fill: lime;"/>
      <path d="M18.87,40.74l2.91,9.01c.78,2.4,1.46,4.69,2.4,6.92.27.65.28,1.57.93,1.95v.21c0,.11.01.23.06.36.05.14.2.37.39.21,0,.39.17.75.28,1.12.06.21.1.4.26.56.1.1.1.31.23.39.09.68.35,1.34.94,1.69.18.41.59.79.71,1.24.25.97,1.49,1.39,2.44,1.42h.21c-.15.41,5.04,1.99,5.47,2.1,1.39.35,2.65,1,4.17,1.21,1.2.17,2.32.64,3.48.54.34-.03.81.44,1.23.23.2-.1.5.06.72-.03,1.18.66,2.65.12,4.03.03l6.97-.47c1.3-.09,6.36-.1,7.47-.46.33-.11.71,0,.88.18-1.25.63-2.52.65-3.8.99-.04-.57-6.23-.04-7.41.05l-3.35.25c-5.44.41-11.27-.4-16.31-2.43-1.5-.61-2.99-1-4.49-1.5-.83-.28-1.57-.92-2.38-.65-.13-.09-.28-.33-.36-.45.08-.16.01-.41.11-.55.12-.18.15-.34.08-.5-.13-.29-.37-.39-.62-.44-.04-.25-.25-.48-.28-.74-.07-.64-.26-1.4-.9-1.65,0-.52-.33-.92-.48-1.41-.03-.1,0-.24-.05-.38s-.21-.35-.41-.21l-.07-.38c-.28-1.57-1.07-3-1.61-4.62l-4.55-13.87.65.07Z" style="fill: lime;"/>
      <path d="M81.43,42.11l-.98,2.67c-.1.05-.15.26-.25.28-.47.11-.57.64-.98.85-.3-.09-.54.25-.88.32l-4.38.94c-1.18.25-2.3.37-3.33-.07-.06-.03-.15,0-.22,0-.03-.49-.17-1.04-.7-1.18-.02-.1-.04-.24-.1-.3-.13-.15-.33-.16-.49-.15-.12.01-.25-.05-.36-.02-.53-.48-1.27-.03-1.91.03.56-1,2.08-.92,3-.22.58.45,1.11.31,1.76.26l3.32-.26c1.45-.11,3.06.23,4.35-.48.94-.52,1.31-1.75,1.63-2.62.14,0,.4,0,.53-.04Z" style="fill: lime;"/>
      <path d="M18.21,40.66l4.55,13.87c.53,1.62,1.32,3.05,1.61,4.62l-.49-.04c-1.07-2.51-1.66-5.2-2.6-7.87l-3.03-8.5c-.27-.74-.71-1.36-.54-2.1l.51.03Z" style="fill: lime;"/>
      <path d="M69.6,41.82c-.12-.24.2-.21.32-.22.33-.01.72-.08,1.08-.32l2-1.35c.1,1.13,1.31,1.23,2.53,1.72-1.96.64-4.03.57-5.93.17Z" style="fill: lime;"/>
      <path d="M20.84,40.18c.1.05.18.13.24.22-.44-.08-3.49-.04-3.73-.76-.26-.79.73-1.3,1.3-1.57.88.43.93,1.52,2.19,2.12Z" style="fill: lime;"/>
      <path d="M82.67,41.85c.15.3-.26.54-.29.76-1.04-.1-1.07,2.15-1.94,2.18l.98-2.67c.36-.28.84-.16,1.25-.27Z" style="fill: lime;"/>
      <path d="M79.23,42.33c-.02.1.04.27,0,.38-.08.19-.4.14-.58.11-.14-.02-.29-.27-.17-.44.25-.02.51,0,.75-.06Z" style="fill: lime;"/>
      <path d="M66.06,46.18l.05.47c-.17.53-.35,1.07-.37,1.64-.3-.16-.56.06-.8.35-.64.78-1.51,1.06-2.41,1.47-3.66,1.66-3.24,3.61-3.19,6.86l.05,3.86c.01.88,1.34,1.57,1.47,2.43.19,1.22.82,1.76,1.95,2.31,1.58.76,3.1-.19,4.49-1.16.75-.41,2.14-.52,3.04-.48.68.17.5,1.38.51,1.87.08.66-.65.65-.96.95-.75-1.19-5.18-.06-6.28.48-.34-.1-.78,0-1.14-.06-.41-1.32-4.77-2-6.47-1.35-.2.07-.47-.06-.67-.02.15-.15,0-.37-.17-.47-.15-.09-.44.02-.41.23-.25-.05-.48-.17-.71-.24-1.8-3.29-1.42-3.91-1.86-7.65l-.51-4.3c-.15-1.28.22-2.37,1.06-3.28,1.79-1.95,10.58-4.47,13.33-3.91Z" style="fill: lime;"/>
      <path d="M80.2,45.06c.02.12.19.35.09.54-1.12,2.06-2.07,4.09-3.02,6.28l-4.39,10.16c-.31.72-.69,1.4-.5,2.12-.09.46-.48,1-.95,1.2-.19-.39.76-3.44-.57-3.49-3.55-.11-3.33.79-4.45,2.14s-3.76,1.01-4.56-.6c-.44-.9.2-1.92.3-2.72.35-2.82,1.11-6.98,2.19-9.54.25-.6.18-1.42.97-1.42-.01.52-.51.97-.54,1.55l-.21,3.53c-.1,1.77-.96,4.29.67,5.61.73.59,1.92-.68,2.35-1.24,1.14-1.47,1.34-3.24,1.78-4.97.62-2.42,1.21-4.72,1.06-7.13.07.02.16-.02.22,0,.15.53.26,1.11.48,1.71.25.67.98.88,1.66.76l3.07-.55c1.11-.2,1.81-.56,2.42-1.44.38-.55,1.01-.97.96-1.67.41-.2.51-.73.98-.85Z" style="fill: lime;"/>
      <path d="M65.75,48.29c0,.15.02.32.03.47-.21-.17-.35.09-.39.22-.07.21-.05.39-.04.56,0,.06-.04.13-.04.19-.79,0-.72.82-.97,1.42-1.08,2.56-1.84,6.72-2.19,9.54-.1.81-.74,1.83-.3,2.72.8,1.61,3.38,2,4.56.6s.9-2.25,4.45-2.14c1.33.04.38,3.1.57,3.49-.11.18-.27.48-.56.44-.01-.48.17-1.69-.51-1.87-.9-.04-2.28.07-3.04.48-1.39.96-2.91,1.92-4.49,1.16-1.13-.54-1.76-1.09-1.95-2.31-.13-.86-1.46-1.56-1.47-2.43l-.05-3.86c-.05-3.26-.46-5.2,3.19-6.86.91-.41,1.78-.69,2.41-1.47.23-.29.5-.51.8-.35Z" style="fill: lime;"/>
      <path d="M61.27,70.14c-2.35.63-4.69,1.15-7.29,1.31-6.21.38-12.35-.2-18.38-1.74-1.49-.38-6.9-1.94-7.29-3.33-.51.16-.84-.15-.97-.52.81-.27,1.55.37,2.38.65,1.5.51,2.99.9,4.49,1.5,5.04,2.04,10.87,2.84,16.31,2.43l3.35-.25c1.18-.09,7.37-.62,7.41-.05Z" style="fill: lime;"/>
      <path d="M82.39,42.61c-.13,1.26-1,2.31-1.39,3.57-.33,1.05-.63,2.04-1.04,2.93-1.92,4.17-3.58,8.44-5.82,12.56-.5.92-1.03,1.98-1.77,2.5-.19-.71.19-1.39.5-2.12l4.39-10.16c.95-2.19,1.89-4.22,3.02-6.28.1-.19-.06-.42-.09-.54.1-.03.15-.23.25-.28.87-.02.9-2.28,1.94-2.18Z" style="fill: lime;"/>
      <path d="M24.36,59.15l.07.38c.02.11-.03.24.03.37.07.14.24.37.42.22.15.49.47.89.48,1.41.01.64.29,1.39.9,1.65.03.25.23.49.28.74,0,.1,0,.21-.06.32-.06.14-.26.16-.41.14-1.24-1.47-1.85-3.37-2.59-5.04.1-.11.24-.18.38-.22l.49.04Z" style="fill: lime;"/>
      <path d="M69.9,66.75c-.33.32-.67.7-1.17.73.15-1.18-3.26.29-5.12-.24,1.1-.54,5.53-1.67,6.28-.48Z" style="fill: lime;"/>
      <path d="M27.09,64.84l-.56.02c-.15-.14-.3-.33-.44-.49.15.02.34,0,.41-.14.05-.11.05-.22.06-.32.25.05.48.15.62.44.07.16.04.32-.08.5Z" style="fill: lime;"/>
      <path d="M27.09,64.84c-.1.14-.03.39-.11.55-.32-.03-.31-.35-.45-.53l.56-.02Z" style="fill: lime;"/>
      <path d="M36.12,67.92c-.44-.11-5.63-1.69-5.47-2.1,1.55.06,3.01.83,4.56,1.38.45.16.9.24.92.71Z" style="fill: lime;"/>
      <path d="M27.28,63.15c-.59-.35-.85-1-.94-1.69.77.09,1.06.99.94,1.69Z" style="fill: lime;"/>
      <path d="M25.12,58.62c-.66-.38-.66-1.3-.93-1.95.78.18.92,1.22.93,1.95Z" style="fill: lime;"/>
      <path d="M30.44,65.82c-.95-.03-2.2-.45-2.44-1.42,1.37,1,2.63.76,2.44,1.42Z" style="fill: lime;"/>
      <path d="M45,69.89c-.42.21-.89-.26-1.23-.23.02-.3.42-.25.63-.29.4-.08.72.07.6.52Z" style="fill: lime;"/>
      <path d="M26.11,61.07c-.16-.17-.2-.35-.26-.56.15-.12.37-.03.48.15.07.13.01.47-.21.41Z" style="fill: lime;"/>
      <path d="M25.57,59.39c-.19.16-.34-.07-.39-.21-.05-.13-.05-.25-.06-.36.12-.11.24-.04.34.04.19.15.11.35.11.53Z" style="fill: lime;"/>
      <path d="M62.48,67.16l-5.65-.94c-.37-.06-.68-.15-.82-.41,1.7-.65,6.05.03,6.47,1.35Z" style="fill: lime;"/>
      <path d="M55.34,65.8c-.23.05-.39-.2-.57-.24-.03-.21.26-.32.41-.23.17.1.32.32.17.47Z" style="fill: lime;"/>
      <path d="M68.75,45.45c-.99.21-1.82.61-2.64,1.2l-.05-.47c.04-.39.63-.45.78-.71.65-.06,1.38-.51,1.91-.03Z" style="fill: lime;"/>
      <path d="M26.27,63.17c-.61-.26-.89-1-.9-1.65.64.24.84,1.01.9,1.65Z" style="fill: lime;"/>
      <path d="M24.89,60.12c-.19.15-.35-.08-.42-.22-.06-.13-.01-.25-.03-.37.2-.14.35.07.41.21s.02.27.05.38Z" style="fill: lime;"/>
      <path d="M69.12,45.47c-.15.18.08.37.22.43s.26.04.37.02c.53.14.67.68.7,1.18.15,2.41-.44,4.71-1.06,7.13-.44,1.73-.64,3.5-1.78,4.97-.43.55-1.62,1.83-2.35,1.24-1.63-1.32-.77-3.85-.67-5.61l.21-3.53c.03-.57.53-1.03.54-1.55,0-.06.05-.13.04-.19.39.04.47-.48.44-.78-.02-.15-.04-.32-.03-.47.02-.56.19-1.1.37-1.64.82-.59,1.64-1,2.64-1.2.11-.02.25.03.36.02Z" style="fill: lime;"/>
      <path d="M79.22,45.91c.05.7-.57,1.12-.96,1.67-.61.88-1.31,1.25-2.42,1.44l-3.07.55c-.69.12-1.41-.09-1.66-.76-.22-.6-.33-1.18-.48-1.71,1.03.45,2.15.33,3.33.07l4.38-.94c.34-.07.58-.41.88-.32Z" style="fill: lime;"/>
      <path d="M69.71,45.91c-.11.02-.25.04-.37-.02-.13-.06-.36-.25-.22-.43.16-.01.36,0,.49.15.06.07.08.2.1.3Z" style="fill: lime;"/>
      <path d="M65.78,48.76c.03.31-.05.82-.44.78,0-.17-.03-.35.04-.56.04-.13.18-.38.39-.22Z" style="fill: lime;"/>
    </g>
    <g>
      <g>
        <path d="M80.36,33.9c.21-.38.7-.72,1.08-.94.8-.48,2.61-1.67,1.99-2.37l-.92-1.05c-.99-1.12,4.31-3.54,3.25-4.85s-4.08.99-4.59,1.63c-.23.02-.59.34-.91.17-.47-.25-.38-.93-.37-1.34.02-.65.21-1.4,0-2.1s-.89-.49-1.35-.34c-1.79.59-1.23,4.18-1.18,5.56l-.52-.04c-.25-1.58-.53-4.73.98-5.91.5-.39,1.46-.53,2.05-.18.96.58,1.12,1.88,1.05,2.97,1.78-1.04,2.34-2.23,4.63-1.49,1,.32,1.55,1.63.83,2.45-1.27,1.46-3.36,2.69-2.98,3.46.26.52.83.81.66,1.45-.1.39-.17.94-.61,1.25l-1.66,1.19c-.5.36-.87.7-1.42.47Z" style="fill: lime;"/>
        <path d="M71.59,35.43c-.01.26.04.52-.04.82-.07.24-.34-.16-.5-.18-.52-1.25-1.24-2.53-2.62-3.33-1.2,1.76-.09,3.2,0,4.57-.09.06-.16.16-.25.22-.67-1.28-1.28-2.63-2.36-3.74.67-.25,1.02.23,1.51.56.08-.68.21-1.38.4-2.05.98-.4,1.95-.17,2.53.84l1.33,2.29Z" style="fill: lime;"/>
        <path d="M76.84,28.23l.52.04c.28.36.83.4,1.15.67,1.3,1.09,1.63,2.91.88,4.52-.13.28-.18.55-.01.73-1.22,1.65-2.67,3.03-4.27,4.31-.67.54-1.4.95-2.1,1.43l-2,1.35c-.35.24-.75.31-1.08.32,2.81-2.61,8.3-5.23,8.83-9.3.11-.86.18-1.67-.48-2.35-2.61-2.69-10.47,2.08-10.55,2.36-.43.18-1.24.4-1.67.47.89-1.01,2.26-1.5,3.49-2.26,1.77-1.1,3.74-1.86,5.79-2.14.53-.07,1.08.22,1.49-.15Z" style="fill: lime;"/>
        <path d="M64.15,27.97c.47-.47.53-1.16.27-1.78-.29-.69-1.06-.73-1.65-1-.98-.45-2.04-.81-2.98.18,1.21-.11,2.06.04,2.91.48.52.68,1,1.38,1.43,2.12l-.05.24c-.23.06-.45.14-.65.28l-.25-.04c.08-.78-.55-1.41-1.09-1.88-.63-.55-1.44-.48-2.19-.33.22-.17,0-.28-.16-.39-.1-.07-.22-.15-.38-.21-.08-4.39-5.11-3.09-4.32-7.03.13-.67.83-1.29,1.33-1.39,1.16-.23,3,.91,2.97,1.7-1.11-.04-.79-1-2.67-.94-.5.02-.42.52-.67.89-1.2,1.8,3.24,2.57,3.79,5.58,1.06-.39,1.96-.44,2.89-.33.3.04.73.29,1.03.31.64.52,1.42,1.17,1.51,1.97,1.4-1.02,2.5-1.62,3.2-2.96.74-1.43.39-3.35-1.21-4-.74-.3-1.44.35-2.15.57.39-1.3.66-2.69-.21-3.78-.4-.5-1.25-.3-1.72-.12-1.17.45-1.92,2.63-2.06,3.75-.02.17-.14.55-.21.89-.03.17-.25.13-.52.08-.11-.65-.82-1.01-.76-1.71.3.13.5.52.9.47.17-1.65.63-3.16,1.86-4.16.84-.67,2.28-.54,2.9.22.71.86,1.09,1.77.47,2.92.53.44.99.25,1.54.33,1.17.17,1.98,1.32,2.24,2.17.37,1.2.2,2.44-.71,3.15s-1.52,1.77-2.65,2.11c-1.51.45-.5.65-1.45,1.66-.12.13-.48.1-.57-.06Z" style="fill: lime;"/>
        <path d="M78.75,32.3c-2.26-.4-5.28,2.44-7.16,3.14l-1.33-2.29c-.58-1-1.56-1.24-2.53-.84.08-.28,7.94-5.05,10.55-2.36.66.68.59,1.49.48,2.35Z" style="fill: lime;"/>
        <path d="M67.73,32.31c-.19.67-.31,1.37-.4,2.05-.49-.33-.84-.8-1.51-.56,1.07,1.11,1.69,2.45,2.36,3.74-1.1.71-2.63-.29-3.32-1.37-.21-.33-.39-.52-.68-.53.16-.55-.04-1.42.51-1.84.42-.32,1.09-.29,1.13-.87,0-.07.17-.14.24-.15.43-.07,1.24-.3,1.67-.47Z" style="fill: lime;"/>
        <path d="M64.09,28.21c.73,1.52.52,3.24.53,5.05l1.2-.34c-.04.58-.71.55-1.13.87-.55.42-.35,1.29-.51,1.84-.62,2.1-1.2,4.29-2.65,5.95-.07,0-.18.02-.25.04,1.85-3.43,3.34-7.25,2.55-11.2l-.39-1.94c.19-.14.42-.22.65-.28Z" style="fill: lime;"/>
        <path d="M59.36,18.93c.08,0,.25.11.24.21-.06.7.65,1.06.76,1.71-.12.2-.26.4-.34.62-.85.38-2.97-2.01-4.01-2.59.25-.37.17-.88.67-.89,1.88-.06,1.57.9,2.67.94Z" style="fill: lime;"/>
        <path d="M79.92,28.48c-.16,3.6,1.83,1.78,1.53,4.48-.38.23-.88.57-1.08.94-.31.15-.64.25-.99.29-.17-.19-.12-.45.01-.73.75-1.61.42-3.43-.88-4.52.43.03,1.07-.12,1.41-.46Z" style="fill: lime;"/>
        <path d="M78.75,32.3c-.53,4.08-6.02,6.69-8.83,9.3-.12,0-.44-.02-.32.22l-3.31.15c-1.61.07-3.34.34-4.76-.37,1.45-1.66,2.04-3.85,2.65-5.95.29,0,.47.19.68.53.69,1.09,2.22,2.08,3.32,1.37.09-.06.16-.15.25-.22.99,0,2.01-1.31,2.62-1.25.16.02.43.42.5.18.08-.3.03-.55.04-.82,1.88-.69,4.9-3.54,7.16-3.14Z" style="fill: lime;"/>
        <path d="M63.2,28.46l.25.04.39,1.94c.79,3.95-.7,7.77-2.55,11.2-1.69.46-3.51.12-5.24.03.03-.33.07-.66.21-.96.45.24,1.27.09,1.82.5-.2-1.02-1.12-.95-1.57-1.51.09-.95.49-1.84.72-2.77,1.51.03,2.94.32,4.62.65-1.15-1.21-2.72-1.35-4.14-1.49.18-.84.67-1.56.96-2.36,1.29.06,2.43.44,3.97.82-.73-1.31-2.07-1.29-3.28-1.74.71-1.78,1.95-3.7,3.86-4.35Z" style="fill: lime;"/>
        <path d="M63.2,28.46c-1.91.65-3.14,2.57-3.86,4.35-1.02.16-2.07-.14-3.16.49.89-.01,1.66.39,2.46.43-.29.8-.78,1.52-.96,2.36-1.14.1-2.29.14-3.52.86,1.17-.05,2.06-.03,3.04-.01-.23.93-.63,1.81-.72,2.77-.9.14-1.82-.39-2.84.32,1.04.24,1.74.24,2.59.7-.14.3-.18.63-.21.96-1.05-.06-2.12.12-3.17-.06-.1-1.13.5-2.19.51-3.32,0-.62.13-1.11.41-1.77,1.37-3.25,3.31-8.46,6.13-10.26.75-.15,1.57-.22,2.19.33.54.47,1.17,1.1,1.09,1.88Z" style="fill: lime;"/>
        <path d="M52.87,41.6c-.31-.05-.68.09-.9-.25.63-.68.76-3.06,1.41-3.07-.01,1.12-.61,2.18-.51,3.32Z" style="fill: lime;"/>
        <path d="M81.45,32.96c.3-2.7-1.7-.89-1.53-4.48.59-.58.78-1.57,1.26-2.16.51-.64,3.51-2.97,4.59-1.63s-4.24,3.73-3.25,4.85l.92,1.05c.62.7-1.19,1.9-1.99,2.37Z" style="fill: lime;"/>
        <path d="M79.9,25.15c-.01.41-.1,1.08.37,1.34.32.17.68-.15.91-.17-.48.6-.67,1.58-1.26,2.16-.34.34-.97.49-1.41.46-.32-.27-.87-.31-1.15-.67-.05-1.38-.61-4.97,1.18-5.56-.05.97.09,2.43,1.36,2.44Z" style="fill: lime;"/>
        <path d="M79.9,25.15c-1.27-.01-1.41-1.47-1.36-2.44.46-.15,1.12-.4,1.35.34s.03,1.45,0,2.1Z" style="fill: lime;"/>
        <path d="M63.74,24.45l1.18-1.02c-.14.12,2.46-1.17,2.07-2.18-.1-.26-.46-.8-.81-.61-.57.31-1.03.56-1.57.64-.36-.46-1.2-.61-1.42-1.18-.31-.8.14-2.89-.03-3.97.47-.18,1.32-.38,1.72.12.87,1.09.6,2.47.21,3.78.71-.23,1.4-.88,2.15-.57,1.6.65,1.95,2.57,1.21,4-.7,1.34-1.8,1.94-3.2,2.96-.08-.8-.86-1.45-1.51-1.97Z" style="fill: lime;"/>
        <path d="M63.18,20.1c.22.57,1.06.73,1.42,1.18-.52.96.25,1.2.31,2.14l-1.18,1.02c-.3-.02-.74-.27-1.03-.31.12-1.41-2.01-1.99-2.67-2.67.08-.22.21-.42.34-.62.27.05.48.09.52-.08.06-.34.18-.71.21-.89.69.07.71.78,1.47.71.24-.02.48-.24.63-.49Z" style="fill: lime;"/>
        <path d="M60.03,21.47c.67.68,2.79,1.26,2.67,2.67-.93-.11-1.83-.06-2.89.33-.55-3.01-4.99-3.79-3.79-5.58,1.03.58,3.16,2.97,4.01,2.59Z" style="fill: lime;"/>
        <path d="M64.15,27.97c-.44-.74-.91-1.44-1.43-2.12.05-.22.07-.44.06-.66.59.27,1.36.31,1.65,1,.26.62.19,1.31-.27,1.78Z" style="fill: lime;"/>
        <path d="M62.77,25.19c.01.22,0,.44-.06.66-.86-.45-1.7-.59-2.91-.48.93-.99,2-.63,2.98-.18Z" style="fill: lime;"/>
        <path d="M63.18,20.1c-.15.25-.39.47-.63.49-.76.07-.78-.64-1.47-.71.14-1.12.9-3.29,2.06-3.75.17,1.08-.28,3.17.03,3.97Z" style="fill: lime;"/>
        <path d="M71.05,36.07c-.61-.07-1.62,1.26-2.62,1.25-.09-1.37-1.21-2.81,0-4.57,1.38.8,2.1,2.08,2.62,3.33Z" style="fill: lime;"/>
        <path d="M57.69,36.08c1.43.15,3,.28,4.14,1.49-1.68-.33-3.11-.62-4.62-.65-.99-.02-1.87-.04-3.04.01,1.23-.72,2.38-.76,3.52-.86Z" style="fill: lime;"/>
        <path d="M59.34,32.8c1.21.45,2.54.43,3.28,1.74-1.55-.38-2.68-.76-3.97-.82-.81-.04-1.58-.44-2.46-.43,1.09-.63,2.14-.33,3.16-.49Z" style="fill: lime;"/>
        <path d="M56.49,39.69c.45.57,1.37.49,1.57,1.51-.55-.41-1.36-.26-1.82-.5-.85-.46-1.56-.46-2.59-.7,1.02-.71,1.94-.17,2.84-.32Z" style="fill: lime;"/>
        <g>
          <path d="M52.6,25.84c-.16.04-.3.13-.41.25l-.49-.05c-2.04-1.56-4.84.21-6.63.52.25-.48.02-.86-.43-1.62-.25.89-.77,1.66-.95,2.58-.04.21-.24.37-.41.48-1.71-.54-3.39-.75-4.77.7-.56.58-1.26,1.23-1.64,1.91-.22-.02-.45-.04-.67-.02-.49-1.7-1.7-.67-4.37-2.31-.78-.48-1.25-1.26-1.2-2.08.04-.66.53-1.86,1.35-1.92l3.3-.26c-.49-1.52-.17-3.15.93-4.06.86-.72,1.9-.71,2.95-.43.75.2,1.3,1.02,1.73,1.8.72-.74,1.9-.48,2.63-.69,1.01-.3,1.77-1.3,3.24-.71-.81-1.31-.74-2.61.19-3.55.75-.76,2.31-.77,3.15.02.7.66.98,1.45,1.28,2.34.87-.53,1.67-.76,2.32-.29,1.52,1.1,1.26,4.73-.72,6.52-.25.22-.52.57-.37.84ZM50.48,24.66c.54-.03,1.06.4,1.7.46.58-.51.86-1.21,1.11-1.85.5-1.29.86-2.83.11-4.17-.23-.42-.81-.27-1.2-.14-.34.12-.65.39-.69.87-.01.21-.38.22-.53.22-.12-1.63-.67-3.46-2.65-3.24-.66.07-1.21.44-1.32,1.22-.18,1.27.23,2.34,1.07,3.38-.77-.01-1.04-.62-1.69-.81-.77-.23-1.82.02-1.83.96-.01,1.54.44,2.98,1.11,4.39,1.61-.96,3.18-1.21,4.81-1.3ZM35.92,22.22c-.48.86.02,1.82.24,2.92-1.26-.24-2.28-.73-3.43-.32-.92.32-1.66,1.43-.96,2.26.85,1.02,2.15,1.48,3.49,1.91-.12-2.07,1.4-3.34,3.34-4.11,1.29-.52,2.61-.06,4.05.45.3.11.64.29.87.62.73-.65.77-5.02-1.36-4.36-.97.3-1.15,1.99-1.14,2.01,0,.06-.26-.14-.25-.25.08-.97-.19-1.88-1.03-2.55-.69-.55-1.25-.89-2.25-.45-.71.32-1.5.79-1.56,1.88ZM37.63,26.44c-.68.13-1.26.64-1.54,1.18-.36.68-.27,1.57.37,2.16.94-.91,1.61-2.09,2.79-2.78,1.04-.6,2.57-.13,3.78.02-1-2.15-3.88-1.81-5.4-.58Z" style="fill: lime;"/>
          <path d="M59.92,26.25c-2.82,1.8-4.76,7.01-6.13,10.26-.28.67-.4,1.15-.41,1.77-.65,0-.78,2.39-1.41,3.07-.07.02-.16,0-.23.02l1.24-4.37c.58-2.03.38-4.22.56-6.36.15-1.75-.43-3.28-1.35-4.56.11-.12.25-.2.41-.25.78.25,1.07,1.04,1.34,1.81,1.12,3.09-.27,3.59.09,6.24l2.16-4.5c.75-1.56,1.81-2.83,3.19-3.73.15.06.28.14.38.21.16.11.38.22.16.39Z" style="fill: lime;"/>
          <path d="M36.86,30.61c-1.41,2.55-1.5,5.54-.39,8.34.27.69.61,1.3.69,1.95-1.55-1.68-1.91-4.14-2.11-6.4-.05-.58.19-1.37.36-1.93.11-.37.74-.66.5-1.22-.11-.26.01-.64.27-.76.22-.02.45,0,.67.02Z" style="fill: lime;"/>
          <path d="M43.27,27.99l1.48,2.1c-1.51.9-2.34,2.86-2.38,4.62-2.08-.1-4.4-.02-5.68,1.95,2.1-.67,3.78-1.54,5.7-1.5.24.94-1,.67-.25,3.14-1.43.57-2.98,1.05-4.1,2.52l4.56-1.77c.19.79-.04,1.56-.27,2.32-1.67.04-3.32-.2-4.97-.23-.05-.09-.13-.16-.2-.23-.08-.66-.42-1.27-.69-1.95-1.11-2.8-1.02-5.79.39-8.34.38-.68,1.08-1.33,1.64-1.91,1.39-1.44,3.07-1.23,4.77-.7ZM36.62,36.73c0-.07-.05-.12-.12-.12s-.12.05-.12.12.05.12.12.12.12-.05.12-.12Z" style="fill: lime;"/>
          <path d="M52.19,26.09c.92,1.28,1.5,2.81,1.35,4.56-.18,2.13.02,4.32-.56,6.36l-1.24,4.37c-1.52.43-3.36.4-4.88-.04l.25-2.11c.89.22,2.39.6,2.82-.56s0-2.59.11-3.76c.55.02,1.22-.24,1.82-.37.83-.17,1.21-.94.93-1.7-.44-1.18-1.51-1.74-2.74-1.96l.31-2.85c.1-.9.83-1.45,1.34-2l.49.05Z" style="fill: lime;"/>
          <path d="M44.75,30.1c.97,1.37,2.01,9.26,1.76,11.26-1.39.16-2.79-.03-4.18,0,.23-.76.45-1.53.27-2.32.42-.16.93-.33,1.45-.63-.66-.38-1.28-.02-1.91-.12-.75-2.47.49-2.19.25-3.14-.03-.14-.01-.31-.01-.45.04-1.76.86-3.71,2.38-4.62Z" style="fill: lime;"/>
          <path d="M44.25,27.52c-.09.45.21.8.52,1.18,2.3,2.79,1.74,7.33,2.33,10.53l-.25,2.11c-.1-.03-.24.01-.34.02.25-2-.79-9.88-1.76-11.26l-1.48-2.1c.17-.1.37-.26.41-.48h.57Z" style="fill: lime;"/>
          <path d="M51.7,26.03c-.51.55-1.25,1.1-1.34,2l-.31,2.85c-.97.25-2.06,0-3.07.82,1.26.12,2.09-.33,3.1-.02l-.02,2.52c-.61.16-1.29.22-1.99.72.63.21,1.17-.04,1.97-.01-.11,1.16.32,2.59-.11,3.76s-1.93.77-2.82.56c-.59-3.2-.03-7.74-2.33-10.53-.31-.38-.61-.73-.52-1.18l.82-.96c1.79-.32,4.59-2.08,6.63-.52Z" style="fill: lime;"/>
          <path d="M48.34,16.81c.07,1,.51,1.92.95,2.82-.21,1.42,2.3,1.61.79,4.06.06.33.4.68.4.97-1.63.09-3.2.33-4.81,1.3-.67-1.41-1.12-2.85-1.11-4.39,0-.95,1.06-1.19,1.83-.96.65.19.92.8,1.69.81-.84-1.04-1.25-2.12-1.07-3.38.11-.79.66-1.15,1.32-1.22Z" style="fill: lime;"/>
          <path d="M38.58,24.15l.02.73c-1.94.78-3.46,2.04-3.34,4.11-1.34-.43-2.63-.89-3.49-1.91-.7-.83.05-1.94.96-2.26,1.15-.4,2.17.08,3.43.32-.22-1.1-.72-2.06-.24-2.92.5.08,1.27-.19,1.72.23.51.48.4,1.32.94,1.7Z" style="fill: lime;"/>
          <path d="M39.73,20.8c-.08.79,1.32,2.32.39,3.16-.41.37-1.05.24-1.54.19-.54-.38-.43-1.22-.94-1.7-.45-.42-1.22-.14-1.72-.23.06-1.08.84-1.56,1.56-1.88,1-.45,1.56-.1,2.25.45Z" style="fill: lime;"/>
          <path d="M50.99,20.05c.15,0,.51,0,.53-.22.32.06.66.24.78.51.13.29,0,.62-.06.95-.18.97.13,1.89,1.05,1.97-.25.64-.53,1.34-1.11,1.85-.64-.06-1.16-.49-1.7-.46,0-.29-.35-.64-.4-.97,1.52-2.45-1-2.64-.79-4.06.45.27,1.25.41,1.7.42Z" style="fill: lime;"/>
          <path d="M53.29,23.27c-.92-.08-1.23-1-1.05-1.97.06-.34.19-.67.06-.95-.12-.27-.47-.45-.78-.51.03-.48.35-.75.69-.87.39-.13.97-.28,1.2.14.75,1.34.39,2.88-.11,4.17Z" style="fill: lime;"/>
          <path d="M42.16,21.59c-.31,2.33.43,2.02.49,3.75-1.44-.51-2.75-.97-4.05-.45l-.02-.73c.49.05,1.13.18,1.54-.19.93-.84-.47-2.37-.39-3.16.85.67,1.11,1.59,1.03,2.55,0,.11.26.31.25.25,0-.02.17-1.71,1.14-2.01Z" style="fill: lime;"/>
          <path d="M42.65,25.33c-.06-1.72-.8-1.42-.49-3.75,2.13-.66,2.08,3.71,1.36,4.36-.22-.33-.56-.51-.87-.62Z" style="fill: lime;"/>
          <path d="M39.24,27c-.47-.34-1.03-.53-1.61-.56,1.51-1.24,4.4-1.57,5.4.58-1.21-.14-2.74-.62-3.78-.02Z" style="fill: lime;"/>
          <path d="M50.99,20.05c-.45-.01-1.25-.16-1.7-.42-.44-.89-.89-1.82-.95-2.82,1.98-.22,2.53,1.61,2.65,3.24Z" style="fill: lime;"/>
          <path d="M37.63,26.44c.58.03,1.14.22,1.61.56-1.18.68-1.85,1.87-2.79,2.78-.64-.59-.73-1.48-.37-2.16.29-.54.87-1.05,1.54-1.18Z" style="fill: lime;"/>
          <path d="M45.07,26.56l-.82.96h-.57c.18-.92.7-1.69.95-2.58.45.76.68,1.14.43,1.62Z" style="fill: lime;"/>
          <path d="M42.6,39.04l-4.56,1.77c1.12-1.47,2.66-1.95,4.1-2.52.62.09,1.25-.26,1.91.12-.52.3-1.02.46-1.45.63Z" style="fill: lime;"/>
          <path d="M42.38,34.71c0,.14-.02.31.01.45-1.91-.04-3.59.83-5.7,1.5,1.28-1.97,3.6-2.05,5.68-1.95Z" style="fill: lime;"/>
          <circle cx="36.5" cy="36.73" r=".12" style="fill: lime;"/>
          <path d="M50.05,30.89c1.23.22,2.3.79,2.74,1.96.28.75-.1,1.53-.93,1.7-.6.13-1.27.39-1.82.37-.79-.03-1.33.22-1.97.01.7-.5,1.38-.56,1.99-.72s1.73-.05,1.83-.71c.17-1.16-1.04-1.56-1.82-1.8-1.01-.31-1.84.13-3.1.02,1.01-.82,2.11-.57,3.07-.82Z" style="fill: lime;"/>
          <path d="M50.06,34.21l.02-2.52c.78.24,1.99.65,1.82,1.8-.1.66-1.2.55-1.83.71Z" style="fill: lime;"/>
        </g>
        <path d="M64.92,23.43c-.06-.95-.84-1.19-.31-2.14.54-.08,1-.33,1.57-.64.35-.19.71.35.81.61.39,1-2.21,2.3-2.07,2.18Z" style="fill: lime;"/>
      </g>
      <g>
        <path d="M23.93,25.13l-.24.44c-.64-.38-1.69-.26-2.37-.43-1.91-.47-4.39.92-4.56,3.1-.22.03-.45.08-.65.18.01-.42-.27-1.25-.8-1.35-2.06-.4-7.24-1.75-6.98-4.22.18-1.77,2.55-1.91,4.14-1.8-.73-1.21-.76-2.74.34-3.71.89-.79,2.06-.33,3,.59.45-1.15.77-2.22,1.62-2.82,1.8-1.27,5.07.39,5.47,2.8.13.79.44,1.44-.31,2.27,1.78.72,2.33,2.56,1.4,4.09-.19.32-.26.57-.09.87ZM17.73,16.23c-.57.41-.62.82-.76,1.5-.12.59-.33,1.26-.71,1.83-.8-.31-1.47-2.21-2.6-1.71-.51.23-.63.77-.71,1.28-.14.9.2,1.84.98,2.33-.06.14.11.8-.29.75-.38-.05-.91-.03-1.18-.16-.84-.4-1.91-.45-2.83.05-.46.25-.59.76-.54,1.2.17,1.67,5.13,3.09,6.63,3.34-.02-1.25.19-2.16.79-2.96.79-1.07,2.18-1.65,3.48-1.66s2.5.68,3.47,1.71c.26,0,.39-.42.43-.57.2-.74-.23-2.37-1.36-2.36l-.26-.25c.16-.48.16-1.04.17-1.64.03-2.04-1.52-3.52-3.46-3.57-.8-.02-.86.61-1.24.88ZM17.5,23.93c-1.01.43-1.24,1.74-1.15,2.85.69-.56,1.09-1.75,2.08-2.18,1.52-.66,3.26-.47,4.81-.03-1.24-2.22-4.01-2.07-5.73-.64Z" style="fill: lime;"/>
        <path d="M30.87,32.56c0,.07.03.14.02.21-.09.65.49,1.19.71,1.68l1.24,4.5c.15.53.41,1.09-.02,1.47-.88-3.43-2.12-6.76-4.01-9.86-1.31-2.16-3.05-3.75-5.13-4.98l.24-.44c2.11.57,3.57,2.41,4.9,4.21.8,1.09,1.07,2.42,2.04,3.22Z" style="fill: lime;"/>
        <path d="M16.76,28.24c-.33,4.21,1.64,8.6,4.08,11.94-1.26-.6-1.31-1.69-2.19-2.12v-.22c-1.18-2.15-2.21-4.43-2.59-6.98-.13-.87.03-1.67.05-2.43.2-.1.43-.15.65-.18Z" style="fill: lime;"/>
        <path d="M23.69,25.57c2.09,1.24,3.82,2.82,5.13,4.98,1.88,3.11,3.12,6.43,4.01,9.86l.04.26c-.09.24-.26.39-.61.37l-7.33-.43c.03-.86-1.09-1.43-1.26-2.62,1.54-.78,3.33-.52,5.24-.57-1.88-1.68-4.41-.42-5.89-.07-.26-.81-.7-1.56-.59-2.42,1.74-.74,3.47-1.22,5.56-1.5-2.07-.82-4.08-.01-6,.77-.55-.82-.51-1.93-.92-2.89-.51-1.21-1.04-2.37-.65-3.74.75-.63,1.04-1.53.89-2.43.68.17,1.73.05,2.37.43Z" style="fill: lime;"/>
        <path d="M21.32,25.14c.15.9-.14,1.8-.89,2.43-.39,1.37.14,2.53.65,3.74.41.96.36,2.06.92,2.89l-1.86,1.56c.8-.19,1.48-.47,2.3-.82-.11.86.33,1.61.59,2.42-.06.24-.24.37-.44.58l1.09.06c.17,1.2,1.29,1.76,1.26,2.62-1.27-.07-2.57,0-3.84-.22-.06-.09-.14-.17-.24-.22-2.44-3.34-4.41-7.73-4.08-11.94.17-2.18,2.65-3.57,4.56-3.1Z" style="fill: lime;"/>
        <path d="M22.27,20.56l.26.25c.27.9.5,1.9,1.36,2.36-.04.16-.17.58-.43.57-.97-1.03-2.12-1.71-3.47-1.71s-2.69.59-3.48,1.66c-.77.02-4.69-.13-4.04-1.63.27.13.8.11,1.18.16.4.05.23-.61.29-.75.36-.22.78-.48.92-.91.65.34,1.9-.12,2.24-.65.44-.68.53-1.63-.11-2.18.14-.69.19-1.09.76-1.5l1.64.1c.22,1.02-.13,2.08.35,3.04s1.63,1.23,2.55,1.18Z" style="fill: lime;"/>
        <path d="M12.47,22.06c-.65,1.5,3.28,1.65,4.04,1.63-.59.8-.81,1.71-.79,2.96-1.5-.25-6.46-1.67-6.63-3.34-.05-.45.09-.96.54-1.2.92-.5,1.98-.45,2.83-.05Z" style="fill: lime;"/>
        <path d="M22.27,20.56c-.92.05-2.08-.24-2.55-1.18s-.12-2.02-.35-3.04l-1.64-.1c.38-.28.44-.9,1.24-.88,1.95.05,3.5,1.52,3.46,3.57,0,.61,0,1.16-.17,1.64Z" style="fill: lime;"/>
        <path d="M16.97,17.73c.64.56.55,1.5.11,2.18-.34.53-1.58.99-2.24.65s-1.05-1.36-1.9-1.43c.08-.51.2-1.06.71-1.28,1.13-.51,1.8,1.4,2.6,1.71.38-.57.59-1.24.71-1.83Z" style="fill: lime;"/>
        <path d="M18.43,24.6c-.98.42-1.38,1.61-2.08,2.18-.09-1.11.14-2.42,1.15-2.85.33.21.83.25.93.67Z" style="fill: lime;"/>
        <path d="M14.85,20.57c-.13.43-.56.69-.92.91-.78-.5-1.12-1.44-.98-2.33.84.07,1.26,1.09,1.9,1.43Z" style="fill: lime;"/>
        <path d="M23.9,23.17c-.86-.46-1.09-1.47-1.36-2.36,1.13,0,1.56,1.62,1.36,2.36Z" style="fill: lime;"/>
        <path d="M18.43,24.6c-.1-.42-.6-.46-.93-.67,1.72-1.42,4.49-1.58,5.73.64-1.55-.45-3.29-.63-4.81.03Z" style="fill: lime;"/>
        <path d="M22.43,34.93c-.82.35-1.49.64-2.3.82l1.86-1.56c1.92-.78,3.93-1.59,6-.77-2.09.28-3.83.76-5.56,1.5Z" style="fill: lime;"/>
        <path d="M23.67,37.99l-1.09-.06c.2-.21.39-.35.44-.58,1.48-.34,4.01-1.6,5.89.07-1.91.05-3.7-.22-5.24.57Z" style="fill: lime;"/>
      </g>
    </g>
  </g>
</svg>