<?xml version="1.0" encoding="UTF-8"?>
<svg id="Layer_1" xmlns="http://www.w3.org/2000/svg" version="1.1" viewBox="0 0 500 500">
  <!-- Generator: Adobe Illustrator 30.1.0, SVG Export Plug-In . SVG Version: 2.1.1 Build 136)  -->
  <defs>
    <style>
      .st0 {
        fill: #231f20;
      }

      .st1, .st2 {
        fill: none;
        stroke: #231f20;
      }

      .st2 {
        stroke-width: .5px;
      }

      .st3 {
        fill: #dcddde;
      }
    </style>
  </defs>
  <rect class="st3" x="83.82" y="96.22" width="328.04" height="64.82" rx="29.5" ry="29.5"/>
  <g>
    <path class="st0" d="M154.32,147.35c-9.33,0-16.93-6.99-16.93-16.89s7.6-16.84,16.93-16.84,16.84,6.94,16.84,16.84-7.5,16.89-16.84,16.89ZM154.32,140.03c5.25,0,8.68-3.8,8.68-9.57s-3.43-9.57-8.68-9.57-8.73,3.71-8.73,9.57,3.38,9.57,8.73,9.57Z"/>
    <path class="st0" d="M190.8,113.72c7.83,0,13.74,4.41,15.62,11.54h-8.82c-1.36-2.81-3.85-4.22-6.89-4.22-4.92,0-8.3,3.66-8.3,9.47s3.38,9.47,8.3,9.47c3.05,0,5.53-1.41,6.89-4.22h8.82c-1.88,7.13-7.78,11.49-15.62,11.49-9.71,0-16.56-6.89-16.56-16.74s6.85-16.79,16.56-16.79Z"/>
    <path class="st0" d="M209.56,114.1h25.47v6.43h-8.73v26.5h-8.02v-26.5h-8.73v-6.43Z"/>
    <path class="st0" d="M254.62,147.35c-9.33,0-16.93-6.99-16.93-16.89s7.6-16.84,16.93-16.84,16.84,6.94,16.84,16.84-7.5,16.89-16.84,16.89ZM254.62,140.03c5.25,0,8.68-3.8,8.68-9.57s-3.43-9.57-8.68-9.57-8.73,3.71-8.73,9.57,3.38,9.57,8.73,9.57Z"/>
    <path class="st0" d="M291.24,147.02h-15.34v-32.92h14.82c6.71,0,10.69,3.33,10.69,8.54,0,3.99-2.39,6.57-5.58,7.5,3.85.8,6.33,4.17,6.33,7.93,0,5.44-3.98,8.96-10.93,8.96ZM289.18,120.52h-5.25v6.89h5.25c2.63,0,4.08-1.17,4.08-3.42s-1.45-3.47-4.08-3.47ZM289.74,133.28h-5.82v7.27h5.91c2.68,0,4.22-1.22,4.22-3.57s-1.64-3.71-4.31-3.71Z"/>
    <path class="st0" d="M326.98,120.52h-12.15v6.66h10.74v6.19h-10.74v7.22h12.15v6.43h-20.17v-32.92h20.17v6.43Z"/>
    <path class="st0" d="M345.64,114.1c8.06,0,12.1,4.64,12.1,10.36,0,4.13-2.25,8.02-7.31,9.52l7.6,13.04h-9.05l-6.85-12.43h-1.92v12.43h-8.02v-32.92h13.46ZM345.17,120.75h-4.97v8.16h4.97c3,0,4.41-1.55,4.41-4.13,0-2.44-1.41-4.03-4.41-4.03Z"/>
  </g>
  <g>
    <path class="st0" d="M43.99,197.64c-4.28,0-7.61-2.56-7.76-7.4h5.15c.14,1.84,1.1,2.73,2.46,2.73s2.32-.85,2.32-2.25c0-4.43-9.93-2.05-9.87-10.53,0-4.53,3.08-7.06,7.24-7.06s7.24,2.59,7.44,7.16h-5.24c-.08-1.53-.99-2.45-2.29-2.49-1.16-.03-2.04.68-2.04,2.18,0,4.16,9.82,2.28,9.82,10.3,0,4.02-2.6,7.36-7.24,7.36Z"/>
    <path class="st0" d="M69.8,197.4h-4.84v-2.59c-.96,1.64-2.66,2.8-4.78,2.8-3.65,0-6.12-3.03-6.12-8.11v-11.11h4.81v10.33c0,2.59,1.22,4.02,3.03,4.02s3.06-1.43,3.06-4.02v-10.33h4.84v19.02Z"/>
  </g>
  <g>
    <path class="st0" d="M96.47,173.47h5.72l5.57,16.56,5.52-16.56h5.69v23.93h-4.84v-14.35l-4.44,14.35h-3.9l-4.47-14.38v14.38h-4.84v-23.93Z"/>
    <path class="st0" d="M129.65,197.67c-4.64,0-8.15-3.75-8.15-9.78s3.6-9.78,8.21-9.78,8.21,3.75,8.21,9.78-3.62,9.78-8.26,9.78ZM129.65,192.63c1.72,0,3.34-1.53,3.34-4.74s-1.59-4.74-3.28-4.74-3.28,1.5-3.28,4.74,1.47,4.74,3.23,4.74Z"/>
  </g>
  <g>
    <path class="st0" d="M163.61,173.47h15.37v4.67h-5.26v19.26h-4.84v-19.26h-5.26v-4.67Z"/>
    <path class="st0" d="M197,197.4h-4.84v-2.59c-.96,1.64-2.66,2.8-4.78,2.8-3.65,0-6.12-3.03-6.12-8.11v-11.11h4.81v10.33c0,2.59,1.22,4.02,3.03,4.02s3.06-1.43,3.06-4.02v-10.33h4.84v19.02Z"/>
  </g>
  <g>
    <path class="st0" d="M227.59,173.47h5.18l2.86,17.42,3.54-17.42h5.32l3.39,17.42,2.89-17.42h5.2l-5.18,23.93h-5.86l-3.17-15.75-3.28,15.75h-5.86l-5.04-23.93Z"/>
    <path class="st0" d="M265.43,197.67c-4.64,0-7.98-3.75-7.98-9.78s3.28-9.78,7.98-9.78,7.87,3.68,7.87,9.48c0,.55-.03,1.12-.09,1.7h-10.95c.17,2.49,1.44,3.65,3,3.65,1.36,0,2.12-.82,2.52-1.84h5.15c-.76,3.71-3.56,6.58-7.5,6.58ZM262.29,186.05h6.05c0-2.08-1.36-3.27-2.97-3.27s-2.8,1.16-3.08,3.27Z"/>
  </g>
  <g>
    <path class="st0" d="M295.77,173.47h15.37v4.67h-5.26v19.26h-4.84v-19.26h-5.26v-4.67Z"/>
    <path class="st0" d="M313.57,172.18h4.84v8.76c.96-1.64,2.69-2.76,4.87-2.76,3.59,0,6,3,6,8.11v11.11h-4.81v-10.33c0-2.59-1.19-4.02-3.03-4.02s-3.03,1.43-3.03,4.02v10.33h-4.84v-25.22Z"/>
  </g>
  <g>
    <path class="st0" d="M356.52,173.47h12.93v4.67h-8.09v5.05h6.05v4.53h-6.05v9.68h-4.84v-23.93Z"/>
    <path class="st0" d="M376.84,197.4h-4.84v-19.02h4.84v3.17c1.1-2.01,2.83-3.37,4.95-3.37v6.17h-1.33c-2.29,0-3.62.96-3.62,4.23v8.83Z"/>
  </g>
  <g>
    <path class="st0" d="M414.85,197.64c-4.28,0-7.61-2.56-7.76-7.4h5.15c.14,1.84,1.11,2.73,2.46,2.73s2.32-.85,2.32-2.25c0-4.43-9.93-2.05-9.87-10.53,0-4.53,3.08-7.06,7.24-7.06s7.24,2.59,7.44,7.16h-5.24c-.08-1.53-.99-2.45-2.29-2.49-1.16-.03-2.04.68-2.04,2.18,0,4.16,9.82,2.28,9.82,10.3,0,4.02-2.61,7.36-7.24,7.36Z"/>
    <path class="st0" d="M431.07,178.11c2.35,0,4.02,1.29,4.87,2.96v-2.69h4.84v19.02h-4.84v-2.69c-.87,1.67-2.54,2.97-4.89,2.97-3.85,0-6.94-3.82-6.94-9.82s3.08-9.75,6.96-9.75ZM432.49,183.19c-1.81,0-3.45,1.64-3.45,4.67s1.64,4.74,3.45,4.74,3.45-1.67,3.45-4.7-1.61-4.7-3.45-4.7Z"/>
  </g>
  <path class="st0" d="M254.02,228.6v-2.83h2.6v24.64h-2.6v-21.81Z"/>
  <path class="st0" d="M310.1,247.92c5.37-5.22,10.47-10.12,10.47-15.17,0-2.73-.99-4.77-3.76-4.77s-4.02,2.22-4.13,5.32h-2.49c.17-5.25,2.91-7.98,6.59-7.98s6.34,2.73,6.34,7.29c0,6.14-5.49,11.35-9.14,14.93h9.73v2.59h-13.61v-2.21Z"/>
  <path class="st0" d="M376.33,225.29c3.99,0,6.17,2.79,6.17,6.34,0,2.83-1.47,5.05-3.62,5.62v.17c2.38.68,3.99,2.8,3.99,6.34,0,3.82-2.21,6.82-6.48,6.82-3.88,0-6.76-2.49-7.07-7.26h2.49c.25,2.62,1.84,4.64,4.55,4.64s4.05-1.94,4.05-4.46c0-3.48-2.01-4.81-5.69-4.81h-.65v-2.59h.68c3.42-.04,5.26-1.3,5.26-4.16,0-2.35-1.3-3.99-3.76-3.99s-3.85,1.64-4.1,4.02h-2.52c.25-4.23,2.91-6.68,6.71-6.68Z"/>
  <path class="st0" d="M442.73,244.44h-2.46v5.9h-2.69v-5.9h-9.9v-4.26l6.62-14.11h2.6l-6.57,15.27h7.24v-6.68h2.6v6.68h2.55v3.1Z"/>
  <path class="st0" d="M70.65,264.03v3.24h-6.85l-1.04,4.57c.79-.1,1.24-.14,1.36-.14,1.75,0,3.26.82,4.55,2.52,1.3,1.67,1.95,3.61,1.95,5.9s-.73,4.43-2.21,6.13c-1.5,1.67-3.28,2.49-5.43,2.49-2.69,0-4.9-1.4-6.57-4.26l2.44-1.84c1.19,1.8,2.6,2.69,4.24,2.69,1.36,0,2.49-.51,3.37-1.53.88-1.02,1.33-2.28,1.33-3.85s-.45-2.76-1.39-3.78c-.91-1.06-2.04-1.57-3.37-1.57-.82,0-1.5.17-2.09.51-.6.34-1.24.92-1.98,1.67l2.74-12.75h8.94Z"/>
  <path class="st0" d="M126.87,265.05l-4.28,7.53c.34-.04.6-.07.74-.07l.57-.03c1.81,0,3.42.78,4.78,2.32,1.39,1.57,2.06,3.37,2.06,5.42,0,2.42-.68,4.46-2.04,6.13-1.36,1.7-3.03,2.52-5.01,2.52s-3.65-.82-5.03-2.45c-1.39-1.67-2.09-3.65-2.09-6,0-1.77.42-3.44,1.3-4.98l6.96-12.1,2.04,1.7ZM126.7,276.64c-.85-1.06-1.87-1.57-3.03-1.57s-2.18.51-3.03,1.57c-.87,1.06-1.3,2.28-1.3,3.68s.42,2.66,1.24,3.68c.85.99,1.87,1.5,3.08,1.5s2.21-.51,3.06-1.53c.82-.99,1.24-2.21,1.24-3.65s-.42-2.66-1.27-3.68Z"/>
  <path class="st0" d="M191.66,264.2v2.35l-7.87,22.22h-2.6l7.98-21.92h-10.92v-2.66h13.41Z"/>
  <path class="st0" d="M245.33,270.3c0-3.61,2.26-6.54,6.71-6.54s6.74,2.96,6.74,6.54c0,2.66-1.27,4.7-3.28,5.66,2.32.85,3.82,3.1,3.82,6.17,0,4.46-2.94,7.33-7.27,7.33s-7.21-2.86-7.21-7.33c0-3.1,1.5-5.35,3.79-6.17-2.09-.99-3.28-2.9-3.28-5.66ZM247.29,282.03c0,2.9,1.84,4.84,4.75,4.84s4.73-1.98,4.73-4.84c0-3.17-2.04-4.7-4.73-4.7s-4.75,1.43-4.75,4.7ZM256.29,270.68c0-2.83-1.67-4.33-4.25-4.33s-4.22,1.47-4.22,4.36c0,2.56,1.73,4.23,4.22,4.23s4.25-1.7,4.25-4.26Z"/>
  <path class="st0" d="M312.39,287.04l4.22-7.36c-.6.1-1.02.14-1.33.14-1.89,0-3.51-.78-4.78-2.32-1.27-1.53-1.93-3.44-1.93-5.69s.71-4.09,2.09-5.73c1.42-1.64,3.03-2.42,4.9-2.42s3.48.82,4.87,2.49c1.39,1.64,2.06,3.58,2.06,5.76,0,1.77-.45,3.51-1.41,5.15l-6.65,11.73-2.04-1.74ZM318.53,268.46c-.82-1.02-1.81-1.53-2.97-1.53s-2.24.51-3.06,1.53c-.82.99-1.24,2.25-1.24,3.75,0,1.36.45,2.56,1.3,3.54.88.99,1.92,1.47,3.17,1.47,1.13,0,2.09-.48,2.88-1.47.8-.99,1.19-2.18,1.19-3.61s-.42-2.66-1.27-3.68Z"/>
  <g>
    <path class="st0" d="M359.86,266.96v-2.83h2.6v24.64h-2.6v-21.81Z"/>
    <path class="st0" d="M375.71,263.76c5.63,0,7.1,5.38,7.1,12.44s-1.47,12.58-7.1,12.58-7.13-5.42-7.13-12.58,1.47-12.44,7.13-12.44ZM375.71,266.59c-4.05,0-4.58,4.5-4.58,9.61s.54,9.75,4.58,9.75,4.56-4.43,4.56-9.75-.54-9.61-4.56-9.61Z"/>
  </g>
  <g>
    <path class="st0" d="M428.25,266.96v-2.83h2.6v24.64h-2.6v-21.81Z"/>
    <path class="st0" d="M437.31,266.96v-2.83h2.6v24.64h-2.6v-21.81Z"/>
  </g>
  <g>
    <path class="st0" d="M50.17,305.33v-2.83h2.6v24.64h-2.6v-21.81Z"/>
    <path class="st0" d="M58.58,324.65c5.37-5.22,10.47-10.12,10.47-15.17,0-2.73-.99-4.77-3.76-4.77s-4.02,2.22-4.13,5.32h-2.49c.17-5.25,2.91-7.98,6.59-7.98s6.34,2.73,6.34,7.29c0,6.14-5.49,11.35-9.14,14.93h9.73v2.59h-13.61v-2.21Z"/>
  </g>
  <g>
    <path class="st0" d="M109.46,305.33v-2.83h2.6v24.64h-2.6v-21.81Z"/>
    <path class="st0" d="M124.83,302.02c3.99,0,6.17,2.79,6.17,6.34,0,2.83-1.47,5.05-3.62,5.62v.17c2.38.68,3.99,2.8,3.99,6.34,0,3.82-2.21,6.82-6.48,6.82-3.88,0-6.76-2.49-7.07-7.26h2.49c.25,2.62,1.84,4.64,4.55,4.64s4.05-1.94,4.05-4.46c0-3.48-2.01-4.81-5.69-4.81h-.65v-2.59h.68c3.42-.04,5.26-1.3,5.26-4.16,0-2.35-1.3-3.99-3.76-3.99s-3.85,1.64-4.1,4.02h-2.52c.25-4.23,2.91-6.68,6.71-6.68Z"/>
  </g>
  <g>
    <path class="st0" d="M168,305.33v-2.83h2.6v24.64h-2.6v-21.81Z"/>
    <path class="st0" d="M191.23,321.18h-2.46v5.9h-2.69v-5.9h-9.9v-4.26l6.62-14.11h2.6l-6.57,15.27h7.24v-6.68h2.6v6.68h2.55v3.1Z"/>
  </g>
  <g>
    <path class="st0" d="M236.25,305.33v-2.83h2.6v24.64h-2.6v-21.81Z"/>
    <path class="st0" d="M258.24,302.4v3.24h-6.85l-1.04,4.57c.79-.1,1.24-.14,1.36-.14,1.75,0,3.26.82,4.55,2.52,1.3,1.67,1.95,3.61,1.95,5.9s-.73,4.43-2.21,6.13c-1.5,1.67-3.28,2.49-5.43,2.49-2.69,0-4.9-1.4-6.57-4.26l2.44-1.84c1.19,1.8,2.6,2.69,4.24,2.69,1.36,0,2.49-.51,3.37-1.53.88-1.02,1.33-2.28,1.33-3.85s-.45-2.76-1.39-3.78c-.91-1.06-2.04-1.57-3.37-1.57-.82,0-1.5.17-2.09.51-.6.34-1.24.92-1.98,1.67l2.74-12.75h8.94Z"/>
  </g>
  <g>
    <path class="st0" d="M299.99,305.33v-2.83h2.6v24.64h-2.6v-21.81Z"/>
    <path class="st0" d="M318.7,303.42l-4.28,7.53c.34-.04.6-.07.74-.07l.57-.03c1.81,0,3.42.78,4.78,2.32,1.39,1.57,2.06,3.37,2.06,5.42,0,2.42-.68,4.46-2.04,6.13-1.36,1.7-3.03,2.52-5.01,2.52s-3.65-.82-5.03-2.45c-1.39-1.67-2.09-3.65-2.09-6,0-1.77.42-3.44,1.3-4.98l6.96-12.1,2.04,1.7ZM318.53,315.01c-.85-1.06-1.87-1.57-3.03-1.57s-2.18.51-3.03,1.57c-.87,1.06-1.3,2.28-1.3,3.68s.42,2.66,1.24,3.68c.85.99,1.87,1.5,3.08,1.5s2.21-.51,3.06-1.53c.82-.99,1.24-2.21,1.24-3.65s-.42-2.66-1.27-3.68Z"/>
  </g>
  <g>
    <path class="st0" d="M362.18,305.33v-2.83h2.6v24.64h-2.6v-21.81Z"/>
    <path class="st0" d="M383.49,302.57v2.35l-7.87,22.22h-2.6l7.98-21.92h-10.92v-2.66h13.41Z"/>
  </g>
  <g>
    <path class="st0" d="M419.44,305.33v-2.83h2.6v24.64h-2.6v-21.81Z"/>
    <path class="st0" d="M428.61,308.67c0-3.61,2.26-6.54,6.71-6.54s6.74,2.96,6.74,6.54c0,2.66-1.27,4.7-3.28,5.66,2.32.85,3.82,3.1,3.82,6.17,0,4.46-2.94,7.33-7.27,7.33s-7.21-2.86-7.21-7.33c0-3.1,1.5-5.35,3.79-6.17-2.09-.99-3.28-2.9-3.28-5.66ZM430.57,320.39c0,2.9,1.84,4.84,4.75,4.84s4.73-1.98,4.73-4.84c0-3.17-2.04-4.7-4.73-4.7s-4.75,1.43-4.75,4.7ZM439.57,309.04c0-2.83-1.67-4.33-4.25-4.33s-4.22,1.47-4.22,4.36c0,2.56,1.73,4.23,4.22,4.23s4.25-1.7,4.25-4.26Z"/>
  </g>
  <g>
    <path class="st0" d="M48.61,343.69v-2.83h2.6v24.64h-2.6v-21.81Z"/>
    <path class="st0" d="M60.87,363.77l4.22-7.36c-.6.1-1.02.14-1.33.14-1.89,0-3.51-.78-4.78-2.32-1.27-1.53-1.93-3.44-1.93-5.69s.71-4.09,2.09-5.73c1.42-1.64,3.03-2.42,4.9-2.42s3.48.82,4.87,2.49c1.39,1.64,2.06,3.58,2.06,5.76,0,1.77-.45,3.51-1.41,5.15l-6.65,11.73-2.04-1.74ZM67.01,345.19c-.82-1.02-1.81-1.53-2.97-1.53s-2.24.51-3.06,1.53c-.82.99-1.24,2.25-1.24,3.75,0,1.36.45,2.56,1.3,3.54.88.99,1.92,1.47,3.17,1.47,1.13,0,2.09-.48,2.88-1.47.8-.99,1.19-2.18,1.19-3.61s-.42-2.66-1.27-3.68Z"/>
  </g>
  <g>
    <path class="st0" d="M100.49,363.02c5.37-5.22,10.47-10.12,10.47-15.17,0-2.73-.99-4.77-3.76-4.77s-4.02,2.22-4.13,5.32h-2.49c.17-5.25,2.91-7.98,6.59-7.98s6.34,2.73,6.34,7.29c0,6.14-5.49,11.35-9.14,14.93h9.73v2.59h-13.61v-2.21Z"/>
    <path class="st0" d="M124.21,340.49c5.63,0,7.1,5.38,7.1,12.44s-1.47,12.58-7.1,12.58-7.13-5.42-7.13-12.58,1.47-12.44,7.13-12.44ZM124.21,343.32c-4.05,0-4.58,4.5-4.58,9.61s.54,9.75,4.58,9.75,4.56-4.43,4.56-9.75-.54-9.61-4.56-9.61Z"/>
  </g>
  <g>
    <path class="st0" d="M168.88,363.02c5.37-5.22,10.47-10.12,10.47-15.17,0-2.73-.99-4.77-3.76-4.77s-4.02,2.22-4.13,5.32h-2.49c.17-5.25,2.91-7.98,6.59-7.98s6.34,2.73,6.34,7.29c0,6.14-5.49,11.35-9.14,14.93h9.73v2.59h-13.61v-2.21Z"/>
    <path class="st0" d="M185.81,343.69v-2.83h2.6v24.64h-2.6v-21.81Z"/>
  </g>
  <g>
    <path class="st0" d="M229.88,363.02c5.37-5.22,10.47-10.12,10.47-15.17,0-2.73-.99-4.77-3.76-4.77s-4.02,2.22-4.13,5.32h-2.49c.17-5.25,2.91-7.98,6.59-7.98s6.34,2.73,6.34,7.29c0,6.14-5.49,11.35-9.14,14.93h9.73v2.59h-13.61v-2.21Z"/>
    <path class="st0" d="M246.16,363.02c5.37-5.22,10.47-10.12,10.47-15.17,0-2.73-.99-4.77-3.76-4.77s-4.02,2.22-4.13,5.32h-2.49c.17-5.25,2.91-7.98,6.59-7.98s6.34,2.73,6.34,7.29c0,6.14-5.49,11.35-9.14,14.93h9.73v2.59h-13.61v-2.21Z"/>
  </g>
  <g>
    <path class="st0" d="M293.43,363.02c5.37-5.22,10.47-10.12,10.47-15.17,0-2.73-.99-4.77-3.76-4.77s-4.02,2.22-4.13,5.32h-2.49c.17-5.25,2.91-7.98,6.59-7.98s6.34,2.73,6.34,7.29c0,6.14-5.49,11.35-9.14,14.93h9.73v2.59h-13.61v-2.21Z"/>
    <path class="st0" d="M316.67,340.39c3.99,0,6.17,2.79,6.17,6.34,0,2.83-1.47,5.05-3.62,5.62v.17c2.38.68,3.99,2.8,3.99,6.34,0,3.82-2.21,6.82-6.48,6.82-3.88,0-6.76-2.49-7.07-7.26h2.49c.25,2.62,1.84,4.64,4.55,4.64s4.05-1.94,4.05-4.46c0-3.48-2.01-4.81-5.69-4.81h-.65v-2.59h.68c3.42-.04,5.26-1.3,5.26-4.16,0-2.35-1.3-3.99-3.76-3.99s-3.85,1.64-4.1,4.02h-2.52c.25-4.23,2.91-6.68,6.71-6.68Z"/>
  </g>
  <g>
    <path class="st0" d="M351.96,363.02c5.37-5.22,10.47-10.12,10.47-15.17,0-2.73-.99-4.77-3.76-4.77s-4.02,2.22-4.13,5.32h-2.49c.17-5.25,2.91-7.98,6.59-7.98s6.34,2.73,6.34,7.29c0,6.14-5.49,11.35-9.14,14.93h9.73v2.59h-13.61v-2.21Z"/>
    <path class="st0" d="M383.07,359.54h-2.46v5.9h-2.69v-5.9h-9.9v-4.26l6.62-14.11h2.6l-6.57,15.27h7.24v-6.68h2.6v6.68h2.55v3.1Z"/>
  </g>
  <g>
    <path class="st0" d="M411.66,363.02c5.37-5.22,10.47-10.12,10.47-15.17,0-2.73-.99-4.77-3.76-4.77s-4.02,2.22-4.13,5.32h-2.49c.17-5.25,2.91-7.98,6.59-7.98s6.34,2.73,6.34,7.29c0,6.14-5.49,11.35-9.14,14.93h9.73v2.59h-13.61v-2.21Z"/>
    <path class="st0" d="M441.52,340.76v3.24h-6.85l-1.04,4.57c.79-.1,1.24-.14,1.36-.14,1.75,0,3.26.82,4.55,2.52,1.3,1.67,1.95,3.61,1.95,5.9s-.73,4.43-2.21,6.13c-1.5,1.67-3.28,2.49-5.43,2.49-2.69,0-4.9-1.4-6.57-4.26l2.44-1.84c1.19,1.8,2.6,2.69,4.24,2.69,1.36,0,2.49-.51,3.37-1.53.88-1.02,1.33-2.28,1.33-3.85s-.45-2.76-1.39-3.78c-.91-1.06-2.04-1.57-3.37-1.57-.82,0-1.5.17-2.09.51-.6.34-1.24.92-1.98,1.67l2.74-12.75h8.94Z"/>
  </g>
  <g>
    <path class="st0" d="M40.6,401.39c5.37-5.22,10.47-10.12,10.47-15.17,0-2.73-.99-4.77-3.76-4.77s-4.02,2.22-4.13,5.32h-2.49c.17-5.25,2.91-7.98,6.59-7.98s6.34,2.73,6.34,7.29c0,6.14-5.49,11.35-9.14,14.93h9.73v2.59h-13.61v-2.21Z"/>
    <path class="st0" d="M67.18,380.15l-4.28,7.53c.34-.04.6-.07.74-.07l.57-.03c1.81,0,3.42.78,4.78,2.32,1.39,1.57,2.06,3.37,2.06,5.42,0,2.42-.68,4.46-2.04,6.13-1.36,1.7-3.03,2.52-5.01,2.52s-3.65-.82-5.03-2.45c-1.39-1.67-2.09-3.65-2.09-6,0-1.77.42-3.44,1.3-4.98l6.96-12.1,2.04,1.7ZM67.01,391.74c-.85-1.06-1.87-1.57-3.03-1.57s-2.18.51-3.03,1.57c-.87,1.06-1.3,2.28-1.3,3.68s.42,2.66,1.24,3.68c.85.99,1.87,1.5,3.08,1.5s2.21-.51,3.06-1.53c.82-.99,1.24-2.21,1.24-3.65s-.42-2.66-1.27-3.68Z"/>
  </g>
  <g>
    <path class="st0" d="M102.82,401.39c5.37-5.22,10.47-10.12,10.47-15.17,0-2.73-.99-4.77-3.76-4.77s-4.02,2.22-4.13,5.32h-2.49c.17-5.25,2.91-7.98,6.59-7.98s6.34,2.73,6.34,7.29c0,6.14-5.49,11.35-9.14,14.93h9.73v2.59h-13.61v-2.21Z"/>
    <path class="st0" d="M131.99,379.3v2.35l-7.87,22.22h-2.6l7.98-21.92h-10.92v-2.66h13.41Z"/>
  </g>
  <g>
    <path class="st0" d="M160.08,401.39c5.37-5.22,10.47-10.12,10.47-15.17,0-2.73-.99-4.77-3.76-4.77s-4.02,2.22-4.13,5.32h-2.49c.17-5.25,2.91-7.98,6.59-7.98s6.34,2.73,6.34,7.29c0,6.14-5.49,11.35-9.14,14.93h9.73v2.59h-13.61v-2.21Z"/>
    <path class="st0" d="M177.12,385.4c0-3.61,2.26-6.54,6.71-6.54s6.74,2.96,6.74,6.54c0,2.66-1.27,4.7-3.28,5.66,2.32.85,3.82,3.1,3.82,6.17,0,4.46-2.94,7.33-7.27,7.33s-7.21-2.86-7.21-7.33c0-3.1,1.5-5.35,3.79-6.17-2.09-.99-3.28-2.9-3.28-5.66ZM179.07,397.13c0,2.9,1.84,4.84,4.75,4.84s4.73-1.98,4.73-4.84c0-3.17-2.04-4.7-4.73-4.7s-4.75,1.43-4.75,4.7ZM188.07,385.78c0-2.83-1.67-4.33-4.25-4.33s-4.22,1.47-4.22,4.36c0,2.56,1.73,4.23,4.22,4.23s4.25-1.7,4.25-4.26Z"/>
  </g>
  <g>
    <path class="st0" d="M228.32,401.39c5.37-5.22,10.47-10.12,10.47-15.17,0-2.73-.99-4.77-3.76-4.77s-4.02,2.22-4.13,5.32h-2.49c.17-5.25,2.91-7.98,6.59-7.98s6.34,2.73,6.34,7.29c0,6.14-5.49,11.35-9.14,14.93h9.73v2.59h-13.61v-2.21Z"/>
    <path class="st0" d="M248.45,402.14l4.22-7.36c-.6.1-1.02.14-1.33.14-1.89,0-3.51-.78-4.78-2.32-1.27-1.53-1.93-3.44-1.93-5.69s.71-4.09,2.09-5.73c1.42-1.64,3.03-2.42,4.9-2.42s3.48.82,4.87,2.49c1.39,1.64,2.07,3.58,2.07,5.76,0,1.77-.45,3.51-1.42,5.15l-6.65,11.73-2.04-1.74ZM254.59,383.56c-.82-1.02-1.81-1.53-2.97-1.53s-2.24.51-3.06,1.53c-.82.99-1.24,2.25-1.24,3.75,0,1.36.45,2.56,1.3,3.54.87.99,1.92,1.47,3.17,1.47,1.13,0,2.09-.48,2.88-1.47.8-.99,1.19-2.18,1.19-3.61s-.42-2.66-1.27-3.68Z"/>
  </g>
  <g>
    <path class="st0" d="M298.89,378.76c3.99,0,6.17,2.79,6.17,6.34,0,2.83-1.47,5.05-3.62,5.62v.17c2.38.68,3.99,2.8,3.99,6.34,0,3.82-2.21,6.82-6.48,6.82-3.88,0-6.76-2.49-7.07-7.26h2.49c.25,2.62,1.84,4.64,4.55,4.64s4.05-1.94,4.05-4.46c0-3.48-2.01-4.81-5.69-4.81h-.65v-2.59h.68c3.42-.04,5.26-1.3,5.26-4.16,0-2.35-1.3-3.99-3.76-3.99s-3.85,1.64-4.1,4.02h-2.52c.25-4.23,2.91-6.68,6.71-6.68Z"/>
    <path class="st0" d="M316.04,378.86c5.63,0,7.1,5.38,7.1,12.44s-1.47,12.58-7.1,12.58-7.13-5.42-7.13-12.58,1.47-12.44,7.13-12.44ZM316.04,381.69c-4.05,0-4.58,4.5-4.58,9.61s.54,9.75,4.58,9.75,4.56-4.43,4.56-9.75-.54-9.61-4.56-9.61Z"/>
  </g>
  <g>
    <path class="st0" d="M367.28,378.76c3.99,0,6.17,2.79,6.17,6.34,0,2.83-1.47,5.05-3.62,5.62v.17c2.38.68,3.99,2.8,3.99,6.34,0,3.82-2.21,6.82-6.48,6.82-3.88,0-6.76-2.49-7.07-7.26h2.49c.25,2.62,1.84,4.64,4.55,4.64s4.05-1.94,4.05-4.46c0-3.48-2.01-4.81-5.69-4.81h-.65v-2.59h.68c3.42-.04,5.26-1.3,5.26-4.16,0-2.35-1.3-3.99-3.76-3.99s-3.85,1.64-4.1,4.02h-2.52c.25-4.23,2.91-6.68,6.71-6.68Z"/>
    <path class="st0" d="M377.64,382.06v-2.83h2.6v24.64h-2.6v-21.81Z"/>
  </g>
  <line class="st2" x1="37.3" y1="216.99" x2="448.52" y2="216.99"/>
  <path class="st1" d="M34.76,79.31c-6.67,0-12.09,5.41-12.09,12.09v317.37c0,6.68,5.41,12.09,12.09,12.09h430.15c6.67,0,12.08-5.41,12.08-12.09V91.39c0-6.68-5.41-12.09-12.08-12.09H34.76Z"/>
</svg>