<?xml version="1.0" encoding="UTF-8"?>
<svg id="Layer_1" xmlns="http://www.w3.org/2000/svg" version="1.1" viewBox="0 0 507.16 475.06">
  <!-- Generator: Adobe Illustrator 30.1.0, SVG Export Plug-In . SVG Version: 2.1.1 Build 136)  -->
  <defs>
    <style>
      .st0 {
        stroke-width: 2px;
      }

      .st0, .st1 {
        fill: none;
        stroke: #231f20;
      }

      .st2 {
        fill: #231f20;
      }

      .st3 {
        fill: #fff;
      }
    </style>
  </defs>
  <rect class="st3" x="140.1" y="35.56" width="230.48" height="69.49" rx="25.52" ry="25.52"/>
  <rect class="st0" x="140.1" y="35.56" width="230.48" height="69.49" rx="25.52" ry="25.52"/>
  <g>
    <path class="st2" d="M204.12,55.94h9.68l9.44,23.3,9.35-23.3h9.64v33.66h-8.2v-20.18l-7.53,20.18h-6.62l-7.57-20.23v20.23h-8.2v-33.66Z"/>
    <path class="st2" d="M269.08,83.65h-12.56l-2.01,5.95h-8.58l12.18-33.66h9.49l12.18,33.66h-8.68l-2.01-5.95ZM262.8,65l-4.12,12.32h8.29l-4.17-12.32Z"/>
    <path class="st2" d="M280.83,55.94h9.3l6.52,14.1,6.47-14.1h9.21l-11.65,22.53v11.12h-8.2v-11.12l-11.65-22.53Z"/>
  </g>
  <g>
    <path class="st2" d="M44.15,162.73c-4.65,0-7.93-2.59-8-6.41h3.22c.2,1.92,1.56,3.85,4.78,3.85,2.92,0,4.65-1.66,4.65-3.85,0-6.24-12.52-2.26-12.52-10.86,0-3.82,3.09-6.41,7.67-6.41s7.3,2.42,7.67,5.94h-3.32c-.2-1.56-1.66-3.32-4.48-3.35-2.49-.07-4.45,1.23-4.45,3.72,0,5.98,12.48,2.26,12.48,10.82,0,3.29-2.69,6.54-7.7,6.54Z"/>
    <path class="st2" d="M72.43,162.5h-3.02v-2.69c-1.16,1.89-3.39,2.95-5.81,2.95-4.18,0-7.47-2.59-7.47-7.8v-10.66h2.99v10.26c0,3.69,2.03,5.58,5.08,5.58s5.21-1.92,5.21-5.84v-9.99h3.02v18.19Z"/>
  </g>
  <g>
    <path class="st2" d="M103.19,139.53h3.25l8.5,18.99,8.5-18.99h3.22v22.98h-3.02v-17.13l-7.64,17.13h-2.12l-7.67-17.16v17.16h-3.02v-22.98Z"/>
    <path class="st2" d="M139.7,162.8c-5.15,0-9.06-3.65-9.06-9.43s4.05-9.36,9.2-9.36,9.2,3.62,9.2,9.36-4.15,9.43-9.33,9.43ZM139.7,160.14c3.15,0,6.24-2.16,6.24-6.77s-3.02-6.74-6.14-6.74-6.08,2.16-6.08,6.74,2.82,6.77,5.97,6.77Z"/>
  </g>
  <g>
    <path class="st2" d="M171.83,139.36h15.67v2.46h-6.31v20.68h-3.02v-20.68h-6.34v-2.46Z"/>
    <path class="st2" d="M207.35,162.5h-3.02v-2.69c-1.16,1.89-3.39,2.95-5.81,2.95-4.18,0-7.47-2.59-7.47-7.8v-10.66h2.99v10.26c0,3.69,2.03,5.58,5.08,5.58s5.21-1.92,5.21-5.84v-9.99h3.02v18.19Z"/>
  </g>
  <g>
    <path class="st2" d="M234.16,139.36h3.22l5.05,19.62,5.58-19.62h3.39l5.31,19.56,5.08-19.56h3.25l-6.71,23.14h-3.39l-5.38-18.62-5.58,18.62-3.35.03-6.47-23.17Z"/>
    <path class="st2" d="M276.22,162.8c-5.18,0-9-3.65-9-9.43s3.68-9.36,9-9.36,8.73,3.72,8.73,8.7c0,.66-.03,1.2-.1,1.83h-14.54c.23,3.69,2.82,5.71,5.91,5.71,2.72,0,4.45-1.39,5.11-3.35h3.25c-.93,3.32-3.85,5.91-8.37,5.91ZM270.34,152.08h11.49c.03-3.55-2.62-5.51-5.74-5.51-2.95,0-5.41,1.96-5.74,5.51Z"/>
  </g>
  <g>
    <path class="st2" d="M304.59,139.36h15.67v2.46h-6.31v20.68h-3.02v-20.68h-6.34v-2.46Z"/>
    <path class="st2" d="M323.97,137.93h3.02v9c1.2-1.93,3.45-2.95,6.01-2.95,4.05,0,7.27,2.59,7.27,7.8v10.72h-2.99v-10.29c0-3.72-2.03-5.61-5.08-5.61s-5.21,1.93-5.21,5.84v10.06h-3.02v-24.57Z"/>
  </g>
  <g>
    <path class="st2" d="M368.72,139.36h13.08v2.46h-10.06v7.8h8.17v2.46h-8.17v10.42h-3.02v-23.14Z"/>
    <path class="st2" d="M388.47,162.5h-3.02v-18.19h3.02v2.95c1.03-2.03,2.99-3.29,5.87-3.29v3.12h-.8c-2.89,0-5.08,1.29-5.08,5.51v9.89Z"/>
  </g>
  <g>
    <path class="st2" d="M435.07,162.73c-4.65,0-7.93-2.59-8-6.41h3.22c.2,1.92,1.56,3.85,4.78,3.85,2.92,0,4.65-1.66,4.65-3.85,0-6.24-12.52-2.26-12.52-10.86,0-3.82,3.09-6.41,7.67-6.41s7.3,2.42,7.67,5.94h-3.32c-.2-1.56-1.66-3.32-4.48-3.35-2.49-.07-4.45,1.23-4.45,3.72,0,5.98,12.48,2.26,12.48,10.82,0,3.29-2.69,6.54-7.7,6.54Z"/>
    <path class="st2" d="M454.72,144.01c3.39,0,5.71,1.73,6.77,3.62v-3.32h3.05v18.19h-3.05v-3.39c-1.09,1.96-3.45,3.69-6.81,3.69-4.85,0-8.6-3.82-8.6-9.46s3.75-9.33,8.63-9.33ZM455.31,146.63c-3.32,0-6.14,2.42-6.14,6.71s2.82,6.81,6.14,6.81,6.18-2.49,6.18-6.77-2.86-6.74-6.18-6.74Z"/>
  </g>
  <path class="st2" d="M450.2,202.73v-2.76h3.05v24h-3.05v-21.25Z"/>
  <path class="st2" d="M53.74,262.12c6.31-5.08,12.28-9.86,12.28-14.77,0-2.66-1.16-4.65-4.42-4.65s-4.71,2.16-4.85,5.18h-2.92c.2-5.11,3.42-7.77,7.74-7.77s7.44,2.66,7.44,7.11c0,5.97-6.44,11.05-10.73,14.54h11.42v2.52h-15.97v-2.16Z"/>
  <path class="st2" d="M124.14,240.07c4.68,0,7.24,2.72,7.24,6.17,0,2.76-1.73,4.91-4.25,5.48v.17c2.79.66,4.68,2.72,4.68,6.18,0,3.72-2.59,6.64-7.6,6.64-4.55,0-7.94-2.42-8.3-7.07h2.92c.3,2.56,2.16,4.52,5.34,4.52s4.75-1.89,4.75-4.35c0-3.39-2.36-4.68-6.67-4.68h-.76v-2.52h.8c4.02-.03,6.18-1.26,6.18-4.05,0-2.29-1.53-3.88-4.42-3.88s-4.52,1.59-4.82,3.92h-2.95c.3-4.12,3.42-6.51,7.87-6.51Z"/>
  <path class="st2" d="M198.42,258.73h-2.89v5.74h-3.15v-5.74h-11.62v-4.15l7.77-13.74h3.05l-7.7,14.87h8.5v-6.51h3.05v6.51h2.99v3.02Z"/>
  <path class="st2" d="M270.74,240.44v3.15h-8.03l-1.23,4.45c.93-.1,1.46-.13,1.59-.13,2.06,0,3.82.8,5.35,2.46,1.53,1.63,2.29,3.52,2.29,5.74s-.86,4.32-2.59,5.98c-1.76,1.63-3.85,2.42-6.37,2.42-3.15,0-5.74-1.36-7.7-4.15l2.86-1.79c1.39,1.76,3.05,2.62,4.98,2.62,1.6,0,2.92-.5,3.95-1.49,1.03-1,1.56-2.22,1.56-3.75s-.53-2.69-1.63-3.69c-1.06-1.03-2.39-1.53-3.95-1.53-.96,0-1.76.17-2.46.5-.7.33-1.46.89-2.32,1.63l3.22-12.42h10.49Z"/>
  <path class="st2" d="M329.36,241.43l-5.01,7.34c.4-.03.7-.07.86-.07l.66-.03c2.12,0,4.02.76,5.61,2.26,1.63,1.53,2.42,3.29,2.42,5.28,0,2.36-.8,4.35-2.39,5.98-1.59,1.66-3.55,2.46-5.88,2.46s-4.28-.8-5.91-2.39c-1.63-1.63-2.46-3.55-2.46-5.84,0-1.73.5-3.35,1.53-4.85l8.17-11.79,2.39,1.66ZM329.16,252.72c-1-1.03-2.19-1.53-3.55-1.53s-2.56.5-3.55,1.53c-1.03,1.03-1.53,2.23-1.53,3.59s.5,2.59,1.46,3.59c1,.96,2.19,1.46,3.62,1.46s2.59-.5,3.59-1.49c.96-.96,1.46-2.16,1.46-3.55s-.5-2.59-1.49-3.59Z"/>
  <path class="st2" d="M394.38,240.61v2.29l-9.23,21.65h-3.05l9.36-21.35h-12.82v-2.59h15.74Z"/>
  <path class="st2" d="M440.01,246.55c0-3.52,2.66-6.37,7.87-6.37s7.9,2.89,7.9,6.37c0,2.59-1.49,4.58-3.85,5.51,2.72.83,4.48,3.02,4.48,6.01,0,4.35-3.45,7.14-8.53,7.14s-8.47-2.79-8.47-7.14c0-3.02,1.76-5.21,4.45-6.01-2.46-.96-3.85-2.82-3.85-5.51ZM442.3,257.97c0,2.82,2.16,4.71,5.58,4.71s5.54-1.92,5.54-4.71c0-3.09-2.39-4.58-5.54-4.58s-5.58,1.39-5.58,4.58ZM452.86,246.91c0-2.76-1.96-4.22-4.98-4.22s-4.95,1.43-4.95,4.25c0,2.49,2.03,4.12,4.95,4.12s4.98-1.66,4.98-4.15Z"/>
  <path class="st2" d="M56.43,303.42l4.95-7.17c-.7.1-1.2.13-1.56.13-2.22,0-4.12-.76-5.61-2.26-1.49-1.49-2.26-3.35-2.26-5.54s.83-3.98,2.46-5.58c1.66-1.59,3.55-2.36,5.74-2.36s4.08.8,5.71,2.42c1.63,1.6,2.42,3.49,2.42,5.61,0,1.73-.53,3.42-1.66,5.01l-7.8,11.42-2.39-1.69ZM63.63,285.32c-.96-1-2.12-1.49-3.49-1.49-1.43,0-2.62.5-3.59,1.49-.96.96-1.46,2.19-1.46,3.65,0,1.33.53,2.49,1.53,3.45,1.03.96,2.26,1.43,3.72,1.43,1.33,0,2.46-.46,3.39-1.43s1.39-2.12,1.39-3.52-.5-2.59-1.49-3.59Z"/>
  <g>
    <path class="st2" d="M104.82,283.86v-2.76h3.06v24h-3.06v-21.25Z"/>
    <path class="st2" d="M123.41,280.74c6.61,0,8.33,5.25,8.33,12.12s-1.73,12.25-8.33,12.25-8.37-5.28-8.37-12.25,1.73-12.12,8.37-12.12ZM123.41,283.49c-4.75,0-5.38,4.38-5.38,9.36s.63,9.5,5.38,9.5,5.35-4.32,5.35-9.5-.63-9.36-5.35-9.36Z"/>
  </g>
  <g>
    <path class="st2" d="M181.42,283.86v-2.76h3.06v24h-3.06v-21.25Z"/>
    <path class="st2" d="M192.04,283.86v-2.76h3.06v24h-3.06v-21.25Z"/>
  </g>
  <g>
    <path class="st2" d="M246.71,283.86v-2.76h3.06v24h-3.06v-21.25Z"/>
    <path class="st2" d="M256.56,302.68c6.31-5.08,12.28-9.86,12.28-14.77,0-2.66-1.16-4.65-4.42-4.65s-4.71,2.16-4.85,5.18h-2.92c.2-5.11,3.42-7.77,7.74-7.77s7.44,2.66,7.44,7.11c0,5.97-6.44,11.05-10.73,14.54h11.42v2.52h-15.97v-2.16Z"/>
  </g>
  <g>
    <path class="st2" d="M308.94,283.86v-2.76h3.06v24h-3.06v-21.25Z"/>
    <path class="st2" d="M326.96,280.64c4.68,0,7.24,2.72,7.24,6.17,0,2.76-1.73,4.91-4.25,5.48v.17c2.79.66,4.68,2.72,4.68,6.18,0,3.72-2.59,6.64-7.6,6.64-4.55,0-7.94-2.42-8.3-7.07h2.92c.3,2.56,2.16,4.52,5.34,4.52s4.75-1.89,4.75-4.35c0-3.39-2.36-4.68-6.67-4.68h-.76v-2.52h.8c4.02-.03,6.18-1.26,6.18-4.05,0-2.29-1.53-3.88-4.42-3.88s-4.52,1.59-4.82,3.92h-2.95c.3-4.12,3.42-6.51,7.87-6.51Z"/>
  </g>
  <g>
    <path class="st2" d="M366.62,283.86v-2.76h3.06v24h-3.06v-21.25Z"/>
    <path class="st2" d="M393.88,299.3h-2.89v5.74h-3.15v-5.74h-11.62v-4.15l7.77-13.74h3.05l-7.7,14.87h8.5v-6.51h3.05v6.51h2.99v3.02Z"/>
  </g>
  <g>
    <path class="st2" d="M429.35,283.86v-2.76h3.05v24h-3.05v-21.25Z"/>
    <path class="st2" d="M455.15,281v3.15h-8.03l-1.23,4.45c.93-.1,1.46-.13,1.6-.13,2.06,0,3.82.8,5.34,2.46,1.53,1.63,2.29,3.52,2.29,5.74s-.86,4.32-2.59,5.98c-1.76,1.63-3.85,2.42-6.37,2.42-3.15,0-5.74-1.36-7.7-4.15l2.86-1.79c1.39,1.76,3.05,2.62,4.98,2.62,1.59,0,2.92-.5,3.95-1.49s1.56-2.22,1.56-3.75-.53-2.69-1.63-3.69c-1.06-1.03-2.39-1.53-3.95-1.53-.96,0-1.76.17-2.46.5-.7.33-1.46.89-2.32,1.63l3.22-12.42h10.49Z"/>
  </g>
  <g>
    <path class="st2" d="M41.89,324.43v-2.76h3.06v24h-3.06v-21.25Z"/>
    <path class="st2" d="M63.83,322.57l-5.01,7.34c.4-.03.7-.07.86-.07l.66-.03c2.12,0,4.02.76,5.61,2.26,1.63,1.53,2.42,3.29,2.42,5.28,0,2.36-.8,4.35-2.39,5.98-1.59,1.66-3.55,2.46-5.88,2.46s-4.28-.8-5.91-2.39c-1.63-1.63-2.46-3.55-2.46-5.84,0-1.73.5-3.35,1.53-4.85l8.17-11.79,2.39,1.66ZM63.63,333.86c-1-1.03-2.19-1.53-3.55-1.53s-2.56.5-3.55,1.53c-1.03,1.03-1.53,2.23-1.53,3.59s.5,2.59,1.46,3.59c1,.96,2.19,1.46,3.62,1.46s2.59-.5,3.59-1.49c.96-.96,1.46-2.16,1.46-3.55s-.5-2.59-1.49-3.59Z"/>
  </g>
  <g>
    <path class="st2" d="M107.54,324.43v-2.76h3.06v24h-3.06v-21.25Z"/>
    <path class="st2" d="M132.54,321.74v2.29l-9.23,21.65h-3.05l9.36-21.35h-12.82v-2.59h15.74Z"/>
  </g>
  <g>
    <path class="st2" d="M171.1,324.43v-2.76h3.06v24h-3.06v-21.25Z"/>
    <path class="st2" d="M181.85,327.68c0-3.52,2.66-6.37,7.87-6.37s7.9,2.89,7.9,6.37c0,2.59-1.49,4.58-3.85,5.51,2.72.83,4.48,3.02,4.48,6.01,0,4.35-3.45,7.14-8.53,7.14s-8.47-2.79-8.47-7.14c0-3.02,1.76-5.21,4.45-6.01-2.46-.96-3.85-2.82-3.85-5.51ZM184.14,339.1c0,2.82,2.16,4.71,5.58,4.71s5.54-1.92,5.54-4.71c0-3.09-2.39-4.58-5.54-4.58s-5.58,1.39-5.58,4.58ZM194.7,328.05c0-2.76-1.96-4.22-4.98-4.22s-4.95,1.43-4.95,4.25c0,2.49,2.02,4.12,4.95,4.12s4.98-1.66,4.98-4.15Z"/>
  </g>
  <g>
    <path class="st2" d="M244.88,324.43v-2.76h3.06v24h-3.06v-21.25Z"/>
    <path class="st2" d="M259.26,343.98l4.95-7.17c-.7.1-1.2.13-1.56.13-2.22,0-4.12-.76-5.61-2.26-1.49-1.49-2.26-3.35-2.26-5.54s.83-3.98,2.46-5.58c1.66-1.59,3.55-2.36,5.74-2.36s4.08.8,5.71,2.42c1.63,1.6,2.42,3.49,2.42,5.61,0,1.73-.53,3.42-1.66,5.01l-7.8,11.42-2.39-1.69ZM266.46,325.89c-.96-1-2.12-1.49-3.49-1.49-1.43,0-2.62.5-3.59,1.49-.96.96-1.46,2.19-1.46,3.65,0,1.33.53,2.49,1.53,3.45,1.03.96,2.26,1.43,3.72,1.43,1.33,0,2.46-.46,3.39-1.43s1.39-2.12,1.39-3.52-.5-2.59-1.49-3.59Z"/>
  </g>
  <g>
    <path class="st2" d="M298.42,343.25c6.31-5.08,12.28-9.86,12.28-14.77,0-2.66-1.16-4.65-4.42-4.65s-4.71,2.16-4.85,5.18h-2.92c.2-5.11,3.42-7.77,7.74-7.77s7.44,2.66,7.44,7.11c0,5.97-6.44,11.05-10.73,14.54h11.42v2.52h-15.97v-2.16Z"/>
    <path class="st2" d="M326.23,321.31c6.61,0,8.33,5.25,8.33,12.12s-1.73,12.25-8.33,12.25-8.37-5.28-8.37-12.25,1.73-12.12,8.37-12.12ZM326.23,324.06c-4.75,0-5.38,4.38-5.38,9.36s.63,9.5,5.38,9.5,5.35-4.32,5.35-9.5-.63-9.36-5.35-9.36Z"/>
  </g>
  <g>
    <path class="st2" d="M367.65,343.25c6.31-5.08,12.28-9.86,12.28-14.77,0-2.66-1.16-4.65-4.42-4.65s-4.71,2.16-4.85,5.18h-2.92c.2-5.11,3.42-7.77,7.74-7.77s7.44,2.66,7.44,7.11c0,5.97-6.44,11.05-10.73,14.54h11.42v2.52h-15.97v-2.16Z"/>
    <path class="st2" d="M387.5,324.43v-2.76h3.06v24h-3.06v-21.25Z"/>
  </g>
  <g>
    <path class="st2" d="M421.89,343.25c6.31-5.08,12.28-9.86,12.28-14.77,0-2.66-1.16-4.65-4.42-4.65s-4.71,2.16-4.85,5.18h-2.92c.2-5.11,3.42-7.77,7.74-7.77s7.44,2.66,7.44,7.11c0,5.97-6.44,11.05-10.73,14.54h11.42v2.52h-15.97v-2.16Z"/>
    <path class="st2" d="M440.97,343.25c6.31-5.08,12.28-9.86,12.28-14.77,0-2.66-1.16-4.65-4.42-4.65s-4.71,2.16-4.85,5.18h-2.92c.2-5.11,3.42-7.77,7.74-7.77s7.44,2.66,7.44,7.11c0,5.97-6.44,11.05-10.73,14.54h11.42v2.52h-15.97v-2.16Z"/>
  </g>
  <g>
    <path class="st2" d="M35.95,383.82c6.31-5.08,12.28-9.86,12.28-14.77,0-2.66-1.16-4.65-4.42-4.65s-4.71,2.16-4.85,5.18h-2.92c.2-5.11,3.42-7.77,7.74-7.77s7.44,2.66,7.44,7.11c0,5.97-6.44,11.05-10.73,14.54h11.42v2.52h-15.97v-2.16Z"/>
    <path class="st2" d="M63.2,361.77c4.68,0,7.24,2.72,7.24,6.17,0,2.76-1.73,4.91-4.25,5.48v.17c2.79.66,4.68,2.72,4.68,6.18,0,3.72-2.59,6.64-7.6,6.64-4.55,0-7.94-2.42-8.3-7.07h2.92c.3,2.56,2.16,4.52,5.34,4.52s4.75-1.89,4.75-4.35c0-3.39-2.36-4.68-6.67-4.68h-.76v-2.52h.8c4.02-.03,6.18-1.26,6.18-4.05,0-2.29-1.53-3.88-4.42-3.88s-4.52,1.59-4.82,3.92h-2.95c.3-4.12,3.42-6.51,7.87-6.51Z"/>
  </g>
  <g>
    <path class="st2" d="M95.56,383.82c6.31-5.08,12.28-9.86,12.28-14.77,0-2.66-1.16-4.65-4.42-4.65s-4.71,2.16-4.85,5.18h-2.92c.2-5.11,3.42-7.77,7.74-7.77s7.44,2.66,7.44,7.11c0,5.97-6.44,11.05-10.73,14.54h11.42v2.52h-15.97v-2.16Z"/>
    <path class="st2" d="M132.04,380.43h-2.89v5.74h-3.15v-5.74h-11.62v-4.15l7.77-13.74h3.05l-7.7,14.87h8.5v-6.51h3.05v6.51h2.99v3.02Z"/>
  </g>
  <g>
    <path class="st2" d="M161.97,383.82c6.31-5.08,12.28-9.86,12.28-14.77,0-2.66-1.16-4.65-4.42-4.65s-4.71,2.16-4.85,5.18h-2.92c.2-5.11,3.42-7.77,7.74-7.77s7.44,2.66,7.44,7.11c0,5.97-6.44,11.05-10.73,14.54h11.42v2.52h-15.97v-2.16Z"/>
    <path class="st2" d="M196.99,362.14v3.15h-8.03l-1.23,4.45c.93-.1,1.46-.13,1.59-.13,2.06,0,3.82.8,5.35,2.46,1.53,1.63,2.29,3.52,2.29,5.74s-.86,4.32-2.59,5.98c-1.76,1.63-3.85,2.42-6.37,2.42-3.15,0-5.74-1.36-7.7-4.15l2.86-1.79c1.39,1.76,3.05,2.62,4.98,2.62,1.6,0,2.92-.5,3.95-1.49,1.03-1,1.56-2.22,1.56-3.75s-.53-2.69-1.63-3.69c-1.06-1.03-2.39-1.53-3.95-1.53-.96,0-1.76.17-2.46.5-.7.33-1.46.89-2.32,1.63l3.22-12.42h10.49Z"/>
  </g>
  <g>
    <path class="st2" d="M235.49,383.82c6.31-5.08,12.28-9.86,12.28-14.77,0-2.66-1.16-4.65-4.42-4.65s-4.71,2.16-4.85,5.18h-2.92c.2-5.11,3.42-7.77,7.74-7.77s7.44,2.66,7.44,7.11c0,5.97-6.44,11.05-10.73,14.54h11.42v2.52h-15.97v-2.16Z"/>
    <path class="st2" d="M266.66,363.13l-5.01,7.34c.4-.03.7-.07.86-.07l.66-.03c2.12,0,4.02.76,5.61,2.26,1.63,1.53,2.42,3.29,2.42,5.28,0,2.36-.8,4.35-2.39,5.98-1.59,1.66-3.55,2.46-5.88,2.46s-4.28-.8-5.91-2.39c-1.63-1.63-2.46-3.55-2.46-5.84,0-1.73.5-3.35,1.53-4.85l8.17-11.79,2.39,1.66ZM266.46,374.42c-1-1.03-2.19-1.53-3.55-1.53s-2.56.5-3.55,1.53c-1.03,1.03-1.53,2.23-1.53,3.59s.5,2.59,1.46,3.59c1,.96,2.19,1.46,3.62,1.46s2.59-.5,3.59-1.49c.96-.96,1.46-2.16,1.46-3.55s-.5-2.59-1.49-3.59Z"/>
  </g>
  <g>
    <path class="st2" d="M301.14,383.82c6.31-5.08,12.28-9.86,12.28-14.77,0-2.66-1.16-4.65-4.42-4.65s-4.71,2.16-4.85,5.18h-2.92c.2-5.11,3.42-7.77,7.74-7.77s7.44,2.66,7.44,7.11c0,5.97-6.44,11.05-10.73,14.54h11.42v2.52h-15.97v-2.16Z"/>
    <path class="st2" d="M335.36,362.3v2.29l-9.23,21.65h-3.05l9.36-21.35h-12.82v-2.59h15.74Z"/>
  </g>
  <g>
    <path class="st2" d="M357.33,383.82c6.31-5.08,12.28-9.86,12.28-14.77,0-2.66-1.16-4.65-4.42-4.65s-4.71,2.16-4.85,5.18h-2.92c.2-5.11,3.42-7.77,7.74-7.77s7.44,2.66,7.44,7.11c0,5.97-6.44,11.05-10.73,14.54h11.42v2.52h-15.97v-2.16Z"/>
    <path class="st2" d="M377.31,368.25c0-3.52,2.66-6.37,7.87-6.37s7.9,2.89,7.9,6.37c0,2.59-1.49,4.58-3.85,5.51,2.72.83,4.48,3.02,4.48,6.01,0,4.35-3.45,7.14-8.53,7.14s-8.47-2.79-8.47-7.14c0-3.02,1.76-5.21,4.45-6.01-2.46-.96-3.85-2.82-3.85-5.51ZM379.6,379.67c0,2.82,2.16,4.71,5.58,4.71s5.54-1.92,5.54-4.71c0-3.09-2.39-4.58-5.54-4.58s-5.58,1.39-5.58,4.58ZM390.16,368.61c0-2.76-1.96-4.22-4.98-4.22s-4.95,1.43-4.95,4.25c0,2.49,2.02,4.12,4.95,4.12s4.98-1.66,4.98-4.15Z"/>
  </g>
  <g>
    <path class="st2" d="M420.06,383.82c6.31-5.08,12.28-9.86,12.28-14.77,0-2.66-1.16-4.65-4.42-4.65s-4.71,2.16-4.85,5.18h-2.92c.2-5.11,3.42-7.77,7.74-7.77s7.44,2.66,7.44,7.11c0,5.97-6.44,11.05-10.73,14.54h11.42v2.52h-15.97v-2.16Z"/>
    <path class="st2" d="M443.66,384.55l4.94-7.17c-.7.1-1.19.13-1.56.13-2.22,0-4.12-.76-5.61-2.26s-2.26-3.35-2.26-5.54.83-3.98,2.46-5.58c1.66-1.59,3.55-2.36,5.74-2.36s4.08.8,5.71,2.42c1.63,1.6,2.42,3.49,2.42,5.61,0,1.73-.53,3.42-1.66,5.01l-7.8,11.42-2.39-1.69ZM450.87,366.45c-.96-1-2.12-1.49-3.49-1.49s-2.62.5-3.58,1.49c-.97.96-1.46,2.19-1.46,3.65,0,1.33.53,2.49,1.53,3.45,1.03.96,2.26,1.43,3.72,1.43,1.33,0,2.46-.46,3.39-1.43s1.39-2.12,1.39-3.52-.5-2.59-1.49-3.59Z"/>
  </g>
  <g>
    <path class="st2" d="M44.11,402.34c4.68,0,7.24,2.72,7.24,6.17,0,2.76-1.73,4.91-4.25,5.48v.17c2.79.66,4.68,2.72,4.68,6.18,0,3.72-2.59,6.64-7.6,6.64-4.55,0-7.94-2.42-8.3-7.07h2.92c.3,2.56,2.16,4.52,5.34,4.52s4.75-1.89,4.75-4.35c0-3.39-2.36-4.68-6.67-4.68h-.76v-2.52h.8c4.02-.03,6.18-1.26,6.18-4.05,0-2.29-1.53-3.88-4.42-3.88s-4.52,1.59-4.82,3.92h-2.95c.3-4.12,3.42-6.51,7.87-6.51Z"/>
    <path class="st2" d="M64.23,402.44c6.61,0,8.33,5.25,8.33,12.12s-1.73,12.25-8.33,12.25-8.37-5.28-8.37-12.25,1.73-12.12,8.37-12.12ZM64.23,405.19c-4.75,0-5.38,4.38-5.38,9.36s.63,9.5,5.38,9.5,5.35-4.32,5.35-9.5-.63-9.36-5.35-9.36Z"/>
  </g>
  <g>
    <path class="st2" d="M113.52,402.34c4.68,0,7.24,2.72,7.24,6.17,0,2.76-1.73,4.91-4.25,5.48v.17c2.79.66,4.68,2.72,4.68,6.18,0,3.72-2.59,6.64-7.6,6.64-4.55,0-7.94-2.42-8.3-7.07h2.92c.3,2.56,2.16,4.52,5.34,4.52s4.75-1.89,4.75-4.35c0-3.39-2.36-4.68-6.67-4.68h-.76v-2.52h.8c4.02-.03,6.18-1.26,6.18-4.05,0-2.29-1.53-3.88-4.42-3.88s-4.52,1.59-4.82,3.92h-2.95c.3-4.12,3.42-6.51,7.87-6.51Z"/>
    <path class="st2" d="M125.66,405.56v-2.76h3.06v24h-3.06v-21.25Z"/>
  </g>
  <line class="st0" x1="17.76" y1="188.27" x2="489.22" y2="188.27"/>
  <path class="st1" d="M190.21,180.15c16.52,0,29.92-11.52,29.92-25.73s-13.39-25.74-29.92-25.74-29.92,11.52-29.92,25.74,13.39,25.73,29.92,25.73Z"/>
  <path class="st0" d="M29.01,121.36h448.44c5.77,0,10.45,4.68,10.45,10.45v297.38c0,5.77-4.68,10.46-10.46,10.46H29.01c-5.77,0-10.46-4.68-10.46-10.46V131.82c0-5.77,4.68-10.46,10.46-10.46Z"/>
</svg>