<?xml version="1.0" encoding="UTF-8"?>
<svg id="Layer_1" xmlns="http://www.w3.org/2000/svg" version="1.1" viewBox="0 0 500 500">
  <!-- Generator: Adobe Illustrator 30.1.0, SVG Export Plug-In . SVG Version: 2.1.1 Build 136)  -->
  <defs>
    <style>
      .st0 {
        fill: #231f20;
      }

      .st1, .st2 {
        fill: none;
        stroke: #231f20;
      }

      .st2 {
        stroke-width: .5px;
      }

      .st3 {
        fill: #dcddde;
      }
    </style>
  </defs>
  <rect class="st3" x="82.92" y="95.39" width="329.83" height="65.17" rx="29.66" ry="29.66"/>
  <g>
    <path class="st0" d="M195.92,113.36h9.53l9.29,22.92,9.2-22.92h9.48v33.1h-8.07v-19.85l-7.4,19.85h-6.51l-7.45-19.9v19.9h-8.07v-33.1Z"/>
    <path class="st0" d="M259.81,140.61h-12.36l-1.98,5.85h-8.44l11.98-33.1h9.33l11.98,33.1h-8.53l-1.98-5.85ZM253.63,122.27l-4.06,12.12h8.16l-4.1-12.12Z"/>
    <path class="st0" d="M271.36,113.36h9.15l6.42,13.86,6.36-13.86h9.05l-11.46,22.16v10.94h-8.07v-10.94l-11.46-22.16Z"/>
  </g>
  <g>
    <path class="st0" d="M42.87,197.36c-4.3,0-7.66-2.57-7.8-7.44h5.18c.14,1.85,1.11,2.74,2.47,2.74s2.33-.86,2.33-2.26c0-4.45-9.99-2.06-9.93-10.59,0-4.56,3.1-7.09,7.28-7.09s7.28,2.61,7.48,7.2h-5.27c-.08-1.54-1-2.47-2.3-2.5-1.17-.03-2.05.69-2.05,2.19,0,4.18,9.87,2.3,9.87,10.35,0,4.04-2.62,7.4-7.28,7.4Z"/>
    <path class="st0" d="M68.83,197.12h-4.86v-2.6c-.97,1.64-2.67,2.81-4.81,2.81-3.67,0-6.15-3.05-6.15-8.16v-11.17h4.84v10.38c0,2.61,1.22,4.05,3.04,4.05s3.07-1.44,3.07-4.05v-10.38h4.86v19.12Z"/>
  </g>
  <g>
    <path class="st0" d="M95.64,173.06h5.75l5.6,16.65,5.55-16.65h5.72v24.06h-4.86v-14.43l-4.47,14.43h-3.93l-4.5-14.46v14.46h-4.87v-24.06Z"/>
    <path class="st0" d="M128.99,197.39c-4.67,0-8.2-3.77-8.2-9.84s3.62-9.83,8.25-9.83,8.25,3.77,8.25,9.83-3.64,9.84-8.3,9.84ZM128.99,192.32c1.73,0,3.36-1.54,3.36-4.77s-1.59-4.76-3.3-4.76-3.3,1.51-3.3,4.76,1.48,4.77,3.24,4.77Z"/>
  </g>
  <g>
    <path class="st0" d="M163.14,173.06h15.45v4.69h-5.29v19.36h-4.87v-19.36h-5.29v-4.69Z"/>
    <path class="st0" d="M196.72,197.12h-4.86v-2.6c-.97,1.64-2.67,2.81-4.81,2.81-3.67,0-6.15-3.05-6.15-8.16v-11.17h4.84v10.38c0,2.61,1.22,4.05,3.04,4.05s3.07-1.44,3.07-4.05v-10.38h4.86v19.12Z"/>
  </g>
  <g>
    <path class="st0" d="M227.46,173.06h5.21l2.87,17.51,3.56-17.51h5.35l3.41,17.51,2.9-17.51h5.23l-5.21,24.06h-5.89l-3.19-15.83-3.3,15.83h-5.89l-5.06-24.06Z"/>
    <path class="st0" d="M265.51,197.39c-4.67,0-8.02-3.77-8.02-9.84s3.3-9.83,8.02-9.83,7.91,3.7,7.91,9.53c0,.55-.03,1.13-.09,1.71h-11.01c.17,2.5,1.45,3.67,3.01,3.67,1.37,0,2.13-.82,2.53-1.85h5.18c-.77,3.74-3.58,6.61-7.54,6.61ZM262.36,185.7h6.09c0-2.09-1.36-3.29-2.99-3.29s-2.81,1.17-3.1,3.29Z"/>
  </g>
  <g>
    <path class="st0" d="M296.02,173.06h15.45v4.69h-5.29v19.36h-4.87v-19.36h-5.29v-4.69Z"/>
    <path class="st0" d="M313.92,171.75h4.87v8.81c.97-1.64,2.7-2.78,4.89-2.78,3.61,0,6.03,3.02,6.03,8.16v11.17h-4.84v-10.38c0-2.6-1.19-4.04-3.04-4.04s-3.04,1.44-3.04,4.04v10.38h-4.87v-25.36Z"/>
  </g>
  <g>
    <path class="st0" d="M357.1,173.06h13v4.69h-8.14v5.07h6.09v4.56h-6.09v9.73h-4.87v-24.06Z"/>
    <path class="st0" d="M377.53,197.12h-4.87v-19.12h4.87v3.19c1.11-2.02,2.84-3.39,4.98-3.39v6.2h-1.34c-2.31,0-3.64.96-3.64,4.25v8.88Z"/>
  </g>
  <g>
    <path class="st0" d="M415.75,197.36c-4.3,0-7.66-2.57-7.8-7.44h5.18c.14,1.85,1.11,2.74,2.48,2.74s2.33-.86,2.33-2.26c0-4.45-9.99-2.06-9.93-10.59,0-4.56,3.1-7.09,7.28-7.09s7.28,2.61,7.48,7.2h-5.27c-.08-1.54-1-2.47-2.3-2.5-1.17-.03-2.05.69-2.05,2.19,0,4.18,9.87,2.3,9.87,10.35,0,4.04-2.62,7.4-7.28,7.4Z"/>
    <path class="st0" d="M432.06,177.72c2.36,0,4.04,1.3,4.89,2.98v-2.71h4.87v19.12h-4.87v-2.71c-.88,1.68-2.56,2.98-4.92,2.98-3.87,0-6.97-3.84-6.97-9.87s3.1-9.8,7-9.8ZM433.48,182.83c-1.82,0-3.47,1.64-3.47,4.69s1.65,4.76,3.47,4.76,3.47-1.68,3.47-4.73-1.62-4.73-3.47-4.73Z"/>
  </g>
  <path class="st0" d="M254.04,228.48v-2.84h2.62v24.78h-2.62v-21.93Z"/>
  <path class="st0" d="M310.42,247.91c5.4-5.24,10.52-10.18,10.52-15.25,0-2.74-.99-4.8-3.78-4.8s-4.04,2.23-4.15,5.35h-2.5c.17-5.28,2.93-8.02,6.63-8.02s6.37,2.74,6.37,7.33c0,6.17-5.52,11.41-9.19,15.01h9.79v2.61h-13.68v-2.23Z"/>
  <path class="st0" d="M377.02,225.15c4.01,0,6.2,2.81,6.2,6.37,0,2.84-1.48,5.07-3.64,5.65v.17c2.39.69,4.01,2.81,4.01,6.37,0,3.84-2.22,6.85-6.52,6.85-3.9,0-6.8-2.5-7.11-7.3h2.5c.26,2.64,1.85,4.66,4.58,4.66s4.07-1.95,4.07-4.49c0-3.5-2.02-4.83-5.72-4.83h-.65v-2.61h.68c3.44-.03,5.29-1.3,5.29-4.18,0-2.36-1.31-4.01-3.78-4.01s-3.87,1.64-4.12,4.04h-2.53c.26-4.25,2.93-6.72,6.74-6.72Z"/>
  <path class="st0" d="M443.78,244.41h-2.47v5.93h-2.7v-5.93h-9.96v-4.28l6.66-14.19h2.62l-6.6,15.35h7.28v-6.72h2.62v6.72h2.56v3.12Z"/>
  <path class="st0" d="M69.68,264.11v3.25h-6.89l-1.05,4.59c.8-.1,1.25-.14,1.36-.14,1.76,0,3.27.82,4.58,2.54,1.31,1.68,1.96,3.63,1.96,5.93s-.74,4.46-2.22,6.17c-1.51,1.68-3.3,2.5-5.46,2.5-2.7,0-4.92-1.41-6.6-4.28l2.45-1.85c1.19,1.82,2.62,2.71,4.27,2.71,1.37,0,2.5-.51,3.39-1.54s1.34-2.3,1.34-3.87-.46-2.78-1.39-3.8c-.91-1.06-2.05-1.58-3.39-1.58-.82,0-1.51.17-2.11.51-.6.34-1.25.93-1.99,1.68l2.76-12.82h8.99Z"/>
  <path class="st0" d="M126.2,265.13l-4.3,7.57c.34-.03.6-.07.74-.07l.57-.03c1.82,0,3.44.79,4.81,2.33,1.39,1.58,2.08,3.39,2.08,5.45,0,2.43-.68,4.49-2.05,6.17-1.36,1.71-3.04,2.54-5.04,2.54s-3.67-.82-5.06-2.47c-1.39-1.68-2.11-3.67-2.11-6.03,0-1.78.43-3.46,1.31-5l7-12.17,2.05,1.71ZM126.03,276.78c-.85-1.06-1.88-1.58-3.04-1.58s-2.19.51-3.05,1.58c-.88,1.06-1.31,2.3-1.31,3.7s.43,2.67,1.25,3.7c.85.99,1.88,1.51,3.1,1.51s2.22-.51,3.07-1.54c.82-.99,1.25-2.23,1.25-3.67s-.43-2.67-1.28-3.7Z"/>
  <path class="st0" d="M191.34,264.28v2.36l-7.91,22.34h-2.62l8.02-22.04h-10.98v-2.67h13.49Z"/>
  <path class="st0" d="M245.31,270.41c0-3.63,2.28-6.58,6.74-6.58s6.77,2.98,6.77,6.58c0,2.67-1.28,4.73-3.3,5.69,2.34.86,3.84,3.12,3.84,6.2,0,4.49-2.96,7.37-7.31,7.37s-7.25-2.88-7.25-7.37c0-3.12,1.51-5.38,3.81-6.2-2.11-.99-3.3-2.91-3.3-5.69ZM247.27,282.2c0,2.91,1.85,4.87,4.78,4.87s4.75-1.99,4.75-4.87c0-3.19-2.05-4.73-4.75-4.73s-4.78,1.44-4.78,4.73ZM256.32,270.79c0-2.84-1.68-4.35-4.27-4.35s-4.24,1.47-4.24,4.39c0,2.57,1.74,4.25,4.24,4.25s4.27-1.71,4.27-4.28Z"/>
  <path class="st0" d="M312.73,287.24l4.24-7.4c-.6.1-1.03.14-1.34.14-1.9,0-3.53-.79-4.81-2.33-1.28-1.54-1.94-3.46-1.94-5.72s.71-4.11,2.11-5.76c1.42-1.64,3.05-2.43,4.92-2.43s3.5.82,4.89,2.5c1.39,1.64,2.08,3.6,2.08,5.79,0,1.78-.45,3.53-1.42,5.18l-6.69,11.79-2.05-1.75ZM318.9,268.56c-.82-1.03-1.82-1.54-2.99-1.54s-2.25.51-3.07,1.54c-.82.99-1.25,2.26-1.25,3.77,0,1.37.46,2.57,1.31,3.56.88.99,1.93,1.47,3.19,1.47,1.14,0,2.11-.48,2.9-1.47.8-.99,1.2-2.19,1.2-3.63s-.43-2.67-1.28-3.7Z"/>
  <g>
    <path class="st0" d="M360.45,267.05v-2.84h2.62v24.78h-2.62v-21.93Z"/>
    <path class="st0" d="M376.39,263.83c5.66,0,7.14,5.41,7.14,12.51s-1.48,12.64-7.14,12.64-7.17-5.45-7.17-12.64,1.48-12.51,7.17-12.51ZM376.39,266.68c-4.07,0-4.61,4.52-4.61,9.66s.54,9.8,4.61,9.8,4.58-4.46,4.58-9.8-.54-9.66-4.58-9.66Z"/>
  </g>
  <g>
    <path class="st0" d="M429.22,267.05v-2.84h2.62v24.78h-2.62v-21.93Z"/>
    <path class="st0" d="M438.32,267.05v-2.84h2.62v24.78h-2.62v-21.93Z"/>
  </g>
  <g>
    <path class="st0" d="M49.08,305.63v-2.84h2.62v24.78h-2.62v-21.93Z"/>
    <path class="st0" d="M57.54,325.06c5.4-5.24,10.52-10.18,10.52-15.25,0-2.74-.99-4.8-3.78-4.8s-4.04,2.23-4.15,5.35h-2.5c.17-5.28,2.93-8.02,6.63-8.02s6.37,2.74,6.37,7.33c0,6.17-5.52,11.41-9.19,15.01h9.79v2.61h-13.68v-2.23Z"/>
  </g>
  <g>
    <path class="st0" d="M108.7,305.63v-2.84h2.62v24.78h-2.62v-21.93Z"/>
    <path class="st0" d="M124.15,302.3c4.01,0,6.2,2.81,6.2,6.37,0,2.84-1.48,5.07-3.64,5.65v.17c2.39.69,4.01,2.81,4.01,6.37,0,3.84-2.22,6.85-6.52,6.85-3.9,0-6.8-2.5-7.11-7.3h2.5c.26,2.64,1.85,4.66,4.58,4.66s4.07-1.95,4.07-4.49c0-3.5-2.02-4.83-5.72-4.83h-.65v-2.61h.68c3.44-.03,5.29-1.3,5.29-4.18,0-2.36-1.31-4.01-3.78-4.01s-3.87,1.64-4.12,4.04h-2.53c.26-4.25,2.93-6.72,6.74-6.72Z"/>
  </g>
  <g>
    <path class="st0" d="M167.56,305.63v-2.84h2.62v24.78h-2.62v-21.93Z"/>
    <path class="st0" d="M190.92,321.56h-2.47v5.93h-2.7v-5.93h-9.96v-4.28l6.66-14.19h2.62l-6.6,15.35h7.28v-6.72h2.62v6.72h2.56v3.12Z"/>
  </g>
  <g>
    <path class="st0" d="M236.18,305.63v-2.84h2.62v24.78h-2.62v-21.93Z"/>
    <path class="st0" d="M258.28,302.68v3.25h-6.89l-1.05,4.59c.8-.1,1.25-.14,1.36-.14,1.76,0,3.27.82,4.58,2.54,1.31,1.68,1.96,3.63,1.96,5.93s-.74,4.46-2.22,6.17c-1.51,1.68-3.3,2.5-5.46,2.5-2.7,0-4.92-1.41-6.6-4.28l2.45-1.85c1.19,1.82,2.62,2.71,4.27,2.71,1.37,0,2.5-.51,3.39-1.54s1.34-2.3,1.34-3.87-.46-2.78-1.39-3.8c-.91-1.06-2.05-1.58-3.39-1.58-.82,0-1.51.17-2.11.51-.6.34-1.25.93-1.99,1.68l2.76-12.82h8.99Z"/>
  </g>
  <g>
    <path class="st0" d="M300.27,305.63v-2.84h2.62v24.78h-2.62v-21.93Z"/>
    <path class="st0" d="M319.08,303.71l-4.3,7.57c.34-.03.6-.07.74-.07l.57-.03c1.82,0,3.44.79,4.81,2.33,1.39,1.58,2.08,3.39,2.08,5.45,0,2.43-.68,4.49-2.05,6.17-1.36,1.71-3.04,2.54-5.04,2.54s-3.67-.82-5.06-2.47c-1.39-1.68-2.11-3.67-2.11-6.03,0-1.78.43-3.46,1.31-5l7-12.17,2.05,1.71ZM318.9,315.36c-.85-1.06-1.88-1.58-3.04-1.58s-2.19.51-3.05,1.58c-.88,1.06-1.31,2.3-1.31,3.7s.43,2.67,1.25,3.7c.85.99,1.88,1.51,3.1,1.51s2.22-.51,3.07-1.54c.82-.99,1.25-2.23,1.25-3.67s-.43-2.67-1.28-3.7Z"/>
  </g>
  <g>
    <path class="st0" d="M362.79,305.63v-2.84h2.62v24.78h-2.62v-21.93Z"/>
    <path class="st0" d="M384.22,302.85v2.36l-7.91,22.34h-2.62l8.02-22.04h-10.98v-2.67h13.49Z"/>
  </g>
  <g>
    <path class="st0" d="M420.36,305.63v-2.84h2.62v24.78h-2.62v-21.93Z"/>
    <path class="st0" d="M429.58,308.99c0-3.63,2.28-6.58,6.74-6.58s6.77,2.98,6.77,6.58c0,2.67-1.28,4.73-3.3,5.69,2.34.86,3.84,3.12,3.84,6.2,0,4.49-2.96,7.37-7.31,7.37s-7.25-2.88-7.25-7.37c0-3.12,1.51-5.38,3.81-6.2-2.11-.99-3.3-2.91-3.3-5.69ZM431.55,320.78c0,2.91,1.85,4.87,4.78,4.87s4.75-1.99,4.75-4.87c0-3.19-2.05-4.73-4.75-4.73s-4.78,1.44-4.78,4.73ZM440.6,309.36c0-2.84-1.68-4.35-4.27-4.35s-4.24,1.47-4.24,4.39c0,2.57,1.74,4.25,4.24,4.25s4.27-1.71,4.27-4.28Z"/>
  </g>
  <g>
    <path class="st0" d="M47.52,344.2v-2.84h2.62v24.78h-2.62v-21.93Z"/>
    <path class="st0" d="M59.84,364.39l4.24-7.4c-.6.1-1.03.14-1.34.14-1.9,0-3.53-.79-4.81-2.33-1.28-1.54-1.94-3.46-1.94-5.72s.71-4.11,2.11-5.76c1.42-1.64,3.05-2.43,4.92-2.43s3.5.82,4.89,2.5c1.39,1.64,2.08,3.6,2.08,5.79,0,1.78-.45,3.53-1.42,5.18l-6.69,11.79-2.05-1.75ZM66.01,345.71c-.82-1.03-1.82-1.54-2.99-1.54s-2.25.51-3.07,1.54c-.82.99-1.25,2.26-1.25,3.77,0,1.37.46,2.57,1.31,3.56.88.99,1.93,1.47,3.19,1.47,1.14,0,2.11-.48,2.9-1.47.8-.99,1.2-2.19,1.2-3.63s-.43-2.67-1.28-3.7Z"/>
  </g>
  <g>
    <path class="st0" d="M99.68,363.63c5.4-5.24,10.52-10.18,10.52-15.25,0-2.74-.99-4.8-3.78-4.8s-4.04,2.23-4.16,5.35h-2.5c.17-5.28,2.93-8.02,6.63-8.02s6.37,2.74,6.37,7.33c0,6.17-5.52,11.41-9.19,15.01h9.79v2.61h-13.68v-2.23Z"/>
    <path class="st0" d="M123.53,340.98c5.66,0,7.14,5.41,7.14,12.51s-1.48,12.64-7.14,12.64-7.17-5.45-7.17-12.64,1.48-12.51,7.17-12.51ZM123.53,343.83c-4.07,0-4.61,4.52-4.61,9.66s.54,9.8,4.61,9.8,4.58-4.46,4.58-9.8-.54-9.66-4.58-9.66Z"/>
  </g>
  <g>
    <path class="st0" d="M168.44,363.63c5.4-5.24,10.52-10.18,10.52-15.25,0-2.74-.99-4.8-3.78-4.8s-4.04,2.23-4.15,5.35h-2.5c.17-5.28,2.93-8.02,6.63-8.02s6.37,2.74,6.37,7.33c0,6.17-5.52,11.41-9.19,15.01h9.79v2.61h-13.68v-2.23Z"/>
    <path class="st0" d="M185.46,344.2v-2.84h2.62v24.78h-2.62v-21.93Z"/>
  </g>
  <g>
    <path class="st0" d="M229.77,363.63c5.4-5.24,10.52-10.18,10.52-15.25,0-2.74-.99-4.8-3.78-4.8s-4.04,2.23-4.16,5.35h-2.5c.17-5.28,2.93-8.02,6.63-8.02s6.37,2.74,6.37,7.33c0,6.17-5.52,11.41-9.19,15.01h9.79v2.61h-13.68v-2.23Z"/>
    <path class="st0" d="M246.14,363.63c5.4-5.24,10.52-10.18,10.52-15.25,0-2.74-.99-4.8-3.78-4.8s-4.04,2.23-4.16,5.35h-2.5c.17-5.28,2.93-8.02,6.63-8.02s6.37,2.74,6.37,7.33c0,6.17-5.52,11.41-9.19,15.01h9.79v2.61h-13.68v-2.23Z"/>
  </g>
  <g>
    <path class="st0" d="M293.66,363.63c5.4-5.24,10.52-10.18,10.52-15.25,0-2.74-.99-4.8-3.78-4.8s-4.04,2.23-4.15,5.35h-2.5c.17-5.28,2.93-8.02,6.63-8.02s6.37,2.74,6.37,7.33c0,6.17-5.52,11.41-9.19,15.01h9.79v2.61h-13.68v-2.23Z"/>
    <path class="st0" d="M317.03,340.88c4.01,0,6.2,2.81,6.2,6.37,0,2.84-1.48,5.07-3.64,5.65v.17c2.39.69,4.01,2.81,4.01,6.37,0,3.84-2.22,6.85-6.52,6.85-3.9,0-6.8-2.5-7.11-7.3h2.5c.26,2.64,1.85,4.66,4.58,4.66s4.07-1.95,4.07-4.49c0-3.5-2.02-4.83-5.72-4.83h-.65v-2.61h.68c3.44-.03,5.29-1.3,5.29-4.18,0-2.36-1.31-4.01-3.78-4.01s-3.87,1.64-4.12,4.04h-2.53c.26-4.25,2.93-6.72,6.74-6.72Z"/>
  </g>
  <g>
    <path class="st0" d="M352.52,363.63c5.4-5.24,10.52-10.18,10.52-15.25,0-2.74-.99-4.8-3.78-4.8s-4.04,2.23-4.16,5.35h-2.5c.17-5.28,2.93-8.02,6.63-8.02s6.37,2.74,6.37,7.33c0,6.17-5.52,11.41-9.19,15.01h9.79v2.61h-13.68v-2.23Z"/>
    <path class="st0" d="M383.79,360.14h-2.47v5.93h-2.7v-5.93h-9.96v-4.28l6.66-14.19h2.62l-6.6,15.35h7.28v-6.72h2.62v6.72h2.56v3.12Z"/>
  </g>
  <g>
    <path class="st0" d="M412.54,363.63c5.4-5.24,10.52-10.18,10.52-15.25,0-2.74-.99-4.8-3.78-4.8s-4.04,2.23-4.16,5.35h-2.5c.17-5.28,2.93-8.02,6.63-8.02s6.37,2.74,6.37,7.33c0,6.17-5.52,11.41-9.19,15.01h9.79v2.61h-13.68v-2.23Z"/>
    <path class="st0" d="M442.56,341.26v3.25h-6.89l-1.05,4.59c.8-.1,1.25-.14,1.36-.14,1.76,0,3.27.82,4.58,2.54,1.31,1.68,1.96,3.63,1.96,5.93s-.74,4.46-2.22,6.17c-1.51,1.68-3.3,2.5-5.46,2.5-2.7,0-4.92-1.41-6.6-4.28l2.45-1.85c1.19,1.82,2.62,2.71,4.27,2.71,1.37,0,2.5-.51,3.39-1.54s1.34-2.3,1.34-3.87-.46-2.78-1.39-3.8c-.91-1.06-2.05-1.58-3.39-1.58-.82,0-1.51.17-2.11.51-.6.34-1.25.93-1.99,1.68l2.76-12.82h8.99Z"/>
  </g>
  <g>
    <path class="st0" d="M39.46,402.21c5.4-5.24,10.52-10.18,10.52-15.25,0-2.74-.99-4.8-3.78-4.8s-4.04,2.23-4.15,5.35h-2.5c.17-5.28,2.93-8.02,6.63-8.02s6.37,2.74,6.37,7.33c0,6.17-5.52,11.41-9.19,15.01h9.79v2.61h-13.68v-2.23Z"/>
    <path class="st0" d="M66.18,380.86l-4.3,7.57c.34-.03.6-.07.74-.07l.57-.03c1.82,0,3.44.79,4.81,2.33,1.39,1.58,2.08,3.39,2.08,5.45,0,2.43-.68,4.49-2.05,6.17-1.37,1.71-3.05,2.54-5.04,2.54s-3.67-.82-5.06-2.47c-1.39-1.68-2.11-3.67-2.11-6.03,0-1.78.43-3.46,1.31-5l7-12.17,2.05,1.71ZM66.01,392.51c-.85-1.06-1.88-1.58-3.04-1.58s-2.19.51-3.05,1.58c-.88,1.06-1.31,2.3-1.31,3.7s.43,2.67,1.25,3.7c.85.99,1.88,1.51,3.1,1.51s2.22-.51,3.07-1.54c.82-.99,1.25-2.23,1.25-3.67s-.43-2.67-1.28-3.7Z"/>
  </g>
  <g>
    <path class="st0" d="M102.02,402.21c5.4-5.24,10.52-10.18,10.52-15.25,0-2.74-.99-4.8-3.78-4.8s-4.04,2.23-4.16,5.35h-2.5c.17-5.28,2.93-8.02,6.63-8.02s6.37,2.74,6.37,7.33c0,6.17-5.52,11.41-9.19,15.01h9.79v2.61h-13.68v-2.23Z"/>
    <path class="st0" d="M131.35,380v2.36l-7.91,22.34h-2.62l8.02-22.04h-10.98v-2.67h13.49Z"/>
  </g>
  <g>
    <path class="st0" d="M159.59,402.21c5.4-5.24,10.52-10.18,10.52-15.25,0-2.74-.99-4.8-3.78-4.8s-4.04,2.23-4.15,5.35h-2.5c.17-5.28,2.93-8.02,6.63-8.02s6.37,2.74,6.37,7.33c0,6.17-5.52,11.41-9.19,15.01h9.79v2.61h-13.68v-2.23Z"/>
    <path class="st0" d="M176.72,386.14c0-3.63,2.28-6.58,6.74-6.58s6.77,2.98,6.77,6.58c0,2.67-1.28,4.73-3.3,5.69,2.34.86,3.84,3.12,3.84,6.2,0,4.49-2.96,7.37-7.31,7.37s-7.25-2.88-7.25-7.37c0-3.12,1.51-5.38,3.81-6.2-2.11-.99-3.3-2.91-3.3-5.69ZM178.69,397.93c0,2.91,1.85,4.87,4.78,4.87s4.75-1.99,4.75-4.87c0-3.19-2.05-4.73-4.75-4.73s-4.78,1.44-4.78,4.73ZM187.73,386.51c0-2.84-1.68-4.35-4.27-4.35s-4.24,1.47-4.24,4.39c0,2.57,1.74,4.25,4.24,4.25s4.27-1.71,4.27-4.28Z"/>
  </g>
  <g>
    <path class="st0" d="M228.21,402.21c5.4-5.24,10.52-10.18,10.52-15.25,0-2.74-.99-4.8-3.78-4.8s-4.04,2.23-4.16,5.35h-2.5c.17-5.28,2.93-8.02,6.63-8.02s6.37,2.74,6.37,7.33c0,6.17-5.52,11.41-9.19,15.01h9.79v2.61h-13.68v-2.23Z"/>
    <path class="st0" d="M248.44,402.96l4.24-7.4c-.6.1-1.03.14-1.34.14-1.9,0-3.53-.79-4.81-2.33-1.28-1.54-1.94-3.46-1.94-5.72s.71-4.11,2.11-5.76c1.42-1.64,3.05-2.43,4.92-2.43s3.5.82,4.89,2.5c1.39,1.64,2.08,3.6,2.08,5.79,0,1.78-.46,3.53-1.42,5.18l-6.69,11.79-2.05-1.75ZM254.61,384.28c-.82-1.03-1.82-1.54-2.99-1.54s-2.25.51-3.07,1.54c-.82.99-1.25,2.26-1.25,3.77,0,1.37.46,2.57,1.31,3.56.88.99,1.93,1.47,3.19,1.47,1.14,0,2.11-.48,2.9-1.47.8-.99,1.2-2.19,1.2-3.63s-.43-2.67-1.28-3.7Z"/>
  </g>
  <g>
    <path class="st0" d="M299.15,379.45c4.01,0,6.2,2.81,6.2,6.37,0,2.84-1.48,5.07-3.64,5.65v.17c2.39.69,4.01,2.81,4.01,6.37,0,3.84-2.22,6.85-6.52,6.85-3.9,0-6.8-2.5-7.11-7.3h2.5c.26,2.64,1.85,4.66,4.58,4.66s4.07-1.95,4.07-4.49c0-3.5-2.02-4.83-5.72-4.83h-.65v-2.61h.68c3.44-.03,5.29-1.3,5.29-4.18,0-2.36-1.31-4.01-3.78-4.01s-3.87,1.64-4.12,4.04h-2.53c.26-4.25,2.93-6.72,6.74-6.72Z"/>
    <path class="st0" d="M316.4,379.56c5.66,0,7.14,5.41,7.14,12.51s-1.48,12.64-7.14,12.64-7.17-5.45-7.17-12.64,1.48-12.51,7.17-12.51ZM316.4,382.4c-4.07,0-4.61,4.52-4.61,9.66s.54,9.8,4.61,9.8,4.58-4.46,4.58-9.8-.54-9.66-4.58-9.66Z"/>
  </g>
  <g>
    <path class="st0" d="M367.91,379.45c4.01,0,6.2,2.81,6.2,6.37,0,2.84-1.48,5.07-3.64,5.65v.17c2.39.69,4.01,2.81,4.01,6.37,0,3.84-2.22,6.85-6.52,6.85-3.9,0-6.8-2.5-7.11-7.3h2.5c.26,2.64,1.85,4.66,4.58,4.66s4.07-1.95,4.07-4.49c0-3.5-2.02-4.83-5.72-4.83h-.65v-2.61h.68c3.44-.03,5.29-1.3,5.29-4.18,0-2.36-1.31-4.01-3.78-4.01s-3.87,1.64-4.12,4.04h-2.53c.26-4.25,2.93-6.72,6.74-6.72Z"/>
    <path class="st0" d="M378.33,382.78v-2.84h2.62v24.78h-2.62v-21.93Z"/>
  </g>
  <line class="st2" x1="36.14" y1="216.81" x2="449.6" y2="216.81"/>
  <path class="st1" d="M33.6,78.38c-6.71,0-12.15,5.44-12.15,12.15v319.09c0,6.71,5.44,12.15,12.15,12.15h432.49c6.71,0,12.15-5.44,12.15-12.15V90.53c0-6.71-5.44-12.15-12.15-12.15H33.6Z"/>
</svg>