<?xml version="1.0" encoding="UTF-8"?>
<svg id="Layer_1" xmlns="http://www.w3.org/2000/svg" version="1.1" viewBox="0 0 507.16 475.06">
  <!-- Generator: Adobe Illustrator 30.1.0, SVG Export Plug-In . SVG Version: 2.1.1 Build 136)  -->
  <defs>
    <style>
      .st0 {
        stroke-width: 2px;
      }

      .st0, .st1 {
        fill: none;
        stroke: #231f20;
      }

      .st2 {
        fill: #231f20;
      }

      .st3 {
        fill: #fff;
      }
    </style>
  </defs>
  <path class="st3" d="M166.08,36.62h178.5c14.01,0,25.39,11.38,25.39,25.39v18.36c0,14.01-11.37,25.38-25.38,25.38h-178.5c-14.01,0-25.38-11.37-25.38-25.38v-18.36c0-14.01,11.37-25.38,25.38-25.38Z"/>
  <path class="st0" d="M166.08,36.62h178.5c14.01,0,25.39,11.38,25.39,25.39v18.36c0,14.01-11.37,25.38-25.38,25.38h-178.5c-14.01,0-25.38-11.37-25.38-25.38v-18.36c0-14.01,11.37-25.38,25.38-25.38Z"/>
  <g>
    <path class="st2" d="M204.38,56.9h9.63l9.4,23.18,9.3-23.18h9.59v33.48h-8.16v-20.08l-7.49,20.08h-6.58l-7.53-20.13v20.13h-8.16v-33.48Z"/>
    <path class="st2" d="M269,84.46h-12.5l-2,5.91h-8.54l12.11-33.48h9.44l12.11,33.48h-8.63l-2-5.91ZM262.75,65.91l-4.1,12.26h8.25l-4.15-12.26Z"/>
    <path class="st2" d="M280.68,56.9h9.25l6.49,14.02,6.44-14.02h9.16l-11.59,22.41v11.07h-8.16v-11.07l-11.59-22.41Z"/>
  </g>
  <g>
    <path class="st2" d="M45.24,163.13c-4.62,0-7.89-2.58-7.96-6.38h3.2c.2,1.92,1.55,3.83,4.76,3.83,2.91,0,4.63-1.65,4.63-3.83,0-6.21-12.45-2.25-12.45-10.8,0-3.8,3.07-6.37,7.63-6.37s7.27,2.41,7.63,5.91h-3.3c-.2-1.55-1.65-3.3-4.46-3.34-2.48-.07-4.43,1.22-4.43,3.7,0,5.94,12.42,2.25,12.42,10.77,0,3.27-2.68,6.51-7.66,6.51Z"/>
    <path class="st2" d="M73.37,162.9h-3v-2.68c-1.16,1.88-3.37,2.94-5.78,2.94-4.16,0-7.43-2.58-7.43-7.76v-10.6h2.97v10.21c0,3.66,2.02,5.55,5.05,5.55s5.19-1.91,5.19-5.81v-9.94h3v18.1Z"/>
  </g>
  <g>
    <path class="st2" d="M103.98,140.04h3.24l8.45,18.89,8.45-18.89h3.2v22.85h-3.01v-17.04l-7.6,17.04h-2.11l-7.63-17.07v17.07h-3.01v-22.85Z"/>
    <path class="st2" d="M140.3,163.19c-5.12,0-9.02-3.63-9.02-9.38s4.03-9.31,9.15-9.31,9.15,3.6,9.15,9.31-4.13,9.38-9.28,9.38ZM140.3,160.55c3.14,0,6.21-2.15,6.21-6.74s-3-6.71-6.11-6.71-6.04,2.15-6.04,6.71,2.81,6.74,5.94,6.74Z"/>
  </g>
  <g>
    <path class="st2" d="M172.26,139.88h15.59v2.44h-6.27v20.57h-3.01v-20.57h-6.31v-2.44Z"/>
    <path class="st2" d="M207.59,162.9h-3v-2.68c-1.16,1.88-3.37,2.94-5.78,2.94-4.16,0-7.43-2.58-7.43-7.76v-10.6h2.97v10.21c0,3.66,2.02,5.55,5.05,5.55s5.19-1.91,5.19-5.81v-9.94h3v18.1Z"/>
  </g>
  <g>
    <path class="st2" d="M234.26,139.88h3.2l5.02,19.52,5.55-19.52h3.37l5.28,19.45,5.05-19.45h3.24l-6.67,23.02h-3.37l-5.35-18.53-5.55,18.53-3.34.03-6.44-23.05Z"/>
    <path class="st2" d="M276.1,163.19c-5.15,0-8.95-3.63-8.95-9.38s3.66-9.31,8.95-9.31,8.69,3.7,8.69,8.65c0,.66-.03,1.19-.1,1.82h-14.46c.23,3.66,2.81,5.68,5.88,5.68,2.71,0,4.43-1.39,5.09-3.34h3.24c-.93,3.3-3.83,5.88-8.32,5.88ZM270.25,152.52h11.43c.03-3.53-2.61-5.48-5.71-5.48-2.94,0-5.38,1.95-5.71,5.48Z"/>
  </g>
  <g>
    <path class="st2" d="M304.32,139.88h15.59v2.44h-6.27v20.57h-3.01v-20.57h-6.31v-2.44Z"/>
    <path class="st2" d="M323.61,138.46h3v8.95c1.19-1.91,3.44-2.94,5.98-2.94,4.03,0,7.23,2.58,7.23,7.76v10.67h-2.97v-10.24c0-3.7-2.02-5.58-5.05-5.58s-5.19,1.92-5.19,5.81v10.01h-3v-24.44Z"/>
  </g>
  <g>
    <path class="st2" d="M368.11,139.88h13.01v2.44h-10.01v7.76h8.12v2.44h-8.12v10.37h-3.01v-23.02Z"/>
    <path class="st2" d="M387.76,162.9h-3.01v-18.1h3.01v2.94c1.02-2.02,2.97-3.27,5.84-3.27v3.1h-.79c-2.87,0-5.05,1.29-5.05,5.48v9.84Z"/>
  </g>
  <g>
    <path class="st2" d="M434.11,163.13c-4.62,0-7.89-2.58-7.96-6.38h3.21c.2,1.92,1.55,3.83,4.75,3.83,2.91,0,4.63-1.65,4.63-3.83,0-6.21-12.45-2.25-12.45-10.8,0-3.8,3.07-6.37,7.63-6.37s7.27,2.41,7.63,5.91h-3.3c-.2-1.55-1.65-3.3-4.46-3.34-2.48-.07-4.42,1.22-4.42,3.7,0,5.94,12.42,2.25,12.42,10.77,0,3.27-2.68,6.51-7.66,6.51Z"/>
    <path class="st2" d="M453.66,144.5c3.37,0,5.68,1.72,6.74,3.6v-3.3h3.04v18.1h-3.04v-3.37c-1.09,1.95-3.44,3.66-6.77,3.66-4.82,0-8.56-3.8-8.56-9.41s3.73-9.28,8.59-9.28ZM454.26,147.11c-3.3,0-6.11,2.41-6.11,6.67s2.81,6.77,6.11,6.77,6.14-2.48,6.14-6.74-2.84-6.71-6.14-6.71Z"/>
  </g>
  <path class="st2" d="M449.17,202.91v-2.74h3.04v23.88h-3.04v-21.14Z"/>
  <path class="st2" d="M54.78,261.99c6.27-5.05,12.22-9.81,12.22-14.7,0-2.64-1.16-4.63-4.39-4.63s-4.69,2.15-4.82,5.15h-2.91c.2-5.08,3.4-7.73,7.7-7.73s7.4,2.64,7.4,7.07c0,5.94-6.41,11-10.67,14.47h11.36v2.51h-15.89v-2.15Z"/>
  <path class="st2" d="M124.81,240.06c4.66,0,7.2,2.71,7.2,6.14,0,2.74-1.72,4.89-4.23,5.45v.16c2.77.66,4.66,2.71,4.66,6.14,0,3.7-2.58,6.61-7.56,6.61-4.52,0-7.89-2.41-8.26-7.03h2.91c.3,2.54,2.15,4.49,5.32,4.49s4.72-1.88,4.72-4.32c0-3.37-2.34-4.66-6.64-4.66h-.76v-2.51h.79c4-.03,6.14-1.25,6.14-4.03,0-2.28-1.52-3.86-4.39-3.86s-4.49,1.58-4.79,3.9h-2.94c.3-4.09,3.4-6.47,7.83-6.47Z"/>
  <path class="st2" d="M198.71,258.62h-2.87v5.71h-3.14v-5.71h-11.56v-4.13l7.73-13.67h3.04l-7.66,14.8h8.45v-6.47h3.04v6.47h2.97v3.01Z"/>
  <path class="st2" d="M270.65,240.42v3.14h-7.99l-1.22,4.42c.93-.1,1.45-.13,1.59-.13,2.05,0,3.8.8,5.32,2.45,1.52,1.62,2.28,3.5,2.28,5.71s-.86,4.3-2.58,5.95c-1.75,1.62-3.83,2.41-6.34,2.41-3.14,0-5.71-1.35-7.66-4.13l2.84-1.78c1.39,1.75,3.04,2.61,4.95,2.61,1.59,0,2.91-.49,3.93-1.49,1.02-.99,1.55-2.21,1.55-3.73s-.53-2.67-1.62-3.66c-1.06-1.02-2.38-1.52-3.93-1.52-.96,0-1.75.16-2.45.49s-1.45.89-2.31,1.62l3.2-12.35h10.44Z"/>
  <path class="st2" d="M328.96,241.42l-4.99,7.3c.4-.03.69-.06.86-.06l.66-.04c2.11,0,4,.76,5.58,2.25,1.62,1.52,2.41,3.27,2.41,5.25,0,2.35-.79,4.33-2.38,5.94-1.59,1.65-3.53,2.45-5.84,2.45s-4.26-.8-5.88-2.38c-1.62-1.62-2.45-3.54-2.45-5.81,0-1.72.5-3.34,1.52-4.82l8.13-11.72,2.38,1.65ZM328.76,252.64c-.99-1.02-2.18-1.52-3.53-1.52s-2.54.49-3.53,1.52c-1.02,1.02-1.52,2.21-1.52,3.57s.5,2.58,1.45,3.56c.99.96,2.18,1.45,3.6,1.45s2.58-.49,3.57-1.49c.96-.96,1.45-2.15,1.45-3.53s-.5-2.58-1.49-3.57Z"/>
  <path class="st2" d="M393.64,240.59v2.28l-9.18,21.53h-3.04l9.31-21.24h-12.75v-2.58h15.66Z"/>
  <path class="st2" d="M439.03,246.5c0-3.5,2.64-6.34,7.83-6.34s7.86,2.87,7.86,6.34c0,2.58-1.49,4.56-3.83,5.48,2.71.82,4.46,3.01,4.46,5.98,0,4.33-3.44,7.1-8.49,7.1s-8.42-2.77-8.42-7.1c0-3.01,1.75-5.18,4.42-5.98-2.44-.96-3.83-2.81-3.83-5.48ZM441.31,257.86c0,2.81,2.15,4.69,5.55,4.69s5.51-1.92,5.51-4.69c0-3.07-2.38-4.56-5.51-4.56s-5.55,1.39-5.55,4.56ZM451.82,246.86c0-2.74-1.95-4.2-4.95-4.2s-4.92,1.42-4.92,4.23c0,2.48,2.02,4.09,4.92,4.09s4.95-1.65,4.95-4.13Z"/>
  <path class="st2" d="M57.46,303.07l4.92-7.13c-.69.1-1.19.13-1.55.13-2.21,0-4.09-.76-5.58-2.24-1.48-1.49-2.24-3.34-2.24-5.52s.83-3.96,2.44-5.55c1.65-1.58,3.53-2.34,5.71-2.34s4.06.79,5.68,2.41c1.62,1.58,2.41,3.47,2.41,5.58,0,1.72-.53,3.4-1.65,4.99l-7.76,11.36-2.38-1.68ZM64.63,285.07c-.96-.99-2.11-1.49-3.47-1.49-1.42,0-2.61.49-3.57,1.49-.96.96-1.45,2.18-1.45,3.63,0,1.32.53,2.48,1.52,3.43,1.02.96,2.25,1.42,3.7,1.42,1.32,0,2.45-.46,3.37-1.42.92-.96,1.39-2.11,1.39-3.5s-.49-2.58-1.48-3.56Z"/>
  <g>
    <path class="st2" d="M105.6,283.62v-2.74h3.04v23.88h-3.04v-21.14Z"/>
    <path class="st2" d="M124.09,280.51c6.57,0,8.29,5.22,8.29,12.06s-1.72,12.19-8.29,12.19-8.32-5.25-8.32-12.19,1.72-12.06,8.32-12.06ZM124.09,283.26c-4.72,0-5.35,4.36-5.35,9.31s.63,9.45,5.35,9.45,5.32-4.3,5.32-9.45-.63-9.31-5.32-9.31Z"/>
  </g>
  <g>
    <path class="st2" d="M181.8,283.62v-2.74h3.04v23.88h-3.04v-21.14Z"/>
    <path class="st2" d="M192.36,283.62v-2.74h3.04v23.88h-3.04v-21.14Z"/>
  </g>
  <g>
    <path class="st2" d="M246.74,283.62v-2.74h3.04v23.88h-3.04v-21.14Z"/>
    <path class="st2" d="M256.55,302.34c6.27-5.05,12.22-9.81,12.22-14.7,0-2.64-1.16-4.63-4.39-4.63s-4.69,2.15-4.82,5.15h-2.91c.2-5.08,3.4-7.73,7.7-7.73s7.4,2.64,7.4,7.07c0,5.94-6.41,11-10.67,14.47h11.36v2.51h-15.89v-2.15Z"/>
  </g>
  <g>
    <path class="st2" d="M308.65,283.62v-2.74h3.04v23.88h-3.04v-21.14Z"/>
    <path class="st2" d="M326.58,280.42c4.66,0,7.2,2.71,7.2,6.14,0,2.74-1.72,4.89-4.23,5.45v.16c2.77.66,4.66,2.71,4.66,6.14,0,3.7-2.58,6.61-7.56,6.61-4.52,0-7.89-2.41-8.26-7.03h2.91c.3,2.54,2.15,4.49,5.32,4.49s4.72-1.88,4.72-4.32c0-3.37-2.34-4.66-6.64-4.66h-.76v-2.51h.79c4-.03,6.14-1.25,6.14-4.03,0-2.28-1.52-3.86-4.39-3.86s-4.49,1.58-4.79,3.9h-2.94c.3-4.09,3.4-6.47,7.83-6.47Z"/>
  </g>
  <g>
    <path class="st2" d="M366.03,283.62v-2.74h3.04v23.88h-3.04v-21.14Z"/>
    <path class="st2" d="M393.14,298.98h-2.87v5.71h-3.14v-5.71h-11.56v-4.13l7.73-13.67h3.04l-7.66,14.8h8.45v-6.47h3.04v6.47h2.97v3.01Z"/>
  </g>
  <g>
    <path class="st2" d="M428.43,283.62v-2.74h3.04v23.88h-3.04v-21.14Z"/>
    <path class="st2" d="M454.09,280.78v3.14h-7.99l-1.22,4.42c.92-.1,1.45-.13,1.59-.13,2.05,0,3.8.8,5.32,2.45,1.52,1.62,2.28,3.5,2.28,5.71s-.86,4.3-2.58,5.95c-1.75,1.62-3.83,2.41-6.34,2.41-3.14,0-5.71-1.35-7.66-4.13l2.84-1.78c1.39,1.75,3.04,2.61,4.95,2.61,1.58,0,2.91-.49,3.93-1.49s1.55-2.21,1.55-3.73-.53-2.67-1.62-3.66c-1.06-1.02-2.38-1.52-3.93-1.52-.96,0-1.75.16-2.44.49-.69.33-1.45.89-2.31,1.62l3.2-12.35h10.44Z"/>
  </g>
  <g>
    <path class="st2" d="M43,323.97v-2.74h3.04v23.88h-3.04v-21.14Z"/>
    <path class="st2" d="M64.82,322.12l-4.99,7.3c.4-.03.69-.06.86-.06l.66-.04c2.11,0,4,.76,5.58,2.25,1.62,1.52,2.41,3.27,2.41,5.25,0,2.35-.79,4.33-2.38,5.94-1.59,1.65-3.53,2.45-5.84,2.45s-4.26-.8-5.88-2.38c-1.62-1.62-2.45-3.54-2.45-5.81,0-1.72.5-3.34,1.52-4.82l8.13-11.72,2.38,1.65ZM64.63,333.35c-.99-1.02-2.18-1.52-3.53-1.52s-2.54.49-3.53,1.52c-1.02,1.02-1.52,2.21-1.52,3.57s.5,2.58,1.45,3.56c.99.96,2.18,1.45,3.6,1.45s2.58-.49,3.57-1.49c.96-.96,1.45-2.15,1.45-3.53s-.5-2.58-1.49-3.57Z"/>
  </g>
  <g>
    <path class="st2" d="M108.3,323.97v-2.74h3.04v23.88h-3.04v-21.14Z"/>
    <path class="st2" d="M133.17,321.3v2.28l-9.18,21.53h-3.04l9.31-21.24h-12.75v-2.58h15.66Z"/>
  </g>
  <g>
    <path class="st2" d="M171.53,323.97v-2.74h3.04v23.88h-3.04v-21.14Z"/>
    <path class="st2" d="M182.23,327.21c0-3.5,2.64-6.34,7.83-6.34s7.86,2.87,7.86,6.34c0,2.58-1.49,4.56-3.83,5.48,2.71.82,4.46,3.01,4.46,5.98,0,4.33-3.43,7.1-8.49,7.1s-8.42-2.77-8.42-7.1c0-3.01,1.75-5.18,4.43-5.98-2.44-.96-3.83-2.81-3.83-5.48ZM184.51,338.57c0,2.81,2.15,4.69,5.55,4.69s5.52-1.92,5.52-4.69c0-3.07-2.38-4.56-5.52-4.56s-5.55,1.39-5.55,4.56ZM195.01,327.57c0-2.74-1.95-4.2-4.95-4.2s-4.92,1.42-4.92,4.23c0,2.48,2.01,4.09,4.92,4.09s4.95-1.65,4.95-4.13Z"/>
  </g>
  <g>
    <path class="st2" d="M244.93,323.97v-2.74h3.04v23.88h-3.04v-21.14Z"/>
    <path class="st2" d="M259.22,343.43l4.92-7.13c-.69.1-1.19.13-1.55.13-2.21,0-4.09-.76-5.58-2.24-1.48-1.49-2.24-3.34-2.24-5.52s.83-3.96,2.44-5.55c1.65-1.58,3.53-2.34,5.71-2.34s4.06.79,5.68,2.41c1.62,1.58,2.41,3.47,2.41,5.58,0,1.72-.53,3.4-1.65,4.99l-7.76,11.36-2.38-1.68ZM266.39,325.43c-.96-.99-2.11-1.49-3.47-1.49-1.42,0-2.61.49-3.57,1.49-.96.96-1.45,2.18-1.45,3.63,0,1.32.53,2.48,1.52,3.43,1.02.96,2.25,1.42,3.7,1.42,1.32,0,2.45-.46,3.37-1.42.92-.96,1.39-2.11,1.39-3.5s-.49-2.58-1.48-3.56Z"/>
  </g>
  <g>
    <path class="st2" d="M298.18,342.7c6.27-5.05,12.22-9.81,12.22-14.7,0-2.64-1.16-4.63-4.39-4.63s-4.69,2.15-4.82,5.15h-2.91c.2-5.08,3.4-7.73,7.7-7.73s7.4,2.64,7.4,7.07c0,5.94-6.41,11-10.67,14.47h11.36v2.51h-15.89v-2.15Z"/>
    <path class="st2" d="M325.85,320.87c6.57,0,8.29,5.22,8.29,12.06s-1.72,12.19-8.29,12.19-8.32-5.25-8.32-12.19,1.72-12.06,8.32-12.06ZM325.85,323.61c-4.72,0-5.35,4.36-5.35,9.31s.63,9.45,5.35,9.45,5.32-4.3,5.32-9.45-.63-9.31-5.32-9.31Z"/>
  </g>
  <g>
    <path class="st2" d="M367.06,342.7c6.27-5.05,12.22-9.81,12.22-14.7,0-2.64-1.16-4.63-4.39-4.63s-4.69,2.15-4.82,5.15h-2.91c.2-5.08,3.4-7.73,7.7-7.73s7.4,2.64,7.4,7.07c0,5.94-6.41,11-10.67,14.47h11.36v2.51h-15.89v-2.15Z"/>
    <path class="st2" d="M386.8,323.97v-2.74h3.04v23.88h-3.04v-21.14Z"/>
  </g>
  <g>
    <path class="st2" d="M421.01,342.7c6.28-5.05,12.22-9.81,12.22-14.7,0-2.64-1.16-4.63-4.39-4.63s-4.69,2.15-4.82,5.15h-2.91c.2-5.08,3.4-7.73,7.7-7.73s7.4,2.64,7.4,7.07c0,5.94-6.41,11-10.67,14.47h11.36v2.51h-15.89v-2.15Z"/>
    <path class="st2" d="M439.99,342.7c6.28-5.05,12.22-9.81,12.22-14.7,0-2.64-1.16-4.63-4.39-4.63s-4.69,2.15-4.82,5.15h-2.91c.2-5.08,3.4-7.73,7.7-7.73s7.4,2.64,7.4,7.07c0,5.94-6.41,11-10.67,14.47h11.36v2.51h-15.89v-2.15Z"/>
  </g>
  <g>
    <path class="st2" d="M37.08,383.05c6.27-5.05,12.22-9.81,12.22-14.7,0-2.64-1.16-4.63-4.39-4.63s-4.69,2.15-4.82,5.15h-2.91c.2-5.08,3.4-7.73,7.7-7.73s7.4,2.64,7.4,7.07c0,5.94-6.41,11-10.67,14.47h11.36v2.51h-15.89v-2.15Z"/>
    <path class="st2" d="M64.19,361.12c4.66,0,7.2,2.71,7.2,6.14,0,2.74-1.72,4.89-4.23,5.45v.16c2.77.66,4.66,2.71,4.66,6.14,0,3.7-2.58,6.61-7.56,6.61-4.52,0-7.89-2.41-8.26-7.03h2.91c.3,2.54,2.15,4.49,5.32,4.49s4.72-1.88,4.72-4.32c0-3.37-2.34-4.66-6.64-4.66h-.76v-2.51h.79c4-.03,6.14-1.25,6.14-4.03,0-2.28-1.52-3.86-4.39-3.86s-4.49,1.58-4.79,3.9h-2.94c.3-4.09,3.4-6.47,7.83-6.47Z"/>
  </g>
  <g>
    <path class="st2" d="M96.38,383.05c6.27-5.05,12.22-9.81,12.22-14.7,0-2.64-1.16-4.63-4.39-4.63s-4.69,2.15-4.82,5.15h-2.91c.2-5.08,3.4-7.73,7.7-7.73s7.4,2.64,7.4,7.07c0,5.94-6.41,11-10.67,14.47h11.36v2.51h-15.89v-2.15Z"/>
    <path class="st2" d="M132.67,379.68h-2.87v5.71h-3.14v-5.71h-11.56v-4.13l7.73-13.67h3.04l-7.66,14.8h8.45v-6.47h3.04v6.47h2.97v3.01Z"/>
  </g>
  <g>
    <path class="st2" d="M162.45,383.05c6.27-5.05,12.22-9.81,12.22-14.7,0-2.64-1.16-4.63-4.39-4.63s-4.69,2.15-4.82,5.15h-2.91c.2-5.08,3.4-7.73,7.7-7.73s7.4,2.64,7.4,7.07c0,5.94-6.41,11-10.67,14.47h11.36v2.51h-15.89v-2.15Z"/>
    <path class="st2" d="M197.29,361.48v3.14h-7.99l-1.22,4.42c.93-.1,1.45-.13,1.59-.13,2.05,0,3.8.8,5.32,2.45,1.52,1.62,2.28,3.5,2.28,5.71s-.86,4.3-2.58,5.95c-1.75,1.62-3.83,2.41-6.34,2.41-3.14,0-5.71-1.35-7.66-4.13l2.84-1.78c1.39,1.75,3.04,2.61,4.95,2.61,1.59,0,2.91-.49,3.93-1.49,1.02-.99,1.55-2.21,1.55-3.73s-.53-2.67-1.62-3.66c-1.06-1.02-2.38-1.52-3.93-1.52-.96,0-1.75.16-2.45.49s-1.45.89-2.31,1.62l3.2-12.35h10.44Z"/>
  </g>
  <g>
    <path class="st2" d="M235.58,383.05c6.27-5.05,12.22-9.81,12.22-14.7,0-2.64-1.16-4.63-4.39-4.63s-4.69,2.15-4.82,5.15h-2.91c.2-5.08,3.4-7.73,7.7-7.73s7.4,2.64,7.4,7.07c0,5.94-6.41,11-10.67,14.47h11.36v2.51h-15.89v-2.15Z"/>
    <path class="st2" d="M266.59,362.48l-4.99,7.3c.4-.03.7-.06.86-.06l.66-.04c2.11,0,4,.76,5.58,2.25,1.62,1.52,2.41,3.27,2.41,5.25,0,2.35-.79,4.33-2.38,5.94-1.59,1.65-3.53,2.45-5.84,2.45s-4.26-.8-5.88-2.38c-1.62-1.62-2.45-3.54-2.45-5.81,0-1.72.5-3.34,1.52-4.82l8.13-11.72,2.38,1.65ZM266.39,373.71c-.99-1.02-2.18-1.52-3.53-1.52s-2.54.49-3.53,1.52c-1.02,1.02-1.52,2.21-1.52,3.57s.5,2.58,1.45,3.56c.99.96,2.18,1.45,3.6,1.45s2.58-.49,3.57-1.49c.96-.96,1.45-2.15,1.45-3.53s-.5-2.58-1.49-3.57Z"/>
  </g>
  <g>
    <path class="st2" d="M300.89,383.05c6.27-5.05,12.22-9.81,12.22-14.7,0-2.64-1.16-4.63-4.39-4.63s-4.69,2.15-4.82,5.15h-2.91c.2-5.08,3.4-7.73,7.7-7.73s7.4,2.64,7.4,7.07c0,5.94-6.41,11-10.67,14.47h11.36v2.51h-15.89v-2.15Z"/>
    <path class="st2" d="M334.94,361.65v2.28l-9.18,21.53h-3.04l9.31-21.24h-12.75v-2.58h15.66Z"/>
  </g>
  <g>
    <path class="st2" d="M356.79,383.05c6.27-5.05,12.22-9.81,12.22-14.7,0-2.64-1.16-4.63-4.39-4.63s-4.69,2.15-4.82,5.15h-2.91c.2-5.08,3.4-7.73,7.7-7.73s7.4,2.64,7.4,7.07c0,5.94-6.41,11-10.67,14.47h11.36v2.51h-15.89v-2.15Z"/>
    <path class="st2" d="M376.66,367.56c0-3.5,2.64-6.34,7.83-6.34s7.86,2.87,7.86,6.34c0,2.58-1.49,4.56-3.83,5.48,2.71.82,4.46,3.01,4.46,5.98,0,4.33-3.44,7.1-8.49,7.1s-8.42-2.77-8.42-7.1c0-3.01,1.75-5.18,4.43-5.98-2.44-.96-3.83-2.81-3.83-5.48ZM378.94,378.92c0,2.81,2.15,4.69,5.55,4.69s5.52-1.92,5.52-4.69c0-3.07-2.38-4.56-5.52-4.56s-5.55,1.39-5.55,4.56ZM389.44,367.93c0-2.74-1.95-4.2-4.95-4.2s-4.92,1.42-4.92,4.23c0,2.48,2.01,4.09,4.92,4.09s4.95-1.65,4.95-4.13Z"/>
  </g>
  <g>
    <path class="st2" d="M419.19,383.05c6.28-5.05,12.22-9.81,12.22-14.7,0-2.64-1.16-4.63-4.39-4.63s-4.69,2.15-4.82,5.15h-2.91c.2-5.08,3.4-7.73,7.7-7.73s7.4,2.64,7.4,7.07c0,5.94-6.41,11-10.67,14.47h11.36v2.51h-15.89v-2.15Z"/>
    <path class="st2" d="M442.67,383.78l4.92-7.13c-.69.1-1.19.13-1.55.13-2.21,0-4.09-.76-5.58-2.24-1.49-1.49-2.25-3.34-2.25-5.52s.83-3.96,2.45-5.55c1.65-1.58,3.53-2.34,5.71-2.34s4.06.79,5.68,2.41c1.62,1.58,2.41,3.47,2.41,5.58,0,1.72-.53,3.4-1.65,4.99l-7.76,11.36-2.38-1.68ZM449.83,365.78c-.96-.99-2.11-1.49-3.47-1.49s-2.61.49-3.56,1.49c-.96.96-1.45,2.18-1.45,3.63,0,1.32.53,2.48,1.52,3.43,1.02.96,2.25,1.42,3.7,1.42,1.32,0,2.44-.46,3.37-1.42.92-.96,1.39-2.11,1.39-3.5s-.49-2.58-1.49-3.56Z"/>
  </g>
  <g>
    <path class="st2" d="M45.21,401.48c4.66,0,7.2,2.71,7.2,6.14,0,2.74-1.72,4.89-4.23,5.45v.16c2.77.66,4.66,2.71,4.66,6.14,0,3.7-2.58,6.61-7.56,6.61-4.52,0-7.89-2.41-8.26-7.03h2.91c.3,2.54,2.15,4.49,5.32,4.49s4.72-1.88,4.72-4.32c0-3.37-2.34-4.66-6.64-4.66h-.76v-2.51h.79c4-.03,6.14-1.25,6.14-4.03,0-2.28-1.52-3.86-4.39-3.86s-4.49,1.58-4.79,3.9h-2.94c.3-4.09,3.4-6.47,7.83-6.47Z"/>
    <path class="st2" d="M65.22,401.57c6.57,0,8.29,5.22,8.29,12.06s-1.72,12.19-8.29,12.19-8.32-5.25-8.32-12.19,1.72-12.06,8.32-12.06ZM65.22,404.32c-4.72,0-5.35,4.36-5.35,9.31s.63,9.45,5.35,9.45,5.32-4.3,5.32-9.45-.63-9.31-5.32-9.31Z"/>
  </g>
  <g>
    <path class="st2" d="M114.25,401.48c4.66,0,7.2,2.71,7.2,6.14,0,2.74-1.72,4.89-4.23,5.45v.16c2.77.66,4.66,2.71,4.66,6.14,0,3.7-2.58,6.61-7.56,6.61-4.52,0-7.89-2.41-8.26-7.03h2.91c.3,2.54,2.15,4.49,5.32,4.49s4.72-1.88,4.72-4.32c0-3.37-2.34-4.66-6.64-4.66h-.76v-2.51h.79c4-.03,6.14-1.25,6.14-4.03,0-2.28-1.52-3.86-4.39-3.86s-4.49,1.58-4.79,3.9h-2.94c.3-4.09,3.4-6.47,7.83-6.47Z"/>
    <path class="st2" d="M126.33,404.68v-2.74h3.04v23.88h-3.04v-21.14Z"/>
  </g>
  <line class="st0" x1="18.99" y1="188.53" x2="487.99" y2="188.53"/>
  <path class="st1" d="M54.81,180.45c16.44,0,29.76-11.46,29.76-25.6s-13.32-25.6-29.76-25.6-29.76,11.46-29.76,25.6,13.32,25.6,29.76,25.6Z"/>
  <path class="st0" d="M30.19,121.97h446.09c5.74,0,10.4,4.66,10.4,10.4v295.82c0,5.74-4.66,10.4-10.4,10.4H30.19c-5.74,0-10.4-4.66-10.4-10.4V132.37c0-5.74,4.66-10.4,10.4-10.4Z"/>
</svg>