<?xml version="1.0" encoding="UTF-8"?>
<svg id="Layer_1" xmlns="http://www.w3.org/2000/svg" version="1.1" viewBox="0 0 500 500">
  <!-- Generator: Adobe Illustrator 30.1.0, SVG Export Plug-In . SVG Version: 2.1.1 Build 136)  -->
  <defs>
    <style>
      .st0 {
        fill: #231f20;
      }

      .st1, .st2 {
        fill: none;
        stroke: #231f20;
      }

      .st2 {
        stroke-width: .5px;
      }

      .st3 {
        fill: #dcddde;
      }
    </style>
  </defs>
  <rect class="st3" x="94.56" y="95.53" width="306.83" height="60.63" rx="27.59" ry="27.59"/>
  <g>
    <path class="st0" d="M161.24,127.64c0,9.12-6.32,15.4-16.14,15.4h-11.54v-30.79h11.54c9.83,0,16.14,6.23,16.14,15.4ZM144.62,136.55c5.66,0,8.99-3.25,8.99-8.9s-3.33-8.99-8.99-8.99h-3.55v17.9h3.55Z"/>
    <path class="st0" d="M184.32,118.25h-11.36v6.23h10.05v5.79h-10.05v6.76h11.36v6.01h-18.87v-30.79h18.87v6.01Z"/>
    <path class="st0" d="M203.39,111.89c7.32,0,12.85,4.12,14.61,10.79h-8.25c-1.27-2.63-3.6-3.95-6.45-3.95-4.61,0-7.76,3.42-7.76,8.86s3.16,8.86,7.76,8.86c2.85,0,5.17-1.32,6.45-3.95h8.25c-1.76,6.67-7.28,10.75-14.61,10.75-9.08,0-15.49-6.45-15.49-15.66s6.41-15.7,15.49-15.7Z"/>
    <path class="st0" d="M241.47,118.25h-11.36v6.23h10.05v5.79h-10.05v6.76h11.36v6.01h-18.87v-30.79h18.87v6.01Z"/>
    <path class="st0" d="M246.32,112.24h8.86l8.64,21.32,8.55-21.32h8.82v30.79h-7.5v-18.47l-6.88,18.47h-6.05l-6.93-18.51v18.51h-7.5v-30.79Z"/>
    <path class="st0" d="M300.94,143.04h-14.34v-30.79h13.86c6.27,0,10,3.12,10,7.98,0,3.73-2.24,6.14-5.22,7.02,3.6.75,5.92,3.9,5.92,7.41,0,5.09-3.73,8.38-10.22,8.38ZM299.01,118.25h-4.91v6.45h4.91c2.46,0,3.82-1.1,3.82-3.2s-1.36-3.25-3.82-3.25ZM299.53,130.19h-5.44v6.8h5.53c2.5,0,3.95-1.14,3.95-3.34s-1.53-3.47-4.03-3.47Z"/>
    <path class="st0" d="M334.36,118.25h-11.36v6.23h10.05v5.79h-10.05v6.76h11.36v6.01h-18.87v-30.79h18.87v6.01Z"/>
    <path class="st0" d="M351.81,112.24c7.54,0,11.32,4.34,11.32,9.69,0,3.86-2.11,7.5-6.84,8.91l7.11,12.2h-8.47l-6.41-11.63h-1.8v11.63h-7.5v-30.79h12.59ZM351.37,118.47h-4.65v7.63h4.65c2.81,0,4.12-1.45,4.12-3.86,0-2.28-1.32-3.77-4.12-3.77Z"/>
  </g>
  <g>
    <path class="st0" d="M57.3,190.39c-4,0-7.12-2.39-7.25-6.92h4.82c.13,1.72,1.03,2.55,2.3,2.55s2.17-.8,2.17-2.1c0-4.14-9.29-1.91-9.24-9.85,0-4.24,2.89-6.6,6.78-6.6s6.78,2.42,6.96,6.7h-4.9c-.08-1.43-.93-2.3-2.14-2.33-1.09-.03-1.91.64-1.91,2.04,0,3.89,9.19,2.14,9.19,9.63,0,3.76-2.43,6.89-6.78,6.89Z"/>
    <path class="st0" d="M81.44,190.16h-4.52v-2.42c-.9,1.53-2.49,2.61-4.47,2.61-3.41,0-5.72-2.84-5.72-7.59v-10.39h4.5v9.66c0,2.42,1.14,3.76,2.83,3.76s2.86-1.34,2.86-3.76v-9.66h4.52v17.79Z"/>
  </g>
  <g>
    <path class="st0" d="M106.39,167.78h5.35l5.21,15.49,5.16-15.49h5.32v22.38h-4.52v-13.42l-4.15,13.42h-3.65l-4.18-13.45v13.45h-4.53v-22.38Z"/>
    <path class="st0" d="M137.42,190.42c-4.34,0-7.62-3.51-7.62-9.15s3.36-9.15,7.67-9.15,7.67,3.51,7.67,9.15-3.39,9.15-7.73,9.15ZM137.42,185.7c1.61,0,3.12-1.43,3.12-4.43s-1.48-4.43-3.07-4.43-3.07,1.4-3.07,4.43,1.37,4.43,3.02,4.43Z"/>
  </g>
  <g>
    <path class="st0" d="M169.19,167.78h14.37v4.37h-4.92v18.01h-4.53v-18.01h-4.92v-4.37Z"/>
    <path class="st0" d="M200.42,190.16h-4.52v-2.42c-.9,1.53-2.49,2.61-4.47,2.61-3.41,0-5.72-2.84-5.72-7.59v-10.39h4.5v9.66c0,2.42,1.14,3.76,2.83,3.76s2.86-1.34,2.86-3.76v-9.66h4.52v17.79Z"/>
  </g>
  <g>
    <path class="st0" d="M229.02,167.78h4.84l2.67,16.29,3.31-16.29h4.98l3.17,16.29,2.7-16.29h4.87l-4.84,22.38h-5.48l-2.96-14.73-3.07,14.73h-5.48l-4.71-22.38Z"/>
    <path class="st0" d="M264.42,190.42c-4.34,0-7.46-3.51-7.46-9.15s3.07-9.15,7.46-9.15,7.36,3.44,7.36,8.86c0,.51-.03,1.05-.08,1.59h-10.24c.16,2.33,1.35,3.41,2.8,3.41,1.27,0,1.99-.77,2.36-1.72h4.82c-.71,3.47-3.33,6.15-7.01,6.15ZM261.48,179.55h5.66c0-1.94-1.27-3.06-2.78-3.06s-2.62,1.08-2.88,3.06Z"/>
  </g>
  <g>
    <path class="st0" d="M292.8,167.78h14.37v4.37h-4.92v18.01h-4.53v-18.01h-4.92v-4.37Z"/>
    <path class="st0" d="M309.45,166.57h4.53v8.19c.9-1.53,2.51-2.58,4.55-2.58,3.36,0,5.61,2.8,5.61,7.59v10.39h-4.5v-9.66c0-2.42-1.11-3.76-2.83-3.76s-2.83,1.34-2.83,3.76v9.66h-4.53v-23.59Z"/>
  </g>
  <g>
    <path class="st0" d="M349.62,167.78h12.1v4.37h-7.57v4.72h5.66v4.24h-5.66v9.06h-4.53v-22.38Z"/>
    <path class="st0" d="M368.63,190.16h-4.53v-17.79h4.53v2.97c1.03-1.88,2.64-3.16,4.63-3.16v5.77h-1.24c-2.15,0-3.39.89-3.39,3.95v8.26Z"/>
  </g>
  <g>
    <path class="st0" d="M404.18,190.39c-4,0-7.12-2.39-7.25-6.92h4.82c.13,1.72,1.04,2.55,2.31,2.55s2.17-.8,2.17-2.1c0-4.14-9.29-1.91-9.24-9.85,0-4.24,2.89-6.6,6.78-6.6s6.78,2.42,6.96,6.7h-4.9c-.08-1.43-.93-2.3-2.14-2.33-1.09-.03-1.91.64-1.91,2.04,0,3.89,9.19,2.14,9.19,9.63,0,3.76-2.44,6.89-6.78,6.89Z"/>
    <path class="st0" d="M419.35,172.12c2.2,0,3.76,1.21,4.55,2.77v-2.52h4.53v17.79h-4.53v-2.52c-.82,1.56-2.38,2.77-4.58,2.77-3.6,0-6.49-3.57-6.49-9.18s2.89-9.12,6.51-9.12ZM420.68,176.87c-1.69,0-3.23,1.53-3.23,4.37s1.53,4.43,3.23,4.43,3.23-1.56,3.23-4.4-1.51-4.4-3.23-4.4Z"/>
  </g>
  <path class="st0" d="M425.2,219.34v-2.65h2.43v23.05h-2.43v-20.4Z"/>
  <path class="st0" d="M70.94,273.3c5.03-4.88,9.79-9.47,9.79-14.19,0-2.55-.92-4.46-3.52-4.46s-3.76,2.07-3.87,4.97h-2.33c.16-4.91,2.73-7.46,6.17-7.46s5.93,2.55,5.93,6.82c0,5.74-5.13,10.62-8.55,13.97h9.1v2.42h-12.73v-2.07Z"/>
  <path class="st0" d="M132.92,252.13c3.73,0,5.77,2.61,5.77,5.93,0,2.65-1.37,4.72-3.39,5.26v.16c2.22.64,3.73,2.61,3.73,5.93,0,3.57-2.06,6.38-6.06,6.38-3.63,0-6.32-2.33-6.62-6.79h2.33c.24,2.46,1.72,4.34,4.26,4.34s3.78-1.82,3.78-4.18c0-3.25-1.88-4.5-5.32-4.5h-.61v-2.42h.63c3.2-.03,4.92-1.21,4.92-3.89,0-2.2-1.21-3.73-3.52-3.73s-3.6,1.53-3.84,3.76h-2.36c.24-3.95,2.73-6.25,6.27-6.25Z"/>
  <path class="st0" d="M195.02,270.05h-2.3v5.52h-2.52v-5.52h-9.26v-3.99l6.2-13.2h2.43l-6.14,14.28h6.78v-6.25h2.43v6.25h2.38v2.9Z"/>
  <path class="st0" d="M257.69,252.48v3.03h-6.41l-.98,4.27c.74-.1,1.16-.13,1.27-.13,1.64,0,3.04.77,4.26,2.36,1.22,1.56,1.83,3.38,1.83,5.52s-.69,4.14-2.06,5.74c-1.4,1.56-3.07,2.33-5.08,2.33-2.52,0-4.58-1.31-6.14-3.99l2.28-1.72c1.11,1.69,2.43,2.52,3.97,2.52,1.27,0,2.33-.48,3.15-1.43.82-.96,1.25-2.14,1.25-3.6s-.42-2.58-1.3-3.54c-.85-.99-1.91-1.47-3.15-1.47-.77,0-1.4.16-1.96.48-.56.32-1.16.86-1.85,1.56l2.57-11.92h8.36Z"/>
  <path class="st0" d="M314.25,253.44l-4,7.05c.32-.03.56-.06.69-.06l.53-.03c1.69,0,3.2.73,4.47,2.17,1.3,1.47,1.93,3.16,1.93,5.07,0,2.26-.63,4.18-1.91,5.74-1.27,1.59-2.83,2.36-4.68,2.36s-3.41-.77-4.71-2.3c-1.3-1.56-1.96-3.41-1.96-5.61,0-1.66.4-3.22,1.21-4.66l6.51-11.32,1.91,1.59ZM314.09,264.28c-.79-.99-1.75-1.47-2.83-1.47s-2.04.48-2.83,1.47c-.82.99-1.21,2.14-1.21,3.44s.4,2.49,1.16,3.44c.79.92,1.74,1.4,2.89,1.4s2.06-.48,2.86-1.43c.77-.92,1.16-2.07,1.16-3.41s-.4-2.49-1.19-3.44Z"/>
  <path class="st0" d="M374.85,252.64v2.2l-7.36,20.79h-2.43l7.46-20.5h-10.22v-2.49h12.55Z"/>
  <path class="st0" d="M417.05,258.35c0-3.38,2.12-6.12,6.27-6.12s6.3,2.77,6.3,6.12c0,2.49-1.19,4.4-3.07,5.29,2.17.8,3.57,2.9,3.57,5.77,0,4.18-2.75,6.85-6.8,6.85s-6.75-2.68-6.75-6.85c0-2.9,1.4-5.01,3.55-5.77-1.96-.92-3.07-2.71-3.07-5.29ZM418.88,269.32c0,2.71,1.72,4.53,4.45,4.53s4.42-1.85,4.42-4.53c0-2.97-1.9-4.4-4.42-4.4s-4.45,1.34-4.45,4.4ZM427.3,258.7c0-2.65-1.56-4.05-3.97-4.05s-3.94,1.37-3.94,4.08c0,2.39,1.62,3.95,3.94,3.95s3.97-1.59,3.97-3.99Z"/>
  <path class="st0" d="M73.08,305.9l3.94-6.89c-.56.1-.95.13-1.25.13-1.77,0-3.28-.73-4.47-2.17-1.19-1.43-1.8-3.22-1.8-5.32s.66-3.83,1.96-5.36c1.32-1.53,2.83-2.26,4.58-2.26s3.26.77,4.55,2.33c1.3,1.53,1.94,3.35,1.94,5.39,0,1.66-.42,3.28-1.32,4.81l-6.22,10.97-1.9-1.63ZM78.82,288.53c-.77-.96-1.69-1.43-2.78-1.43s-2.09.48-2.86,1.43c-.77.92-1.16,2.1-1.16,3.51,0,1.28.42,2.39,1.22,3.32.82.92,1.8,1.37,2.96,1.37,1.06,0,1.96-.45,2.7-1.37.74-.92,1.11-2.04,1.11-3.38s-.4-2.49-1.19-3.44Z"/>
  <g>
    <path class="st0" d="M117.48,287.12v-2.65h2.43v23.05h-2.43v-20.4Z"/>
    <path class="st0" d="M132.31,284.13c5.27,0,6.64,5.04,6.64,11.64s-1.37,11.76-6.64,11.76-6.67-5.07-6.67-11.76,1.38-11.64,6.67-11.64ZM132.31,286.77c-3.78,0-4.29,4.21-4.29,8.99s.5,9.12,4.29,9.12,4.26-4.14,4.26-9.12-.51-8.99-4.26-8.99Z"/>
  </g>
  <g>
    <path class="st0" d="M181.45,287.12v-2.65h2.43v23.05h-2.43v-20.4Z"/>
    <path class="st0" d="M189.92,287.12v-2.65h2.43v23.05h-2.43v-20.4Z"/>
  </g>
  <g>
    <path class="st0" d="M238.5,287.12v-2.65h2.43v23.05h-2.43v-20.4Z"/>
    <path class="st0" d="M246.37,305.2c5.03-4.88,9.79-9.47,9.79-14.19,0-2.55-.92-4.46-3.52-4.46s-3.76,2.07-3.86,4.97h-2.33c.16-4.91,2.73-7.46,6.17-7.46s5.93,2.55,5.93,6.82c0,5.74-5.13,10.62-8.55,13.97h9.1v2.42h-12.73v-2.07Z"/>
  </g>
  <g>
    <path class="st0" d="M297.94,287.12v-2.65h2.43v23.05h-2.43v-20.4Z"/>
    <path class="st0" d="M312.32,284.03c3.73,0,5.77,2.61,5.77,5.93,0,2.65-1.37,4.72-3.39,5.26v.16c2.22.64,3.73,2.61,3.73,5.93,0,3.57-2.06,6.38-6.06,6.38-3.63,0-6.32-2.33-6.62-6.79h2.33c.24,2.46,1.72,4.34,4.26,4.34s3.78-1.82,3.78-4.18c0-3.25-1.88-4.5-5.32-4.5h-.61v-2.42h.63c3.2-.03,4.92-1.21,4.92-3.89,0-2.2-1.21-3.73-3.52-3.73s-3.6,1.53-3.84,3.76h-2.36c.24-3.95,2.73-6.25,6.27-6.25Z"/>
  </g>
  <g>
    <path class="st0" d="M352.69,287.12v-2.65h2.43v23.05h-2.43v-20.4Z"/>
    <path class="st0" d="M374.42,301.95h-2.3v5.52h-2.52v-5.52h-9.26v-3.99l6.2-13.2h2.43l-6.14,14.28h6.78v-6.25h2.43v6.25h2.38v2.9Z"/>
  </g>
  <g>
    <path class="st0" d="M408.53,287.12v-2.65h2.43v23.05h-2.43v-20.4Z"/>
    <path class="st0" d="M429.1,284.38v3.03h-6.41l-.98,4.27c.74-.1,1.16-.13,1.27-.13,1.64,0,3.04.77,4.26,2.36,1.22,1.56,1.83,3.38,1.83,5.52s-.69,4.14-2.06,5.74c-1.4,1.56-3.07,2.33-5.08,2.33-2.52,0-4.58-1.31-6.14-3.99l2.28-1.72c1.11,1.69,2.43,2.52,3.97,2.52,1.27,0,2.33-.48,3.15-1.43.82-.96,1.25-2.14,1.25-3.6s-.42-2.58-1.3-3.54c-.85-.99-1.91-1.47-3.15-1.47-.77,0-1.4.16-1.96.48-.56.32-1.16.86-1.85,1.56l2.57-11.92h8.36Z"/>
  </g>
  <g>
    <path class="st0" d="M61.49,319.02v-2.65h2.43v23.05h-2.43v-20.4Z"/>
    <path class="st0" d="M78.99,317.24l-4,7.05c.32-.03.56-.06.69-.06l.53-.03c1.69,0,3.2.73,4.47,2.17,1.3,1.47,1.93,3.16,1.93,5.07,0,2.26-.63,4.18-1.9,5.74-1.27,1.59-2.83,2.36-4.69,2.36s-3.41-.77-4.71-2.3c-1.3-1.56-1.96-3.41-1.96-5.61,0-1.66.4-3.22,1.21-4.66l6.51-11.32,1.91,1.59ZM78.83,328.08c-.79-.99-1.75-1.47-2.83-1.47s-2.04.48-2.83,1.47c-.82.99-1.21,2.14-1.21,3.44s.4,2.49,1.16,3.44c.79.92,1.74,1.4,2.89,1.4s2.06-.48,2.86-1.43c.77-.92,1.16-2.07,1.16-3.41s-.4-2.49-1.19-3.44Z"/>
  </g>
  <g>
    <path class="st0" d="M119.68,319.02v-2.65h2.43v23.05h-2.43v-20.4Z"/>
    <path class="st0" d="M139.61,316.44v2.2l-7.36,20.79h-2.43l7.46-20.5h-10.22v-2.49h12.55Z"/>
  </g>
  <g>
    <path class="st0" d="M173.24,319.02v-2.65h2.43v23.05h-2.43v-20.4Z"/>
    <path class="st0" d="M181.82,322.15c0-3.38,2.12-6.12,6.27-6.12s6.3,2.77,6.3,6.12c0,2.49-1.19,4.4-3.07,5.29,2.17.8,3.57,2.9,3.57,5.77,0,4.18-2.75,6.85-6.8,6.85s-6.75-2.68-6.75-6.85c0-2.9,1.4-5.01,3.55-5.77-1.96-.92-3.07-2.71-3.07-5.29ZM183.65,333.11c0,2.71,1.72,4.53,4.45,4.53s4.42-1.85,4.42-4.53c0-2.97-1.9-4.4-4.42-4.4s-4.45,1.34-4.45,4.4ZM192.06,322.5c0-2.65-1.56-4.05-3.97-4.05s-3.94,1.37-3.94,4.08c0,2.39,1.62,3.95,3.94,3.95s3.97-1.59,3.97-3.99Z"/>
  </g>
  <g>
    <path class="st0" d="M237.07,319.02v-2.65h2.43v23.05h-2.43v-20.4Z"/>
    <path class="st0" d="M248.54,337.8l3.94-6.89c-.56.1-.95.13-1.25.13-1.77,0-3.28-.73-4.47-2.17-1.19-1.43-1.8-3.22-1.8-5.32s.66-3.83,1.96-5.36c1.32-1.53,2.83-2.26,4.58-2.26s3.26.77,4.55,2.33c1.3,1.53,1.94,3.35,1.94,5.39,0,1.66-.42,3.28-1.32,4.81l-6.22,10.97-1.9-1.63ZM254.28,320.43c-.77-.96-1.69-1.43-2.78-1.43s-2.09.48-2.86,1.43c-.77.92-1.16,2.1-1.16,3.51,0,1.28.42,2.39,1.22,3.32.82.92,1.8,1.37,2.96,1.37,1.06,0,1.96-.45,2.7-1.37.74-.92,1.11-2.04,1.11-3.38s-.4-2.49-1.19-3.44Z"/>
  </g>
  <g>
    <path class="st0" d="M289.57,337.1c5.03-4.88,9.79-9.47,9.79-14.19,0-2.55-.92-4.46-3.52-4.46s-3.76,2.07-3.86,4.97h-2.33c.16-4.91,2.73-7.46,6.17-7.46s5.93,2.55,5.93,6.82c0,5.74-5.13,10.62-8.55,13.97h9.1v2.42h-12.73v-2.07Z"/>
    <path class="st0" d="M311.76,316.03c5.27,0,6.64,5.04,6.64,11.64s-1.37,11.76-6.64,11.76-6.67-5.07-6.67-11.76,1.38-11.64,6.67-11.64ZM311.76,318.67c-3.78,0-4.29,4.21-4.29,8.99s.5,9.12,4.29,9.12,4.26-4.14,4.26-9.12-.51-8.99-4.26-8.99Z"/>
  </g>
  <g>
    <path class="st0" d="M353.54,337.1c5.03-4.88,9.79-9.47,9.79-14.19,0-2.55-.92-4.46-3.52-4.46s-3.76,2.07-3.86,4.97h-2.33c.16-4.91,2.73-7.46,6.17-7.46s5.93,2.55,5.93,6.82c0,5.74-5.13,10.62-8.55,13.97h9.1v2.42h-12.73v-2.07Z"/>
    <path class="st0" d="M369.37,319.02v-2.65h2.43v23.05h-2.43v-20.4Z"/>
  </g>
  <g>
    <path class="st0" d="M402.6,337.1c5.03-4.88,9.79-9.47,9.79-14.19,0-2.55-.92-4.46-3.52-4.46s-3.76,2.07-3.87,4.97h-2.33c.16-4.91,2.73-7.46,6.17-7.46s5.93,2.55,5.93,6.82c0,5.74-5.13,10.62-8.55,13.97h9.1v2.42h-12.73v-2.07Z"/>
    <path class="st0" d="M417.82,337.1c5.03-4.88,9.79-9.47,9.79-14.19,0-2.55-.92-4.46-3.52-4.46s-3.76,2.07-3.87,4.97h-2.33c.16-4.91,2.73-7.46,6.17-7.46s5.93,2.55,5.93,6.82c0,5.74-5.13,10.62-8.55,13.97h9.1v2.42h-12.73v-2.07Z"/>
  </g>
  <g>
    <path class="st0" d="M55.35,369c5.03-4.88,9.79-9.47,9.79-14.19,0-2.55-.92-4.46-3.52-4.46s-3.76,2.07-3.87,4.97h-2.33c.16-4.91,2.73-7.46,6.17-7.46s5.93,2.55,5.93,6.82c0,5.74-5.13,10.62-8.55,13.97h9.1v2.42h-12.73v-2.07Z"/>
    <path class="st0" d="M77.08,347.83c3.73,0,5.77,2.61,5.77,5.93,0,2.65-1.37,4.72-3.39,5.26v.16c2.22.64,3.73,2.61,3.73,5.93,0,3.57-2.06,6.38-6.06,6.38-3.63,0-6.32-2.33-6.62-6.79h2.33c.24,2.46,1.72,4.34,4.26,4.34s3.78-1.82,3.78-4.18c0-3.25-1.88-4.5-5.32-4.5h-.61v-2.42h.63c3.2-.03,4.92-1.21,4.92-3.89,0-2.2-1.21-3.73-3.52-3.73s-3.6,1.53-3.84,3.76h-2.36c.24-3.95,2.73-6.25,6.27-6.25Z"/>
  </g>
  <g>
    <path class="st0" d="M110.1,369c5.03-4.88,9.79-9.47,9.79-14.19,0-2.55-.92-4.46-3.52-4.46s-3.76,2.07-3.86,4.97h-2.33c.16-4.91,2.73-7.46,6.17-7.46s5.93,2.55,5.93,6.82c0,5.74-5.13,10.62-8.55,13.97h9.1v2.42h-12.73v-2.07Z"/>
    <path class="st0" d="M139.19,365.74h-2.3v5.52h-2.52v-5.52h-9.26v-3.99l6.2-13.2h2.43l-6.14,14.28h6.78v-6.25h2.43v6.25h2.38v2.9Z"/>
  </g>
  <g>
    <path class="st0" d="M165.96,369c5.03-4.88,9.79-9.47,9.79-14.19,0-2.55-.92-4.46-3.52-4.46s-3.76,2.07-3.86,4.97h-2.33c.16-4.91,2.73-7.46,6.17-7.46s5.93,2.55,5.93,6.82c0,5.74-5.13,10.62-8.55,13.97h9.1v2.42h-12.73v-2.07Z"/>
    <path class="st0" d="M193.89,348.18v3.03h-6.41l-.98,4.27c.74-.1,1.16-.13,1.27-.13,1.64,0,3.04.77,4.26,2.36,1.22,1.56,1.83,3.38,1.83,5.52s-.69,4.14-2.06,5.74c-1.4,1.56-3.07,2.33-5.08,2.33-2.52,0-4.58-1.31-6.14-3.99l2.28-1.72c1.11,1.69,2.43,2.52,3.97,2.52,1.27,0,2.33-.48,3.15-1.43.82-.96,1.25-2.14,1.25-3.6s-.42-2.58-1.3-3.54c-.85-.99-1.91-1.47-3.15-1.47-.77,0-1.4.16-1.96.48-.56.32-1.16.86-1.85,1.56l2.57-11.92h8.36Z"/>
  </g>
  <g>
    <path class="st0" d="M229.58,369c5.03-4.88,9.79-9.47,9.79-14.19,0-2.55-.92-4.46-3.52-4.46s-3.76,2.07-3.87,4.97h-2.33c.16-4.91,2.73-7.46,6.17-7.46s5.93,2.55,5.93,6.82c0,5.74-5.13,10.62-8.55,13.97h9.1v2.42h-12.73v-2.07Z"/>
    <path class="st0" d="M254.44,349.13l-4,7.05c.32-.03.56-.06.69-.06l.53-.03c1.69,0,3.2.73,4.47,2.17,1.3,1.47,1.93,3.16,1.93,5.07,0,2.26-.63,4.18-1.91,5.74-1.27,1.59-2.83,2.36-4.68,2.36s-3.41-.77-4.71-2.3c-1.3-1.56-1.96-3.41-1.96-5.61,0-1.66.4-3.22,1.21-4.66l6.51-11.32,1.91,1.59ZM254.28,359.98c-.79-.99-1.75-1.47-2.83-1.47s-2.04.48-2.83,1.47c-.82.99-1.21,2.14-1.21,3.44s.4,2.49,1.16,3.44c.79.92,1.74,1.4,2.89,1.4s2.06-.48,2.86-1.43c.77-.92,1.16-2.07,1.16-3.41s-.4-2.49-1.19-3.44Z"/>
  </g>
  <g>
    <path class="st0" d="M291.75,369c5.03-4.88,9.79-9.47,9.79-14.19,0-2.55-.92-4.46-3.52-4.46s-3.76,2.07-3.86,4.97h-2.33c.16-4.91,2.73-7.46,6.17-7.46s5.93,2.55,5.93,6.82c0,5.74-5.13,10.62-8.55,13.97h9.1v2.42h-12.73v-2.07Z"/>
    <path class="st0" d="M319.04,348.34v2.2l-7.36,20.79h-2.43l7.46-20.5h-10.22v-2.49h12.55Z"/>
  </g>
  <g>
    <path class="st0" d="M345.31,369c5.03-4.88,9.79-9.47,9.79-14.19,0-2.55-.92-4.46-3.52-4.46s-3.76,2.07-3.87,4.97h-2.33c.16-4.91,2.73-7.46,6.17-7.46s5.93,2.55,5.93,6.82c0,5.74-5.13,10.62-8.55,13.97h9.1v2.42h-12.73v-2.07Z"/>
    <path class="st0" d="M361.24,354.05c0-3.38,2.12-6.12,6.27-6.12s6.3,2.77,6.3,6.12c0,2.49-1.19,4.4-3.07,5.29,2.17.8,3.57,2.9,3.57,5.77,0,4.18-2.75,6.85-6.8,6.85s-6.75-2.68-6.75-6.85c0-2.9,1.4-5.01,3.55-5.77-1.96-.92-3.07-2.71-3.07-5.29ZM363.07,365.01c0,2.71,1.72,4.53,4.45,4.53s4.42-1.85,4.42-4.53c0-2.97-1.9-4.4-4.42-4.4s-4.45,1.34-4.45,4.4ZM371.49,354.4c0-2.65-1.56-4.05-3.97-4.05s-3.94,1.37-3.94,4.08c0,2.39,1.62,3.95,3.94,3.95s3.97-1.59,3.97-3.99Z"/>
  </g>
  <g>
    <path class="st0" d="M401.14,369c5.03-4.88,9.79-9.47,9.79-14.19,0-2.55-.92-4.46-3.52-4.46s-3.76,2.07-3.87,4.97h-2.33c.16-4.91,2.73-7.46,6.17-7.46s5.93,2.55,5.93,6.82c0,5.74-5.13,10.62-8.55,13.97h9.1v2.42h-12.73v-2.07Z"/>
    <path class="st0" d="M419.97,369.7l3.94-6.89c-.56.1-.95.13-1.25.13-1.77,0-3.28-.73-4.47-2.17-1.19-1.43-1.8-3.22-1.8-5.32s.66-3.83,1.96-5.36c1.32-1.53,2.83-2.26,4.58-2.26s3.26.77,4.55,2.33c1.3,1.53,1.94,3.35,1.94,5.39,0,1.66-.42,3.28-1.32,4.81l-6.22,10.97-1.9-1.63ZM425.71,352.32c-.77-.96-1.69-1.43-2.78-1.43s-2.09.48-2.86,1.43c-.77.92-1.16,2.1-1.16,3.51,0,1.28.42,2.39,1.22,3.32.82.92,1.8,1.37,2.96,1.37,1.06,0,1.96-.45,2.7-1.37.74-.92,1.11-2.04,1.11-3.38s-.4-2.49-1.19-3.44Z"/>
  </g>
  <g>
    <path class="st0" d="M60.45,379.73c3.73,0,5.77,2.61,5.77,5.93,0,2.65-1.37,4.72-3.39,5.26v.16c2.22.64,3.73,2.61,3.73,5.93,0,3.57-2.06,6.38-6.06,6.38-3.63,0-6.32-2.33-6.62-6.79h2.33c.24,2.46,1.72,4.34,4.26,4.34s3.78-1.82,3.78-4.18c0-3.25-1.88-4.5-5.32-4.5h-.61v-2.42h.63c3.2-.03,4.92-1.21,4.92-3.89,0-2.2-1.21-3.73-3.52-3.73s-3.6,1.53-3.84,3.76h-2.36c.24-3.95,2.73-6.25,6.27-6.25Z"/>
    <path class="st0" d="M76.5,379.82c5.27,0,6.64,5.04,6.64,11.64s-1.37,11.76-6.64,11.76-6.67-5.07-6.67-11.76,1.38-11.64,6.67-11.64ZM76.5,382.47c-3.78,0-4.29,4.21-4.29,8.99s.5,9.12,4.29,9.12,4.26-4.14,4.26-9.12-.51-8.99-4.26-8.99Z"/>
  </g>
  <g>
    <path class="st0" d="M124.42,379.73c3.73,0,5.77,2.61,5.77,5.93,0,2.65-1.37,4.72-3.39,5.26v.16c2.22.64,3.73,2.61,3.73,5.93,0,3.57-2.06,6.38-6.06,6.38-3.63,0-6.32-2.33-6.62-6.79h2.33c.24,2.46,1.72,4.34,4.26,4.34s3.78-1.82,3.78-4.18c0-3.25-1.88-4.5-5.32-4.5h-.61v-2.42h.63c3.2-.03,4.92-1.21,4.92-3.89,0-2.2-1.21-3.73-3.52-3.73s-3.6,1.53-3.84,3.76h-2.36c.24-3.95,2.73-6.25,6.27-6.25Z"/>
    <path class="st0" d="M134.11,382.82v-2.65h2.43v23.05h-2.43v-20.4Z"/>
  </g>
  <line class="st2" x1="51.04" y1="208.49" x2="435.67" y2="208.49"/>
  <path class="st1" d="M48.67,79.7h402.34c6.24,0,11.3,5.07,11.3,11.3v318.14c0,6.24-5.06,11.3-11.3,11.3H48.67c-6.24,0-11.3-5.07-11.3-11.3V91.01c0-6.24,5.07-11.3,11.3-11.3Z"/>
</svg>