<?xml version="1.0" encoding="UTF-8"?>
<svg id="Layer_1" xmlns="http://www.w3.org/2000/svg" version="1.1" viewBox="0 0 507.16 475.06">
  <!-- Generator: Adobe Illustrator 30.1.0, SVG Export Plug-In . SVG Version: 2.1.1 Build 136)  -->
  <defs>
    <style>
      .st0 {
        stroke-width: 2px;
      }

      .st0, .st1 {
        fill: none;
        stroke: #231f20;
      }

      .st2 {
        fill: #231f20;
      }

      .st3 {
        fill: #fff;
      }
    </style>
  </defs>
  <path class="st3" d="M165.44,35.14h179.82c14.11,0,25.57,11.46,25.57,25.57v18.49c0,14.11-11.46,25.57-25.57,25.57h-179.82c-14.11,0-25.57-11.46-25.57-25.57v-18.49c0-14.11,11.46-25.57,25.57-25.57Z"/>
  <path class="st0" d="M165.44,35.14h179.82c14.11,0,25.57,11.46,25.57,25.57v18.49c0,14.11-11.46,25.57-25.57,25.57h-179.82c-14.11,0-25.57-11.46-25.57-25.57v-18.49c0-14.11,11.46-25.57,25.57-25.57Z"/>
  <g>
    <path class="st2" d="M204.02,55.56h9.7l9.46,23.35,9.37-23.35h9.66v33.73h-8.22v-20.23l-7.54,20.23h-6.63l-7.59-20.27v20.27h-8.22v-33.73Z"/>
    <path class="st2" d="M269.12,83.33h-12.59l-2.02,5.96h-8.6l12.2-33.73h9.51l12.2,33.73h-8.7l-2.02-5.96ZM262.82,64.64l-4.13,12.35h8.31l-4.18-12.35Z"/>
    <path class="st2" d="M280.89,55.56h9.32l6.53,14.13,6.49-14.13h9.22l-11.67,22.58v11.15h-8.22v-11.15l-11.67-22.58Z"/>
  </g>
  <g>
    <path class="st2" d="M43.71,162.58c-4.66,0-7.95-2.59-8.02-6.42h3.23c.2,1.93,1.56,3.86,4.79,3.86,2.93,0,4.66-1.66,4.66-3.86,0-6.26-12.54-2.26-12.54-10.88,0-3.83,3.09-6.42,7.69-6.42s7.32,2.43,7.69,5.95h-3.33c-.2-1.56-1.66-3.33-4.49-3.36-2.5-.07-4.46,1.23-4.46,3.73,0,5.99,12.51,2.26,12.51,10.85,0,3.29-2.7,6.55-7.72,6.55Z"/>
    <path class="st2" d="M72.05,162.34h-3.03v-2.69c-1.16,1.9-3.39,2.96-5.82,2.96-4.19,0-7.48-2.6-7.48-7.82v-10.68h2.99v10.28c0,3.69,2.03,5.59,5.09,5.59s5.22-1.93,5.22-5.86v-10.01h3.03v18.23Z"/>
  </g>
  <g>
    <path class="st2" d="M102.88,139.32h3.26l8.52,19.03,8.52-19.03h3.23v23.02h-3.03v-17.17l-7.65,17.17h-2.13l-7.69-17.2v17.2h-3.03v-23.02Z"/>
    <path class="st2" d="M139.47,162.64c-5.16,0-9.08-3.66-9.08-9.45s4.06-9.38,9.22-9.38,9.22,3.63,9.22,9.38-4.16,9.45-9.35,9.45ZM139.47,159.98c3.16,0,6.26-2.16,6.26-6.79s-3.03-6.75-6.16-6.75-6.09,2.16-6.09,6.75,2.83,6.79,5.99,6.79Z"/>
  </g>
  <g>
    <path class="st2" d="M171.66,139.16h15.7v2.46h-6.32v20.73h-3.03v-20.73h-6.35v-2.46Z"/>
    <path class="st2" d="M207.25,162.34h-3.03v-2.69c-1.16,1.9-3.39,2.96-5.82,2.96-4.19,0-7.48-2.6-7.48-7.82v-10.68h2.99v10.28c0,3.69,2.03,5.59,5.09,5.59s5.22-1.93,5.22-5.86v-10.01h3.03v18.23Z"/>
  </g>
  <g>
    <path class="st2" d="M234.12,139.16h3.23l5.06,19.66,5.59-19.66h3.39l5.32,19.6,5.09-19.6h3.26l-6.72,23.19h-3.39l-5.39-18.66-5.59,18.66-3.36.03-6.49-23.22Z"/>
    <path class="st2" d="M276.26,162.64c-5.19,0-9.02-3.66-9.02-9.45s3.69-9.38,9.02-9.38,8.75,3.73,8.75,8.72c0,.67-.03,1.2-.1,1.83h-14.57c.23,3.69,2.83,5.72,5.92,5.72,2.73,0,4.46-1.4,5.12-3.36h3.26c-.93,3.33-3.86,5.92-8.39,5.92ZM270.38,151.9h11.51c.03-3.56-2.63-5.52-5.75-5.52-2.96,0-5.42,1.96-5.76,5.52Z"/>
  </g>
  <g>
    <path class="st2" d="M304.7,139.16h15.7v2.46h-6.32v20.73h-3.03v-20.73h-6.35v-2.46Z"/>
    <path class="st2" d="M324.12,137.72h3.03v9.02c1.2-1.93,3.46-2.96,6.02-2.96,4.06,0,7.28,2.59,7.28,7.82v10.75h-2.99v-10.31c0-3.73-2.03-5.62-5.09-5.62s-5.22,1.93-5.22,5.86v10.08h-3.03v-24.62Z"/>
  </g>
  <g>
    <path class="st2" d="M368.96,139.16h13.11v2.46h-10.08v7.82h8.19v2.46h-8.19v10.45h-3.03v-23.19Z"/>
    <path class="st2" d="M388.75,162.34h-3.03v-18.23h3.03v2.96c1.03-2.03,3-3.29,5.89-3.29v3.13h-.8c-2.89,0-5.09,1.3-5.09,5.52v9.91Z"/>
  </g>
  <g>
    <path class="st2" d="M435.45,162.58c-4.66,0-7.95-2.59-8.02-6.42h3.23c.2,1.93,1.56,3.86,4.79,3.86,2.93,0,4.66-1.66,4.66-3.86,0-6.26-12.54-2.26-12.54-10.88,0-3.83,3.09-6.42,7.69-6.42s7.32,2.43,7.69,5.95h-3.33c-.2-1.56-1.66-3.33-4.49-3.36-2.5-.07-4.46,1.23-4.46,3.73,0,5.99,12.51,2.26,12.51,10.85,0,3.29-2.7,6.55-7.72,6.55Z"/>
    <path class="st2" d="M455.14,143.81c3.39,0,5.72,1.73,6.79,3.63v-3.33h3.06v18.23h-3.06v-3.39c-1.1,1.96-3.46,3.69-6.82,3.69-4.86,0-8.62-3.83-8.62-9.48s3.76-9.35,8.65-9.35ZM455.73,146.44c-3.33,0-6.15,2.43-6.15,6.72s2.83,6.82,6.15,6.82,6.19-2.5,6.19-6.79-2.86-6.75-6.19-6.75Z"/>
  </g>
  <path class="st2" d="M450.6,202.65v-2.76h3.06v24.05h-3.06v-21.29Z"/>
  <path class="st2" d="M53.32,262.17c6.32-5.09,12.31-9.88,12.31-14.81,0-2.66-1.16-4.66-4.42-4.66s-4.72,2.16-4.86,5.19h-2.93c.2-5.12,3.43-7.78,7.75-7.78s7.45,2.66,7.45,7.12c0,5.99-6.45,11.08-10.75,14.57h11.45v2.53h-16v-2.16Z"/>
  <path class="st2" d="M123.87,240.08c4.69,0,7.25,2.73,7.25,6.19,0,2.76-1.73,4.92-4.26,5.49v.17c2.8.67,4.69,2.73,4.69,6.19,0,3.73-2.59,6.65-7.62,6.65-4.56,0-7.95-2.43-8.32-7.09h2.93c.3,2.56,2.16,4.53,5.36,4.53s4.76-1.9,4.76-4.36c0-3.39-2.36-4.69-6.69-4.69h-.77v-2.53h.8c4.03-.03,6.19-1.26,6.19-4.06,0-2.3-1.53-3.89-4.42-3.89s-4.53,1.6-4.83,3.92h-2.96c.3-4.13,3.43-6.52,7.89-6.52Z"/>
  <path class="st2" d="M198.31,258.78h-2.9v5.76h-3.16v-5.76h-11.64v-4.16l7.78-13.77h3.06l-7.72,14.9h8.52v-6.52h3.06v6.52h3v3.03Z"/>
  <path class="st2" d="M270.78,240.44v3.16h-8.05l-1.23,4.46c.93-.1,1.46-.13,1.6-.13,2.06,0,3.83.8,5.36,2.46,1.53,1.63,2.3,3.53,2.3,5.76s-.86,4.33-2.59,5.99c-1.76,1.63-3.86,2.43-6.39,2.43-3.16,0-5.76-1.36-7.72-4.16l2.86-1.8c1.4,1.76,3.06,2.63,4.99,2.63,1.6,0,2.93-.5,3.96-1.5,1.03-1,1.56-2.23,1.56-3.76s-.53-2.7-1.63-3.69c-1.06-1.03-2.4-1.53-3.96-1.53-.97,0-1.76.17-2.46.5-.7.33-1.46.9-2.33,1.63l3.23-12.44h10.51Z"/>
  <path class="st2" d="M329.51,241.44l-5.02,7.35c.4-.03.7-.07.86-.07l.67-.03c2.13,0,4.03.77,5.62,2.26,1.63,1.53,2.43,3.29,2.43,5.29,0,2.36-.8,4.36-2.4,5.99-1.6,1.66-3.56,2.46-5.89,2.46s-4.29-.8-5.92-2.39c-1.63-1.63-2.46-3.56-2.46-5.86,0-1.73.5-3.36,1.53-4.86l8.19-11.81,2.4,1.66ZM329.31,252.75c-1-1.03-2.2-1.53-3.56-1.53s-2.56.5-3.56,1.53c-1.03,1.03-1.53,2.23-1.53,3.59s.5,2.6,1.46,3.59c1,.96,2.2,1.46,3.63,1.46s2.59-.5,3.59-1.5c.97-.96,1.47-2.16,1.47-3.56s-.5-2.59-1.5-3.59Z"/>
  <path class="st2" d="M394.67,240.61v2.3l-9.25,21.69h-3.06l9.38-21.39h-12.84v-2.59h15.77Z"/>
  <path class="st2" d="M440.4,246.57c0-3.53,2.66-6.39,7.89-6.39s7.92,2.89,7.92,6.39c0,2.59-1.5,4.59-3.86,5.52,2.73.83,4.49,3.03,4.49,6.02,0,4.36-3.46,7.15-8.55,7.15s-8.48-2.8-8.48-7.15c0-3.03,1.76-5.22,4.46-6.02-2.46-.96-3.86-2.83-3.86-5.52ZM442.69,258.01c0,2.83,2.16,4.72,5.59,4.72s5.56-1.93,5.56-4.72c0-3.09-2.4-4.59-5.56-4.59s-5.59,1.4-5.59,4.59ZM453.27,246.93c0-2.76-1.96-4.23-4.99-4.23s-4.96,1.43-4.96,4.26c0,2.5,2.03,4.13,4.96,4.13s4.99-1.66,4.99-4.16Z"/>
  <path class="st2" d="M56.01,303.55l4.96-7.19c-.7.1-1.2.13-1.56.13-2.23,0-4.13-.77-5.62-2.26-1.5-1.5-2.26-3.36-2.26-5.56s.83-3.99,2.46-5.59c1.66-1.6,3.56-2.36,5.76-2.36s4.09.8,5.72,2.43c1.63,1.6,2.43,3.49,2.43,5.62,0,1.73-.53,3.43-1.66,5.02l-7.82,11.45-2.39-1.7ZM63.23,285.42c-.97-1-2.13-1.5-3.49-1.5-1.43,0-2.63.5-3.59,1.5-.97.97-1.47,2.2-1.47,3.66,0,1.33.53,2.5,1.53,3.46,1.03.97,2.26,1.43,3.73,1.43,1.33,0,2.46-.47,3.39-1.43s1.4-2.13,1.4-3.53-.5-2.6-1.5-3.59Z"/>
  <g>
    <path class="st2" d="M104.51,283.96v-2.76h3.06v24.05h-3.06v-21.29Z"/>
    <path class="st2" d="M123.13,280.83c6.62,0,8.35,5.26,8.35,12.14s-1.73,12.28-8.35,12.28-8.38-5.29-8.38-12.28,1.73-12.14,8.38-12.14ZM123.13,283.59c-4.76,0-5.39,4.39-5.39,9.38s.63,9.51,5.39,9.51,5.36-4.33,5.36-9.51-.63-9.38-5.36-9.38Z"/>
  </g>
  <g>
    <path class="st2" d="M181.27,283.96v-2.76h3.06v24.05h-3.06v-21.29Z"/>
    <path class="st2" d="M191.91,283.96v-2.76h3.06v24.05h-3.06v-21.29Z"/>
  </g>
  <g>
    <path class="st2" d="M246.69,283.96v-2.76h3.06v24.05h-3.06v-21.29Z"/>
    <path class="st2" d="M256.57,302.82c6.32-5.09,12.31-9.88,12.31-14.81,0-2.66-1.16-4.66-4.42-4.66s-4.72,2.16-4.86,5.19h-2.93c.2-5.12,3.43-7.78,7.75-7.78s7.45,2.66,7.45,7.12c0,5.99-6.45,11.08-10.75,14.57h11.45v2.53h-16v-2.16Z"/>
  </g>
  <g>
    <path class="st2" d="M309.06,283.96v-2.76h3.06v24.05h-3.06v-21.29Z"/>
    <path class="st2" d="M327.12,280.73c4.69,0,7.25,2.73,7.25,6.19,0,2.76-1.73,4.92-4.26,5.49v.17c2.8.67,4.69,2.73,4.69,6.19,0,3.73-2.59,6.65-7.62,6.65-4.56,0-7.95-2.43-8.32-7.09h2.93c.3,2.56,2.16,4.53,5.36,4.53s4.76-1.9,4.76-4.36c0-3.39-2.36-4.69-6.69-4.69h-.77v-2.53h.8c4.03-.03,6.19-1.26,6.19-4.06,0-2.3-1.53-3.89-4.42-3.89s-4.53,1.6-4.83,3.92h-2.96c.3-4.13,3.43-6.52,7.89-6.52Z"/>
  </g>
  <g>
    <path class="st2" d="M366.86,283.96v-2.76h3.06v24.05h-3.06v-21.29Z"/>
    <path class="st2" d="M394.17,299.43h-2.9v5.76h-3.16v-5.76h-11.64v-4.16l7.78-13.77h3.06l-7.72,14.9h8.52v-6.52h3.06v6.52h3v3.03Z"/>
  </g>
  <g>
    <path class="st2" d="M429.72,283.96v-2.76h3.06v24.05h-3.06v-21.29Z"/>
    <path class="st2" d="M455.57,281.09v3.16h-8.05l-1.23,4.46c.93-.1,1.46-.13,1.6-.13,2.06,0,3.83.8,5.36,2.46,1.53,1.63,2.3,3.53,2.3,5.76s-.86,4.33-2.59,5.99c-1.76,1.63-3.86,2.43-6.39,2.43-3.16,0-5.76-1.36-7.72-4.16l2.86-1.8c1.4,1.76,3.06,2.63,4.99,2.63,1.6,0,2.93-.5,3.96-1.5,1.03-1,1.56-2.23,1.56-3.76s-.53-2.7-1.63-3.69c-1.06-1.03-2.4-1.53-3.96-1.53-.97,0-1.76.17-2.46.5-.7.33-1.46.9-2.33,1.63l3.23-12.44h10.51Z"/>
  </g>
  <g>
    <path class="st2" d="M41.45,324.61v-2.76h3.06v24.05h-3.06v-21.29Z"/>
    <path class="st2" d="M63.43,322.74l-5.02,7.35c.4-.03.7-.07.86-.07l.67-.03c2.13,0,4.03.77,5.62,2.26,1.63,1.53,2.43,3.29,2.43,5.29,0,2.36-.8,4.36-2.4,5.99-1.6,1.66-3.56,2.46-5.89,2.46s-4.29-.8-5.92-2.39c-1.63-1.63-2.46-3.56-2.46-5.86,0-1.73.5-3.36,1.53-4.86l8.19-11.81,2.4,1.66ZM63.23,334.06c-1-1.03-2.2-1.53-3.56-1.53s-2.56.5-3.56,1.53c-1.03,1.03-1.53,2.23-1.53,3.59s.5,2.6,1.46,3.59c1,.96,2.2,1.46,3.63,1.46s2.59-.5,3.59-1.5c.97-.96,1.47-2.16,1.47-3.56s-.5-2.59-1.5-3.59Z"/>
  </g>
  <g>
    <path class="st2" d="M107.23,324.61v-2.76h3.06v24.05h-3.06v-21.29Z"/>
    <path class="st2" d="M132.28,321.91v2.3l-9.25,21.69h-3.06l9.38-21.39h-12.84v-2.59h15.77Z"/>
  </g>
  <g>
    <path class="st2" d="M170.93,324.61v-2.76h3.06v24.05h-3.06v-21.29Z"/>
    <path class="st2" d="M181.7,327.87c0-3.53,2.66-6.39,7.89-6.39s7.92,2.89,7.92,6.39c0,2.59-1.5,4.59-3.86,5.52,2.73.83,4.49,3.03,4.49,6.02,0,4.36-3.46,7.15-8.55,7.15s-8.48-2.8-8.48-7.15c0-3.03,1.76-5.22,4.46-6.02-2.46-.96-3.86-2.83-3.86-5.52ZM184,339.31c0,2.83,2.16,4.72,5.59,4.72s5.56-1.93,5.56-4.72c0-3.09-2.4-4.59-5.56-4.59s-5.59,1.4-5.59,4.59ZM194.58,328.23c0-2.76-1.96-4.23-4.99-4.23s-4.96,1.43-4.96,4.26c0,2.5,2.03,4.13,4.96,4.13s4.99-1.66,4.99-4.16Z"/>
  </g>
  <g>
    <path class="st2" d="M244.86,324.61v-2.76h3.06v24.05h-3.06v-21.29Z"/>
    <path class="st2" d="M259.27,344.2l4.96-7.19c-.7.1-1.2.13-1.56.13-2.23,0-4.13-.77-5.62-2.26-1.5-1.5-2.26-3.36-2.26-5.56s.83-3.99,2.46-5.59c1.66-1.6,3.56-2.36,5.76-2.36s4.09.8,5.72,2.43c1.63,1.6,2.43,3.49,2.43,5.62,0,1.73-.53,3.43-1.66,5.02l-7.82,11.45-2.39-1.7ZM266.49,326.07c-.97-1-2.13-1.5-3.49-1.5-1.43,0-2.63.5-3.59,1.5-.97.97-1.47,2.2-1.47,3.66,0,1.33.53,2.5,1.53,3.46,1.03.97,2.26,1.43,3.73,1.43,1.33,0,2.46-.47,3.39-1.43s1.4-2.13,1.4-3.53-.5-2.6-1.5-3.59Z"/>
  </g>
  <g>
    <path class="st2" d="M298.51,343.47c6.32-5.09,12.31-9.88,12.31-14.81,0-2.66-1.16-4.66-4.42-4.66s-4.72,2.16-4.86,5.19h-2.93c.2-5.12,3.43-7.78,7.75-7.78s7.45,2.66,7.45,7.12c0,5.99-6.45,11.08-10.75,14.57h11.45v2.53h-16v-2.16Z"/>
    <path class="st2" d="M326.39,321.48c6.62,0,8.35,5.26,8.35,12.14s-1.73,12.28-8.35,12.28-8.38-5.29-8.38-12.28,1.73-12.14,8.38-12.14ZM326.39,324.24c-4.76,0-5.39,4.39-5.39,9.38s.63,9.51,5.39,9.51,5.36-4.33,5.36-9.51-.63-9.38-5.36-9.38Z"/>
  </g>
  <g>
    <path class="st2" d="M367.89,343.47c6.32-5.09,12.31-9.88,12.31-14.81,0-2.66-1.16-4.66-4.42-4.66s-4.72,2.16-4.86,5.19h-2.93c.2-5.12,3.43-7.78,7.75-7.78s7.45,2.66,7.45,7.12c0,5.99-6.45,11.08-10.75,14.57h11.45v2.53h-16v-2.16Z"/>
    <path class="st2" d="M387.78,324.61v-2.76h3.06v24.05h-3.06v-21.29Z"/>
  </g>
  <g>
    <path class="st2" d="M422.24,343.47c6.32-5.09,12.31-9.88,12.31-14.81,0-2.66-1.16-4.66-4.42-4.66s-4.72,2.16-4.86,5.19h-2.93c.2-5.12,3.43-7.78,7.75-7.78s7.45,2.66,7.45,7.12c0,5.99-6.45,11.08-10.75,14.57h11.45v2.53h-16v-2.16Z"/>
    <path class="st2" d="M441.36,343.47c6.32-5.09,12.31-9.88,12.31-14.81,0-2.66-1.16-4.66-4.42-4.66s-4.72,2.16-4.86,5.19h-2.93c.2-5.12,3.43-7.78,7.75-7.78s7.45,2.66,7.45,7.12c0,5.99-6.45,11.08-10.75,14.57h11.45v2.53h-16v-2.16Z"/>
  </g>
  <g>
    <path class="st2" d="M35.49,384.12c6.32-5.09,12.31-9.88,12.31-14.81,0-2.66-1.16-4.66-4.42-4.66s-4.72,2.16-4.86,5.19h-2.93c.2-5.12,3.43-7.78,7.75-7.78s7.45,2.66,7.45,7.12c0,5.99-6.45,11.08-10.75,14.57h11.45v2.53h-16v-2.16Z"/>
    <path class="st2" d="M62.8,362.03c4.69,0,7.25,2.73,7.25,6.19,0,2.76-1.73,4.92-4.26,5.49v.17c2.8.67,4.69,2.73,4.69,6.19,0,3.73-2.59,6.65-7.62,6.65-4.56,0-7.95-2.43-8.32-7.09h2.93c.3,2.56,2.16,4.53,5.36,4.53s4.76-1.9,4.76-4.36c0-3.39-2.36-4.69-6.69-4.69h-.77v-2.53h.8c4.03-.03,6.19-1.26,6.19-4.06,0-2.3-1.53-3.89-4.42-3.89s-4.53,1.6-4.83,3.92h-2.96c.3-4.13,3.43-6.52,7.89-6.52Z"/>
  </g>
  <g>
    <path class="st2" d="M95.23,384.12c6.32-5.09,12.31-9.88,12.31-14.81,0-2.66-1.16-4.66-4.42-4.66s-4.72,2.16-4.86,5.19h-2.93c.2-5.12,3.43-7.78,7.75-7.78s7.45,2.66,7.45,7.12c0,5.99-6.45,11.08-10.75,14.57h11.45v2.53h-16v-2.16Z"/>
    <path class="st2" d="M131.78,380.73h-2.89v5.76h-3.16v-5.76h-11.64v-4.16l7.78-13.77h3.06l-7.72,14.9h8.52v-6.52h3.06v6.52h3v3.03Z"/>
  </g>
  <g>
    <path class="st2" d="M161.78,384.12c6.32-5.09,12.31-9.88,12.31-14.81,0-2.66-1.16-4.66-4.42-4.66s-4.72,2.16-4.86,5.19h-2.93c.2-5.12,3.43-7.78,7.75-7.78s7.45,2.66,7.45,7.12c0,5.99-6.45,11.08-10.75,14.57h11.45v2.53h-16v-2.16Z"/>
    <path class="st2" d="M196.87,362.4v3.16h-8.05l-1.23,4.46c.93-.1,1.46-.13,1.6-.13,2.06,0,3.83.8,5.36,2.46,1.53,1.63,2.3,3.53,2.3,5.76s-.86,4.33-2.59,5.99c-1.76,1.63-3.86,2.43-6.39,2.43-3.16,0-5.76-1.36-7.72-4.16l2.86-1.8c1.4,1.76,3.06,2.63,4.99,2.63,1.6,0,2.93-.5,3.96-1.5,1.03-1,1.56-2.23,1.56-3.76s-.53-2.7-1.63-3.69c-1.06-1.03-2.4-1.53-3.96-1.53-.97,0-1.76.17-2.46.5-.7.33-1.46.9-2.33,1.63l3.23-12.44h10.51Z"/>
  </g>
  <g>
    <path class="st2" d="M235.45,384.12c6.32-5.09,12.31-9.88,12.31-14.81,0-2.66-1.16-4.66-4.42-4.66s-4.72,2.16-4.86,5.19h-2.93c.2-5.12,3.43-7.78,7.75-7.78s7.45,2.66,7.45,7.12c0,5.99-6.45,11.08-10.75,14.57h11.45v2.53h-16v-2.16Z"/>
    <path class="st2" d="M266.69,363.39l-5.02,7.35c.4-.03.7-.07.86-.07l.67-.03c2.13,0,4.03.77,5.62,2.26,1.63,1.53,2.43,3.29,2.43,5.29,0,2.36-.8,4.36-2.4,5.99-1.6,1.66-3.56,2.46-5.89,2.46s-4.29-.8-5.92-2.39c-1.63-1.63-2.46-3.56-2.46-5.86,0-1.73.5-3.36,1.53-4.86l8.19-11.81,2.4,1.66ZM266.49,374.71c-1-1.03-2.2-1.53-3.56-1.53s-2.56.5-3.56,1.53c-1.03,1.03-1.53,2.23-1.53,3.59s.5,2.6,1.46,3.59c1,.96,2.2,1.46,3.63,1.46s2.59-.5,3.59-1.5c.97-.96,1.47-2.16,1.47-3.56s-.5-2.59-1.5-3.59Z"/>
  </g>
  <g>
    <path class="st2" d="M301.24,384.12c6.32-5.09,12.31-9.88,12.31-14.81,0-2.66-1.16-4.66-4.42-4.66s-4.72,2.16-4.86,5.19h-2.93c.2-5.12,3.43-7.78,7.75-7.78s7.45,2.66,7.45,7.12c0,5.99-6.45,11.08-10.75,14.57h11.45v2.53h-16v-2.16Z"/>
    <path class="st2" d="M335.53,362.56v2.3l-9.25,21.69h-3.06l9.38-21.39h-12.84v-2.59h15.77Z"/>
  </g>
  <g>
    <path class="st2" d="M357.55,384.12c6.32-5.09,12.31-9.88,12.31-14.81,0-2.66-1.16-4.66-4.42-4.66s-4.72,2.16-4.86,5.19h-2.93c.2-5.12,3.43-7.78,7.75-7.78s7.45,2.66,7.45,7.12c0,5.99-6.45,11.08-10.75,14.57h11.45v2.53h-16v-2.16Z"/>
    <path class="st2" d="M377.57,368.52c0-3.53,2.66-6.39,7.89-6.39s7.92,2.89,7.92,6.39c0,2.59-1.5,4.59-3.86,5.52,2.73.83,4.49,3.03,4.49,6.02,0,4.36-3.46,7.15-8.55,7.15s-8.48-2.8-8.48-7.15c0-3.03,1.76-5.22,4.46-6.02-2.46-.96-3.86-2.83-3.86-5.52ZM379.87,379.96c0,2.83,2.16,4.72,5.59,4.72s5.56-1.93,5.56-4.72c0-3.09-2.4-4.59-5.56-4.59s-5.59,1.4-5.59,4.59ZM390.45,368.89c0-2.76-1.96-4.23-4.99-4.23s-4.96,1.43-4.96,4.26c0,2.5,2.03,4.13,4.96,4.13s4.99-1.66,4.99-4.16Z"/>
  </g>
  <g>
    <path class="st2" d="M420.41,384.12c6.32-5.09,12.31-9.88,12.31-14.81,0-2.66-1.16-4.66-4.42-4.66s-4.72,2.16-4.86,5.19h-2.93c.2-5.12,3.43-7.78,7.75-7.78s7.45,2.66,7.45,7.12c0,5.99-6.45,11.08-10.75,14.57h11.45v2.53h-16v-2.16Z"/>
    <path class="st2" d="M444.06,384.86l4.96-7.19c-.7.1-1.2.13-1.56.13-2.23,0-4.13-.77-5.62-2.26-1.5-1.5-2.26-3.36-2.26-5.56s.83-3.99,2.46-5.59c1.66-1.6,3.56-2.36,5.76-2.36s4.09.8,5.72,2.43c1.63,1.6,2.43,3.49,2.43,5.62,0,1.73-.53,3.43-1.66,5.02l-7.82,11.45-2.39-1.7ZM451.28,366.72c-.97-1-2.13-1.5-3.49-1.5-1.43,0-2.63.5-3.59,1.5-.97.97-1.47,2.2-1.47,3.66,0,1.33.53,2.5,1.53,3.46,1.03.97,2.26,1.43,3.73,1.43,1.33,0,2.46-.47,3.39-1.43s1.4-2.13,1.4-3.53-.5-2.6-1.5-3.59Z"/>
  </g>
  <g>
    <path class="st2" d="M43.68,402.68c4.69,0,7.25,2.73,7.25,6.19,0,2.76-1.73,4.92-4.26,5.49v.17c2.8.67,4.69,2.73,4.69,6.19,0,3.73-2.59,6.65-7.62,6.65-4.56,0-7.95-2.43-8.32-7.09h2.93c.3,2.56,2.16,4.53,5.36,4.53s4.76-1.9,4.76-4.36c0-3.39-2.36-4.69-6.69-4.69h-.77v-2.53h.8c4.03-.03,6.19-1.26,6.19-4.06,0-2.3-1.53-3.89-4.42-3.89s-4.53,1.6-4.83,3.92h-2.96c.3-4.13,3.43-6.52,7.89-6.52Z"/>
    <path class="st2" d="M63.83,402.78c6.62,0,8.35,5.26,8.35,12.14s-1.73,12.28-8.35,12.28-8.38-5.29-8.38-12.28,1.73-12.14,8.38-12.14ZM63.83,405.54c-4.76,0-5.39,4.39-5.39,9.38s.63,9.51,5.39,9.51,5.36-4.33,5.36-9.51-.63-9.38-5.36-9.38Z"/>
  </g>
  <g>
    <path class="st2" d="M113.22,402.68c4.69,0,7.25,2.73,7.25,6.19,0,2.76-1.73,4.92-4.26,5.49v.17c2.8.67,4.69,2.73,4.69,6.19,0,3.73-2.59,6.65-7.62,6.65-4.56,0-7.95-2.43-8.32-7.09h2.93c.3,2.56,2.16,4.53,5.36,4.53s4.76-1.9,4.76-4.36c0-3.39-2.36-4.69-6.69-4.69h-.77v-2.53h.8c4.03-.03,6.19-1.26,6.19-4.06,0-2.3-1.53-3.89-4.42-3.89s-4.53,1.6-4.83,3.92h-2.96c.3-4.13,3.43-6.52,7.89-6.52Z"/>
    <path class="st2" d="M125.39,405.91v-2.76h3.06v24.05h-3.06v-21.29Z"/>
  </g>
  <line class="st0" x1="17.27" y1="188.17" x2="489.71" y2="188.17"/>
  <path class="st1" d="M445.07,180.03c16.56,0,29.98-11.54,29.98-25.79s-13.42-25.79-29.98-25.79-29.98,11.55-29.98,25.79,13.42,25.79,29.98,25.79Z"/>
  <path class="st0" d="M28.54,121.12h449.38c5.78,0,10.47,4.69,10.47,10.47v298c0,5.78-4.69,10.48-10.48,10.48H28.54c-5.78,0-10.48-4.69-10.48-10.48V131.6c0-5.78,4.69-10.48,10.48-10.48Z"/>
</svg>