<?xml version="1.0" encoding="UTF-8"?>
<svg id="Layer_1" xmlns="http://www.w3.org/2000/svg" version="1.1" viewBox="0 0 500 500">
  <!-- Generator: Adobe Illustrator 30.1.0, SVG Export Plug-In . SVG Version: 2.1.1 Build 136)  -->
  <defs>
    <style>
      .st0 {
        fill: #231f20;
      }

      .st1, .st2 {
        fill: none;
        stroke: #231f20;
      }

      .st2 {
        stroke-width: .5px;
      }

      .st3 {
        fill: #dcddde;
      }
    </style>
  </defs>
  <rect class="st3" x="82.02" y="94.55" width="331.61" height="65.52" rx="29.82" ry="29.82"/>
  <g>
    <path class="st0" d="M128.37,112.62h21.67v6.5h-13.56v7.02h10.15v6.31h-10.15v13.46h-8.11v-33.28Z"/>
    <path class="st0" d="M174.69,119.11h-12.28v6.73h10.86v6.26h-10.86v7.3h12.28v6.5h-20.39v-33.28h20.39v6.5Z"/>
    <path class="st0" d="M195.45,145.9h-15.5v-33.28h14.98c6.78,0,10.81,3.37,10.81,8.63,0,4.03-2.42,6.64-5.64,7.59,3.89.81,6.4,4.22,6.4,8.01,0,5.5-4.03,9.05-11.05,9.05ZM193.36,119.11h-5.31v6.97h5.31c2.66,0,4.12-1.18,4.12-3.46s-1.47-3.51-4.12-3.51ZM193.93,132.01h-5.88v7.35h5.97c2.7,0,4.27-1.23,4.27-3.6s-1.66-3.75-4.36-3.75Z"/>
    <path class="st0" d="M224.79,112.62c8.15,0,12.23,4.69,12.23,10.48,0,4.17-2.28,8.11-7.39,9.62l7.68,13.18h-9.15l-6.92-12.56h-1.94v12.56h-8.11v-33.28h13.61ZM224.31,119.35h-5.02v8.25h5.02c3.03,0,4.46-1.57,4.46-4.17,0-2.46-1.42-4.08-4.46-4.08Z"/>
    <path class="st0" d="M241.95,112.62h8.11v19.91c0,3.93,1.94,6.21,5.78,6.21s5.88-2.28,5.88-6.21v-19.91h8.11v19.87c0,9.2-6.45,13.75-14.13,13.75s-13.75-4.55-13.75-13.75v-19.87Z"/>
    <path class="st0" d="M296.22,140.02h-12.42l-1.99,5.88h-8.49l12.04-33.28h9.38l12.04,33.28h-8.58l-1.99-5.88ZM290.01,121.58l-4.08,12.19h8.2l-4.12-12.19Z"/>
    <path class="st0" d="M324.05,112.62c8.15,0,12.23,4.69,12.23,10.48,0,4.17-2.28,8.11-7.39,9.62l7.68,13.18h-9.15l-6.92-12.56h-1.94v12.56h-8.11v-33.28h13.61ZM323.57,119.35h-5.02v8.25h5.02c3.03,0,4.46-1.57,4.46-4.17,0-2.46-1.42-4.08-4.46-4.08Z"/>
    <path class="st0" d="M338.74,112.62h9.2l6.45,13.94,6.4-13.94h9.1l-11.52,22.28v11h-8.11v-11l-11.52-22.28Z"/>
  </g>
  <g>
    <path class="st0" d="M41.76,197.07c-4.32,0-7.7-2.58-7.84-7.48h5.21c.14,1.86,1.12,2.76,2.49,2.76s2.34-.86,2.34-2.27c0-4.48-10.04-2.07-9.98-10.65,0-4.58,3.12-7.13,7.32-7.13s7.32,2.62,7.52,7.24h-5.29c-.08-1.55-1-2.48-2.31-2.52-1.17-.03-2.06.69-2.06,2.21,0,4.2,9.93,2.31,9.93,10.41,0,4.07-2.63,7.44-7.32,7.44Z"/>
    <path class="st0" d="M67.85,196.83h-4.89v-2.62c-.97,1.65-2.69,2.83-4.83,2.83-3.69,0-6.18-3.07-6.18-8.2v-11.23h4.86v10.44c0,2.62,1.23,4.07,3.06,4.07s3.09-1.45,3.09-4.07v-10.44h4.89v19.23Z"/>
  </g>
  <g>
    <path class="st0" d="M94.8,172.64h5.78l5.63,16.74,5.58-16.74h5.75v24.19h-4.89v-14.51l-4.49,14.51h-3.95l-4.52-14.54v14.54h-4.89v-24.19Z"/>
    <path class="st0" d="M128.34,197.1c-4.69,0-8.24-3.79-8.24-9.89s3.64-9.89,8.29-9.89,8.29,3.79,8.29,9.89-3.66,9.89-8.35,9.89ZM128.34,192c1.74,0,3.38-1.55,3.38-4.79s-1.6-4.79-3.32-4.79-3.32,1.52-3.32,4.79,1.49,4.79,3.26,4.79Z"/>
  </g>
  <g>
    <path class="st0" d="M162.68,172.64h15.53v4.72h-5.32v19.47h-4.89v-19.47h-5.32v-4.72Z"/>
    <path class="st0" d="M196.43,196.83h-4.89v-2.62c-.97,1.65-2.69,2.83-4.83,2.83-3.69,0-6.18-3.07-6.18-8.2v-11.23h4.86v10.44c0,2.62,1.23,4.07,3.06,4.07s3.09-1.45,3.09-4.07v-10.44h4.89v19.23Z"/>
  </g>
  <g>
    <path class="st0" d="M227.34,172.64h5.24l2.89,17.61,3.58-17.61h5.38l3.43,17.61,2.92-17.61h5.26l-5.24,24.19h-5.92l-3.2-15.92-3.32,15.92h-5.92l-5.09-24.19Z"/>
    <path class="st0" d="M265.6,197.1c-4.69,0-8.07-3.79-8.07-9.89s3.32-9.89,8.07-9.89,7.95,3.72,7.95,9.58c0,.55-.03,1.14-.09,1.72h-11.07c.17,2.51,1.46,3.69,3.03,3.69,1.38,0,2.15-.83,2.55-1.86h5.21c-.77,3.75-3.6,6.65-7.58,6.65ZM262.42,185.35h6.12c0-2.1-1.37-3.31-3-3.31s-2.83,1.17-3.11,3.31Z"/>
  </g>
  <g>
    <path class="st0" d="M296.27,172.64h15.53v4.72h-5.32v19.47h-4.89v-19.47h-5.32v-4.72Z"/>
    <path class="st0" d="M314.27,171.33h4.89v8.85c.97-1.65,2.71-2.79,4.92-2.79,3.63,0,6.06,3.03,6.06,8.2v11.23h-4.86v-10.44c0-2.62-1.2-4.07-3.06-4.07s-3.06,1.45-3.06,4.07v10.44h-4.89v-25.5Z"/>
  </g>
  <g>
    <path class="st0" d="M357.68,172.64h13.08v4.72h-8.18v5.1h6.12v4.58h-6.12v9.79h-4.89v-24.19Z"/>
    <path class="st0" d="M378.22,196.83h-4.89v-19.23h4.89v3.2c1.12-2.03,2.86-3.41,5-3.41v6.23h-1.34c-2.32,0-3.66.97-3.66,4.27v8.92Z"/>
  </g>
  <g>
    <path class="st0" d="M416.65,197.07c-4.32,0-7.7-2.58-7.84-7.48h5.21c.14,1.86,1.12,2.76,2.49,2.76s2.34-.86,2.34-2.27c0-4.48-10.04-2.07-9.98-10.65,0-4.58,3.12-7.13,7.32-7.13s7.32,2.62,7.52,7.24h-5.29c-.08-1.55-1-2.48-2.31-2.52-1.17-.03-2.06.69-2.06,2.21,0,4.2,9.93,2.31,9.93,10.41,0,4.07-2.63,7.44-7.32,7.44Z"/>
    <path class="st0" d="M433.04,177.33c2.37,0,4.07,1.31,4.92,3v-2.72h4.89v19.23h-4.89v-2.72c-.88,1.69-2.57,3-4.94,3-3.89,0-7.01-3.86-7.01-9.92s3.12-9.85,7.04-9.85ZM434.47,182.46c-1.83,0-3.49,1.65-3.49,4.72s1.66,4.79,3.49,4.79,3.49-1.69,3.49-4.76-1.63-4.75-3.49-4.75Z"/>
  </g>
  <path class="st0" d="M64.46,228.36v-2.86h2.63v24.91h-2.63v-22.05Z"/>
  <path class="st0" d="M116.82,247.9c5.43-5.27,10.58-10.23,10.58-15.33,0-2.76-1-4.82-3.8-4.82s-4.07,2.24-4.18,5.38h-2.52c.17-5.31,2.95-8.06,6.67-8.06s6.4,2.76,6.4,7.37c0,6.2-5.55,11.47-9.24,15.09h9.84v2.62h-13.76v-2.24Z"/>
  <path class="st0" d="M183.78,225.02c4.03,0,6.23,2.82,6.23,6.41,0,2.86-1.49,5.1-3.66,5.69v.17c2.4.69,4.04,2.83,4.04,6.41,0,3.86-2.23,6.89-6.55,6.89-3.92,0-6.83-2.51-7.15-7.34h2.52c.26,2.65,1.86,4.69,4.6,4.69s4.09-1.96,4.09-4.51c0-3.51-2.03-4.86-5.75-4.86h-.66v-2.62h.69c3.46-.04,5.32-1.31,5.32-4.2,0-2.38-1.31-4.03-3.8-4.03s-3.89,1.65-4.15,4.07h-2.55c.26-4.27,2.95-6.75,6.78-6.75Z"/>
  <path class="st0" d="M259.54,244.38h-2.49v5.96h-2.72v-5.96h-10.01v-4.31l6.7-14.26h2.63l-6.64,15.44h7.32v-6.75h2.63v6.75h2.58v3.14Z"/>
  <path class="st0" d="M322.95,225.4v3.27h-6.92l-1.06,4.62c.8-.1,1.26-.14,1.37-.14,1.77,0,3.29.83,4.6,2.55,1.32,1.69,1.97,3.65,1.97,5.96s-.74,4.48-2.23,6.2c-1.51,1.69-3.32,2.52-5.49,2.52-2.72,0-4.95-1.41-6.64-4.31l2.46-1.86c1.2,1.82,2.63,2.72,4.29,2.72,1.38,0,2.52-.52,3.4-1.55.89-1.03,1.35-2.31,1.35-3.89s-.46-2.79-1.4-3.83c-.92-1.07-2.06-1.58-3.4-1.58-.83,0-1.51.17-2.12.52-.6.34-1.26.93-2,1.69l2.77-12.89h9.04Z"/>
  <path class="st0" d="M379.75,226.43l-4.32,7.61c.35-.04.6-.07.74-.07l.57-.03c1.83,0,3.46.79,4.84,2.34,1.4,1.58,2.09,3.41,2.09,5.48,0,2.45-.69,4.51-2.06,6.2-1.38,1.72-3.06,2.55-5.07,2.55s-3.69-.83-5.09-2.48c-1.4-1.69-2.12-3.69-2.12-6.06,0-1.79.43-3.48,1.31-5.03l7.04-12.23,2.06,1.72ZM379.58,238.15c-.86-1.07-1.89-1.59-3.06-1.59s-2.21.52-3.06,1.59c-.88,1.07-1.31,2.31-1.31,3.72s.43,2.69,1.26,3.72c.86,1,1.89,1.52,3.12,1.52s2.23-.52,3.09-1.55c.83-1,1.26-2.24,1.26-3.69s-.43-2.69-1.29-3.72Z"/>
  <path class="st0" d="M445.27,225.57v2.38l-7.95,22.47h-2.63l8.07-22.15h-11.04v-2.69h13.56Z"/>
  <path class="st0" d="M55.66,270.52c0-3.65,2.29-6.62,6.78-6.62s6.81,3,6.81,6.62c0,2.69-1.29,4.76-3.32,5.72,2.35.86,3.86,3.14,3.86,6.24,0,4.51-2.98,7.41-7.35,7.41s-7.29-2.89-7.29-7.41c0-3.14,1.51-5.41,3.83-6.24-2.12-1-3.32-2.93-3.32-5.72ZM57.64,282.37c0,2.93,1.86,4.89,4.81,4.89s4.78-2,4.78-4.89c0-3.2-2.06-4.76-4.78-4.76s-4.81,1.45-4.81,4.76ZM66.74,270.9c0-2.86-1.69-4.38-4.29-4.38s-4.26,1.48-4.26,4.41c0,2.58,1.75,4.27,4.26,4.27s4.29-1.72,4.29-4.31Z"/>
  <path class="st0" d="M119.15,287.44l4.26-7.44c-.6.1-1.03.14-1.35.14-1.91,0-3.55-.79-4.83-2.34-1.29-1.55-1.95-3.48-1.95-5.75s.72-4.13,2.12-5.79c1.43-1.65,3.06-2.44,4.95-2.44s3.52.83,4.92,2.51c1.4,1.65,2.09,3.62,2.09,5.82,0,1.79-.46,3.55-1.43,5.2l-6.72,11.85-2.06-1.76ZM125.36,268.66c-.83-1.04-1.83-1.55-3-1.55s-2.26.52-3.09,1.55c-.83,1-1.26,2.27-1.26,3.79,0,1.38.46,2.58,1.32,3.58.88,1,1.94,1.48,3.2,1.48,1.14,0,2.12-.48,2.92-1.48.8-1,1.2-2.21,1.2-3.65s-.43-2.69-1.29-3.72Z"/>
  <g>
    <path class="st0" d="M167.14,267.14v-2.86h2.63v24.91h-2.63v-22.05Z"/>
    <path class="st0" d="M183.16,263.91c5.69,0,7.18,5.44,7.18,12.58s-1.49,12.71-7.18,12.71-7.21-5.48-7.21-12.71,1.49-12.58,7.21-12.58ZM183.16,266.77c-4.09,0-4.63,4.55-4.63,9.72s.54,9.85,4.63,9.85,4.61-4.48,4.61-9.85-.55-9.72-4.61-9.72Z"/>
  </g>
  <g>
    <path class="st0" d="M244.91,267.14v-2.86h2.63v24.91h-2.63v-22.05Z"/>
    <path class="st0" d="M254.07,267.14v-2.86h2.63v24.91h-2.63v-22.05Z"/>
  </g>
  <g>
    <path class="st0" d="M302.26,267.14v-2.86h2.63v24.91h-2.63v-22.05Z"/>
    <path class="st0" d="M310.76,286.68c5.43-5.27,10.58-10.23,10.58-15.33,0-2.76-1-4.82-3.8-4.82s-4.07,2.24-4.18,5.38h-2.52c.17-5.31,2.95-8.06,6.67-8.06s6.4,2.76,6.4,7.37c0,6.2-5.55,11.47-9.24,15.09h9.84v2.62h-13.76v-2.24Z"/>
  </g>
  <g>
    <path class="st0" d="M362.17,267.14v-2.86h2.63v24.91h-2.63v-22.05Z"/>
    <path class="st0" d="M377.71,263.8c4.03,0,6.23,2.82,6.23,6.41,0,2.86-1.49,5.1-3.66,5.69v.17c2.4.69,4.04,2.83,4.04,6.41,0,3.86-2.23,6.89-6.55,6.89-3.92,0-6.83-2.51-7.15-7.34h2.52c.26,2.65,1.86,4.69,4.6,4.69s4.09-1.96,4.09-4.51c0-3.51-2.03-4.86-5.75-4.86h-.66v-2.62h.69c3.46-.04,5.32-1.31,5.32-4.2,0-2.38-1.31-4.03-3.8-4.03s-3.89,1.65-4.15,4.07h-2.55c.26-4.27,2.95-6.75,6.78-6.75Z"/>
  </g>
  <g>
    <path class="st0" d="M421.34,267.14v-2.86h2.63v24.91h-2.63v-22.05Z"/>
    <path class="st0" d="M444.83,283.17h-2.49v5.96h-2.72v-5.96h-10.01v-4.31l6.7-14.26h2.63l-6.64,15.44h7.32v-6.75h2.63v6.75h2.58v3.14Z"/>
  </g>
  <g>
    <path class="st0" d="M46.48,305.93v-2.86h2.63v24.91h-2.63v-22.05Z"/>
    <path class="st0" d="M68.71,302.97v3.27h-6.92l-1.06,4.62c.8-.1,1.26-.14,1.37-.14,1.77,0,3.29.83,4.6,2.55,1.32,1.69,1.97,3.65,1.97,5.96s-.74,4.48-2.23,6.2c-1.51,1.69-3.32,2.52-5.49,2.52-2.72,0-4.95-1.41-6.64-4.31l2.46-1.86c1.2,1.82,2.63,2.72,4.29,2.72,1.38,0,2.52-.52,3.4-1.55.89-1.03,1.35-2.31,1.35-3.89s-.46-2.79-1.4-3.83c-.92-1.07-2.06-1.58-3.4-1.58-.83,0-1.51.17-2.12.52-.6.34-1.26.93-2,1.69l2.77-12.89h9.04Z"/>
  </g>
  <g>
    <path class="st0" d="M106.62,305.93v-2.86h2.63v24.91h-2.63v-22.05Z"/>
    <path class="st0" d="M125.53,304l-4.32,7.61c.35-.04.6-.07.74-.07l.57-.03c1.83,0,3.46.79,4.84,2.34,1.4,1.58,2.09,3.41,2.09,5.48,0,2.45-.69,4.51-2.06,6.2-1.37,1.72-3.06,2.55-5.06,2.55s-3.69-.83-5.09-2.48c-1.4-1.69-2.12-3.69-2.12-6.06,0-1.79.43-3.48,1.31-5.03l7.04-12.23,2.06,1.72ZM125.36,315.71c-.86-1.07-1.89-1.59-3.06-1.59s-2.21.52-3.06,1.59c-.88,1.07-1.31,2.31-1.31,3.72s.43,2.69,1.26,3.72c.86,1,1.89,1.52,3.12,1.52s2.23-.52,3.09-1.55c.83-1,1.26-2.24,1.26-3.69s-.43-2.69-1.29-3.72Z"/>
  </g>
  <g>
    <path class="st0" d="M169.49,305.93v-2.86h2.63v24.91h-2.63v-22.05Z"/>
    <path class="st0" d="M191.03,303.14v2.38l-7.95,22.47h-2.63l8.07-22.15h-11.04v-2.69h13.56Z"/>
  </g>
  <g>
    <path class="st0" d="M236.01,305.93v-2.86h2.63v24.91h-2.63v-22.05Z"/>
    <path class="st0" d="M245.28,309.3c0-3.65,2.29-6.62,6.78-6.62s6.81,3,6.81,6.62c0,2.69-1.29,4.76-3.32,5.72,2.35.86,3.86,3.14,3.86,6.24,0,4.51-2.98,7.41-7.35,7.41s-7.29-2.89-7.29-7.41c0-3.14,1.51-5.41,3.83-6.24-2.12-1-3.32-2.93-3.32-5.72ZM247.26,321.16c0,2.93,1.86,4.89,4.81,4.89s4.78-2,4.78-4.89c0-3.2-2.06-4.76-4.78-4.76s-4.81,1.45-4.81,4.76ZM256.36,309.68c0-2.86-1.69-4.38-4.29-4.38s-4.26,1.48-4.26,4.41c0,2.58,1.75,4.27,4.26,4.27s4.29-1.72,4.29-4.31Z"/>
  </g>
  <g>
    <path class="st0" d="M300.68,305.93v-2.86h2.63v24.91h-2.63v-22.05Z"/>
    <path class="st0" d="M313.07,326.22l4.26-7.44c-.6.1-1.03.14-1.35.14-1.91,0-3.55-.79-4.83-2.34-1.29-1.55-1.95-3.48-1.95-5.75s.72-4.13,2.12-5.79c1.43-1.65,3.06-2.44,4.95-2.44s3.52.83,4.92,2.51c1.4,1.65,2.09,3.62,2.09,5.82,0,1.79-.46,3.55-1.43,5.2l-6.72,11.85-2.06-1.76ZM319.28,307.44c-.83-1.04-1.83-1.55-3-1.55s-2.26.52-3.09,1.55c-.83,1-1.26,2.27-1.26,3.79,0,1.38.46,2.58,1.32,3.58.88,1,1.94,1.48,3.2,1.48,1.14,0,2.12-.48,2.92-1.48.8-1,1.2-2.21,1.2-3.65s-.43-2.69-1.29-3.72Z"/>
  </g>
  <g>
    <path class="st0" d="M353.1,325.46c5.43-5.27,10.58-10.23,10.58-15.33,0-2.76-1-4.82-3.8-4.82s-4.07,2.24-4.18,5.38h-2.52c.17-5.31,2.95-8.06,6.67-8.06s6.4,2.76,6.4,7.37c0,6.2-5.55,11.47-9.24,15.09h9.84v2.62h-13.76v-2.24Z"/>
    <path class="st0" d="M377.07,302.69c5.69,0,7.18,5.44,7.18,12.58s-1.49,12.71-7.18,12.71-7.21-5.48-7.21-12.71,1.49-12.58,7.21-12.58ZM377.07,305.55c-4.09,0-4.63,4.55-4.63,9.72s.54,9.85,4.63,9.85,4.61-4.48,4.61-9.85-.55-9.72-4.61-9.72Z"/>
  </g>
  <g>
    <path class="st0" d="M422.23,325.46c5.43-5.27,10.58-10.23,10.58-15.33,0-2.76-1-4.82-3.8-4.82s-4.07,2.24-4.18,5.38h-2.52c.17-5.31,2.95-8.06,6.67-8.06s6.4,2.76,6.4,7.37c0,6.2-5.55,11.47-9.24,15.09h9.84v2.62h-13.76v-2.24Z"/>
    <path class="st0" d="M439.34,305.93v-2.86h2.63v24.91h-2.63v-22.05Z"/>
  </g>
  <g>
    <path class="st0" d="M40.04,364.25c5.43-5.27,10.58-10.23,10.58-15.33,0-2.76-1-4.82-3.8-4.82s-4.06,2.24-4.17,5.38h-2.52c.17-5.31,2.95-8.06,6.67-8.06s6.4,2.76,6.4,7.37c0,6.2-5.55,11.47-9.24,15.09h9.84v2.62h-13.76v-2.24Z"/>
    <path class="st0" d="M56.5,364.25c5.43-5.27,10.58-10.23,10.58-15.33,0-2.76-1-4.82-3.8-4.82s-4.06,2.24-4.17,5.38h-2.52c.17-5.31,2.95-8.06,6.67-8.06s6.4,2.76,6.4,7.37c0,6.2-5.55,11.47-9.24,15.09h9.84v2.62h-13.76v-2.24Z"/>
  </g>
  <g>
    <path class="st0" d="M99.99,364.25c5.43-5.27,10.58-10.23,10.58-15.33,0-2.76-1-4.82-3.8-4.82s-4.06,2.24-4.17,5.38h-2.52c.17-5.31,2.95-8.06,6.67-8.06s6.4,2.76,6.4,7.37c0,6.2-5.55,11.47-9.24,15.09h9.84v2.62h-13.76v-2.24Z"/>
    <path class="st0" d="M123.48,341.37c4.03,0,6.23,2.82,6.23,6.41,0,2.86-1.49,5.1-3.66,5.69v.17c2.4.69,4.04,2.83,4.04,6.41,0,3.86-2.23,6.89-6.55,6.89-3.92,0-6.83-2.51-7.15-7.34h2.52c.26,2.65,1.86,4.69,4.6,4.69s4.09-1.96,4.09-4.51c0-3.51-2.03-4.86-5.75-4.86h-.66v-2.62h.69c3.46-.04,5.32-1.31,5.32-4.2,0-2.38-1.31-4.03-3.8-4.03s-3.89,1.65-4.15,4.07h-2.55c.26-4.27,2.95-6.75,6.78-6.75Z"/>
  </g>
  <g>
    <path class="st0" d="M159.16,364.25c5.43-5.27,10.58-10.23,10.58-15.33,0-2.76-1-4.82-3.8-4.82s-4.07,2.24-4.18,5.38h-2.52c.17-5.31,2.95-8.06,6.67-8.06s6.4,2.76,6.4,7.37c0,6.2-5.55,11.47-9.24,15.09h9.84v2.62h-13.76v-2.24Z"/>
    <path class="st0" d="M190.6,360.73h-2.49v5.96h-2.72v-5.96h-10.01v-4.31l6.7-14.26h2.63l-6.64,15.44h7.32v-6.75h2.63v6.75h2.58v3.14Z"/>
  </g>
  <g>
    <path class="st0" d="M228.15,364.25c5.43-5.27,10.58-10.23,10.58-15.33,0-2.76-1-4.82-3.8-4.82s-4.07,2.24-4.18,5.38h-2.52c.17-5.31,2.95-8.06,6.67-8.06s6.4,2.76,6.4,7.37c0,6.2-5.55,11.47-9.24,15.09h9.84v2.62h-13.76v-2.24Z"/>
    <path class="st0" d="M258.33,341.75v3.27h-6.92l-1.06,4.62c.8-.1,1.26-.14,1.37-.14,1.77,0,3.29.83,4.6,2.55,1.32,1.69,1.97,3.65,1.97,5.96s-.74,4.48-2.23,6.2c-1.51,1.69-3.32,2.52-5.49,2.52-2.72,0-4.95-1.41-6.64-4.31l2.46-1.86c1.2,1.82,2.63,2.72,4.29,2.72,1.38,0,2.52-.52,3.4-1.55.89-1.03,1.35-2.31,1.35-3.89s-.46-2.79-1.4-3.83c-.92-1.07-2.06-1.58-3.4-1.58-.83,0-1.51.17-2.12.52-.6.34-1.26.93-2,1.69l2.77-12.89h9.04Z"/>
  </g>
  <g>
    <path class="st0" d="M292.58,364.25c5.43-5.27,10.58-10.23,10.58-15.33,0-2.76-1-4.82-3.8-4.82s-4.07,2.24-4.18,5.38h-2.52c.17-5.31,2.95-8.06,6.67-8.06s6.4,2.76,6.4,7.37c0,6.2-5.55,11.47-9.24,15.09h9.84v2.62h-13.76v-2.24Z"/>
    <path class="st0" d="M319.45,342.78l-4.32,7.61c.35-.04.6-.07.74-.07l.57-.03c1.83,0,3.46.79,4.84,2.34,1.4,1.58,2.09,3.41,2.09,5.48,0,2.45-.69,4.51-2.06,6.2-1.37,1.72-3.06,2.55-5.06,2.55s-3.69-.83-5.09-2.48c-1.4-1.69-2.12-3.69-2.12-6.06,0-1.79.43-3.48,1.31-5.03l7.04-12.23,2.06,1.72ZM319.28,354.5c-.86-1.07-1.89-1.59-3.06-1.59s-2.21.52-3.06,1.59c-.88,1.07-1.31,2.31-1.31,3.72s.43,2.69,1.26,3.72c.86,1,1.89,1.52,3.12,1.52s2.23-.52,3.09-1.55c.83-1,1.26-2.24,1.26-3.69s-.43-2.69-1.29-3.72Z"/>
  </g>
  <g>
    <path class="st0" d="M355.45,364.25c5.43-5.27,10.58-10.23,10.58-15.33,0-2.76-1-4.82-3.8-4.82s-4.07,2.24-4.18,5.38h-2.52c.17-5.31,2.95-8.06,6.67-8.06s6.4,2.76,6.4,7.37c0,6.2-5.55,11.47-9.24,15.09h9.84v2.62h-13.76v-2.24Z"/>
    <path class="st0" d="M384.94,341.92v2.38l-7.95,22.47h-2.63l8.07-22.15h-11.04v-2.69h13.56Z"/>
  </g>
  <g>
    <path class="st0" d="M413.33,364.25c5.43-5.27,10.58-10.23,10.58-15.33,0-2.76-1-4.82-3.8-4.82s-4.06,2.24-4.17,5.38h-2.52c.17-5.31,2.95-8.06,6.67-8.06s6.4,2.76,6.4,7.37c0,6.2-5.55,11.47-9.24,15.09h9.84v2.62h-13.76v-2.24Z"/>
    <path class="st0" d="M430.56,348.09c0-3.65,2.29-6.62,6.78-6.62s6.81,3,6.81,6.62c0,2.69-1.29,4.76-3.32,5.72,2.35.86,3.86,3.14,3.86,6.24,0,4.51-2.98,7.41-7.35,7.41s-7.29-2.89-7.29-7.41c0-3.14,1.51-5.41,3.83-6.24-2.12-1-3.32-2.93-3.32-5.72ZM432.53,359.94c0,2.93,1.86,4.89,4.81,4.89s4.78-2,4.78-4.89c0-3.2-2.06-4.76-4.78-4.76s-4.81,1.45-4.81,4.76ZM441.63,348.47c0-2.86-1.69-4.38-4.29-4.38s-4.26,1.48-4.26,4.41c0,2.58,1.75,4.27,4.26,4.27s4.29-1.72,4.29-4.31Z"/>
  </g>
  <line class="st2" x1="34.99" y1="216.63" x2="450.68" y2="216.63"/>
  <path class="st1" d="M32.43,77.45c-6.74,0-12.22,5.47-12.22,12.22v320.82c0,6.75,5.47,12.22,12.22,12.22h434.83c6.74,0,12.21-5.47,12.21-12.22V89.67c0-6.75-5.47-12.22-12.21-12.22H32.43Z"/>
</svg>